%TF.GenerationSoftware,KiCad,Pcbnew,(5.1.10)-1*%
%TF.CreationDate,2021-07-03T11:15:49-05:00*%
%TF.ProjectId,LeftHand,4c656674-4861-46e6-942e-6b696361645f,rev?*%
%TF.SameCoordinates,Original*%
%TF.FileFunction,Legend,Top*%
%TF.FilePolarity,Positive*%
%FSLAX46Y46*%
G04 Gerber Fmt 4.6, Leading zero omitted, Abs format (unit mm)*
G04 Created by KiCad (PCBNEW (5.1.10)-1) date 2021-07-03 11:15:49*
%MOMM*%
%LPD*%
G01*
G04 APERTURE LIST*
%ADD10C,0.120000*%
%ADD11C,0.150000*%
G04 APERTURE END LIST*
D10*
%TO.C,KT2_2*%
X143201392Y-88909267D02*
X143320659Y-88423699D01*
X143082126Y-89394834D02*
X142962859Y-89880401D01*
X142715825Y-88790000D02*
X143082126Y-89394834D01*
X143686959Y-89028533D02*
X142715825Y-88790000D01*
X143082126Y-89394834D02*
X143686959Y-89028533D01*
X142596558Y-89275567D02*
X143082126Y-89394834D01*
X143567693Y-89514100D02*
X142596558Y-89275567D01*
X143576193Y-91575636D02*
X144768860Y-86719964D01*
X144768860Y-86719964D02*
X142826592Y-86242897D01*
X142826592Y-86242897D02*
X141633924Y-91098569D01*
X141633924Y-91098569D02*
X143576193Y-91575636D01*
%TO.C,KT2_1*%
X135356367Y-68447317D02*
X134870800Y-68328050D01*
X136327502Y-68685851D02*
X135841934Y-68566584D01*
X135237101Y-68932884D02*
X135841934Y-68566584D01*
X135475634Y-67961750D02*
X135237101Y-68932884D01*
X135841934Y-68566584D02*
X135475634Y-67961750D01*
X135722668Y-69052151D02*
X135841934Y-68566584D01*
X135961201Y-68081017D02*
X135722668Y-69052151D01*
X135594901Y-67476183D02*
X136566035Y-67714716D01*
X133167065Y-66879849D02*
X138022737Y-68072516D01*
X132689998Y-68822118D02*
X133167065Y-66879849D01*
X137545670Y-70014785D02*
X132689998Y-68822118D01*
X138022737Y-68072516D02*
X137545670Y-70014785D01*
%TO.C,KA1*%
X44000000Y-55500000D02*
X39000000Y-55500000D01*
X44000000Y-57500000D02*
X44000000Y-55500000D01*
X39000000Y-57500000D02*
X44000000Y-57500000D01*
X39000000Y-55500000D02*
X39000000Y-57500000D01*
X42000000Y-56000000D02*
X42000000Y-57000000D01*
X42000000Y-57000000D02*
X42000000Y-56500000D01*
X42000000Y-56500000D02*
X41500000Y-56000000D01*
X41500000Y-56000000D02*
X41500000Y-57000000D01*
X41500000Y-57000000D02*
X42000000Y-56500000D01*
X42000000Y-56500000D02*
X42500000Y-56500000D01*
X41500000Y-56500000D02*
X41000000Y-56500000D01*
%TO.C,KB1*%
X117500000Y-71500000D02*
X117000000Y-71500000D01*
X118000000Y-71500000D02*
X118500000Y-71500000D01*
X117500000Y-72000000D02*
X118000000Y-71500000D01*
X117500000Y-71000000D02*
X117500000Y-72000000D01*
X118000000Y-71500000D02*
X117500000Y-71000000D01*
X118000000Y-72000000D02*
X118000000Y-71500000D01*
X118000000Y-71000000D02*
X118000000Y-72000000D01*
X115000000Y-70500000D02*
X115000000Y-72500000D01*
X115000000Y-72500000D02*
X120000000Y-72500000D01*
X120000000Y-72500000D02*
X120000000Y-70500000D01*
X120000000Y-70500000D02*
X115000000Y-70500000D01*
%TO.C,KC1*%
X82000000Y-66500000D02*
X77000000Y-66500000D01*
X82000000Y-68500000D02*
X82000000Y-66500000D01*
X77000000Y-68500000D02*
X82000000Y-68500000D01*
X77000000Y-66500000D02*
X77000000Y-68500000D01*
X80000000Y-67000000D02*
X80000000Y-68000000D01*
X80000000Y-68000000D02*
X80000000Y-67500000D01*
X80000000Y-67500000D02*
X79500000Y-67000000D01*
X79500000Y-67000000D02*
X79500000Y-68000000D01*
X79500000Y-68000000D02*
X80000000Y-67500000D01*
X80000000Y-67500000D02*
X80500000Y-67500000D01*
X79500000Y-67500000D02*
X79000000Y-67500000D01*
%TO.C,KD1*%
X82000000Y-47500000D02*
X77000000Y-47500000D01*
X82000000Y-49500000D02*
X82000000Y-47500000D01*
X77000000Y-49500000D02*
X82000000Y-49500000D01*
X77000000Y-47500000D02*
X77000000Y-49500000D01*
X80000000Y-48000000D02*
X80000000Y-49000000D01*
X80000000Y-49000000D02*
X80000000Y-48500000D01*
X80000000Y-48500000D02*
X79500000Y-48000000D01*
X79500000Y-48000000D02*
X79500000Y-49000000D01*
X79500000Y-49000000D02*
X80000000Y-48500000D01*
X80000000Y-48500000D02*
X80500000Y-48500000D01*
X79500000Y-48500000D02*
X79000000Y-48500000D01*
%TO.C,KE1*%
X79500000Y-29500000D02*
X79000000Y-29500000D01*
X80000000Y-29500000D02*
X80500000Y-29500000D01*
X79500000Y-30000000D02*
X80000000Y-29500000D01*
X79500000Y-29000000D02*
X79500000Y-30000000D01*
X80000000Y-29500000D02*
X79500000Y-29000000D01*
X80000000Y-30000000D02*
X80000000Y-29500000D01*
X80000000Y-29000000D02*
X80000000Y-30000000D01*
X77000000Y-28500000D02*
X77000000Y-30500000D01*
X77000000Y-30500000D02*
X82000000Y-30500000D01*
X82000000Y-30500000D02*
X82000000Y-28500000D01*
X82000000Y-28500000D02*
X77000000Y-28500000D01*
%TO.C,KESC1*%
X25000000Y-46000000D02*
X20000000Y-46000000D01*
X25000000Y-48000000D02*
X25000000Y-46000000D01*
X20000000Y-48000000D02*
X25000000Y-48000000D01*
X20000000Y-46000000D02*
X20000000Y-48000000D01*
X23000000Y-46500000D02*
X23000000Y-47500000D01*
X23000000Y-47500000D02*
X23000000Y-47000000D01*
X23000000Y-47000000D02*
X22500000Y-46500000D01*
X22500000Y-46500000D02*
X22500000Y-47500000D01*
X22500000Y-47500000D02*
X23000000Y-47000000D01*
X23000000Y-47000000D02*
X23500000Y-47000000D01*
X22500000Y-47000000D02*
X22000000Y-47000000D01*
%TO.C,KF1*%
X98500000Y-52500000D02*
X98000000Y-52500000D01*
X99000000Y-52500000D02*
X99500000Y-52500000D01*
X98500000Y-53000000D02*
X99000000Y-52500000D01*
X98500000Y-52000000D02*
X98500000Y-53000000D01*
X99000000Y-52500000D02*
X98500000Y-52000000D01*
X99000000Y-53000000D02*
X99000000Y-52500000D01*
X99000000Y-52000000D02*
X99000000Y-53000000D01*
X96000000Y-51500000D02*
X96000000Y-53500000D01*
X96000000Y-53500000D02*
X101000000Y-53500000D01*
X101000000Y-53500000D02*
X101000000Y-51500000D01*
X101000000Y-51500000D02*
X96000000Y-51500000D01*
%TO.C,KG1*%
X120000000Y-51500000D02*
X115000000Y-51500000D01*
X120000000Y-53500000D02*
X120000000Y-51500000D01*
X115000000Y-53500000D02*
X120000000Y-53500000D01*
X115000000Y-51500000D02*
X115000000Y-53500000D01*
X118000000Y-52000000D02*
X118000000Y-53000000D01*
X118000000Y-53000000D02*
X118000000Y-52500000D01*
X118000000Y-52500000D02*
X117500000Y-52000000D01*
X117500000Y-52000000D02*
X117500000Y-53000000D01*
X117500000Y-53000000D02*
X118000000Y-52500000D01*
X118000000Y-52500000D02*
X118500000Y-52500000D01*
X117500000Y-52500000D02*
X117000000Y-52500000D01*
%TO.C,KQ1*%
X41500000Y-37500000D02*
X41000000Y-37500000D01*
X42000000Y-37500000D02*
X42500000Y-37500000D01*
X41500000Y-38000000D02*
X42000000Y-37500000D01*
X41500000Y-37000000D02*
X41500000Y-38000000D01*
X42000000Y-37500000D02*
X41500000Y-37000000D01*
X42000000Y-38000000D02*
X42000000Y-37500000D01*
X42000000Y-37000000D02*
X42000000Y-38000000D01*
X39000000Y-36500000D02*
X39000000Y-38500000D01*
X39000000Y-38500000D02*
X44000000Y-38500000D01*
X44000000Y-38500000D02*
X44000000Y-36500000D01*
X44000000Y-36500000D02*
X39000000Y-36500000D01*
%TO.C,KR1*%
X101000000Y-32500000D02*
X96000000Y-32500000D01*
X101000000Y-34500000D02*
X101000000Y-32500000D01*
X96000000Y-34500000D02*
X101000000Y-34500000D01*
X96000000Y-32500000D02*
X96000000Y-34500000D01*
X99000000Y-33000000D02*
X99000000Y-34000000D01*
X99000000Y-34000000D02*
X99000000Y-33500000D01*
X99000000Y-33500000D02*
X98500000Y-33000000D01*
X98500000Y-33000000D02*
X98500000Y-34000000D01*
X98500000Y-34000000D02*
X99000000Y-33500000D01*
X99000000Y-33500000D02*
X99500000Y-33500000D01*
X98500000Y-33500000D02*
X98000000Y-33500000D01*
%TO.C,KS1*%
X60500000Y-52500000D02*
X60000000Y-52500000D01*
X61000000Y-52500000D02*
X61500000Y-52500000D01*
X60500000Y-53000000D02*
X61000000Y-52500000D01*
X60500000Y-52000000D02*
X60500000Y-53000000D01*
X61000000Y-52500000D02*
X60500000Y-52000000D01*
X61000000Y-53000000D02*
X61000000Y-52500000D01*
X61000000Y-52000000D02*
X61000000Y-53000000D01*
X58000000Y-51500000D02*
X58000000Y-53500000D01*
X58000000Y-53500000D02*
X63000000Y-53500000D01*
X63000000Y-53500000D02*
X63000000Y-51500000D01*
X63000000Y-51500000D02*
X58000000Y-51500000D01*
%TO.C,KT1*%
X117500000Y-33500000D02*
X117000000Y-33500000D01*
X118000000Y-33500000D02*
X118500000Y-33500000D01*
X117500000Y-34000000D02*
X118000000Y-33500000D01*
X117500000Y-33000000D02*
X117500000Y-34000000D01*
X118000000Y-33500000D02*
X117500000Y-33000000D01*
X118000000Y-34000000D02*
X118000000Y-33500000D01*
X118000000Y-33000000D02*
X118000000Y-34000000D01*
X115000000Y-32500000D02*
X115000000Y-34500000D01*
X115000000Y-34500000D02*
X120000000Y-34500000D01*
X120000000Y-34500000D02*
X120000000Y-32500000D01*
X120000000Y-32500000D02*
X115000000Y-32500000D01*
%TO.C,KTAB1*%
X22500000Y-66000000D02*
X22000000Y-66000000D01*
X23000000Y-66000000D02*
X23500000Y-66000000D01*
X22500000Y-66500000D02*
X23000000Y-66000000D01*
X22500000Y-65500000D02*
X22500000Y-66500000D01*
X23000000Y-66000000D02*
X22500000Y-65500000D01*
X23000000Y-66500000D02*
X23000000Y-66000000D01*
X23000000Y-65500000D02*
X23000000Y-66500000D01*
X20000000Y-65000000D02*
X20000000Y-67000000D01*
X20000000Y-67000000D02*
X25000000Y-67000000D01*
X25000000Y-67000000D02*
X25000000Y-65000000D01*
X25000000Y-65000000D02*
X20000000Y-65000000D01*
%TO.C,KTG_A1*%
X113000000Y-89500000D02*
X108000000Y-89500000D01*
X113000000Y-91500000D02*
X113000000Y-89500000D01*
X108000000Y-91500000D02*
X113000000Y-91500000D01*
X108000000Y-89500000D02*
X108000000Y-91500000D01*
X111000000Y-90000000D02*
X111000000Y-91000000D01*
X111000000Y-91000000D02*
X111000000Y-90500000D01*
X111000000Y-90500000D02*
X110500000Y-90000000D01*
X110500000Y-90000000D02*
X110500000Y-91000000D01*
X110500000Y-91000000D02*
X111000000Y-90500000D01*
X111000000Y-90500000D02*
X111500000Y-90500000D01*
X110500000Y-90500000D02*
X110000000Y-90500000D01*
%TO.C,KTG_B1*%
X91500000Y-90500000D02*
X91000000Y-90500000D01*
X92000000Y-90500000D02*
X92500000Y-90500000D01*
X91500000Y-91000000D02*
X92000000Y-90500000D01*
X91500000Y-90000000D02*
X91500000Y-91000000D01*
X92000000Y-90500000D02*
X91500000Y-90000000D01*
X92000000Y-91000000D02*
X92000000Y-90500000D01*
X92000000Y-90000000D02*
X92000000Y-91000000D01*
X89000000Y-89500000D02*
X89000000Y-91500000D01*
X89000000Y-91500000D02*
X94000000Y-91500000D01*
X94000000Y-91500000D02*
X94000000Y-89500000D01*
X94000000Y-89500000D02*
X89000000Y-89500000D01*
%TO.C,KTG_C1*%
X113000000Y-108500000D02*
X108000000Y-108500000D01*
X113000000Y-110500000D02*
X113000000Y-108500000D01*
X108000000Y-110500000D02*
X113000000Y-110500000D01*
X108000000Y-108500000D02*
X108000000Y-110500000D01*
X111000000Y-109000000D02*
X111000000Y-110000000D01*
X111000000Y-110000000D02*
X111000000Y-109500000D01*
X111000000Y-109500000D02*
X110500000Y-109000000D01*
X110500000Y-109000000D02*
X110500000Y-110000000D01*
X110500000Y-110000000D02*
X111000000Y-109500000D01*
X111000000Y-109500000D02*
X111500000Y-109500000D01*
X110500000Y-109500000D02*
X110000000Y-109500000D01*
%TO.C,KTG_D1*%
X91500000Y-109500000D02*
X91000000Y-109500000D01*
X92000000Y-109500000D02*
X92500000Y-109500000D01*
X91500000Y-110000000D02*
X92000000Y-109500000D01*
X91500000Y-109000000D02*
X91500000Y-110000000D01*
X92000000Y-109500000D02*
X91500000Y-109000000D01*
X92000000Y-110000000D02*
X92000000Y-109500000D01*
X92000000Y-109000000D02*
X92000000Y-110000000D01*
X89000000Y-108500000D02*
X89000000Y-110500000D01*
X89000000Y-110500000D02*
X94000000Y-110500000D01*
X94000000Y-110500000D02*
X94000000Y-108500000D01*
X94000000Y-108500000D02*
X89000000Y-108500000D01*
%TO.C,KV1*%
X101000000Y-70500000D02*
X96000000Y-70500000D01*
X101000000Y-72500000D02*
X101000000Y-70500000D01*
X96000000Y-72500000D02*
X101000000Y-72500000D01*
X96000000Y-70500000D02*
X96000000Y-72500000D01*
X99000000Y-71000000D02*
X99000000Y-72000000D01*
X99000000Y-72000000D02*
X99000000Y-71500000D01*
X99000000Y-71500000D02*
X98500000Y-71000000D01*
X98500000Y-71000000D02*
X98500000Y-72000000D01*
X98500000Y-72000000D02*
X99000000Y-71500000D01*
X99000000Y-71500000D02*
X99500000Y-71500000D01*
X98500000Y-71500000D02*
X98000000Y-71500000D01*
%TO.C,KW1*%
X63000000Y-32500000D02*
X58000000Y-32500000D01*
X63000000Y-34500000D02*
X63000000Y-32500000D01*
X58000000Y-34500000D02*
X63000000Y-34500000D01*
X58000000Y-32500000D02*
X58000000Y-34500000D01*
X61000000Y-33000000D02*
X61000000Y-34000000D01*
X61000000Y-34000000D02*
X61000000Y-33500000D01*
X61000000Y-33500000D02*
X60500000Y-33000000D01*
X60500000Y-33000000D02*
X60500000Y-34000000D01*
X60500000Y-34000000D02*
X61000000Y-33500000D01*
X61000000Y-33500000D02*
X61500000Y-33500000D01*
X60500000Y-33500000D02*
X60000000Y-33500000D01*
%TO.C,KX1*%
X60500000Y-71500000D02*
X60000000Y-71500000D01*
X61000000Y-71500000D02*
X61500000Y-71500000D01*
X60500000Y-72000000D02*
X61000000Y-71500000D01*
X60500000Y-71000000D02*
X60500000Y-72000000D01*
X61000000Y-71500000D02*
X60500000Y-71000000D01*
X61000000Y-72000000D02*
X61000000Y-71500000D01*
X61000000Y-71000000D02*
X61000000Y-72000000D01*
X58000000Y-70500000D02*
X58000000Y-72500000D01*
X58000000Y-72500000D02*
X63000000Y-72500000D01*
X63000000Y-72500000D02*
X63000000Y-70500000D01*
X63000000Y-70500000D02*
X58000000Y-70500000D01*
%TO.C,KZ1*%
X44000000Y-74500000D02*
X39000000Y-74500000D01*
X44000000Y-76500000D02*
X44000000Y-74500000D01*
X39000000Y-76500000D02*
X44000000Y-76500000D01*
X39000000Y-74500000D02*
X39000000Y-76500000D01*
X42000000Y-75000000D02*
X42000000Y-76000000D01*
X42000000Y-76000000D02*
X42000000Y-75500000D01*
X42000000Y-75500000D02*
X41500000Y-75000000D01*
X41500000Y-75000000D02*
X41500000Y-76000000D01*
X41500000Y-76000000D02*
X42000000Y-75500000D01*
X42000000Y-75500000D02*
X42500000Y-75500000D01*
X41500000Y-75500000D02*
X41000000Y-75500000D01*
%TO.C,R0*%
X75500000Y-108000000D02*
X77500000Y-108000000D01*
X77500000Y-108000000D02*
X77500000Y-102000000D01*
X77500000Y-102000000D02*
X75500000Y-102000000D01*
X75500000Y-102000000D02*
X75500000Y-108000000D01*
%TO.C,R1*%
X78000000Y-102000000D02*
X78000000Y-108000000D01*
X80000000Y-102000000D02*
X78000000Y-102000000D01*
X80000000Y-108000000D02*
X80000000Y-102000000D01*
X78000000Y-108000000D02*
X80000000Y-108000000D01*
%TO.C,R2*%
X77500000Y-91500000D02*
X75500000Y-91500000D01*
X75500000Y-91500000D02*
X75500000Y-97500000D01*
X75500000Y-97500000D02*
X77500000Y-97500000D01*
X77500000Y-97500000D02*
X77500000Y-91500000D01*
%TO.C,R3*%
X80000000Y-97500000D02*
X80000000Y-91500000D01*
X78000000Y-97500000D02*
X80000000Y-97500000D01*
X78000000Y-91500000D02*
X78000000Y-97500000D01*
X80000000Y-91500000D02*
X78000000Y-91500000D01*
%TO.C,UDEMUX1*%
X76000000Y-86500000D02*
X56000000Y-86500000D01*
X76000000Y-76500000D02*
X76000000Y-86500000D01*
X56000000Y-76500000D02*
X76000000Y-76500000D01*
X56000000Y-86500000D02*
X56000000Y-76500000D01*
X56000000Y-80500000D02*
G75*
G02*
X56000000Y-82500000I0J-1000000D01*
G01*
%TO.C,UDINN9*%
X50000000Y-91000000D02*
X50000000Y-105000000D01*
X50000000Y-105000000D02*
X62300000Y-105000000D01*
X62300000Y-91000000D02*
X62300000Y-105000000D01*
X50000000Y-91000000D02*
X62300000Y-91000000D01*
%TO.C,UREG1*%
X64000000Y-90000000D02*
X74000000Y-90000000D01*
X74000000Y-90000000D02*
X74000000Y-110000000D01*
X74000000Y-110000000D02*
X64000000Y-110000000D01*
X64000000Y-110000000D02*
X64000000Y-90000000D01*
X70000000Y-90000000D02*
G75*
G02*
X68000000Y-90000000I-1000000J0D01*
G01*
%TO.C,KT2_2*%
D11*
X145120096Y-93474923D02*
X144148961Y-93236389D01*
X145256400Y-92919989D02*
X144599238Y-93199885D01*
X144285266Y-92681455D02*
X144703895Y-93372694D01*
X144353419Y-92403989D02*
X144489723Y-91849055D01*
X145392705Y-92365055D02*
X144421571Y-92126522D01*
X144650365Y-91594305D02*
X144615479Y-91536702D01*
X144591952Y-91432854D01*
X144648746Y-91201632D01*
X144717708Y-91120502D01*
X144775311Y-91085616D01*
X144879159Y-91062089D01*
X144971648Y-91084806D01*
X145099022Y-91165127D01*
X145517651Y-91856366D01*
X145665315Y-91255187D01*
X145803239Y-91092927D02*
X145984979Y-90353015D01*
X145059279Y-89929504D02*
X145024394Y-89871900D01*
X145000867Y-89768053D01*
X145057660Y-89536830D01*
X145126622Y-89455700D01*
X145184225Y-89420814D01*
X145288073Y-89397287D01*
X145380562Y-89420005D01*
X145507937Y-89500325D01*
X145926566Y-90191564D01*
X146074229Y-89590386D01*
%TO.C,KT2_1*%
X126669096Y-88942923D02*
X125697961Y-88704389D01*
X126805400Y-88387989D02*
X126148238Y-88667885D01*
X125834266Y-88149455D02*
X126252895Y-88840694D01*
X125902419Y-87871989D02*
X126038723Y-87317055D01*
X126941705Y-87833055D02*
X125970571Y-87594522D01*
X126199365Y-87062305D02*
X126164479Y-87004702D01*
X126140952Y-86900854D01*
X126197746Y-86669632D01*
X126266708Y-86588502D01*
X126324311Y-86553616D01*
X126428159Y-86530089D01*
X126520648Y-86552806D01*
X126648022Y-86633127D01*
X127066651Y-87324366D01*
X127214315Y-86723187D01*
X127352239Y-86560927D02*
X127533979Y-85821015D01*
X127623229Y-85058386D02*
X127486925Y-85613320D01*
X127555077Y-85335853D02*
X126583943Y-85097319D01*
X126699959Y-85223884D01*
X126769730Y-85339091D01*
X126793257Y-85442939D01*
%TO.C,KA1*%
X41833333Y-54452380D02*
X41833333Y-53452380D01*
X42404761Y-54452380D02*
X41976190Y-53880952D01*
X42404761Y-53452380D02*
X41833333Y-54023809D01*
X42785714Y-54166666D02*
X43261904Y-54166666D01*
X42690476Y-54452380D02*
X43023809Y-53452380D01*
X43357142Y-54452380D01*
X44214285Y-54452380D02*
X43642857Y-54452380D01*
X43928571Y-54452380D02*
X43928571Y-53452380D01*
X43833333Y-53595238D01*
X43738095Y-53690476D01*
X43642857Y-53738095D01*
%TO.C,KB1*%
X117761904Y-69452380D02*
X117761904Y-68452380D01*
X118333333Y-69452380D02*
X117904761Y-68880952D01*
X118333333Y-68452380D02*
X117761904Y-69023809D01*
X119095238Y-68928571D02*
X119238095Y-68976190D01*
X119285714Y-69023809D01*
X119333333Y-69119047D01*
X119333333Y-69261904D01*
X119285714Y-69357142D01*
X119238095Y-69404761D01*
X119142857Y-69452380D01*
X118761904Y-69452380D01*
X118761904Y-68452380D01*
X119095238Y-68452380D01*
X119190476Y-68500000D01*
X119238095Y-68547619D01*
X119285714Y-68642857D01*
X119285714Y-68738095D01*
X119238095Y-68833333D01*
X119190476Y-68880952D01*
X119095238Y-68928571D01*
X118761904Y-68928571D01*
X120285714Y-69452380D02*
X119714285Y-69452380D01*
X120000000Y-69452380D02*
X120000000Y-68452380D01*
X119904761Y-68595238D01*
X119809523Y-68690476D01*
X119714285Y-68738095D01*
%TO.C,KC1*%
X79761904Y-65452380D02*
X79761904Y-64452380D01*
X80333333Y-65452380D02*
X79904761Y-64880952D01*
X80333333Y-64452380D02*
X79761904Y-65023809D01*
X81333333Y-65357142D02*
X81285714Y-65404761D01*
X81142857Y-65452380D01*
X81047619Y-65452380D01*
X80904761Y-65404761D01*
X80809523Y-65309523D01*
X80761904Y-65214285D01*
X80714285Y-65023809D01*
X80714285Y-64880952D01*
X80761904Y-64690476D01*
X80809523Y-64595238D01*
X80904761Y-64500000D01*
X81047619Y-64452380D01*
X81142857Y-64452380D01*
X81285714Y-64500000D01*
X81333333Y-64547619D01*
X82285714Y-65452380D02*
X81714285Y-65452380D01*
X82000000Y-65452380D02*
X82000000Y-64452380D01*
X81904761Y-64595238D01*
X81809523Y-64690476D01*
X81714285Y-64738095D01*
%TO.C,KD1*%
X79761904Y-46452380D02*
X79761904Y-45452380D01*
X80333333Y-46452380D02*
X79904761Y-45880952D01*
X80333333Y-45452380D02*
X79761904Y-46023809D01*
X80761904Y-46452380D02*
X80761904Y-45452380D01*
X81000000Y-45452380D01*
X81142857Y-45500000D01*
X81238095Y-45595238D01*
X81285714Y-45690476D01*
X81333333Y-45880952D01*
X81333333Y-46023809D01*
X81285714Y-46214285D01*
X81238095Y-46309523D01*
X81142857Y-46404761D01*
X81000000Y-46452380D01*
X80761904Y-46452380D01*
X82285714Y-46452380D02*
X81714285Y-46452380D01*
X82000000Y-46452380D02*
X82000000Y-45452380D01*
X81904761Y-45595238D01*
X81809523Y-45690476D01*
X81714285Y-45738095D01*
%TO.C,KE1*%
X79809523Y-27452380D02*
X79809523Y-26452380D01*
X80380952Y-27452380D02*
X79952380Y-26880952D01*
X80380952Y-26452380D02*
X79809523Y-27023809D01*
X80809523Y-26928571D02*
X81142857Y-26928571D01*
X81285714Y-27452380D02*
X80809523Y-27452380D01*
X80809523Y-26452380D01*
X81285714Y-26452380D01*
X82238095Y-27452380D02*
X81666666Y-27452380D01*
X81952380Y-27452380D02*
X81952380Y-26452380D01*
X81857142Y-26595238D01*
X81761904Y-26690476D01*
X81666666Y-26738095D01*
%TO.C,KESC1*%
X21833333Y-44952380D02*
X21833333Y-43952380D01*
X22404761Y-44952380D02*
X21976190Y-44380952D01*
X22404761Y-43952380D02*
X21833333Y-44523809D01*
X22833333Y-44428571D02*
X23166666Y-44428571D01*
X23309523Y-44952380D02*
X22833333Y-44952380D01*
X22833333Y-43952380D01*
X23309523Y-43952380D01*
X23690476Y-44904761D02*
X23833333Y-44952380D01*
X24071428Y-44952380D01*
X24166666Y-44904761D01*
X24214285Y-44857142D01*
X24261904Y-44761904D01*
X24261904Y-44666666D01*
X24214285Y-44571428D01*
X24166666Y-44523809D01*
X24071428Y-44476190D01*
X23880952Y-44428571D01*
X23785714Y-44380952D01*
X23738095Y-44333333D01*
X23690476Y-44238095D01*
X23690476Y-44142857D01*
X23738095Y-44047619D01*
X23785714Y-44000000D01*
X23880952Y-43952380D01*
X24119047Y-43952380D01*
X24261904Y-44000000D01*
X25261904Y-44857142D02*
X25214285Y-44904761D01*
X25071428Y-44952380D01*
X24976190Y-44952380D01*
X24833333Y-44904761D01*
X24738095Y-44809523D01*
X24690476Y-44714285D01*
X24642857Y-44523809D01*
X24642857Y-44380952D01*
X24690476Y-44190476D01*
X24738095Y-44095238D01*
X24833333Y-44000000D01*
X24976190Y-43952380D01*
X25071428Y-43952380D01*
X25214285Y-44000000D01*
X25261904Y-44047619D01*
X26214285Y-44952380D02*
X25642857Y-44952380D01*
X25928571Y-44952380D02*
X25928571Y-43952380D01*
X25833333Y-44095238D01*
X25738095Y-44190476D01*
X25642857Y-44238095D01*
%TO.C,KF1*%
X98833333Y-50452380D02*
X98833333Y-49452380D01*
X99404761Y-50452380D02*
X98976190Y-49880952D01*
X99404761Y-49452380D02*
X98833333Y-50023809D01*
X100166666Y-49928571D02*
X99833333Y-49928571D01*
X99833333Y-50452380D02*
X99833333Y-49452380D01*
X100309523Y-49452380D01*
X101214285Y-50452380D02*
X100642857Y-50452380D01*
X100928571Y-50452380D02*
X100928571Y-49452380D01*
X100833333Y-49595238D01*
X100738095Y-49690476D01*
X100642857Y-49738095D01*
%TO.C,KG1*%
X117761904Y-50452380D02*
X117761904Y-49452380D01*
X118333333Y-50452380D02*
X117904761Y-49880952D01*
X118333333Y-49452380D02*
X117761904Y-50023809D01*
X119285714Y-49500000D02*
X119190476Y-49452380D01*
X119047619Y-49452380D01*
X118904761Y-49500000D01*
X118809523Y-49595238D01*
X118761904Y-49690476D01*
X118714285Y-49880952D01*
X118714285Y-50023809D01*
X118761904Y-50214285D01*
X118809523Y-50309523D01*
X118904761Y-50404761D01*
X119047619Y-50452380D01*
X119142857Y-50452380D01*
X119285714Y-50404761D01*
X119333333Y-50357142D01*
X119333333Y-50023809D01*
X119142857Y-50023809D01*
X120285714Y-50452380D02*
X119714285Y-50452380D01*
X120000000Y-50452380D02*
X120000000Y-49452380D01*
X119904761Y-49595238D01*
X119809523Y-49690476D01*
X119714285Y-49738095D01*
%TO.C,KQ1*%
X41738095Y-35452380D02*
X41738095Y-34452380D01*
X42309523Y-35452380D02*
X41880952Y-34880952D01*
X42309523Y-34452380D02*
X41738095Y-35023809D01*
X43404761Y-35547619D02*
X43309523Y-35500000D01*
X43214285Y-35404761D01*
X43071428Y-35261904D01*
X42976190Y-35214285D01*
X42880952Y-35214285D01*
X42928571Y-35452380D02*
X42833333Y-35404761D01*
X42738095Y-35309523D01*
X42690476Y-35119047D01*
X42690476Y-34785714D01*
X42738095Y-34595238D01*
X42833333Y-34500000D01*
X42928571Y-34452380D01*
X43119047Y-34452380D01*
X43214285Y-34500000D01*
X43309523Y-34595238D01*
X43357142Y-34785714D01*
X43357142Y-35119047D01*
X43309523Y-35309523D01*
X43214285Y-35404761D01*
X43119047Y-35452380D01*
X42928571Y-35452380D01*
X44309523Y-35452380D02*
X43738095Y-35452380D01*
X44023809Y-35452380D02*
X44023809Y-34452380D01*
X43928571Y-34595238D01*
X43833333Y-34690476D01*
X43738095Y-34738095D01*
%TO.C,KR1*%
X98761904Y-31452380D02*
X98761904Y-30452380D01*
X99333333Y-31452380D02*
X98904761Y-30880952D01*
X99333333Y-30452380D02*
X98761904Y-31023809D01*
X100333333Y-31452380D02*
X100000000Y-30976190D01*
X99761904Y-31452380D02*
X99761904Y-30452380D01*
X100142857Y-30452380D01*
X100238095Y-30500000D01*
X100285714Y-30547619D01*
X100333333Y-30642857D01*
X100333333Y-30785714D01*
X100285714Y-30880952D01*
X100238095Y-30928571D01*
X100142857Y-30976190D01*
X99761904Y-30976190D01*
X101285714Y-31452380D02*
X100714285Y-31452380D01*
X101000000Y-31452380D02*
X101000000Y-30452380D01*
X100904761Y-30595238D01*
X100809523Y-30690476D01*
X100714285Y-30738095D01*
%TO.C,KS1*%
X60785714Y-50452380D02*
X60785714Y-49452380D01*
X61357142Y-50452380D02*
X60928571Y-49880952D01*
X61357142Y-49452380D02*
X60785714Y-50023809D01*
X61738095Y-50404761D02*
X61880952Y-50452380D01*
X62119047Y-50452380D01*
X62214285Y-50404761D01*
X62261904Y-50357142D01*
X62309523Y-50261904D01*
X62309523Y-50166666D01*
X62261904Y-50071428D01*
X62214285Y-50023809D01*
X62119047Y-49976190D01*
X61928571Y-49928571D01*
X61833333Y-49880952D01*
X61785714Y-49833333D01*
X61738095Y-49738095D01*
X61738095Y-49642857D01*
X61785714Y-49547619D01*
X61833333Y-49500000D01*
X61928571Y-49452380D01*
X62166666Y-49452380D01*
X62309523Y-49500000D01*
X63261904Y-50452380D02*
X62690476Y-50452380D01*
X62976190Y-50452380D02*
X62976190Y-49452380D01*
X62880952Y-49595238D01*
X62785714Y-49690476D01*
X62690476Y-49738095D01*
%TO.C,KT1*%
X117880952Y-31452380D02*
X117880952Y-30452380D01*
X118452380Y-31452380D02*
X118023809Y-30880952D01*
X118452380Y-30452380D02*
X117880952Y-31023809D01*
X118738095Y-30452380D02*
X119309523Y-30452380D01*
X119023809Y-31452380D02*
X119023809Y-30452380D01*
X120166666Y-31452380D02*
X119595238Y-31452380D01*
X119880952Y-31452380D02*
X119880952Y-30452380D01*
X119785714Y-30595238D01*
X119690476Y-30690476D01*
X119595238Y-30738095D01*
%TO.C,KTAB1*%
X21952380Y-63952380D02*
X21952380Y-62952380D01*
X22523809Y-63952380D02*
X22095238Y-63380952D01*
X22523809Y-62952380D02*
X21952380Y-63523809D01*
X22809523Y-62952380D02*
X23380952Y-62952380D01*
X23095238Y-63952380D02*
X23095238Y-62952380D01*
X23666666Y-63666666D02*
X24142857Y-63666666D01*
X23571428Y-63952380D02*
X23904761Y-62952380D01*
X24238095Y-63952380D01*
X24904761Y-63428571D02*
X25047619Y-63476190D01*
X25095238Y-63523809D01*
X25142857Y-63619047D01*
X25142857Y-63761904D01*
X25095238Y-63857142D01*
X25047619Y-63904761D01*
X24952380Y-63952380D01*
X24571428Y-63952380D01*
X24571428Y-62952380D01*
X24904761Y-62952380D01*
X25000000Y-63000000D01*
X25047619Y-63047619D01*
X25095238Y-63142857D01*
X25095238Y-63238095D01*
X25047619Y-63333333D01*
X25000000Y-63380952D01*
X24904761Y-63428571D01*
X24571428Y-63428571D01*
X26095238Y-63952380D02*
X25523809Y-63952380D01*
X25809523Y-63952380D02*
X25809523Y-62952380D01*
X25714285Y-63095238D01*
X25619047Y-63190476D01*
X25523809Y-63238095D01*
%TO.C,KTG_A1*%
X109571428Y-88452380D02*
X109571428Y-87452380D01*
X110142857Y-88452380D02*
X109714285Y-87880952D01*
X110142857Y-87452380D02*
X109571428Y-88023809D01*
X110428571Y-87452380D02*
X111000000Y-87452380D01*
X110714285Y-88452380D02*
X110714285Y-87452380D01*
X111857142Y-87500000D02*
X111761904Y-87452380D01*
X111619047Y-87452380D01*
X111476190Y-87500000D01*
X111380952Y-87595238D01*
X111333333Y-87690476D01*
X111285714Y-87880952D01*
X111285714Y-88023809D01*
X111333333Y-88214285D01*
X111380952Y-88309523D01*
X111476190Y-88404761D01*
X111619047Y-88452380D01*
X111714285Y-88452380D01*
X111857142Y-88404761D01*
X111904761Y-88357142D01*
X111904761Y-88023809D01*
X111714285Y-88023809D01*
X112095238Y-88547619D02*
X112857142Y-88547619D01*
X113047619Y-88166666D02*
X113523809Y-88166666D01*
X112952380Y-88452380D02*
X113285714Y-87452380D01*
X113619047Y-88452380D01*
X114476190Y-88452380D02*
X113904761Y-88452380D01*
X114190476Y-88452380D02*
X114190476Y-87452380D01*
X114095238Y-87595238D01*
X114000000Y-87690476D01*
X113904761Y-87738095D01*
%TO.C,KTG_B1*%
X90500000Y-88452380D02*
X90500000Y-87452380D01*
X91071428Y-88452380D02*
X90642857Y-87880952D01*
X91071428Y-87452380D02*
X90500000Y-88023809D01*
X91357142Y-87452380D02*
X91928571Y-87452380D01*
X91642857Y-88452380D02*
X91642857Y-87452380D01*
X92785714Y-87500000D02*
X92690476Y-87452380D01*
X92547619Y-87452380D01*
X92404761Y-87500000D01*
X92309523Y-87595238D01*
X92261904Y-87690476D01*
X92214285Y-87880952D01*
X92214285Y-88023809D01*
X92261904Y-88214285D01*
X92309523Y-88309523D01*
X92404761Y-88404761D01*
X92547619Y-88452380D01*
X92642857Y-88452380D01*
X92785714Y-88404761D01*
X92833333Y-88357142D01*
X92833333Y-88023809D01*
X92642857Y-88023809D01*
X93023809Y-88547619D02*
X93785714Y-88547619D01*
X94357142Y-87928571D02*
X94500000Y-87976190D01*
X94547619Y-88023809D01*
X94595238Y-88119047D01*
X94595238Y-88261904D01*
X94547619Y-88357142D01*
X94500000Y-88404761D01*
X94404761Y-88452380D01*
X94023809Y-88452380D01*
X94023809Y-87452380D01*
X94357142Y-87452380D01*
X94452380Y-87500000D01*
X94500000Y-87547619D01*
X94547619Y-87642857D01*
X94547619Y-87738095D01*
X94500000Y-87833333D01*
X94452380Y-87880952D01*
X94357142Y-87928571D01*
X94023809Y-87928571D01*
X95547619Y-88452380D02*
X94976190Y-88452380D01*
X95261904Y-88452380D02*
X95261904Y-87452380D01*
X95166666Y-87595238D01*
X95071428Y-87690476D01*
X94976190Y-87738095D01*
%TO.C,KTG_C1*%
X109500000Y-107452380D02*
X109500000Y-106452380D01*
X110071428Y-107452380D02*
X109642857Y-106880952D01*
X110071428Y-106452380D02*
X109500000Y-107023809D01*
X110357142Y-106452380D02*
X110928571Y-106452380D01*
X110642857Y-107452380D02*
X110642857Y-106452380D01*
X111785714Y-106500000D02*
X111690476Y-106452380D01*
X111547619Y-106452380D01*
X111404761Y-106500000D01*
X111309523Y-106595238D01*
X111261904Y-106690476D01*
X111214285Y-106880952D01*
X111214285Y-107023809D01*
X111261904Y-107214285D01*
X111309523Y-107309523D01*
X111404761Y-107404761D01*
X111547619Y-107452380D01*
X111642857Y-107452380D01*
X111785714Y-107404761D01*
X111833333Y-107357142D01*
X111833333Y-107023809D01*
X111642857Y-107023809D01*
X112023809Y-107547619D02*
X112785714Y-107547619D01*
X113595238Y-107357142D02*
X113547619Y-107404761D01*
X113404761Y-107452380D01*
X113309523Y-107452380D01*
X113166666Y-107404761D01*
X113071428Y-107309523D01*
X113023809Y-107214285D01*
X112976190Y-107023809D01*
X112976190Y-106880952D01*
X113023809Y-106690476D01*
X113071428Y-106595238D01*
X113166666Y-106500000D01*
X113309523Y-106452380D01*
X113404761Y-106452380D01*
X113547619Y-106500000D01*
X113595238Y-106547619D01*
X114547619Y-107452380D02*
X113976190Y-107452380D01*
X114261904Y-107452380D02*
X114261904Y-106452380D01*
X114166666Y-106595238D01*
X114071428Y-106690476D01*
X113976190Y-106738095D01*
%TO.C,KTG_D1*%
X90500000Y-107452380D02*
X90500000Y-106452380D01*
X91071428Y-107452380D02*
X90642857Y-106880952D01*
X91071428Y-106452380D02*
X90500000Y-107023809D01*
X91357142Y-106452380D02*
X91928571Y-106452380D01*
X91642857Y-107452380D02*
X91642857Y-106452380D01*
X92785714Y-106500000D02*
X92690476Y-106452380D01*
X92547619Y-106452380D01*
X92404761Y-106500000D01*
X92309523Y-106595238D01*
X92261904Y-106690476D01*
X92214285Y-106880952D01*
X92214285Y-107023809D01*
X92261904Y-107214285D01*
X92309523Y-107309523D01*
X92404761Y-107404761D01*
X92547619Y-107452380D01*
X92642857Y-107452380D01*
X92785714Y-107404761D01*
X92833333Y-107357142D01*
X92833333Y-107023809D01*
X92642857Y-107023809D01*
X93023809Y-107547619D02*
X93785714Y-107547619D01*
X94023809Y-107452380D02*
X94023809Y-106452380D01*
X94261904Y-106452380D01*
X94404761Y-106500000D01*
X94500000Y-106595238D01*
X94547619Y-106690476D01*
X94595238Y-106880952D01*
X94595238Y-107023809D01*
X94547619Y-107214285D01*
X94500000Y-107309523D01*
X94404761Y-107404761D01*
X94261904Y-107452380D01*
X94023809Y-107452380D01*
X95547619Y-107452380D02*
X94976190Y-107452380D01*
X95261904Y-107452380D02*
X95261904Y-106452380D01*
X95166666Y-106595238D01*
X95071428Y-106690476D01*
X94976190Y-106738095D01*
%TO.C,KV1*%
X98833333Y-69452380D02*
X98833333Y-68452380D01*
X99404761Y-69452380D02*
X98976190Y-68880952D01*
X99404761Y-68452380D02*
X98833333Y-69023809D01*
X99690476Y-68452380D02*
X100023809Y-69452380D01*
X100357142Y-68452380D01*
X101214285Y-69452380D02*
X100642857Y-69452380D01*
X100928571Y-69452380D02*
X100928571Y-68452380D01*
X100833333Y-68595238D01*
X100738095Y-68690476D01*
X100642857Y-68738095D01*
%TO.C,KW1*%
X60690476Y-31452380D02*
X60690476Y-30452380D01*
X61261904Y-31452380D02*
X60833333Y-30880952D01*
X61261904Y-30452380D02*
X60690476Y-31023809D01*
X61595238Y-30452380D02*
X61833333Y-31452380D01*
X62023809Y-30738095D01*
X62214285Y-31452380D01*
X62452380Y-30452380D01*
X63357142Y-31452380D02*
X62785714Y-31452380D01*
X63071428Y-31452380D02*
X63071428Y-30452380D01*
X62976190Y-30595238D01*
X62880952Y-30690476D01*
X62785714Y-30738095D01*
%TO.C,KX1*%
X60785714Y-69452380D02*
X60785714Y-68452380D01*
X61357142Y-69452380D02*
X60928571Y-68880952D01*
X61357142Y-68452380D02*
X60785714Y-69023809D01*
X61690476Y-68452380D02*
X62357142Y-69452380D01*
X62357142Y-68452380D02*
X61690476Y-69452380D01*
X63261904Y-69452380D02*
X62690476Y-69452380D01*
X62976190Y-69452380D02*
X62976190Y-68452380D01*
X62880952Y-68595238D01*
X62785714Y-68690476D01*
X62690476Y-68738095D01*
%TO.C,KZ1*%
X41785714Y-73452380D02*
X41785714Y-72452380D01*
X42357142Y-73452380D02*
X41928571Y-72880952D01*
X42357142Y-72452380D02*
X41785714Y-73023809D01*
X42690476Y-72452380D02*
X43357142Y-72452380D01*
X42690476Y-73452380D01*
X43357142Y-73452380D01*
X44261904Y-73452380D02*
X43690476Y-73452380D01*
X43976190Y-73452380D02*
X43976190Y-72452380D01*
X43880952Y-72595238D01*
X43785714Y-72690476D01*
X43690476Y-72738095D01*
%TO.C,R0*%
X76952380Y-105166666D02*
X76476190Y-105500000D01*
X76952380Y-105738095D02*
X75952380Y-105738095D01*
X75952380Y-105357142D01*
X76000000Y-105261904D01*
X76047619Y-105214285D01*
X76142857Y-105166666D01*
X76285714Y-105166666D01*
X76380952Y-105214285D01*
X76428571Y-105261904D01*
X76476190Y-105357142D01*
X76476190Y-105738095D01*
X75952380Y-104547619D02*
X75952380Y-104452380D01*
X76000000Y-104357142D01*
X76047619Y-104309523D01*
X76142857Y-104261904D01*
X76333333Y-104214285D01*
X76571428Y-104214285D01*
X76761904Y-104261904D01*
X76857142Y-104309523D01*
X76904761Y-104357142D01*
X76952380Y-104452380D01*
X76952380Y-104547619D01*
X76904761Y-104642857D01*
X76857142Y-104690476D01*
X76761904Y-104738095D01*
X76571428Y-104785714D01*
X76333333Y-104785714D01*
X76142857Y-104738095D01*
X76047619Y-104690476D01*
X76000000Y-104642857D01*
X75952380Y-104547619D01*
%TO.C,R1*%
X79452380Y-105166666D02*
X78976190Y-105500000D01*
X79452380Y-105738095D02*
X78452380Y-105738095D01*
X78452380Y-105357142D01*
X78500000Y-105261904D01*
X78547619Y-105214285D01*
X78642857Y-105166666D01*
X78785714Y-105166666D01*
X78880952Y-105214285D01*
X78928571Y-105261904D01*
X78976190Y-105357142D01*
X78976190Y-105738095D01*
X79452380Y-104214285D02*
X79452380Y-104785714D01*
X79452380Y-104500000D02*
X78452380Y-104500000D01*
X78595238Y-104595238D01*
X78690476Y-104690476D01*
X78738095Y-104785714D01*
%TO.C,R2*%
X76952380Y-94666666D02*
X76476190Y-95000000D01*
X76952380Y-95238095D02*
X75952380Y-95238095D01*
X75952380Y-94857142D01*
X76000000Y-94761904D01*
X76047619Y-94714285D01*
X76142857Y-94666666D01*
X76285714Y-94666666D01*
X76380952Y-94714285D01*
X76428571Y-94761904D01*
X76476190Y-94857142D01*
X76476190Y-95238095D01*
X76047619Y-94285714D02*
X76000000Y-94238095D01*
X75952380Y-94142857D01*
X75952380Y-93904761D01*
X76000000Y-93809523D01*
X76047619Y-93761904D01*
X76142857Y-93714285D01*
X76238095Y-93714285D01*
X76380952Y-93761904D01*
X76952380Y-94333333D01*
X76952380Y-93714285D01*
%TO.C,R3*%
X79452380Y-94666666D02*
X78976190Y-95000000D01*
X79452380Y-95238095D02*
X78452380Y-95238095D01*
X78452380Y-94857142D01*
X78500000Y-94761904D01*
X78547619Y-94714285D01*
X78642857Y-94666666D01*
X78785714Y-94666666D01*
X78880952Y-94714285D01*
X78928571Y-94761904D01*
X78976190Y-94857142D01*
X78976190Y-95238095D01*
X78452380Y-94333333D02*
X78452380Y-93714285D01*
X78833333Y-94047619D01*
X78833333Y-93904761D01*
X78880952Y-93809523D01*
X78928571Y-93761904D01*
X79023809Y-93714285D01*
X79261904Y-93714285D01*
X79357142Y-93761904D01*
X79404761Y-93809523D01*
X79452380Y-93904761D01*
X79452380Y-94190476D01*
X79404761Y-94285714D01*
X79357142Y-94333333D01*
%TO.C,UDEMUX1*%
X73452380Y-84785714D02*
X74261904Y-84785714D01*
X74357142Y-84738095D01*
X74404761Y-84690476D01*
X74452380Y-84595238D01*
X74452380Y-84404761D01*
X74404761Y-84309523D01*
X74357142Y-84261904D01*
X74261904Y-84214285D01*
X73452380Y-84214285D01*
X74452380Y-83738095D02*
X73452380Y-83738095D01*
X73452380Y-83500000D01*
X73500000Y-83357142D01*
X73595238Y-83261904D01*
X73690476Y-83214285D01*
X73880952Y-83166666D01*
X74023809Y-83166666D01*
X74214285Y-83214285D01*
X74309523Y-83261904D01*
X74404761Y-83357142D01*
X74452380Y-83500000D01*
X74452380Y-83738095D01*
X73928571Y-82738095D02*
X73928571Y-82404761D01*
X74452380Y-82261904D02*
X74452380Y-82738095D01*
X73452380Y-82738095D01*
X73452380Y-82261904D01*
X74452380Y-81833333D02*
X73452380Y-81833333D01*
X74166666Y-81500000D01*
X73452380Y-81166666D01*
X74452380Y-81166666D01*
X73452380Y-80690476D02*
X74261904Y-80690476D01*
X74357142Y-80642857D01*
X74404761Y-80595238D01*
X74452380Y-80500000D01*
X74452380Y-80309523D01*
X74404761Y-80214285D01*
X74357142Y-80166666D01*
X74261904Y-80119047D01*
X73452380Y-80119047D01*
X73452380Y-79738095D02*
X74452380Y-79071428D01*
X73452380Y-79071428D02*
X74452380Y-79738095D01*
X74452380Y-78166666D02*
X74452380Y-78738095D01*
X74452380Y-78452380D02*
X73452380Y-78452380D01*
X73595238Y-78547619D01*
X73690476Y-78642857D01*
X73738095Y-78738095D01*
%TO.C,UDINN9*%
X51302380Y-100547619D02*
X52111904Y-100547619D01*
X52207142Y-100500000D01*
X52254761Y-100452380D01*
X52302380Y-100357142D01*
X52302380Y-100166666D01*
X52254761Y-100071428D01*
X52207142Y-100023809D01*
X52111904Y-99976190D01*
X51302380Y-99976190D01*
X52302380Y-99500000D02*
X51302380Y-99500000D01*
X51302380Y-99261904D01*
X51350000Y-99119047D01*
X51445238Y-99023809D01*
X51540476Y-98976190D01*
X51730952Y-98928571D01*
X51873809Y-98928571D01*
X52064285Y-98976190D01*
X52159523Y-99023809D01*
X52254761Y-99119047D01*
X52302380Y-99261904D01*
X52302380Y-99500000D01*
X52302380Y-98500000D02*
X51302380Y-98500000D01*
X52302380Y-98023809D02*
X51302380Y-98023809D01*
X52302380Y-97452380D01*
X51302380Y-97452380D01*
X52302380Y-96976190D02*
X51302380Y-96976190D01*
X52302380Y-96404761D01*
X51302380Y-96404761D01*
X52302380Y-95880952D02*
X52302380Y-95690476D01*
X52254761Y-95595238D01*
X52207142Y-95547619D01*
X52064285Y-95452380D01*
X51873809Y-95404761D01*
X51492857Y-95404761D01*
X51397619Y-95452380D01*
X51350000Y-95500000D01*
X51302380Y-95595238D01*
X51302380Y-95785714D01*
X51350000Y-95880952D01*
X51397619Y-95928571D01*
X51492857Y-95976190D01*
X51730952Y-95976190D01*
X51826190Y-95928571D01*
X51873809Y-95880952D01*
X51921428Y-95785714D01*
X51921428Y-95595238D01*
X51873809Y-95500000D01*
X51826190Y-95452380D01*
X51730952Y-95404761D01*
%TO.C,UREG1*%
X66785714Y-107452380D02*
X66785714Y-108261904D01*
X66833333Y-108357142D01*
X66880952Y-108404761D01*
X66976190Y-108452380D01*
X67166666Y-108452380D01*
X67261904Y-108404761D01*
X67309523Y-108357142D01*
X67357142Y-108261904D01*
X67357142Y-107452380D01*
X68404761Y-108452380D02*
X68071428Y-107976190D01*
X67833333Y-108452380D02*
X67833333Y-107452380D01*
X68214285Y-107452380D01*
X68309523Y-107500000D01*
X68357142Y-107547619D01*
X68404761Y-107642857D01*
X68404761Y-107785714D01*
X68357142Y-107880952D01*
X68309523Y-107928571D01*
X68214285Y-107976190D01*
X67833333Y-107976190D01*
X68833333Y-107928571D02*
X69166666Y-107928571D01*
X69309523Y-108452380D02*
X68833333Y-108452380D01*
X68833333Y-107452380D01*
X69309523Y-107452380D01*
X70261904Y-107500000D02*
X70166666Y-107452380D01*
X70023809Y-107452380D01*
X69880952Y-107500000D01*
X69785714Y-107595238D01*
X69738095Y-107690476D01*
X69690476Y-107880952D01*
X69690476Y-108023809D01*
X69738095Y-108214285D01*
X69785714Y-108309523D01*
X69880952Y-108404761D01*
X70023809Y-108452380D01*
X70119047Y-108452380D01*
X70261904Y-108404761D01*
X70309523Y-108357142D01*
X70309523Y-108023809D01*
X70119047Y-108023809D01*
X71261904Y-108452380D02*
X70690476Y-108452380D01*
X70976190Y-108452380D02*
X70976190Y-107452380D01*
X70880952Y-107595238D01*
X70785714Y-107690476D01*
X70690476Y-107738095D01*
%TD*%
M02*
