G04 #@! TF.FileFunction,Soldermask,Bot*
%FSLAX46Y46*%
G04 Gerber Fmt 4.6, Leading zero omitted, Abs format (unit mm)*
G04 Created by KiCad (PCBNEW 4.0.7) date 12/13/17 15:12:22*
%MOMM*%
%LPD*%
G01*
G04 APERTURE LIST*
%ADD10C,0.100000*%
%ADD11C,1.524000*%
%ADD12C,3.810000*%
%ADD13R,1.524000X1.524000*%
%ADD14C,2.400000*%
G04 APERTURE END LIST*
D10*
D11*
X12570000Y-34120000D03*
X10030000Y-18880000D03*
X25270000Y-34120000D03*
X25270000Y-18880000D03*
X22730000Y-18880000D03*
X20190000Y-18880000D03*
X17650000Y-18880000D03*
X15110000Y-18880000D03*
X12570000Y-18880000D03*
X27810000Y-18880000D03*
X30350000Y-18880000D03*
X32890000Y-18880000D03*
X35430000Y-18880000D03*
X37970000Y-18880000D03*
X22730000Y-34120000D03*
X20190000Y-34120000D03*
X17650000Y-34120000D03*
X15110000Y-34120000D03*
X10030000Y-34120000D03*
X27810000Y-34120000D03*
X30350000Y-34120000D03*
X32890000Y-34120000D03*
X35430000Y-34120000D03*
X37970000Y-34120000D03*
X37970000Y-21420000D03*
D12*
X48505000Y-45500000D03*
X95495000Y-45500000D03*
D13*
X88637000Y-44103000D03*
D11*
X85843000Y-44103000D03*
X83049000Y-44103000D03*
X80255000Y-44103000D03*
X77461000Y-44103000D03*
X74794000Y-44103000D03*
X72000000Y-44103000D03*
X69206000Y-44103000D03*
X66412000Y-44103000D03*
X63618000Y-44103000D03*
X60951000Y-44103000D03*
X58157000Y-44103000D03*
X55363000Y-44103000D03*
X87240000Y-46897000D03*
X84446000Y-46897000D03*
X81652000Y-46897000D03*
X78985000Y-46897000D03*
X76191000Y-46897000D03*
X73397000Y-46897000D03*
X70603000Y-46897000D03*
X67809000Y-46897000D03*
X65142000Y-46897000D03*
X62348000Y-46897000D03*
X59554000Y-46897000D03*
X56760000Y-46897000D03*
D12*
X95495000Y-7500000D03*
X48505000Y-7500000D03*
D13*
X55363000Y-8897000D03*
D11*
X58157000Y-8897000D03*
X60951000Y-8897000D03*
X63745000Y-8897000D03*
X66539000Y-8897000D03*
X69206000Y-8897000D03*
X72000000Y-8897000D03*
X74794000Y-8897000D03*
X77588000Y-8897000D03*
X80382000Y-8897000D03*
X83049000Y-8897000D03*
X85843000Y-8897000D03*
X88637000Y-8897000D03*
X56760000Y-6103000D03*
X59554000Y-6103000D03*
X62348000Y-6103000D03*
X65015000Y-6103000D03*
X67809000Y-6103000D03*
X70603000Y-6103000D03*
X73397000Y-6103000D03*
X76191000Y-6103000D03*
X78858000Y-6103000D03*
X81652000Y-6103000D03*
X84446000Y-6103000D03*
X87240000Y-6103000D03*
D14*
X3500000Y-3500000D03*
X3500000Y-49500000D03*
X113000000Y-3500000D03*
X113000000Y-49500000D03*
M02*
