M48
;DRILL file {KiCad 4.0.7} date 12/13/17 15:12:32
;FORMAT={3:3/ absolute / metric / suppress leading zeros}
FMAT,2
METRIC,TZ
T1C0.635
T2C1.016
T3C2.400
T4C3.048
%
G90
G05
M71
T1
X24000Y-8000
X53500Y-19500
X54000Y-37000
X55500Y-24000
X56500Y-18500
X56500Y-23000
X58000Y-25000
X59500Y-17000
X59500Y-20500
X59500Y-38000
X60500Y-26000
X61000Y-34000
X62000Y-21420
X62500Y-15500
X63500Y-27000
X63500Y-36000
X65000Y-14500
X65000Y-39000
X66000Y-28000
X66500Y-32000
X68000Y-13000
X68000Y-40500
X69500Y-29000
X69500Y-31000
X70500Y-12000
X70500Y-37000
X72000Y-30000
X73000Y-11000
X73000Y-41000
X73500Y-30000
X75000Y-29500
X76000Y-30500
X76000Y-41000
X77500Y-28000
X78500Y-34000
X79000Y-39500
X80000Y-27000
X81500Y-21500
X81500Y-29500
X81500Y-35500
X83000Y-26000
X84500Y-29000
X84500Y-31000
X85500Y-25000
X86000Y-20500
X86500Y-23000
X87000Y-27000
X88500Y-19500
X88500Y-24000
T2
X10030Y-18880
X10030Y-34120
X12570Y-18880
X12570Y-34120
X15110Y-18880
X15110Y-34120
X17650Y-18880
X17650Y-34120
X20190Y-18880
X20190Y-34120
X22730Y-18880
X22730Y-34120
X25270Y-18880
X25270Y-34120
X27810Y-18880
X27810Y-34120
X30350Y-18880
X30350Y-34120
X32890Y-18880
X32890Y-34120
X35430Y-18880
X35430Y-34120
X37970Y-18880
X37970Y-21420
X37970Y-34120
X55363Y-8897
X55363Y-44103
X56760Y-6103
X56760Y-46897
X58157Y-8897
X58157Y-44103
X59554Y-6103
X59554Y-46897
X60951Y-8897
X60951Y-44103
X62348Y-6103
X62348Y-46897
X63618Y-44103
X63745Y-8897
X65015Y-6103
X65142Y-46897
X66412Y-44103
X66539Y-8897
X67809Y-6103
X67809Y-46897
X69206Y-8897
X69206Y-44103
X70603Y-6103
X70603Y-46897
X72000Y-8897
X72000Y-44103
X73397Y-6103
X73397Y-46897
X74794Y-8897
X74794Y-44103
X76191Y-6103
X76191Y-46897
X77461Y-44103
X77588Y-8897
X78858Y-6103
X78985Y-46897
X80255Y-44103
X80382Y-8897
X81652Y-6103
X81652Y-46897
X83049Y-8897
X83049Y-44103
X84446Y-6103
X84446Y-46897
X85843Y-8897
X85843Y-44103
X87240Y-6103
X87240Y-46897
X88637Y-8897
X88637Y-44103
T3
X3500Y-3500
X3500Y-49500
X113000Y-3500
X113000Y-49500
T4
X48505Y-7500
X48505Y-45500
X95495Y-7500
X95495Y-45500
T0
M30
