  0
SECTION
  2
BLOCKS
  0
ENDSEC
  0
SECTION
  2
ENTITIES
  0
LINE
  8
0
 10
80
 20
0.0219116
 11
80.4181
 21
0.0219116
  0
LINE
  8
0
 10
80.4181
 20
0.0219116
 11
81.2361
 21
0.19577
  0
LINE
  8
0
 10
81.2361
 20
0.19577
 11
82
 21
0.535889
  0
LINE
  8
0
 10
82
 20
0.535889
 11
82.6765
 21
1.02742
  0
LINE
  8
0
 10
82.6765
 20
1.02742
 11
83.2361
 21
1.64885
  0
LINE
  8
0
 10
83.2361
 20
1.64885
 11
83.6542
 21
2.37305
  0
LINE
  8
0
 10
83.6542
 20
2.37305
 11
83.9126
 21
3.16835
  0
LINE
  8
0
 10
83.9126
 20
3.16835
 11
84
 21
4
  0
LINE
  8
0
 10
84
 20
4
 11
118
 21
4
  0
LINE
  8
0
 10
118
 20
4
 11
118
 21
4.02191
  0
LINE
  8
0
 10
118
 20
4.02191
 11
118.418
 21
4.02191
  0
LINE
  8
0
 10
118.418
 20
4.02191
 11
119.236
 21
4.19577
  0
LINE
  8
0
 10
119.236
 20
4.19577
 11
120
 21
4.53589
  0
LINE
  8
0
 10
120
 20
4.53589
 11
120.677
 21
5.02742
  0
LINE
  8
0
 10
120.677
 20
5.02742
 11
121.236
 21
5.64885
  0
LINE
  8
0
 10
121.236
 20
5.64885
 11
121.654
 21
6.37305
  0
LINE
  8
0
 10
121.654
 20
6.37305
 11
121.913
 21
7.16835
  0
LINE
  8
0
 10
121.913
 20
7.16835
 11
122
 21
8
  0
LINE
  8
0
 10
122
 20
8
 11
122
 21
40.2091
  0
LINE
  8
0
 10
122
 20
40.2091
 11
122.076
 21
40.9368
  0
LINE
  8
0
 10
122.076
 20
40.9368
 11
122.303
 21
41.6326
  0
LINE
  8
0
 10
122.303
 20
41.6326
 11
122.668
 21
42.2663
  0
LINE
  8
0
 10
122.668
 20
42.2663
 11
123.158
 21
42.8101
  0
LINE
  8
0
 10
123.158
 20
42.8101
 11
123.75
 21
43.2402
  0
LINE
  8
0
 10
123.75
 20
43.2402
 11
124.418
 21
43.5378
  0
LINE
  8
0
 10
124.418
 20
43.5378
 11
125.134
 21
43.6899
  0
LINE
  8
0
 10
125.134
 20
43.6899
 11
125.5
 21
43.6899
  0
LINE
  8
0
 10
125.5
 20
43.6899
 11
125.5
 21
43.7447
  0
LINE
  8
0
 10
125.5
 20
43.7447
 11
126.179
 21
43.7447
  0
LINE
  8
0
 10
126.179
 20
43.7447
 11
127.509
 21
44.0272
  0
LINE
  8
0
 10
127.509
 20
44.0272
 11
128.75
 21
44.5799
  0
LINE
  8
0
 10
128.75
 20
44.5799
 11
129.849
 21
45.3786
  0
LINE
  8
0
 10
129.849
 20
45.3786
 11
130.759
 21
46.3885
  0
LINE
  8
0
 10
130.759
 20
46.3885
 11
131.438
 21
47.5653
  0
LINE
  8
0
 10
131.438
 20
47.5653
 11
131.858
 21
48.8577
  0
LINE
  8
0
 10
131.858
 20
48.8577
 11
132
 21
50.2091
  0
LINE
  8
0
 10
132
 20
50.2091
 11
131.858
 21
51.5605
  0
LINE
  8
0
 10
131.858
 20
51.5605
 11
131.795
 21
51.7551
  0
LINE
  8
0
 10
131.795
 20
51.7551
 11
131.822
 21
51.7618
  0
LINE
  8
0
 10
131.822
 20
51.7618
 11
131.788
 21
51.8666
  0
LINE
  8
0
 10
131.788
 20
51.8666
 11
131.711
 21
52.5943
  0
LINE
  8
0
 10
131.711
 20
52.5943
 11
131.788
 21
53.322
  0
LINE
  8
0
 10
131.788
 20
53.322
 11
132.014
 21
54.0179
  0
LINE
  8
0
 10
132.014
 20
54.0179
 11
132.38
 21
54.6516
  0
LINE
  8
0
 10
132.38
 20
54.6516
 11
132.869
 21
55.1953
  0
LINE
  8
0
 10
132.869
 20
55.1953
 11
133.461
 21
55.6254
  0
LINE
  8
0
 10
133.461
 20
55.6254
 11
134.13
 21
55.923
  0
LINE
  8
0
 10
134.13
 20
55.923
 11
134.381
 21
55.9763
  0
LINE
  8
0
 10
134.381
 20
55.9763
 11
134.377
 21
55.9933
  0
LINE
  8
0
 10
134.377
 20
55.9933
 11
160.835
 21
62.4918
  0
LINE
  8
0
 10
160.835
 20
62.4918
 11
160.83
 21
62.5112
  0
LINE
  8
0
 10
160.83
 20
62.5112
 11
161.117
 21
62.5721
  0
LINE
  8
0
 10
161.117
 20
62.5721
 11
161.881
 21
62.9122
  0
LINE
  8
0
 10
161.881
 20
62.9122
 11
162.557
 21
63.4037
  0
LINE
  8
0
 10
162.557
 20
63.4037
 11
163.117
 21
64.0252
  0
LINE
  8
0
 10
163.117
 20
64.0252
 11
163.535
 21
64.7494
  0
LINE
  8
0
 10
163.535
 20
64.7494
 11
163.793
 21
65.5447
  0
LINE
  8
0
 10
163.793
 20
65.5447
 11
163.881
 21
66.3763
  0
LINE
  8
0
 10
163.881
 20
66.3763
 11
163.793
 21
67.208
  0
LINE
  8
0
 10
163.793
 20
67.208
 11
163.754
 21
67.3278
  0
LINE
  8
0
 10
163.754
 20
67.3278
 11
163.765
 21
67.3304
  0
LINE
  8
0
 10
163.765
 20
67.3304
 11
154.701
 21
104.234
  0
LINE
  8
0
 10
154.701
 20
104.234
 11
154.681
 21
104.229
  0
LINE
  8
0
 10
154.681
 20
104.229
 11
154.265
 21
105.507
  0
LINE
  8
0
 10
154.265
 20
105.507
 11
153.473
 21
106.878
  0
LINE
  8
0
 10
153.473
 20
106.878
 11
152.414
 21
108.055
  0
LINE
  8
0
 10
152.414
 20
108.055
 11
151.133
 21
108.985
  0
LINE
  8
0
 10
151.133
 20
108.985
 11
149.687
 21
109.629
  0
LINE
  8
0
 10
149.687
 20
109.629
 11
148.139
 21
109.959
  0
LINE
  8
0
 10
148.139
 20
109.959
 11
147.347
 21
109.959
  0
LINE
  8
0
 10
147.347
 20
109.959
 11
147.347
 21
110
  0
LINE
  8
0
 10
147.347
 20
110
 11
0
 21
110
  0
LINE
  8
0
 10
0
 20
110
 11
0
 21
103.5
  0
LINE
  8
0
 10
0
 20
103.5
 11
0.142029
 21
102.149
  0
LINE
  8
0
 10
0.142029
 20
102.149
 11
0.561951
 21
100.856
  0
LINE
  8
0
 10
0.561951
 20
100.856
 11
1.24138
 21
99.6794
  0
LINE
  8
0
 10
1.24138
 20
99.6794
 11
2.15065
 21
98.6696
  0
LINE
  8
0
 10
2.15065
 20
98.6696
 11
3.25
 21
97.8708
  0
LINE
  8
0
 10
3.25
 20
97.8708
 11
4.49138
 21
97.3181
  0
LINE
  8
0
 10
4.49138
 20
97.3181
 11
5.82056
 21
97.0356
  0
LINE
  8
0
 10
5.82056
 20
97.0356
 11
6.5
 21
97.0356
  0
LINE
  8
0
 10
6.5
 20
97.0356
 11
6.5
 21
97
  0
LINE
  8
0
 10
6.5
 20
97
 11
54.8
 21
97
  0
LINE
  8
0
 10
54.8
 20
97
 11
54.8
 21
82
  0
LINE
  8
0
 10
54.8
 20
82
 11
38
 21
82
  0
LINE
  8
0
 10
38
 20
82
 11
38
 21
77
  0
LINE
  8
0
 10
38
 20
77
 11
37.9126
 21
76.1684
  0
LINE
  8
0
 10
37.9126
 20
76.1684
 11
37.6542
 21
75.373
  0
LINE
  8
0
 10
37.6542
 20
75.373
 11
37.2361
 21
74.6488
  0
LINE
  8
0
 10
37.2361
 20
74.6488
 11
36.6765
 21
74.0274
  0
LINE
  8
0
 10
36.6765
 20
74.0274
 11
36
 21
73.5359
  0
LINE
  8
0
 10
36
 20
73.5359
 11
35.2361
 21
73.1958
  0
LINE
  8
0
 10
35.2361
 20
73.1958
 11
34.4181
 21
73.0219
  0
LINE
  8
0
 10
34.4181
 20
73.0219
 11
34
 21
73.0219
  0
LINE
  8
0
 10
34
 20
73.0219
 11
34
 21
73
  0
LINE
  8
0
 10
34
 20
73
 11
23
 21
73
  0
LINE
  8
0
 10
23
 20
73
 11
23
 21
72.9781
  0
LINE
  8
0
 10
23
 20
72.9781
 11
22.5819
 21
72.9781
  0
LINE
  8
0
 10
22.5819
 20
72.9781
 11
21.7639
 21
72.8042
  0
LINE
  8
0
 10
21.7639
 20
72.8042
 11
21
 21
72.4641
  0
LINE
  8
0
 10
21
 20
72.4641
 11
20.3235
 21
71.9726
  0
LINE
  8
0
 10
20.3235
 20
71.9726
 11
19.7639
 21
71.3511
  0
LINE
  8
0
 10
19.7639
 20
71.3511
 11
19.3458
 21
70.6269
  0
LINE
  8
0
 10
19.3458
 20
70.6269
 11
19.0874
 21
69.8316
  0
LINE
  8
0
 10
19.0874
 20
69.8316
 11
19
 21
69
  0
LINE
  8
0
 10
19
 20
69
 11
19
 21
67.5
  0
LINE
  8
0
 10
19
 20
67.5
 11
18.9126
 21
66.6684
  0
LINE
  8
0
 10
18.9126
 20
66.6684
 11
18.6542
 21
65.873
  0
LINE
  8
0
 10
18.6542
 20
65.873
 11
18.2361
 21
65.1488
  0
LINE
  8
0
 10
18.2361
 20
65.1488
 11
17.6765
 21
64.5274
  0
LINE
  8
0
 10
17.6765
 20
64.5274
 11
17
 21
64.0359
  0
LINE
  8
0
 10
17
 20
64.0359
 11
16.2361
 21
63.6958
  0
LINE
  8
0
 10
16.2361
 20
63.6958
 11
15.4181
 21
63.5219
  0
LINE
  8
0
 10
15.4181
 20
63.5219
 11
15
 21
63.5219
  0
LINE
  8
0
 10
15
 20
63.5219
 11
15
 21
63.5
  0
LINE
  8
0
 10
15
 20
63.5
 11
4
 21
63.5
  0
LINE
  8
0
 10
4
 20
63.5
 11
4
 21
63.4781
  0
LINE
  8
0
 10
4
 20
63.4781
 11
3.58188
 21
63.4781
  0
LINE
  8
0
 10
3.58188
 20
63.4781
 11
2.76393
 21
63.3042
  0
LINE
  8
0
 10
2.76393
 20
63.3042
 11
2
 21
62.9641
  0
LINE
  8
0
 10
2
 20
62.9641
 11
1.32347
 21
62.4726
  0
LINE
  8
0
 10
1.32347
 20
62.4726
 11
0.763931
 21
61.8511
  0
LINE
  8
0
 10
0.763931
 20
61.8511
 11
0.34581
 21
61.1269
  0
LINE
  8
0
 10
0.34581
 20
61.1269
 11
0.0874023
 21
60.3316
  0
LINE
  8
0
 10
0.0874023
 20
60.3316
 11
0
 21
59.5
  0
LINE
  8
0
 10
0
 20
59.5
 11
0
 21
21.5
  0
LINE
  8
0
 10
0
 20
21.5
 11
0.0874023
 21
20.6684
  0
LINE
  8
0
 10
0.0874023
 20
20.6684
 11
0.34581
 21
19.873
  0
LINE
  8
0
 10
0.34581
 20
19.873
 11
0.763931
 21
19.1488
  0
LINE
  8
0
 10
0.763931
 20
19.1488
 11
1.32347
 21
18.5274
  0
LINE
  8
0
 10
1.32347
 20
18.5274
 11
2
 21
18.0359
  0
LINE
  8
0
 10
2
 20
18.0359
 11
2.76393
 21
17.6958
  0
LINE
  8
0
 10
2.76393
 20
17.6958
 11
3.58188
 21
17.5219
  0
LINE
  8
0
 10
3.58188
 20
17.5219
 11
4
 21
17.5219
  0
LINE
  8
0
 10
4
 20
17.5219
 11
4
 21
17.5
  0
LINE
  8
0
 10
4
 20
17.5
 11
6
 21
17.5
  0
LINE
  8
0
 10
6
 20
17.5
 11
6
 21
17.4836
  0
LINE
  8
0
 10
6
 20
17.4836
 11
6.31358
 21
17.4836
  0
LINE
  8
0
 10
6.31358
 20
17.4836
 11
6.92705
 21
17.3532
  0
LINE
  8
0
 10
6.92705
 20
17.3532
 11
7.5
 21
17.0981
  0
LINE
  8
0
 10
7.5
 20
17.0981
 11
8.00739
 21
16.7294
  0
LINE
  8
0
 10
8.00739
 20
16.7294
 11
8.42705
 21
16.2634
  0
LINE
  8
0
 10
8.42705
 20
16.2634
 11
8.74063
 21
15.7202
  0
LINE
  8
0
 10
8.74063
 20
15.7202
 11
8.93443
 21
15.1237
  0
LINE
  8
0
 10
8.93443
 20
15.1237
 11
9.14203
 21
13.1486
  0
LINE
  8
0
 10
9.14203
 20
13.1486
 11
9.56195
 21
11.8562
  0
LINE
  8
0
 10
9.56195
 20
11.8562
 11
10.2414
 21
10.6794
  0
LINE
  8
0
 10
10.2414
 20
10.6794
 11
11.1507
 21
9.66956
  0
LINE
  8
0
 10
11.1507
 20
9.66956
 11
12.25
 21
8.87083
  0
LINE
  8
0
 10
12.25
 20
8.87083
 11
13.4914
 21
8.31813
  0
LINE
  8
0
 10
13.4914
 20
8.31813
 11
14.8206
 21
8.0356
  0
LINE
  8
0
 10
14.8206
 20
8.0356
 11
15.5
 21
8.0356
  0
LINE
  8
0
 10
15.5
 20
8.0356
 11
15.5
 21
8
  0
LINE
  8
0
 10
15.5
 20
8
 11
38
 21
8
  0
LINE
  8
0
 10
38
 20
8
 11
38.0874
 21
7.16835
  0
LINE
  8
0
 10
38.0874
 20
7.16835
 11
38.3458
 21
6.37305
  0
LINE
  8
0
 10
38.3458
 20
6.37305
 11
38.7639
 21
5.64885
  0
LINE
  8
0
 10
38.7639
 20
5.64885
 11
39.3235
 21
5.02742
  0
LINE
  8
0
 10
39.3235
 20
5.02742
 11
40
 21
4.53589
  0
LINE
  8
0
 10
40
 20
4.53589
 11
40.7639
 21
4.19577
  0
LINE
  8
0
 10
40.7639
 20
4.19577
 11
41.5819
 21
4.02191
  0
LINE
  8
0
 10
41.5819
 20
4.02191
 11
42
 21
4.02191
  0
LINE
  8
0
 10
42
 20
4.02191
 11
42
 21
4
  0
LINE
  8
0
 10
42
 20
4
 11
57
 21
4
  0
LINE
  8
0
 10
57
 20
4
 11
57.0874
 21
3.16835
  0
LINE
  8
0
 10
57.0874
 20
3.16835
 11
57.3458
 21
2.37305
  0
LINE
  8
0
 10
57.3458
 20
2.37305
 11
57.7639
 21
1.64885
  0
LINE
  8
0
 10
57.7639
 20
1.64885
 11
58.3235
 21
1.02742
  0
LINE
  8
0
 10
58.3235
 20
1.02742
 11
59
 21
0.535889
  0
LINE
  8
0
 10
59
 20
0.535889
 11
59.7639
 21
0.19577
  0
LINE
  8
0
 10
59.7639
 20
0.19577
 11
60.5819
 21
0.0219116
  0
LINE
  8
0
 10
60.5819
 20
0.0219116
 11
61
 21
0.0219116
  0
LINE
  8
0
 10
61
 20
0.0219116
 11
61
 21
0
  0
LINE
  8
0
 10
61
 20
0
 11
80
 21
0
  0
LINE
  8
0
 10
80
 20
0
 11
80
 21
0.0219116
  0
LINE
  8
0
 10
116.768
 20
100.5
 11
115.036
 21
103.5
  0
LINE
  8
0
 10
115.036
 20
103.5
 11
116.768
 21
106.5
  0
LINE
  8
0
 10
116.768
 20
106.5
 11
120.232
 21
106.5
  0
LINE
  8
0
 10
120.232
 20
106.5
 11
121.964
 21
103.5
  0
LINE
  8
0
 10
121.964
 20
103.5
 11
120.232
 21
100.5
  0
LINE
  8
0
 10
120.232
 20
100.5
 11
116.768
 21
100.5
  0
LINE
  8
0
 10
4.76794
 20
100.5
 11
3.03589
 21
103.5
  0
LINE
  8
0
 10
3.03589
 20
103.5
 11
4.76794
 21
106.5
  0
LINE
  8
0
 10
4.76794
 20
106.5
 11
8.23204
 21
106.5
  0
LINE
  8
0
 10
8.23204
 20
106.5
 11
9.9641
 21
103.5
  0
LINE
  8
0
 10
9.9641
 20
103.5
 11
8.23204
 21
100.5
  0
LINE
  8
0
 10
8.23204
 20
100.5
 11
4.76794
 21
100.5
  0
LINE
  8
0
 10
56
 20
82
 11
56
 21
102
  0
LINE
  8
0
 10
56
 20
102
 11
66
 21
102
  0
LINE
  8
0
 10
66
 20
102
 11
66
 21
82
  0
LINE
  8
0
 10
66
 20
82
 11
56
 21
82
  0
LINE
  8
0
 10
94.5
 20
86.5
 11
94.5
 21
100.5
  0
LINE
  8
0
 10
94.5
 20
100.5
 11
108.5
 21
100.5
  0
LINE
  8
0
 10
108.5
 20
100.5
 11
108.5
 21
86.5
  0
LINE
  8
0
 10
108.5
 20
86.5
 11
94.5
 21
86.5
  0
LINE
  8
0
 10
75.5
 20
86.5
 11
75.5
 21
100.5
  0
LINE
  8
0
 10
75.5
 20
100.5
 11
89.5
 21
100.5
  0
LINE
  8
0
 10
89.5
 20
100.5
 11
89.5
 21
86.5
  0
LINE
  8
0
 10
89.5
 20
86.5
 11
75.5
 21
86.5
  0
LINE
  8
0
 10
144.627
 20
66.4757
 11
141.315
 21
65.6624
  0
LINE
  8
0
 10
141.315
 20
65.6624
 11
139.729
 21
72.1204
  0
LINE
  8
0
 10
139.729
 20
72.1204
 11
140.515
 21
72.3136
  0
LINE
  8
0
 10
140.515
 20
72.3136
 11
140.13
 21
73.882
  0
LINE
  8
0
 10
140.13
 20
73.882
 11
138.081
 21
73.3787
  0
LINE
  8
0
 10
138.081
 20
73.3787
 11
134.742
 21
86.9746
  0
LINE
  8
0
 10
134.742
 20
86.9746
 11
136.791
 21
87.4779
  0
LINE
  8
0
 10
136.791
 20
87.4779
 11
136.406
 21
89.0463
  0
LINE
  8
0
 10
136.406
 20
89.0463
 11
135.619
 21
88.8531
  0
LINE
  8
0
 10
135.619
 20
88.8531
 11
134.033
 21
95.3112
  0
LINE
  8
0
 10
134.033
 20
95.3112
 11
137.344
 21
96.1245
  0
LINE
  8
0
 10
137.344
 20
96.1245
 11
137.131
 21
96.9937
  0
LINE
  8
0
 10
137.131
 20
96.9937
 11
139.85
 21
97.6616
  0
LINE
  8
0
 10
139.85
 20
97.6616
 11
140.064
 21
96.7924
  0
LINE
  8
0
 10
140.064
 20
96.7924
 11
145.978
 21
98.245
  0
LINE
  8
0
 10
145.978
 20
98.245
 11
146.407
 21
96.497
  0
LINE
  8
0
 10
146.407
 20
96.497
 11
147.534
 21
96.7737
  0
LINE
  8
0
 10
147.534
 20
96.7737
 11
148.261
 21
93.8117
  0
LINE
  8
0
 10
148.261
 20
93.8117
 11
147.135
 21
93.535
  0
LINE
  8
0
 10
147.135
 20
93.535
 11
147.564
 21
91.787
  0
LINE
  8
0
 10
147.564
 20
91.787
 11
146.797
 21
91.5985
  0
LINE
  8
0
 10
146.797
 20
91.5985
 11
147.182
 21
90.0301
  0
LINE
  8
0
 10
147.182
 20
90.0301
 11
148.338
 21
90.314
  0
LINE
  8
0
 10
148.338
 20
90.314
 11
151.677
 21
76.7181
  0
LINE
  8
0
 10
151.677
 20
76.7181
 11
150.521
 21
76.4342
  0
LINE
  8
0
 10
150.521
 20
76.4342
 11
150.907
 21
74.8658
  0
LINE
  8
0
 10
150.907
 20
74.8658
 11
151.674
 21
75.0543
  0
LINE
  8
0
 10
151.674
 20
75.0543
 11
152.103
 21
73.3062
  0
LINE
  8
0
 10
152.103
 20
73.3062
 11
153.23
 21
73.5829
  0
LINE
  8
0
 10
153.23
 20
73.5829
 11
153.957
 21
70.621
  0
LINE
  8
0
 10
153.957
 20
70.621
 11
152.831
 21
70.3443
  0
LINE
  8
0
 10
152.831
 20
70.3443
 11
153.26
 21
68.5962
  0
LINE
  8
0
 10
153.26
 20
68.5962
 11
147.346
 21
67.1436
  0
LINE
  8
0
 10
147.346
 20
67.1436
 11
147.559
 21
66.2744
  0
LINE
  8
0
 10
147.559
 20
66.2744
 11
144.84
 21
65.6066
  0
LINE
  8
0
 10
144.84
 20
65.6066
 11
144.627
 21
66.4757
  0
LINE
  8
0
 10
121.56
 20
62.6638
 11
120.433
 21
62.3871
  0
LINE
  8
0
 10
120.433
 20
62.3871
 11
119.706
 21
65.349
  0
LINE
  8
0
 10
119.706
 20
65.349
 11
120.833
 21
65.6257
  0
LINE
  8
0
 10
120.833
 20
65.6257
 11
120.403
 21
67.3738
  0
LINE
  8
0
 10
120.403
 20
67.3738
 11
121.17
 21
67.5622
  0
LINE
  8
0
 10
121.17
 20
67.5622
 11
120.785
 21
69.1306
  0
LINE
  8
0
 10
120.785
 20
69.1306
 11
119.629
 21
68.8468
  0
LINE
  8
0
 10
119.629
 20
68.8468
 11
116.29
 21
82.4427
  0
LINE
  8
0
 10
116.29
 20
82.4427
 11
117.446
 21
82.7265
  0
LINE
  8
0
 10
117.446
 20
82.7265
 11
117.061
 21
84.2949
  0
LINE
  8
0
 10
117.061
 20
84.2949
 11
116.293
 21
84.1065
  0
LINE
  8
0
 10
116.293
 20
84.1065
 11
115.864
 21
85.8545
  0
LINE
  8
0
 10
115.864
 20
85.8545
 11
114.738
 21
85.5778
  0
LINE
  8
0
 10
114.738
 20
85.5778
 11
114.01
 21
88.5398
  0
LINE
  8
0
 10
114.01
 20
88.5398
 11
115.137
 21
88.8165
  0
LINE
  8
0
 10
115.137
 20
88.8165
 11
114.707
 21
90.5645
  0
LINE
  8
0
 10
114.707
 20
90.5645
 11
120.621
 21
92.0171
  0
LINE
  8
0
 10
120.621
 20
92.0171
 11
120.408
 21
92.8863
  0
LINE
  8
0
 10
120.408
 20
92.8863
 11
123.127
 21
93.5542
  0
LINE
  8
0
 10
123.127
 20
93.5542
 11
123.341
 21
92.685
  0
LINE
  8
0
 10
123.341
 20
92.685
 11
126.652
 21
93.4984
  0
LINE
  8
0
 10
126.652
 20
93.4984
 11
128.238
 21
87.0403
  0
LINE
  8
0
 10
128.238
 20
87.0403
 11
127.452
 21
86.8471
  0
LINE
  8
0
 10
127.452
 20
86.8471
 11
127.837
 21
85.2787
  0
LINE
  8
0
 10
127.837
 20
85.2787
 11
129.886
 21
85.782
  0
LINE
  8
0
 10
129.886
 20
85.782
 11
133.225
 21
72.1861
  0
LINE
  8
0
 10
133.225
 20
72.1861
 11
131.176
 21
71.6828
  0
LINE
  8
0
 10
131.176
 20
71.6828
 11
131.562
 21
70.1144
  0
LINE
  8
0
 10
131.562
 20
70.1144
 11
132.348
 21
70.3076
  0
LINE
  8
0
 10
132.348
 20
70.3076
 11
133.934
 21
63.8496
  0
LINE
  8
0
 10
133.934
 20
63.8496
 11
130.623
 21
63.0362
  0
LINE
  8
0
 10
130.623
 20
63.0362
 11
130.836
 21
62.167
  0
LINE
  8
0
 10
130.836
 20
62.167
 11
128.117
 21
61.4992
  0
LINE
  8
0
 10
128.117
 20
61.4992
 11
127.904
 21
62.3683
  0
LINE
  8
0
 10
127.904
 20
62.3683
 11
121.989
 21
60.9157
  0
LINE
  8
0
 10
121.989
 20
60.9157
 11
121.56
 21
62.6638
  0
LINE
  8
0
 10
75.5
 20
67.5
 11
75.5
 21
81.5
  0
LINE
  8
0
 10
75.5
 20
81.5
 11
89.5
 21
81.5
  0
LINE
  8
0
 10
89.5
 20
81.5
 11
89.5
 21
67.5
  0
LINE
  8
0
 10
89.5
 20
67.5
 11
75.5
 21
67.5
  0
LINE
  8
0
 10
94.5
 20
67.5
 11
94.5
 21
81.5
  0
LINE
  8
0
 10
94.5
 20
81.5
 11
108.5
 21
81.5
  0
LINE
  8
0
 10
108.5
 20
81.5
 11
108.5
 21
67.5
  0
LINE
  8
0
 10
108.5
 20
67.5
 11
94.5
 21
67.5
  0
LINE
  8
0
 10
48
 20
68.5
 11
48
 21
78.5
  0
LINE
  8
0
 10
48
 20
78.5
 11
68
 21
78.5
  0
LINE
  8
0
 10
68
 20
78.5
 11
68
 21
68.5
  0
LINE
  8
0
 10
68
 20
68.5
 11
48
 21
68.5
  0
LINE
  8
0
 10
25.5
 20
52.5
 11
25.5
 21
66.5
  0
LINE
  8
0
 10
25.5
 20
66.5
 11
39.5
 21
66.5
  0
LINE
  8
0
 10
39.5
 20
66.5
 11
39.5
 21
52.5
  0
LINE
  8
0
 10
39.5
 20
52.5
 11
25.5
 21
52.5
  0
LINE
  8
0
 10
82.5
 20
48.5
 11
82.5
 21
62.5
  0
LINE
  8
0
 10
82.5
 20
62.5
 11
96.5
 21
62.5
  0
LINE
  8
0
 10
96.5
 20
62.5
 11
96.5
 21
48.5
  0
LINE
  8
0
 10
96.5
 20
48.5
 11
82.5
 21
48.5
  0
LINE
  8
0
 10
44.5
 20
48.5
 11
44.5
 21
62.5
  0
LINE
  8
0
 10
44.5
 20
62.5
 11
58.5
 21
62.5
  0
LINE
  8
0
 10
58.5
 20
62.5
 11
58.5
 21
48.5
  0
LINE
  8
0
 10
58.5
 20
48.5
 11
44.5
 21
48.5
  0
LINE
  8
0
 10
101.5
 20
48.5
 11
101.5
 21
62.5
  0
LINE
  8
0
 10
101.5
 20
62.5
 11
115.5
 21
62.5
  0
LINE
  8
0
 10
115.5
 20
62.5
 11
115.5
 21
48.5
  0
LINE
  8
0
 10
115.5
 20
48.5
 11
101.5
 21
48.5
  0
LINE
  8
0
 10
63.5
 20
44.5
 11
63.5
 21
58.5
  0
LINE
  8
0
 10
63.5
 20
58.5
 11
77.5
 21
58.5
  0
LINE
  8
0
 10
77.5
 20
58.5
 11
77.5
 21
44.5
  0
LINE
  8
0
 10
77.5
 20
44.5
 11
63.5
 21
44.5
  0
LINE
  8
0
 10
6.5
 20
43
 11
6.5
 21
57
  0
LINE
  8
0
 10
6.5
 20
57
 11
20.5
 21
57
  0
LINE
  8
0
 10
20.5
 20
57
 11
20.5
 21
43
  0
LINE
  8
0
 10
20.5
 20
43
 11
6.5
 21
43
  0
LINE
  8
0
 10
123.768
 20
47.2091
 11
122.036
 21
50.2091
  0
LINE
  8
0
 10
122.036
 20
50.2091
 11
123.768
 21
53.2091
  0
LINE
  8
0
 10
123.768
 20
53.2091
 11
127.232
 21
53.2091
  0
LINE
  8
0
 10
127.232
 20
53.2091
 11
128.964
 21
50.2091
  0
LINE
  8
0
 10
128.964
 20
50.2091
 11
127.232
 21
47.2091
  0
LINE
  8
0
 10
127.232
 20
47.2091
 11
123.768
 21
47.2091
  0
LINE
  8
0
 10
25.5
 20
33.5
 11
25.5
 21
47.5
  0
LINE
  8
0
 10
25.5
 20
47.5
 11
39.5
 21
47.5
  0
LINE
  8
0
 10
39.5
 20
47.5
 11
39.5
 21
33.5
  0
LINE
  8
0
 10
39.5
 20
33.5
 11
25.5
 21
33.5
  0
LINE
  8
0
 10
101.5
 20
29.5
 11
101.5
 21
43.5
  0
LINE
  8
0
 10
101.5
 20
43.5
 11
115.5
 21
43.5
  0
LINE
  8
0
 10
115.5
 20
43.5
 11
115.5
 21
29.5
  0
LINE
  8
0
 10
115.5
 20
29.5
 11
101.5
 21
29.5
  0
LINE
  8
0
 10
44.5
 20
29.5
 11
44.5
 21
43.5
  0
LINE
  8
0
 10
44.5
 20
43.5
 11
58.5
 21
43.5
  0
LINE
  8
0
 10
58.5
 20
43.5
 11
58.5
 21
29.5
  0
LINE
  8
0
 10
58.5
 20
29.5
 11
44.5
 21
29.5
  0
LINE
  8
0
 10
82.5
 20
29.5
 11
82.5
 21
43.5
  0
LINE
  8
0
 10
82.5
 20
43.5
 11
96.5
 21
43.5
  0
LINE
  8
0
 10
96.5
 20
43.5
 11
96.5
 21
29.5
  0
LINE
  8
0
 10
96.5
 20
29.5
 11
82.5
 21
29.5
  0
LINE
  8
0
 10
63.5
 20
25.5
 11
63.5
 21
39.5
  0
LINE
  8
0
 10
63.5
 20
39.5
 11
77.5
 21
39.5
  0
LINE
  8
0
 10
77.5
 20
39.5
 11
77.5
 21
25.5
  0
LINE
  8
0
 10
77.5
 20
25.5
 11
63.5
 21
25.5
  0
LINE
  8
0
 10
6.5
 20
24
 11
6.5
 21
38
  0
LINE
  8
0
 10
6.5
 20
38
 11
20.5
 21
38
  0
LINE
  8
0
 10
20.5
 20
38
 11
20.5
 21
24
  0
LINE
  8
0
 10
20.5
 20
24
 11
6.5
 21
24
  0
LINE
  8
0
 10
25.5
 20
14.5
 11
25.5
 21
28.5
  0
LINE
  8
0
 10
25.5
 20
28.5
 11
39.5
 21
28.5
  0
LINE
  8
0
 10
39.5
 20
28.5
 11
39.5
 21
14.5
  0
LINE
  8
0
 10
39.5
 20
14.5
 11
25.5
 21
14.5
  0
LINE
  8
0
 10
44.5
 20
10.5
 11
44.5
 21
24.5
  0
LINE
  8
0
 10
44.5
 20
24.5
 11
58.5
 21
24.5
  0
LINE
  8
0
 10
58.5
 20
24.5
 11
58.5
 21
10.5
  0
LINE
  8
0
 10
58.5
 20
10.5
 11
44.5
 21
10.5
  0
LINE
  8
0
 10
101.5
 20
10.5
 11
101.5
 21
24.5
  0
LINE
  8
0
 10
101.5
 20
24.5
 11
115.5
 21
24.5
  0
LINE
  8
0
 10
115.5
 20
24.5
 11
115.5
 21
10.5
  0
LINE
  8
0
 10
115.5
 20
10.5
 11
101.5
 21
10.5
  0
LINE
  8
0
 10
82.5
 20
10.5
 11
82.5
 21
24.5
  0
LINE
  8
0
 10
82.5
 20
24.5
 11
96.5
 21
24.5
  0
LINE
  8
0
 10
96.5
 20
24.5
 11
96.5
 21
10.5
  0
LINE
  8
0
 10
96.5
 20
10.5
 11
82.5
 21
10.5
  0
LINE
  8
0
 10
63.5
 20
6.5
 11
63.5
 21
20.5
  0
LINE
  8
0
 10
63.5
 20
20.5
 11
77.5
 21
20.5
  0
LINE
  8
0
 10
77.5
 20
20.5
 11
77.5
 21
6.5
  0
LINE
  8
0
 10
77.5
 20
6.5
 11
63.5
 21
6.5
  0
LINE
  8
0
 10
13.7679
 20
11.5
 11
12.0359
 21
14.5
  0
LINE
  8
0
 10
12.0359
 20
14.5
 11
13.7679
 21
17.5
  0
LINE
  8
0
 10
13.7679
 20
17.5
 11
17.232
 21
17.5
  0
LINE
  8
0
 10
17.232
 20
17.5
 11
18.9641
 21
14.5
  0
LINE
  8
0
 10
18.9641
 20
14.5
 11
17.232
 21
11.5
  0
LINE
  8
0
 10
17.232
 20
11.5
 11
13.7679
 21
11.5
  0
ENDSEC
  0
SECTION
  2
OBJECTS
  0
DICTIONARY
  0
ENDSEC
  0
EOF
