  0
SECTION
  2
BLOCKS
  0
ENDSEC
  0
SECTION
  2
ENTITIES
  0
LINE
  8
0
 10
80
 20
0.0219116
 11
80.4181
 21
0.0219116
  0
LINE
  8
0
 10
80.4181
 20
0.0219116
 11
81.2361
 21
0.19577
  0
LINE
  8
0
 10
81.2361
 20
0.19577
 11
82
 21
0.535889
  0
LINE
  8
0
 10
82
 20
0.535889
 11
82.6765
 21
1.02742
  0
LINE
  8
0
 10
82.6765
 20
1.02742
 11
83.2361
 21
1.64885
  0
LINE
  8
0
 10
83.2361
 20
1.64885
 11
83.6542
 21
2.37305
  0
LINE
  8
0
 10
83.6542
 20
2.37305
 11
83.9126
 21
3.16835
  0
LINE
  8
0
 10
83.9126
 20
3.16835
 11
84
 21
4
  0
LINE
  8
0
 10
84
 20
4
 11
118
 21
4
  0
LINE
  8
0
 10
118
 20
4
 11
118
 21
4.02191
  0
LINE
  8
0
 10
118
 20
4.02191
 11
118.418
 21
4.02191
  0
LINE
  8
0
 10
118.418
 20
4.02191
 11
119.236
 21
4.19577
  0
LINE
  8
0
 10
119.236
 20
4.19577
 11
120
 21
4.53589
  0
LINE
  8
0
 10
120
 20
4.53589
 11
120.677
 21
5.02742
  0
LINE
  8
0
 10
120.677
 20
5.02742
 11
121.236
 21
5.64885
  0
LINE
  8
0
 10
121.236
 20
5.64885
 11
121.654
 21
6.37305
  0
LINE
  8
0
 10
121.654
 20
6.37305
 11
121.913
 21
7.16835
  0
LINE
  8
0
 10
121.913
 20
7.16835
 11
122
 21
8
  0
LINE
  8
0
 10
122
 20
8
 11
122
 21
40.2091
  0
LINE
  8
0
 10
122
 20
40.2091
 11
122.076
 21
40.9368
  0
LINE
  8
0
 10
122.076
 20
40.9368
 11
122.303
 21
41.6326
  0
LINE
  8
0
 10
122.303
 20
41.6326
 11
122.668
 21
42.2663
  0
LINE
  8
0
 10
122.668
 20
42.2663
 11
123.158
 21
42.8101
  0
LINE
  8
0
 10
123.158
 20
42.8101
 11
123.75
 21
43.2402
  0
LINE
  8
0
 10
123.75
 20
43.2402
 11
124.418
 21
43.5378
  0
LINE
  8
0
 10
124.418
 20
43.5378
 11
125.134
 21
43.6899
  0
LINE
  8
0
 10
125.134
 20
43.6899
 11
125.5
 21
43.6899
  0
LINE
  8
0
 10
125.5
 20
43.6899
 11
125.5
 21
43.7447
  0
LINE
  8
0
 10
125.5
 20
43.7447
 11
126.179
 21
43.7447
  0
LINE
  8
0
 10
126.179
 20
43.7447
 11
127.509
 21
44.0272
  0
LINE
  8
0
 10
127.509
 20
44.0272
 11
128.75
 21
44.5799
  0
LINE
  8
0
 10
128.75
 20
44.5799
 11
129.849
 21
45.3786
  0
LINE
  8
0
 10
129.849
 20
45.3786
 11
130.759
 21
46.3885
  0
LINE
  8
0
 10
130.759
 20
46.3885
 11
131.438
 21
47.5653
  0
LINE
  8
0
 10
131.438
 20
47.5653
 11
131.858
 21
48.8577
  0
LINE
  8
0
 10
131.858
 20
48.8577
 11
132
 21
50.2091
  0
LINE
  8
0
 10
132
 20
50.2091
 11
131.858
 21
51.5605
  0
LINE
  8
0
 10
131.858
 20
51.5605
 11
131.795
 21
51.7551
  0
LINE
  8
0
 10
131.795
 20
51.7551
 11
131.822
 21
51.7618
  0
LINE
  8
0
 10
131.822
 20
51.7618
 11
131.788
 21
51.8666
  0
LINE
  8
0
 10
131.788
 20
51.8666
 11
131.711
 21
52.5943
  0
LINE
  8
0
 10
131.711
 20
52.5943
 11
131.788
 21
53.322
  0
LINE
  8
0
 10
131.788
 20
53.322
 11
132.014
 21
54.0179
  0
LINE
  8
0
 10
132.014
 20
54.0179
 11
132.38
 21
54.6516
  0
LINE
  8
0
 10
132.38
 20
54.6516
 11
132.869
 21
55.1953
  0
LINE
  8
0
 10
132.869
 20
55.1953
 11
133.461
 21
55.6254
  0
LINE
  8
0
 10
133.461
 20
55.6254
 11
134.13
 21
55.923
  0
LINE
  8
0
 10
134.13
 20
55.923
 11
134.381
 21
55.9763
  0
LINE
  8
0
 10
134.381
 20
55.9763
 11
134.377
 21
55.9933
  0
LINE
  8
0
 10
134.377
 20
55.9933
 11
160.835
 21
62.4918
  0
LINE
  8
0
 10
160.835
 20
62.4918
 11
160.83
 21
62.5112
  0
LINE
  8
0
 10
160.83
 20
62.5112
 11
161.117
 21
62.5721
  0
LINE
  8
0
 10
161.117
 20
62.5721
 11
161.881
 21
62.9122
  0
LINE
  8
0
 10
161.881
 20
62.9122
 11
162.557
 21
63.4037
  0
LINE
  8
0
 10
162.557
 20
63.4037
 11
163.117
 21
64.0252
  0
LINE
  8
0
 10
163.117
 20
64.0252
 11
163.535
 21
64.7494
  0
LINE
  8
0
 10
163.535
 20
64.7494
 11
163.793
 21
65.5447
  0
LINE
  8
0
 10
163.793
 20
65.5447
 11
163.881
 21
66.3763
  0
LINE
  8
0
 10
163.881
 20
66.3763
 11
163.793
 21
67.208
  0
LINE
  8
0
 10
163.793
 20
67.208
 11
163.754
 21
67.3278
  0
LINE
  8
0
 10
163.754
 20
67.3278
 11
163.765
 21
67.3304
  0
LINE
  8
0
 10
163.765
 20
67.3304
 11
154.701
 21
104.234
  0
LINE
  8
0
 10
154.701
 20
104.234
 11
154.681
 21
104.229
  0
LINE
  8
0
 10
154.681
 20
104.229
 11
154.265
 21
105.507
  0
LINE
  8
0
 10
154.265
 20
105.507
 11
153.473
 21
106.878
  0
LINE
  8
0
 10
153.473
 20
106.878
 11
152.414
 21
108.055
  0
LINE
  8
0
 10
152.414
 20
108.055
 11
151.133
 21
108.985
  0
LINE
  8
0
 10
151.133
 20
108.985
 11
149.687
 21
109.629
  0
LINE
  8
0
 10
149.687
 20
109.629
 11
148.139
 21
109.959
  0
LINE
  8
0
 10
148.139
 20
109.959
 11
147.347
 21
109.959
  0
LINE
  8
0
 10
147.347
 20
109.959
 11
147.347
 21
110
  0
LINE
  8
0
 10
147.347
 20
110
 11
0
 21
110
  0
LINE
  8
0
 10
0
 20
110
 11
0
 21
103.5
  0
LINE
  8
0
 10
0
 20
103.5
 11
0.142029
 21
102.149
  0
LINE
  8
0
 10
0.142029
 20
102.149
 11
0.561951
 21
100.856
  0
LINE
  8
0
 10
0.561951
 20
100.856
 11
1.24138
 21
99.6794
  0
LINE
  8
0
 10
1.24138
 20
99.6794
 11
2.15065
 21
98.6696
  0
LINE
  8
0
 10
2.15065
 20
98.6696
 11
3.25
 21
97.8708
  0
LINE
  8
0
 10
3.25
 20
97.8708
 11
4.49138
 21
97.3181
  0
LINE
  8
0
 10
4.49138
 20
97.3181
 11
5.82056
 21
97.0356
  0
LINE
  8
0
 10
5.82056
 20
97.0356
 11
6.5
 21
97.0356
  0
LINE
  8
0
 10
6.5
 20
97.0356
 11
6.5
 21
97
  0
LINE
  8
0
 10
6.5
 20
97
 11
41
 21
97
  0
LINE
  8
0
 10
41
 20
97
 11
41
 21
104
  0
LINE
  8
0
 10
41
 20
104
 11
112
 21
104
  0
LINE
  8
0
 10
112
 20
104
 11
112
 21
94.7753
  0
LINE
  8
0
 10
112
 20
94.7753
 11
151.549
 21
104.489
  0
LINE
  8
0
 10
151.549
 20
104.489
 11
161.09
 21
65.6437
  0
LINE
  8
0
 10
161.09
 20
65.6437
 11
119
 21
55.3058
  0
LINE
  8
0
 10
119
 20
55.3058
 11
119
 21
7
  0
LINE
  8
0
 10
119
 20
7
 11
81
 21
7
  0
LINE
  8
0
 10
81
 20
7
 11
81
 21
3
  0
LINE
  8
0
 10
81
 20
3
 11
60
 21
3
  0
LINE
  8
0
 10
60
 20
3
 11
60
 21
7
  0
LINE
  8
0
 10
60
 20
7
 11
41
 21
7
  0
LINE
  8
0
 10
41
 20
7
 11
41
 21
11
  0
LINE
  8
0
 10
41
 20
11
 11
22
 21
11
  0
LINE
  8
0
 10
22
 20
11
 11
22
 21
20.5
  0
LINE
  8
0
 10
22
 20
20.5
 11
3
 21
20.5
  0
LINE
  8
0
 10
3
 20
20.5
 11
3
 21
60.5
  0
LINE
  8
0
 10
3
 20
60.5
 11
22
 21
60.5
  0
LINE
  8
0
 10
22
 20
60.5
 11
22
 21
70
  0
LINE
  8
0
 10
22
 20
70
 11
41
 21
70
  0
LINE
  8
0
 10
41
 20
70
 11
41
 21
82
  0
LINE
  8
0
 10
41
 20
82
 11
38
 21
82
  0
LINE
  8
0
 10
38
 20
82
 11
38
 21
77
  0
LINE
  8
0
 10
38
 20
77
 11
37.9126
 21
76.1684
  0
LINE
  8
0
 10
37.9126
 20
76.1684
 11
37.6542
 21
75.373
  0
LINE
  8
0
 10
37.6542
 20
75.373
 11
37.2361
 21
74.6488
  0
LINE
  8
0
 10
37.2361
 20
74.6488
 11
36.6765
 21
74.0274
  0
LINE
  8
0
 10
36.6765
 20
74.0274
 11
36
 21
73.5359
  0
LINE
  8
0
 10
36
 20
73.5359
 11
35.2361
 21
73.1958
  0
LINE
  8
0
 10
35.2361
 20
73.1958
 11
34.4181
 21
73.0219
  0
LINE
  8
0
 10
34.4181
 20
73.0219
 11
34
 21
73.0219
  0
LINE
  8
0
 10
34
 20
73.0219
 11
34
 21
73
  0
LINE
  8
0
 10
34
 20
73
 11
23
 21
73
  0
LINE
  8
0
 10
23
 20
73
 11
23
 21
72.9781
  0
LINE
  8
0
 10
23
 20
72.9781
 11
22.5819
 21
72.9781
  0
LINE
  8
0
 10
22.5819
 20
72.9781
 11
21.7639
 21
72.8042
  0
LINE
  8
0
 10
21.7639
 20
72.8042
 11
21
 21
72.4641
  0
LINE
  8
0
 10
21
 20
72.4641
 11
20.3235
 21
71.9726
  0
LINE
  8
0
 10
20.3235
 20
71.9726
 11
19.7639
 21
71.3511
  0
LINE
  8
0
 10
19.7639
 20
71.3511
 11
19.3458
 21
70.6269
  0
LINE
  8
0
 10
19.3458
 20
70.6269
 11
19.0874
 21
69.8316
  0
LINE
  8
0
 10
19.0874
 20
69.8316
 11
19
 21
69
  0
LINE
  8
0
 10
19
 20
69
 11
19
 21
67.5
  0
LINE
  8
0
 10
19
 20
67.5
 11
18.9126
 21
66.6684
  0
LINE
  8
0
 10
18.9126
 20
66.6684
 11
18.6542
 21
65.873
  0
LINE
  8
0
 10
18.6542
 20
65.873
 11
18.2361
 21
65.1488
  0
LINE
  8
0
 10
18.2361
 20
65.1488
 11
17.6765
 21
64.5274
  0
LINE
  8
0
 10
17.6765
 20
64.5274
 11
17
 21
64.0359
  0
LINE
  8
0
 10
17
 20
64.0359
 11
16.2361
 21
63.6958
  0
LINE
  8
0
 10
16.2361
 20
63.6958
 11
15.4181
 21
63.5219
  0
LINE
  8
0
 10
15.4181
 20
63.5219
 11
15
 21
63.5219
  0
LINE
  8
0
 10
15
 20
63.5219
 11
15
 21
63.5
  0
LINE
  8
0
 10
15
 20
63.5
 11
4
 21
63.5
  0
LINE
  8
0
 10
4
 20
63.5
 11
4
 21
63.4781
  0
LINE
  8
0
 10
4
 20
63.4781
 11
3.58188
 21
63.4781
  0
LINE
  8
0
 10
3.58188
 20
63.4781
 11
2.76393
 21
63.3042
  0
LINE
  8
0
 10
2.76393
 20
63.3042
 11
2
 21
62.9641
  0
LINE
  8
0
 10
2
 20
62.9641
 11
1.32347
 21
62.4726
  0
LINE
  8
0
 10
1.32347
 20
62.4726
 11
0.763931
 21
61.8511
  0
LINE
  8
0
 10
0.763931
 20
61.8511
 11
0.34581
 21
61.1269
  0
LINE
  8
0
 10
0.34581
 20
61.1269
 11
0.0874023
 21
60.3316
  0
LINE
  8
0
 10
0.0874023
 20
60.3316
 11
0
 21
59.5
  0
LINE
  8
0
 10
0
 20
59.5
 11
0
 21
21.5
  0
LINE
  8
0
 10
0
 20
21.5
 11
0.0874023
 21
20.6684
  0
LINE
  8
0
 10
0.0874023
 20
20.6684
 11
0.34581
 21
19.873
  0
LINE
  8
0
 10
0.34581
 20
19.873
 11
0.763931
 21
19.1488
  0
LINE
  8
0
 10
0.763931
 20
19.1488
 11
1.32347
 21
18.5274
  0
LINE
  8
0
 10
1.32347
 20
18.5274
 11
2
 21
18.0359
  0
LINE
  8
0
 10
2
 20
18.0359
 11
2.76393
 21
17.6958
  0
LINE
  8
0
 10
2.76393
 20
17.6958
 11
3.58188
 21
17.5219
  0
LINE
  8
0
 10
3.58188
 20
17.5219
 11
4
 21
17.5219
  0
LINE
  8
0
 10
4
 20
17.5219
 11
4
 21
17.5
  0
LINE
  8
0
 10
4
 20
17.5
 11
6
 21
17.5
  0
LINE
  8
0
 10
6
 20
17.5
 11
6
 21
17.4836
  0
LINE
  8
0
 10
6
 20
17.4836
 11
6.31358
 21
17.4836
  0
LINE
  8
0
 10
6.31358
 20
17.4836
 11
6.92705
 21
17.3532
  0
LINE
  8
0
 10
6.92705
 20
17.3532
 11
7.5
 21
17.0981
  0
LINE
  8
0
 10
7.5
 20
17.0981
 11
8.00739
 21
16.7294
  0
LINE
  8
0
 10
8.00739
 20
16.7294
 11
8.42705
 21
16.2634
  0
LINE
  8
0
 10
8.42705
 20
16.2634
 11
8.74063
 21
15.7202
  0
LINE
  8
0
 10
8.74063
 20
15.7202
 11
8.93443
 21
15.1237
  0
LINE
  8
0
 10
8.93443
 20
15.1237
 11
9.14203
 21
13.1486
  0
LINE
  8
0
 10
9.14203
 20
13.1486
 11
9.56195
 21
11.8562
  0
LINE
  8
0
 10
9.56195
 20
11.8562
 11
10.2414
 21
10.6794
  0
LINE
  8
0
 10
10.2414
 20
10.6794
 11
11.1507
 21
9.66956
  0
LINE
  8
0
 10
11.1507
 20
9.66956
 11
12.25
 21
8.87083
  0
LINE
  8
0
 10
12.25
 20
8.87083
 11
13.4914
 21
8.31813
  0
LINE
  8
0
 10
13.4914
 20
8.31813
 11
14.8206
 21
8.0356
  0
LINE
  8
0
 10
14.8206
 20
8.0356
 11
15.5
 21
8.0356
  0
LINE
  8
0
 10
15.5
 20
8.0356
 11
15.5
 21
8
  0
LINE
  8
0
 10
15.5
 20
8
 11
38
 21
8
  0
LINE
  8
0
 10
38
 20
8
 11
38.0874
 21
7.16835
  0
LINE
  8
0
 10
38.0874
 20
7.16835
 11
38.3458
 21
6.37305
  0
LINE
  8
0
 10
38.3458
 20
6.37305
 11
38.7639
 21
5.64885
  0
LINE
  8
0
 10
38.7639
 20
5.64885
 11
39.3235
 21
5.02742
  0
LINE
  8
0
 10
39.3235
 20
5.02742
 11
40
 21
4.53589
  0
LINE
  8
0
 10
40
 20
4.53589
 11
40.7639
 21
4.19577
  0
LINE
  8
0
 10
40.7639
 20
4.19577
 11
41.5819
 21
4.02191
  0
LINE
  8
0
 10
41.5819
 20
4.02191
 11
42
 21
4.02191
  0
LINE
  8
0
 10
42
 20
4.02191
 11
42
 21
4
  0
LINE
  8
0
 10
42
 20
4
 11
57
 21
4
  0
LINE
  8
0
 10
57
 20
4
 11
57.0874
 21
3.16835
  0
LINE
  8
0
 10
57.0874
 20
3.16835
 11
57.3458
 21
2.37305
  0
LINE
  8
0
 10
57.3458
 20
2.37305
 11
57.7639
 21
1.64885
  0
LINE
  8
0
 10
57.7639
 20
1.64885
 11
58.3235
 21
1.02742
  0
LINE
  8
0
 10
58.3235
 20
1.02742
 11
59
 21
0.535889
  0
LINE
  8
0
 10
59
 20
0.535889
 11
59.7639
 21
0.19577
  0
LINE
  8
0
 10
59.7639
 20
0.19577
 11
60.5819
 21
0.0219116
  0
LINE
  8
0
 10
60.5819
 20
0.0219116
 11
61
 21
0.0219116
  0
LINE
  8
0
 10
61
 20
0.0219116
 11
61
 21
0
  0
LINE
  8
0
 10
61
 20
0
 11
80
 21
0
  0
LINE
  8
0
 10
80
 20
0
 11
80
 21
0.0219116
  0
LINE
  8
0
 10
116.768
 20
100.5
 11
115.036
 21
103.5
  0
LINE
  8
0
 10
115.036
 20
103.5
 11
116.768
 21
106.5
  0
LINE
  8
0
 10
116.768
 20
106.5
 11
120.232
 21
106.5
  0
LINE
  8
0
 10
120.232
 20
106.5
 11
121.964
 21
103.5
  0
LINE
  8
0
 10
121.964
 20
103.5
 11
120.232
 21
100.5
  0
LINE
  8
0
 10
120.232
 20
100.5
 11
116.768
 21
100.5
  0
LINE
  8
0
 10
4.76794
 20
100.5
 11
3.03589
 21
103.5
  0
LINE
  8
0
 10
3.03589
 20
103.5
 11
4.76794
 21
106.5
  0
LINE
  8
0
 10
4.76794
 20
106.5
 11
8.23204
 21
106.5
  0
LINE
  8
0
 10
8.23204
 20
106.5
 11
9.9641
 21
103.5
  0
LINE
  8
0
 10
9.9641
 20
103.5
 11
8.23204
 21
100.5
  0
LINE
  8
0
 10
8.23204
 20
100.5
 11
4.76794
 21
100.5
  0
LINE
  8
0
 10
123.768
 20
47.2091
 11
122.036
 21
50.2091
  0
LINE
  8
0
 10
122.036
 20
50.2091
 11
123.768
 21
53.2091
  0
LINE
  8
0
 10
123.768
 20
53.2091
 11
127.232
 21
53.2091
  0
LINE
  8
0
 10
127.232
 20
53.2091
 11
128.964
 21
50.2091
  0
LINE
  8
0
 10
128.964
 20
50.2091
 11
127.232
 21
47.2091
  0
LINE
  8
0
 10
127.232
 20
47.2091
 11
123.768
 21
47.2091
  0
LINE
  8
0
 10
13.7679
 20
11.5
 11
12.0359
 21
14.5
  0
LINE
  8
0
 10
12.0359
 20
14.5
 11
13.7679
 21
17.5
  0
LINE
  8
0
 10
13.7679
 20
17.5
 11
17.232
 21
17.5
  0
LINE
  8
0
 10
17.232
 20
17.5
 11
18.9641
 21
14.5
  0
LINE
  8
0
 10
18.9641
 20
14.5
 11
17.232
 21
11.5
  0
LINE
  8
0
 10
17.232
 20
11.5
 11
13.7679
 21
11.5
  0
ENDSEC
  0
SECTION
  2
OBJECTS
  0
DICTIONARY
  0
ENDSEC
  0
EOF
