G04 #@! TF.FileFunction,Soldermask,Top*
%FSLAX46Y46*%
G04 Gerber Fmt 4.6, Leading zero omitted, Abs format (unit mm)*
G04 Created by KiCad (PCBNEW 4.0.7) date 01/14/18 03:39:09*
%MOMM*%
%LPD*%
G01*
G04 APERTURE LIST*
%ADD10C,0.100000*%
%ADD11C,2.686000*%
%ADD12C,4.387800*%
%ADD13C,2.051000*%
%ADD14R,2.051000X2.051000*%
%ADD15C,4.400000*%
%ADD16C,3.450000*%
%ADD17C,4.210000*%
%ADD18R,1.924000X1.924000*%
%ADD19C,1.924000*%
%ADD20C,2.800000*%
G04 APERTURE END LIST*
D10*
D11*
X156960000Y-50080000D03*
X163310000Y-47540000D03*
D12*
X159500000Y-45000000D03*
D13*
X177500000Y-47540000D03*
D14*
X177500000Y-39920000D03*
D13*
X160770000Y-39920000D03*
D14*
X158230000Y-39920000D03*
X164500000Y-36110000D03*
D13*
X154500000Y-36110000D03*
D15*
X171400000Y-53240000D03*
D16*
X171400000Y-38000000D03*
D15*
X147600000Y-53240000D03*
D16*
X147600000Y-38000000D03*
D17*
X333500000Y-67995000D03*
X333500000Y-21005000D03*
D18*
X332103000Y-27863000D03*
D19*
X332103000Y-30657000D03*
X332103000Y-33451000D03*
X332103000Y-36245000D03*
X332103000Y-39039000D03*
X332103000Y-41706000D03*
X332103000Y-44500000D03*
X332103000Y-47294000D03*
X332103000Y-50088000D03*
X332103000Y-52882000D03*
X332103000Y-55549000D03*
X332103000Y-58343000D03*
X332103000Y-61137000D03*
X334897000Y-29260000D03*
X334897000Y-32054000D03*
X334897000Y-34848000D03*
X334897000Y-37515000D03*
X334897000Y-40309000D03*
X334897000Y-43103000D03*
X334897000Y-45897000D03*
X334897000Y-48691000D03*
X334897000Y-51358000D03*
X334897000Y-54152000D03*
X334897000Y-56946000D03*
X334897000Y-59740000D03*
D11*
X190460000Y-69080000D03*
X196810000Y-66540000D03*
D12*
X193000000Y-64000000D03*
D13*
X201890000Y-66540000D03*
D14*
X201890000Y-58920000D03*
D13*
X194270000Y-58920000D03*
D14*
X191730000Y-58920000D03*
X198000000Y-55110000D03*
D13*
X188000000Y-55110000D03*
D11*
X209460000Y-126080000D03*
X215810000Y-123540000D03*
D12*
X212000000Y-121000000D03*
D13*
X220890000Y-123540000D03*
D14*
X220890000Y-115920000D03*
D13*
X213270000Y-115920000D03*
D14*
X210730000Y-115920000D03*
X217000000Y-112110000D03*
D13*
X207000000Y-112110000D03*
D11*
X209460000Y-69080000D03*
X215810000Y-66540000D03*
D12*
X212000000Y-64000000D03*
D13*
X220890000Y-66540000D03*
D14*
X220890000Y-58920000D03*
D13*
X213270000Y-58920000D03*
D14*
X210730000Y-58920000D03*
X217000000Y-55110000D03*
D13*
X207000000Y-55110000D03*
D11*
X154585000Y-88080000D03*
X160935000Y-85540000D03*
D12*
X157125000Y-83000000D03*
D13*
X175125000Y-85540000D03*
D14*
X175125000Y-77920000D03*
D13*
X158395000Y-77920000D03*
D14*
X155855000Y-77920000D03*
X162125000Y-74110000D03*
D13*
X152125000Y-74110000D03*
D15*
X169025000Y-91240000D03*
D16*
X169025000Y-76000000D03*
D15*
X145225000Y-91240000D03*
D16*
X145225000Y-76000000D03*
D11*
X52460000Y-22080000D03*
X58810000Y-19540000D03*
D12*
X55000000Y-17000000D03*
D13*
X63890000Y-19540000D03*
D14*
X63890000Y-11920000D03*
D13*
X56270000Y-11920000D03*
D14*
X53730000Y-11920000D03*
X60000000Y-8110000D03*
D13*
X50000000Y-8110000D03*
D11*
X71460000Y-22080000D03*
X77810000Y-19540000D03*
D12*
X74000000Y-17000000D03*
D13*
X82890000Y-19540000D03*
D14*
X82890000Y-11920000D03*
D13*
X75270000Y-11920000D03*
D14*
X72730000Y-11920000D03*
X79000000Y-8110000D03*
D13*
X69000000Y-8110000D03*
D11*
X90460000Y-22080000D03*
X96810000Y-19540000D03*
D12*
X93000000Y-17000000D03*
D13*
X101890000Y-19540000D03*
D14*
X101890000Y-11920000D03*
D13*
X94270000Y-11920000D03*
D14*
X91730000Y-11920000D03*
X98000000Y-8110000D03*
D13*
X88000000Y-8110000D03*
D11*
X109460000Y-22080000D03*
X115810000Y-19540000D03*
D12*
X112000000Y-17000000D03*
D13*
X120890000Y-19540000D03*
D14*
X120890000Y-11920000D03*
D13*
X113270000Y-11920000D03*
D14*
X110730000Y-11920000D03*
X117000000Y-8110000D03*
D13*
X107000000Y-8110000D03*
D11*
X128460000Y-22080000D03*
X134810000Y-19540000D03*
D12*
X131000000Y-17000000D03*
D13*
X139890000Y-19540000D03*
D14*
X139890000Y-11920000D03*
D13*
X132270000Y-11920000D03*
D14*
X129730000Y-11920000D03*
X136000000Y-8110000D03*
D13*
X126000000Y-8110000D03*
D11*
X147460000Y-22080000D03*
X153810000Y-19540000D03*
D12*
X150000000Y-17000000D03*
D13*
X158890000Y-19540000D03*
D14*
X158890000Y-11920000D03*
D13*
X151270000Y-11920000D03*
D14*
X148730000Y-11920000D03*
X155000000Y-8110000D03*
D13*
X145000000Y-8110000D03*
D11*
X166460000Y-22080000D03*
X172810000Y-19540000D03*
D12*
X169000000Y-17000000D03*
D13*
X177890000Y-19540000D03*
D14*
X177890000Y-11920000D03*
D13*
X170270000Y-11920000D03*
D14*
X167730000Y-11920000D03*
X174000000Y-8110000D03*
D13*
X164000000Y-8110000D03*
D11*
X209460000Y-50080000D03*
X215810000Y-47540000D03*
D12*
X212000000Y-45000000D03*
D13*
X220890000Y-47540000D03*
D14*
X220890000Y-39920000D03*
D13*
X213270000Y-39920000D03*
D14*
X210730000Y-39920000D03*
X217000000Y-36110000D03*
D13*
X207000000Y-36110000D03*
D11*
X190460000Y-50080000D03*
X196810000Y-47540000D03*
D12*
X193000000Y-45000000D03*
D13*
X201890000Y-47540000D03*
D14*
X201890000Y-39920000D03*
D13*
X194270000Y-39920000D03*
D14*
X191730000Y-39920000D03*
X198000000Y-36110000D03*
D13*
X188000000Y-36110000D03*
D11*
X90460000Y-50080000D03*
X96810000Y-47540000D03*
D12*
X93000000Y-45000000D03*
D13*
X101890000Y-47540000D03*
D14*
X101890000Y-39920000D03*
D13*
X94270000Y-39920000D03*
D14*
X91730000Y-39920000D03*
X98000000Y-36110000D03*
D13*
X88000000Y-36110000D03*
D11*
X33460000Y-50080000D03*
X39810000Y-47540000D03*
D12*
X36000000Y-45000000D03*
D13*
X44890000Y-47540000D03*
D14*
X44890000Y-39920000D03*
D13*
X37270000Y-39920000D03*
D14*
X34730000Y-39920000D03*
X41000000Y-36110000D03*
D13*
X31000000Y-36110000D03*
D11*
X52460000Y-50080000D03*
X58810000Y-47540000D03*
D12*
X55000000Y-45000000D03*
D13*
X63890000Y-47540000D03*
D14*
X63890000Y-39920000D03*
D13*
X56270000Y-39920000D03*
D14*
X53730000Y-39920000D03*
X60000000Y-36110000D03*
D13*
X50000000Y-36110000D03*
D11*
X71460000Y-50080000D03*
X77810000Y-47540000D03*
D12*
X74000000Y-45000000D03*
D13*
X82890000Y-47540000D03*
D14*
X82890000Y-39920000D03*
D13*
X75270000Y-39920000D03*
D14*
X72730000Y-39920000D03*
X79000000Y-36110000D03*
D13*
X69000000Y-36110000D03*
D11*
X161710000Y-69080000D03*
X168060000Y-66540000D03*
D12*
X164250000Y-64000000D03*
D13*
X173140000Y-66540000D03*
D14*
X173140000Y-58920000D03*
D13*
X165520000Y-58920000D03*
D14*
X162980000Y-58920000D03*
X155360000Y-69000000D03*
D13*
X155360000Y-59000000D03*
D11*
X76210000Y-107080000D03*
X82560000Y-104540000D03*
D12*
X78750000Y-102000000D03*
D13*
X87640000Y-104540000D03*
D14*
X87640000Y-96920000D03*
D13*
X80020000Y-96920000D03*
D14*
X77480000Y-96920000D03*
X83750000Y-93110000D03*
D13*
X73750000Y-93110000D03*
D11*
X128460000Y-50080000D03*
X134810000Y-47540000D03*
D12*
X131000000Y-45000000D03*
D13*
X139890000Y-47540000D03*
D14*
X139890000Y-39920000D03*
D13*
X132270000Y-39920000D03*
D14*
X129730000Y-39920000D03*
X136000000Y-36110000D03*
D13*
X126000000Y-36110000D03*
D11*
X114210000Y-107080000D03*
X120560000Y-104540000D03*
D12*
X116750000Y-102000000D03*
D13*
X125640000Y-104540000D03*
D14*
X125640000Y-96920000D03*
D13*
X118020000Y-96920000D03*
D14*
X115480000Y-96920000D03*
X121750000Y-93110000D03*
D13*
X111750000Y-93110000D03*
D11*
X28710000Y-88080000D03*
X35060000Y-85540000D03*
D12*
X31250000Y-83000000D03*
D13*
X40140000Y-85540000D03*
D14*
X40140000Y-77920000D03*
D13*
X32520000Y-77920000D03*
D14*
X29980000Y-77920000D03*
X36250000Y-74110000D03*
D13*
X26250000Y-74110000D03*
D11*
X61960000Y-69080000D03*
X68310000Y-66540000D03*
D12*
X64500000Y-64000000D03*
D13*
X73390000Y-66540000D03*
D14*
X73390000Y-58920000D03*
D13*
X65770000Y-58920000D03*
D14*
X63230000Y-58920000D03*
X69500000Y-55110000D03*
D13*
X59500000Y-55110000D03*
D11*
X47710000Y-88080000D03*
X54060000Y-85540000D03*
D12*
X50250000Y-83000000D03*
D13*
X59140000Y-85540000D03*
D14*
X59140000Y-77920000D03*
D13*
X51520000Y-77920000D03*
D14*
X48980000Y-77920000D03*
X55250000Y-74110000D03*
D13*
X45250000Y-74110000D03*
D11*
X66710000Y-88080000D03*
X73060000Y-85540000D03*
D12*
X69250000Y-83000000D03*
D13*
X78140000Y-85540000D03*
D14*
X78140000Y-77920000D03*
D13*
X70520000Y-77920000D03*
D14*
X67980000Y-77920000D03*
X74250000Y-74110000D03*
D13*
X64250000Y-74110000D03*
D11*
X85710000Y-88080000D03*
X92060000Y-85540000D03*
D12*
X88250000Y-83000000D03*
D13*
X97140000Y-85540000D03*
D14*
X97140000Y-77920000D03*
D13*
X89520000Y-77920000D03*
D14*
X86980000Y-77920000D03*
X93250000Y-74110000D03*
D13*
X83250000Y-74110000D03*
D11*
X118960000Y-69080000D03*
X125310000Y-66540000D03*
D12*
X121500000Y-64000000D03*
D13*
X130390000Y-66540000D03*
D14*
X130390000Y-58920000D03*
D13*
X122770000Y-58920000D03*
D14*
X120230000Y-58920000D03*
X126500000Y-55110000D03*
D13*
X116500000Y-55110000D03*
D11*
X57210000Y-107080000D03*
X63560000Y-104540000D03*
D12*
X59750000Y-102000000D03*
D13*
X68640000Y-104540000D03*
D14*
X68640000Y-96920000D03*
D13*
X61020000Y-96920000D03*
D14*
X58480000Y-96920000D03*
X64750000Y-93110000D03*
D13*
X54750000Y-93110000D03*
D11*
X109460000Y-50080000D03*
X115810000Y-47540000D03*
D12*
X112000000Y-45000000D03*
D13*
X120890000Y-47540000D03*
D14*
X120890000Y-39920000D03*
D13*
X113270000Y-39920000D03*
D14*
X110730000Y-39920000D03*
X117000000Y-36110000D03*
D13*
X107000000Y-36110000D03*
D11*
X38210000Y-107080000D03*
X44560000Y-104540000D03*
D12*
X40750000Y-102000000D03*
D13*
X49640000Y-104540000D03*
D14*
X49640000Y-96920000D03*
D13*
X42020000Y-96920000D03*
D14*
X39480000Y-96920000D03*
X45750000Y-93110000D03*
D13*
X35750000Y-93110000D03*
D11*
X80960000Y-69080000D03*
X87310000Y-66540000D03*
D12*
X83500000Y-64000000D03*
D13*
X92390000Y-66540000D03*
D14*
X92390000Y-58920000D03*
D13*
X84770000Y-58920000D03*
D14*
X82230000Y-58920000D03*
X88500000Y-55110000D03*
D13*
X78500000Y-55110000D03*
D11*
X99960000Y-69080000D03*
X106310000Y-66540000D03*
D12*
X102500000Y-64000000D03*
D13*
X111390000Y-66540000D03*
D14*
X111390000Y-58920000D03*
D13*
X103770000Y-58920000D03*
D14*
X101230000Y-58920000D03*
X107500000Y-55110000D03*
D13*
X97500000Y-55110000D03*
D11*
X95210000Y-107080000D03*
X101560000Y-104540000D03*
D12*
X97750000Y-102000000D03*
D13*
X106640000Y-104540000D03*
D14*
X106640000Y-96920000D03*
D13*
X99020000Y-96920000D03*
D14*
X96480000Y-96920000D03*
X102750000Y-93110000D03*
D13*
X92750000Y-93110000D03*
D11*
X123710000Y-88080000D03*
X130060000Y-85540000D03*
D12*
X126250000Y-83000000D03*
D13*
X135140000Y-85540000D03*
D14*
X135140000Y-77920000D03*
D13*
X127520000Y-77920000D03*
D14*
X124980000Y-77920000D03*
X131250000Y-74110000D03*
D13*
X121250000Y-74110000D03*
D11*
X137960000Y-69080000D03*
X144310000Y-66540000D03*
D12*
X140500000Y-64000000D03*
D13*
X149390000Y-66540000D03*
D14*
X149390000Y-58920000D03*
D13*
X141770000Y-58920000D03*
D14*
X139230000Y-58920000D03*
X145500000Y-72890000D03*
D13*
X135500000Y-72890000D03*
D11*
X104710000Y-88080000D03*
X111060000Y-85540000D03*
D12*
X107250000Y-83000000D03*
D13*
X116140000Y-85540000D03*
D14*
X116140000Y-77920000D03*
D13*
X108520000Y-77920000D03*
D14*
X105980000Y-77920000D03*
X112250000Y-74110000D03*
D13*
X102250000Y-74110000D03*
D11*
X42960000Y-69080000D03*
X49310000Y-66540000D03*
D12*
X45500000Y-64000000D03*
D13*
X54390000Y-66540000D03*
D14*
X54390000Y-58920000D03*
D13*
X46770000Y-58920000D03*
D14*
X44230000Y-58920000D03*
X50500000Y-55110000D03*
D13*
X40500000Y-55110000D03*
D11*
X23960000Y-69080000D03*
X30310000Y-66540000D03*
D12*
X26500000Y-64000000D03*
D13*
X35390000Y-66540000D03*
D14*
X35390000Y-58920000D03*
D13*
X27770000Y-58920000D03*
D14*
X25230000Y-58920000D03*
X31500000Y-55110000D03*
D13*
X21500000Y-55110000D03*
D11*
X190460000Y-126080000D03*
X196810000Y-123540000D03*
D12*
X193000000Y-121000000D03*
D13*
X201890000Y-123540000D03*
D14*
X201890000Y-115920000D03*
D13*
X194270000Y-115920000D03*
D14*
X191730000Y-115920000D03*
X198000000Y-112110000D03*
D13*
X188000000Y-112110000D03*
D11*
X252460000Y-22080000D03*
X258810000Y-19540000D03*
D12*
X255000000Y-17000000D03*
D13*
X263890000Y-19540000D03*
D14*
X263890000Y-11920000D03*
D13*
X256270000Y-11920000D03*
D14*
X253730000Y-11920000D03*
X260000000Y-8110000D03*
D13*
X250000000Y-8110000D03*
D11*
X271460000Y-22080000D03*
X277810000Y-19540000D03*
D12*
X274000000Y-17000000D03*
D13*
X282890000Y-19540000D03*
D14*
X282890000Y-11920000D03*
D13*
X275270000Y-11920000D03*
D14*
X272730000Y-11920000D03*
X279000000Y-8110000D03*
D13*
X269000000Y-8110000D03*
D11*
X290460000Y-22080000D03*
X296810000Y-19540000D03*
D12*
X293000000Y-17000000D03*
D13*
X301890000Y-19540000D03*
D14*
X301890000Y-11920000D03*
D13*
X294270000Y-11920000D03*
D14*
X291730000Y-11920000D03*
X298000000Y-8110000D03*
D13*
X288000000Y-8110000D03*
D11*
X309460000Y-22080000D03*
X315810000Y-19540000D03*
D12*
X312000000Y-17000000D03*
D13*
X320890000Y-19540000D03*
D14*
X320890000Y-11920000D03*
D13*
X313270000Y-11920000D03*
D14*
X310730000Y-11920000D03*
X317000000Y-8110000D03*
D13*
X307000000Y-8110000D03*
D11*
X261960000Y-126080000D03*
X268310000Y-123540000D03*
D12*
X264500000Y-121000000D03*
D13*
X246500000Y-123540000D03*
D14*
X246500000Y-115920000D03*
D13*
X265770000Y-115920000D03*
D14*
X263230000Y-115920000D03*
X269500000Y-112110000D03*
D13*
X259500000Y-112110000D03*
D15*
X276400000Y-129240000D03*
D16*
X276400000Y-114000000D03*
D15*
X252600000Y-129240000D03*
D16*
X252600000Y-114000000D03*
D11*
X252460000Y-107080000D03*
X258810000Y-104540000D03*
D12*
X255000000Y-102000000D03*
D13*
X263890000Y-104540000D03*
D14*
X263890000Y-96920000D03*
D13*
X256270000Y-96920000D03*
D14*
X253730000Y-96920000D03*
X260000000Y-93110000D03*
D13*
X250000000Y-93110000D03*
D11*
X271460000Y-107080000D03*
X277810000Y-104540000D03*
D12*
X274000000Y-102000000D03*
D13*
X282890000Y-104540000D03*
D14*
X282890000Y-96920000D03*
D13*
X275270000Y-96920000D03*
D14*
X272730000Y-96920000D03*
X279000000Y-93110000D03*
D13*
X269000000Y-93110000D03*
D11*
X290460000Y-107080000D03*
X296810000Y-104540000D03*
D12*
X293000000Y-102000000D03*
D13*
X301890000Y-104540000D03*
D14*
X301890000Y-96920000D03*
D13*
X294270000Y-96920000D03*
D14*
X291730000Y-96920000D03*
X298000000Y-93110000D03*
D13*
X288000000Y-93110000D03*
D11*
X252460000Y-88080000D03*
X258810000Y-85540000D03*
D12*
X255000000Y-83000000D03*
D13*
X263890000Y-85540000D03*
D14*
X263890000Y-77920000D03*
D13*
X256270000Y-77920000D03*
D14*
X253730000Y-77920000D03*
X260000000Y-74110000D03*
D13*
X250000000Y-74110000D03*
D11*
X271460000Y-88080000D03*
X277810000Y-85540000D03*
D12*
X274000000Y-83000000D03*
D13*
X282890000Y-85540000D03*
D14*
X282890000Y-77920000D03*
D13*
X275270000Y-77920000D03*
D14*
X272730000Y-77920000D03*
X279000000Y-74110000D03*
D13*
X269000000Y-74110000D03*
D11*
X290460000Y-88080000D03*
X296810000Y-85540000D03*
D12*
X293000000Y-83000000D03*
D13*
X301890000Y-85540000D03*
D14*
X301890000Y-77920000D03*
D13*
X294270000Y-77920000D03*
D14*
X291730000Y-77920000D03*
X298000000Y-74110000D03*
D13*
X288000000Y-74110000D03*
D11*
X252460000Y-69080000D03*
X258810000Y-66540000D03*
D12*
X255000000Y-64000000D03*
D13*
X263890000Y-66540000D03*
D14*
X263890000Y-58920000D03*
D13*
X256270000Y-58920000D03*
D14*
X253730000Y-58920000D03*
X260000000Y-55110000D03*
D13*
X250000000Y-55110000D03*
D11*
X271460000Y-69080000D03*
X277810000Y-66540000D03*
D12*
X274000000Y-64000000D03*
D13*
X282890000Y-66540000D03*
D14*
X282890000Y-58920000D03*
D13*
X275270000Y-58920000D03*
D14*
X272730000Y-58920000D03*
X279000000Y-55110000D03*
D13*
X269000000Y-55110000D03*
D11*
X290460000Y-69080000D03*
X296810000Y-66540000D03*
D12*
X293000000Y-64000000D03*
D13*
X301890000Y-66540000D03*
D14*
X301890000Y-58920000D03*
D13*
X294270000Y-58920000D03*
D14*
X291730000Y-58920000D03*
X298000000Y-55110000D03*
D13*
X288000000Y-55110000D03*
D11*
X290460000Y-50080000D03*
X296810000Y-47540000D03*
D12*
X293000000Y-45000000D03*
D13*
X301890000Y-47540000D03*
D14*
X301890000Y-39920000D03*
D13*
X294270000Y-39920000D03*
D14*
X291730000Y-39920000D03*
X298000000Y-36110000D03*
D13*
X288000000Y-36110000D03*
D11*
X317080000Y-114040000D03*
X314540000Y-107690000D03*
D12*
X312000000Y-111500000D03*
D13*
X314540000Y-129500000D03*
D14*
X306920000Y-129500000D03*
D13*
X306920000Y-110230000D03*
D14*
X306920000Y-112770000D03*
X310000000Y-131500000D03*
D13*
X320000000Y-131500000D03*
D15*
X320240000Y-99600000D03*
D16*
X305000000Y-99600000D03*
D15*
X320240000Y-123400000D03*
D16*
X305000000Y-123400000D03*
D11*
X252460000Y-50080000D03*
X258810000Y-47540000D03*
D12*
X255000000Y-45000000D03*
D13*
X263890000Y-47540000D03*
D14*
X263890000Y-39920000D03*
D13*
X256270000Y-39920000D03*
D14*
X253730000Y-39920000D03*
X260000000Y-36110000D03*
D13*
X250000000Y-36110000D03*
D11*
X309460000Y-50080000D03*
X315810000Y-47540000D03*
D12*
X312000000Y-45000000D03*
D13*
X320890000Y-47540000D03*
D14*
X320890000Y-39920000D03*
D13*
X313270000Y-39920000D03*
D14*
X310730000Y-39920000D03*
X317000000Y-36110000D03*
D13*
X307000000Y-36110000D03*
D11*
X290460000Y-126080000D03*
X296810000Y-123540000D03*
D12*
X293000000Y-121000000D03*
D13*
X301890000Y-123540000D03*
D14*
X301890000Y-115920000D03*
D13*
X294270000Y-115920000D03*
D14*
X291730000Y-115920000D03*
X298000000Y-112110000D03*
D13*
X288000000Y-112110000D03*
D11*
X317080000Y-76040000D03*
X314540000Y-69690000D03*
D12*
X312000000Y-73500000D03*
D13*
X314540000Y-91500000D03*
D14*
X306920000Y-91500000D03*
D13*
X306920000Y-72230000D03*
D14*
X306920000Y-74770000D03*
X310000000Y-93500000D03*
D13*
X320000000Y-93500000D03*
D15*
X320240000Y-61600000D03*
D16*
X305000000Y-61600000D03*
D15*
X320240000Y-85400000D03*
D16*
X305000000Y-85400000D03*
D11*
X271460000Y-50080000D03*
X277810000Y-47540000D03*
D12*
X274000000Y-45000000D03*
D13*
X282890000Y-47540000D03*
D14*
X282890000Y-39920000D03*
D13*
X275270000Y-39920000D03*
D14*
X272730000Y-39920000D03*
X279000000Y-36110000D03*
D13*
X269000000Y-36110000D03*
D11*
X228460000Y-69080000D03*
X234810000Y-66540000D03*
D12*
X231000000Y-64000000D03*
D13*
X239890000Y-66540000D03*
D14*
X239890000Y-58920000D03*
D13*
X232270000Y-58920000D03*
D14*
X229730000Y-58920000D03*
X236000000Y-55110000D03*
D13*
X226000000Y-55110000D03*
D11*
X228460000Y-50080000D03*
X234810000Y-47540000D03*
D12*
X231000000Y-45000000D03*
D13*
X239890000Y-47540000D03*
D14*
X239890000Y-39920000D03*
D13*
X232270000Y-39920000D03*
D14*
X229730000Y-39920000D03*
X236000000Y-36110000D03*
D13*
X226000000Y-36110000D03*
D11*
X228460000Y-22080000D03*
X234810000Y-19540000D03*
D12*
X231000000Y-17000000D03*
D13*
X239890000Y-19540000D03*
D14*
X239890000Y-11920000D03*
D13*
X232270000Y-11920000D03*
D14*
X229730000Y-11920000D03*
X236000000Y-8110000D03*
D13*
X226000000Y-8110000D03*
D11*
X190460000Y-22080000D03*
X196810000Y-19540000D03*
D12*
X193000000Y-17000000D03*
D13*
X201890000Y-19540000D03*
D14*
X201890000Y-11920000D03*
D13*
X194270000Y-11920000D03*
D14*
X191730000Y-11920000D03*
X198000000Y-8110000D03*
D13*
X188000000Y-8110000D03*
D11*
X228460000Y-126080000D03*
X234810000Y-123540000D03*
D12*
X231000000Y-121000000D03*
D13*
X239890000Y-123540000D03*
D14*
X239890000Y-115920000D03*
D13*
X232270000Y-115920000D03*
D14*
X229730000Y-115920000D03*
X236000000Y-112110000D03*
D13*
X226000000Y-112110000D03*
D11*
X92835000Y-126080000D03*
X99185000Y-123540000D03*
D12*
X95375000Y-121000000D03*
D13*
X104265000Y-123540000D03*
D14*
X104265000Y-115920000D03*
D13*
X96645000Y-115920000D03*
D14*
X94105000Y-115920000D03*
X100375000Y-112110000D03*
D13*
X90375000Y-112110000D03*
D11*
X164085000Y-126080000D03*
X170435000Y-123540000D03*
D12*
X166625000Y-121000000D03*
D13*
X175515000Y-123540000D03*
D14*
X175515000Y-115920000D03*
D13*
X167895000Y-115920000D03*
D14*
X165355000Y-115920000D03*
X171625000Y-129890000D03*
D13*
X161625000Y-129890000D03*
D11*
X64335000Y-126080000D03*
X70685000Y-123540000D03*
D12*
X66875000Y-121000000D03*
D13*
X75765000Y-123540000D03*
D14*
X75765000Y-115920000D03*
D13*
X68145000Y-115920000D03*
D14*
X65605000Y-115920000D03*
X71875000Y-112110000D03*
D13*
X61875000Y-112110000D03*
D11*
X140335000Y-126080000D03*
X146685000Y-123540000D03*
D12*
X142875000Y-121000000D03*
D13*
X151765000Y-123540000D03*
D14*
X151765000Y-115920000D03*
D13*
X144145000Y-115920000D03*
D14*
X141605000Y-115920000D03*
X147875000Y-129890000D03*
D13*
X137875000Y-129890000D03*
D11*
X149835000Y-107080000D03*
X156185000Y-104540000D03*
D12*
X152375000Y-102000000D03*
D13*
X170375000Y-104540000D03*
D14*
X170375000Y-96920000D03*
D13*
X153645000Y-96920000D03*
D14*
X151105000Y-96920000D03*
X134375000Y-107000000D03*
D13*
X134375000Y-97000000D03*
D15*
X164275000Y-110240000D03*
D16*
X164275000Y-95000000D03*
D15*
X140475000Y-110240000D03*
D16*
X140475000Y-95000000D03*
D11*
X26335000Y-126080000D03*
X32685000Y-123540000D03*
D12*
X28875000Y-121000000D03*
D13*
X46875000Y-123540000D03*
D14*
X46875000Y-115920000D03*
D13*
X30145000Y-115920000D03*
D14*
X27605000Y-115920000D03*
X10875000Y-126000000D03*
D13*
X10875000Y-116000000D03*
D15*
X40775000Y-129240000D03*
D16*
X40775000Y-114000000D03*
D15*
X16975000Y-129240000D03*
D16*
X16975000Y-114000000D03*
D11*
X116585000Y-126080000D03*
X122935000Y-123540000D03*
D12*
X119125000Y-121000000D03*
D13*
X128015000Y-123540000D03*
D14*
X128015000Y-115920000D03*
D13*
X120395000Y-115920000D03*
D14*
X117855000Y-115920000D03*
X124125000Y-112110000D03*
D13*
X114125000Y-112110000D03*
D11*
X209460000Y-22080000D03*
X215810000Y-19540000D03*
D12*
X212000000Y-17000000D03*
D13*
X220890000Y-19540000D03*
D14*
X220890000Y-11920000D03*
D13*
X213270000Y-11920000D03*
D14*
X210730000Y-11920000D03*
X217000000Y-8110000D03*
D13*
X207000000Y-8110000D03*
D11*
X209460000Y-107080000D03*
X215810000Y-104540000D03*
D12*
X212000000Y-102000000D03*
D13*
X220890000Y-104540000D03*
D14*
X220890000Y-96920000D03*
D13*
X213270000Y-96920000D03*
D14*
X210730000Y-96920000D03*
X217000000Y-93110000D03*
D13*
X207000000Y-93110000D03*
D20*
X3500000Y-3500000D03*
X3500000Y-134500000D03*
X337500000Y-3500000D03*
X337500000Y-134500000D03*
X36000000Y-17000000D03*
X17000000Y-45000000D03*
X21750000Y-102000000D03*
X181000000Y-3500000D03*
X243000000Y-3500000D03*
X181000000Y-31000000D03*
X243000000Y-31000000D03*
X181000000Y-83000000D03*
X243000000Y-83000000D03*
X181000000Y-134500000D03*
X243000000Y-134500000D03*
M02*
