G04 #@! TF.FileFunction,Legend,Top*
%FSLAX46Y46*%
G04 Gerber Fmt 4.6, Leading zero omitted, Abs format (unit mm)*
G04 Created by KiCad (PCBNEW 4.0.7) date 01/14/18 03:39:09*
%MOMM*%
%LPD*%
G01*
G04 APERTURE LIST*
%ADD10C,0.100000*%
%ADD11C,0.304800*%
%ADD12C,0.203200*%
%ADD13C,0.150000*%
G04 APERTURE END LIST*
D10*
D11*
X330325000Y-70154000D02*
X330325000Y-70154000D01*
X330325000Y-70154000D02*
X336675000Y-70154000D01*
X336675000Y-70154000D02*
X336675000Y-18719000D01*
X336675000Y-18719000D02*
X330325000Y-18719000D01*
X330325000Y-18719000D02*
X330325000Y-70027000D01*
X330325000Y-70027000D02*
X330325000Y-70154000D01*
D12*
X153113714Y-41734286D02*
X153331428Y-41794762D01*
X153404000Y-41855238D01*
X153476571Y-41976190D01*
X153476571Y-42157619D01*
X153404000Y-42278571D01*
X153331428Y-42339048D01*
X153186286Y-42399524D01*
X152605714Y-42399524D01*
X152605714Y-41129524D01*
X153113714Y-41129524D01*
X153258857Y-41190000D01*
X153331428Y-41250476D01*
X153404000Y-41371429D01*
X153404000Y-41492381D01*
X153331428Y-41613333D01*
X153258857Y-41673810D01*
X153113714Y-41734286D01*
X152605714Y-41734286D01*
X154057143Y-42036667D02*
X154782857Y-42036667D01*
X153912000Y-42399524D02*
X154420000Y-41129524D01*
X154928000Y-42399524D01*
X156306857Y-42278571D02*
X156234286Y-42339048D01*
X156016572Y-42399524D01*
X155871429Y-42399524D01*
X155653714Y-42339048D01*
X155508572Y-42218095D01*
X155436000Y-42097143D01*
X155363429Y-41855238D01*
X155363429Y-41673810D01*
X155436000Y-41431905D01*
X155508572Y-41310952D01*
X155653714Y-41190000D01*
X155871429Y-41129524D01*
X156016572Y-41129524D01*
X156234286Y-41190000D01*
X156306857Y-41250476D01*
X156960000Y-42399524D02*
X156960000Y-41129524D01*
X157830857Y-42399524D02*
X157177714Y-41673810D01*
X157830857Y-41129524D02*
X156960000Y-41855238D01*
X158411429Y-42339048D02*
X158629143Y-42399524D01*
X158992000Y-42399524D01*
X159137143Y-42339048D01*
X159209714Y-42278571D01*
X159282286Y-42157619D01*
X159282286Y-42036667D01*
X159209714Y-41915714D01*
X159137143Y-41855238D01*
X158992000Y-41794762D01*
X158701714Y-41734286D01*
X158556572Y-41673810D01*
X158484000Y-41613333D01*
X158411429Y-41492381D01*
X158411429Y-41371429D01*
X158484000Y-41250476D01*
X158556572Y-41190000D01*
X158701714Y-41129524D01*
X159064572Y-41129524D01*
X159282286Y-41190000D01*
X159935429Y-42399524D02*
X159935429Y-41129524D01*
X160516001Y-41129524D01*
X160661143Y-41190000D01*
X160733715Y-41250476D01*
X160806286Y-41371429D01*
X160806286Y-41552857D01*
X160733715Y-41673810D01*
X160661143Y-41734286D01*
X160516001Y-41794762D01*
X159935429Y-41794762D01*
X161386858Y-42036667D02*
X162112572Y-42036667D01*
X161241715Y-42399524D02*
X161749715Y-41129524D01*
X162257715Y-42399524D01*
X163636572Y-42278571D02*
X163564001Y-42339048D01*
X163346287Y-42399524D01*
X163201144Y-42399524D01*
X162983429Y-42339048D01*
X162838287Y-42218095D01*
X162765715Y-42097143D01*
X162693144Y-41855238D01*
X162693144Y-41673810D01*
X162765715Y-41431905D01*
X162838287Y-41310952D01*
X162983429Y-41190000D01*
X163201144Y-41129524D01*
X163346287Y-41129524D01*
X163564001Y-41190000D01*
X163636572Y-41250476D01*
X164289715Y-41734286D02*
X164797715Y-41734286D01*
X165015429Y-42399524D02*
X164289715Y-42399524D01*
X164289715Y-41129524D01*
X165015429Y-41129524D01*
X166466858Y-42399524D02*
X165596001Y-42399524D01*
X166031429Y-42399524D02*
X166031429Y-41129524D01*
X165886286Y-41310952D01*
X165741144Y-41431905D01*
X165596001Y-41492381D01*
D11*
X329109429Y-62352572D02*
X327585429Y-62352572D01*
X327585429Y-61989715D01*
X327658000Y-61772000D01*
X327803143Y-61626858D01*
X327948286Y-61554286D01*
X328238571Y-61481715D01*
X328456286Y-61481715D01*
X328746571Y-61554286D01*
X328891714Y-61626858D01*
X329036857Y-61772000D01*
X329109429Y-61989715D01*
X329109429Y-62352572D01*
X328311143Y-60320572D02*
X328383714Y-60102858D01*
X328456286Y-60030286D01*
X328601429Y-59957715D01*
X328819143Y-59957715D01*
X328964286Y-60030286D01*
X329036857Y-60102858D01*
X329109429Y-60248000D01*
X329109429Y-60828572D01*
X327585429Y-60828572D01*
X327585429Y-60320572D01*
X327658000Y-60175429D01*
X327730571Y-60102858D01*
X327875714Y-60030286D01*
X328020857Y-60030286D01*
X328166000Y-60102858D01*
X328238571Y-60175429D01*
X328311143Y-60320572D01*
X328311143Y-60828572D01*
X327730571Y-59377143D02*
X327658000Y-59304572D01*
X327585429Y-59159429D01*
X327585429Y-58796572D01*
X327658000Y-58651429D01*
X327730571Y-58578858D01*
X327875714Y-58506286D01*
X328020857Y-58506286D01*
X328238571Y-58578858D01*
X329109429Y-59449715D01*
X329109429Y-58506286D01*
X327585429Y-57127429D02*
X327585429Y-57853143D01*
X328311143Y-57925714D01*
X328238571Y-57853143D01*
X328166000Y-57708000D01*
X328166000Y-57345143D01*
X328238571Y-57200000D01*
X328311143Y-57127429D01*
X328456286Y-57054857D01*
X328819143Y-57054857D01*
X328964286Y-57127429D01*
X329036857Y-57200000D01*
X329109429Y-57345143D01*
X329109429Y-57708000D01*
X329036857Y-57853143D01*
X328964286Y-57925714D01*
X329109429Y-39057144D02*
X327585429Y-39057144D01*
X327585429Y-38694287D01*
X327658000Y-38476572D01*
X327803143Y-38331430D01*
X327948286Y-38258858D01*
X328238571Y-38186287D01*
X328456286Y-38186287D01*
X328746571Y-38258858D01*
X328891714Y-38331430D01*
X329036857Y-38476572D01*
X329109429Y-38694287D01*
X329109429Y-39057144D01*
X328311143Y-37025144D02*
X328383714Y-36807430D01*
X328456286Y-36734858D01*
X328601429Y-36662287D01*
X328819143Y-36662287D01*
X328964286Y-36734858D01*
X329036857Y-36807430D01*
X329109429Y-36952572D01*
X329109429Y-37533144D01*
X327585429Y-37533144D01*
X327585429Y-37025144D01*
X327658000Y-36880001D01*
X327730571Y-36807430D01*
X327875714Y-36734858D01*
X328020857Y-36734858D01*
X328166000Y-36807430D01*
X328238571Y-36880001D01*
X328311143Y-37025144D01*
X328311143Y-37533144D01*
X327730571Y-36081715D02*
X327658000Y-36009144D01*
X327585429Y-35864001D01*
X327585429Y-35501144D01*
X327658000Y-35356001D01*
X327730571Y-35283430D01*
X327875714Y-35210858D01*
X328020857Y-35210858D01*
X328238571Y-35283430D01*
X329109429Y-36154287D01*
X329109429Y-35210858D01*
X327585429Y-33832001D02*
X327585429Y-34557715D01*
X328311143Y-34630286D01*
X328238571Y-34557715D01*
X328166000Y-34412572D01*
X328166000Y-34049715D01*
X328238571Y-33904572D01*
X328311143Y-33832001D01*
X328456286Y-33759429D01*
X328819143Y-33759429D01*
X328964286Y-33832001D01*
X329036857Y-33904572D01*
X329109429Y-34049715D01*
X329109429Y-34412572D01*
X329036857Y-34557715D01*
X328964286Y-34630286D01*
X329254571Y-33469143D02*
X329254571Y-32308000D01*
X328311143Y-31437143D02*
X328311143Y-31945143D01*
X329109429Y-31945143D02*
X327585429Y-31945143D01*
X327585429Y-31219429D01*
X329036857Y-30058285D02*
X329109429Y-30203428D01*
X329109429Y-30493714D01*
X329036857Y-30638857D01*
X328891714Y-30711428D01*
X328311143Y-30711428D01*
X328166000Y-30638857D01*
X328093429Y-30493714D01*
X328093429Y-30203428D01*
X328166000Y-30058285D01*
X328311143Y-29985714D01*
X328456286Y-29985714D01*
X328601429Y-30711428D01*
X329109429Y-29332571D02*
X328093429Y-29332571D01*
X328238571Y-29332571D02*
X328166000Y-29259999D01*
X328093429Y-29114857D01*
X328093429Y-28897142D01*
X328166000Y-28751999D01*
X328311143Y-28679428D01*
X329109429Y-28679428D01*
X328311143Y-28679428D02*
X328166000Y-28606857D01*
X328093429Y-28461714D01*
X328093429Y-28243999D01*
X328166000Y-28098857D01*
X328311143Y-28026285D01*
X329109429Y-28026285D01*
X329109429Y-26647428D02*
X328311143Y-26647428D01*
X328166000Y-26719999D01*
X328093429Y-26865142D01*
X328093429Y-27155428D01*
X328166000Y-27300571D01*
X329036857Y-26647428D02*
X329109429Y-26792571D01*
X329109429Y-27155428D01*
X329036857Y-27300571D01*
X328891714Y-27373142D01*
X328746571Y-27373142D01*
X328601429Y-27300571D01*
X328528857Y-27155428D01*
X328528857Y-26792571D01*
X328456286Y-26647428D01*
X329109429Y-25704000D02*
X329036857Y-25849142D01*
X328891714Y-25921714D01*
X327585429Y-25921714D01*
X329036857Y-24542856D02*
X329109429Y-24687999D01*
X329109429Y-24978285D01*
X329036857Y-25123428D01*
X328891714Y-25195999D01*
X328311143Y-25195999D01*
X328166000Y-25123428D01*
X328093429Y-24978285D01*
X328093429Y-24687999D01*
X328166000Y-24542856D01*
X328311143Y-24470285D01*
X328456286Y-24470285D01*
X328601429Y-25195999D01*
D12*
X188609429Y-61399524D02*
X188609429Y-60129524D01*
X188972286Y-60129524D01*
X189190001Y-60190000D01*
X189335143Y-60310952D01*
X189407715Y-60431905D01*
X189480286Y-60673810D01*
X189480286Y-60855238D01*
X189407715Y-61097143D01*
X189335143Y-61218095D01*
X189190001Y-61339048D01*
X188972286Y-61399524D01*
X188609429Y-61399524D01*
X190133429Y-60734286D02*
X190641429Y-60734286D01*
X190859143Y-61399524D02*
X190133429Y-61399524D01*
X190133429Y-60129524D01*
X190859143Y-60129524D01*
X192238000Y-61399524D02*
X191512286Y-61399524D01*
X191512286Y-60129524D01*
X192746000Y-60734286D02*
X193254000Y-60734286D01*
X193471714Y-61399524D02*
X192746000Y-61399524D01*
X192746000Y-60129524D01*
X193471714Y-60129524D01*
X193907143Y-60129524D02*
X194778000Y-60129524D01*
X194342571Y-61399524D02*
X194342571Y-60129524D01*
X195286000Y-60734286D02*
X195794000Y-60734286D01*
X196011714Y-61399524D02*
X195286000Y-61399524D01*
X195286000Y-60129524D01*
X196011714Y-60129524D01*
X197463143Y-61399524D02*
X196592286Y-61399524D01*
X197027714Y-61399524D02*
X197027714Y-60129524D01*
X196882571Y-60310952D01*
X196737429Y-60431905D01*
X196592286Y-60492381D01*
X208407715Y-118399524D02*
X208407715Y-117129524D01*
X208770572Y-117129524D01*
X208988287Y-117190000D01*
X209133429Y-117310952D01*
X209206001Y-117431905D01*
X209278572Y-117673810D01*
X209278572Y-117855238D01*
X209206001Y-118097143D01*
X209133429Y-118218095D01*
X208988287Y-118339048D01*
X208770572Y-118399524D01*
X208407715Y-118399524D01*
X210222001Y-117129524D02*
X210512287Y-117129524D01*
X210657429Y-117190000D01*
X210802572Y-117310952D01*
X210875144Y-117552857D01*
X210875144Y-117976190D01*
X210802572Y-118218095D01*
X210657429Y-118339048D01*
X210512287Y-118399524D01*
X210222001Y-118399524D01*
X210076858Y-118339048D01*
X209931715Y-118218095D01*
X209859144Y-117976190D01*
X209859144Y-117552857D01*
X209931715Y-117310952D01*
X210076858Y-117190000D01*
X210222001Y-117129524D01*
X211383143Y-117129524D02*
X211746000Y-118399524D01*
X212036286Y-117492381D01*
X212326572Y-118399524D01*
X212689429Y-117129524D01*
X213270000Y-118399524D02*
X213270000Y-117129524D01*
X214140857Y-118399524D01*
X214140857Y-117129524D01*
X215664857Y-118399524D02*
X214794000Y-118399524D01*
X215229428Y-118399524D02*
X215229428Y-117129524D01*
X215084285Y-117310952D01*
X214939143Y-117431905D01*
X214794000Y-117492381D01*
X209387429Y-60734286D02*
X209895429Y-60734286D01*
X210113143Y-61399524D02*
X209387429Y-61399524D01*
X209387429Y-60129524D01*
X210113143Y-60129524D01*
X210766286Y-61399524D02*
X210766286Y-60129524D01*
X211637143Y-61399524D01*
X211637143Y-60129524D01*
X212362857Y-61399524D02*
X212362857Y-60129524D01*
X212725714Y-60129524D01*
X212943429Y-60190000D01*
X213088571Y-60310952D01*
X213161143Y-60431905D01*
X213233714Y-60673810D01*
X213233714Y-60855238D01*
X213161143Y-61097143D01*
X213088571Y-61218095D01*
X212943429Y-61339048D01*
X212725714Y-61399524D01*
X212362857Y-61399524D01*
X214685143Y-61399524D02*
X213814286Y-61399524D01*
X214249714Y-61399524D02*
X214249714Y-60129524D01*
X214104571Y-60310952D01*
X213959429Y-60431905D01*
X213814286Y-60492381D01*
X153242429Y-79734286D02*
X153750429Y-79734286D01*
X153968143Y-80399524D02*
X153242429Y-80399524D01*
X153242429Y-79129524D01*
X153968143Y-79129524D01*
X154621286Y-80399524D02*
X154621286Y-79129524D01*
X155492143Y-80399524D01*
X155492143Y-79129524D01*
X156000143Y-79129524D02*
X156871000Y-79129524D01*
X156435571Y-80399524D02*
X156435571Y-79129524D01*
X157379000Y-79734286D02*
X157887000Y-79734286D01*
X158104714Y-80399524D02*
X157379000Y-80399524D01*
X157379000Y-79129524D01*
X158104714Y-79129524D01*
X159628714Y-80399524D02*
X159120714Y-79794762D01*
X158757857Y-80399524D02*
X158757857Y-79129524D01*
X159338429Y-79129524D01*
X159483571Y-79190000D01*
X159556143Y-79250476D01*
X159628714Y-79371429D01*
X159628714Y-79552857D01*
X159556143Y-79673810D01*
X159483571Y-79734286D01*
X159338429Y-79794762D01*
X158757857Y-79794762D01*
X161080143Y-80399524D02*
X160209286Y-80399524D01*
X160644714Y-80399524D02*
X160644714Y-79129524D01*
X160499571Y-79310952D01*
X160354429Y-79431905D01*
X160209286Y-79492381D01*
X54492000Y-13734286D02*
X53984000Y-13734286D01*
X53984000Y-14399524D02*
X53984000Y-13129524D01*
X54709714Y-13129524D01*
X55943429Y-13129524D02*
X55653143Y-13129524D01*
X55508000Y-13190000D01*
X55435429Y-13250476D01*
X55290286Y-13431905D01*
X55217715Y-13673810D01*
X55217715Y-14157619D01*
X55290286Y-14278571D01*
X55362858Y-14339048D01*
X55508000Y-14399524D01*
X55798286Y-14399524D01*
X55943429Y-14339048D01*
X56016000Y-14278571D01*
X56088572Y-14157619D01*
X56088572Y-13855238D01*
X56016000Y-13734286D01*
X55943429Y-13673810D01*
X55798286Y-13613333D01*
X55508000Y-13613333D01*
X55362858Y-13673810D01*
X55290286Y-13734286D01*
X55217715Y-13855238D01*
X73492000Y-13734286D02*
X72984000Y-13734286D01*
X72984000Y-14399524D02*
X72984000Y-13129524D01*
X73709714Y-13129524D01*
X74145143Y-13129524D02*
X75161143Y-13129524D01*
X74508000Y-14399524D01*
X92492000Y-13734286D02*
X91984000Y-13734286D01*
X91984000Y-14399524D02*
X91984000Y-13129524D01*
X92709714Y-13129524D01*
X93508000Y-13673810D02*
X93362858Y-13613333D01*
X93290286Y-13552857D01*
X93217715Y-13431905D01*
X93217715Y-13371429D01*
X93290286Y-13250476D01*
X93362858Y-13190000D01*
X93508000Y-13129524D01*
X93798286Y-13129524D01*
X93943429Y-13190000D01*
X94016000Y-13250476D01*
X94088572Y-13371429D01*
X94088572Y-13431905D01*
X94016000Y-13552857D01*
X93943429Y-13613333D01*
X93798286Y-13673810D01*
X93508000Y-13673810D01*
X93362858Y-13734286D01*
X93290286Y-13794762D01*
X93217715Y-13915714D01*
X93217715Y-14157619D01*
X93290286Y-14278571D01*
X93362858Y-14339048D01*
X93508000Y-14399524D01*
X93798286Y-14399524D01*
X93943429Y-14339048D01*
X94016000Y-14278571D01*
X94088572Y-14157619D01*
X94088572Y-13915714D01*
X94016000Y-13794762D01*
X93943429Y-13734286D01*
X93798286Y-13673810D01*
X111492000Y-13734286D02*
X110984000Y-13734286D01*
X110984000Y-14399524D02*
X110984000Y-13129524D01*
X111709714Y-13129524D01*
X112362858Y-14399524D02*
X112653143Y-14399524D01*
X112798286Y-14339048D01*
X112870858Y-14278571D01*
X113016000Y-14097143D01*
X113088572Y-13855238D01*
X113088572Y-13371429D01*
X113016000Y-13250476D01*
X112943429Y-13190000D01*
X112798286Y-13129524D01*
X112508000Y-13129524D01*
X112362858Y-13190000D01*
X112290286Y-13250476D01*
X112217715Y-13371429D01*
X112217715Y-13673810D01*
X112290286Y-13794762D01*
X112362858Y-13855238D01*
X112508000Y-13915714D01*
X112798286Y-13915714D01*
X112943429Y-13855238D01*
X113016000Y-13794762D01*
X113088572Y-13673810D01*
X129766285Y-13734286D02*
X129258285Y-13734286D01*
X129258285Y-14399524D02*
X129258285Y-13129524D01*
X129983999Y-13129524D01*
X131362857Y-14399524D02*
X130492000Y-14399524D01*
X130927428Y-14399524D02*
X130927428Y-13129524D01*
X130782285Y-13310952D01*
X130637143Y-13431905D01*
X130492000Y-13492381D01*
X132306286Y-13129524D02*
X132451429Y-13129524D01*
X132596572Y-13190000D01*
X132669143Y-13250476D01*
X132741714Y-13371429D01*
X132814286Y-13613333D01*
X132814286Y-13915714D01*
X132741714Y-14157619D01*
X132669143Y-14278571D01*
X132596572Y-14339048D01*
X132451429Y-14399524D01*
X132306286Y-14399524D01*
X132161143Y-14339048D01*
X132088572Y-14278571D01*
X132016000Y-14157619D01*
X131943429Y-13915714D01*
X131943429Y-13613333D01*
X132016000Y-13371429D01*
X132088572Y-13250476D01*
X132161143Y-13190000D01*
X132306286Y-13129524D01*
X148766285Y-13734286D02*
X148258285Y-13734286D01*
X148258285Y-14399524D02*
X148258285Y-13129524D01*
X148983999Y-13129524D01*
X150362857Y-14399524D02*
X149492000Y-14399524D01*
X149927428Y-14399524D02*
X149927428Y-13129524D01*
X149782285Y-13310952D01*
X149637143Y-13431905D01*
X149492000Y-13492381D01*
X151814286Y-14399524D02*
X150943429Y-14399524D01*
X151378857Y-14399524D02*
X151378857Y-13129524D01*
X151233714Y-13310952D01*
X151088572Y-13431905D01*
X150943429Y-13492381D01*
X167766285Y-13734286D02*
X167258285Y-13734286D01*
X167258285Y-14399524D02*
X167258285Y-13129524D01*
X167983999Y-13129524D01*
X169362857Y-14399524D02*
X168492000Y-14399524D01*
X168927428Y-14399524D02*
X168927428Y-13129524D01*
X168782285Y-13310952D01*
X168637143Y-13431905D01*
X168492000Y-13492381D01*
X169943429Y-13250476D02*
X170016000Y-13190000D01*
X170161143Y-13129524D01*
X170524000Y-13129524D01*
X170669143Y-13190000D01*
X170741714Y-13250476D01*
X170814286Y-13371429D01*
X170814286Y-13492381D01*
X170741714Y-13673810D01*
X169870857Y-14399524D01*
X170814286Y-14399524D01*
X208480286Y-42399524D02*
X208480286Y-41129524D01*
X208480286Y-41734286D02*
X209351143Y-41734286D01*
X209351143Y-42399524D02*
X209351143Y-41129524D01*
X210367143Y-41129524D02*
X210657429Y-41129524D01*
X210802571Y-41190000D01*
X210947714Y-41310952D01*
X211020286Y-41552857D01*
X211020286Y-41976190D01*
X210947714Y-42218095D01*
X210802571Y-42339048D01*
X210657429Y-42399524D01*
X210367143Y-42399524D01*
X210222000Y-42339048D01*
X210076857Y-42218095D01*
X210004286Y-41976190D01*
X210004286Y-41552857D01*
X210076857Y-41310952D01*
X210222000Y-41190000D01*
X210367143Y-41129524D01*
X211673428Y-42399524D02*
X211673428Y-41129524D01*
X212181428Y-42036667D01*
X212689428Y-41129524D01*
X212689428Y-42399524D01*
X213415142Y-41734286D02*
X213923142Y-41734286D01*
X214140856Y-42399524D02*
X213415142Y-42399524D01*
X213415142Y-41129524D01*
X214140856Y-41129524D01*
X215592285Y-42399524D02*
X214721428Y-42399524D01*
X215156856Y-42399524D02*
X215156856Y-41129524D01*
X215011713Y-41310952D01*
X214866571Y-41431905D01*
X214721428Y-41492381D01*
X188718286Y-42399524D02*
X188718286Y-41129524D01*
X189444000Y-42399524D02*
X189444000Y-41129524D01*
X190314857Y-42399524D01*
X190314857Y-41129524D01*
X190968000Y-42339048D02*
X191185714Y-42399524D01*
X191548571Y-42399524D01*
X191693714Y-42339048D01*
X191766285Y-42278571D01*
X191838857Y-42157619D01*
X191838857Y-42036667D01*
X191766285Y-41915714D01*
X191693714Y-41855238D01*
X191548571Y-41794762D01*
X191258285Y-41734286D01*
X191113143Y-41673810D01*
X191040571Y-41613333D01*
X190968000Y-41492381D01*
X190968000Y-41371429D01*
X191040571Y-41250476D01*
X191113143Y-41190000D01*
X191258285Y-41129524D01*
X191621143Y-41129524D01*
X191838857Y-41190000D01*
X192492000Y-41734286D02*
X193000000Y-41734286D01*
X193217714Y-42399524D02*
X192492000Y-42399524D01*
X192492000Y-41129524D01*
X193217714Y-41129524D01*
X194741714Y-42399524D02*
X194233714Y-41794762D01*
X193870857Y-42399524D02*
X193870857Y-41129524D01*
X194451429Y-41129524D01*
X194596571Y-41190000D01*
X194669143Y-41250476D01*
X194741714Y-41371429D01*
X194741714Y-41552857D01*
X194669143Y-41673810D01*
X194596571Y-41734286D01*
X194451429Y-41794762D01*
X193870857Y-41794762D01*
X195177143Y-41129524D02*
X196048000Y-41129524D01*
X195612571Y-42399524D02*
X195612571Y-41129524D01*
X197354286Y-42399524D02*
X196483429Y-42399524D01*
X196918857Y-42399524D02*
X196918857Y-41129524D01*
X196773714Y-41310952D01*
X196628572Y-41431905D01*
X196483429Y-41492381D01*
X89952000Y-42399524D02*
X89952000Y-41129524D01*
X90822857Y-42399524D02*
X90169714Y-41673810D01*
X90822857Y-41129524D02*
X89952000Y-41855238D01*
X91476000Y-41734286D02*
X91984000Y-41734286D01*
X92201714Y-42399524D02*
X91476000Y-42399524D01*
X91476000Y-41129524D01*
X92201714Y-41129524D01*
X93145143Y-41794762D02*
X93145143Y-42399524D01*
X92637143Y-41129524D02*
X93145143Y-41794762D01*
X93653143Y-41129524D01*
X93798286Y-42520476D02*
X94959429Y-42520476D01*
X95612572Y-41129524D02*
X95757715Y-41129524D01*
X95902858Y-41190000D01*
X95975429Y-41250476D01*
X96048000Y-41371429D01*
X96120572Y-41613333D01*
X96120572Y-41915714D01*
X96048000Y-42157619D01*
X95975429Y-42278571D01*
X95902858Y-42339048D01*
X95757715Y-42399524D01*
X95612572Y-42399524D01*
X95467429Y-42339048D01*
X95394858Y-42278571D01*
X95322286Y-42157619D01*
X95249715Y-41915714D01*
X95249715Y-41613333D01*
X95322286Y-41371429D01*
X95394858Y-41250476D01*
X95467429Y-41190000D01*
X95612572Y-41129524D01*
X32952000Y-42399524D02*
X32952000Y-41129524D01*
X33822857Y-42399524D02*
X33169714Y-41673810D01*
X33822857Y-41129524D02*
X32952000Y-41855238D01*
X34476000Y-41734286D02*
X34984000Y-41734286D01*
X35201714Y-42399524D02*
X34476000Y-42399524D01*
X34476000Y-41129524D01*
X35201714Y-41129524D01*
X36145143Y-41794762D02*
X36145143Y-42399524D01*
X35637143Y-41129524D02*
X36145143Y-41794762D01*
X36653143Y-41129524D01*
X36798286Y-42520476D02*
X37959429Y-42520476D01*
X38177143Y-41129524D02*
X39193143Y-41129524D01*
X38540000Y-42399524D01*
X51952000Y-42399524D02*
X51952000Y-41129524D01*
X52822857Y-42399524D02*
X52169714Y-41673810D01*
X52822857Y-41129524D02*
X51952000Y-41855238D01*
X53476000Y-41734286D02*
X53984000Y-41734286D01*
X54201714Y-42399524D02*
X53476000Y-42399524D01*
X53476000Y-41129524D01*
X54201714Y-41129524D01*
X55145143Y-41794762D02*
X55145143Y-42399524D01*
X54637143Y-41129524D02*
X55145143Y-41794762D01*
X55653143Y-41129524D01*
X55798286Y-42520476D02*
X56959429Y-42520476D01*
X57540000Y-41673810D02*
X57394858Y-41613333D01*
X57322286Y-41552857D01*
X57249715Y-41431905D01*
X57249715Y-41371429D01*
X57322286Y-41250476D01*
X57394858Y-41190000D01*
X57540000Y-41129524D01*
X57830286Y-41129524D01*
X57975429Y-41190000D01*
X58048000Y-41250476D01*
X58120572Y-41371429D01*
X58120572Y-41431905D01*
X58048000Y-41552857D01*
X57975429Y-41613333D01*
X57830286Y-41673810D01*
X57540000Y-41673810D01*
X57394858Y-41734286D01*
X57322286Y-41794762D01*
X57249715Y-41915714D01*
X57249715Y-42157619D01*
X57322286Y-42278571D01*
X57394858Y-42339048D01*
X57540000Y-42399524D01*
X57830286Y-42399524D01*
X57975429Y-42339048D01*
X58048000Y-42278571D01*
X58120572Y-42157619D01*
X58120572Y-41915714D01*
X58048000Y-41794762D01*
X57975429Y-41734286D01*
X57830286Y-41673810D01*
X70952000Y-42399524D02*
X70952000Y-41129524D01*
X71822857Y-42399524D02*
X71169714Y-41673810D01*
X71822857Y-41129524D02*
X70952000Y-41855238D01*
X72476000Y-41734286D02*
X72984000Y-41734286D01*
X73201714Y-42399524D02*
X72476000Y-42399524D01*
X72476000Y-41129524D01*
X73201714Y-41129524D01*
X74145143Y-41794762D02*
X74145143Y-42399524D01*
X73637143Y-41129524D02*
X74145143Y-41794762D01*
X74653143Y-41129524D01*
X74798286Y-42520476D02*
X75959429Y-42520476D01*
X76394858Y-42399524D02*
X76685143Y-42399524D01*
X76830286Y-42339048D01*
X76902858Y-42278571D01*
X77048000Y-42097143D01*
X77120572Y-41855238D01*
X77120572Y-41371429D01*
X77048000Y-41250476D01*
X76975429Y-41190000D01*
X76830286Y-41129524D01*
X76540000Y-41129524D01*
X76394858Y-41190000D01*
X76322286Y-41250476D01*
X76249715Y-41371429D01*
X76249715Y-41673810D01*
X76322286Y-41794762D01*
X76394858Y-41855238D01*
X76540000Y-41915714D01*
X76830286Y-41915714D01*
X76975429Y-41855238D01*
X77048000Y-41794762D01*
X77120572Y-41673810D01*
X154743142Y-61399524D02*
X154743142Y-60129524D01*
X155613999Y-61399524D02*
X154960856Y-60673810D01*
X155613999Y-60129524D02*
X154743142Y-60855238D01*
X156267142Y-60734286D02*
X156775142Y-60734286D01*
X156992856Y-61399524D02*
X156267142Y-61399524D01*
X156267142Y-60129524D01*
X156992856Y-60129524D01*
X157936285Y-60794762D02*
X157936285Y-61399524D01*
X157428285Y-60129524D02*
X157936285Y-60794762D01*
X158444285Y-60129524D01*
X158589428Y-61520476D02*
X159750571Y-61520476D01*
X160621428Y-60734286D02*
X160839142Y-60794762D01*
X160911714Y-60855238D01*
X160984285Y-60976190D01*
X160984285Y-61157619D01*
X160911714Y-61278571D01*
X160839142Y-61339048D01*
X160694000Y-61399524D01*
X160113428Y-61399524D01*
X160113428Y-60129524D01*
X160621428Y-60129524D01*
X160766571Y-60190000D01*
X160839142Y-60250476D01*
X160911714Y-60371429D01*
X160911714Y-60492381D01*
X160839142Y-60613333D01*
X160766571Y-60673810D01*
X160621428Y-60734286D01*
X160113428Y-60734286D01*
X161564857Y-61036667D02*
X162290571Y-61036667D01*
X161419714Y-61399524D02*
X161927714Y-60129524D01*
X162435714Y-61399524D01*
X163814571Y-61278571D02*
X163742000Y-61339048D01*
X163524286Y-61399524D01*
X163379143Y-61399524D01*
X163161428Y-61339048D01*
X163016286Y-61218095D01*
X162943714Y-61097143D01*
X162871143Y-60855238D01*
X162871143Y-60673810D01*
X162943714Y-60431905D01*
X163016286Y-60310952D01*
X163161428Y-60190000D01*
X163379143Y-60129524D01*
X163524286Y-60129524D01*
X163742000Y-60190000D01*
X163814571Y-60250476D01*
X164467714Y-61399524D02*
X164467714Y-60129524D01*
X165338571Y-61399524D02*
X164685428Y-60673810D01*
X165338571Y-60129524D02*
X164467714Y-60855238D01*
X165919143Y-61339048D02*
X166136857Y-61399524D01*
X166499714Y-61399524D01*
X166644857Y-61339048D01*
X166717428Y-61278571D01*
X166790000Y-61157619D01*
X166790000Y-61036667D01*
X166717428Y-60915714D01*
X166644857Y-60855238D01*
X166499714Y-60794762D01*
X166209428Y-60734286D01*
X166064286Y-60673810D01*
X165991714Y-60613333D01*
X165919143Y-60492381D01*
X165919143Y-60371429D01*
X165991714Y-60250476D01*
X166064286Y-60190000D01*
X166209428Y-60129524D01*
X166572286Y-60129524D01*
X166790000Y-60190000D01*
X168168857Y-61399524D02*
X167443143Y-61399524D01*
X167443143Y-60129524D01*
X168604286Y-61036667D02*
X169330000Y-61036667D01*
X168459143Y-61399524D02*
X168967143Y-60129524D01*
X169475143Y-61399524D01*
X169910572Y-61339048D02*
X170128286Y-61399524D01*
X170491143Y-61399524D01*
X170636286Y-61339048D01*
X170708857Y-61278571D01*
X170781429Y-61157619D01*
X170781429Y-61036667D01*
X170708857Y-60915714D01*
X170636286Y-60855238D01*
X170491143Y-60794762D01*
X170200857Y-60734286D01*
X170055715Y-60673810D01*
X169983143Y-60613333D01*
X169910572Y-60492381D01*
X169910572Y-60371429D01*
X169983143Y-60250476D01*
X170055715Y-60190000D01*
X170200857Y-60129524D01*
X170563715Y-60129524D01*
X170781429Y-60190000D01*
X171434572Y-61399524D02*
X171434572Y-60129524D01*
X171434572Y-60734286D02*
X172305429Y-60734286D01*
X172305429Y-61399524D02*
X172305429Y-60129524D01*
X173829429Y-61399524D02*
X172958572Y-61399524D01*
X173394000Y-61399524D02*
X173394000Y-60129524D01*
X173248857Y-60310952D01*
X173103715Y-60431905D01*
X172958572Y-60492381D01*
X71746857Y-99399524D02*
X71746857Y-98129524D01*
X72617714Y-99399524D02*
X71964571Y-98673810D01*
X72617714Y-98129524D02*
X71746857Y-98855238D01*
X73270857Y-98734286D02*
X73778857Y-98734286D01*
X73996571Y-99399524D02*
X73270857Y-99399524D01*
X73270857Y-98129524D01*
X73996571Y-98129524D01*
X74940000Y-98794762D02*
X74940000Y-99399524D01*
X74432000Y-98129524D02*
X74940000Y-98794762D01*
X75448000Y-98129524D01*
X75593143Y-99520476D02*
X76754286Y-99520476D01*
X77988000Y-99278571D02*
X77915429Y-99339048D01*
X77697715Y-99399524D01*
X77552572Y-99399524D01*
X77334857Y-99339048D01*
X77189715Y-99218095D01*
X77117143Y-99097143D01*
X77044572Y-98855238D01*
X77044572Y-98673810D01*
X77117143Y-98431905D01*
X77189715Y-98310952D01*
X77334857Y-98190000D01*
X77552572Y-98129524D01*
X77697715Y-98129524D01*
X77915429Y-98190000D01*
X77988000Y-98250476D01*
X78931429Y-98129524D02*
X79221715Y-98129524D01*
X79366857Y-98190000D01*
X79512000Y-98310952D01*
X79584572Y-98552857D01*
X79584572Y-98976190D01*
X79512000Y-99218095D01*
X79366857Y-99339048D01*
X79221715Y-99399524D01*
X78931429Y-99399524D01*
X78786286Y-99339048D01*
X78641143Y-99218095D01*
X78568572Y-98976190D01*
X78568572Y-98552857D01*
X78641143Y-98310952D01*
X78786286Y-98190000D01*
X78931429Y-98129524D01*
X80237714Y-99399524D02*
X80237714Y-98129524D01*
X80745714Y-99036667D01*
X81253714Y-98129524D01*
X81253714Y-99399524D01*
X81979428Y-99399524D02*
X81979428Y-98129524D01*
X82487428Y-99036667D01*
X82995428Y-98129524D01*
X82995428Y-99399524D01*
X83648571Y-99036667D02*
X84374285Y-99036667D01*
X83503428Y-99399524D02*
X84011428Y-98129524D01*
X84519428Y-99399524D01*
X85825714Y-99399524D02*
X84954857Y-99399524D01*
X85390285Y-99399524D02*
X85390285Y-98129524D01*
X85245142Y-98310952D01*
X85100000Y-98431905D01*
X84954857Y-98492381D01*
X123670286Y-42399524D02*
X123670286Y-41129524D01*
X124541143Y-42399524D02*
X123888000Y-41673810D01*
X124541143Y-41129524D02*
X123670286Y-41855238D01*
X125194286Y-41734286D02*
X125702286Y-41734286D01*
X125920000Y-42399524D02*
X125194286Y-42399524D01*
X125194286Y-41129524D01*
X125920000Y-41129524D01*
X126863429Y-41794762D02*
X126863429Y-42399524D01*
X126355429Y-41129524D02*
X126863429Y-41794762D01*
X127371429Y-41129524D01*
X127516572Y-42520476D02*
X128677715Y-42520476D01*
X129040572Y-41734286D02*
X129548572Y-41734286D01*
X129766286Y-42399524D02*
X129040572Y-42399524D01*
X129040572Y-41129524D01*
X129766286Y-41129524D01*
X131435429Y-42520476D02*
X131290286Y-42460000D01*
X131145143Y-42339048D01*
X130927429Y-42157619D01*
X130782286Y-42097143D01*
X130637143Y-42097143D01*
X130709715Y-42399524D02*
X130564572Y-42339048D01*
X130419429Y-42218095D01*
X130346858Y-41976190D01*
X130346858Y-41552857D01*
X130419429Y-41310952D01*
X130564572Y-41190000D01*
X130709715Y-41129524D01*
X131000001Y-41129524D01*
X131145143Y-41190000D01*
X131290286Y-41310952D01*
X131362858Y-41552857D01*
X131362858Y-41976190D01*
X131290286Y-42218095D01*
X131145143Y-42339048D01*
X131000001Y-42399524D01*
X130709715Y-42399524D01*
X132016000Y-41129524D02*
X132016000Y-42157619D01*
X132088572Y-42278571D01*
X132161143Y-42339048D01*
X132306286Y-42399524D01*
X132596572Y-42399524D01*
X132741714Y-42339048D01*
X132814286Y-42278571D01*
X132886857Y-42157619D01*
X132886857Y-41129524D01*
X133540000Y-42036667D02*
X134265714Y-42036667D01*
X133394857Y-42399524D02*
X133902857Y-41129524D01*
X134410857Y-42399524D01*
X135644571Y-42399524D02*
X134918857Y-42399524D01*
X134918857Y-41129524D01*
X136080000Y-42339048D02*
X136297714Y-42399524D01*
X136660571Y-42399524D01*
X136805714Y-42339048D01*
X136878285Y-42278571D01*
X136950857Y-42157619D01*
X136950857Y-42036667D01*
X136878285Y-41915714D01*
X136805714Y-41855238D01*
X136660571Y-41794762D01*
X136370285Y-41734286D01*
X136225143Y-41673810D01*
X136152571Y-41613333D01*
X136080000Y-41492381D01*
X136080000Y-41371429D01*
X136152571Y-41250476D01*
X136225143Y-41190000D01*
X136370285Y-41129524D01*
X136733143Y-41129524D01*
X136950857Y-41190000D01*
X138402286Y-42399524D02*
X137531429Y-42399524D01*
X137966857Y-42399524D02*
X137966857Y-41129524D01*
X137821714Y-41310952D01*
X137676572Y-41431905D01*
X137531429Y-41492381D01*
X104340285Y-99399524D02*
X104340285Y-98129524D01*
X105211142Y-99399524D02*
X104557999Y-98673810D01*
X105211142Y-98129524D02*
X104340285Y-98855238D01*
X105864285Y-98734286D02*
X106372285Y-98734286D01*
X106589999Y-99399524D02*
X105864285Y-99399524D01*
X105864285Y-98129524D01*
X106589999Y-98129524D01*
X107533428Y-98794762D02*
X107533428Y-99399524D01*
X107025428Y-98129524D02*
X107533428Y-98794762D01*
X108041428Y-98129524D01*
X108186571Y-99520476D02*
X109347714Y-99520476D01*
X110218571Y-98734286D02*
X109710571Y-98734286D01*
X109710571Y-99399524D02*
X109710571Y-98129524D01*
X110436285Y-98129524D01*
X111307143Y-98129524D02*
X111597429Y-98129524D01*
X111742571Y-98190000D01*
X111887714Y-98310952D01*
X111960286Y-98552857D01*
X111960286Y-98976190D01*
X111887714Y-99218095D01*
X111742571Y-99339048D01*
X111597429Y-99399524D01*
X111307143Y-99399524D01*
X111162000Y-99339048D01*
X111016857Y-99218095D01*
X110944286Y-98976190D01*
X110944286Y-98552857D01*
X111016857Y-98310952D01*
X111162000Y-98190000D01*
X111307143Y-98129524D01*
X113484285Y-99399524D02*
X112976285Y-98794762D01*
X112613428Y-99399524D02*
X112613428Y-98129524D01*
X113194000Y-98129524D01*
X113339142Y-98190000D01*
X113411714Y-98250476D01*
X113484285Y-98371429D01*
X113484285Y-98552857D01*
X113411714Y-98673810D01*
X113339142Y-98734286D01*
X113194000Y-98794762D01*
X112613428Y-98794762D01*
X113992285Y-98129524D02*
X114355142Y-99399524D01*
X114645428Y-98492381D01*
X114935714Y-99399524D01*
X115298571Y-98129524D01*
X115806571Y-99036667D02*
X116532285Y-99036667D01*
X115661428Y-99399524D02*
X116169428Y-98129524D01*
X116677428Y-99399524D01*
X118056285Y-99399524D02*
X117548285Y-98794762D01*
X117185428Y-99399524D02*
X117185428Y-98129524D01*
X117766000Y-98129524D01*
X117911142Y-98190000D01*
X117983714Y-98250476D01*
X118056285Y-98371429D01*
X118056285Y-98552857D01*
X117983714Y-98673810D01*
X117911142Y-98734286D01*
X117766000Y-98794762D01*
X117185428Y-98794762D01*
X118709428Y-99399524D02*
X118709428Y-98129524D01*
X119072285Y-98129524D01*
X119290000Y-98190000D01*
X119435142Y-98310952D01*
X119507714Y-98431905D01*
X119580285Y-98673810D01*
X119580285Y-98855238D01*
X119507714Y-99097143D01*
X119435142Y-99218095D01*
X119290000Y-99339048D01*
X119072285Y-99399524D01*
X118709428Y-99399524D01*
X119870571Y-99520476D02*
X121031714Y-99520476D01*
X121322000Y-99339048D02*
X121539714Y-99399524D01*
X121902571Y-99399524D01*
X122047714Y-99339048D01*
X122120285Y-99278571D01*
X122192857Y-99157619D01*
X122192857Y-99036667D01*
X122120285Y-98915714D01*
X122047714Y-98855238D01*
X121902571Y-98794762D01*
X121612285Y-98734286D01*
X121467143Y-98673810D01*
X121394571Y-98613333D01*
X121322000Y-98492381D01*
X121322000Y-98371429D01*
X121394571Y-98250476D01*
X121467143Y-98190000D01*
X121612285Y-98129524D01*
X121975143Y-98129524D01*
X122192857Y-98190000D01*
X123571714Y-99399524D02*
X122846000Y-99399524D01*
X122846000Y-98129524D01*
X124007143Y-99036667D02*
X124732857Y-99036667D01*
X123862000Y-99399524D02*
X124370000Y-98129524D01*
X124878000Y-99399524D01*
X125313429Y-99339048D02*
X125531143Y-99399524D01*
X125894000Y-99399524D01*
X126039143Y-99339048D01*
X126111714Y-99278571D01*
X126184286Y-99157619D01*
X126184286Y-99036667D01*
X126111714Y-98915714D01*
X126039143Y-98855238D01*
X125894000Y-98794762D01*
X125603714Y-98734286D01*
X125458572Y-98673810D01*
X125386000Y-98613333D01*
X125313429Y-98492381D01*
X125313429Y-98371429D01*
X125386000Y-98250476D01*
X125458572Y-98190000D01*
X125603714Y-98129524D01*
X125966572Y-98129524D01*
X126184286Y-98190000D01*
X126837429Y-99399524D02*
X126837429Y-98129524D01*
X126837429Y-98734286D02*
X127708286Y-98734286D01*
X127708286Y-99399524D02*
X127708286Y-98129524D01*
X129232286Y-99399524D02*
X128361429Y-99399524D01*
X128796857Y-99399524D02*
X128796857Y-98129524D01*
X128651714Y-98310952D01*
X128506572Y-98431905D01*
X128361429Y-98492381D01*
X27403714Y-80399524D02*
X27403714Y-79129524D01*
X28274571Y-80399524D02*
X27621428Y-79673810D01*
X28274571Y-79129524D02*
X27403714Y-79855238D01*
X28927714Y-79734286D02*
X29435714Y-79734286D01*
X29653428Y-80399524D02*
X28927714Y-80399524D01*
X28927714Y-79129524D01*
X29653428Y-79129524D01*
X30596857Y-79794762D02*
X30596857Y-80399524D01*
X30088857Y-79129524D02*
X30596857Y-79794762D01*
X31104857Y-79129524D01*
X31250000Y-80520476D02*
X32411143Y-80520476D01*
X32774000Y-80399524D02*
X32774000Y-79129524D01*
X32774000Y-79734286D02*
X33644857Y-79734286D01*
X33644857Y-80399524D02*
X33644857Y-79129524D01*
X35168857Y-80399524D02*
X34298000Y-80399524D01*
X34733428Y-80399524D02*
X34733428Y-79129524D01*
X34588285Y-79310952D01*
X34443143Y-79431905D01*
X34298000Y-79492381D01*
X61089143Y-61399524D02*
X61089143Y-60129524D01*
X61960000Y-61399524D02*
X61306857Y-60673810D01*
X61960000Y-60129524D02*
X61089143Y-60855238D01*
X62613143Y-60734286D02*
X63121143Y-60734286D01*
X63338857Y-61399524D02*
X62613143Y-61399524D01*
X62613143Y-60129524D01*
X63338857Y-60129524D01*
X64282286Y-60794762D02*
X64282286Y-61399524D01*
X63774286Y-60129524D02*
X64282286Y-60794762D01*
X64790286Y-60129524D01*
X64935429Y-61520476D02*
X66096572Y-61520476D01*
X66459429Y-61399524D02*
X66459429Y-60129524D01*
X67983429Y-61399524D02*
X67112572Y-61399524D01*
X67548000Y-61399524D02*
X67548000Y-60129524D01*
X67402857Y-60310952D01*
X67257715Y-60431905D01*
X67112572Y-60492381D01*
X46621428Y-80399524D02*
X46621428Y-79129524D01*
X47492285Y-80399524D02*
X46839142Y-79673810D01*
X47492285Y-79129524D02*
X46621428Y-79855238D01*
X48145428Y-79734286D02*
X48653428Y-79734286D01*
X48871142Y-80399524D02*
X48145428Y-80399524D01*
X48145428Y-79129524D01*
X48871142Y-79129524D01*
X49814571Y-79794762D02*
X49814571Y-80399524D01*
X49306571Y-79129524D02*
X49814571Y-79794762D01*
X50322571Y-79129524D01*
X50467714Y-80520476D02*
X51628857Y-80520476D01*
X52427143Y-79129524D02*
X52427143Y-80036667D01*
X52354571Y-80218095D01*
X52209428Y-80339048D01*
X51991714Y-80399524D01*
X51846571Y-80399524D01*
X53951143Y-80399524D02*
X53080286Y-80399524D01*
X53515714Y-80399524D02*
X53515714Y-79129524D01*
X53370571Y-79310952D01*
X53225429Y-79431905D01*
X53080286Y-79492381D01*
X65440000Y-80399524D02*
X65440000Y-79129524D01*
X66310857Y-80399524D02*
X65657714Y-79673810D01*
X66310857Y-79129524D02*
X65440000Y-79855238D01*
X66964000Y-79734286D02*
X67472000Y-79734286D01*
X67689714Y-80399524D02*
X66964000Y-80399524D01*
X66964000Y-79129524D01*
X67689714Y-79129524D01*
X68633143Y-79794762D02*
X68633143Y-80399524D01*
X68125143Y-79129524D02*
X68633143Y-79794762D01*
X69141143Y-79129524D01*
X69286286Y-80520476D02*
X70447429Y-80520476D01*
X70810286Y-80399524D02*
X70810286Y-79129524D01*
X71681143Y-80399524D02*
X71028000Y-79673810D01*
X71681143Y-79129524D02*
X70810286Y-79855238D01*
X73132572Y-80399524D02*
X72261715Y-80399524D01*
X72697143Y-80399524D02*
X72697143Y-79129524D01*
X72552000Y-79310952D01*
X72406858Y-79431905D01*
X72261715Y-79492381D01*
X84585143Y-80399524D02*
X84585143Y-79129524D01*
X85456000Y-80399524D02*
X84802857Y-79673810D01*
X85456000Y-79129524D02*
X84585143Y-79855238D01*
X86109143Y-79734286D02*
X86617143Y-79734286D01*
X86834857Y-80399524D02*
X86109143Y-80399524D01*
X86109143Y-79129524D01*
X86834857Y-79129524D01*
X87778286Y-79794762D02*
X87778286Y-80399524D01*
X87270286Y-79129524D02*
X87778286Y-79794762D01*
X88286286Y-79129524D01*
X88431429Y-80520476D02*
X89592572Y-80520476D01*
X90681143Y-80399524D02*
X89955429Y-80399524D01*
X89955429Y-79129524D01*
X91987429Y-80399524D02*
X91116572Y-80399524D01*
X91552000Y-80399524D02*
X91552000Y-79129524D01*
X91406857Y-79310952D01*
X91261715Y-79431905D01*
X91116572Y-79492381D01*
X111702857Y-61399524D02*
X111702857Y-60129524D01*
X112573714Y-61399524D02*
X111920571Y-60673810D01*
X112573714Y-60129524D02*
X111702857Y-60855238D01*
X113226857Y-60734286D02*
X113734857Y-60734286D01*
X113952571Y-61399524D02*
X113226857Y-61399524D01*
X113226857Y-60129524D01*
X113952571Y-60129524D01*
X114896000Y-60794762D02*
X114896000Y-61399524D01*
X114388000Y-60129524D02*
X114896000Y-60794762D01*
X115404000Y-60129524D01*
X115549143Y-61520476D02*
X116710286Y-61520476D01*
X117798857Y-61399524D02*
X117073143Y-61399524D01*
X117073143Y-60129524D01*
X118306857Y-60734286D02*
X118814857Y-60734286D01*
X119032571Y-61399524D02*
X118306857Y-61399524D01*
X118306857Y-60129524D01*
X119032571Y-60129524D01*
X120193714Y-60734286D02*
X119685714Y-60734286D01*
X119685714Y-61399524D02*
X119685714Y-60129524D01*
X120411428Y-60129524D01*
X120774286Y-60129524D02*
X121645143Y-60129524D01*
X121209714Y-61399524D02*
X121209714Y-60129524D01*
X121790286Y-61520476D02*
X122951429Y-61520476D01*
X123822286Y-60734286D02*
X124040000Y-60794762D01*
X124112572Y-60855238D01*
X124185143Y-60976190D01*
X124185143Y-61157619D01*
X124112572Y-61278571D01*
X124040000Y-61339048D01*
X123894858Y-61399524D01*
X123314286Y-61399524D01*
X123314286Y-60129524D01*
X123822286Y-60129524D01*
X123967429Y-60190000D01*
X124040000Y-60250476D01*
X124112572Y-60371429D01*
X124112572Y-60492381D01*
X124040000Y-60613333D01*
X123967429Y-60673810D01*
X123822286Y-60734286D01*
X123314286Y-60734286D01*
X125709143Y-61399524D02*
X125201143Y-60794762D01*
X124838286Y-61399524D02*
X124838286Y-60129524D01*
X125418858Y-60129524D01*
X125564000Y-60190000D01*
X125636572Y-60250476D01*
X125709143Y-60371429D01*
X125709143Y-60552857D01*
X125636572Y-60673810D01*
X125564000Y-60734286D01*
X125418858Y-60794762D01*
X124838286Y-60794762D01*
X126289715Y-61036667D02*
X127015429Y-61036667D01*
X126144572Y-61399524D02*
X126652572Y-60129524D01*
X127160572Y-61399524D01*
X128539429Y-61278571D02*
X128466858Y-61339048D01*
X128249144Y-61399524D01*
X128104001Y-61399524D01*
X127886286Y-61339048D01*
X127741144Y-61218095D01*
X127668572Y-61097143D01*
X127596001Y-60855238D01*
X127596001Y-60673810D01*
X127668572Y-60431905D01*
X127741144Y-60310952D01*
X127886286Y-60190000D01*
X128104001Y-60129524D01*
X128249144Y-60129524D01*
X128466858Y-60190000D01*
X128539429Y-60250476D01*
X129192572Y-60734286D02*
X129700572Y-60734286D01*
X129918286Y-61399524D02*
X129192572Y-61399524D01*
X129192572Y-60129524D01*
X129918286Y-60129524D01*
X131369715Y-61399524D02*
X130498858Y-61399524D01*
X130934286Y-61399524D02*
X130934286Y-60129524D01*
X130789143Y-60310952D01*
X130644001Y-60431905D01*
X130498858Y-60492381D01*
X55831143Y-99399524D02*
X55831143Y-98129524D01*
X56702000Y-99399524D02*
X56048857Y-98673810D01*
X56702000Y-98129524D02*
X55831143Y-98855238D01*
X57355143Y-98734286D02*
X57863143Y-98734286D01*
X58080857Y-99399524D02*
X57355143Y-99399524D01*
X57355143Y-98129524D01*
X58080857Y-98129524D01*
X59024286Y-98794762D02*
X59024286Y-99399524D01*
X58516286Y-98129524D02*
X59024286Y-98794762D01*
X59532286Y-98129524D01*
X59677429Y-99520476D02*
X60838572Y-99520476D01*
X61201429Y-99399524D02*
X61201429Y-98129524D01*
X61709429Y-99036667D01*
X62217429Y-98129524D01*
X62217429Y-99399524D01*
X63741429Y-99399524D02*
X62870572Y-99399524D01*
X63306000Y-99399524D02*
X63306000Y-98129524D01*
X63160857Y-98310952D01*
X63015715Y-98431905D01*
X62870572Y-98492381D01*
X105396000Y-42399524D02*
X105396000Y-41129524D01*
X106266857Y-42399524D02*
X105613714Y-41673810D01*
X106266857Y-41129524D02*
X105396000Y-41855238D01*
X106920000Y-41734286D02*
X107428000Y-41734286D01*
X107645714Y-42399524D02*
X106920000Y-42399524D01*
X106920000Y-41129524D01*
X107645714Y-41129524D01*
X108589143Y-41794762D02*
X108589143Y-42399524D01*
X108081143Y-41129524D02*
X108589143Y-41794762D01*
X109097143Y-41129524D01*
X109242286Y-42520476D02*
X110403429Y-42520476D01*
X110766286Y-42399524D02*
X110766286Y-41129524D01*
X111274286Y-42036667D01*
X111782286Y-41129524D01*
X111782286Y-42399524D01*
X112508000Y-42399524D02*
X112508000Y-41129524D01*
X113233714Y-42399524D02*
X113233714Y-41129524D01*
X114104571Y-42399524D01*
X114104571Y-41129524D01*
X114830285Y-41129524D02*
X114830285Y-42157619D01*
X114902857Y-42278571D01*
X114975428Y-42339048D01*
X115120571Y-42399524D01*
X115410857Y-42399524D01*
X115555999Y-42339048D01*
X115628571Y-42278571D01*
X115701142Y-42157619D01*
X115701142Y-41129524D01*
X116354285Y-42339048D02*
X116571999Y-42399524D01*
X116934856Y-42399524D01*
X117079999Y-42339048D01*
X117152570Y-42278571D01*
X117225142Y-42157619D01*
X117225142Y-42036667D01*
X117152570Y-41915714D01*
X117079999Y-41855238D01*
X116934856Y-41794762D01*
X116644570Y-41734286D01*
X116499428Y-41673810D01*
X116426856Y-41613333D01*
X116354285Y-41492381D01*
X116354285Y-41371429D01*
X116426856Y-41250476D01*
X116499428Y-41190000D01*
X116644570Y-41129524D01*
X117007428Y-41129524D01*
X117225142Y-41190000D01*
X118676571Y-42399524D02*
X117805714Y-42399524D01*
X118241142Y-42399524D02*
X118241142Y-41129524D01*
X118095999Y-41310952D01*
X117950857Y-41431905D01*
X117805714Y-41492381D01*
X36903714Y-99399524D02*
X36903714Y-98129524D01*
X37774571Y-99399524D02*
X37121428Y-98673810D01*
X37774571Y-98129524D02*
X36903714Y-98855238D01*
X38427714Y-98734286D02*
X38935714Y-98734286D01*
X39153428Y-99399524D02*
X38427714Y-99399524D01*
X38427714Y-98129524D01*
X39153428Y-98129524D01*
X40096857Y-98794762D02*
X40096857Y-99399524D01*
X39588857Y-98129524D02*
X40096857Y-98794762D01*
X40604857Y-98129524D01*
X40750000Y-99520476D02*
X41911143Y-99520476D01*
X42274000Y-99399524D02*
X42274000Y-98129524D01*
X43144857Y-99399524D01*
X43144857Y-98129524D01*
X44668857Y-99399524D02*
X43798000Y-99399524D01*
X44233428Y-99399524D02*
X44233428Y-98129524D01*
X44088285Y-98310952D01*
X43943143Y-98431905D01*
X43798000Y-98492381D01*
X79653714Y-61399524D02*
X79653714Y-60129524D01*
X80524571Y-61399524D02*
X79871428Y-60673810D01*
X80524571Y-60129524D02*
X79653714Y-60855238D01*
X81177714Y-60734286D02*
X81685714Y-60734286D01*
X81903428Y-61399524D02*
X81177714Y-61399524D01*
X81177714Y-60129524D01*
X81903428Y-60129524D01*
X82846857Y-60794762D02*
X82846857Y-61399524D01*
X82338857Y-60129524D02*
X82846857Y-60794762D01*
X83354857Y-60129524D01*
X83500000Y-61520476D02*
X84661143Y-61520476D01*
X85314286Y-60129524D02*
X85604572Y-60129524D01*
X85749714Y-60190000D01*
X85894857Y-60310952D01*
X85967429Y-60552857D01*
X85967429Y-60976190D01*
X85894857Y-61218095D01*
X85749714Y-61339048D01*
X85604572Y-61399524D01*
X85314286Y-61399524D01*
X85169143Y-61339048D01*
X85024000Y-61218095D01*
X84951429Y-60976190D01*
X84951429Y-60552857D01*
X85024000Y-60310952D01*
X85169143Y-60190000D01*
X85314286Y-60129524D01*
X87418857Y-61399524D02*
X86548000Y-61399524D01*
X86983428Y-61399524D02*
X86983428Y-60129524D01*
X86838285Y-60310952D01*
X86693143Y-60431905D01*
X86548000Y-60492381D01*
X98690000Y-61399524D02*
X98690000Y-60129524D01*
X99560857Y-61399524D02*
X98907714Y-60673810D01*
X99560857Y-60129524D02*
X98690000Y-60855238D01*
X100214000Y-60734286D02*
X100722000Y-60734286D01*
X100939714Y-61399524D02*
X100214000Y-61399524D01*
X100214000Y-60129524D01*
X100939714Y-60129524D01*
X101883143Y-60794762D02*
X101883143Y-61399524D01*
X101375143Y-60129524D02*
X101883143Y-60794762D01*
X102391143Y-60129524D01*
X102536286Y-61520476D02*
X103697429Y-61520476D01*
X104060286Y-61399524D02*
X104060286Y-60129524D01*
X104640858Y-60129524D01*
X104786000Y-60190000D01*
X104858572Y-60250476D01*
X104931143Y-60371429D01*
X104931143Y-60552857D01*
X104858572Y-60673810D01*
X104786000Y-60734286D01*
X104640858Y-60794762D01*
X104060286Y-60794762D01*
X106382572Y-61399524D02*
X105511715Y-61399524D01*
X105947143Y-61399524D02*
X105947143Y-60129524D01*
X105802000Y-60310952D01*
X105656858Y-60431905D01*
X105511715Y-60492381D01*
X90565429Y-99399524D02*
X90565429Y-98129524D01*
X91436286Y-99399524D02*
X90783143Y-98673810D01*
X91436286Y-98129524D02*
X90565429Y-98855238D01*
X92089429Y-98734286D02*
X92597429Y-98734286D01*
X92815143Y-99399524D02*
X92089429Y-99399524D01*
X92089429Y-98129524D01*
X92815143Y-98129524D01*
X93758572Y-98794762D02*
X93758572Y-99399524D01*
X93250572Y-98129524D02*
X93758572Y-98794762D01*
X94266572Y-98129524D01*
X94411715Y-99520476D02*
X95572858Y-99520476D01*
X95935715Y-99399524D02*
X95935715Y-98129524D01*
X96516287Y-98129524D01*
X96661429Y-98190000D01*
X96734001Y-98250476D01*
X96806572Y-98371429D01*
X96806572Y-98552857D01*
X96734001Y-98673810D01*
X96661429Y-98734286D01*
X96516287Y-98794762D01*
X95935715Y-98794762D01*
X97459715Y-98734286D02*
X97967715Y-98734286D01*
X98185429Y-99399524D02*
X97459715Y-99399524D01*
X97459715Y-98129524D01*
X98185429Y-98129524D01*
X99709429Y-99399524D02*
X99201429Y-98794762D01*
X98838572Y-99399524D02*
X98838572Y-98129524D01*
X99419144Y-98129524D01*
X99564286Y-98190000D01*
X99636858Y-98250476D01*
X99709429Y-98371429D01*
X99709429Y-98552857D01*
X99636858Y-98673810D01*
X99564286Y-98734286D01*
X99419144Y-98794762D01*
X98838572Y-98794762D01*
X100362572Y-99399524D02*
X100362572Y-98129524D01*
X101378572Y-98129524D02*
X101668858Y-98129524D01*
X101814000Y-98190000D01*
X101959143Y-98310952D01*
X102031715Y-98552857D01*
X102031715Y-98976190D01*
X101959143Y-99218095D01*
X101814000Y-99339048D01*
X101668858Y-99399524D01*
X101378572Y-99399524D01*
X101233429Y-99339048D01*
X101088286Y-99218095D01*
X101015715Y-98976190D01*
X101015715Y-98552857D01*
X101088286Y-98310952D01*
X101233429Y-98190000D01*
X101378572Y-98129524D01*
X102684857Y-99399524D02*
X102684857Y-98129524D01*
X103047714Y-98129524D01*
X103265429Y-98190000D01*
X103410571Y-98310952D01*
X103483143Y-98431905D01*
X103555714Y-98673810D01*
X103555714Y-98855238D01*
X103483143Y-99097143D01*
X103410571Y-99218095D01*
X103265429Y-99339048D01*
X103047714Y-99399524D01*
X102684857Y-99399524D01*
X105007143Y-99399524D02*
X104136286Y-99399524D01*
X104571714Y-99399524D02*
X104571714Y-98129524D01*
X104426571Y-98310952D01*
X104281429Y-98431905D01*
X104136286Y-98492381D01*
X119537143Y-80399524D02*
X119537143Y-79129524D01*
X120408000Y-80399524D02*
X119754857Y-79673810D01*
X120408000Y-79129524D02*
X119537143Y-79855238D01*
X121061143Y-79734286D02*
X121569143Y-79734286D01*
X121786857Y-80399524D02*
X121061143Y-80399524D01*
X121061143Y-79129524D01*
X121786857Y-79129524D01*
X122730286Y-79794762D02*
X122730286Y-80399524D01*
X122222286Y-79129524D02*
X122730286Y-79794762D01*
X123238286Y-79129524D01*
X123383429Y-80520476D02*
X124544572Y-80520476D01*
X125923429Y-80520476D02*
X125778286Y-80460000D01*
X125633143Y-80339048D01*
X125415429Y-80157619D01*
X125270286Y-80097143D01*
X125125143Y-80097143D01*
X125197715Y-80399524D02*
X125052572Y-80339048D01*
X124907429Y-80218095D01*
X124834858Y-79976190D01*
X124834858Y-79552857D01*
X124907429Y-79310952D01*
X125052572Y-79190000D01*
X125197715Y-79129524D01*
X125488001Y-79129524D01*
X125633143Y-79190000D01*
X125778286Y-79310952D01*
X125850858Y-79552857D01*
X125850858Y-79976190D01*
X125778286Y-80218095D01*
X125633143Y-80339048D01*
X125488001Y-80399524D01*
X125197715Y-80399524D01*
X126504000Y-79129524D02*
X126504000Y-80157619D01*
X126576572Y-80278571D01*
X126649143Y-80339048D01*
X126794286Y-80399524D01*
X127084572Y-80399524D01*
X127229714Y-80339048D01*
X127302286Y-80278571D01*
X127374857Y-80157619D01*
X127374857Y-79129524D01*
X128390857Y-79129524D02*
X128681143Y-79129524D01*
X128826285Y-79190000D01*
X128971428Y-79310952D01*
X129044000Y-79552857D01*
X129044000Y-79976190D01*
X128971428Y-80218095D01*
X128826285Y-80339048D01*
X128681143Y-80399524D01*
X128390857Y-80399524D01*
X128245714Y-80339048D01*
X128100571Y-80218095D01*
X128028000Y-79976190D01*
X128028000Y-79552857D01*
X128100571Y-79310952D01*
X128245714Y-79190000D01*
X128390857Y-79129524D01*
X129479428Y-79129524D02*
X130350285Y-79129524D01*
X129914856Y-80399524D02*
X129914856Y-79129524D01*
X130858285Y-79734286D02*
X131366285Y-79734286D01*
X131583999Y-80399524D02*
X130858285Y-80399524D01*
X130858285Y-79129524D01*
X131583999Y-79129524D01*
X133035428Y-80399524D02*
X132164571Y-80399524D01*
X132599999Y-80399524D02*
X132599999Y-79129524D01*
X132454856Y-79310952D01*
X132309714Y-79431905D01*
X132164571Y-79492381D01*
X129977143Y-61399524D02*
X129977143Y-60129524D01*
X130848000Y-61399524D02*
X130194857Y-60673810D01*
X130848000Y-60129524D02*
X129977143Y-60855238D01*
X131501143Y-60734286D02*
X132009143Y-60734286D01*
X132226857Y-61399524D02*
X131501143Y-61399524D01*
X131501143Y-60129524D01*
X132226857Y-60129524D01*
X133170286Y-60794762D02*
X133170286Y-61399524D01*
X132662286Y-60129524D02*
X133170286Y-60794762D01*
X133678286Y-60129524D01*
X133823429Y-61520476D02*
X134984572Y-61520476D01*
X136218286Y-61399524D02*
X135710286Y-60794762D01*
X135347429Y-61399524D02*
X135347429Y-60129524D01*
X135928001Y-60129524D01*
X136073143Y-60190000D01*
X136145715Y-60250476D01*
X136218286Y-60371429D01*
X136218286Y-60552857D01*
X136145715Y-60673810D01*
X136073143Y-60734286D01*
X135928001Y-60794762D01*
X135347429Y-60794762D01*
X136871429Y-61399524D02*
X136871429Y-60129524D01*
X138395429Y-60190000D02*
X138250286Y-60129524D01*
X138032572Y-60129524D01*
X137814857Y-60190000D01*
X137669715Y-60310952D01*
X137597143Y-60431905D01*
X137524572Y-60673810D01*
X137524572Y-60855238D01*
X137597143Y-61097143D01*
X137669715Y-61218095D01*
X137814857Y-61339048D01*
X138032572Y-61399524D01*
X138177715Y-61399524D01*
X138395429Y-61339048D01*
X138468000Y-61278571D01*
X138468000Y-60855238D01*
X138177715Y-60855238D01*
X139121143Y-61399524D02*
X139121143Y-60129524D01*
X139121143Y-60734286D02*
X139992000Y-60734286D01*
X139992000Y-61399524D02*
X139992000Y-60129524D01*
X140500000Y-60129524D02*
X141370857Y-60129524D01*
X140935428Y-61399524D02*
X140935428Y-60129524D01*
X141516000Y-61520476D02*
X142677143Y-61520476D01*
X143548000Y-60734286D02*
X143765714Y-60794762D01*
X143838286Y-60855238D01*
X143910857Y-60976190D01*
X143910857Y-61157619D01*
X143838286Y-61278571D01*
X143765714Y-61339048D01*
X143620572Y-61399524D01*
X143040000Y-61399524D01*
X143040000Y-60129524D01*
X143548000Y-60129524D01*
X143693143Y-60190000D01*
X143765714Y-60250476D01*
X143838286Y-60371429D01*
X143838286Y-60492381D01*
X143765714Y-60613333D01*
X143693143Y-60673810D01*
X143548000Y-60734286D01*
X143040000Y-60734286D01*
X145434857Y-61399524D02*
X144926857Y-60794762D01*
X144564000Y-61399524D02*
X144564000Y-60129524D01*
X145144572Y-60129524D01*
X145289714Y-60190000D01*
X145362286Y-60250476D01*
X145434857Y-60371429D01*
X145434857Y-60552857D01*
X145362286Y-60673810D01*
X145289714Y-60734286D01*
X145144572Y-60794762D01*
X144564000Y-60794762D01*
X146015429Y-61036667D02*
X146741143Y-61036667D01*
X145870286Y-61399524D02*
X146378286Y-60129524D01*
X146886286Y-61399524D01*
X148265143Y-61278571D02*
X148192572Y-61339048D01*
X147974858Y-61399524D01*
X147829715Y-61399524D01*
X147612000Y-61339048D01*
X147466858Y-61218095D01*
X147394286Y-61097143D01*
X147321715Y-60855238D01*
X147321715Y-60673810D01*
X147394286Y-60431905D01*
X147466858Y-60310952D01*
X147612000Y-60190000D01*
X147829715Y-60129524D01*
X147974858Y-60129524D01*
X148192572Y-60190000D01*
X148265143Y-60250476D01*
X148918286Y-60734286D02*
X149426286Y-60734286D01*
X149644000Y-61399524D02*
X148918286Y-61399524D01*
X148918286Y-60129524D01*
X149644000Y-60129524D01*
X151095429Y-61399524D02*
X150224572Y-61399524D01*
X150660000Y-61399524D02*
X150660000Y-60129524D01*
X150514857Y-60310952D01*
X150369715Y-60431905D01*
X150224572Y-60492381D01*
X97779429Y-80399524D02*
X97779429Y-79129524D01*
X98650286Y-80399524D02*
X97997143Y-79673810D01*
X98650286Y-79129524D02*
X97779429Y-79855238D01*
X99303429Y-79734286D02*
X99811429Y-79734286D01*
X100029143Y-80399524D02*
X99303429Y-80399524D01*
X99303429Y-79129524D01*
X100029143Y-79129524D01*
X100972572Y-79794762D02*
X100972572Y-80399524D01*
X100464572Y-79129524D02*
X100972572Y-79794762D01*
X101480572Y-79129524D01*
X101625715Y-80520476D02*
X102786858Y-80520476D01*
X103077144Y-80339048D02*
X103294858Y-80399524D01*
X103657715Y-80399524D01*
X103802858Y-80339048D01*
X103875429Y-80278571D01*
X103948001Y-80157619D01*
X103948001Y-80036667D01*
X103875429Y-79915714D01*
X103802858Y-79855238D01*
X103657715Y-79794762D01*
X103367429Y-79734286D01*
X103222287Y-79673810D01*
X103149715Y-79613333D01*
X103077144Y-79492381D01*
X103077144Y-79371429D01*
X103149715Y-79250476D01*
X103222287Y-79190000D01*
X103367429Y-79129524D01*
X103730287Y-79129524D01*
X103948001Y-79190000D01*
X104601144Y-79734286D02*
X105109144Y-79734286D01*
X105326858Y-80399524D02*
X104601144Y-80399524D01*
X104601144Y-79129524D01*
X105326858Y-79129524D01*
X105980001Y-80399524D02*
X105980001Y-79129524D01*
X106488001Y-80036667D01*
X106996001Y-79129524D01*
X106996001Y-80399524D01*
X107721715Y-80399524D02*
X107721715Y-79129524D01*
X109318286Y-80278571D02*
X109245715Y-80339048D01*
X109028001Y-80399524D01*
X108882858Y-80399524D01*
X108665143Y-80339048D01*
X108520001Y-80218095D01*
X108447429Y-80097143D01*
X108374858Y-79855238D01*
X108374858Y-79673810D01*
X108447429Y-79431905D01*
X108520001Y-79310952D01*
X108665143Y-79190000D01*
X108882858Y-79129524D01*
X109028001Y-79129524D01*
X109245715Y-79190000D01*
X109318286Y-79250476D01*
X110261715Y-79129524D02*
X110552001Y-79129524D01*
X110697143Y-79190000D01*
X110842286Y-79310952D01*
X110914858Y-79552857D01*
X110914858Y-79976190D01*
X110842286Y-80218095D01*
X110697143Y-80339048D01*
X110552001Y-80399524D01*
X110261715Y-80399524D01*
X110116572Y-80339048D01*
X109971429Y-80218095D01*
X109898858Y-79976190D01*
X109898858Y-79552857D01*
X109971429Y-79310952D01*
X110116572Y-79190000D01*
X110261715Y-79129524D01*
X112293714Y-80399524D02*
X111568000Y-80399524D01*
X111568000Y-79129524D01*
X113092000Y-79129524D02*
X113382286Y-79129524D01*
X113527428Y-79190000D01*
X113672571Y-79310952D01*
X113745143Y-79552857D01*
X113745143Y-79976190D01*
X113672571Y-80218095D01*
X113527428Y-80339048D01*
X113382286Y-80399524D01*
X113092000Y-80399524D01*
X112946857Y-80339048D01*
X112801714Y-80218095D01*
X112729143Y-79976190D01*
X112729143Y-79552857D01*
X112801714Y-79310952D01*
X112946857Y-79190000D01*
X113092000Y-79129524D01*
X114398285Y-80399524D02*
X114398285Y-79129524D01*
X115269142Y-80399524D01*
X115269142Y-79129524D01*
X116793142Y-80399524D02*
X115922285Y-80399524D01*
X116357713Y-80399524D02*
X116357713Y-79129524D01*
X116212570Y-79310952D01*
X116067428Y-79431905D01*
X115922285Y-79492381D01*
X41653714Y-61399524D02*
X41653714Y-60129524D01*
X42524571Y-61399524D02*
X41871428Y-60673810D01*
X42524571Y-60129524D02*
X41653714Y-60855238D01*
X43177714Y-60734286D02*
X43685714Y-60734286D01*
X43903428Y-61399524D02*
X43177714Y-61399524D01*
X43177714Y-60129524D01*
X43903428Y-60129524D01*
X44846857Y-60794762D02*
X44846857Y-61399524D01*
X44338857Y-60129524D02*
X44846857Y-60794762D01*
X45354857Y-60129524D01*
X45500000Y-61520476D02*
X46661143Y-61520476D01*
X47024000Y-60129524D02*
X47024000Y-61157619D01*
X47096572Y-61278571D01*
X47169143Y-61339048D01*
X47314286Y-61399524D01*
X47604572Y-61399524D01*
X47749714Y-61339048D01*
X47822286Y-61278571D01*
X47894857Y-61157619D01*
X47894857Y-60129524D01*
X49418857Y-61399524D02*
X48548000Y-61399524D01*
X48983428Y-61399524D02*
X48983428Y-60129524D01*
X48838285Y-60310952D01*
X48693143Y-60431905D01*
X48548000Y-60492381D01*
X22798857Y-61399524D02*
X22798857Y-60129524D01*
X23669714Y-61399524D02*
X23016571Y-60673810D01*
X23669714Y-60129524D02*
X22798857Y-60855238D01*
X24322857Y-60734286D02*
X24830857Y-60734286D01*
X25048571Y-61399524D02*
X24322857Y-61399524D01*
X24322857Y-60129524D01*
X25048571Y-60129524D01*
X25992000Y-60794762D02*
X25992000Y-61399524D01*
X25484000Y-60129524D02*
X25992000Y-60794762D01*
X26500000Y-60129524D01*
X26645143Y-61520476D02*
X27806286Y-61520476D01*
X28459429Y-60794762D02*
X28459429Y-61399524D01*
X27951429Y-60129524D02*
X28459429Y-60794762D01*
X28967429Y-60129524D01*
X30273715Y-61399524D02*
X29402858Y-61399524D01*
X29838286Y-61399524D02*
X29838286Y-60129524D01*
X29693143Y-60310952D01*
X29548001Y-60431905D01*
X29402858Y-60492381D01*
X190822857Y-118399524D02*
X190097143Y-118399524D01*
X190097143Y-117129524D01*
X191330857Y-117734286D02*
X191838857Y-117734286D01*
X192056571Y-118399524D02*
X191330857Y-118399524D01*
X191330857Y-117129524D01*
X192056571Y-117129524D01*
X193217714Y-117734286D02*
X192709714Y-117734286D01*
X192709714Y-118399524D02*
X192709714Y-117129524D01*
X193435428Y-117129524D01*
X193798286Y-117129524D02*
X194669143Y-117129524D01*
X194233714Y-118399524D02*
X194233714Y-117129524D01*
X195975429Y-118399524D02*
X195104572Y-118399524D01*
X195540000Y-118399524D02*
X195540000Y-117129524D01*
X195394857Y-117310952D01*
X195249715Y-117431905D01*
X195104572Y-117492381D01*
X253838857Y-14399524D02*
X253838857Y-13129524D01*
X254709714Y-14399524D01*
X254709714Y-13129524D01*
X256233714Y-14399524D02*
X255362857Y-14399524D01*
X255798285Y-14399524D02*
X255798285Y-13129524D01*
X255653142Y-13310952D01*
X255508000Y-13431905D01*
X255362857Y-13492381D01*
X272838857Y-14399524D02*
X272838857Y-13129524D01*
X273709714Y-14399524D01*
X273709714Y-13129524D01*
X274362857Y-13250476D02*
X274435428Y-13190000D01*
X274580571Y-13129524D01*
X274943428Y-13129524D01*
X275088571Y-13190000D01*
X275161142Y-13250476D01*
X275233714Y-13371429D01*
X275233714Y-13492381D01*
X275161142Y-13673810D01*
X274290285Y-14399524D01*
X275233714Y-14399524D01*
X291838857Y-14399524D02*
X291838857Y-13129524D01*
X292709714Y-14399524D01*
X292709714Y-13129524D01*
X293290285Y-13129524D02*
X294233714Y-13129524D01*
X293725714Y-13613333D01*
X293943428Y-13613333D01*
X294088571Y-13673810D01*
X294161142Y-13734286D01*
X294233714Y-13855238D01*
X294233714Y-14157619D01*
X294161142Y-14278571D01*
X294088571Y-14339048D01*
X293943428Y-14399524D01*
X293508000Y-14399524D01*
X293362857Y-14339048D01*
X293290285Y-14278571D01*
X310838857Y-14399524D02*
X310838857Y-13129524D01*
X311709714Y-14399524D01*
X311709714Y-13129524D01*
X313088571Y-13552857D02*
X313088571Y-14399524D01*
X312725714Y-13069048D02*
X312362857Y-13976190D01*
X313306285Y-13976190D01*
X261089143Y-118399524D02*
X261089143Y-117129524D01*
X261960000Y-118399524D01*
X261960000Y-117129524D01*
X262685714Y-117129524D02*
X262685714Y-118157619D01*
X262758286Y-118278571D01*
X262830857Y-118339048D01*
X262976000Y-118399524D01*
X263266286Y-118399524D01*
X263411428Y-118339048D01*
X263484000Y-118278571D01*
X263556571Y-118157619D01*
X263556571Y-117129524D01*
X264282285Y-118399524D02*
X264282285Y-117129524D01*
X264790285Y-118036667D01*
X265298285Y-117129524D01*
X265298285Y-118399524D01*
X265661142Y-118520476D02*
X266822285Y-118520476D01*
X267475428Y-117129524D02*
X267620571Y-117129524D01*
X267765714Y-117190000D01*
X267838285Y-117250476D01*
X267910856Y-117371429D01*
X267983428Y-117613333D01*
X267983428Y-117915714D01*
X267910856Y-118157619D01*
X267838285Y-118278571D01*
X267765714Y-118339048D01*
X267620571Y-118399524D01*
X267475428Y-118399524D01*
X267330285Y-118339048D01*
X267257714Y-118278571D01*
X267185142Y-118157619D01*
X267112571Y-117915714D01*
X267112571Y-117613333D01*
X267185142Y-117371429D01*
X267257714Y-117250476D01*
X267330285Y-117190000D01*
X267475428Y-117129524D01*
X251589143Y-99399524D02*
X251589143Y-98129524D01*
X252460000Y-99399524D01*
X252460000Y-98129524D01*
X253185714Y-98129524D02*
X253185714Y-99157619D01*
X253258286Y-99278571D01*
X253330857Y-99339048D01*
X253476000Y-99399524D01*
X253766286Y-99399524D01*
X253911428Y-99339048D01*
X253984000Y-99278571D01*
X254056571Y-99157619D01*
X254056571Y-98129524D01*
X254782285Y-99399524D02*
X254782285Y-98129524D01*
X255290285Y-99036667D01*
X255798285Y-98129524D01*
X255798285Y-99399524D01*
X256161142Y-99520476D02*
X257322285Y-99520476D01*
X258483428Y-99399524D02*
X257612571Y-99399524D01*
X258047999Y-99399524D02*
X258047999Y-98129524D01*
X257902856Y-98310952D01*
X257757714Y-98431905D01*
X257612571Y-98492381D01*
X270589143Y-99399524D02*
X270589143Y-98129524D01*
X271460000Y-99399524D01*
X271460000Y-98129524D01*
X272185714Y-98129524D02*
X272185714Y-99157619D01*
X272258286Y-99278571D01*
X272330857Y-99339048D01*
X272476000Y-99399524D01*
X272766286Y-99399524D01*
X272911428Y-99339048D01*
X272984000Y-99278571D01*
X273056571Y-99157619D01*
X273056571Y-98129524D01*
X273782285Y-99399524D02*
X273782285Y-98129524D01*
X274290285Y-99036667D01*
X274798285Y-98129524D01*
X274798285Y-99399524D01*
X275161142Y-99520476D02*
X276322285Y-99520476D01*
X276612571Y-98250476D02*
X276685142Y-98190000D01*
X276830285Y-98129524D01*
X277193142Y-98129524D01*
X277338285Y-98190000D01*
X277410856Y-98250476D01*
X277483428Y-98371429D01*
X277483428Y-98492381D01*
X277410856Y-98673810D01*
X276539999Y-99399524D01*
X277483428Y-99399524D01*
X289589143Y-99399524D02*
X289589143Y-98129524D01*
X290460000Y-99399524D01*
X290460000Y-98129524D01*
X291185714Y-98129524D02*
X291185714Y-99157619D01*
X291258286Y-99278571D01*
X291330857Y-99339048D01*
X291476000Y-99399524D01*
X291766286Y-99399524D01*
X291911428Y-99339048D01*
X291984000Y-99278571D01*
X292056571Y-99157619D01*
X292056571Y-98129524D01*
X292782285Y-99399524D02*
X292782285Y-98129524D01*
X293290285Y-99036667D01*
X293798285Y-98129524D01*
X293798285Y-99399524D01*
X294161142Y-99520476D02*
X295322285Y-99520476D01*
X295539999Y-98129524D02*
X296483428Y-98129524D01*
X295975428Y-98613333D01*
X296193142Y-98613333D01*
X296338285Y-98673810D01*
X296410856Y-98734286D01*
X296483428Y-98855238D01*
X296483428Y-99157619D01*
X296410856Y-99278571D01*
X296338285Y-99339048D01*
X296193142Y-99399524D01*
X295757714Y-99399524D01*
X295612571Y-99339048D01*
X295539999Y-99278571D01*
X251589143Y-80399524D02*
X251589143Y-79129524D01*
X252460000Y-80399524D01*
X252460000Y-79129524D01*
X253185714Y-79129524D02*
X253185714Y-80157619D01*
X253258286Y-80278571D01*
X253330857Y-80339048D01*
X253476000Y-80399524D01*
X253766286Y-80399524D01*
X253911428Y-80339048D01*
X253984000Y-80278571D01*
X254056571Y-80157619D01*
X254056571Y-79129524D01*
X254782285Y-80399524D02*
X254782285Y-79129524D01*
X255290285Y-80036667D01*
X255798285Y-79129524D01*
X255798285Y-80399524D01*
X256161142Y-80520476D02*
X257322285Y-80520476D01*
X258338285Y-79552857D02*
X258338285Y-80399524D01*
X257975428Y-79069048D02*
X257612571Y-79976190D01*
X258555999Y-79976190D01*
X270589143Y-80399524D02*
X270589143Y-79129524D01*
X271460000Y-80399524D01*
X271460000Y-79129524D01*
X272185714Y-79129524D02*
X272185714Y-80157619D01*
X272258286Y-80278571D01*
X272330857Y-80339048D01*
X272476000Y-80399524D01*
X272766286Y-80399524D01*
X272911428Y-80339048D01*
X272984000Y-80278571D01*
X273056571Y-80157619D01*
X273056571Y-79129524D01*
X273782285Y-80399524D02*
X273782285Y-79129524D01*
X274290285Y-80036667D01*
X274798285Y-79129524D01*
X274798285Y-80399524D01*
X275161142Y-80520476D02*
X276322285Y-80520476D01*
X277410856Y-79129524D02*
X276685142Y-79129524D01*
X276612571Y-79734286D01*
X276685142Y-79673810D01*
X276830285Y-79613333D01*
X277193142Y-79613333D01*
X277338285Y-79673810D01*
X277410856Y-79734286D01*
X277483428Y-79855238D01*
X277483428Y-80157619D01*
X277410856Y-80278571D01*
X277338285Y-80339048D01*
X277193142Y-80399524D01*
X276830285Y-80399524D01*
X276685142Y-80339048D01*
X276612571Y-80278571D01*
X289589143Y-80399524D02*
X289589143Y-79129524D01*
X290460000Y-80399524D01*
X290460000Y-79129524D01*
X291185714Y-79129524D02*
X291185714Y-80157619D01*
X291258286Y-80278571D01*
X291330857Y-80339048D01*
X291476000Y-80399524D01*
X291766286Y-80399524D01*
X291911428Y-80339048D01*
X291984000Y-80278571D01*
X292056571Y-80157619D01*
X292056571Y-79129524D01*
X292782285Y-80399524D02*
X292782285Y-79129524D01*
X293290285Y-80036667D01*
X293798285Y-79129524D01*
X293798285Y-80399524D01*
X294161142Y-80520476D02*
X295322285Y-80520476D01*
X296338285Y-79129524D02*
X296047999Y-79129524D01*
X295902856Y-79190000D01*
X295830285Y-79250476D01*
X295685142Y-79431905D01*
X295612571Y-79673810D01*
X295612571Y-80157619D01*
X295685142Y-80278571D01*
X295757714Y-80339048D01*
X295902856Y-80399524D01*
X296193142Y-80399524D01*
X296338285Y-80339048D01*
X296410856Y-80278571D01*
X296483428Y-80157619D01*
X296483428Y-79855238D01*
X296410856Y-79734286D01*
X296338285Y-79673810D01*
X296193142Y-79613333D01*
X295902856Y-79613333D01*
X295757714Y-79673810D01*
X295685142Y-79734286D01*
X295612571Y-79855238D01*
X251589143Y-61399524D02*
X251589143Y-60129524D01*
X252460000Y-61399524D01*
X252460000Y-60129524D01*
X253185714Y-60129524D02*
X253185714Y-61157619D01*
X253258286Y-61278571D01*
X253330857Y-61339048D01*
X253476000Y-61399524D01*
X253766286Y-61399524D01*
X253911428Y-61339048D01*
X253984000Y-61278571D01*
X254056571Y-61157619D01*
X254056571Y-60129524D01*
X254782285Y-61399524D02*
X254782285Y-60129524D01*
X255290285Y-61036667D01*
X255798285Y-60129524D01*
X255798285Y-61399524D01*
X256161142Y-61520476D02*
X257322285Y-61520476D01*
X257539999Y-60129524D02*
X258555999Y-60129524D01*
X257902856Y-61399524D01*
X270589143Y-61399524D02*
X270589143Y-60129524D01*
X271460000Y-61399524D01*
X271460000Y-60129524D01*
X272185714Y-60129524D02*
X272185714Y-61157619D01*
X272258286Y-61278571D01*
X272330857Y-61339048D01*
X272476000Y-61399524D01*
X272766286Y-61399524D01*
X272911428Y-61339048D01*
X272984000Y-61278571D01*
X273056571Y-61157619D01*
X273056571Y-60129524D01*
X273782285Y-61399524D02*
X273782285Y-60129524D01*
X274290285Y-61036667D01*
X274798285Y-60129524D01*
X274798285Y-61399524D01*
X275161142Y-61520476D02*
X276322285Y-61520476D01*
X276902856Y-60673810D02*
X276757714Y-60613333D01*
X276685142Y-60552857D01*
X276612571Y-60431905D01*
X276612571Y-60371429D01*
X276685142Y-60250476D01*
X276757714Y-60190000D01*
X276902856Y-60129524D01*
X277193142Y-60129524D01*
X277338285Y-60190000D01*
X277410856Y-60250476D01*
X277483428Y-60371429D01*
X277483428Y-60431905D01*
X277410856Y-60552857D01*
X277338285Y-60613333D01*
X277193142Y-60673810D01*
X276902856Y-60673810D01*
X276757714Y-60734286D01*
X276685142Y-60794762D01*
X276612571Y-60915714D01*
X276612571Y-61157619D01*
X276685142Y-61278571D01*
X276757714Y-61339048D01*
X276902856Y-61399524D01*
X277193142Y-61399524D01*
X277338285Y-61339048D01*
X277410856Y-61278571D01*
X277483428Y-61157619D01*
X277483428Y-60915714D01*
X277410856Y-60794762D01*
X277338285Y-60734286D01*
X277193142Y-60673810D01*
X289589143Y-61399524D02*
X289589143Y-60129524D01*
X290460000Y-61399524D01*
X290460000Y-60129524D01*
X291185714Y-60129524D02*
X291185714Y-61157619D01*
X291258286Y-61278571D01*
X291330857Y-61339048D01*
X291476000Y-61399524D01*
X291766286Y-61399524D01*
X291911428Y-61339048D01*
X291984000Y-61278571D01*
X292056571Y-61157619D01*
X292056571Y-60129524D01*
X292782285Y-61399524D02*
X292782285Y-60129524D01*
X293290285Y-61036667D01*
X293798285Y-60129524D01*
X293798285Y-61399524D01*
X294161142Y-61520476D02*
X295322285Y-61520476D01*
X295757714Y-61399524D02*
X296047999Y-61399524D01*
X296193142Y-61339048D01*
X296265714Y-61278571D01*
X296410856Y-61097143D01*
X296483428Y-60855238D01*
X296483428Y-60371429D01*
X296410856Y-60250476D01*
X296338285Y-60190000D01*
X296193142Y-60129524D01*
X295902856Y-60129524D01*
X295757714Y-60190000D01*
X295685142Y-60250476D01*
X295612571Y-60371429D01*
X295612571Y-60673810D01*
X295685142Y-60794762D01*
X295757714Y-60855238D01*
X295902856Y-60915714D01*
X296193142Y-60915714D01*
X296338285Y-60855238D01*
X296410856Y-60794762D01*
X296483428Y-60673810D01*
X285053429Y-42399524D02*
X285053429Y-41129524D01*
X285924286Y-42399524D01*
X285924286Y-41129524D01*
X286650000Y-41129524D02*
X286650000Y-42157619D01*
X286722572Y-42278571D01*
X286795143Y-42339048D01*
X286940286Y-42399524D01*
X287230572Y-42399524D01*
X287375714Y-42339048D01*
X287448286Y-42278571D01*
X287520857Y-42157619D01*
X287520857Y-41129524D01*
X288246571Y-42399524D02*
X288246571Y-41129524D01*
X288754571Y-42036667D01*
X289262571Y-41129524D01*
X289262571Y-42399524D01*
X289625428Y-42520476D02*
X290786571Y-42520476D01*
X291076857Y-42036667D02*
X291802571Y-42036667D01*
X290931714Y-42399524D02*
X291439714Y-41129524D01*
X291947714Y-42399524D01*
X292383143Y-42339048D02*
X292600857Y-42399524D01*
X292963714Y-42399524D01*
X293108857Y-42339048D01*
X293181428Y-42278571D01*
X293254000Y-42157619D01*
X293254000Y-42036667D01*
X293181428Y-41915714D01*
X293108857Y-41855238D01*
X292963714Y-41794762D01*
X292673428Y-41734286D01*
X292528286Y-41673810D01*
X292455714Y-41613333D01*
X292383143Y-41492381D01*
X292383143Y-41371429D01*
X292455714Y-41250476D01*
X292528286Y-41190000D01*
X292673428Y-41129524D01*
X293036286Y-41129524D01*
X293254000Y-41190000D01*
X293689429Y-41129524D02*
X294560286Y-41129524D01*
X294124857Y-42399524D02*
X294124857Y-41129524D01*
X295068286Y-41734286D02*
X295576286Y-41734286D01*
X295794000Y-42399524D02*
X295068286Y-42399524D01*
X295068286Y-41129524D01*
X295794000Y-41129524D01*
X297318000Y-42399524D02*
X296810000Y-41794762D01*
X296447143Y-42399524D02*
X296447143Y-41129524D01*
X297027715Y-41129524D01*
X297172857Y-41190000D01*
X297245429Y-41250476D01*
X297318000Y-41371429D01*
X297318000Y-41552857D01*
X297245429Y-41673810D01*
X297172857Y-41734286D01*
X297027715Y-41794762D01*
X296447143Y-41794762D01*
X297971143Y-42399524D02*
X297971143Y-41129524D01*
X298696857Y-42399524D02*
X298696857Y-41129524D01*
X299567714Y-42399524D02*
X298914571Y-41673810D01*
X299567714Y-41129524D02*
X298696857Y-41855238D01*
X301019143Y-42399524D02*
X300148286Y-42399524D01*
X300583714Y-42399524D02*
X300583714Y-41129524D01*
X300438571Y-41310952D01*
X300293429Y-41431905D01*
X300148286Y-41492381D01*
X309399524Y-118430571D02*
X308129524Y-118430571D01*
X309399524Y-117559714D01*
X308129524Y-117559714D01*
X308129524Y-116834000D02*
X309157619Y-116834000D01*
X309278571Y-116761428D01*
X309339048Y-116688857D01*
X309399524Y-116543714D01*
X309399524Y-116253428D01*
X309339048Y-116108286D01*
X309278571Y-116035714D01*
X309157619Y-115963143D01*
X308129524Y-115963143D01*
X309399524Y-115237429D02*
X308129524Y-115237429D01*
X309036667Y-114729429D01*
X308129524Y-114221429D01*
X309399524Y-114221429D01*
X309520476Y-113858572D02*
X309520476Y-112697429D01*
X308734286Y-112334572D02*
X308734286Y-111826572D01*
X309399524Y-111608858D02*
X309399524Y-112334572D01*
X308129524Y-112334572D01*
X308129524Y-111608858D01*
X309399524Y-110955715D02*
X308129524Y-110955715D01*
X309399524Y-110084858D01*
X308129524Y-110084858D01*
X308129524Y-109576858D02*
X308129524Y-108706001D01*
X309399524Y-109141430D02*
X308129524Y-109141430D01*
X308734286Y-108198001D02*
X308734286Y-107690001D01*
X309399524Y-107472287D02*
X309399524Y-108198001D01*
X308129524Y-108198001D01*
X308129524Y-107472287D01*
X309399524Y-105948287D02*
X308794762Y-106456287D01*
X309399524Y-106819144D02*
X308129524Y-106819144D01*
X308129524Y-106238572D01*
X308190000Y-106093430D01*
X308250476Y-106020858D01*
X308371429Y-105948287D01*
X308552857Y-105948287D01*
X308673810Y-106020858D01*
X308734286Y-106093430D01*
X308794762Y-106238572D01*
X308794762Y-106819144D01*
X309399524Y-104496858D02*
X309399524Y-105367715D01*
X309399524Y-104932287D02*
X308129524Y-104932287D01*
X308310952Y-105077430D01*
X308431905Y-105222572D01*
X308492381Y-105367715D01*
X248650001Y-42399524D02*
X248650001Y-41129524D01*
X249520858Y-42399524D01*
X249520858Y-41129524D01*
X250246572Y-41129524D02*
X250246572Y-42157619D01*
X250319144Y-42278571D01*
X250391715Y-42339048D01*
X250536858Y-42399524D01*
X250827144Y-42399524D01*
X250972286Y-42339048D01*
X251044858Y-42278571D01*
X251117429Y-42157619D01*
X251117429Y-41129524D01*
X251843143Y-42399524D02*
X251843143Y-41129524D01*
X252351143Y-42036667D01*
X252859143Y-41129524D01*
X252859143Y-42399524D01*
X253222000Y-42520476D02*
X254383143Y-42520476D01*
X255471714Y-42399524D02*
X254746000Y-42399524D01*
X254746000Y-41129524D01*
X256270000Y-41129524D02*
X256560286Y-41129524D01*
X256705428Y-41190000D01*
X256850571Y-41310952D01*
X256923143Y-41552857D01*
X256923143Y-41976190D01*
X256850571Y-42218095D01*
X256705428Y-42339048D01*
X256560286Y-42399524D01*
X256270000Y-42399524D01*
X256124857Y-42339048D01*
X255979714Y-42218095D01*
X255907143Y-41976190D01*
X255907143Y-41552857D01*
X255979714Y-41310952D01*
X256124857Y-41190000D01*
X256270000Y-41129524D01*
X258447142Y-42278571D02*
X258374571Y-42339048D01*
X258156857Y-42399524D01*
X258011714Y-42399524D01*
X257793999Y-42339048D01*
X257648857Y-42218095D01*
X257576285Y-42097143D01*
X257503714Y-41855238D01*
X257503714Y-41673810D01*
X257576285Y-41431905D01*
X257648857Y-41310952D01*
X257793999Y-41190000D01*
X258011714Y-41129524D01*
X258156857Y-41129524D01*
X258374571Y-41190000D01*
X258447142Y-41250476D01*
X259100285Y-42399524D02*
X259100285Y-41129524D01*
X259971142Y-42399524D02*
X259317999Y-41673810D01*
X259971142Y-41129524D02*
X259100285Y-41855238D01*
X261422571Y-42399524D02*
X260551714Y-42399524D01*
X260987142Y-42399524D02*
X260987142Y-41129524D01*
X260841999Y-41310952D01*
X260696857Y-41431905D01*
X260551714Y-41492381D01*
X305033144Y-42399524D02*
X305033144Y-41129524D01*
X305904001Y-42399524D01*
X305904001Y-41129524D01*
X306629715Y-41129524D02*
X306629715Y-42157619D01*
X306702287Y-42278571D01*
X306774858Y-42339048D01*
X306920001Y-42399524D01*
X307210287Y-42399524D01*
X307355429Y-42339048D01*
X307428001Y-42278571D01*
X307500572Y-42157619D01*
X307500572Y-41129524D01*
X308226286Y-42399524D02*
X308226286Y-41129524D01*
X308734286Y-42036667D01*
X309242286Y-41129524D01*
X309242286Y-42399524D01*
X309605143Y-42520476D02*
X310766286Y-42520476D01*
X311129143Y-42399524D02*
X311129143Y-41129524D01*
X311637143Y-42036667D01*
X312145143Y-41129524D01*
X312145143Y-42399524D01*
X312870857Y-42399524D02*
X312870857Y-41129524D01*
X313596571Y-42399524D02*
X313596571Y-41129524D01*
X314467428Y-42399524D01*
X314467428Y-41129524D01*
X315193142Y-41129524D02*
X315193142Y-42157619D01*
X315265714Y-42278571D01*
X315338285Y-42339048D01*
X315483428Y-42399524D01*
X315773714Y-42399524D01*
X315918856Y-42339048D01*
X315991428Y-42278571D01*
X316063999Y-42157619D01*
X316063999Y-41129524D01*
X316717142Y-42339048D02*
X316934856Y-42399524D01*
X317297713Y-42399524D01*
X317442856Y-42339048D01*
X317515427Y-42278571D01*
X317587999Y-42157619D01*
X317587999Y-42036667D01*
X317515427Y-41915714D01*
X317442856Y-41855238D01*
X317297713Y-41794762D01*
X317007427Y-41734286D01*
X316862285Y-41673810D01*
X316789713Y-41613333D01*
X316717142Y-41492381D01*
X316717142Y-41371429D01*
X316789713Y-41250476D01*
X316862285Y-41190000D01*
X317007427Y-41129524D01*
X317370285Y-41129524D01*
X317587999Y-41190000D01*
X319039428Y-42399524D02*
X318168571Y-42399524D01*
X318603999Y-42399524D02*
X318603999Y-41129524D01*
X318458856Y-41310952D01*
X318313714Y-41431905D01*
X318168571Y-41492381D01*
X285452572Y-118399524D02*
X285452572Y-117129524D01*
X286323429Y-118399524D01*
X286323429Y-117129524D01*
X287049143Y-117129524D02*
X287049143Y-118157619D01*
X287121715Y-118278571D01*
X287194286Y-118339048D01*
X287339429Y-118399524D01*
X287629715Y-118399524D01*
X287774857Y-118339048D01*
X287847429Y-118278571D01*
X287920000Y-118157619D01*
X287920000Y-117129524D01*
X288645714Y-118399524D02*
X288645714Y-117129524D01*
X289153714Y-118036667D01*
X289661714Y-117129524D01*
X289661714Y-118399524D01*
X290024571Y-118520476D02*
X291185714Y-118520476D01*
X291548571Y-118399524D02*
X291548571Y-117129524D01*
X292129143Y-117129524D01*
X292274285Y-117190000D01*
X292346857Y-117250476D01*
X292419428Y-117371429D01*
X292419428Y-117552857D01*
X292346857Y-117673810D01*
X292274285Y-117734286D01*
X292129143Y-117794762D01*
X291548571Y-117794762D01*
X293072571Y-117734286D02*
X293580571Y-117734286D01*
X293798285Y-118399524D02*
X293072571Y-118399524D01*
X293072571Y-117129524D01*
X293798285Y-117129524D01*
X295322285Y-118399524D02*
X294814285Y-117794762D01*
X294451428Y-118399524D02*
X294451428Y-117129524D01*
X295032000Y-117129524D01*
X295177142Y-117190000D01*
X295249714Y-117250476D01*
X295322285Y-117371429D01*
X295322285Y-117552857D01*
X295249714Y-117673810D01*
X295177142Y-117734286D01*
X295032000Y-117794762D01*
X294451428Y-117794762D01*
X295975428Y-118399524D02*
X295975428Y-117129524D01*
X296991428Y-117129524D02*
X297281714Y-117129524D01*
X297426856Y-117190000D01*
X297571999Y-117310952D01*
X297644571Y-117552857D01*
X297644571Y-117976190D01*
X297571999Y-118218095D01*
X297426856Y-118339048D01*
X297281714Y-118399524D01*
X296991428Y-118399524D01*
X296846285Y-118339048D01*
X296701142Y-118218095D01*
X296628571Y-117976190D01*
X296628571Y-117552857D01*
X296701142Y-117310952D01*
X296846285Y-117190000D01*
X296991428Y-117129524D01*
X298297713Y-118399524D02*
X298297713Y-117129524D01*
X298660570Y-117129524D01*
X298878285Y-117190000D01*
X299023427Y-117310952D01*
X299095999Y-117431905D01*
X299168570Y-117673810D01*
X299168570Y-117855238D01*
X299095999Y-118097143D01*
X299023427Y-118218095D01*
X298878285Y-118339048D01*
X298660570Y-118399524D01*
X298297713Y-118399524D01*
X300619999Y-118399524D02*
X299749142Y-118399524D01*
X300184570Y-118399524D02*
X300184570Y-117129524D01*
X300039427Y-117310952D01*
X299894285Y-117431905D01*
X299749142Y-117492381D01*
X309399524Y-79813714D02*
X308129524Y-79813714D01*
X309399524Y-78942857D01*
X308129524Y-78942857D01*
X308129524Y-78217143D02*
X309157619Y-78217143D01*
X309278571Y-78144571D01*
X309339048Y-78072000D01*
X309399524Y-77926857D01*
X309399524Y-77636571D01*
X309339048Y-77491429D01*
X309278571Y-77418857D01*
X309157619Y-77346286D01*
X308129524Y-77346286D01*
X309399524Y-76620572D02*
X308129524Y-76620572D01*
X309036667Y-76112572D01*
X308129524Y-75604572D01*
X309399524Y-75604572D01*
X309520476Y-75241715D02*
X309520476Y-74080572D01*
X309399524Y-73717715D02*
X308129524Y-73717715D01*
X308129524Y-73137143D01*
X308190000Y-72992001D01*
X308250476Y-72919429D01*
X308371429Y-72846858D01*
X308552857Y-72846858D01*
X308673810Y-72919429D01*
X308734286Y-72992001D01*
X308794762Y-73137143D01*
X308794762Y-73717715D01*
X309399524Y-71468001D02*
X309399524Y-72193715D01*
X308129524Y-72193715D01*
X308129524Y-70960001D02*
X309157619Y-70960001D01*
X309278571Y-70887429D01*
X309339048Y-70814858D01*
X309399524Y-70669715D01*
X309399524Y-70379429D01*
X309339048Y-70234287D01*
X309278571Y-70161715D01*
X309157619Y-70089144D01*
X308129524Y-70089144D01*
X309339048Y-69436001D02*
X309399524Y-69218287D01*
X309399524Y-68855430D01*
X309339048Y-68710287D01*
X309278571Y-68637716D01*
X309157619Y-68565144D01*
X309036667Y-68565144D01*
X308915714Y-68637716D01*
X308855238Y-68710287D01*
X308794762Y-68855430D01*
X308734286Y-69145716D01*
X308673810Y-69290858D01*
X308613333Y-69363430D01*
X308492381Y-69436001D01*
X308371429Y-69436001D01*
X308250476Y-69363430D01*
X308190000Y-69290858D01*
X308129524Y-69145716D01*
X308129524Y-68782858D01*
X308190000Y-68565144D01*
X309399524Y-67113715D02*
X309399524Y-67984572D01*
X309399524Y-67549144D02*
X308129524Y-67549144D01*
X308310952Y-67694287D01*
X308431905Y-67839429D01*
X308492381Y-67984572D01*
X267069429Y-42399524D02*
X267069429Y-41129524D01*
X267940286Y-42399524D01*
X267940286Y-41129524D01*
X268666000Y-41129524D02*
X268666000Y-42157619D01*
X268738572Y-42278571D01*
X268811143Y-42339048D01*
X268956286Y-42399524D01*
X269246572Y-42399524D01*
X269391714Y-42339048D01*
X269464286Y-42278571D01*
X269536857Y-42157619D01*
X269536857Y-41129524D01*
X270262571Y-42399524D02*
X270262571Y-41129524D01*
X270770571Y-42036667D01*
X271278571Y-41129524D01*
X271278571Y-42399524D01*
X271641428Y-42520476D02*
X272802571Y-42520476D01*
X273092857Y-42339048D02*
X273310571Y-42399524D01*
X273673428Y-42399524D01*
X273818571Y-42339048D01*
X273891142Y-42278571D01*
X273963714Y-42157619D01*
X273963714Y-42036667D01*
X273891142Y-41915714D01*
X273818571Y-41855238D01*
X273673428Y-41794762D01*
X273383142Y-41734286D01*
X273238000Y-41673810D01*
X273165428Y-41613333D01*
X273092857Y-41492381D01*
X273092857Y-41371429D01*
X273165428Y-41250476D01*
X273238000Y-41190000D01*
X273383142Y-41129524D01*
X273746000Y-41129524D01*
X273963714Y-41190000D01*
X275342571Y-42399524D02*
X274616857Y-42399524D01*
X274616857Y-41129524D01*
X275778000Y-42036667D02*
X276503714Y-42036667D01*
X275632857Y-42399524D02*
X276140857Y-41129524D01*
X276648857Y-42399524D01*
X277084286Y-42339048D02*
X277302000Y-42399524D01*
X277664857Y-42399524D01*
X277810000Y-42339048D01*
X277882571Y-42278571D01*
X277955143Y-42157619D01*
X277955143Y-42036667D01*
X277882571Y-41915714D01*
X277810000Y-41855238D01*
X277664857Y-41794762D01*
X277374571Y-41734286D01*
X277229429Y-41673810D01*
X277156857Y-41613333D01*
X277084286Y-41492381D01*
X277084286Y-41371429D01*
X277156857Y-41250476D01*
X277229429Y-41190000D01*
X277374571Y-41129524D01*
X277737429Y-41129524D01*
X277955143Y-41190000D01*
X278608286Y-42399524D02*
X278608286Y-41129524D01*
X278608286Y-41734286D02*
X279479143Y-41734286D01*
X279479143Y-42399524D02*
X279479143Y-41129524D01*
X281003143Y-42399524D02*
X280132286Y-42399524D01*
X280567714Y-42399524D02*
X280567714Y-41129524D01*
X280422571Y-41310952D01*
X280277429Y-41431905D01*
X280132286Y-41492381D01*
X223960572Y-61399524D02*
X223960572Y-60129524D01*
X224541144Y-60129524D01*
X224686286Y-60190000D01*
X224758858Y-60250476D01*
X224831429Y-60371429D01*
X224831429Y-60552857D01*
X224758858Y-60673810D01*
X224686286Y-60734286D01*
X224541144Y-60794762D01*
X223960572Y-60794762D01*
X225412001Y-61036667D02*
X226137715Y-61036667D01*
X225266858Y-61399524D02*
X225774858Y-60129524D01*
X226282858Y-61399524D01*
X227589144Y-60190000D02*
X227444001Y-60129524D01*
X227226287Y-60129524D01*
X227008572Y-60190000D01*
X226863430Y-60310952D01*
X226790858Y-60431905D01*
X226718287Y-60673810D01*
X226718287Y-60855238D01*
X226790858Y-61097143D01*
X226863430Y-61218095D01*
X227008572Y-61339048D01*
X227226287Y-61399524D01*
X227371430Y-61399524D01*
X227589144Y-61339048D01*
X227661715Y-61278571D01*
X227661715Y-60855238D01*
X227371430Y-60855238D01*
X228314858Y-60734286D02*
X228822858Y-60734286D01*
X229040572Y-61399524D02*
X228314858Y-61399524D01*
X228314858Y-60129524D01*
X229040572Y-60129524D01*
X229330858Y-61520476D02*
X230492001Y-61520476D01*
X230854858Y-61399524D02*
X230854858Y-60129524D01*
X231217715Y-60129524D01*
X231435430Y-60190000D01*
X231580572Y-60310952D01*
X231653144Y-60431905D01*
X231725715Y-60673810D01*
X231725715Y-60855238D01*
X231653144Y-61097143D01*
X231580572Y-61218095D01*
X231435430Y-61339048D01*
X231217715Y-61399524D01*
X230854858Y-61399524D01*
X232669144Y-60129524D02*
X232959430Y-60129524D01*
X233104572Y-60190000D01*
X233249715Y-60310952D01*
X233322287Y-60552857D01*
X233322287Y-60976190D01*
X233249715Y-61218095D01*
X233104572Y-61339048D01*
X232959430Y-61399524D01*
X232669144Y-61399524D01*
X232524001Y-61339048D01*
X232378858Y-61218095D01*
X232306287Y-60976190D01*
X232306287Y-60552857D01*
X232378858Y-60310952D01*
X232524001Y-60190000D01*
X232669144Y-60129524D01*
X233830286Y-60129524D02*
X234193143Y-61399524D01*
X234483429Y-60492381D01*
X234773715Y-61399524D01*
X235136572Y-60129524D01*
X235717143Y-61399524D02*
X235717143Y-60129524D01*
X236588000Y-61399524D01*
X236588000Y-60129524D01*
X238112000Y-61399524D02*
X237241143Y-61399524D01*
X237676571Y-61399524D02*
X237676571Y-60129524D01*
X237531428Y-60310952D01*
X237386286Y-60431905D01*
X237241143Y-60492381D01*
X225629714Y-42399524D02*
X225629714Y-41129524D01*
X226210286Y-41129524D01*
X226355428Y-41190000D01*
X226428000Y-41250476D01*
X226500571Y-41371429D01*
X226500571Y-41552857D01*
X226428000Y-41673810D01*
X226355428Y-41734286D01*
X226210286Y-41794762D01*
X225629714Y-41794762D01*
X227081143Y-42036667D02*
X227806857Y-42036667D01*
X226936000Y-42399524D02*
X227444000Y-41129524D01*
X227952000Y-42399524D01*
X229258286Y-41190000D02*
X229113143Y-41129524D01*
X228895429Y-41129524D01*
X228677714Y-41190000D01*
X228532572Y-41310952D01*
X228460000Y-41431905D01*
X228387429Y-41673810D01*
X228387429Y-41855238D01*
X228460000Y-42097143D01*
X228532572Y-42218095D01*
X228677714Y-42339048D01*
X228895429Y-42399524D01*
X229040572Y-42399524D01*
X229258286Y-42339048D01*
X229330857Y-42278571D01*
X229330857Y-41855238D01*
X229040572Y-41855238D01*
X229984000Y-41734286D02*
X230492000Y-41734286D01*
X230709714Y-42399524D02*
X229984000Y-42399524D01*
X229984000Y-41129524D01*
X230709714Y-41129524D01*
X231000000Y-42520476D02*
X232161143Y-42520476D01*
X232524000Y-41129524D02*
X232524000Y-42157619D01*
X232596572Y-42278571D01*
X232669143Y-42339048D01*
X232814286Y-42399524D01*
X233104572Y-42399524D01*
X233249714Y-42339048D01*
X233322286Y-42278571D01*
X233394857Y-42157619D01*
X233394857Y-41129524D01*
X234120571Y-42399524D02*
X234120571Y-41129524D01*
X234701143Y-41129524D01*
X234846285Y-41190000D01*
X234918857Y-41250476D01*
X234991428Y-41371429D01*
X234991428Y-41552857D01*
X234918857Y-41673810D01*
X234846285Y-41734286D01*
X234701143Y-41794762D01*
X234120571Y-41794762D01*
X236442857Y-42399524D02*
X235572000Y-42399524D01*
X236007428Y-42399524D02*
X236007428Y-41129524D01*
X235862285Y-41310952D01*
X235717143Y-41431905D01*
X235572000Y-41492381D01*
X227008571Y-14399524D02*
X227008571Y-13129524D01*
X227589143Y-13129524D01*
X227734285Y-13190000D01*
X227806857Y-13250476D01*
X227879428Y-13371429D01*
X227879428Y-13552857D01*
X227806857Y-13673810D01*
X227734285Y-13734286D01*
X227589143Y-13794762D01*
X227008571Y-13794762D01*
X228460000Y-14036667D02*
X229185714Y-14036667D01*
X228314857Y-14399524D02*
X228822857Y-13129524D01*
X229330857Y-14399524D01*
X229838857Y-13129524D02*
X229838857Y-14157619D01*
X229911429Y-14278571D01*
X229984000Y-14339048D01*
X230129143Y-14399524D01*
X230419429Y-14399524D01*
X230564571Y-14339048D01*
X230637143Y-14278571D01*
X230709714Y-14157619D01*
X230709714Y-13129524D01*
X231362857Y-14339048D02*
X231580571Y-14399524D01*
X231943428Y-14399524D01*
X232088571Y-14339048D01*
X232161142Y-14278571D01*
X232233714Y-14157619D01*
X232233714Y-14036667D01*
X232161142Y-13915714D01*
X232088571Y-13855238D01*
X231943428Y-13794762D01*
X231653142Y-13734286D01*
X231508000Y-13673810D01*
X231435428Y-13613333D01*
X231362857Y-13492381D01*
X231362857Y-13371429D01*
X231435428Y-13250476D01*
X231508000Y-13190000D01*
X231653142Y-13129524D01*
X232016000Y-13129524D01*
X232233714Y-13190000D01*
X232886857Y-13734286D02*
X233394857Y-13734286D01*
X233612571Y-14399524D02*
X232886857Y-14399524D01*
X232886857Y-13129524D01*
X233612571Y-13129524D01*
X235064000Y-14399524D02*
X234193143Y-14399524D01*
X234628571Y-14399524D02*
X234628571Y-13129524D01*
X234483428Y-13310952D01*
X234338286Y-13431905D01*
X234193143Y-13492381D01*
X184364000Y-14399524D02*
X184364000Y-13129524D01*
X184944572Y-13129524D01*
X185089714Y-13190000D01*
X185162286Y-13250476D01*
X185234857Y-13371429D01*
X185234857Y-13552857D01*
X185162286Y-13673810D01*
X185089714Y-13734286D01*
X184944572Y-13794762D01*
X184364000Y-13794762D01*
X186758857Y-14399524D02*
X186250857Y-13794762D01*
X185888000Y-14399524D02*
X185888000Y-13129524D01*
X186468572Y-13129524D01*
X186613714Y-13190000D01*
X186686286Y-13250476D01*
X186758857Y-13371429D01*
X186758857Y-13552857D01*
X186686286Y-13673810D01*
X186613714Y-13734286D01*
X186468572Y-13794762D01*
X185888000Y-13794762D01*
X187412000Y-14399524D02*
X187412000Y-13129524D01*
X188137714Y-14399524D02*
X188137714Y-13129524D01*
X189008571Y-14399524D01*
X189008571Y-13129524D01*
X189516571Y-13129524D02*
X190387428Y-13129524D01*
X189951999Y-14399524D02*
X189951999Y-13129524D01*
X190532571Y-14520476D02*
X191693714Y-14520476D01*
X191984000Y-14339048D02*
X192201714Y-14399524D01*
X192564571Y-14399524D01*
X192709714Y-14339048D01*
X192782285Y-14278571D01*
X192854857Y-14157619D01*
X192854857Y-14036667D01*
X192782285Y-13915714D01*
X192709714Y-13855238D01*
X192564571Y-13794762D01*
X192274285Y-13734286D01*
X192129143Y-13673810D01*
X192056571Y-13613333D01*
X191984000Y-13492381D01*
X191984000Y-13371429D01*
X192056571Y-13250476D01*
X192129143Y-13190000D01*
X192274285Y-13129524D01*
X192637143Y-13129524D01*
X192854857Y-13190000D01*
X194378857Y-14278571D02*
X194306286Y-14339048D01*
X194088572Y-14399524D01*
X193943429Y-14399524D01*
X193725714Y-14339048D01*
X193580572Y-14218095D01*
X193508000Y-14097143D01*
X193435429Y-13855238D01*
X193435429Y-13673810D01*
X193508000Y-13431905D01*
X193580572Y-13310952D01*
X193725714Y-13190000D01*
X193943429Y-13129524D01*
X194088572Y-13129524D01*
X194306286Y-13190000D01*
X194378857Y-13250476D01*
X195902857Y-14399524D02*
X195394857Y-13794762D01*
X195032000Y-14399524D02*
X195032000Y-13129524D01*
X195612572Y-13129524D01*
X195757714Y-13190000D01*
X195830286Y-13250476D01*
X195902857Y-13371429D01*
X195902857Y-13552857D01*
X195830286Y-13673810D01*
X195757714Y-13734286D01*
X195612572Y-13794762D01*
X195032000Y-13794762D01*
X196556000Y-13734286D02*
X197064000Y-13734286D01*
X197281714Y-14399524D02*
X196556000Y-14399524D01*
X196556000Y-13129524D01*
X197281714Y-13129524D01*
X197934857Y-13734286D02*
X198442857Y-13734286D01*
X198660571Y-14399524D02*
X197934857Y-14399524D01*
X197934857Y-13129524D01*
X198660571Y-13129524D01*
X199313714Y-14399524D02*
X199313714Y-13129524D01*
X200184571Y-14399524D01*
X200184571Y-13129524D01*
X201708571Y-14399524D02*
X200837714Y-14399524D01*
X201273142Y-14399524D02*
X201273142Y-13129524D01*
X201127999Y-13310952D01*
X200982857Y-13431905D01*
X200837714Y-13492381D01*
X228242286Y-118399524D02*
X227734286Y-117794762D01*
X227371429Y-118399524D02*
X227371429Y-117129524D01*
X227952001Y-117129524D01*
X228097143Y-117190000D01*
X228169715Y-117250476D01*
X228242286Y-117371429D01*
X228242286Y-117552857D01*
X228169715Y-117673810D01*
X228097143Y-117734286D01*
X227952001Y-117794762D01*
X227371429Y-117794762D01*
X228895429Y-118399524D02*
X228895429Y-117129524D01*
X230419429Y-117190000D02*
X230274286Y-117129524D01*
X230056572Y-117129524D01*
X229838857Y-117190000D01*
X229693715Y-117310952D01*
X229621143Y-117431905D01*
X229548572Y-117673810D01*
X229548572Y-117855238D01*
X229621143Y-118097143D01*
X229693715Y-118218095D01*
X229838857Y-118339048D01*
X230056572Y-118399524D01*
X230201715Y-118399524D01*
X230419429Y-118339048D01*
X230492000Y-118278571D01*
X230492000Y-117855238D01*
X230201715Y-117855238D01*
X231145143Y-118399524D02*
X231145143Y-117129524D01*
X231145143Y-117734286D02*
X232016000Y-117734286D01*
X232016000Y-118399524D02*
X232016000Y-117129524D01*
X232524000Y-117129524D02*
X233394857Y-117129524D01*
X232959428Y-118399524D02*
X232959428Y-117129524D01*
X234701143Y-118399524D02*
X233830286Y-118399524D01*
X234265714Y-118399524D02*
X234265714Y-117129524D01*
X234120571Y-117310952D01*
X233975429Y-117431905D01*
X233830286Y-117492381D01*
X90186143Y-118399524D02*
X89678143Y-117794762D01*
X89315286Y-118399524D02*
X89315286Y-117129524D01*
X89895858Y-117129524D01*
X90041000Y-117190000D01*
X90113572Y-117250476D01*
X90186143Y-117371429D01*
X90186143Y-117552857D01*
X90113572Y-117673810D01*
X90041000Y-117734286D01*
X89895858Y-117794762D01*
X89315286Y-117794762D01*
X90839286Y-118399524D02*
X90839286Y-117129524D01*
X92363286Y-117190000D02*
X92218143Y-117129524D01*
X92000429Y-117129524D01*
X91782714Y-117190000D01*
X91637572Y-117310952D01*
X91565000Y-117431905D01*
X91492429Y-117673810D01*
X91492429Y-117855238D01*
X91565000Y-118097143D01*
X91637572Y-118218095D01*
X91782714Y-118339048D01*
X92000429Y-118399524D01*
X92145572Y-118399524D01*
X92363286Y-118339048D01*
X92435857Y-118278571D01*
X92435857Y-117855238D01*
X92145572Y-117855238D01*
X93089000Y-118399524D02*
X93089000Y-117129524D01*
X93089000Y-117734286D02*
X93959857Y-117734286D01*
X93959857Y-118399524D02*
X93959857Y-117129524D01*
X94467857Y-117129524D02*
X95338714Y-117129524D01*
X94903285Y-118399524D02*
X94903285Y-117129524D01*
X95483857Y-118520476D02*
X96645000Y-118520476D01*
X96935286Y-118036667D02*
X97661000Y-118036667D01*
X96790143Y-118399524D02*
X97298143Y-117129524D01*
X97806143Y-118399524D01*
X99039857Y-118399524D02*
X98314143Y-118399524D01*
X98314143Y-117129524D01*
X99330143Y-117129524D02*
X100201000Y-117129524D01*
X99765571Y-118399524D02*
X99765571Y-117129524D01*
X101507286Y-118399524D02*
X100636429Y-118399524D01*
X101071857Y-118399524D02*
X101071857Y-117129524D01*
X100926714Y-117310952D01*
X100781572Y-117431905D01*
X100636429Y-117492381D01*
X160565286Y-118399524D02*
X160057286Y-117794762D01*
X159694429Y-118399524D02*
X159694429Y-117129524D01*
X160275001Y-117129524D01*
X160420143Y-117190000D01*
X160492715Y-117250476D01*
X160565286Y-117371429D01*
X160565286Y-117552857D01*
X160492715Y-117673810D01*
X160420143Y-117734286D01*
X160275001Y-117794762D01*
X159694429Y-117794762D01*
X161218429Y-118399524D02*
X161218429Y-117129524D01*
X162742429Y-117190000D02*
X162597286Y-117129524D01*
X162379572Y-117129524D01*
X162161857Y-117190000D01*
X162016715Y-117310952D01*
X161944143Y-117431905D01*
X161871572Y-117673810D01*
X161871572Y-117855238D01*
X161944143Y-118097143D01*
X162016715Y-118218095D01*
X162161857Y-118339048D01*
X162379572Y-118399524D01*
X162524715Y-118399524D01*
X162742429Y-118339048D01*
X162815000Y-118278571D01*
X162815000Y-117855238D01*
X162524715Y-117855238D01*
X163468143Y-118399524D02*
X163468143Y-117129524D01*
X163468143Y-117734286D02*
X164339000Y-117734286D01*
X164339000Y-118399524D02*
X164339000Y-117129524D01*
X164847000Y-117129524D02*
X165717857Y-117129524D01*
X165282428Y-118399524D02*
X165282428Y-117129524D01*
X165863000Y-118520476D02*
X167024143Y-118520476D01*
X168257857Y-118278571D02*
X168185286Y-118339048D01*
X167967572Y-118399524D01*
X167822429Y-118399524D01*
X167604714Y-118339048D01*
X167459572Y-118218095D01*
X167387000Y-118097143D01*
X167314429Y-117855238D01*
X167314429Y-117673810D01*
X167387000Y-117431905D01*
X167459572Y-117310952D01*
X167604714Y-117190000D01*
X167822429Y-117129524D01*
X167967572Y-117129524D01*
X168185286Y-117190000D01*
X168257857Y-117250476D01*
X168693286Y-117129524D02*
X169564143Y-117129524D01*
X169128714Y-118399524D02*
X169128714Y-117129524D01*
X170943000Y-118399524D02*
X170435000Y-117794762D01*
X170072143Y-118399524D02*
X170072143Y-117129524D01*
X170652715Y-117129524D01*
X170797857Y-117190000D01*
X170870429Y-117250476D01*
X170943000Y-117371429D01*
X170943000Y-117552857D01*
X170870429Y-117673810D01*
X170797857Y-117734286D01*
X170652715Y-117794762D01*
X170072143Y-117794762D01*
X172321857Y-118399524D02*
X171596143Y-118399524D01*
X171596143Y-117129524D01*
X173628143Y-118399524D02*
X172757286Y-118399524D01*
X173192714Y-118399524D02*
X173192714Y-117129524D01*
X173047571Y-117310952D01*
X172902429Y-117431905D01*
X172757286Y-117492381D01*
X59871857Y-118399524D02*
X59363857Y-117794762D01*
X59001000Y-118399524D02*
X59001000Y-117129524D01*
X59581572Y-117129524D01*
X59726714Y-117190000D01*
X59799286Y-117250476D01*
X59871857Y-117371429D01*
X59871857Y-117552857D01*
X59799286Y-117673810D01*
X59726714Y-117734286D01*
X59581572Y-117794762D01*
X59001000Y-117794762D01*
X60525000Y-118399524D02*
X60525000Y-117129524D01*
X62049000Y-117190000D02*
X61903857Y-117129524D01*
X61686143Y-117129524D01*
X61468428Y-117190000D01*
X61323286Y-117310952D01*
X61250714Y-117431905D01*
X61178143Y-117673810D01*
X61178143Y-117855238D01*
X61250714Y-118097143D01*
X61323286Y-118218095D01*
X61468428Y-118339048D01*
X61686143Y-118399524D01*
X61831286Y-118399524D01*
X62049000Y-118339048D01*
X62121571Y-118278571D01*
X62121571Y-117855238D01*
X61831286Y-117855238D01*
X62774714Y-118399524D02*
X62774714Y-117129524D01*
X62774714Y-117734286D02*
X63645571Y-117734286D01*
X63645571Y-118399524D02*
X63645571Y-117129524D01*
X64153571Y-117129524D02*
X65024428Y-117129524D01*
X64588999Y-118399524D02*
X64588999Y-117129524D01*
X65169571Y-118520476D02*
X66330714Y-118520476D01*
X66693571Y-118399524D02*
X66693571Y-117129524D01*
X66693571Y-117734286D02*
X67564428Y-117734286D01*
X67564428Y-118399524D02*
X67564428Y-117129524D01*
X68580428Y-117794762D02*
X68580428Y-118399524D01*
X68072428Y-117129524D02*
X68580428Y-117794762D01*
X69088428Y-117129524D01*
X69596428Y-118399524D02*
X69596428Y-117129524D01*
X70177000Y-117129524D01*
X70322142Y-117190000D01*
X70394714Y-117250476D01*
X70467285Y-117371429D01*
X70467285Y-117552857D01*
X70394714Y-117673810D01*
X70322142Y-117734286D01*
X70177000Y-117794762D01*
X69596428Y-117794762D01*
X71120428Y-117734286D02*
X71628428Y-117734286D01*
X71846142Y-118399524D02*
X71120428Y-118399524D01*
X71120428Y-117129524D01*
X71846142Y-117129524D01*
X73370142Y-118399524D02*
X72862142Y-117794762D01*
X72499285Y-118399524D02*
X72499285Y-117129524D01*
X73079857Y-117129524D01*
X73224999Y-117190000D01*
X73297571Y-117250476D01*
X73370142Y-117371429D01*
X73370142Y-117552857D01*
X73297571Y-117673810D01*
X73224999Y-117734286D01*
X73079857Y-117794762D01*
X72499285Y-117794762D01*
X74821571Y-118399524D02*
X73950714Y-118399524D01*
X74386142Y-118399524D02*
X74386142Y-117129524D01*
X74240999Y-117310952D01*
X74095857Y-117431905D01*
X73950714Y-117492381D01*
X136379858Y-118399524D02*
X135871858Y-117794762D01*
X135509001Y-118399524D02*
X135509001Y-117129524D01*
X136089573Y-117129524D01*
X136234715Y-117190000D01*
X136307287Y-117250476D01*
X136379858Y-117371429D01*
X136379858Y-117552857D01*
X136307287Y-117673810D01*
X136234715Y-117734286D01*
X136089573Y-117794762D01*
X135509001Y-117794762D01*
X137033001Y-118399524D02*
X137033001Y-117129524D01*
X138557001Y-117190000D02*
X138411858Y-117129524D01*
X138194144Y-117129524D01*
X137976429Y-117190000D01*
X137831287Y-117310952D01*
X137758715Y-117431905D01*
X137686144Y-117673810D01*
X137686144Y-117855238D01*
X137758715Y-118097143D01*
X137831287Y-118218095D01*
X137976429Y-118339048D01*
X138194144Y-118399524D01*
X138339287Y-118399524D01*
X138557001Y-118339048D01*
X138629572Y-118278571D01*
X138629572Y-117855238D01*
X138339287Y-117855238D01*
X139282715Y-118399524D02*
X139282715Y-117129524D01*
X139282715Y-117734286D02*
X140153572Y-117734286D01*
X140153572Y-118399524D02*
X140153572Y-117129524D01*
X140661572Y-117129524D02*
X141532429Y-117129524D01*
X141097000Y-118399524D02*
X141097000Y-117129524D01*
X141677572Y-118520476D02*
X142838715Y-118520476D01*
X143201572Y-118399524D02*
X143201572Y-117129524D01*
X143709572Y-118036667D01*
X144217572Y-117129524D01*
X144217572Y-118399524D01*
X144943286Y-117734286D02*
X145451286Y-117734286D01*
X145669000Y-118399524D02*
X144943286Y-118399524D01*
X144943286Y-117129524D01*
X145669000Y-117129524D01*
X146322143Y-118399524D02*
X146322143Y-117129524D01*
X147193000Y-118399524D01*
X147193000Y-117129524D01*
X147918714Y-117129524D02*
X147918714Y-118157619D01*
X147991286Y-118278571D01*
X148063857Y-118339048D01*
X148209000Y-118399524D01*
X148499286Y-118399524D01*
X148644428Y-118339048D01*
X148717000Y-118278571D01*
X148789571Y-118157619D01*
X148789571Y-117129524D01*
X150313571Y-118399524D02*
X149442714Y-118399524D01*
X149878142Y-118399524D02*
X149878142Y-117129524D01*
X149732999Y-117310952D01*
X149587857Y-117431905D01*
X149442714Y-117492381D01*
X145916143Y-99399524D02*
X145408143Y-98794762D01*
X145045286Y-99399524D02*
X145045286Y-98129524D01*
X145625858Y-98129524D01*
X145771000Y-98190000D01*
X145843572Y-98250476D01*
X145916143Y-98371429D01*
X145916143Y-98552857D01*
X145843572Y-98673810D01*
X145771000Y-98734286D01*
X145625858Y-98794762D01*
X145045286Y-98794762D01*
X146569286Y-99399524D02*
X146569286Y-98129524D01*
X148093286Y-98190000D02*
X147948143Y-98129524D01*
X147730429Y-98129524D01*
X147512714Y-98190000D01*
X147367572Y-98310952D01*
X147295000Y-98431905D01*
X147222429Y-98673810D01*
X147222429Y-98855238D01*
X147295000Y-99097143D01*
X147367572Y-99218095D01*
X147512714Y-99339048D01*
X147730429Y-99399524D01*
X147875572Y-99399524D01*
X148093286Y-99339048D01*
X148165857Y-99278571D01*
X148165857Y-98855238D01*
X147875572Y-98855238D01*
X148819000Y-99399524D02*
X148819000Y-98129524D01*
X148819000Y-98734286D02*
X149689857Y-98734286D01*
X149689857Y-99399524D02*
X149689857Y-98129524D01*
X150197857Y-98129524D02*
X151068714Y-98129524D01*
X150633285Y-99399524D02*
X150633285Y-98129524D01*
X151213857Y-99520476D02*
X152375000Y-99520476D01*
X152665286Y-99339048D02*
X152883000Y-99399524D01*
X153245857Y-99399524D01*
X153391000Y-99339048D01*
X153463571Y-99278571D01*
X153536143Y-99157619D01*
X153536143Y-99036667D01*
X153463571Y-98915714D01*
X153391000Y-98855238D01*
X153245857Y-98794762D01*
X152955571Y-98734286D01*
X152810429Y-98673810D01*
X152737857Y-98613333D01*
X152665286Y-98492381D01*
X152665286Y-98371429D01*
X152737857Y-98250476D01*
X152810429Y-98190000D01*
X152955571Y-98129524D01*
X153318429Y-98129524D01*
X153536143Y-98190000D01*
X154189286Y-99399524D02*
X154189286Y-98129524D01*
X154189286Y-98734286D02*
X155060143Y-98734286D01*
X155060143Y-99399524D02*
X155060143Y-98129524D01*
X155785857Y-99399524D02*
X155785857Y-98129524D01*
X157019571Y-98734286D02*
X156511571Y-98734286D01*
X156511571Y-99399524D02*
X156511571Y-98129524D01*
X157237285Y-98129524D01*
X157600143Y-98129524D02*
X158471000Y-98129524D01*
X158035571Y-99399524D02*
X158035571Y-98129524D01*
X159777286Y-99399524D02*
X158906429Y-99399524D01*
X159341857Y-99399524D02*
X159341857Y-98129524D01*
X159196714Y-98310952D01*
X159051572Y-98431905D01*
X158906429Y-98492381D01*
X21944428Y-118399524D02*
X21436428Y-117794762D01*
X21073571Y-118399524D02*
X21073571Y-117129524D01*
X21654143Y-117129524D01*
X21799285Y-117190000D01*
X21871857Y-117250476D01*
X21944428Y-117371429D01*
X21944428Y-117552857D01*
X21871857Y-117673810D01*
X21799285Y-117734286D01*
X21654143Y-117794762D01*
X21073571Y-117794762D01*
X22597571Y-118399524D02*
X22597571Y-117129524D01*
X24121571Y-117190000D02*
X23976428Y-117129524D01*
X23758714Y-117129524D01*
X23540999Y-117190000D01*
X23395857Y-117310952D01*
X23323285Y-117431905D01*
X23250714Y-117673810D01*
X23250714Y-117855238D01*
X23323285Y-118097143D01*
X23395857Y-118218095D01*
X23540999Y-118339048D01*
X23758714Y-118399524D01*
X23903857Y-118399524D01*
X24121571Y-118339048D01*
X24194142Y-118278571D01*
X24194142Y-117855238D01*
X23903857Y-117855238D01*
X24847285Y-118399524D02*
X24847285Y-117129524D01*
X24847285Y-117734286D02*
X25718142Y-117734286D01*
X25718142Y-118399524D02*
X25718142Y-117129524D01*
X26226142Y-117129524D02*
X27096999Y-117129524D01*
X26661570Y-118399524D02*
X26661570Y-117129524D01*
X27242142Y-118520476D02*
X28403285Y-118520476D01*
X28693571Y-118339048D02*
X28911285Y-118399524D01*
X29274142Y-118399524D01*
X29419285Y-118339048D01*
X29491856Y-118278571D01*
X29564428Y-118157619D01*
X29564428Y-118036667D01*
X29491856Y-117915714D01*
X29419285Y-117855238D01*
X29274142Y-117794762D01*
X28983856Y-117734286D01*
X28838714Y-117673810D01*
X28766142Y-117613333D01*
X28693571Y-117492381D01*
X28693571Y-117371429D01*
X28766142Y-117250476D01*
X28838714Y-117190000D01*
X28983856Y-117129524D01*
X29346714Y-117129524D01*
X29564428Y-117190000D01*
X30217571Y-118399524D02*
X30217571Y-117129524D01*
X30798143Y-117129524D01*
X30943285Y-117190000D01*
X31015857Y-117250476D01*
X31088428Y-117371429D01*
X31088428Y-117552857D01*
X31015857Y-117673810D01*
X30943285Y-117734286D01*
X30798143Y-117794762D01*
X30217571Y-117794762D01*
X31669000Y-118036667D02*
X32394714Y-118036667D01*
X31523857Y-118399524D02*
X32031857Y-117129524D01*
X32539857Y-118399524D01*
X33918714Y-118278571D02*
X33846143Y-118339048D01*
X33628429Y-118399524D01*
X33483286Y-118399524D01*
X33265571Y-118339048D01*
X33120429Y-118218095D01*
X33047857Y-118097143D01*
X32975286Y-117855238D01*
X32975286Y-117673810D01*
X33047857Y-117431905D01*
X33120429Y-117310952D01*
X33265571Y-117190000D01*
X33483286Y-117129524D01*
X33628429Y-117129524D01*
X33846143Y-117190000D01*
X33918714Y-117250476D01*
X34571857Y-117734286D02*
X35079857Y-117734286D01*
X35297571Y-118399524D02*
X34571857Y-118399524D01*
X34571857Y-117129524D01*
X35297571Y-117129524D01*
X36749000Y-118399524D02*
X35878143Y-118399524D01*
X36313571Y-118399524D02*
X36313571Y-117129524D01*
X36168428Y-117310952D01*
X36023286Y-117431905D01*
X35878143Y-117492381D01*
X113754715Y-118399524D02*
X113246715Y-117794762D01*
X112883858Y-118399524D02*
X112883858Y-117129524D01*
X113464430Y-117129524D01*
X113609572Y-117190000D01*
X113682144Y-117250476D01*
X113754715Y-117371429D01*
X113754715Y-117552857D01*
X113682144Y-117673810D01*
X113609572Y-117734286D01*
X113464430Y-117794762D01*
X112883858Y-117794762D01*
X114407858Y-118399524D02*
X114407858Y-117129524D01*
X115931858Y-117190000D02*
X115786715Y-117129524D01*
X115569001Y-117129524D01*
X115351286Y-117190000D01*
X115206144Y-117310952D01*
X115133572Y-117431905D01*
X115061001Y-117673810D01*
X115061001Y-117855238D01*
X115133572Y-118097143D01*
X115206144Y-118218095D01*
X115351286Y-118339048D01*
X115569001Y-118399524D01*
X115714144Y-118399524D01*
X115931858Y-118339048D01*
X116004429Y-118278571D01*
X116004429Y-117855238D01*
X115714144Y-117855238D01*
X116657572Y-118399524D02*
X116657572Y-117129524D01*
X116657572Y-117734286D02*
X117528429Y-117734286D01*
X117528429Y-118399524D02*
X117528429Y-117129524D01*
X118036429Y-117129524D02*
X118907286Y-117129524D01*
X118471857Y-118399524D02*
X118471857Y-117129524D01*
X119052429Y-118520476D02*
X120213572Y-118520476D01*
X120431286Y-117129524D02*
X120794143Y-118399524D01*
X121084429Y-117492381D01*
X121374715Y-118399524D01*
X121737572Y-117129524D01*
X122318143Y-118399524D02*
X122318143Y-117129524D01*
X123043857Y-118399524D02*
X123043857Y-117129524D01*
X123914714Y-118399524D01*
X123914714Y-117129524D01*
X125438714Y-118399524D02*
X124567857Y-118399524D01*
X125003285Y-118399524D02*
X125003285Y-117129524D01*
X124858142Y-117310952D01*
X124713000Y-117431905D01*
X124567857Y-117492381D01*
X203763144Y-14339048D02*
X203980858Y-14399524D01*
X204343715Y-14399524D01*
X204488858Y-14339048D01*
X204561429Y-14278571D01*
X204634001Y-14157619D01*
X204634001Y-14036667D01*
X204561429Y-13915714D01*
X204488858Y-13855238D01*
X204343715Y-13794762D01*
X204053429Y-13734286D01*
X203908287Y-13673810D01*
X203835715Y-13613333D01*
X203763144Y-13492381D01*
X203763144Y-13371429D01*
X203835715Y-13250476D01*
X203908287Y-13190000D01*
X204053429Y-13129524D01*
X204416287Y-13129524D01*
X204634001Y-13190000D01*
X206158001Y-14278571D02*
X206085430Y-14339048D01*
X205867716Y-14399524D01*
X205722573Y-14399524D01*
X205504858Y-14339048D01*
X205359716Y-14218095D01*
X205287144Y-14097143D01*
X205214573Y-13855238D01*
X205214573Y-13673810D01*
X205287144Y-13431905D01*
X205359716Y-13310952D01*
X205504858Y-13190000D01*
X205722573Y-13129524D01*
X205867716Y-13129524D01*
X206085430Y-13190000D01*
X206158001Y-13250476D01*
X207682001Y-14399524D02*
X207174001Y-13794762D01*
X206811144Y-14399524D02*
X206811144Y-13129524D01*
X207391716Y-13129524D01*
X207536858Y-13190000D01*
X207609430Y-13250476D01*
X207682001Y-13371429D01*
X207682001Y-13552857D01*
X207609430Y-13673810D01*
X207536858Y-13734286D01*
X207391716Y-13794762D01*
X206811144Y-13794762D01*
X208625430Y-13129524D02*
X208915716Y-13129524D01*
X209060858Y-13190000D01*
X209206001Y-13310952D01*
X209278573Y-13552857D01*
X209278573Y-13976190D01*
X209206001Y-14218095D01*
X209060858Y-14339048D01*
X208915716Y-14399524D01*
X208625430Y-14399524D01*
X208480287Y-14339048D01*
X208335144Y-14218095D01*
X208262573Y-13976190D01*
X208262573Y-13552857D01*
X208335144Y-13310952D01*
X208480287Y-13190000D01*
X208625430Y-13129524D01*
X210657429Y-14399524D02*
X209931715Y-14399524D01*
X209931715Y-13129524D01*
X211891143Y-14399524D02*
X211165429Y-14399524D01*
X211165429Y-13129524D01*
X212036286Y-14520476D02*
X213197429Y-14520476D01*
X214286000Y-14399524D02*
X213560286Y-14399524D01*
X213560286Y-13129524D01*
X215084286Y-13129524D02*
X215374572Y-13129524D01*
X215519714Y-13190000D01*
X215664857Y-13310952D01*
X215737429Y-13552857D01*
X215737429Y-13976190D01*
X215664857Y-14218095D01*
X215519714Y-14339048D01*
X215374572Y-14399524D01*
X215084286Y-14399524D01*
X214939143Y-14339048D01*
X214794000Y-14218095D01*
X214721429Y-13976190D01*
X214721429Y-13552857D01*
X214794000Y-13310952D01*
X214939143Y-13190000D01*
X215084286Y-13129524D01*
X217261428Y-14278571D02*
X217188857Y-14339048D01*
X216971143Y-14399524D01*
X216826000Y-14399524D01*
X216608285Y-14339048D01*
X216463143Y-14218095D01*
X216390571Y-14097143D01*
X216318000Y-13855238D01*
X216318000Y-13673810D01*
X216390571Y-13431905D01*
X216463143Y-13310952D01*
X216608285Y-13190000D01*
X216826000Y-13129524D01*
X216971143Y-13129524D01*
X217188857Y-13190000D01*
X217261428Y-13250476D01*
X217914571Y-14399524D02*
X217914571Y-13129524D01*
X218785428Y-14399524D02*
X218132285Y-13673810D01*
X218785428Y-13129524D02*
X217914571Y-13855238D01*
X220236857Y-14399524D02*
X219366000Y-14399524D01*
X219801428Y-14399524D02*
X219801428Y-13129524D01*
X219656285Y-13310952D01*
X219511143Y-13431905D01*
X219366000Y-13492381D01*
X210076857Y-98129524D02*
X210076857Y-99157619D01*
X210149429Y-99278571D01*
X210222000Y-99339048D01*
X210367143Y-99399524D01*
X210657429Y-99399524D01*
X210802571Y-99339048D01*
X210875143Y-99278571D01*
X210947714Y-99157619D01*
X210947714Y-98129524D01*
X211673428Y-99399524D02*
X211673428Y-98129524D01*
X212254000Y-98129524D01*
X212399142Y-98190000D01*
X212471714Y-98250476D01*
X212544285Y-98371429D01*
X212544285Y-98552857D01*
X212471714Y-98673810D01*
X212399142Y-98734286D01*
X212254000Y-98794762D01*
X211673428Y-98794762D01*
X213995714Y-99399524D02*
X213124857Y-99399524D01*
X213560285Y-99399524D02*
X213560285Y-98129524D01*
X213415142Y-98310952D01*
X213270000Y-98431905D01*
X213124857Y-98492381D01*
D13*
X4762Y-6854762D02*
X147619Y-6902381D01*
X385715Y-6902381D01*
X480953Y-6854762D01*
X528572Y-6807143D01*
X576191Y-6711905D01*
X576191Y-6616667D01*
X528572Y-6521429D01*
X480953Y-6473810D01*
X385715Y-6426190D01*
X195238Y-6378571D01*
X100000Y-6330952D01*
X52381Y-6283333D01*
X4762Y-6188095D01*
X4762Y-6092857D01*
X52381Y-5997619D01*
X100000Y-5950000D01*
X195238Y-5902381D01*
X433334Y-5902381D01*
X576191Y-5950000D01*
X1576191Y-6807143D02*
X1528572Y-6854762D01*
X1385715Y-6902381D01*
X1290477Y-6902381D01*
X1147619Y-6854762D01*
X1052381Y-6759524D01*
X1004762Y-6664286D01*
X957143Y-6473810D01*
X957143Y-6330952D01*
X1004762Y-6140476D01*
X1052381Y-6045238D01*
X1147619Y-5950000D01*
X1290477Y-5902381D01*
X1385715Y-5902381D01*
X1528572Y-5950000D01*
X1576191Y-5997619D01*
X2576191Y-6902381D02*
X2242857Y-6426190D01*
X2004762Y-6902381D02*
X2004762Y-5902381D01*
X2385715Y-5902381D01*
X2480953Y-5950000D01*
X2528572Y-5997619D01*
X2576191Y-6092857D01*
X2576191Y-6235714D01*
X2528572Y-6330952D01*
X2480953Y-6378571D01*
X2385715Y-6426190D01*
X2004762Y-6426190D01*
X3004762Y-6378571D02*
X3338096Y-6378571D01*
X3480953Y-6902381D02*
X3004762Y-6902381D01*
X3004762Y-5902381D01*
X3480953Y-5902381D01*
X3814286Y-5902381D02*
X4052381Y-6902381D01*
X4242858Y-6188095D01*
X4433334Y-6902381D01*
X4671429Y-5902381D01*
X4814286Y-6997619D02*
X5576191Y-6997619D01*
X5814286Y-6902381D02*
X5814286Y-5902381D01*
X5814286Y-6378571D02*
X6385715Y-6378571D01*
X6385715Y-6902381D02*
X6385715Y-5902381D01*
X7052381Y-5902381D02*
X7242858Y-5902381D01*
X7338096Y-5950000D01*
X7433334Y-6045238D01*
X7480953Y-6235714D01*
X7480953Y-6569048D01*
X7433334Y-6759524D01*
X7338096Y-6854762D01*
X7242858Y-6902381D01*
X7052381Y-6902381D01*
X6957143Y-6854762D01*
X6861905Y-6759524D01*
X6814286Y-6569048D01*
X6814286Y-6235714D01*
X6861905Y-6045238D01*
X6957143Y-5950000D01*
X7052381Y-5902381D01*
X8385715Y-6902381D02*
X7909524Y-6902381D01*
X7909524Y-5902381D01*
X8719048Y-6378571D02*
X9052382Y-6378571D01*
X9195239Y-6902381D02*
X8719048Y-6902381D01*
X8719048Y-5902381D01*
X9195239Y-5902381D01*
X2721428Y-1752381D02*
X3054761Y-2752381D01*
X3388095Y-1752381D01*
X3673809Y-2466667D02*
X4150000Y-2466667D01*
X3578571Y-2752381D02*
X3911904Y-1752381D01*
X4245238Y-2752381D01*
X5054762Y-2752381D02*
X4578571Y-2752381D01*
X4578571Y-1752381D01*
X5530952Y-1752381D02*
X5530952Y-1990476D01*
X5292857Y-1895238D02*
X5530952Y-1990476D01*
X5769048Y-1895238D01*
X5388095Y-2180952D02*
X5530952Y-1990476D01*
X5673810Y-2180952D01*
X6292857Y-1752381D02*
X6292857Y-1990476D01*
X6054762Y-1895238D02*
X6292857Y-1990476D01*
X6530953Y-1895238D01*
X6150000Y-2180952D02*
X6292857Y-1990476D01*
X6435715Y-2180952D01*
X4762Y-136354762D02*
X147619Y-136402381D01*
X385715Y-136402381D01*
X480953Y-136354762D01*
X528572Y-136307143D01*
X576191Y-136211905D01*
X576191Y-136116667D01*
X528572Y-136021429D01*
X480953Y-135973810D01*
X385715Y-135926190D01*
X195238Y-135878571D01*
X100000Y-135830952D01*
X52381Y-135783333D01*
X4762Y-135688095D01*
X4762Y-135592857D01*
X52381Y-135497619D01*
X100000Y-135450000D01*
X195238Y-135402381D01*
X433334Y-135402381D01*
X576191Y-135450000D01*
X1576191Y-136307143D02*
X1528572Y-136354762D01*
X1385715Y-136402381D01*
X1290477Y-136402381D01*
X1147619Y-136354762D01*
X1052381Y-136259524D01*
X1004762Y-136164286D01*
X957143Y-135973810D01*
X957143Y-135830952D01*
X1004762Y-135640476D01*
X1052381Y-135545238D01*
X1147619Y-135450000D01*
X1290477Y-135402381D01*
X1385715Y-135402381D01*
X1528572Y-135450000D01*
X1576191Y-135497619D01*
X2576191Y-136402381D02*
X2242857Y-135926190D01*
X2004762Y-136402381D02*
X2004762Y-135402381D01*
X2385715Y-135402381D01*
X2480953Y-135450000D01*
X2528572Y-135497619D01*
X2576191Y-135592857D01*
X2576191Y-135735714D01*
X2528572Y-135830952D01*
X2480953Y-135878571D01*
X2385715Y-135926190D01*
X2004762Y-135926190D01*
X3004762Y-135878571D02*
X3338096Y-135878571D01*
X3480953Y-136402381D02*
X3004762Y-136402381D01*
X3004762Y-135402381D01*
X3480953Y-135402381D01*
X3814286Y-135402381D02*
X4052381Y-136402381D01*
X4242858Y-135688095D01*
X4433334Y-136402381D01*
X4671429Y-135402381D01*
X4814286Y-136497619D02*
X5576191Y-136497619D01*
X5814286Y-136402381D02*
X5814286Y-135402381D01*
X5814286Y-135878571D02*
X6385715Y-135878571D01*
X6385715Y-136402381D02*
X6385715Y-135402381D01*
X7052381Y-135402381D02*
X7242858Y-135402381D01*
X7338096Y-135450000D01*
X7433334Y-135545238D01*
X7480953Y-135735714D01*
X7480953Y-136069048D01*
X7433334Y-136259524D01*
X7338096Y-136354762D01*
X7242858Y-136402381D01*
X7052381Y-136402381D01*
X6957143Y-136354762D01*
X6861905Y-136259524D01*
X6814286Y-136069048D01*
X6814286Y-135735714D01*
X6861905Y-135545238D01*
X6957143Y-135450000D01*
X7052381Y-135402381D01*
X8385715Y-136402381D02*
X7909524Y-136402381D01*
X7909524Y-135402381D01*
X8719048Y-135878571D02*
X9052382Y-135878571D01*
X9195239Y-136402381D02*
X8719048Y-136402381D01*
X8719048Y-135402381D01*
X9195239Y-135402381D01*
X2721428Y-131252381D02*
X3054761Y-132252381D01*
X3388095Y-131252381D01*
X3673809Y-131966667D02*
X4150000Y-131966667D01*
X3578571Y-132252381D02*
X3911904Y-131252381D01*
X4245238Y-132252381D01*
X5054762Y-132252381D02*
X4578571Y-132252381D01*
X4578571Y-131252381D01*
X5530952Y-131252381D02*
X5530952Y-131490476D01*
X5292857Y-131395238D02*
X5530952Y-131490476D01*
X5769048Y-131395238D01*
X5388095Y-131680952D02*
X5530952Y-131490476D01*
X5673810Y-131680952D01*
X6292857Y-131252381D02*
X6292857Y-131490476D01*
X6054762Y-131395238D02*
X6292857Y-131490476D01*
X6530953Y-131395238D01*
X6150000Y-131680952D02*
X6292857Y-131490476D01*
X6435715Y-131680952D01*
X332504762Y-6354762D02*
X332647619Y-6402381D01*
X332885715Y-6402381D01*
X332980953Y-6354762D01*
X333028572Y-6307143D01*
X333076191Y-6211905D01*
X333076191Y-6116667D01*
X333028572Y-6021429D01*
X332980953Y-5973810D01*
X332885715Y-5926190D01*
X332695238Y-5878571D01*
X332600000Y-5830952D01*
X332552381Y-5783333D01*
X332504762Y-5688095D01*
X332504762Y-5592857D01*
X332552381Y-5497619D01*
X332600000Y-5450000D01*
X332695238Y-5402381D01*
X332933334Y-5402381D01*
X333076191Y-5450000D01*
X334076191Y-6307143D02*
X334028572Y-6354762D01*
X333885715Y-6402381D01*
X333790477Y-6402381D01*
X333647619Y-6354762D01*
X333552381Y-6259524D01*
X333504762Y-6164286D01*
X333457143Y-5973810D01*
X333457143Y-5830952D01*
X333504762Y-5640476D01*
X333552381Y-5545238D01*
X333647619Y-5450000D01*
X333790477Y-5402381D01*
X333885715Y-5402381D01*
X334028572Y-5450000D01*
X334076191Y-5497619D01*
X335076191Y-6402381D02*
X334742857Y-5926190D01*
X334504762Y-6402381D02*
X334504762Y-5402381D01*
X334885715Y-5402381D01*
X334980953Y-5450000D01*
X335028572Y-5497619D01*
X335076191Y-5592857D01*
X335076191Y-5735714D01*
X335028572Y-5830952D01*
X334980953Y-5878571D01*
X334885715Y-5926190D01*
X334504762Y-5926190D01*
X335504762Y-5878571D02*
X335838096Y-5878571D01*
X335980953Y-6402381D02*
X335504762Y-6402381D01*
X335504762Y-5402381D01*
X335980953Y-5402381D01*
X336314286Y-5402381D02*
X336552381Y-6402381D01*
X336742858Y-5688095D01*
X336933334Y-6402381D01*
X337171429Y-5402381D01*
X337314286Y-6497619D02*
X338076191Y-6497619D01*
X338314286Y-6402381D02*
X338314286Y-5402381D01*
X338314286Y-5878571D02*
X338885715Y-5878571D01*
X338885715Y-6402381D02*
X338885715Y-5402381D01*
X339552381Y-5402381D02*
X339742858Y-5402381D01*
X339838096Y-5450000D01*
X339933334Y-5545238D01*
X339980953Y-5735714D01*
X339980953Y-6069048D01*
X339933334Y-6259524D01*
X339838096Y-6354762D01*
X339742858Y-6402381D01*
X339552381Y-6402381D01*
X339457143Y-6354762D01*
X339361905Y-6259524D01*
X339314286Y-6069048D01*
X339314286Y-5735714D01*
X339361905Y-5545238D01*
X339457143Y-5450000D01*
X339552381Y-5402381D01*
X340885715Y-6402381D02*
X340409524Y-6402381D01*
X340409524Y-5402381D01*
X341219048Y-5878571D02*
X341552382Y-5878571D01*
X341695239Y-6402381D02*
X341219048Y-6402381D01*
X341219048Y-5402381D01*
X341695239Y-5402381D01*
X335221428Y-1252381D02*
X335554761Y-2252381D01*
X335888095Y-1252381D01*
X336173809Y-1966667D02*
X336650000Y-1966667D01*
X336078571Y-2252381D02*
X336411904Y-1252381D01*
X336745238Y-2252381D01*
X337554762Y-2252381D02*
X337078571Y-2252381D01*
X337078571Y-1252381D01*
X338030952Y-1252381D02*
X338030952Y-1490476D01*
X337792857Y-1395238D02*
X338030952Y-1490476D01*
X338269048Y-1395238D01*
X337888095Y-1680952D02*
X338030952Y-1490476D01*
X338173810Y-1680952D01*
X338792857Y-1252381D02*
X338792857Y-1490476D01*
X338554762Y-1395238D02*
X338792857Y-1490476D01*
X339030953Y-1395238D01*
X338650000Y-1680952D02*
X338792857Y-1490476D01*
X338935715Y-1680952D01*
X332004762Y-136854762D02*
X332147619Y-136902381D01*
X332385715Y-136902381D01*
X332480953Y-136854762D01*
X332528572Y-136807143D01*
X332576191Y-136711905D01*
X332576191Y-136616667D01*
X332528572Y-136521429D01*
X332480953Y-136473810D01*
X332385715Y-136426190D01*
X332195238Y-136378571D01*
X332100000Y-136330952D01*
X332052381Y-136283333D01*
X332004762Y-136188095D01*
X332004762Y-136092857D01*
X332052381Y-135997619D01*
X332100000Y-135950000D01*
X332195238Y-135902381D01*
X332433334Y-135902381D01*
X332576191Y-135950000D01*
X333576191Y-136807143D02*
X333528572Y-136854762D01*
X333385715Y-136902381D01*
X333290477Y-136902381D01*
X333147619Y-136854762D01*
X333052381Y-136759524D01*
X333004762Y-136664286D01*
X332957143Y-136473810D01*
X332957143Y-136330952D01*
X333004762Y-136140476D01*
X333052381Y-136045238D01*
X333147619Y-135950000D01*
X333290477Y-135902381D01*
X333385715Y-135902381D01*
X333528572Y-135950000D01*
X333576191Y-135997619D01*
X334576191Y-136902381D02*
X334242857Y-136426190D01*
X334004762Y-136902381D02*
X334004762Y-135902381D01*
X334385715Y-135902381D01*
X334480953Y-135950000D01*
X334528572Y-135997619D01*
X334576191Y-136092857D01*
X334576191Y-136235714D01*
X334528572Y-136330952D01*
X334480953Y-136378571D01*
X334385715Y-136426190D01*
X334004762Y-136426190D01*
X335004762Y-136378571D02*
X335338096Y-136378571D01*
X335480953Y-136902381D02*
X335004762Y-136902381D01*
X335004762Y-135902381D01*
X335480953Y-135902381D01*
X335814286Y-135902381D02*
X336052381Y-136902381D01*
X336242858Y-136188095D01*
X336433334Y-136902381D01*
X336671429Y-135902381D01*
X336814286Y-136997619D02*
X337576191Y-136997619D01*
X337814286Y-136902381D02*
X337814286Y-135902381D01*
X337814286Y-136378571D02*
X338385715Y-136378571D01*
X338385715Y-136902381D02*
X338385715Y-135902381D01*
X339052381Y-135902381D02*
X339242858Y-135902381D01*
X339338096Y-135950000D01*
X339433334Y-136045238D01*
X339480953Y-136235714D01*
X339480953Y-136569048D01*
X339433334Y-136759524D01*
X339338096Y-136854762D01*
X339242858Y-136902381D01*
X339052381Y-136902381D01*
X338957143Y-136854762D01*
X338861905Y-136759524D01*
X338814286Y-136569048D01*
X338814286Y-136235714D01*
X338861905Y-136045238D01*
X338957143Y-135950000D01*
X339052381Y-135902381D01*
X340385715Y-136902381D02*
X339909524Y-136902381D01*
X339909524Y-135902381D01*
X340719048Y-136378571D02*
X341052382Y-136378571D01*
X341195239Y-136902381D02*
X340719048Y-136902381D01*
X340719048Y-135902381D01*
X341195239Y-135902381D01*
X334721428Y-131752381D02*
X335054761Y-132752381D01*
X335388095Y-131752381D01*
X335673809Y-132466667D02*
X336150000Y-132466667D01*
X335578571Y-132752381D02*
X335911904Y-131752381D01*
X336245238Y-132752381D01*
X337054762Y-132752381D02*
X336578571Y-132752381D01*
X336578571Y-131752381D01*
X337530952Y-131752381D02*
X337530952Y-131990476D01*
X337292857Y-131895238D02*
X337530952Y-131990476D01*
X337769048Y-131895238D01*
X337388095Y-132180952D02*
X337530952Y-131990476D01*
X337673810Y-132180952D01*
X338292857Y-131752381D02*
X338292857Y-131990476D01*
X338054762Y-131895238D02*
X338292857Y-131990476D01*
X338530953Y-131895238D01*
X338150000Y-132180952D02*
X338292857Y-131990476D01*
X338435715Y-132180952D01*
X35004762Y-19854762D02*
X35147619Y-19902381D01*
X35385715Y-19902381D01*
X35480953Y-19854762D01*
X35528572Y-19807143D01*
X35576191Y-19711905D01*
X35576191Y-19616667D01*
X35528572Y-19521429D01*
X35480953Y-19473810D01*
X35385715Y-19426190D01*
X35195238Y-19378571D01*
X35100000Y-19330952D01*
X35052381Y-19283333D01*
X35004762Y-19188095D01*
X35004762Y-19092857D01*
X35052381Y-18997619D01*
X35100000Y-18950000D01*
X35195238Y-18902381D01*
X35433334Y-18902381D01*
X35576191Y-18950000D01*
X36576191Y-19807143D02*
X36528572Y-19854762D01*
X36385715Y-19902381D01*
X36290477Y-19902381D01*
X36147619Y-19854762D01*
X36052381Y-19759524D01*
X36004762Y-19664286D01*
X35957143Y-19473810D01*
X35957143Y-19330952D01*
X36004762Y-19140476D01*
X36052381Y-19045238D01*
X36147619Y-18950000D01*
X36290477Y-18902381D01*
X36385715Y-18902381D01*
X36528572Y-18950000D01*
X36576191Y-18997619D01*
X37576191Y-19902381D02*
X37242857Y-19426190D01*
X37004762Y-19902381D02*
X37004762Y-18902381D01*
X37385715Y-18902381D01*
X37480953Y-18950000D01*
X37528572Y-18997619D01*
X37576191Y-19092857D01*
X37576191Y-19235714D01*
X37528572Y-19330952D01*
X37480953Y-19378571D01*
X37385715Y-19426190D01*
X37004762Y-19426190D01*
X38004762Y-19378571D02*
X38338096Y-19378571D01*
X38480953Y-19902381D02*
X38004762Y-19902381D01*
X38004762Y-18902381D01*
X38480953Y-18902381D01*
X38814286Y-18902381D02*
X39052381Y-19902381D01*
X39242858Y-19188095D01*
X39433334Y-19902381D01*
X39671429Y-18902381D01*
X39814286Y-19997619D02*
X40576191Y-19997619D01*
X40814286Y-19902381D02*
X40814286Y-18902381D01*
X40814286Y-19378571D02*
X41385715Y-19378571D01*
X41385715Y-19902381D02*
X41385715Y-18902381D01*
X42052381Y-18902381D02*
X42242858Y-18902381D01*
X42338096Y-18950000D01*
X42433334Y-19045238D01*
X42480953Y-19235714D01*
X42480953Y-19569048D01*
X42433334Y-19759524D01*
X42338096Y-19854762D01*
X42242858Y-19902381D01*
X42052381Y-19902381D01*
X41957143Y-19854762D01*
X41861905Y-19759524D01*
X41814286Y-19569048D01*
X41814286Y-19235714D01*
X41861905Y-19045238D01*
X41957143Y-18950000D01*
X42052381Y-18902381D01*
X43385715Y-19902381D02*
X42909524Y-19902381D01*
X42909524Y-18902381D01*
X43719048Y-19378571D02*
X44052382Y-19378571D01*
X44195239Y-19902381D02*
X43719048Y-19902381D01*
X43719048Y-18902381D01*
X44195239Y-18902381D01*
X37721428Y-14752381D02*
X38054761Y-15752381D01*
X38388095Y-14752381D01*
X38673809Y-15466667D02*
X39150000Y-15466667D01*
X38578571Y-15752381D02*
X38911904Y-14752381D01*
X39245238Y-15752381D01*
X40054762Y-15752381D02*
X39578571Y-15752381D01*
X39578571Y-14752381D01*
X40530952Y-14752381D02*
X40530952Y-14990476D01*
X40292857Y-14895238D02*
X40530952Y-14990476D01*
X40769048Y-14895238D01*
X40388095Y-15180952D02*
X40530952Y-14990476D01*
X40673810Y-15180952D01*
X41292857Y-14752381D02*
X41292857Y-14990476D01*
X41054762Y-14895238D02*
X41292857Y-14990476D01*
X41530953Y-14895238D01*
X41150000Y-15180952D02*
X41292857Y-14990476D01*
X41435715Y-15180952D01*
X17504762Y-47354762D02*
X17647619Y-47402381D01*
X17885715Y-47402381D01*
X17980953Y-47354762D01*
X18028572Y-47307143D01*
X18076191Y-47211905D01*
X18076191Y-47116667D01*
X18028572Y-47021429D01*
X17980953Y-46973810D01*
X17885715Y-46926190D01*
X17695238Y-46878571D01*
X17600000Y-46830952D01*
X17552381Y-46783333D01*
X17504762Y-46688095D01*
X17504762Y-46592857D01*
X17552381Y-46497619D01*
X17600000Y-46450000D01*
X17695238Y-46402381D01*
X17933334Y-46402381D01*
X18076191Y-46450000D01*
X19076191Y-47307143D02*
X19028572Y-47354762D01*
X18885715Y-47402381D01*
X18790477Y-47402381D01*
X18647619Y-47354762D01*
X18552381Y-47259524D01*
X18504762Y-47164286D01*
X18457143Y-46973810D01*
X18457143Y-46830952D01*
X18504762Y-46640476D01*
X18552381Y-46545238D01*
X18647619Y-46450000D01*
X18790477Y-46402381D01*
X18885715Y-46402381D01*
X19028572Y-46450000D01*
X19076191Y-46497619D01*
X20076191Y-47402381D02*
X19742857Y-46926190D01*
X19504762Y-47402381D02*
X19504762Y-46402381D01*
X19885715Y-46402381D01*
X19980953Y-46450000D01*
X20028572Y-46497619D01*
X20076191Y-46592857D01*
X20076191Y-46735714D01*
X20028572Y-46830952D01*
X19980953Y-46878571D01*
X19885715Y-46926190D01*
X19504762Y-46926190D01*
X20504762Y-46878571D02*
X20838096Y-46878571D01*
X20980953Y-47402381D02*
X20504762Y-47402381D01*
X20504762Y-46402381D01*
X20980953Y-46402381D01*
X21314286Y-46402381D02*
X21552381Y-47402381D01*
X21742858Y-46688095D01*
X21933334Y-47402381D01*
X22171429Y-46402381D01*
X22314286Y-47497619D02*
X23076191Y-47497619D01*
X23314286Y-47402381D02*
X23314286Y-46402381D01*
X23314286Y-46878571D02*
X23885715Y-46878571D01*
X23885715Y-47402381D02*
X23885715Y-46402381D01*
X24552381Y-46402381D02*
X24742858Y-46402381D01*
X24838096Y-46450000D01*
X24933334Y-46545238D01*
X24980953Y-46735714D01*
X24980953Y-47069048D01*
X24933334Y-47259524D01*
X24838096Y-47354762D01*
X24742858Y-47402381D01*
X24552381Y-47402381D01*
X24457143Y-47354762D01*
X24361905Y-47259524D01*
X24314286Y-47069048D01*
X24314286Y-46735714D01*
X24361905Y-46545238D01*
X24457143Y-46450000D01*
X24552381Y-46402381D01*
X25885715Y-47402381D02*
X25409524Y-47402381D01*
X25409524Y-46402381D01*
X26219048Y-46878571D02*
X26552382Y-46878571D01*
X26695239Y-47402381D02*
X26219048Y-47402381D01*
X26219048Y-46402381D01*
X26695239Y-46402381D01*
X20221428Y-42252381D02*
X20554761Y-43252381D01*
X20888095Y-42252381D01*
X21173809Y-42966667D02*
X21650000Y-42966667D01*
X21078571Y-43252381D02*
X21411904Y-42252381D01*
X21745238Y-43252381D01*
X22554762Y-43252381D02*
X22078571Y-43252381D01*
X22078571Y-42252381D01*
X23030952Y-42252381D02*
X23030952Y-42490476D01*
X22792857Y-42395238D02*
X23030952Y-42490476D01*
X23269048Y-42395238D01*
X22888095Y-42680952D02*
X23030952Y-42490476D01*
X23173810Y-42680952D01*
X23792857Y-42252381D02*
X23792857Y-42490476D01*
X23554762Y-42395238D02*
X23792857Y-42490476D01*
X24030953Y-42395238D01*
X23650000Y-42680952D02*
X23792857Y-42490476D01*
X23935715Y-42680952D01*
X20004762Y-103854762D02*
X20147619Y-103902381D01*
X20385715Y-103902381D01*
X20480953Y-103854762D01*
X20528572Y-103807143D01*
X20576191Y-103711905D01*
X20576191Y-103616667D01*
X20528572Y-103521429D01*
X20480953Y-103473810D01*
X20385715Y-103426190D01*
X20195238Y-103378571D01*
X20100000Y-103330952D01*
X20052381Y-103283333D01*
X20004762Y-103188095D01*
X20004762Y-103092857D01*
X20052381Y-102997619D01*
X20100000Y-102950000D01*
X20195238Y-102902381D01*
X20433334Y-102902381D01*
X20576191Y-102950000D01*
X21576191Y-103807143D02*
X21528572Y-103854762D01*
X21385715Y-103902381D01*
X21290477Y-103902381D01*
X21147619Y-103854762D01*
X21052381Y-103759524D01*
X21004762Y-103664286D01*
X20957143Y-103473810D01*
X20957143Y-103330952D01*
X21004762Y-103140476D01*
X21052381Y-103045238D01*
X21147619Y-102950000D01*
X21290477Y-102902381D01*
X21385715Y-102902381D01*
X21528572Y-102950000D01*
X21576191Y-102997619D01*
X22576191Y-103902381D02*
X22242857Y-103426190D01*
X22004762Y-103902381D02*
X22004762Y-102902381D01*
X22385715Y-102902381D01*
X22480953Y-102950000D01*
X22528572Y-102997619D01*
X22576191Y-103092857D01*
X22576191Y-103235714D01*
X22528572Y-103330952D01*
X22480953Y-103378571D01*
X22385715Y-103426190D01*
X22004762Y-103426190D01*
X23004762Y-103378571D02*
X23338096Y-103378571D01*
X23480953Y-103902381D02*
X23004762Y-103902381D01*
X23004762Y-102902381D01*
X23480953Y-102902381D01*
X23814286Y-102902381D02*
X24052381Y-103902381D01*
X24242858Y-103188095D01*
X24433334Y-103902381D01*
X24671429Y-102902381D01*
X24814286Y-103997619D02*
X25576191Y-103997619D01*
X25814286Y-103902381D02*
X25814286Y-102902381D01*
X25814286Y-103378571D02*
X26385715Y-103378571D01*
X26385715Y-103902381D02*
X26385715Y-102902381D01*
X27052381Y-102902381D02*
X27242858Y-102902381D01*
X27338096Y-102950000D01*
X27433334Y-103045238D01*
X27480953Y-103235714D01*
X27480953Y-103569048D01*
X27433334Y-103759524D01*
X27338096Y-103854762D01*
X27242858Y-103902381D01*
X27052381Y-103902381D01*
X26957143Y-103854762D01*
X26861905Y-103759524D01*
X26814286Y-103569048D01*
X26814286Y-103235714D01*
X26861905Y-103045238D01*
X26957143Y-102950000D01*
X27052381Y-102902381D01*
X28385715Y-103902381D02*
X27909524Y-103902381D01*
X27909524Y-102902381D01*
X28719048Y-103378571D02*
X29052382Y-103378571D01*
X29195239Y-103902381D02*
X28719048Y-103902381D01*
X28719048Y-102902381D01*
X29195239Y-102902381D01*
X22721428Y-98752381D02*
X23054761Y-99752381D01*
X23388095Y-98752381D01*
X23673809Y-99466667D02*
X24150000Y-99466667D01*
X23578571Y-99752381D02*
X23911904Y-98752381D01*
X24245238Y-99752381D01*
X25054762Y-99752381D02*
X24578571Y-99752381D01*
X24578571Y-98752381D01*
X25530952Y-98752381D02*
X25530952Y-98990476D01*
X25292857Y-98895238D02*
X25530952Y-98990476D01*
X25769048Y-98895238D01*
X25388095Y-99180952D02*
X25530952Y-98990476D01*
X25673810Y-99180952D01*
X26292857Y-98752381D02*
X26292857Y-98990476D01*
X26054762Y-98895238D02*
X26292857Y-98990476D01*
X26530953Y-98895238D01*
X26150000Y-99180952D02*
X26292857Y-98990476D01*
X26435715Y-99180952D01*
X177504762Y-5854762D02*
X177647619Y-5902381D01*
X177885715Y-5902381D01*
X177980953Y-5854762D01*
X178028572Y-5807143D01*
X178076191Y-5711905D01*
X178076191Y-5616667D01*
X178028572Y-5521429D01*
X177980953Y-5473810D01*
X177885715Y-5426190D01*
X177695238Y-5378571D01*
X177600000Y-5330952D01*
X177552381Y-5283333D01*
X177504762Y-5188095D01*
X177504762Y-5092857D01*
X177552381Y-4997619D01*
X177600000Y-4950000D01*
X177695238Y-4902381D01*
X177933334Y-4902381D01*
X178076191Y-4950000D01*
X179076191Y-5807143D02*
X179028572Y-5854762D01*
X178885715Y-5902381D01*
X178790477Y-5902381D01*
X178647619Y-5854762D01*
X178552381Y-5759524D01*
X178504762Y-5664286D01*
X178457143Y-5473810D01*
X178457143Y-5330952D01*
X178504762Y-5140476D01*
X178552381Y-5045238D01*
X178647619Y-4950000D01*
X178790477Y-4902381D01*
X178885715Y-4902381D01*
X179028572Y-4950000D01*
X179076191Y-4997619D01*
X180076191Y-5902381D02*
X179742857Y-5426190D01*
X179504762Y-5902381D02*
X179504762Y-4902381D01*
X179885715Y-4902381D01*
X179980953Y-4950000D01*
X180028572Y-4997619D01*
X180076191Y-5092857D01*
X180076191Y-5235714D01*
X180028572Y-5330952D01*
X179980953Y-5378571D01*
X179885715Y-5426190D01*
X179504762Y-5426190D01*
X180504762Y-5378571D02*
X180838096Y-5378571D01*
X180980953Y-5902381D02*
X180504762Y-5902381D01*
X180504762Y-4902381D01*
X180980953Y-4902381D01*
X181314286Y-4902381D02*
X181552381Y-5902381D01*
X181742858Y-5188095D01*
X181933334Y-5902381D01*
X182171429Y-4902381D01*
X182314286Y-5997619D02*
X183076191Y-5997619D01*
X183314286Y-5902381D02*
X183314286Y-4902381D01*
X183314286Y-5378571D02*
X183885715Y-5378571D01*
X183885715Y-5902381D02*
X183885715Y-4902381D01*
X184552381Y-4902381D02*
X184742858Y-4902381D01*
X184838096Y-4950000D01*
X184933334Y-5045238D01*
X184980953Y-5235714D01*
X184980953Y-5569048D01*
X184933334Y-5759524D01*
X184838096Y-5854762D01*
X184742858Y-5902381D01*
X184552381Y-5902381D01*
X184457143Y-5854762D01*
X184361905Y-5759524D01*
X184314286Y-5569048D01*
X184314286Y-5235714D01*
X184361905Y-5045238D01*
X184457143Y-4950000D01*
X184552381Y-4902381D01*
X185885715Y-5902381D02*
X185409524Y-5902381D01*
X185409524Y-4902381D01*
X186219048Y-5378571D02*
X186552382Y-5378571D01*
X186695239Y-5902381D02*
X186219048Y-5902381D01*
X186219048Y-4902381D01*
X186695239Y-4902381D01*
X180221428Y-752381D02*
X180554761Y-1752381D01*
X180888095Y-752381D01*
X181173809Y-1466667D02*
X181650000Y-1466667D01*
X181078571Y-1752381D02*
X181411904Y-752381D01*
X181745238Y-1752381D01*
X182554762Y-1752381D02*
X182078571Y-1752381D01*
X182078571Y-752381D01*
X183030952Y-752381D02*
X183030952Y-990476D01*
X182792857Y-895238D02*
X183030952Y-990476D01*
X183269048Y-895238D01*
X182888095Y-1180952D02*
X183030952Y-990476D01*
X183173810Y-1180952D01*
X183792857Y-752381D02*
X183792857Y-990476D01*
X183554762Y-895238D02*
X183792857Y-990476D01*
X184030953Y-895238D01*
X183650000Y-1180952D02*
X183792857Y-990476D01*
X183935715Y-1180952D01*
X239504762Y-6354762D02*
X239647619Y-6402381D01*
X239885715Y-6402381D01*
X239980953Y-6354762D01*
X240028572Y-6307143D01*
X240076191Y-6211905D01*
X240076191Y-6116667D01*
X240028572Y-6021429D01*
X239980953Y-5973810D01*
X239885715Y-5926190D01*
X239695238Y-5878571D01*
X239600000Y-5830952D01*
X239552381Y-5783333D01*
X239504762Y-5688095D01*
X239504762Y-5592857D01*
X239552381Y-5497619D01*
X239600000Y-5450000D01*
X239695238Y-5402381D01*
X239933334Y-5402381D01*
X240076191Y-5450000D01*
X241076191Y-6307143D02*
X241028572Y-6354762D01*
X240885715Y-6402381D01*
X240790477Y-6402381D01*
X240647619Y-6354762D01*
X240552381Y-6259524D01*
X240504762Y-6164286D01*
X240457143Y-5973810D01*
X240457143Y-5830952D01*
X240504762Y-5640476D01*
X240552381Y-5545238D01*
X240647619Y-5450000D01*
X240790477Y-5402381D01*
X240885715Y-5402381D01*
X241028572Y-5450000D01*
X241076191Y-5497619D01*
X242076191Y-6402381D02*
X241742857Y-5926190D01*
X241504762Y-6402381D02*
X241504762Y-5402381D01*
X241885715Y-5402381D01*
X241980953Y-5450000D01*
X242028572Y-5497619D01*
X242076191Y-5592857D01*
X242076191Y-5735714D01*
X242028572Y-5830952D01*
X241980953Y-5878571D01*
X241885715Y-5926190D01*
X241504762Y-5926190D01*
X242504762Y-5878571D02*
X242838096Y-5878571D01*
X242980953Y-6402381D02*
X242504762Y-6402381D01*
X242504762Y-5402381D01*
X242980953Y-5402381D01*
X243314286Y-5402381D02*
X243552381Y-6402381D01*
X243742858Y-5688095D01*
X243933334Y-6402381D01*
X244171429Y-5402381D01*
X244314286Y-6497619D02*
X245076191Y-6497619D01*
X245314286Y-6402381D02*
X245314286Y-5402381D01*
X245314286Y-5878571D02*
X245885715Y-5878571D01*
X245885715Y-6402381D02*
X245885715Y-5402381D01*
X246552381Y-5402381D02*
X246742858Y-5402381D01*
X246838096Y-5450000D01*
X246933334Y-5545238D01*
X246980953Y-5735714D01*
X246980953Y-6069048D01*
X246933334Y-6259524D01*
X246838096Y-6354762D01*
X246742858Y-6402381D01*
X246552381Y-6402381D01*
X246457143Y-6354762D01*
X246361905Y-6259524D01*
X246314286Y-6069048D01*
X246314286Y-5735714D01*
X246361905Y-5545238D01*
X246457143Y-5450000D01*
X246552381Y-5402381D01*
X247885715Y-6402381D02*
X247409524Y-6402381D01*
X247409524Y-5402381D01*
X248219048Y-5878571D02*
X248552382Y-5878571D01*
X248695239Y-6402381D02*
X248219048Y-6402381D01*
X248219048Y-5402381D01*
X248695239Y-5402381D01*
X242221428Y-1252381D02*
X242554761Y-2252381D01*
X242888095Y-1252381D01*
X243173809Y-1966667D02*
X243650000Y-1966667D01*
X243078571Y-2252381D02*
X243411904Y-1252381D01*
X243745238Y-2252381D01*
X244554762Y-2252381D02*
X244078571Y-2252381D01*
X244078571Y-1252381D01*
X245030952Y-1252381D02*
X245030952Y-1490476D01*
X244792857Y-1395238D02*
X245030952Y-1490476D01*
X245269048Y-1395238D01*
X244888095Y-1680952D02*
X245030952Y-1490476D01*
X245173810Y-1680952D01*
X245792857Y-1252381D02*
X245792857Y-1490476D01*
X245554762Y-1395238D02*
X245792857Y-1490476D01*
X246030953Y-1395238D01*
X245650000Y-1680952D02*
X245792857Y-1490476D01*
X245935715Y-1680952D01*
X177004762Y-32854762D02*
X177147619Y-32902381D01*
X177385715Y-32902381D01*
X177480953Y-32854762D01*
X177528572Y-32807143D01*
X177576191Y-32711905D01*
X177576191Y-32616667D01*
X177528572Y-32521429D01*
X177480953Y-32473810D01*
X177385715Y-32426190D01*
X177195238Y-32378571D01*
X177100000Y-32330952D01*
X177052381Y-32283333D01*
X177004762Y-32188095D01*
X177004762Y-32092857D01*
X177052381Y-31997619D01*
X177100000Y-31950000D01*
X177195238Y-31902381D01*
X177433334Y-31902381D01*
X177576191Y-31950000D01*
X178576191Y-32807143D02*
X178528572Y-32854762D01*
X178385715Y-32902381D01*
X178290477Y-32902381D01*
X178147619Y-32854762D01*
X178052381Y-32759524D01*
X178004762Y-32664286D01*
X177957143Y-32473810D01*
X177957143Y-32330952D01*
X178004762Y-32140476D01*
X178052381Y-32045238D01*
X178147619Y-31950000D01*
X178290477Y-31902381D01*
X178385715Y-31902381D01*
X178528572Y-31950000D01*
X178576191Y-31997619D01*
X179576191Y-32902381D02*
X179242857Y-32426190D01*
X179004762Y-32902381D02*
X179004762Y-31902381D01*
X179385715Y-31902381D01*
X179480953Y-31950000D01*
X179528572Y-31997619D01*
X179576191Y-32092857D01*
X179576191Y-32235714D01*
X179528572Y-32330952D01*
X179480953Y-32378571D01*
X179385715Y-32426190D01*
X179004762Y-32426190D01*
X180004762Y-32378571D02*
X180338096Y-32378571D01*
X180480953Y-32902381D02*
X180004762Y-32902381D01*
X180004762Y-31902381D01*
X180480953Y-31902381D01*
X180814286Y-31902381D02*
X181052381Y-32902381D01*
X181242858Y-32188095D01*
X181433334Y-32902381D01*
X181671429Y-31902381D01*
X181814286Y-32997619D02*
X182576191Y-32997619D01*
X182814286Y-32902381D02*
X182814286Y-31902381D01*
X182814286Y-32378571D02*
X183385715Y-32378571D01*
X183385715Y-32902381D02*
X183385715Y-31902381D01*
X184052381Y-31902381D02*
X184242858Y-31902381D01*
X184338096Y-31950000D01*
X184433334Y-32045238D01*
X184480953Y-32235714D01*
X184480953Y-32569048D01*
X184433334Y-32759524D01*
X184338096Y-32854762D01*
X184242858Y-32902381D01*
X184052381Y-32902381D01*
X183957143Y-32854762D01*
X183861905Y-32759524D01*
X183814286Y-32569048D01*
X183814286Y-32235714D01*
X183861905Y-32045238D01*
X183957143Y-31950000D01*
X184052381Y-31902381D01*
X185385715Y-32902381D02*
X184909524Y-32902381D01*
X184909524Y-31902381D01*
X185719048Y-32378571D02*
X186052382Y-32378571D01*
X186195239Y-32902381D02*
X185719048Y-32902381D01*
X185719048Y-31902381D01*
X186195239Y-31902381D01*
X179721428Y-27752381D02*
X180054761Y-28752381D01*
X180388095Y-27752381D01*
X180673809Y-28466667D02*
X181150000Y-28466667D01*
X180578571Y-28752381D02*
X180911904Y-27752381D01*
X181245238Y-28752381D01*
X182054762Y-28752381D02*
X181578571Y-28752381D01*
X181578571Y-27752381D01*
X182530952Y-27752381D02*
X182530952Y-27990476D01*
X182292857Y-27895238D02*
X182530952Y-27990476D01*
X182769048Y-27895238D01*
X182388095Y-28180952D02*
X182530952Y-27990476D01*
X182673810Y-28180952D01*
X183292857Y-27752381D02*
X183292857Y-27990476D01*
X183054762Y-27895238D02*
X183292857Y-27990476D01*
X183530953Y-27895238D01*
X183150000Y-28180952D02*
X183292857Y-27990476D01*
X183435715Y-28180952D01*
X238504762Y-32854762D02*
X238647619Y-32902381D01*
X238885715Y-32902381D01*
X238980953Y-32854762D01*
X239028572Y-32807143D01*
X239076191Y-32711905D01*
X239076191Y-32616667D01*
X239028572Y-32521429D01*
X238980953Y-32473810D01*
X238885715Y-32426190D01*
X238695238Y-32378571D01*
X238600000Y-32330952D01*
X238552381Y-32283333D01*
X238504762Y-32188095D01*
X238504762Y-32092857D01*
X238552381Y-31997619D01*
X238600000Y-31950000D01*
X238695238Y-31902381D01*
X238933334Y-31902381D01*
X239076191Y-31950000D01*
X240076191Y-32807143D02*
X240028572Y-32854762D01*
X239885715Y-32902381D01*
X239790477Y-32902381D01*
X239647619Y-32854762D01*
X239552381Y-32759524D01*
X239504762Y-32664286D01*
X239457143Y-32473810D01*
X239457143Y-32330952D01*
X239504762Y-32140476D01*
X239552381Y-32045238D01*
X239647619Y-31950000D01*
X239790477Y-31902381D01*
X239885715Y-31902381D01*
X240028572Y-31950000D01*
X240076191Y-31997619D01*
X241076191Y-32902381D02*
X240742857Y-32426190D01*
X240504762Y-32902381D02*
X240504762Y-31902381D01*
X240885715Y-31902381D01*
X240980953Y-31950000D01*
X241028572Y-31997619D01*
X241076191Y-32092857D01*
X241076191Y-32235714D01*
X241028572Y-32330952D01*
X240980953Y-32378571D01*
X240885715Y-32426190D01*
X240504762Y-32426190D01*
X241504762Y-32378571D02*
X241838096Y-32378571D01*
X241980953Y-32902381D02*
X241504762Y-32902381D01*
X241504762Y-31902381D01*
X241980953Y-31902381D01*
X242314286Y-31902381D02*
X242552381Y-32902381D01*
X242742858Y-32188095D01*
X242933334Y-32902381D01*
X243171429Y-31902381D01*
X243314286Y-32997619D02*
X244076191Y-32997619D01*
X244314286Y-32902381D02*
X244314286Y-31902381D01*
X244314286Y-32378571D02*
X244885715Y-32378571D01*
X244885715Y-32902381D02*
X244885715Y-31902381D01*
X245552381Y-31902381D02*
X245742858Y-31902381D01*
X245838096Y-31950000D01*
X245933334Y-32045238D01*
X245980953Y-32235714D01*
X245980953Y-32569048D01*
X245933334Y-32759524D01*
X245838096Y-32854762D01*
X245742858Y-32902381D01*
X245552381Y-32902381D01*
X245457143Y-32854762D01*
X245361905Y-32759524D01*
X245314286Y-32569048D01*
X245314286Y-32235714D01*
X245361905Y-32045238D01*
X245457143Y-31950000D01*
X245552381Y-31902381D01*
X246885715Y-32902381D02*
X246409524Y-32902381D01*
X246409524Y-31902381D01*
X247219048Y-32378571D02*
X247552382Y-32378571D01*
X247695239Y-32902381D02*
X247219048Y-32902381D01*
X247219048Y-31902381D01*
X247695239Y-31902381D01*
X241221428Y-27752381D02*
X241554761Y-28752381D01*
X241888095Y-27752381D01*
X242173809Y-28466667D02*
X242650000Y-28466667D01*
X242078571Y-28752381D02*
X242411904Y-27752381D01*
X242745238Y-28752381D01*
X243554762Y-28752381D02*
X243078571Y-28752381D01*
X243078571Y-27752381D01*
X244030952Y-27752381D02*
X244030952Y-27990476D01*
X243792857Y-27895238D02*
X244030952Y-27990476D01*
X244269048Y-27895238D01*
X243888095Y-28180952D02*
X244030952Y-27990476D01*
X244173810Y-28180952D01*
X244792857Y-27752381D02*
X244792857Y-27990476D01*
X244554762Y-27895238D02*
X244792857Y-27990476D01*
X245030953Y-27895238D01*
X244650000Y-28180952D02*
X244792857Y-27990476D01*
X244935715Y-28180952D01*
X176504762Y-79854762D02*
X176647619Y-79902381D01*
X176885715Y-79902381D01*
X176980953Y-79854762D01*
X177028572Y-79807143D01*
X177076191Y-79711905D01*
X177076191Y-79616667D01*
X177028572Y-79521429D01*
X176980953Y-79473810D01*
X176885715Y-79426190D01*
X176695238Y-79378571D01*
X176600000Y-79330952D01*
X176552381Y-79283333D01*
X176504762Y-79188095D01*
X176504762Y-79092857D01*
X176552381Y-78997619D01*
X176600000Y-78950000D01*
X176695238Y-78902381D01*
X176933334Y-78902381D01*
X177076191Y-78950000D01*
X178076191Y-79807143D02*
X178028572Y-79854762D01*
X177885715Y-79902381D01*
X177790477Y-79902381D01*
X177647619Y-79854762D01*
X177552381Y-79759524D01*
X177504762Y-79664286D01*
X177457143Y-79473810D01*
X177457143Y-79330952D01*
X177504762Y-79140476D01*
X177552381Y-79045238D01*
X177647619Y-78950000D01*
X177790477Y-78902381D01*
X177885715Y-78902381D01*
X178028572Y-78950000D01*
X178076191Y-78997619D01*
X179076191Y-79902381D02*
X178742857Y-79426190D01*
X178504762Y-79902381D02*
X178504762Y-78902381D01*
X178885715Y-78902381D01*
X178980953Y-78950000D01*
X179028572Y-78997619D01*
X179076191Y-79092857D01*
X179076191Y-79235714D01*
X179028572Y-79330952D01*
X178980953Y-79378571D01*
X178885715Y-79426190D01*
X178504762Y-79426190D01*
X179504762Y-79378571D02*
X179838096Y-79378571D01*
X179980953Y-79902381D02*
X179504762Y-79902381D01*
X179504762Y-78902381D01*
X179980953Y-78902381D01*
X180314286Y-78902381D02*
X180552381Y-79902381D01*
X180742858Y-79188095D01*
X180933334Y-79902381D01*
X181171429Y-78902381D01*
X181314286Y-79997619D02*
X182076191Y-79997619D01*
X182314286Y-79902381D02*
X182314286Y-78902381D01*
X182314286Y-79378571D02*
X182885715Y-79378571D01*
X182885715Y-79902381D02*
X182885715Y-78902381D01*
X183552381Y-78902381D02*
X183742858Y-78902381D01*
X183838096Y-78950000D01*
X183933334Y-79045238D01*
X183980953Y-79235714D01*
X183980953Y-79569048D01*
X183933334Y-79759524D01*
X183838096Y-79854762D01*
X183742858Y-79902381D01*
X183552381Y-79902381D01*
X183457143Y-79854762D01*
X183361905Y-79759524D01*
X183314286Y-79569048D01*
X183314286Y-79235714D01*
X183361905Y-79045238D01*
X183457143Y-78950000D01*
X183552381Y-78902381D01*
X184885715Y-79902381D02*
X184409524Y-79902381D01*
X184409524Y-78902381D01*
X185219048Y-79378571D02*
X185552382Y-79378571D01*
X185695239Y-79902381D02*
X185219048Y-79902381D01*
X185219048Y-78902381D01*
X185695239Y-78902381D01*
X179221428Y-74752381D02*
X179554761Y-75752381D01*
X179888095Y-74752381D01*
X180173809Y-75466667D02*
X180650000Y-75466667D01*
X180078571Y-75752381D02*
X180411904Y-74752381D01*
X180745238Y-75752381D01*
X181554762Y-75752381D02*
X181078571Y-75752381D01*
X181078571Y-74752381D01*
X182030952Y-74752381D02*
X182030952Y-74990476D01*
X181792857Y-74895238D02*
X182030952Y-74990476D01*
X182269048Y-74895238D01*
X181888095Y-75180952D02*
X182030952Y-74990476D01*
X182173810Y-75180952D01*
X182792857Y-74752381D02*
X182792857Y-74990476D01*
X182554762Y-74895238D02*
X182792857Y-74990476D01*
X183030953Y-74895238D01*
X182650000Y-75180952D02*
X182792857Y-74990476D01*
X182935715Y-75180952D01*
X238504762Y-79854762D02*
X238647619Y-79902381D01*
X238885715Y-79902381D01*
X238980953Y-79854762D01*
X239028572Y-79807143D01*
X239076191Y-79711905D01*
X239076191Y-79616667D01*
X239028572Y-79521429D01*
X238980953Y-79473810D01*
X238885715Y-79426190D01*
X238695238Y-79378571D01*
X238600000Y-79330952D01*
X238552381Y-79283333D01*
X238504762Y-79188095D01*
X238504762Y-79092857D01*
X238552381Y-78997619D01*
X238600000Y-78950000D01*
X238695238Y-78902381D01*
X238933334Y-78902381D01*
X239076191Y-78950000D01*
X240076191Y-79807143D02*
X240028572Y-79854762D01*
X239885715Y-79902381D01*
X239790477Y-79902381D01*
X239647619Y-79854762D01*
X239552381Y-79759524D01*
X239504762Y-79664286D01*
X239457143Y-79473810D01*
X239457143Y-79330952D01*
X239504762Y-79140476D01*
X239552381Y-79045238D01*
X239647619Y-78950000D01*
X239790477Y-78902381D01*
X239885715Y-78902381D01*
X240028572Y-78950000D01*
X240076191Y-78997619D01*
X241076191Y-79902381D02*
X240742857Y-79426190D01*
X240504762Y-79902381D02*
X240504762Y-78902381D01*
X240885715Y-78902381D01*
X240980953Y-78950000D01*
X241028572Y-78997619D01*
X241076191Y-79092857D01*
X241076191Y-79235714D01*
X241028572Y-79330952D01*
X240980953Y-79378571D01*
X240885715Y-79426190D01*
X240504762Y-79426190D01*
X241504762Y-79378571D02*
X241838096Y-79378571D01*
X241980953Y-79902381D02*
X241504762Y-79902381D01*
X241504762Y-78902381D01*
X241980953Y-78902381D01*
X242314286Y-78902381D02*
X242552381Y-79902381D01*
X242742858Y-79188095D01*
X242933334Y-79902381D01*
X243171429Y-78902381D01*
X243314286Y-79997619D02*
X244076191Y-79997619D01*
X244314286Y-79902381D02*
X244314286Y-78902381D01*
X244314286Y-79378571D02*
X244885715Y-79378571D01*
X244885715Y-79902381D02*
X244885715Y-78902381D01*
X245552381Y-78902381D02*
X245742858Y-78902381D01*
X245838096Y-78950000D01*
X245933334Y-79045238D01*
X245980953Y-79235714D01*
X245980953Y-79569048D01*
X245933334Y-79759524D01*
X245838096Y-79854762D01*
X245742858Y-79902381D01*
X245552381Y-79902381D01*
X245457143Y-79854762D01*
X245361905Y-79759524D01*
X245314286Y-79569048D01*
X245314286Y-79235714D01*
X245361905Y-79045238D01*
X245457143Y-78950000D01*
X245552381Y-78902381D01*
X246885715Y-79902381D02*
X246409524Y-79902381D01*
X246409524Y-78902381D01*
X247219048Y-79378571D02*
X247552382Y-79378571D01*
X247695239Y-79902381D02*
X247219048Y-79902381D01*
X247219048Y-78902381D01*
X247695239Y-78902381D01*
X241221428Y-74752381D02*
X241554761Y-75752381D01*
X241888095Y-74752381D01*
X242173809Y-75466667D02*
X242650000Y-75466667D01*
X242078571Y-75752381D02*
X242411904Y-74752381D01*
X242745238Y-75752381D01*
X243554762Y-75752381D02*
X243078571Y-75752381D01*
X243078571Y-74752381D01*
X244030952Y-74752381D02*
X244030952Y-74990476D01*
X243792857Y-74895238D02*
X244030952Y-74990476D01*
X244269048Y-74895238D01*
X243888095Y-75180952D02*
X244030952Y-74990476D01*
X244173810Y-75180952D01*
X244792857Y-74752381D02*
X244792857Y-74990476D01*
X244554762Y-74895238D02*
X244792857Y-74990476D01*
X245030953Y-74895238D01*
X244650000Y-75180952D02*
X244792857Y-74990476D01*
X244935715Y-75180952D01*
X175004762Y-135354762D02*
X175147619Y-135402381D01*
X175385715Y-135402381D01*
X175480953Y-135354762D01*
X175528572Y-135307143D01*
X175576191Y-135211905D01*
X175576191Y-135116667D01*
X175528572Y-135021429D01*
X175480953Y-134973810D01*
X175385715Y-134926190D01*
X175195238Y-134878571D01*
X175100000Y-134830952D01*
X175052381Y-134783333D01*
X175004762Y-134688095D01*
X175004762Y-134592857D01*
X175052381Y-134497619D01*
X175100000Y-134450000D01*
X175195238Y-134402381D01*
X175433334Y-134402381D01*
X175576191Y-134450000D01*
X176576191Y-135307143D02*
X176528572Y-135354762D01*
X176385715Y-135402381D01*
X176290477Y-135402381D01*
X176147619Y-135354762D01*
X176052381Y-135259524D01*
X176004762Y-135164286D01*
X175957143Y-134973810D01*
X175957143Y-134830952D01*
X176004762Y-134640476D01*
X176052381Y-134545238D01*
X176147619Y-134450000D01*
X176290477Y-134402381D01*
X176385715Y-134402381D01*
X176528572Y-134450000D01*
X176576191Y-134497619D01*
X177576191Y-135402381D02*
X177242857Y-134926190D01*
X177004762Y-135402381D02*
X177004762Y-134402381D01*
X177385715Y-134402381D01*
X177480953Y-134450000D01*
X177528572Y-134497619D01*
X177576191Y-134592857D01*
X177576191Y-134735714D01*
X177528572Y-134830952D01*
X177480953Y-134878571D01*
X177385715Y-134926190D01*
X177004762Y-134926190D01*
X178004762Y-134878571D02*
X178338096Y-134878571D01*
X178480953Y-135402381D02*
X178004762Y-135402381D01*
X178004762Y-134402381D01*
X178480953Y-134402381D01*
X178814286Y-134402381D02*
X179052381Y-135402381D01*
X179242858Y-134688095D01*
X179433334Y-135402381D01*
X179671429Y-134402381D01*
X179814286Y-135497619D02*
X180576191Y-135497619D01*
X180814286Y-135402381D02*
X180814286Y-134402381D01*
X180814286Y-134878571D02*
X181385715Y-134878571D01*
X181385715Y-135402381D02*
X181385715Y-134402381D01*
X182052381Y-134402381D02*
X182242858Y-134402381D01*
X182338096Y-134450000D01*
X182433334Y-134545238D01*
X182480953Y-134735714D01*
X182480953Y-135069048D01*
X182433334Y-135259524D01*
X182338096Y-135354762D01*
X182242858Y-135402381D01*
X182052381Y-135402381D01*
X181957143Y-135354762D01*
X181861905Y-135259524D01*
X181814286Y-135069048D01*
X181814286Y-134735714D01*
X181861905Y-134545238D01*
X181957143Y-134450000D01*
X182052381Y-134402381D01*
X183385715Y-135402381D02*
X182909524Y-135402381D01*
X182909524Y-134402381D01*
X183719048Y-134878571D02*
X184052382Y-134878571D01*
X184195239Y-135402381D02*
X183719048Y-135402381D01*
X183719048Y-134402381D01*
X184195239Y-134402381D01*
X177721428Y-130252381D02*
X178054761Y-131252381D01*
X178388095Y-130252381D01*
X178673809Y-130966667D02*
X179150000Y-130966667D01*
X178578571Y-131252381D02*
X178911904Y-130252381D01*
X179245238Y-131252381D01*
X180054762Y-131252381D02*
X179578571Y-131252381D01*
X179578571Y-130252381D01*
X180530952Y-130252381D02*
X180530952Y-130490476D01*
X180292857Y-130395238D02*
X180530952Y-130490476D01*
X180769048Y-130395238D01*
X180388095Y-130680952D02*
X180530952Y-130490476D01*
X180673810Y-130680952D01*
X181292857Y-130252381D02*
X181292857Y-130490476D01*
X181054762Y-130395238D02*
X181292857Y-130490476D01*
X181530953Y-130395238D01*
X181150000Y-130680952D02*
X181292857Y-130490476D01*
X181435715Y-130680952D01*
X239504762Y-135854762D02*
X239647619Y-135902381D01*
X239885715Y-135902381D01*
X239980953Y-135854762D01*
X240028572Y-135807143D01*
X240076191Y-135711905D01*
X240076191Y-135616667D01*
X240028572Y-135521429D01*
X239980953Y-135473810D01*
X239885715Y-135426190D01*
X239695238Y-135378571D01*
X239600000Y-135330952D01*
X239552381Y-135283333D01*
X239504762Y-135188095D01*
X239504762Y-135092857D01*
X239552381Y-134997619D01*
X239600000Y-134950000D01*
X239695238Y-134902381D01*
X239933334Y-134902381D01*
X240076191Y-134950000D01*
X241076191Y-135807143D02*
X241028572Y-135854762D01*
X240885715Y-135902381D01*
X240790477Y-135902381D01*
X240647619Y-135854762D01*
X240552381Y-135759524D01*
X240504762Y-135664286D01*
X240457143Y-135473810D01*
X240457143Y-135330952D01*
X240504762Y-135140476D01*
X240552381Y-135045238D01*
X240647619Y-134950000D01*
X240790477Y-134902381D01*
X240885715Y-134902381D01*
X241028572Y-134950000D01*
X241076191Y-134997619D01*
X242076191Y-135902381D02*
X241742857Y-135426190D01*
X241504762Y-135902381D02*
X241504762Y-134902381D01*
X241885715Y-134902381D01*
X241980953Y-134950000D01*
X242028572Y-134997619D01*
X242076191Y-135092857D01*
X242076191Y-135235714D01*
X242028572Y-135330952D01*
X241980953Y-135378571D01*
X241885715Y-135426190D01*
X241504762Y-135426190D01*
X242504762Y-135378571D02*
X242838096Y-135378571D01*
X242980953Y-135902381D02*
X242504762Y-135902381D01*
X242504762Y-134902381D01*
X242980953Y-134902381D01*
X243314286Y-134902381D02*
X243552381Y-135902381D01*
X243742858Y-135188095D01*
X243933334Y-135902381D01*
X244171429Y-134902381D01*
X244314286Y-135997619D02*
X245076191Y-135997619D01*
X245314286Y-135902381D02*
X245314286Y-134902381D01*
X245314286Y-135378571D02*
X245885715Y-135378571D01*
X245885715Y-135902381D02*
X245885715Y-134902381D01*
X246552381Y-134902381D02*
X246742858Y-134902381D01*
X246838096Y-134950000D01*
X246933334Y-135045238D01*
X246980953Y-135235714D01*
X246980953Y-135569048D01*
X246933334Y-135759524D01*
X246838096Y-135854762D01*
X246742858Y-135902381D01*
X246552381Y-135902381D01*
X246457143Y-135854762D01*
X246361905Y-135759524D01*
X246314286Y-135569048D01*
X246314286Y-135235714D01*
X246361905Y-135045238D01*
X246457143Y-134950000D01*
X246552381Y-134902381D01*
X247885715Y-135902381D02*
X247409524Y-135902381D01*
X247409524Y-134902381D01*
X248219048Y-135378571D02*
X248552382Y-135378571D01*
X248695239Y-135902381D02*
X248219048Y-135902381D01*
X248219048Y-134902381D01*
X248695239Y-134902381D01*
X242221428Y-130752381D02*
X242554761Y-131752381D01*
X242888095Y-130752381D01*
X243173809Y-131466667D02*
X243650000Y-131466667D01*
X243078571Y-131752381D02*
X243411904Y-130752381D01*
X243745238Y-131752381D01*
X244554762Y-131752381D02*
X244078571Y-131752381D01*
X244078571Y-130752381D01*
X245030952Y-130752381D02*
X245030952Y-130990476D01*
X244792857Y-130895238D02*
X245030952Y-130990476D01*
X245269048Y-130895238D01*
X244888095Y-131180952D02*
X245030952Y-130990476D01*
X245173810Y-131180952D01*
X245792857Y-130752381D02*
X245792857Y-130990476D01*
X245554762Y-130895238D02*
X245792857Y-130990476D01*
X246030953Y-130895238D01*
X245650000Y-131180952D02*
X245792857Y-130990476D01*
X245935715Y-131180952D01*
M02*
