G04 #@! TF.FileFunction,Copper,L2,Bot,Signal*
%FSLAX46Y46*%
G04 Gerber Fmt 4.6, Leading zero omitted, Abs format (unit mm)*
G04 Created by KiCad (PCBNEW 4.0.7) date 01/14/18 03:39:09*
%MOMM*%
%LPD*%
G01*
G04 APERTURE LIST*
%ADD10C,0.100000*%
%ADD11C,2.286000*%
%ADD12C,3.987800*%
%ADD13C,1.651000*%
%ADD14R,1.651000X1.651000*%
%ADD15C,4.000000*%
%ADD16C,3.050000*%
%ADD17C,3.810000*%
%ADD18R,1.524000X1.524000*%
%ADD19C,1.524000*%
%ADD20C,2.400000*%
%ADD21C,0.600000*%
%ADD22C,0.250000*%
G04 APERTURE END LIST*
D10*
D11*
X156960000Y-50080000D03*
X163310000Y-47540000D03*
D12*
X159500000Y-45000000D03*
D13*
X177500000Y-47540000D03*
D14*
X177500000Y-39920000D03*
D13*
X160770000Y-39920000D03*
D14*
X158230000Y-39920000D03*
X164500000Y-36110000D03*
D13*
X154500000Y-36110000D03*
D15*
X171400000Y-53240000D03*
D16*
X171400000Y-38000000D03*
D15*
X147600000Y-53240000D03*
D16*
X147600000Y-38000000D03*
D17*
X333500000Y-67995000D03*
X333500000Y-21005000D03*
D18*
X332103000Y-27863000D03*
D19*
X332103000Y-30657000D03*
X332103000Y-33451000D03*
X332103000Y-36245000D03*
X332103000Y-39039000D03*
X332103000Y-41706000D03*
X332103000Y-44500000D03*
X332103000Y-47294000D03*
X332103000Y-50088000D03*
X332103000Y-52882000D03*
X332103000Y-55549000D03*
X332103000Y-58343000D03*
X332103000Y-61137000D03*
X334897000Y-29260000D03*
X334897000Y-32054000D03*
X334897000Y-34848000D03*
X334897000Y-37515000D03*
X334897000Y-40309000D03*
X334897000Y-43103000D03*
X334897000Y-45897000D03*
X334897000Y-48691000D03*
X334897000Y-51358000D03*
X334897000Y-54152000D03*
X334897000Y-56946000D03*
X334897000Y-59740000D03*
D11*
X190460000Y-69080000D03*
X196810000Y-66540000D03*
D12*
X193000000Y-64000000D03*
D13*
X201890000Y-66540000D03*
D14*
X201890000Y-58920000D03*
D13*
X194270000Y-58920000D03*
D14*
X191730000Y-58920000D03*
X198000000Y-55110000D03*
D13*
X188000000Y-55110000D03*
D11*
X209460000Y-126080000D03*
X215810000Y-123540000D03*
D12*
X212000000Y-121000000D03*
D13*
X220890000Y-123540000D03*
D14*
X220890000Y-115920000D03*
D13*
X213270000Y-115920000D03*
D14*
X210730000Y-115920000D03*
X217000000Y-112110000D03*
D13*
X207000000Y-112110000D03*
D11*
X209460000Y-69080000D03*
X215810000Y-66540000D03*
D12*
X212000000Y-64000000D03*
D13*
X220890000Y-66540000D03*
D14*
X220890000Y-58920000D03*
D13*
X213270000Y-58920000D03*
D14*
X210730000Y-58920000D03*
X217000000Y-55110000D03*
D13*
X207000000Y-55110000D03*
D11*
X154585000Y-88080000D03*
X160935000Y-85540000D03*
D12*
X157125000Y-83000000D03*
D13*
X175125000Y-85540000D03*
D14*
X175125000Y-77920000D03*
D13*
X158395000Y-77920000D03*
D14*
X155855000Y-77920000D03*
X162125000Y-74110000D03*
D13*
X152125000Y-74110000D03*
D15*
X169025000Y-91240000D03*
D16*
X169025000Y-76000000D03*
D15*
X145225000Y-91240000D03*
D16*
X145225000Y-76000000D03*
D11*
X52460000Y-22080000D03*
X58810000Y-19540000D03*
D12*
X55000000Y-17000000D03*
D13*
X63890000Y-19540000D03*
D14*
X63890000Y-11920000D03*
D13*
X56270000Y-11920000D03*
D14*
X53730000Y-11920000D03*
X60000000Y-8110000D03*
D13*
X50000000Y-8110000D03*
D11*
X71460000Y-22080000D03*
X77810000Y-19540000D03*
D12*
X74000000Y-17000000D03*
D13*
X82890000Y-19540000D03*
D14*
X82890000Y-11920000D03*
D13*
X75270000Y-11920000D03*
D14*
X72730000Y-11920000D03*
X79000000Y-8110000D03*
D13*
X69000000Y-8110000D03*
D11*
X90460000Y-22080000D03*
X96810000Y-19540000D03*
D12*
X93000000Y-17000000D03*
D13*
X101890000Y-19540000D03*
D14*
X101890000Y-11920000D03*
D13*
X94270000Y-11920000D03*
D14*
X91730000Y-11920000D03*
X98000000Y-8110000D03*
D13*
X88000000Y-8110000D03*
D11*
X109460000Y-22080000D03*
X115810000Y-19540000D03*
D12*
X112000000Y-17000000D03*
D13*
X120890000Y-19540000D03*
D14*
X120890000Y-11920000D03*
D13*
X113270000Y-11920000D03*
D14*
X110730000Y-11920000D03*
X117000000Y-8110000D03*
D13*
X107000000Y-8110000D03*
D11*
X128460000Y-22080000D03*
X134810000Y-19540000D03*
D12*
X131000000Y-17000000D03*
D13*
X139890000Y-19540000D03*
D14*
X139890000Y-11920000D03*
D13*
X132270000Y-11920000D03*
D14*
X129730000Y-11920000D03*
X136000000Y-8110000D03*
D13*
X126000000Y-8110000D03*
D11*
X147460000Y-22080000D03*
X153810000Y-19540000D03*
D12*
X150000000Y-17000000D03*
D13*
X158890000Y-19540000D03*
D14*
X158890000Y-11920000D03*
D13*
X151270000Y-11920000D03*
D14*
X148730000Y-11920000D03*
X155000000Y-8110000D03*
D13*
X145000000Y-8110000D03*
D11*
X166460000Y-22080000D03*
X172810000Y-19540000D03*
D12*
X169000000Y-17000000D03*
D13*
X177890000Y-19540000D03*
D14*
X177890000Y-11920000D03*
D13*
X170270000Y-11920000D03*
D14*
X167730000Y-11920000D03*
X174000000Y-8110000D03*
D13*
X164000000Y-8110000D03*
D11*
X209460000Y-50080000D03*
X215810000Y-47540000D03*
D12*
X212000000Y-45000000D03*
D13*
X220890000Y-47540000D03*
D14*
X220890000Y-39920000D03*
D13*
X213270000Y-39920000D03*
D14*
X210730000Y-39920000D03*
X217000000Y-36110000D03*
D13*
X207000000Y-36110000D03*
D11*
X190460000Y-50080000D03*
X196810000Y-47540000D03*
D12*
X193000000Y-45000000D03*
D13*
X201890000Y-47540000D03*
D14*
X201890000Y-39920000D03*
D13*
X194270000Y-39920000D03*
D14*
X191730000Y-39920000D03*
X198000000Y-36110000D03*
D13*
X188000000Y-36110000D03*
D11*
X90460000Y-50080000D03*
X96810000Y-47540000D03*
D12*
X93000000Y-45000000D03*
D13*
X101890000Y-47540000D03*
D14*
X101890000Y-39920000D03*
D13*
X94270000Y-39920000D03*
D14*
X91730000Y-39920000D03*
X98000000Y-36110000D03*
D13*
X88000000Y-36110000D03*
D11*
X33460000Y-50080000D03*
X39810000Y-47540000D03*
D12*
X36000000Y-45000000D03*
D13*
X44890000Y-47540000D03*
D14*
X44890000Y-39920000D03*
D13*
X37270000Y-39920000D03*
D14*
X34730000Y-39920000D03*
X41000000Y-36110000D03*
D13*
X31000000Y-36110000D03*
D11*
X52460000Y-50080000D03*
X58810000Y-47540000D03*
D12*
X55000000Y-45000000D03*
D13*
X63890000Y-47540000D03*
D14*
X63890000Y-39920000D03*
D13*
X56270000Y-39920000D03*
D14*
X53730000Y-39920000D03*
X60000000Y-36110000D03*
D13*
X50000000Y-36110000D03*
D11*
X71460000Y-50080000D03*
X77810000Y-47540000D03*
D12*
X74000000Y-45000000D03*
D13*
X82890000Y-47540000D03*
D14*
X82890000Y-39920000D03*
D13*
X75270000Y-39920000D03*
D14*
X72730000Y-39920000D03*
X79000000Y-36110000D03*
D13*
X69000000Y-36110000D03*
D11*
X161710000Y-69080000D03*
X168060000Y-66540000D03*
D12*
X164250000Y-64000000D03*
D13*
X173140000Y-66540000D03*
D14*
X173140000Y-58920000D03*
D13*
X165520000Y-58920000D03*
D14*
X162980000Y-58920000D03*
X155360000Y-69000000D03*
D13*
X155360000Y-59000000D03*
D11*
X76210000Y-107080000D03*
X82560000Y-104540000D03*
D12*
X78750000Y-102000000D03*
D13*
X87640000Y-104540000D03*
D14*
X87640000Y-96920000D03*
D13*
X80020000Y-96920000D03*
D14*
X77480000Y-96920000D03*
X83750000Y-93110000D03*
D13*
X73750000Y-93110000D03*
D11*
X128460000Y-50080000D03*
X134810000Y-47540000D03*
D12*
X131000000Y-45000000D03*
D13*
X139890000Y-47540000D03*
D14*
X139890000Y-39920000D03*
D13*
X132270000Y-39920000D03*
D14*
X129730000Y-39920000D03*
X136000000Y-36110000D03*
D13*
X126000000Y-36110000D03*
D11*
X114210000Y-107080000D03*
X120560000Y-104540000D03*
D12*
X116750000Y-102000000D03*
D13*
X125640000Y-104540000D03*
D14*
X125640000Y-96920000D03*
D13*
X118020000Y-96920000D03*
D14*
X115480000Y-96920000D03*
X121750000Y-93110000D03*
D13*
X111750000Y-93110000D03*
D11*
X28710000Y-88080000D03*
X35060000Y-85540000D03*
D12*
X31250000Y-83000000D03*
D13*
X40140000Y-85540000D03*
D14*
X40140000Y-77920000D03*
D13*
X32520000Y-77920000D03*
D14*
X29980000Y-77920000D03*
X36250000Y-74110000D03*
D13*
X26250000Y-74110000D03*
D11*
X61960000Y-69080000D03*
X68310000Y-66540000D03*
D12*
X64500000Y-64000000D03*
D13*
X73390000Y-66540000D03*
D14*
X73390000Y-58920000D03*
D13*
X65770000Y-58920000D03*
D14*
X63230000Y-58920000D03*
X69500000Y-55110000D03*
D13*
X59500000Y-55110000D03*
D11*
X47710000Y-88080000D03*
X54060000Y-85540000D03*
D12*
X50250000Y-83000000D03*
D13*
X59140000Y-85540000D03*
D14*
X59140000Y-77920000D03*
D13*
X51520000Y-77920000D03*
D14*
X48980000Y-77920000D03*
X55250000Y-74110000D03*
D13*
X45250000Y-74110000D03*
D11*
X66710000Y-88080000D03*
X73060000Y-85540000D03*
D12*
X69250000Y-83000000D03*
D13*
X78140000Y-85540000D03*
D14*
X78140000Y-77920000D03*
D13*
X70520000Y-77920000D03*
D14*
X67980000Y-77920000D03*
X74250000Y-74110000D03*
D13*
X64250000Y-74110000D03*
D11*
X85710000Y-88080000D03*
X92060000Y-85540000D03*
D12*
X88250000Y-83000000D03*
D13*
X97140000Y-85540000D03*
D14*
X97140000Y-77920000D03*
D13*
X89520000Y-77920000D03*
D14*
X86980000Y-77920000D03*
X93250000Y-74110000D03*
D13*
X83250000Y-74110000D03*
D11*
X118960000Y-69080000D03*
X125310000Y-66540000D03*
D12*
X121500000Y-64000000D03*
D13*
X130390000Y-66540000D03*
D14*
X130390000Y-58920000D03*
D13*
X122770000Y-58920000D03*
D14*
X120230000Y-58920000D03*
X126500000Y-55110000D03*
D13*
X116500000Y-55110000D03*
D11*
X57210000Y-107080000D03*
X63560000Y-104540000D03*
D12*
X59750000Y-102000000D03*
D13*
X68640000Y-104540000D03*
D14*
X68640000Y-96920000D03*
D13*
X61020000Y-96920000D03*
D14*
X58480000Y-96920000D03*
X64750000Y-93110000D03*
D13*
X54750000Y-93110000D03*
D11*
X109460000Y-50080000D03*
X115810000Y-47540000D03*
D12*
X112000000Y-45000000D03*
D13*
X120890000Y-47540000D03*
D14*
X120890000Y-39920000D03*
D13*
X113270000Y-39920000D03*
D14*
X110730000Y-39920000D03*
X117000000Y-36110000D03*
D13*
X107000000Y-36110000D03*
D11*
X38210000Y-107080000D03*
X44560000Y-104540000D03*
D12*
X40750000Y-102000000D03*
D13*
X49640000Y-104540000D03*
D14*
X49640000Y-96920000D03*
D13*
X42020000Y-96920000D03*
D14*
X39480000Y-96920000D03*
X45750000Y-93110000D03*
D13*
X35750000Y-93110000D03*
D11*
X80960000Y-69080000D03*
X87310000Y-66540000D03*
D12*
X83500000Y-64000000D03*
D13*
X92390000Y-66540000D03*
D14*
X92390000Y-58920000D03*
D13*
X84770000Y-58920000D03*
D14*
X82230000Y-58920000D03*
X88500000Y-55110000D03*
D13*
X78500000Y-55110000D03*
D11*
X99960000Y-69080000D03*
X106310000Y-66540000D03*
D12*
X102500000Y-64000000D03*
D13*
X111390000Y-66540000D03*
D14*
X111390000Y-58920000D03*
D13*
X103770000Y-58920000D03*
D14*
X101230000Y-58920000D03*
X107500000Y-55110000D03*
D13*
X97500000Y-55110000D03*
D11*
X95210000Y-107080000D03*
X101560000Y-104540000D03*
D12*
X97750000Y-102000000D03*
D13*
X106640000Y-104540000D03*
D14*
X106640000Y-96920000D03*
D13*
X99020000Y-96920000D03*
D14*
X96480000Y-96920000D03*
X102750000Y-93110000D03*
D13*
X92750000Y-93110000D03*
D11*
X123710000Y-88080000D03*
X130060000Y-85540000D03*
D12*
X126250000Y-83000000D03*
D13*
X135140000Y-85540000D03*
D14*
X135140000Y-77920000D03*
D13*
X127520000Y-77920000D03*
D14*
X124980000Y-77920000D03*
X131250000Y-74110000D03*
D13*
X121250000Y-74110000D03*
D11*
X137960000Y-69080000D03*
X144310000Y-66540000D03*
D12*
X140500000Y-64000000D03*
D13*
X149390000Y-66540000D03*
D14*
X149390000Y-58920000D03*
D13*
X141770000Y-58920000D03*
D14*
X139230000Y-58920000D03*
X145500000Y-72890000D03*
D13*
X135500000Y-72890000D03*
D11*
X104710000Y-88080000D03*
X111060000Y-85540000D03*
D12*
X107250000Y-83000000D03*
D13*
X116140000Y-85540000D03*
D14*
X116140000Y-77920000D03*
D13*
X108520000Y-77920000D03*
D14*
X105980000Y-77920000D03*
X112250000Y-74110000D03*
D13*
X102250000Y-74110000D03*
D11*
X42960000Y-69080000D03*
X49310000Y-66540000D03*
D12*
X45500000Y-64000000D03*
D13*
X54390000Y-66540000D03*
D14*
X54390000Y-58920000D03*
D13*
X46770000Y-58920000D03*
D14*
X44230000Y-58920000D03*
X50500000Y-55110000D03*
D13*
X40500000Y-55110000D03*
D11*
X23960000Y-69080000D03*
X30310000Y-66540000D03*
D12*
X26500000Y-64000000D03*
D13*
X35390000Y-66540000D03*
D14*
X35390000Y-58920000D03*
D13*
X27770000Y-58920000D03*
D14*
X25230000Y-58920000D03*
X31500000Y-55110000D03*
D13*
X21500000Y-55110000D03*
D11*
X190460000Y-126080000D03*
X196810000Y-123540000D03*
D12*
X193000000Y-121000000D03*
D13*
X201890000Y-123540000D03*
D14*
X201890000Y-115920000D03*
D13*
X194270000Y-115920000D03*
D14*
X191730000Y-115920000D03*
X198000000Y-112110000D03*
D13*
X188000000Y-112110000D03*
D11*
X252460000Y-22080000D03*
X258810000Y-19540000D03*
D12*
X255000000Y-17000000D03*
D13*
X263890000Y-19540000D03*
D14*
X263890000Y-11920000D03*
D13*
X256270000Y-11920000D03*
D14*
X253730000Y-11920000D03*
X260000000Y-8110000D03*
D13*
X250000000Y-8110000D03*
D11*
X271460000Y-22080000D03*
X277810000Y-19540000D03*
D12*
X274000000Y-17000000D03*
D13*
X282890000Y-19540000D03*
D14*
X282890000Y-11920000D03*
D13*
X275270000Y-11920000D03*
D14*
X272730000Y-11920000D03*
X279000000Y-8110000D03*
D13*
X269000000Y-8110000D03*
D11*
X290460000Y-22080000D03*
X296810000Y-19540000D03*
D12*
X293000000Y-17000000D03*
D13*
X301890000Y-19540000D03*
D14*
X301890000Y-11920000D03*
D13*
X294270000Y-11920000D03*
D14*
X291730000Y-11920000D03*
X298000000Y-8110000D03*
D13*
X288000000Y-8110000D03*
D11*
X309460000Y-22080000D03*
X315810000Y-19540000D03*
D12*
X312000000Y-17000000D03*
D13*
X320890000Y-19540000D03*
D14*
X320890000Y-11920000D03*
D13*
X313270000Y-11920000D03*
D14*
X310730000Y-11920000D03*
X317000000Y-8110000D03*
D13*
X307000000Y-8110000D03*
D11*
X261960000Y-126080000D03*
X268310000Y-123540000D03*
D12*
X264500000Y-121000000D03*
D13*
X246500000Y-123540000D03*
D14*
X246500000Y-115920000D03*
D13*
X265770000Y-115920000D03*
D14*
X263230000Y-115920000D03*
X269500000Y-112110000D03*
D13*
X259500000Y-112110000D03*
D15*
X276400000Y-129240000D03*
D16*
X276400000Y-114000000D03*
D15*
X252600000Y-129240000D03*
D16*
X252600000Y-114000000D03*
D11*
X252460000Y-107080000D03*
X258810000Y-104540000D03*
D12*
X255000000Y-102000000D03*
D13*
X263890000Y-104540000D03*
D14*
X263890000Y-96920000D03*
D13*
X256270000Y-96920000D03*
D14*
X253730000Y-96920000D03*
X260000000Y-93110000D03*
D13*
X250000000Y-93110000D03*
D11*
X271460000Y-107080000D03*
X277810000Y-104540000D03*
D12*
X274000000Y-102000000D03*
D13*
X282890000Y-104540000D03*
D14*
X282890000Y-96920000D03*
D13*
X275270000Y-96920000D03*
D14*
X272730000Y-96920000D03*
X279000000Y-93110000D03*
D13*
X269000000Y-93110000D03*
D11*
X290460000Y-107080000D03*
X296810000Y-104540000D03*
D12*
X293000000Y-102000000D03*
D13*
X301890000Y-104540000D03*
D14*
X301890000Y-96920000D03*
D13*
X294270000Y-96920000D03*
D14*
X291730000Y-96920000D03*
X298000000Y-93110000D03*
D13*
X288000000Y-93110000D03*
D11*
X252460000Y-88080000D03*
X258810000Y-85540000D03*
D12*
X255000000Y-83000000D03*
D13*
X263890000Y-85540000D03*
D14*
X263890000Y-77920000D03*
D13*
X256270000Y-77920000D03*
D14*
X253730000Y-77920000D03*
X260000000Y-74110000D03*
D13*
X250000000Y-74110000D03*
D11*
X271460000Y-88080000D03*
X277810000Y-85540000D03*
D12*
X274000000Y-83000000D03*
D13*
X282890000Y-85540000D03*
D14*
X282890000Y-77920000D03*
D13*
X275270000Y-77920000D03*
D14*
X272730000Y-77920000D03*
X279000000Y-74110000D03*
D13*
X269000000Y-74110000D03*
D11*
X290460000Y-88080000D03*
X296810000Y-85540000D03*
D12*
X293000000Y-83000000D03*
D13*
X301890000Y-85540000D03*
D14*
X301890000Y-77920000D03*
D13*
X294270000Y-77920000D03*
D14*
X291730000Y-77920000D03*
X298000000Y-74110000D03*
D13*
X288000000Y-74110000D03*
D11*
X252460000Y-69080000D03*
X258810000Y-66540000D03*
D12*
X255000000Y-64000000D03*
D13*
X263890000Y-66540000D03*
D14*
X263890000Y-58920000D03*
D13*
X256270000Y-58920000D03*
D14*
X253730000Y-58920000D03*
X260000000Y-55110000D03*
D13*
X250000000Y-55110000D03*
D11*
X271460000Y-69080000D03*
X277810000Y-66540000D03*
D12*
X274000000Y-64000000D03*
D13*
X282890000Y-66540000D03*
D14*
X282890000Y-58920000D03*
D13*
X275270000Y-58920000D03*
D14*
X272730000Y-58920000D03*
X279000000Y-55110000D03*
D13*
X269000000Y-55110000D03*
D11*
X290460000Y-69080000D03*
X296810000Y-66540000D03*
D12*
X293000000Y-64000000D03*
D13*
X301890000Y-66540000D03*
D14*
X301890000Y-58920000D03*
D13*
X294270000Y-58920000D03*
D14*
X291730000Y-58920000D03*
X298000000Y-55110000D03*
D13*
X288000000Y-55110000D03*
D11*
X290460000Y-50080000D03*
X296810000Y-47540000D03*
D12*
X293000000Y-45000000D03*
D13*
X301890000Y-47540000D03*
D14*
X301890000Y-39920000D03*
D13*
X294270000Y-39920000D03*
D14*
X291730000Y-39920000D03*
X298000000Y-36110000D03*
D13*
X288000000Y-36110000D03*
D11*
X317080000Y-114040000D03*
X314540000Y-107690000D03*
D12*
X312000000Y-111500000D03*
D13*
X314540000Y-129500000D03*
D14*
X306920000Y-129500000D03*
D13*
X306920000Y-110230000D03*
D14*
X306920000Y-112770000D03*
X310000000Y-131500000D03*
D13*
X320000000Y-131500000D03*
D15*
X320240000Y-99600000D03*
D16*
X305000000Y-99600000D03*
D15*
X320240000Y-123400000D03*
D16*
X305000000Y-123400000D03*
D11*
X252460000Y-50080000D03*
X258810000Y-47540000D03*
D12*
X255000000Y-45000000D03*
D13*
X263890000Y-47540000D03*
D14*
X263890000Y-39920000D03*
D13*
X256270000Y-39920000D03*
D14*
X253730000Y-39920000D03*
X260000000Y-36110000D03*
D13*
X250000000Y-36110000D03*
D11*
X309460000Y-50080000D03*
X315810000Y-47540000D03*
D12*
X312000000Y-45000000D03*
D13*
X320890000Y-47540000D03*
D14*
X320890000Y-39920000D03*
D13*
X313270000Y-39920000D03*
D14*
X310730000Y-39920000D03*
X317000000Y-36110000D03*
D13*
X307000000Y-36110000D03*
D11*
X290460000Y-126080000D03*
X296810000Y-123540000D03*
D12*
X293000000Y-121000000D03*
D13*
X301890000Y-123540000D03*
D14*
X301890000Y-115920000D03*
D13*
X294270000Y-115920000D03*
D14*
X291730000Y-115920000D03*
X298000000Y-112110000D03*
D13*
X288000000Y-112110000D03*
D11*
X317080000Y-76040000D03*
X314540000Y-69690000D03*
D12*
X312000000Y-73500000D03*
D13*
X314540000Y-91500000D03*
D14*
X306920000Y-91500000D03*
D13*
X306920000Y-72230000D03*
D14*
X306920000Y-74770000D03*
X310000000Y-93500000D03*
D13*
X320000000Y-93500000D03*
D15*
X320240000Y-61600000D03*
D16*
X305000000Y-61600000D03*
D15*
X320240000Y-85400000D03*
D16*
X305000000Y-85400000D03*
D11*
X271460000Y-50080000D03*
X277810000Y-47540000D03*
D12*
X274000000Y-45000000D03*
D13*
X282890000Y-47540000D03*
D14*
X282890000Y-39920000D03*
D13*
X275270000Y-39920000D03*
D14*
X272730000Y-39920000D03*
X279000000Y-36110000D03*
D13*
X269000000Y-36110000D03*
D11*
X228460000Y-69080000D03*
X234810000Y-66540000D03*
D12*
X231000000Y-64000000D03*
D13*
X239890000Y-66540000D03*
D14*
X239890000Y-58920000D03*
D13*
X232270000Y-58920000D03*
D14*
X229730000Y-58920000D03*
X236000000Y-55110000D03*
D13*
X226000000Y-55110000D03*
D11*
X228460000Y-50080000D03*
X234810000Y-47540000D03*
D12*
X231000000Y-45000000D03*
D13*
X239890000Y-47540000D03*
D14*
X239890000Y-39920000D03*
D13*
X232270000Y-39920000D03*
D14*
X229730000Y-39920000D03*
X236000000Y-36110000D03*
D13*
X226000000Y-36110000D03*
D11*
X228460000Y-22080000D03*
X234810000Y-19540000D03*
D12*
X231000000Y-17000000D03*
D13*
X239890000Y-19540000D03*
D14*
X239890000Y-11920000D03*
D13*
X232270000Y-11920000D03*
D14*
X229730000Y-11920000D03*
X236000000Y-8110000D03*
D13*
X226000000Y-8110000D03*
D11*
X190460000Y-22080000D03*
X196810000Y-19540000D03*
D12*
X193000000Y-17000000D03*
D13*
X201890000Y-19540000D03*
D14*
X201890000Y-11920000D03*
D13*
X194270000Y-11920000D03*
D14*
X191730000Y-11920000D03*
X198000000Y-8110000D03*
D13*
X188000000Y-8110000D03*
D11*
X228460000Y-126080000D03*
X234810000Y-123540000D03*
D12*
X231000000Y-121000000D03*
D13*
X239890000Y-123540000D03*
D14*
X239890000Y-115920000D03*
D13*
X232270000Y-115920000D03*
D14*
X229730000Y-115920000D03*
X236000000Y-112110000D03*
D13*
X226000000Y-112110000D03*
D11*
X92835000Y-126080000D03*
X99185000Y-123540000D03*
D12*
X95375000Y-121000000D03*
D13*
X104265000Y-123540000D03*
D14*
X104265000Y-115920000D03*
D13*
X96645000Y-115920000D03*
D14*
X94105000Y-115920000D03*
X100375000Y-112110000D03*
D13*
X90375000Y-112110000D03*
D11*
X164085000Y-126080000D03*
X170435000Y-123540000D03*
D12*
X166625000Y-121000000D03*
D13*
X175515000Y-123540000D03*
D14*
X175515000Y-115920000D03*
D13*
X167895000Y-115920000D03*
D14*
X165355000Y-115920000D03*
X171625000Y-129890000D03*
D13*
X161625000Y-129890000D03*
D11*
X64335000Y-126080000D03*
X70685000Y-123540000D03*
D12*
X66875000Y-121000000D03*
D13*
X75765000Y-123540000D03*
D14*
X75765000Y-115920000D03*
D13*
X68145000Y-115920000D03*
D14*
X65605000Y-115920000D03*
X71875000Y-112110000D03*
D13*
X61875000Y-112110000D03*
D11*
X140335000Y-126080000D03*
X146685000Y-123540000D03*
D12*
X142875000Y-121000000D03*
D13*
X151765000Y-123540000D03*
D14*
X151765000Y-115920000D03*
D13*
X144145000Y-115920000D03*
D14*
X141605000Y-115920000D03*
X147875000Y-129890000D03*
D13*
X137875000Y-129890000D03*
D11*
X149835000Y-107080000D03*
X156185000Y-104540000D03*
D12*
X152375000Y-102000000D03*
D13*
X170375000Y-104540000D03*
D14*
X170375000Y-96920000D03*
D13*
X153645000Y-96920000D03*
D14*
X151105000Y-96920000D03*
X134375000Y-107000000D03*
D13*
X134375000Y-97000000D03*
D15*
X164275000Y-110240000D03*
D16*
X164275000Y-95000000D03*
D15*
X140475000Y-110240000D03*
D16*
X140475000Y-95000000D03*
D11*
X26335000Y-126080000D03*
X32685000Y-123540000D03*
D12*
X28875000Y-121000000D03*
D13*
X46875000Y-123540000D03*
D14*
X46875000Y-115920000D03*
D13*
X30145000Y-115920000D03*
D14*
X27605000Y-115920000D03*
X10875000Y-126000000D03*
D13*
X10875000Y-116000000D03*
D15*
X40775000Y-129240000D03*
D16*
X40775000Y-114000000D03*
D15*
X16975000Y-129240000D03*
D16*
X16975000Y-114000000D03*
D11*
X116585000Y-126080000D03*
X122935000Y-123540000D03*
D12*
X119125000Y-121000000D03*
D13*
X128015000Y-123540000D03*
D14*
X128015000Y-115920000D03*
D13*
X120395000Y-115920000D03*
D14*
X117855000Y-115920000D03*
X124125000Y-112110000D03*
D13*
X114125000Y-112110000D03*
D11*
X209460000Y-22080000D03*
X215810000Y-19540000D03*
D12*
X212000000Y-17000000D03*
D13*
X220890000Y-19540000D03*
D14*
X220890000Y-11920000D03*
D13*
X213270000Y-11920000D03*
D14*
X210730000Y-11920000D03*
X217000000Y-8110000D03*
D13*
X207000000Y-8110000D03*
D11*
X209460000Y-107080000D03*
X215810000Y-104540000D03*
D12*
X212000000Y-102000000D03*
D13*
X220890000Y-104540000D03*
D14*
X220890000Y-96920000D03*
D13*
X213270000Y-96920000D03*
D14*
X210730000Y-96920000D03*
X217000000Y-93110000D03*
D13*
X207000000Y-93110000D03*
D20*
X3500000Y-3500000D03*
X3500000Y-134500000D03*
X337500000Y-3500000D03*
X337500000Y-134500000D03*
X36000000Y-17000000D03*
X17000000Y-45000000D03*
X21750000Y-102000000D03*
X181000000Y-3500000D03*
X243000000Y-3500000D03*
X181000000Y-31000000D03*
X243000000Y-31000000D03*
X181000000Y-83000000D03*
X243000000Y-83000000D03*
X181000000Y-134500000D03*
X243000000Y-134500000D03*
D21*
X337500000Y-46000000D03*
X337500000Y-10000000D03*
X260000000Y-2500000D03*
X339000000Y-117500000D03*
X339000000Y-60000000D03*
X340000000Y-130000000D03*
X340000000Y-57000000D03*
X121000000Y-130000000D03*
X330500000Y-12000000D03*
X321000000Y-31000000D03*
X325500000Y-34000000D03*
X324000000Y-58500000D03*
X327500000Y-36500000D03*
X327500000Y-78000000D03*
X328500000Y-39000000D03*
X328500000Y-97000000D03*
X329500000Y-42000000D03*
X326000000Y-118500000D03*
X326500000Y-44500000D03*
X325000000Y-23000000D03*
X338000000Y-50000000D03*
X338000000Y-65000000D03*
X336500000Y-52500000D03*
X336500000Y-88000000D03*
X326500000Y-55500000D03*
X325500000Y-104000000D03*
X170500000Y-101000000D03*
X330500000Y-119500000D03*
X9000000Y-69000000D03*
X8000000Y-129000000D03*
X324500000Y-133000000D03*
X325500000Y-61500000D03*
X52000000Y-29000000D03*
X329500000Y-32000000D03*
X326500000Y-1000000D03*
X77500000Y-1500000D03*
X323000000Y-35500000D03*
X323500000Y-72000000D03*
X331500000Y-72000000D03*
X332500000Y-133000000D03*
X248000000Y-133500000D03*
X245500000Y-81000000D03*
X185500000Y-80000000D03*
X185500000Y-28000000D03*
X90000000Y-28000000D03*
X109000000Y-25500000D03*
X261000000Y-25000000D03*
X267000000Y-31500000D03*
X319500000Y-31000000D03*
X319500000Y-38000000D03*
X128500000Y-27000000D03*
X168000000Y-26500000D03*
X168000000Y-44000000D03*
X244000000Y-50000000D03*
X246500000Y-36000000D03*
X315000000Y-36500000D03*
X316000000Y-43000000D03*
X324500000Y-43000000D03*
X323500000Y-27500000D03*
X307500000Y-28000000D03*
X303500000Y-27000000D03*
X289000000Y-28000000D03*
X286000000Y-26000000D03*
X269500000Y-26000000D03*
X267500000Y-23500000D03*
X324500000Y-48500000D03*
X324500000Y-53000000D03*
X192500000Y-26500000D03*
X212000000Y-28000000D03*
X339000000Y-54000000D03*
X339500000Y-24000000D03*
X231000000Y-29000000D03*
X170500000Y-69000000D03*
X158500000Y-106500000D03*
D22*
X252460000Y-22080000D02*
X252460000Y-20460000D01*
X337500000Y-10000000D02*
X337500000Y-46000000D01*
X259000000Y-2500000D02*
X260000000Y-2500000D01*
X251000000Y-10500000D02*
X259000000Y-2500000D01*
X251000000Y-19000000D02*
X251000000Y-10500000D01*
X252460000Y-20460000D02*
X251000000Y-19000000D01*
X164085000Y-126080000D02*
X161580000Y-126080000D01*
X155500000Y-112745000D02*
X149835000Y-107080000D01*
X155500000Y-120000000D02*
X155500000Y-112745000D01*
X161580000Y-126080000D02*
X155500000Y-120000000D01*
X149835000Y-107080000D02*
X149835000Y-105835000D01*
X148500000Y-94165000D02*
X154585000Y-88080000D01*
X148500000Y-104500000D02*
X148500000Y-94165000D01*
X149835000Y-105835000D02*
X148500000Y-104500000D01*
X154585000Y-88080000D02*
X154585000Y-86585000D01*
X160420000Y-69080000D02*
X161710000Y-69080000D01*
X153000000Y-76500000D02*
X160420000Y-69080000D01*
X153000000Y-85000000D02*
X153000000Y-76500000D01*
X154585000Y-86585000D02*
X153000000Y-85000000D01*
X161710000Y-69080000D02*
X161710000Y-67210000D01*
X159500000Y-52620000D02*
X156960000Y-50080000D01*
X159500000Y-65000000D02*
X159500000Y-52620000D01*
X161710000Y-67210000D02*
X159500000Y-65000000D01*
X156960000Y-50080000D02*
X156960000Y-48460000D01*
X165500000Y-23040000D02*
X166460000Y-22080000D01*
X165500000Y-28500000D02*
X165500000Y-23040000D01*
X156000000Y-38000000D02*
X165500000Y-28500000D01*
X156000000Y-47500000D02*
X156000000Y-38000000D01*
X156960000Y-48460000D02*
X156000000Y-47500000D01*
X252460000Y-50080000D02*
X252460000Y-48460000D01*
X252460000Y-37040000D02*
X252460000Y-22080000D01*
X251000000Y-38500000D02*
X252460000Y-37040000D01*
X251000000Y-47000000D02*
X251000000Y-38500000D01*
X252460000Y-48460000D02*
X251000000Y-47000000D01*
X252460000Y-69080000D02*
X252460000Y-68460000D01*
X252460000Y-68460000D02*
X251000000Y-67000000D01*
X252460000Y-56040000D02*
X252460000Y-50080000D01*
X251000000Y-57500000D02*
X252460000Y-56040000D01*
X251000000Y-67000000D02*
X251000000Y-57500000D01*
X252460000Y-88080000D02*
X252460000Y-87960000D01*
X252460000Y-87960000D02*
X251000000Y-86500000D01*
X252460000Y-75540000D02*
X252460000Y-69080000D01*
X251000000Y-77000000D02*
X252460000Y-75540000D01*
X251000000Y-86500000D02*
X251000000Y-77000000D01*
X252460000Y-107080000D02*
X252460000Y-104960000D01*
X252460000Y-93540000D02*
X252460000Y-88080000D01*
X251000000Y-95000000D02*
X252460000Y-93540000D01*
X251000000Y-103500000D02*
X251000000Y-95000000D01*
X252460000Y-104960000D02*
X251000000Y-103500000D01*
X261960000Y-126080000D02*
X261960000Y-123960000D01*
X256500000Y-111120000D02*
X252460000Y-107080000D01*
X256500000Y-118500000D02*
X256500000Y-111120000D01*
X261960000Y-123960000D02*
X256500000Y-118500000D01*
X58480000Y-96920000D02*
X58480000Y-95520000D01*
X66500000Y-79400000D02*
X67980000Y-77920000D01*
X66500000Y-85000000D02*
X66500000Y-79400000D01*
X69000000Y-87500000D02*
X66500000Y-85000000D01*
X69000000Y-89000000D02*
X69000000Y-87500000D01*
X67500000Y-90500000D02*
X69000000Y-89000000D01*
X63500000Y-90500000D02*
X67500000Y-90500000D01*
X58480000Y-95520000D02*
X63500000Y-90500000D01*
X94105000Y-115920000D02*
X87420000Y-115920000D01*
X79560000Y-99000000D02*
X77480000Y-96920000D01*
X81500000Y-99000000D02*
X79560000Y-99000000D01*
X85000000Y-102500000D02*
X81500000Y-99000000D01*
X85000000Y-113500000D02*
X85000000Y-102500000D01*
X87420000Y-115920000D02*
X85000000Y-113500000D01*
X339000000Y-62500000D02*
X339000000Y-117500000D01*
X339000000Y-60000000D02*
X339000000Y-62500000D01*
X120230000Y-58920000D02*
X120230000Y-59270000D01*
X120230000Y-59270000D02*
X118000000Y-61500000D01*
X106000000Y-76000000D02*
X106000000Y-77900000D01*
X110000000Y-72000000D02*
X106000000Y-76000000D01*
X119500000Y-72000000D02*
X110000000Y-72000000D01*
X121500000Y-70000000D02*
X119500000Y-72000000D01*
X121500000Y-68500000D02*
X121500000Y-70000000D01*
X118000000Y-65000000D02*
X121500000Y-68500000D01*
X118000000Y-61500000D02*
X118000000Y-65000000D01*
X106000000Y-77900000D02*
X105980000Y-77920000D01*
X110730000Y-39920000D02*
X110730000Y-40770000D01*
X120230000Y-54230000D02*
X120230000Y-58920000D01*
X118000000Y-52000000D02*
X120230000Y-54230000D01*
X115000000Y-52000000D02*
X118000000Y-52000000D01*
X109000000Y-46000000D02*
X115000000Y-52000000D01*
X109000000Y-42500000D02*
X109000000Y-46000000D01*
X110730000Y-40770000D02*
X109000000Y-42500000D01*
X167730000Y-11920000D02*
X167730000Y-12770000D01*
X129730000Y-38770000D02*
X129730000Y-39920000D01*
X141500000Y-27000000D02*
X129730000Y-38770000D01*
X155000000Y-27000000D02*
X141500000Y-27000000D01*
X161000000Y-21000000D02*
X155000000Y-27000000D01*
X161000000Y-19500000D02*
X161000000Y-21000000D01*
X167730000Y-12770000D02*
X161000000Y-19500000D01*
X340000000Y-57000000D02*
X340000000Y-130000000D01*
X61875000Y-112110000D02*
X64890000Y-112110000D01*
X73750000Y-103250000D02*
X73750000Y-93110000D01*
X64890000Y-112110000D02*
X73750000Y-103250000D01*
X10875000Y-116000000D02*
X10875000Y-89485000D01*
X10875000Y-89485000D02*
X26250000Y-74110000D01*
X26250000Y-74110000D02*
X22610000Y-74110000D01*
X22610000Y-74110000D02*
X19500000Y-71000000D01*
X19500000Y-71000000D02*
X19500000Y-57110000D01*
X19500000Y-57110000D02*
X21500000Y-55110000D01*
X21500000Y-55110000D02*
X21500000Y-45610000D01*
X21500000Y-45610000D02*
X31000000Y-36110000D01*
X31000000Y-36110000D02*
X31000000Y-15500000D01*
X31000000Y-15500000D02*
X38390000Y-8110000D01*
X38390000Y-8110000D02*
X50000000Y-8110000D01*
X320000000Y-93500000D02*
X323000000Y-96500000D01*
X320000000Y-128500000D02*
X320000000Y-131500000D01*
X323000000Y-125500000D02*
X320000000Y-128500000D01*
X323000000Y-96500000D02*
X323000000Y-125500000D01*
X114125000Y-112110000D02*
X114125000Y-120625000D01*
X121000000Y-127500000D02*
X121000000Y-130000000D01*
X114125000Y-120625000D02*
X121000000Y-127500000D01*
X332103000Y-27863000D02*
X332103000Y-24103000D01*
X330500000Y-22500000D02*
X330500000Y-12000000D01*
X332103000Y-24103000D02*
X330500000Y-22500000D01*
X320890000Y-39920000D02*
X320890000Y-31110000D01*
X320890000Y-31110000D02*
X321000000Y-31000000D01*
X325500000Y-57000000D02*
X325500000Y-34000000D01*
X324000000Y-58500000D02*
X325500000Y-57000000D01*
X301890000Y-58920000D02*
X301890000Y-63390000D01*
X308000000Y-90420000D02*
X306920000Y-91500000D01*
X308000000Y-84500000D02*
X308000000Y-90420000D01*
X307000000Y-83500000D02*
X308000000Y-84500000D01*
X307000000Y-79500000D02*
X307000000Y-83500000D01*
X303500000Y-76000000D02*
X307000000Y-79500000D01*
X303500000Y-65000000D02*
X303500000Y-76000000D01*
X301890000Y-63390000D02*
X303500000Y-65000000D01*
X327500000Y-78000000D02*
X327500000Y-36500000D01*
X328500000Y-97000000D02*
X328500000Y-39000000D01*
X301890000Y-96920000D02*
X301890000Y-101390000D01*
X308000000Y-128420000D02*
X306920000Y-129500000D01*
X308000000Y-122500000D02*
X308000000Y-128420000D01*
X306000000Y-120500000D02*
X308000000Y-122500000D01*
X306000000Y-120000000D02*
X306000000Y-120500000D01*
X304000000Y-118000000D02*
X306000000Y-120000000D01*
X304000000Y-103500000D02*
X304000000Y-118000000D01*
X301890000Y-101390000D02*
X304000000Y-103500000D01*
X329500000Y-115000000D02*
X329500000Y-42000000D01*
X326000000Y-118500000D02*
X329500000Y-115000000D01*
X326500000Y-24500000D02*
X326500000Y-44500000D01*
X325000000Y-23000000D02*
X326500000Y-24500000D01*
X338000000Y-65000000D02*
X338000000Y-50000000D01*
X336500000Y-88000000D02*
X336500000Y-52500000D01*
X326500000Y-103000000D02*
X326500000Y-55500000D01*
X325500000Y-104000000D02*
X326500000Y-103000000D01*
X170375000Y-100875000D02*
X170375000Y-96920000D01*
X170500000Y-101000000D02*
X170375000Y-100875000D01*
X330657000Y-58343000D02*
X332103000Y-58343000D01*
X330500000Y-58500000D02*
X330657000Y-58343000D01*
X330500000Y-119500000D02*
X330500000Y-58500000D01*
X9000000Y-128000000D02*
X9000000Y-69000000D01*
X8000000Y-129000000D02*
X9000000Y-128000000D01*
X324500000Y-62500000D02*
X324500000Y-133000000D01*
X325500000Y-61500000D02*
X324500000Y-62500000D01*
X52460000Y-28540000D02*
X52460000Y-22080000D01*
X52000000Y-29000000D02*
X52460000Y-28540000D01*
X33460000Y-50080000D02*
X33460000Y-48960000D01*
X33460000Y-48960000D02*
X31000000Y-46500000D01*
X47920000Y-22080000D02*
X52460000Y-22080000D01*
X31000000Y-39000000D02*
X47920000Y-22080000D01*
X31000000Y-46500000D02*
X31000000Y-39000000D01*
X42960000Y-69080000D02*
X42960000Y-67960000D01*
X42960000Y-67960000D02*
X38500000Y-63500000D01*
X33460000Y-51960000D02*
X33460000Y-50080000D01*
X38500000Y-57000000D02*
X33460000Y-51960000D01*
X38500000Y-63500000D02*
X38500000Y-57000000D01*
X28710000Y-88080000D02*
X28580000Y-88080000D01*
X28580000Y-88080000D02*
X27000000Y-86500000D01*
X27000000Y-86500000D02*
X27000000Y-76000000D01*
X27000000Y-76000000D02*
X32000000Y-71000000D01*
X32000000Y-71000000D02*
X41040000Y-71000000D01*
X41040000Y-71000000D02*
X42960000Y-69080000D01*
X71460000Y-22080000D02*
X71460000Y-21460000D01*
X71460000Y-21460000D02*
X70000000Y-20000000D01*
X329500000Y-4000000D02*
X329500000Y-32000000D01*
X326500000Y-1000000D02*
X329500000Y-4000000D01*
X70000000Y-9000000D02*
X77500000Y-1500000D01*
X70000000Y-20000000D02*
X70000000Y-9000000D01*
X52460000Y-50080000D02*
X52460000Y-46460000D01*
X66920000Y-22080000D02*
X71460000Y-22080000D01*
X51000000Y-38000000D02*
X66920000Y-22080000D01*
X51000000Y-45000000D02*
X51000000Y-38000000D01*
X52460000Y-46460000D02*
X51000000Y-45000000D01*
X61960000Y-69080000D02*
X61960000Y-68960000D01*
X61960000Y-68960000D02*
X58500000Y-65500000D01*
X52460000Y-52460000D02*
X52460000Y-50080000D01*
X58500000Y-58500000D02*
X52460000Y-52460000D01*
X58500000Y-65500000D02*
X58500000Y-58500000D01*
X47710000Y-88080000D02*
X47710000Y-87710000D01*
X47710000Y-87710000D02*
X46000000Y-86000000D01*
X59040000Y-72000000D02*
X61960000Y-69080000D01*
X51000000Y-72000000D02*
X59040000Y-72000000D01*
X46000000Y-77000000D02*
X51000000Y-72000000D01*
X46000000Y-86000000D02*
X46000000Y-77000000D01*
X38210000Y-107080000D02*
X38080000Y-107080000D01*
X38080000Y-107080000D02*
X36000000Y-105000000D01*
X44420000Y-88080000D02*
X47710000Y-88080000D01*
X36000000Y-96500000D02*
X44420000Y-88080000D01*
X36000000Y-105000000D02*
X36000000Y-96500000D01*
X26335000Y-126080000D02*
X26335000Y-124835000D01*
X32420000Y-107080000D02*
X38210000Y-107080000D01*
X24500000Y-115000000D02*
X32420000Y-107080000D01*
X24500000Y-123000000D02*
X24500000Y-115000000D01*
X26335000Y-124835000D02*
X24500000Y-123000000D01*
X90460000Y-22080000D02*
X90460000Y-27540000D01*
X323000000Y-71500000D02*
X323000000Y-35500000D01*
X323500000Y-72000000D02*
X323000000Y-71500000D01*
X331500000Y-132000000D02*
X331500000Y-72000000D01*
X332500000Y-133000000D02*
X331500000Y-132000000D01*
X243500000Y-129000000D02*
X248000000Y-133500000D01*
X243500000Y-113000000D02*
X243500000Y-129000000D01*
X246500000Y-110000000D02*
X243500000Y-113000000D01*
X246500000Y-82000000D02*
X246500000Y-110000000D01*
X245500000Y-81000000D02*
X246500000Y-82000000D01*
X185500000Y-28000000D02*
X185500000Y-80000000D01*
X90460000Y-27540000D02*
X90000000Y-28000000D01*
X71460000Y-50080000D02*
X71460000Y-47960000D01*
X87000000Y-22000000D02*
X90380000Y-22000000D01*
X70000000Y-39000000D02*
X87000000Y-22000000D01*
X70000000Y-46500000D02*
X70000000Y-39000000D01*
X71460000Y-47960000D02*
X70000000Y-46500000D01*
X90380000Y-22000000D02*
X90460000Y-22080000D01*
X80960000Y-69080000D02*
X80580000Y-69080000D01*
X80580000Y-69080000D02*
X77500000Y-66000000D01*
X71460000Y-51960000D02*
X71460000Y-50080000D01*
X77500000Y-58000000D02*
X71460000Y-51960000D01*
X77500000Y-66000000D02*
X77500000Y-58000000D01*
X66710000Y-88080000D02*
X66710000Y-87710000D01*
X66710000Y-87710000D02*
X65000000Y-86000000D01*
X79540000Y-70500000D02*
X80960000Y-69080000D01*
X71500000Y-70500000D02*
X79540000Y-70500000D01*
X65000000Y-77000000D02*
X71500000Y-70500000D01*
X65000000Y-86000000D02*
X65000000Y-77000000D01*
X57210000Y-107080000D02*
X57210000Y-106210000D01*
X57210000Y-106210000D02*
X56000000Y-105000000D01*
X63420000Y-88080000D02*
X66710000Y-88080000D01*
X56000000Y-95500000D02*
X63420000Y-88080000D01*
X56000000Y-105000000D02*
X56000000Y-95500000D01*
X64335000Y-126080000D02*
X62580000Y-126080000D01*
X57210000Y-120710000D02*
X57210000Y-107080000D01*
X62580000Y-126080000D02*
X57210000Y-120710000D01*
X109460000Y-25040000D02*
X109460000Y-22080000D01*
X109000000Y-25500000D02*
X109460000Y-25040000D01*
X261000000Y-25500000D02*
X261000000Y-25000000D01*
X267000000Y-31500000D02*
X261000000Y-25500000D01*
X319500000Y-38000000D02*
X319500000Y-31000000D01*
X90460000Y-50080000D02*
X90460000Y-48460000D01*
X105420000Y-22080000D02*
X109460000Y-22080000D01*
X89000000Y-38500000D02*
X105420000Y-22080000D01*
X89000000Y-47000000D02*
X89000000Y-38500000D01*
X90460000Y-48460000D02*
X89000000Y-47000000D01*
X99960000Y-69080000D02*
X99960000Y-67960000D01*
X99960000Y-67960000D02*
X96500000Y-64500000D01*
X90460000Y-51960000D02*
X90460000Y-50080000D01*
X96500000Y-58000000D02*
X90460000Y-51960000D01*
X96500000Y-64500000D02*
X96500000Y-58000000D01*
X85710000Y-88080000D02*
X85710000Y-87210000D01*
X85710000Y-87210000D02*
X84500000Y-86000000D01*
X98040000Y-71000000D02*
X99960000Y-69080000D01*
X90000000Y-71000000D02*
X98040000Y-71000000D01*
X84500000Y-76500000D02*
X90000000Y-71000000D01*
X84500000Y-86000000D02*
X84500000Y-76500000D01*
X76210000Y-107080000D02*
X76210000Y-105710000D01*
X81420000Y-88080000D02*
X85710000Y-88080000D01*
X75000000Y-94500000D02*
X81420000Y-88080000D01*
X75000000Y-104500000D02*
X75000000Y-94500000D01*
X76210000Y-105710000D02*
X75000000Y-104500000D01*
X92835000Y-126080000D02*
X89580000Y-126080000D01*
X81000000Y-111870000D02*
X76210000Y-107080000D01*
X81000000Y-117500000D02*
X81000000Y-111870000D01*
X89580000Y-126080000D02*
X81000000Y-117500000D01*
X128460000Y-26960000D02*
X128460000Y-22080000D01*
X128500000Y-27000000D02*
X128460000Y-26960000D01*
X168000000Y-44000000D02*
X168000000Y-26500000D01*
X244000000Y-38500000D02*
X244000000Y-50000000D01*
X246500000Y-36000000D02*
X244000000Y-38500000D01*
X315000000Y-42000000D02*
X315000000Y-36500000D01*
X316000000Y-43000000D02*
X315000000Y-42000000D01*
X109460000Y-50080000D02*
X109460000Y-49960000D01*
X109460000Y-49960000D02*
X107500000Y-48000000D01*
X107500000Y-48000000D02*
X107500000Y-39000000D01*
X107500000Y-39000000D02*
X124420000Y-22080000D01*
X124420000Y-22080000D02*
X128460000Y-22080000D01*
X118960000Y-69080000D02*
X118960000Y-67460000D01*
X109460000Y-51960000D02*
X109460000Y-50080000D01*
X114500000Y-57000000D02*
X109460000Y-51960000D01*
X114500000Y-63000000D02*
X114500000Y-57000000D01*
X118960000Y-67460000D02*
X114500000Y-63000000D01*
X104710000Y-88080000D02*
X104710000Y-87710000D01*
X104710000Y-87710000D02*
X103000000Y-86000000D01*
X111420000Y-69080000D02*
X118960000Y-69080000D01*
X103000000Y-77500000D02*
X111420000Y-69080000D01*
X103000000Y-86000000D02*
X103000000Y-77500000D01*
X95210000Y-107080000D02*
X95210000Y-105210000D01*
X101420000Y-88080000D02*
X104710000Y-88080000D01*
X93500000Y-96000000D02*
X101420000Y-88080000D01*
X93500000Y-103500000D02*
X93500000Y-96000000D01*
X95210000Y-105210000D02*
X93500000Y-103500000D01*
X116585000Y-126080000D02*
X115580000Y-126080000D01*
X115580000Y-126080000D02*
X111500000Y-122000000D01*
X111500000Y-122000000D02*
X111500000Y-117000000D01*
X111500000Y-117000000D02*
X101580000Y-107080000D01*
X101580000Y-107080000D02*
X95210000Y-107080000D01*
X324500000Y-28500000D02*
X324500000Y-43000000D01*
X323500000Y-27500000D02*
X324500000Y-28500000D01*
X304500000Y-28000000D02*
X307500000Y-28000000D01*
X303500000Y-27000000D02*
X304500000Y-28000000D01*
X288000000Y-28000000D02*
X289000000Y-28000000D01*
X286000000Y-26000000D02*
X288000000Y-28000000D01*
X269500000Y-25500000D02*
X269500000Y-26000000D01*
X267500000Y-23500000D02*
X269500000Y-25500000D01*
X128460000Y-50080000D02*
X128460000Y-48960000D01*
X128460000Y-48960000D02*
X126500000Y-47000000D01*
X143920000Y-22080000D02*
X147460000Y-22080000D01*
X126500000Y-39500000D02*
X143920000Y-22080000D01*
X126500000Y-47000000D02*
X126500000Y-39500000D01*
X137960000Y-69080000D02*
X137960000Y-68960000D01*
X137960000Y-68960000D02*
X134000000Y-65000000D01*
X134000000Y-55620000D02*
X128460000Y-50080000D01*
X134000000Y-65000000D02*
X134000000Y-55620000D01*
X123710000Y-88080000D02*
X123580000Y-88080000D01*
X123580000Y-88080000D02*
X122000000Y-86500000D01*
X129920000Y-69080000D02*
X137960000Y-69080000D01*
X122000000Y-77000000D02*
X129920000Y-69080000D01*
X122000000Y-86500000D02*
X122000000Y-77000000D01*
X114210000Y-107080000D02*
X114210000Y-106210000D01*
X114210000Y-106210000D02*
X112500000Y-104500000D01*
X120920000Y-88080000D02*
X123710000Y-88080000D01*
X112500000Y-96500000D02*
X120920000Y-88080000D01*
X112500000Y-104500000D02*
X112500000Y-96500000D01*
X140335000Y-126080000D02*
X139080000Y-126080000D01*
X124580000Y-107080000D02*
X114210000Y-107080000D01*
X132500000Y-115000000D02*
X124580000Y-107080000D01*
X132500000Y-119500000D02*
X132500000Y-115000000D01*
X139080000Y-126080000D02*
X132500000Y-119500000D01*
X324500000Y-53000000D02*
X324500000Y-48500000D01*
X192500000Y-26500000D02*
X190460000Y-26500000D01*
X190460000Y-26500000D02*
X190500000Y-26500000D01*
X190500000Y-26500000D02*
X190460000Y-26500000D01*
X271460000Y-50080000D02*
X271460000Y-48460000D01*
X271460000Y-36540000D02*
X271460000Y-22080000D01*
X269500000Y-38500000D02*
X271460000Y-36540000D01*
X269500000Y-46500000D02*
X269500000Y-38500000D01*
X271460000Y-48460000D02*
X269500000Y-46500000D01*
X271460000Y-69080000D02*
X271460000Y-67460000D01*
X271460000Y-56040000D02*
X271460000Y-50080000D01*
X270000000Y-57500000D02*
X271460000Y-56040000D01*
X270000000Y-66000000D02*
X270000000Y-57500000D01*
X271460000Y-67460000D02*
X270000000Y-66000000D01*
X271460000Y-88080000D02*
X271460000Y-86960000D01*
X271460000Y-86960000D02*
X269500000Y-85000000D01*
X271460000Y-75040000D02*
X271460000Y-69080000D01*
X269500000Y-77000000D02*
X271460000Y-75040000D01*
X269500000Y-85000000D02*
X269500000Y-77000000D01*
X271460000Y-107080000D02*
X271460000Y-105960000D01*
X271460000Y-105960000D02*
X269500000Y-104000000D01*
X269500000Y-104000000D02*
X269500000Y-96500000D01*
X269500000Y-96500000D02*
X271460000Y-94540000D01*
X271460000Y-94540000D02*
X271460000Y-88080000D01*
X190460000Y-50080000D02*
X190460000Y-49460000D01*
X190460000Y-49460000D02*
X188500000Y-47500000D01*
X190460000Y-36540000D02*
X190460000Y-26500000D01*
X190460000Y-26500000D02*
X190460000Y-22080000D01*
X188500000Y-38500000D02*
X190460000Y-36540000D01*
X188500000Y-47500000D02*
X188500000Y-38500000D01*
X190460000Y-69080000D02*
X190460000Y-67460000D01*
X190460000Y-56040000D02*
X190460000Y-50080000D01*
X188500000Y-58000000D02*
X190460000Y-56040000D01*
X188500000Y-65500000D02*
X188500000Y-58000000D01*
X190460000Y-67460000D02*
X188500000Y-65500000D01*
X190460000Y-126080000D02*
X190460000Y-123960000D01*
X190500000Y-113000000D02*
X190500000Y-69120000D01*
X188500000Y-115000000D02*
X190500000Y-113000000D01*
X188500000Y-122000000D02*
X188500000Y-115000000D01*
X190460000Y-123960000D02*
X188500000Y-122000000D01*
X190500000Y-69120000D02*
X190460000Y-69080000D01*
X212000000Y-28000000D02*
X209460000Y-28000000D01*
X209460000Y-28000000D02*
X209500000Y-28000000D01*
X209500000Y-28000000D02*
X209460000Y-28000000D01*
X290460000Y-50080000D02*
X290460000Y-48460000D01*
X290460000Y-36540000D02*
X290460000Y-22080000D01*
X288500000Y-38500000D02*
X290460000Y-36540000D01*
X288500000Y-46500000D02*
X288500000Y-38500000D01*
X290460000Y-48460000D02*
X288500000Y-46500000D01*
X290460000Y-69080000D02*
X290460000Y-66960000D01*
X290460000Y-56040000D02*
X290460000Y-50080000D01*
X288500000Y-58000000D02*
X290460000Y-56040000D01*
X288500000Y-65000000D02*
X288500000Y-58000000D01*
X290460000Y-66960000D02*
X288500000Y-65000000D01*
X290460000Y-88080000D02*
X290460000Y-86460000D01*
X290460000Y-74540000D02*
X290460000Y-69080000D01*
X289000000Y-76000000D02*
X290460000Y-74540000D01*
X289000000Y-85000000D02*
X289000000Y-76000000D01*
X290460000Y-86460000D02*
X289000000Y-85000000D01*
X290460000Y-107080000D02*
X290460000Y-106460000D01*
X290460000Y-106460000D02*
X288500000Y-104500000D01*
X290460000Y-94040000D02*
X290460000Y-88080000D01*
X288500000Y-96000000D02*
X290460000Y-94040000D01*
X288500000Y-104500000D02*
X288500000Y-96000000D01*
X290460000Y-126080000D02*
X290460000Y-124460000D01*
X290460000Y-113040000D02*
X290460000Y-107080000D01*
X289000000Y-114500000D02*
X290460000Y-113040000D01*
X289000000Y-123000000D02*
X289000000Y-114500000D01*
X290460000Y-124460000D02*
X289000000Y-123000000D01*
X209460000Y-50080000D02*
X209460000Y-48960000D01*
X209460000Y-48960000D02*
X208000000Y-47500000D01*
X208000000Y-47500000D02*
X208000000Y-39000000D01*
X208000000Y-39000000D02*
X209460000Y-37540000D01*
X209460000Y-37540000D02*
X209460000Y-28000000D01*
X209460000Y-28000000D02*
X209460000Y-22080000D01*
X209460000Y-69080000D02*
X209460000Y-68460000D01*
X209460000Y-68460000D02*
X208000000Y-67000000D01*
X209460000Y-55540000D02*
X209460000Y-50080000D01*
X208000000Y-57000000D02*
X209460000Y-55540000D01*
X208000000Y-67000000D02*
X208000000Y-57000000D01*
X209460000Y-107080000D02*
X209460000Y-106960000D01*
X209460000Y-106960000D02*
X208000000Y-105500000D01*
X209460000Y-94040000D02*
X209460000Y-69080000D01*
X208000000Y-95500000D02*
X209460000Y-94040000D01*
X208000000Y-105500000D02*
X208000000Y-95500000D01*
X209460000Y-126080000D02*
X209460000Y-123960000D01*
X209460000Y-113540000D02*
X209460000Y-107080000D01*
X208000000Y-115000000D02*
X209460000Y-113540000D01*
X208000000Y-122500000D02*
X208000000Y-115000000D01*
X209460000Y-123960000D02*
X208000000Y-122500000D01*
X339000000Y-24500000D02*
X339000000Y-54000000D01*
X339500000Y-24000000D02*
X339000000Y-24500000D01*
X228500000Y-29000000D02*
X228460000Y-29000000D01*
X231000000Y-29000000D02*
X228500000Y-29000000D01*
X309460000Y-50080000D02*
X309460000Y-48460000D01*
X309460000Y-36540000D02*
X309460000Y-22080000D01*
X308000000Y-38000000D02*
X309460000Y-36540000D01*
X308000000Y-47000000D02*
X308000000Y-38000000D01*
X309460000Y-48460000D02*
X308000000Y-47000000D01*
X317080000Y-76040000D02*
X317080000Y-68580000D01*
X309460000Y-60960000D02*
X309460000Y-50080000D01*
X317080000Y-68580000D02*
X309460000Y-60960000D01*
X317080000Y-114040000D02*
X317080000Y-76040000D01*
X228460000Y-50080000D02*
X228460000Y-48460000D01*
X228460000Y-37040000D02*
X228460000Y-29000000D01*
X228460000Y-29000000D02*
X228460000Y-22080000D01*
X227000000Y-38500000D02*
X228460000Y-37040000D01*
X227000000Y-47000000D02*
X227000000Y-38500000D01*
X228460000Y-48460000D02*
X227000000Y-47000000D01*
X228460000Y-69080000D02*
X228080000Y-69080000D01*
X228080000Y-69080000D02*
X226500000Y-67500000D01*
X228460000Y-56040000D02*
X228460000Y-50080000D01*
X226500000Y-58000000D02*
X228460000Y-56040000D01*
X226500000Y-67500000D02*
X226500000Y-58000000D01*
X228460000Y-126080000D02*
X228460000Y-124460000D01*
X228460000Y-113540000D02*
X228460000Y-69080000D01*
X226500000Y-115500000D02*
X228460000Y-113540000D01*
X226500000Y-122500000D02*
X226500000Y-115500000D01*
X228460000Y-124460000D02*
X226500000Y-122500000D01*
X165520000Y-58920000D02*
X165520000Y-59020000D01*
X165520000Y-59020000D02*
X170500000Y-64000000D01*
X170500000Y-64000000D02*
X170500000Y-69000000D01*
X141770000Y-58920000D02*
X142420000Y-58920000D01*
X142420000Y-58920000D02*
X146500000Y-63000000D01*
X146500000Y-63000000D02*
X146500000Y-71890000D01*
X146500000Y-71890000D02*
X145500000Y-72890000D01*
X314540000Y-107690000D02*
X314540000Y-129500000D01*
X306920000Y-110230000D02*
X308230000Y-110230000D01*
X309500000Y-111500000D02*
X309500000Y-131000000D01*
X308230000Y-110230000D02*
X309500000Y-111500000D01*
X309500000Y-131000000D02*
X310000000Y-131500000D01*
X314540000Y-69690000D02*
X314540000Y-91500000D01*
X306920000Y-72230000D02*
X307230000Y-72230000D01*
X307230000Y-72230000D02*
X309000000Y-74000000D01*
X309000000Y-74000000D02*
X309000000Y-83000000D01*
X309000000Y-83000000D02*
X310000000Y-84000000D01*
X310000000Y-84000000D02*
X310000000Y-93500000D01*
X167895000Y-115920000D02*
X168920000Y-115920000D01*
X173000000Y-128515000D02*
X171625000Y-129890000D01*
X173000000Y-120000000D02*
X173000000Y-128515000D01*
X168920000Y-115920000D02*
X173000000Y-120000000D01*
X144145000Y-115920000D02*
X145920000Y-115920000D01*
X149000000Y-128765000D02*
X147875000Y-129890000D01*
X149000000Y-119000000D02*
X149000000Y-128765000D01*
X145920000Y-115920000D02*
X149000000Y-119000000D01*
X153645000Y-96920000D02*
X153645000Y-97145000D01*
X153645000Y-97145000D02*
X158500000Y-102000000D01*
X158500000Y-102000000D02*
X158500000Y-106500000D01*
M02*
