M48
;DRILL file {KiCad 4.0.7} date 01/14/18 03:39:40
;FORMAT={3:3/ absolute / metric / suppress leading zeros}
FMAT,2
METRIC,TZ
T1C0.400
T2C0.991
T3C1.016
T4C1.499
T5C2.400
T6C3.048
T7C3.050
T8C3.988
T9C4.000
%
G90
G05
M71
T1
X8000Y-129000
X9000Y-69000
X52000Y-29000
X77500Y-1500
X90000Y-28000
X109000Y-25500
X121000Y-130000
X128500Y-27000
X158500Y-106500
X168000Y-26500
X168000Y-44000
X170500Y-69000
X170500Y-101000
X185500Y-28000
X185500Y-80000
X192500Y-26500
X212000Y-28000
X231000Y-29000
X244000Y-50000
X245500Y-81000
X246500Y-36000
X248000Y-133500
X260000Y-2500
X261000Y-25000
X267000Y-31500
X267500Y-23500
X269500Y-26000
X286000Y-26000
X289000Y-28000
X303500Y-27000
X307500Y-28000
X315000Y-36500
X316000Y-43000
X319500Y-31000
X319500Y-38000
X321000Y-31000
X323000Y-35500
X323500Y-27500
X323500Y-72000
X324000Y-58500
X324500Y-43000
X324500Y-48500
X324500Y-53000
X324500Y-133000
X325000Y-23000
X325500Y-34000
X325500Y-61500
X325500Y-104000
X326000Y-118500
X326500Y-1000
X326500Y-44500
X326500Y-55500
X327500Y-36500
X327500Y-78000
X328500Y-39000
X328500Y-97000
X329500Y-32000
X329500Y-42000
X330500Y-12000
X330500Y-119500
X331500Y-72000
X332500Y-133000
X336500Y-52500
X336500Y-88000
X337500Y-10000
X337500Y-46000
X338000Y-50000
X338000Y-65000
X339000Y-54000
X339000Y-60000
X339000Y-117500
X339500Y-24000
X340000Y-57000
X340000Y-130000
T2
X10875Y-116000
X10875Y-126000
X21500Y-55110
X25230Y-58920
X26250Y-74110
X27605Y-115920
X27770Y-58920
X29980Y-77920
X30145Y-115920
X31000Y-36110
X31500Y-55110
X32520Y-77920
X34730Y-39920
X35390Y-58920
X35390Y-66540
X35750Y-93110
X36250Y-74110
X37270Y-39920
X39480Y-96920
X40140Y-77920
X40140Y-85540
X40500Y-55110
X41000Y-36110
X42020Y-96920
X44230Y-58920
X44890Y-39920
X44890Y-47540
X45250Y-74110
X45750Y-93110
X46770Y-58920
X46875Y-115920
X46875Y-123540
X48980Y-77920
X49640Y-96920
X49640Y-104540
X50000Y-8110
X50000Y-36110
X50500Y-55110
X51520Y-77920
X53730Y-11920
X53730Y-39920
X54390Y-58920
X54390Y-66540
X54750Y-93110
X55250Y-74110
X56270Y-11920
X56270Y-39920
X58480Y-96920
X59140Y-77920
X59140Y-85540
X59500Y-55110
X60000Y-8110
X60000Y-36110
X61020Y-96920
X61875Y-112110
X63230Y-58920
X63890Y-11920
X63890Y-19540
X63890Y-39920
X63890Y-47540
X64250Y-74110
X64750Y-93110
X65605Y-115920
X65770Y-58920
X67980Y-77920
X68145Y-115920
X68640Y-96920
X68640Y-104540
X69000Y-8110
X69000Y-36110
X69500Y-55110
X70520Y-77920
X71875Y-112110
X72730Y-11920
X72730Y-39920
X73390Y-58920
X73390Y-66540
X73750Y-93110
X74250Y-74110
X75270Y-11920
X75270Y-39920
X75765Y-115920
X75765Y-123540
X77480Y-96920
X78140Y-77920
X78140Y-85540
X78500Y-55110
X79000Y-8110
X79000Y-36110
X80020Y-96920
X82230Y-58920
X82890Y-11920
X82890Y-19540
X82890Y-39920
X82890Y-47540
X83250Y-74110
X83750Y-93110
X84770Y-58920
X86980Y-77920
X87640Y-96920
X87640Y-104540
X88000Y-8110
X88000Y-36110
X88500Y-55110
X89520Y-77920
X90375Y-112110
X91730Y-11920
X91730Y-39920
X92390Y-58920
X92390Y-66540
X92750Y-93110
X93250Y-74110
X94105Y-115920
X94270Y-11920
X94270Y-39920
X96480Y-96920
X96645Y-115920
X97140Y-77920
X97140Y-85540
X97500Y-55110
X98000Y-8110
X98000Y-36110
X99020Y-96920
X100375Y-112110
X101230Y-58920
X101890Y-11920
X101890Y-19540
X101890Y-39920
X101890Y-47540
X102250Y-74110
X102750Y-93110
X103770Y-58920
X104265Y-115920
X104265Y-123540
X105980Y-77920
X106640Y-96920
X106640Y-104540
X107000Y-8110
X107000Y-36110
X107500Y-55110
X108520Y-77920
X110730Y-11920
X110730Y-39920
X111390Y-58920
X111390Y-66540
X111750Y-93110
X112250Y-74110
X113270Y-11920
X113270Y-39920
X114125Y-112110
X115480Y-96920
X116140Y-77920
X116140Y-85540
X116500Y-55110
X117000Y-8110
X117000Y-36110
X117855Y-115920
X118020Y-96920
X120230Y-58920
X120395Y-115920
X120890Y-11920
X120890Y-19540
X120890Y-39920
X120890Y-47540
X121250Y-74110
X121750Y-93110
X122770Y-58920
X124125Y-112110
X124980Y-77920
X125640Y-96920
X125640Y-104540
X126000Y-8110
X126000Y-36110
X126500Y-55110
X127520Y-77920
X128015Y-115920
X128015Y-123540
X129730Y-11920
X129730Y-39920
X130390Y-58920
X130390Y-66540
X131250Y-74110
X132270Y-11920
X132270Y-39920
X134375Y-97000
X134375Y-107000
X135140Y-77920
X135140Y-85540
X135500Y-72890
X136000Y-8110
X136000Y-36110
X137875Y-129890
X139230Y-58920
X139890Y-11920
X139890Y-19540
X139890Y-39920
X139890Y-47540
X141605Y-115920
X141770Y-58920
X144145Y-115920
X145000Y-8110
X145500Y-72890
X147875Y-129890
X148730Y-11920
X149390Y-58920
X149390Y-66540
X151105Y-96920
X151270Y-11920
X151765Y-115920
X151765Y-123540
X152125Y-74110
X153645Y-96920
X154500Y-36110
X155000Y-8110
X155360Y-59000
X155360Y-69000
X155855Y-77920
X158230Y-39920
X158395Y-77920
X158890Y-11920
X158890Y-19540
X160770Y-39920
X161625Y-129890
X162125Y-74110
X162980Y-58920
X164000Y-8110
X164500Y-36110
X165355Y-115920
X165520Y-58920
X167730Y-11920
X167895Y-115920
X170270Y-11920
X170375Y-96920
X170375Y-104540
X171625Y-129890
X173140Y-58920
X173140Y-66540
X174000Y-8110
X175125Y-77920
X175125Y-85540
X175515Y-115920
X175515Y-123540
X177500Y-39920
X177500Y-47540
X177890Y-11920
X177890Y-19540
X188000Y-8110
X188000Y-36110
X188000Y-55110
X188000Y-112110
X191730Y-11920
X191730Y-39920
X191730Y-58920
X191730Y-115920
X194270Y-11920
X194270Y-39920
X194270Y-58920
X194270Y-115920
X198000Y-8110
X198000Y-36110
X198000Y-55110
X198000Y-112110
X201890Y-11920
X201890Y-19540
X201890Y-39920
X201890Y-47540
X201890Y-58920
X201890Y-66540
X201890Y-115920
X201890Y-123540
X207000Y-8110
X207000Y-36110
X207000Y-55110
X207000Y-93110
X207000Y-112110
X210730Y-11920
X210730Y-39920
X210730Y-58920
X210730Y-96920
X210730Y-115920
X213270Y-11920
X213270Y-39920
X213270Y-58920
X213270Y-96920
X213270Y-115920
X217000Y-8110
X217000Y-36110
X217000Y-55110
X217000Y-93110
X217000Y-112110
X220890Y-11920
X220890Y-19540
X220890Y-39920
X220890Y-47540
X220890Y-58920
X220890Y-66540
X220890Y-96920
X220890Y-104540
X220890Y-115920
X220890Y-123540
X226000Y-8110
X226000Y-36110
X226000Y-55110
X226000Y-112110
X229730Y-11920
X229730Y-39920
X229730Y-58920
X229730Y-115920
X232270Y-11920
X232270Y-39920
X232270Y-58920
X232270Y-115920
X236000Y-8110
X236000Y-36110
X236000Y-55110
X236000Y-112110
X239890Y-11920
X239890Y-19540
X239890Y-39920
X239890Y-47540
X239890Y-58920
X239890Y-66540
X239890Y-115920
X239890Y-123540
X246500Y-115920
X246500Y-123540
X250000Y-8110
X250000Y-36110
X250000Y-55110
X250000Y-74110
X250000Y-93110
X253730Y-11920
X253730Y-39920
X253730Y-58920
X253730Y-77920
X253730Y-96920
X256270Y-11920
X256270Y-39920
X256270Y-58920
X256270Y-77920
X256270Y-96920
X259500Y-112110
X260000Y-8110
X260000Y-36110
X260000Y-55110
X260000Y-74110
X260000Y-93110
X263230Y-115920
X263890Y-11920
X263890Y-19540
X263890Y-39920
X263890Y-47540
X263890Y-58920
X263890Y-66540
X263890Y-77920
X263890Y-85540
X263890Y-96920
X263890Y-104540
X265770Y-115920
X269000Y-8110
X269000Y-36110
X269000Y-55110
X269000Y-74110
X269000Y-93110
X269500Y-112110
X272730Y-11920
X272730Y-39920
X272730Y-58920
X272730Y-77920
X272730Y-96920
X275270Y-11920
X275270Y-39920
X275270Y-58920
X275270Y-77920
X275270Y-96920
X279000Y-8110
X279000Y-36110
X279000Y-55110
X279000Y-74110
X279000Y-93110
X282890Y-11920
X282890Y-19540
X282890Y-39920
X282890Y-47540
X282890Y-58920
X282890Y-66540
X282890Y-77920
X282890Y-85540
X282890Y-96920
X282890Y-104540
X288000Y-8110
X288000Y-36110
X288000Y-55110
X288000Y-74110
X288000Y-93110
X288000Y-112110
X291730Y-11920
X291730Y-39920
X291730Y-58920
X291730Y-77920
X291730Y-96920
X291730Y-115920
X294270Y-11920
X294270Y-39920
X294270Y-58920
X294270Y-77920
X294270Y-96920
X294270Y-115920
X298000Y-8110
X298000Y-36110
X298000Y-55110
X298000Y-74110
X298000Y-93110
X298000Y-112110
X301890Y-11920
X301890Y-19540
X301890Y-39920
X301890Y-47540
X301890Y-58920
X301890Y-66540
X301890Y-77920
X301890Y-85540
X301890Y-96920
X301890Y-104540
X301890Y-115920
X301890Y-123540
X306920Y-72230
X306920Y-74770
X306920Y-91500
X306920Y-110230
X306920Y-112770
X306920Y-129500
X307000Y-8110
X307000Y-36110
X310000Y-93500
X310000Y-131500
X310730Y-11920
X310730Y-39920
X313270Y-11920
X313270Y-39920
X314540Y-91500
X314540Y-129500
X317000Y-8110
X317000Y-36110
X320000Y-93500
X320000Y-131500
X320890Y-11920
X320890Y-19540
X320890Y-39920
X320890Y-47540
T3
X332103Y-27863
X332103Y-30657
X332103Y-33451
X332103Y-36245
X332103Y-39039
X332103Y-41706
X332103Y-44500
X332103Y-47294
X332103Y-50088
X332103Y-52882
X332103Y-55549
X332103Y-58343
X332103Y-61137
X334897Y-29260
X334897Y-32054
X334897Y-34848
X334897Y-37515
X334897Y-40309
X334897Y-43103
X334897Y-45897
X334897Y-48691
X334897Y-51358
X334897Y-54152
X334897Y-56946
X334897Y-59740
T4
X23960Y-69080
X26335Y-126080
X28710Y-88080
X30310Y-66540
X32685Y-123540
X33460Y-50080
X35060Y-85540
X38210Y-107080
X39810Y-47540
X42960Y-69080
X44560Y-104540
X47710Y-88080
X49310Y-66540
X52460Y-22080
X52460Y-50080
X54060Y-85540
X57210Y-107080
X58810Y-19540
X58810Y-47540
X61960Y-69080
X63560Y-104540
X64335Y-126080
X66710Y-88080
X68310Y-66540
X70685Y-123540
X71460Y-22080
X71460Y-50080
X73060Y-85540
X76210Y-107080
X77810Y-19540
X77810Y-47540
X80960Y-69080
X82560Y-104540
X85710Y-88080
X87310Y-66540
X90460Y-22080
X90460Y-50080
X92060Y-85540
X92835Y-126080
X95210Y-107080
X96810Y-19540
X96810Y-47540
X99185Y-123540
X99960Y-69080
X101560Y-104540
X104710Y-88080
X106310Y-66540
X109460Y-22080
X109460Y-50080
X111060Y-85540
X114210Y-107080
X115810Y-19540
X115810Y-47540
X116585Y-126080
X118960Y-69080
X120560Y-104540
X122935Y-123540
X123710Y-88080
X125310Y-66540
X128460Y-22080
X128460Y-50080
X130060Y-85540
X134810Y-19540
X134810Y-47540
X137960Y-69080
X140335Y-126080
X144310Y-66540
X146685Y-123540
X147460Y-22080
X149835Y-107080
X153810Y-19540
X154585Y-88080
X156185Y-104540
X156960Y-50080
X160935Y-85540
X161710Y-69080
X163310Y-47540
X164085Y-126080
X166460Y-22080
X168060Y-66540
X170435Y-123540
X172810Y-19540
X190460Y-22080
X190460Y-50080
X190460Y-69080
X190460Y-126080
X196810Y-19540
X196810Y-47540
X196810Y-66540
X196810Y-123540
X209460Y-22080
X209460Y-50080
X209460Y-69080
X209460Y-107080
X209460Y-126080
X215810Y-19540
X215810Y-47540
X215810Y-66540
X215810Y-104540
X215810Y-123540
X228460Y-22080
X228460Y-50080
X228460Y-69080
X228460Y-126080
X234810Y-19540
X234810Y-47540
X234810Y-66540
X234810Y-123540
X252460Y-22080
X252460Y-50080
X252460Y-69080
X252460Y-88080
X252460Y-107080
X258810Y-19540
X258810Y-47540
X258810Y-66540
X258810Y-85540
X258810Y-104540
X261960Y-126080
X268310Y-123540
X271460Y-22080
X271460Y-50080
X271460Y-69080
X271460Y-88080
X271460Y-107080
X277810Y-19540
X277810Y-47540
X277810Y-66540
X277810Y-85540
X277810Y-104540
X290460Y-22080
X290460Y-50080
X290460Y-69080
X290460Y-88080
X290460Y-107080
X290460Y-126080
X296810Y-19540
X296810Y-47540
X296810Y-66540
X296810Y-85540
X296810Y-104540
X296810Y-123540
X309460Y-22080
X309460Y-50080
X314540Y-69690
X314540Y-107690
X315810Y-19540
X315810Y-47540
X317080Y-76040
X317080Y-114040
T5
X3500Y-3500
X3500Y-134500
X17000Y-45000
X21750Y-102000
X36000Y-17000
X181000Y-3500
X181000Y-31000
X181000Y-83000
X181000Y-134500
X243000Y-3500
X243000Y-31000
X243000Y-83000
X243000Y-134500
X337500Y-3500
X337500Y-134500
T6
X333500Y-21005
X333500Y-67995
T7
X16975Y-114000
X40775Y-114000
X140475Y-95000
X145225Y-76000
X147600Y-38000
X164275Y-95000
X169025Y-76000
X171400Y-38000
X252600Y-114000
X276400Y-114000
X305000Y-61600
X305000Y-85400
X305000Y-99600
X305000Y-123400
T8
X26500Y-64000
X28875Y-121000
X31250Y-83000
X36000Y-45000
X40750Y-102000
X45500Y-64000
X50250Y-83000
X55000Y-17000
X55000Y-45000
X59750Y-102000
X64500Y-64000
X66875Y-121000
X69250Y-83000
X74000Y-17000
X74000Y-45000
X78750Y-102000
X83500Y-64000
X88250Y-83000
X93000Y-17000
X93000Y-45000
X95375Y-121000
X97750Y-102000
X102500Y-64000
X107250Y-83000
X112000Y-17000
X112000Y-45000
X116750Y-102000
X119125Y-121000
X121500Y-64000
X126250Y-83000
X131000Y-17000
X131000Y-45000
X140500Y-64000
X142875Y-121000
X150000Y-17000
X152375Y-102000
X157125Y-83000
X159500Y-45000
X164250Y-64000
X166625Y-121000
X169000Y-17000
X193000Y-17000
X193000Y-45000
X193000Y-64000
X193000Y-121000
X212000Y-17000
X212000Y-45000
X212000Y-64000
X212000Y-102000
X212000Y-121000
X231000Y-17000
X231000Y-45000
X231000Y-64000
X231000Y-121000
X255000Y-17000
X255000Y-45000
X255000Y-64000
X255000Y-83000
X255000Y-102000
X264500Y-121000
X274000Y-17000
X274000Y-45000
X274000Y-64000
X274000Y-83000
X274000Y-102000
X293000Y-17000
X293000Y-45000
X293000Y-64000
X293000Y-83000
X293000Y-102000
X293000Y-121000
X312000Y-17000
X312000Y-45000
X312000Y-73500
X312000Y-111500
T9
X16975Y-129240
X40775Y-129240
X140475Y-110240
X145225Y-91240
X147600Y-53240
X164275Y-110240
X169025Y-91240
X171400Y-53240
X252600Y-129240
X276400Y-129240
X320240Y-61600
X320240Y-85400
X320240Y-99600
X320240Y-123400
T0
M30
