G04 #@! TF.FileFunction,Copper,L1,Top,Signal*
%FSLAX46Y46*%
G04 Gerber Fmt 4.6, Leading zero omitted, Abs format (unit mm)*
G04 Created by KiCad (PCBNEW 4.0.7) date 01/14/18 03:39:09*
%MOMM*%
%LPD*%
G01*
G04 APERTURE LIST*
%ADD10C,0.100000*%
%ADD11C,2.286000*%
%ADD12C,3.987800*%
%ADD13C,1.651000*%
%ADD14R,1.651000X1.651000*%
%ADD15C,4.000000*%
%ADD16C,3.050000*%
%ADD17C,3.810000*%
%ADD18R,1.524000X1.524000*%
%ADD19C,1.524000*%
%ADD20C,2.400000*%
%ADD21C,0.600000*%
%ADD22C,0.250000*%
G04 APERTURE END LIST*
D10*
D11*
X156960000Y-50080000D03*
X163310000Y-47540000D03*
D12*
X159500000Y-45000000D03*
D13*
X177500000Y-47540000D03*
D14*
X177500000Y-39920000D03*
D13*
X160770000Y-39920000D03*
D14*
X158230000Y-39920000D03*
X164500000Y-36110000D03*
D13*
X154500000Y-36110000D03*
D15*
X171400000Y-53240000D03*
D16*
X171400000Y-38000000D03*
D15*
X147600000Y-53240000D03*
D16*
X147600000Y-38000000D03*
D17*
X333500000Y-67995000D03*
X333500000Y-21005000D03*
D18*
X332103000Y-27863000D03*
D19*
X332103000Y-30657000D03*
X332103000Y-33451000D03*
X332103000Y-36245000D03*
X332103000Y-39039000D03*
X332103000Y-41706000D03*
X332103000Y-44500000D03*
X332103000Y-47294000D03*
X332103000Y-50088000D03*
X332103000Y-52882000D03*
X332103000Y-55549000D03*
X332103000Y-58343000D03*
X332103000Y-61137000D03*
X334897000Y-29260000D03*
X334897000Y-32054000D03*
X334897000Y-34848000D03*
X334897000Y-37515000D03*
X334897000Y-40309000D03*
X334897000Y-43103000D03*
X334897000Y-45897000D03*
X334897000Y-48691000D03*
X334897000Y-51358000D03*
X334897000Y-54152000D03*
X334897000Y-56946000D03*
X334897000Y-59740000D03*
D11*
X190460000Y-69080000D03*
X196810000Y-66540000D03*
D12*
X193000000Y-64000000D03*
D13*
X201890000Y-66540000D03*
D14*
X201890000Y-58920000D03*
D13*
X194270000Y-58920000D03*
D14*
X191730000Y-58920000D03*
X198000000Y-55110000D03*
D13*
X188000000Y-55110000D03*
D11*
X209460000Y-126080000D03*
X215810000Y-123540000D03*
D12*
X212000000Y-121000000D03*
D13*
X220890000Y-123540000D03*
D14*
X220890000Y-115920000D03*
D13*
X213270000Y-115920000D03*
D14*
X210730000Y-115920000D03*
X217000000Y-112110000D03*
D13*
X207000000Y-112110000D03*
D11*
X209460000Y-69080000D03*
X215810000Y-66540000D03*
D12*
X212000000Y-64000000D03*
D13*
X220890000Y-66540000D03*
D14*
X220890000Y-58920000D03*
D13*
X213270000Y-58920000D03*
D14*
X210730000Y-58920000D03*
X217000000Y-55110000D03*
D13*
X207000000Y-55110000D03*
D11*
X154585000Y-88080000D03*
X160935000Y-85540000D03*
D12*
X157125000Y-83000000D03*
D13*
X175125000Y-85540000D03*
D14*
X175125000Y-77920000D03*
D13*
X158395000Y-77920000D03*
D14*
X155855000Y-77920000D03*
X162125000Y-74110000D03*
D13*
X152125000Y-74110000D03*
D15*
X169025000Y-91240000D03*
D16*
X169025000Y-76000000D03*
D15*
X145225000Y-91240000D03*
D16*
X145225000Y-76000000D03*
D11*
X52460000Y-22080000D03*
X58810000Y-19540000D03*
D12*
X55000000Y-17000000D03*
D13*
X63890000Y-19540000D03*
D14*
X63890000Y-11920000D03*
D13*
X56270000Y-11920000D03*
D14*
X53730000Y-11920000D03*
X60000000Y-8110000D03*
D13*
X50000000Y-8110000D03*
D11*
X71460000Y-22080000D03*
X77810000Y-19540000D03*
D12*
X74000000Y-17000000D03*
D13*
X82890000Y-19540000D03*
D14*
X82890000Y-11920000D03*
D13*
X75270000Y-11920000D03*
D14*
X72730000Y-11920000D03*
X79000000Y-8110000D03*
D13*
X69000000Y-8110000D03*
D11*
X90460000Y-22080000D03*
X96810000Y-19540000D03*
D12*
X93000000Y-17000000D03*
D13*
X101890000Y-19540000D03*
D14*
X101890000Y-11920000D03*
D13*
X94270000Y-11920000D03*
D14*
X91730000Y-11920000D03*
X98000000Y-8110000D03*
D13*
X88000000Y-8110000D03*
D11*
X109460000Y-22080000D03*
X115810000Y-19540000D03*
D12*
X112000000Y-17000000D03*
D13*
X120890000Y-19540000D03*
D14*
X120890000Y-11920000D03*
D13*
X113270000Y-11920000D03*
D14*
X110730000Y-11920000D03*
X117000000Y-8110000D03*
D13*
X107000000Y-8110000D03*
D11*
X128460000Y-22080000D03*
X134810000Y-19540000D03*
D12*
X131000000Y-17000000D03*
D13*
X139890000Y-19540000D03*
D14*
X139890000Y-11920000D03*
D13*
X132270000Y-11920000D03*
D14*
X129730000Y-11920000D03*
X136000000Y-8110000D03*
D13*
X126000000Y-8110000D03*
D11*
X147460000Y-22080000D03*
X153810000Y-19540000D03*
D12*
X150000000Y-17000000D03*
D13*
X158890000Y-19540000D03*
D14*
X158890000Y-11920000D03*
D13*
X151270000Y-11920000D03*
D14*
X148730000Y-11920000D03*
X155000000Y-8110000D03*
D13*
X145000000Y-8110000D03*
D11*
X166460000Y-22080000D03*
X172810000Y-19540000D03*
D12*
X169000000Y-17000000D03*
D13*
X177890000Y-19540000D03*
D14*
X177890000Y-11920000D03*
D13*
X170270000Y-11920000D03*
D14*
X167730000Y-11920000D03*
X174000000Y-8110000D03*
D13*
X164000000Y-8110000D03*
D11*
X209460000Y-50080000D03*
X215810000Y-47540000D03*
D12*
X212000000Y-45000000D03*
D13*
X220890000Y-47540000D03*
D14*
X220890000Y-39920000D03*
D13*
X213270000Y-39920000D03*
D14*
X210730000Y-39920000D03*
X217000000Y-36110000D03*
D13*
X207000000Y-36110000D03*
D11*
X190460000Y-50080000D03*
X196810000Y-47540000D03*
D12*
X193000000Y-45000000D03*
D13*
X201890000Y-47540000D03*
D14*
X201890000Y-39920000D03*
D13*
X194270000Y-39920000D03*
D14*
X191730000Y-39920000D03*
X198000000Y-36110000D03*
D13*
X188000000Y-36110000D03*
D11*
X90460000Y-50080000D03*
X96810000Y-47540000D03*
D12*
X93000000Y-45000000D03*
D13*
X101890000Y-47540000D03*
D14*
X101890000Y-39920000D03*
D13*
X94270000Y-39920000D03*
D14*
X91730000Y-39920000D03*
X98000000Y-36110000D03*
D13*
X88000000Y-36110000D03*
D11*
X33460000Y-50080000D03*
X39810000Y-47540000D03*
D12*
X36000000Y-45000000D03*
D13*
X44890000Y-47540000D03*
D14*
X44890000Y-39920000D03*
D13*
X37270000Y-39920000D03*
D14*
X34730000Y-39920000D03*
X41000000Y-36110000D03*
D13*
X31000000Y-36110000D03*
D11*
X52460000Y-50080000D03*
X58810000Y-47540000D03*
D12*
X55000000Y-45000000D03*
D13*
X63890000Y-47540000D03*
D14*
X63890000Y-39920000D03*
D13*
X56270000Y-39920000D03*
D14*
X53730000Y-39920000D03*
X60000000Y-36110000D03*
D13*
X50000000Y-36110000D03*
D11*
X71460000Y-50080000D03*
X77810000Y-47540000D03*
D12*
X74000000Y-45000000D03*
D13*
X82890000Y-47540000D03*
D14*
X82890000Y-39920000D03*
D13*
X75270000Y-39920000D03*
D14*
X72730000Y-39920000D03*
X79000000Y-36110000D03*
D13*
X69000000Y-36110000D03*
D11*
X161710000Y-69080000D03*
X168060000Y-66540000D03*
D12*
X164250000Y-64000000D03*
D13*
X173140000Y-66540000D03*
D14*
X173140000Y-58920000D03*
D13*
X165520000Y-58920000D03*
D14*
X162980000Y-58920000D03*
X155360000Y-69000000D03*
D13*
X155360000Y-59000000D03*
D11*
X76210000Y-107080000D03*
X82560000Y-104540000D03*
D12*
X78750000Y-102000000D03*
D13*
X87640000Y-104540000D03*
D14*
X87640000Y-96920000D03*
D13*
X80020000Y-96920000D03*
D14*
X77480000Y-96920000D03*
X83750000Y-93110000D03*
D13*
X73750000Y-93110000D03*
D11*
X128460000Y-50080000D03*
X134810000Y-47540000D03*
D12*
X131000000Y-45000000D03*
D13*
X139890000Y-47540000D03*
D14*
X139890000Y-39920000D03*
D13*
X132270000Y-39920000D03*
D14*
X129730000Y-39920000D03*
X136000000Y-36110000D03*
D13*
X126000000Y-36110000D03*
D11*
X114210000Y-107080000D03*
X120560000Y-104540000D03*
D12*
X116750000Y-102000000D03*
D13*
X125640000Y-104540000D03*
D14*
X125640000Y-96920000D03*
D13*
X118020000Y-96920000D03*
D14*
X115480000Y-96920000D03*
X121750000Y-93110000D03*
D13*
X111750000Y-93110000D03*
D11*
X28710000Y-88080000D03*
X35060000Y-85540000D03*
D12*
X31250000Y-83000000D03*
D13*
X40140000Y-85540000D03*
D14*
X40140000Y-77920000D03*
D13*
X32520000Y-77920000D03*
D14*
X29980000Y-77920000D03*
X36250000Y-74110000D03*
D13*
X26250000Y-74110000D03*
D11*
X61960000Y-69080000D03*
X68310000Y-66540000D03*
D12*
X64500000Y-64000000D03*
D13*
X73390000Y-66540000D03*
D14*
X73390000Y-58920000D03*
D13*
X65770000Y-58920000D03*
D14*
X63230000Y-58920000D03*
X69500000Y-55110000D03*
D13*
X59500000Y-55110000D03*
D11*
X47710000Y-88080000D03*
X54060000Y-85540000D03*
D12*
X50250000Y-83000000D03*
D13*
X59140000Y-85540000D03*
D14*
X59140000Y-77920000D03*
D13*
X51520000Y-77920000D03*
D14*
X48980000Y-77920000D03*
X55250000Y-74110000D03*
D13*
X45250000Y-74110000D03*
D11*
X66710000Y-88080000D03*
X73060000Y-85540000D03*
D12*
X69250000Y-83000000D03*
D13*
X78140000Y-85540000D03*
D14*
X78140000Y-77920000D03*
D13*
X70520000Y-77920000D03*
D14*
X67980000Y-77920000D03*
X74250000Y-74110000D03*
D13*
X64250000Y-74110000D03*
D11*
X85710000Y-88080000D03*
X92060000Y-85540000D03*
D12*
X88250000Y-83000000D03*
D13*
X97140000Y-85540000D03*
D14*
X97140000Y-77920000D03*
D13*
X89520000Y-77920000D03*
D14*
X86980000Y-77920000D03*
X93250000Y-74110000D03*
D13*
X83250000Y-74110000D03*
D11*
X118960000Y-69080000D03*
X125310000Y-66540000D03*
D12*
X121500000Y-64000000D03*
D13*
X130390000Y-66540000D03*
D14*
X130390000Y-58920000D03*
D13*
X122770000Y-58920000D03*
D14*
X120230000Y-58920000D03*
X126500000Y-55110000D03*
D13*
X116500000Y-55110000D03*
D11*
X57210000Y-107080000D03*
X63560000Y-104540000D03*
D12*
X59750000Y-102000000D03*
D13*
X68640000Y-104540000D03*
D14*
X68640000Y-96920000D03*
D13*
X61020000Y-96920000D03*
D14*
X58480000Y-96920000D03*
X64750000Y-93110000D03*
D13*
X54750000Y-93110000D03*
D11*
X109460000Y-50080000D03*
X115810000Y-47540000D03*
D12*
X112000000Y-45000000D03*
D13*
X120890000Y-47540000D03*
D14*
X120890000Y-39920000D03*
D13*
X113270000Y-39920000D03*
D14*
X110730000Y-39920000D03*
X117000000Y-36110000D03*
D13*
X107000000Y-36110000D03*
D11*
X38210000Y-107080000D03*
X44560000Y-104540000D03*
D12*
X40750000Y-102000000D03*
D13*
X49640000Y-104540000D03*
D14*
X49640000Y-96920000D03*
D13*
X42020000Y-96920000D03*
D14*
X39480000Y-96920000D03*
X45750000Y-93110000D03*
D13*
X35750000Y-93110000D03*
D11*
X80960000Y-69080000D03*
X87310000Y-66540000D03*
D12*
X83500000Y-64000000D03*
D13*
X92390000Y-66540000D03*
D14*
X92390000Y-58920000D03*
D13*
X84770000Y-58920000D03*
D14*
X82230000Y-58920000D03*
X88500000Y-55110000D03*
D13*
X78500000Y-55110000D03*
D11*
X99960000Y-69080000D03*
X106310000Y-66540000D03*
D12*
X102500000Y-64000000D03*
D13*
X111390000Y-66540000D03*
D14*
X111390000Y-58920000D03*
D13*
X103770000Y-58920000D03*
D14*
X101230000Y-58920000D03*
X107500000Y-55110000D03*
D13*
X97500000Y-55110000D03*
D11*
X95210000Y-107080000D03*
X101560000Y-104540000D03*
D12*
X97750000Y-102000000D03*
D13*
X106640000Y-104540000D03*
D14*
X106640000Y-96920000D03*
D13*
X99020000Y-96920000D03*
D14*
X96480000Y-96920000D03*
X102750000Y-93110000D03*
D13*
X92750000Y-93110000D03*
D11*
X123710000Y-88080000D03*
X130060000Y-85540000D03*
D12*
X126250000Y-83000000D03*
D13*
X135140000Y-85540000D03*
D14*
X135140000Y-77920000D03*
D13*
X127520000Y-77920000D03*
D14*
X124980000Y-77920000D03*
X131250000Y-74110000D03*
D13*
X121250000Y-74110000D03*
D11*
X137960000Y-69080000D03*
X144310000Y-66540000D03*
D12*
X140500000Y-64000000D03*
D13*
X149390000Y-66540000D03*
D14*
X149390000Y-58920000D03*
D13*
X141770000Y-58920000D03*
D14*
X139230000Y-58920000D03*
X145500000Y-72890000D03*
D13*
X135500000Y-72890000D03*
D11*
X104710000Y-88080000D03*
X111060000Y-85540000D03*
D12*
X107250000Y-83000000D03*
D13*
X116140000Y-85540000D03*
D14*
X116140000Y-77920000D03*
D13*
X108520000Y-77920000D03*
D14*
X105980000Y-77920000D03*
X112250000Y-74110000D03*
D13*
X102250000Y-74110000D03*
D11*
X42960000Y-69080000D03*
X49310000Y-66540000D03*
D12*
X45500000Y-64000000D03*
D13*
X54390000Y-66540000D03*
D14*
X54390000Y-58920000D03*
D13*
X46770000Y-58920000D03*
D14*
X44230000Y-58920000D03*
X50500000Y-55110000D03*
D13*
X40500000Y-55110000D03*
D11*
X23960000Y-69080000D03*
X30310000Y-66540000D03*
D12*
X26500000Y-64000000D03*
D13*
X35390000Y-66540000D03*
D14*
X35390000Y-58920000D03*
D13*
X27770000Y-58920000D03*
D14*
X25230000Y-58920000D03*
X31500000Y-55110000D03*
D13*
X21500000Y-55110000D03*
D11*
X190460000Y-126080000D03*
X196810000Y-123540000D03*
D12*
X193000000Y-121000000D03*
D13*
X201890000Y-123540000D03*
D14*
X201890000Y-115920000D03*
D13*
X194270000Y-115920000D03*
D14*
X191730000Y-115920000D03*
X198000000Y-112110000D03*
D13*
X188000000Y-112110000D03*
D11*
X252460000Y-22080000D03*
X258810000Y-19540000D03*
D12*
X255000000Y-17000000D03*
D13*
X263890000Y-19540000D03*
D14*
X263890000Y-11920000D03*
D13*
X256270000Y-11920000D03*
D14*
X253730000Y-11920000D03*
X260000000Y-8110000D03*
D13*
X250000000Y-8110000D03*
D11*
X271460000Y-22080000D03*
X277810000Y-19540000D03*
D12*
X274000000Y-17000000D03*
D13*
X282890000Y-19540000D03*
D14*
X282890000Y-11920000D03*
D13*
X275270000Y-11920000D03*
D14*
X272730000Y-11920000D03*
X279000000Y-8110000D03*
D13*
X269000000Y-8110000D03*
D11*
X290460000Y-22080000D03*
X296810000Y-19540000D03*
D12*
X293000000Y-17000000D03*
D13*
X301890000Y-19540000D03*
D14*
X301890000Y-11920000D03*
D13*
X294270000Y-11920000D03*
D14*
X291730000Y-11920000D03*
X298000000Y-8110000D03*
D13*
X288000000Y-8110000D03*
D11*
X309460000Y-22080000D03*
X315810000Y-19540000D03*
D12*
X312000000Y-17000000D03*
D13*
X320890000Y-19540000D03*
D14*
X320890000Y-11920000D03*
D13*
X313270000Y-11920000D03*
D14*
X310730000Y-11920000D03*
X317000000Y-8110000D03*
D13*
X307000000Y-8110000D03*
D11*
X261960000Y-126080000D03*
X268310000Y-123540000D03*
D12*
X264500000Y-121000000D03*
D13*
X246500000Y-123540000D03*
D14*
X246500000Y-115920000D03*
D13*
X265770000Y-115920000D03*
D14*
X263230000Y-115920000D03*
X269500000Y-112110000D03*
D13*
X259500000Y-112110000D03*
D15*
X276400000Y-129240000D03*
D16*
X276400000Y-114000000D03*
D15*
X252600000Y-129240000D03*
D16*
X252600000Y-114000000D03*
D11*
X252460000Y-107080000D03*
X258810000Y-104540000D03*
D12*
X255000000Y-102000000D03*
D13*
X263890000Y-104540000D03*
D14*
X263890000Y-96920000D03*
D13*
X256270000Y-96920000D03*
D14*
X253730000Y-96920000D03*
X260000000Y-93110000D03*
D13*
X250000000Y-93110000D03*
D11*
X271460000Y-107080000D03*
X277810000Y-104540000D03*
D12*
X274000000Y-102000000D03*
D13*
X282890000Y-104540000D03*
D14*
X282890000Y-96920000D03*
D13*
X275270000Y-96920000D03*
D14*
X272730000Y-96920000D03*
X279000000Y-93110000D03*
D13*
X269000000Y-93110000D03*
D11*
X290460000Y-107080000D03*
X296810000Y-104540000D03*
D12*
X293000000Y-102000000D03*
D13*
X301890000Y-104540000D03*
D14*
X301890000Y-96920000D03*
D13*
X294270000Y-96920000D03*
D14*
X291730000Y-96920000D03*
X298000000Y-93110000D03*
D13*
X288000000Y-93110000D03*
D11*
X252460000Y-88080000D03*
X258810000Y-85540000D03*
D12*
X255000000Y-83000000D03*
D13*
X263890000Y-85540000D03*
D14*
X263890000Y-77920000D03*
D13*
X256270000Y-77920000D03*
D14*
X253730000Y-77920000D03*
X260000000Y-74110000D03*
D13*
X250000000Y-74110000D03*
D11*
X271460000Y-88080000D03*
X277810000Y-85540000D03*
D12*
X274000000Y-83000000D03*
D13*
X282890000Y-85540000D03*
D14*
X282890000Y-77920000D03*
D13*
X275270000Y-77920000D03*
D14*
X272730000Y-77920000D03*
X279000000Y-74110000D03*
D13*
X269000000Y-74110000D03*
D11*
X290460000Y-88080000D03*
X296810000Y-85540000D03*
D12*
X293000000Y-83000000D03*
D13*
X301890000Y-85540000D03*
D14*
X301890000Y-77920000D03*
D13*
X294270000Y-77920000D03*
D14*
X291730000Y-77920000D03*
X298000000Y-74110000D03*
D13*
X288000000Y-74110000D03*
D11*
X252460000Y-69080000D03*
X258810000Y-66540000D03*
D12*
X255000000Y-64000000D03*
D13*
X263890000Y-66540000D03*
D14*
X263890000Y-58920000D03*
D13*
X256270000Y-58920000D03*
D14*
X253730000Y-58920000D03*
X260000000Y-55110000D03*
D13*
X250000000Y-55110000D03*
D11*
X271460000Y-69080000D03*
X277810000Y-66540000D03*
D12*
X274000000Y-64000000D03*
D13*
X282890000Y-66540000D03*
D14*
X282890000Y-58920000D03*
D13*
X275270000Y-58920000D03*
D14*
X272730000Y-58920000D03*
X279000000Y-55110000D03*
D13*
X269000000Y-55110000D03*
D11*
X290460000Y-69080000D03*
X296810000Y-66540000D03*
D12*
X293000000Y-64000000D03*
D13*
X301890000Y-66540000D03*
D14*
X301890000Y-58920000D03*
D13*
X294270000Y-58920000D03*
D14*
X291730000Y-58920000D03*
X298000000Y-55110000D03*
D13*
X288000000Y-55110000D03*
D11*
X290460000Y-50080000D03*
X296810000Y-47540000D03*
D12*
X293000000Y-45000000D03*
D13*
X301890000Y-47540000D03*
D14*
X301890000Y-39920000D03*
D13*
X294270000Y-39920000D03*
D14*
X291730000Y-39920000D03*
X298000000Y-36110000D03*
D13*
X288000000Y-36110000D03*
D11*
X317080000Y-114040000D03*
X314540000Y-107690000D03*
D12*
X312000000Y-111500000D03*
D13*
X314540000Y-129500000D03*
D14*
X306920000Y-129500000D03*
D13*
X306920000Y-110230000D03*
D14*
X306920000Y-112770000D03*
X310000000Y-131500000D03*
D13*
X320000000Y-131500000D03*
D15*
X320240000Y-99600000D03*
D16*
X305000000Y-99600000D03*
D15*
X320240000Y-123400000D03*
D16*
X305000000Y-123400000D03*
D11*
X252460000Y-50080000D03*
X258810000Y-47540000D03*
D12*
X255000000Y-45000000D03*
D13*
X263890000Y-47540000D03*
D14*
X263890000Y-39920000D03*
D13*
X256270000Y-39920000D03*
D14*
X253730000Y-39920000D03*
X260000000Y-36110000D03*
D13*
X250000000Y-36110000D03*
D11*
X309460000Y-50080000D03*
X315810000Y-47540000D03*
D12*
X312000000Y-45000000D03*
D13*
X320890000Y-47540000D03*
D14*
X320890000Y-39920000D03*
D13*
X313270000Y-39920000D03*
D14*
X310730000Y-39920000D03*
X317000000Y-36110000D03*
D13*
X307000000Y-36110000D03*
D11*
X290460000Y-126080000D03*
X296810000Y-123540000D03*
D12*
X293000000Y-121000000D03*
D13*
X301890000Y-123540000D03*
D14*
X301890000Y-115920000D03*
D13*
X294270000Y-115920000D03*
D14*
X291730000Y-115920000D03*
X298000000Y-112110000D03*
D13*
X288000000Y-112110000D03*
D11*
X317080000Y-76040000D03*
X314540000Y-69690000D03*
D12*
X312000000Y-73500000D03*
D13*
X314540000Y-91500000D03*
D14*
X306920000Y-91500000D03*
D13*
X306920000Y-72230000D03*
D14*
X306920000Y-74770000D03*
X310000000Y-93500000D03*
D13*
X320000000Y-93500000D03*
D15*
X320240000Y-61600000D03*
D16*
X305000000Y-61600000D03*
D15*
X320240000Y-85400000D03*
D16*
X305000000Y-85400000D03*
D11*
X271460000Y-50080000D03*
X277810000Y-47540000D03*
D12*
X274000000Y-45000000D03*
D13*
X282890000Y-47540000D03*
D14*
X282890000Y-39920000D03*
D13*
X275270000Y-39920000D03*
D14*
X272730000Y-39920000D03*
X279000000Y-36110000D03*
D13*
X269000000Y-36110000D03*
D11*
X228460000Y-69080000D03*
X234810000Y-66540000D03*
D12*
X231000000Y-64000000D03*
D13*
X239890000Y-66540000D03*
D14*
X239890000Y-58920000D03*
D13*
X232270000Y-58920000D03*
D14*
X229730000Y-58920000D03*
X236000000Y-55110000D03*
D13*
X226000000Y-55110000D03*
D11*
X228460000Y-50080000D03*
X234810000Y-47540000D03*
D12*
X231000000Y-45000000D03*
D13*
X239890000Y-47540000D03*
D14*
X239890000Y-39920000D03*
D13*
X232270000Y-39920000D03*
D14*
X229730000Y-39920000D03*
X236000000Y-36110000D03*
D13*
X226000000Y-36110000D03*
D11*
X228460000Y-22080000D03*
X234810000Y-19540000D03*
D12*
X231000000Y-17000000D03*
D13*
X239890000Y-19540000D03*
D14*
X239890000Y-11920000D03*
D13*
X232270000Y-11920000D03*
D14*
X229730000Y-11920000D03*
X236000000Y-8110000D03*
D13*
X226000000Y-8110000D03*
D11*
X190460000Y-22080000D03*
X196810000Y-19540000D03*
D12*
X193000000Y-17000000D03*
D13*
X201890000Y-19540000D03*
D14*
X201890000Y-11920000D03*
D13*
X194270000Y-11920000D03*
D14*
X191730000Y-11920000D03*
X198000000Y-8110000D03*
D13*
X188000000Y-8110000D03*
D11*
X228460000Y-126080000D03*
X234810000Y-123540000D03*
D12*
X231000000Y-121000000D03*
D13*
X239890000Y-123540000D03*
D14*
X239890000Y-115920000D03*
D13*
X232270000Y-115920000D03*
D14*
X229730000Y-115920000D03*
X236000000Y-112110000D03*
D13*
X226000000Y-112110000D03*
D11*
X92835000Y-126080000D03*
X99185000Y-123540000D03*
D12*
X95375000Y-121000000D03*
D13*
X104265000Y-123540000D03*
D14*
X104265000Y-115920000D03*
D13*
X96645000Y-115920000D03*
D14*
X94105000Y-115920000D03*
X100375000Y-112110000D03*
D13*
X90375000Y-112110000D03*
D11*
X164085000Y-126080000D03*
X170435000Y-123540000D03*
D12*
X166625000Y-121000000D03*
D13*
X175515000Y-123540000D03*
D14*
X175515000Y-115920000D03*
D13*
X167895000Y-115920000D03*
D14*
X165355000Y-115920000D03*
X171625000Y-129890000D03*
D13*
X161625000Y-129890000D03*
D11*
X64335000Y-126080000D03*
X70685000Y-123540000D03*
D12*
X66875000Y-121000000D03*
D13*
X75765000Y-123540000D03*
D14*
X75765000Y-115920000D03*
D13*
X68145000Y-115920000D03*
D14*
X65605000Y-115920000D03*
X71875000Y-112110000D03*
D13*
X61875000Y-112110000D03*
D11*
X140335000Y-126080000D03*
X146685000Y-123540000D03*
D12*
X142875000Y-121000000D03*
D13*
X151765000Y-123540000D03*
D14*
X151765000Y-115920000D03*
D13*
X144145000Y-115920000D03*
D14*
X141605000Y-115920000D03*
X147875000Y-129890000D03*
D13*
X137875000Y-129890000D03*
D11*
X149835000Y-107080000D03*
X156185000Y-104540000D03*
D12*
X152375000Y-102000000D03*
D13*
X170375000Y-104540000D03*
D14*
X170375000Y-96920000D03*
D13*
X153645000Y-96920000D03*
D14*
X151105000Y-96920000D03*
X134375000Y-107000000D03*
D13*
X134375000Y-97000000D03*
D15*
X164275000Y-110240000D03*
D16*
X164275000Y-95000000D03*
D15*
X140475000Y-110240000D03*
D16*
X140475000Y-95000000D03*
D11*
X26335000Y-126080000D03*
X32685000Y-123540000D03*
D12*
X28875000Y-121000000D03*
D13*
X46875000Y-123540000D03*
D14*
X46875000Y-115920000D03*
D13*
X30145000Y-115920000D03*
D14*
X27605000Y-115920000D03*
X10875000Y-126000000D03*
D13*
X10875000Y-116000000D03*
D15*
X40775000Y-129240000D03*
D16*
X40775000Y-114000000D03*
D15*
X16975000Y-129240000D03*
D16*
X16975000Y-114000000D03*
D11*
X116585000Y-126080000D03*
X122935000Y-123540000D03*
D12*
X119125000Y-121000000D03*
D13*
X128015000Y-123540000D03*
D14*
X128015000Y-115920000D03*
D13*
X120395000Y-115920000D03*
D14*
X117855000Y-115920000D03*
X124125000Y-112110000D03*
D13*
X114125000Y-112110000D03*
D11*
X209460000Y-22080000D03*
X215810000Y-19540000D03*
D12*
X212000000Y-17000000D03*
D13*
X220890000Y-19540000D03*
D14*
X220890000Y-11920000D03*
D13*
X213270000Y-11920000D03*
D14*
X210730000Y-11920000D03*
X217000000Y-8110000D03*
D13*
X207000000Y-8110000D03*
D11*
X209460000Y-107080000D03*
X215810000Y-104540000D03*
D12*
X212000000Y-102000000D03*
D13*
X220890000Y-104540000D03*
D14*
X220890000Y-96920000D03*
D13*
X213270000Y-96920000D03*
D14*
X210730000Y-96920000D03*
X217000000Y-93110000D03*
D13*
X207000000Y-93110000D03*
D20*
X3500000Y-3500000D03*
X3500000Y-134500000D03*
X337500000Y-3500000D03*
X337500000Y-134500000D03*
X36000000Y-17000000D03*
X17000000Y-45000000D03*
X21750000Y-102000000D03*
X181000000Y-3500000D03*
X243000000Y-3500000D03*
X181000000Y-31000000D03*
X243000000Y-31000000D03*
X181000000Y-83000000D03*
X243000000Y-83000000D03*
X181000000Y-134500000D03*
X243000000Y-134500000D03*
D21*
X337500000Y-46000000D03*
X337500000Y-10000000D03*
X260000000Y-2500000D03*
X339000000Y-117500000D03*
X339000000Y-60000000D03*
X340000000Y-130000000D03*
X340000000Y-57000000D03*
X121000000Y-130000000D03*
X330500000Y-12000000D03*
X321000000Y-31000000D03*
X325500000Y-34000000D03*
X324000000Y-58500000D03*
X327500000Y-36500000D03*
X327500000Y-78000000D03*
X328500000Y-39000000D03*
X328500000Y-97000000D03*
X329500000Y-42000000D03*
X326000000Y-118500000D03*
X326500000Y-44500000D03*
X325000000Y-23000000D03*
X338000000Y-50000000D03*
X338000000Y-65000000D03*
X336500000Y-52500000D03*
X336500000Y-88000000D03*
X326500000Y-55500000D03*
X325500000Y-104000000D03*
X170500000Y-101000000D03*
X330500000Y-119500000D03*
X9000000Y-69000000D03*
X8000000Y-129000000D03*
X324500000Y-133000000D03*
X325500000Y-61500000D03*
X52000000Y-29000000D03*
X329500000Y-32000000D03*
X326500000Y-1000000D03*
X77500000Y-1500000D03*
X323000000Y-35500000D03*
X323500000Y-72000000D03*
X331500000Y-72000000D03*
X332500000Y-133000000D03*
X248000000Y-133500000D03*
X245500000Y-81000000D03*
X185500000Y-80000000D03*
X185500000Y-28000000D03*
X90000000Y-28000000D03*
X109000000Y-25500000D03*
X261000000Y-25000000D03*
X267000000Y-31500000D03*
X319500000Y-31000000D03*
X319500000Y-38000000D03*
X128500000Y-27000000D03*
X168000000Y-26500000D03*
X168000000Y-44000000D03*
X244000000Y-50000000D03*
X246500000Y-36000000D03*
X315000000Y-36500000D03*
X316000000Y-43000000D03*
X324500000Y-43000000D03*
X323500000Y-27500000D03*
X307500000Y-28000000D03*
X303500000Y-27000000D03*
X289000000Y-28000000D03*
X286000000Y-26000000D03*
X269500000Y-26000000D03*
X267500000Y-23500000D03*
X324500000Y-48500000D03*
X324500000Y-53000000D03*
X192500000Y-26500000D03*
X212000000Y-28000000D03*
X339000000Y-54000000D03*
X339500000Y-24000000D03*
X231000000Y-29000000D03*
X170500000Y-69000000D03*
X158500000Y-106500000D03*
D22*
X337397000Y-45897000D02*
X334897000Y-45897000D01*
X337500000Y-46000000D02*
X337397000Y-45897000D01*
X330500000Y-3000000D02*
X337500000Y-10000000D01*
X260500000Y-3000000D02*
X330500000Y-3000000D01*
X260000000Y-2500000D02*
X260500000Y-3000000D01*
X166460000Y-22080000D02*
X167080000Y-22080000D01*
X167080000Y-22080000D02*
X169000000Y-24000000D01*
X250540000Y-24000000D02*
X252460000Y-22080000D01*
X169000000Y-24000000D02*
X250540000Y-24000000D01*
X163310000Y-47540000D02*
X177500000Y-47540000D01*
X239890000Y-39920000D02*
X241420000Y-39920000D01*
X323706000Y-47294000D02*
X332103000Y-47294000D01*
X321500000Y-49500000D02*
X323706000Y-47294000D01*
X312500000Y-49500000D02*
X321500000Y-49500000D01*
X311000000Y-48000000D02*
X312500000Y-49500000D01*
X307500000Y-48000000D02*
X311000000Y-48000000D01*
X305500000Y-50000000D02*
X307500000Y-48000000D01*
X293500000Y-50000000D02*
X305500000Y-50000000D01*
X291000000Y-47500000D02*
X293500000Y-50000000D01*
X288500000Y-47500000D02*
X291000000Y-47500000D01*
X286000000Y-50000000D02*
X288500000Y-47500000D01*
X274000000Y-50000000D02*
X286000000Y-50000000D01*
X271500000Y-47500000D02*
X274000000Y-50000000D01*
X267500000Y-47500000D02*
X271500000Y-47500000D01*
X262000000Y-42000000D02*
X267500000Y-47500000D01*
X243500000Y-42000000D02*
X262000000Y-42000000D01*
X241420000Y-39920000D02*
X243500000Y-42000000D01*
X220890000Y-39920000D02*
X220890000Y-40390000D01*
X220890000Y-40390000D02*
X222500000Y-42000000D01*
X237810000Y-42000000D02*
X239890000Y-39920000D01*
X222500000Y-42000000D02*
X237810000Y-42000000D01*
X201890000Y-39920000D02*
X201920000Y-39920000D01*
X201920000Y-39920000D02*
X204000000Y-42000000D01*
X218810000Y-42000000D02*
X220890000Y-39920000D01*
X204000000Y-42000000D02*
X218810000Y-42000000D01*
X177500000Y-39920000D02*
X177920000Y-39920000D01*
X177920000Y-39920000D02*
X179500000Y-41500000D01*
X200310000Y-41500000D02*
X201890000Y-39920000D01*
X179500000Y-41500000D02*
X200310000Y-41500000D01*
X139890000Y-39920000D02*
X140920000Y-39920000D01*
X175420000Y-42000000D02*
X177500000Y-39920000D01*
X143000000Y-42000000D02*
X175420000Y-42000000D01*
X140920000Y-39920000D02*
X143000000Y-42000000D01*
X120890000Y-39920000D02*
X121920000Y-39920000D01*
X138310000Y-41500000D02*
X139890000Y-39920000D01*
X123500000Y-41500000D02*
X138310000Y-41500000D01*
X121920000Y-39920000D02*
X123500000Y-41500000D01*
X101890000Y-39920000D02*
X101920000Y-39920000D01*
X101920000Y-39920000D02*
X103500000Y-41500000D01*
X119310000Y-41500000D02*
X120890000Y-39920000D01*
X103500000Y-41500000D02*
X119310000Y-41500000D01*
X82890000Y-39920000D02*
X82920000Y-39920000D01*
X82920000Y-39920000D02*
X85000000Y-42000000D01*
X99810000Y-42000000D02*
X101890000Y-39920000D01*
X85000000Y-42000000D02*
X99810000Y-42000000D01*
X63890000Y-39920000D02*
X64920000Y-39920000D01*
X80810000Y-42000000D02*
X82890000Y-39920000D01*
X67000000Y-42000000D02*
X80810000Y-42000000D01*
X64920000Y-39920000D02*
X67000000Y-42000000D01*
X44890000Y-39920000D02*
X45920000Y-39920000D01*
X61810000Y-42000000D02*
X63890000Y-39920000D01*
X48000000Y-42000000D02*
X61810000Y-42000000D01*
X45920000Y-39920000D02*
X48000000Y-42000000D01*
X160770000Y-39920000D02*
X160770000Y-39840000D01*
X160770000Y-39840000D02*
X164500000Y-36110000D01*
X334897000Y-59740000D02*
X338740000Y-59740000D01*
X339000000Y-117500000D02*
X338500000Y-117000000D01*
X338500000Y-117000000D02*
X311150000Y-117000000D01*
X311150000Y-117000000D02*
X306920000Y-112770000D01*
X338740000Y-59740000D02*
X339000000Y-60000000D01*
X291730000Y-115920000D02*
X291730000Y-114270000D01*
X304150000Y-110000000D02*
X306920000Y-112770000D01*
X296000000Y-110000000D02*
X304150000Y-110000000D01*
X291730000Y-114270000D02*
X296000000Y-110000000D01*
X263230000Y-115920000D02*
X263230000Y-113770000D01*
X287420000Y-115920000D02*
X291730000Y-115920000D01*
X281500000Y-110000000D02*
X287420000Y-115920000D01*
X267000000Y-110000000D02*
X281500000Y-110000000D01*
X263230000Y-113770000D02*
X267000000Y-110000000D01*
X229730000Y-115920000D02*
X229730000Y-113770000D01*
X259000000Y-115500000D02*
X262810000Y-115500000D01*
X253500000Y-110000000D02*
X259000000Y-115500000D01*
X233500000Y-110000000D02*
X253500000Y-110000000D01*
X229730000Y-113770000D02*
X233500000Y-110000000D01*
X262810000Y-115500000D02*
X263230000Y-115920000D01*
X210730000Y-115920000D02*
X210730000Y-113770000D01*
X226420000Y-115920000D02*
X229730000Y-115920000D01*
X220500000Y-110000000D02*
X226420000Y-115920000D01*
X214500000Y-110000000D02*
X220500000Y-110000000D01*
X210730000Y-113770000D02*
X214500000Y-110000000D01*
X191730000Y-115920000D02*
X191730000Y-113770000D01*
X207920000Y-115920000D02*
X210730000Y-115920000D01*
X202000000Y-110000000D02*
X207920000Y-115920000D01*
X195500000Y-110000000D02*
X202000000Y-110000000D01*
X191730000Y-113770000D02*
X195500000Y-110000000D01*
X165355000Y-115920000D02*
X165355000Y-115645000D01*
X165355000Y-115645000D02*
X170500000Y-110500000D01*
X186420000Y-115920000D02*
X191730000Y-115920000D01*
X181000000Y-110500000D02*
X186420000Y-115920000D01*
X170500000Y-110500000D02*
X181000000Y-110500000D01*
X141605000Y-115920000D02*
X141605000Y-114895000D01*
X163920000Y-115920000D02*
X165355000Y-115920000D01*
X159000000Y-111000000D02*
X163920000Y-115920000D01*
X145500000Y-111000000D02*
X159000000Y-111000000D01*
X141605000Y-114895000D02*
X145500000Y-111000000D01*
X117855000Y-115920000D02*
X117855000Y-114145000D01*
X133420000Y-115920000D02*
X141605000Y-115920000D01*
X128000000Y-110500000D02*
X133420000Y-115920000D01*
X121500000Y-110500000D02*
X128000000Y-110500000D01*
X117855000Y-114145000D02*
X121500000Y-110500000D01*
X94105000Y-115920000D02*
X94105000Y-113895000D01*
X113920000Y-115920000D02*
X117855000Y-115920000D01*
X108000000Y-110000000D02*
X113920000Y-115920000D01*
X98000000Y-110000000D02*
X108000000Y-110000000D01*
X94105000Y-113895000D02*
X98000000Y-110000000D01*
X65605000Y-115920000D02*
X65605000Y-113895000D01*
X81420000Y-115920000D02*
X94105000Y-115920000D01*
X75500000Y-110000000D02*
X81420000Y-115920000D01*
X69500000Y-110000000D02*
X75500000Y-110000000D01*
X65605000Y-113895000D02*
X69500000Y-110000000D01*
X27605000Y-115920000D02*
X27605000Y-108795000D01*
X27605000Y-108795000D02*
X39480000Y-96920000D01*
X272730000Y-96920000D02*
X272730000Y-95270000D01*
X287920000Y-96920000D02*
X291730000Y-96920000D01*
X282000000Y-91000000D02*
X287920000Y-96920000D01*
X277000000Y-91000000D02*
X282000000Y-91000000D01*
X272730000Y-95270000D02*
X277000000Y-91000000D01*
X253730000Y-96920000D02*
X253730000Y-95270000D01*
X268420000Y-96920000D02*
X272730000Y-96920000D01*
X262500000Y-91000000D02*
X268420000Y-96920000D01*
X258000000Y-91000000D02*
X262500000Y-91000000D01*
X253730000Y-95270000D02*
X258000000Y-91000000D01*
X210730000Y-96920000D02*
X210730000Y-95770000D01*
X247920000Y-96920000D02*
X253730000Y-96920000D01*
X242000000Y-91000000D02*
X247920000Y-96920000D01*
X215500000Y-91000000D02*
X242000000Y-91000000D01*
X210730000Y-95770000D02*
X215500000Y-91000000D01*
X151105000Y-96920000D02*
X151105000Y-96395000D01*
X151105000Y-96395000D02*
X152500000Y-95000000D01*
X184580000Y-96920000D02*
X210730000Y-96920000D01*
X182000000Y-99500000D02*
X184580000Y-96920000D01*
X164000000Y-99500000D02*
X182000000Y-99500000D01*
X159500000Y-95000000D02*
X164000000Y-99500000D01*
X152500000Y-95000000D02*
X159500000Y-95000000D01*
X115480000Y-96920000D02*
X115480000Y-95020000D01*
X143580000Y-96920000D02*
X151105000Y-96920000D01*
X141000000Y-99500000D02*
X143580000Y-96920000D01*
X133000000Y-99500000D02*
X141000000Y-99500000D01*
X124500000Y-91000000D02*
X133000000Y-99500000D01*
X119500000Y-91000000D02*
X124500000Y-91000000D01*
X115480000Y-95020000D02*
X119500000Y-91000000D01*
X96480000Y-96920000D02*
X96480000Y-94520000D01*
X110920000Y-96920000D02*
X115480000Y-96920000D01*
X105000000Y-91000000D02*
X110920000Y-96920000D01*
X100000000Y-91000000D02*
X105000000Y-91000000D01*
X96480000Y-94520000D02*
X100000000Y-91000000D01*
X77480000Y-96920000D02*
X77480000Y-95020000D01*
X77480000Y-95020000D02*
X81500000Y-91000000D01*
X81500000Y-91000000D02*
X85500000Y-91000000D01*
X85500000Y-91000000D02*
X91420000Y-96920000D01*
X91420000Y-96920000D02*
X96480000Y-96920000D01*
X58480000Y-96920000D02*
X58480000Y-95020000D01*
X58480000Y-95020000D02*
X62500000Y-91000000D01*
X62500000Y-91000000D02*
X67000000Y-91000000D01*
X67000000Y-91000000D02*
X72920000Y-96920000D01*
X72920000Y-96920000D02*
X77480000Y-96920000D01*
X39480000Y-96920000D02*
X39480000Y-95020000D01*
X53920000Y-96920000D02*
X58480000Y-96920000D01*
X48000000Y-91000000D02*
X53920000Y-96920000D01*
X43500000Y-91000000D02*
X48000000Y-91000000D01*
X39480000Y-95020000D02*
X43500000Y-91000000D01*
X291730000Y-77920000D02*
X291730000Y-75770000D01*
X303650000Y-71500000D02*
X306920000Y-74770000D01*
X296000000Y-71500000D02*
X303650000Y-71500000D01*
X291730000Y-75770000D02*
X296000000Y-71500000D01*
X272730000Y-77920000D02*
X272730000Y-75770000D01*
X287920000Y-77920000D02*
X291730000Y-77920000D01*
X282000000Y-72000000D02*
X287920000Y-77920000D01*
X276500000Y-72000000D02*
X282000000Y-72000000D01*
X272730000Y-75770000D02*
X276500000Y-72000000D01*
X253730000Y-77920000D02*
X253730000Y-75770000D01*
X269420000Y-77920000D02*
X272730000Y-77920000D01*
X263500000Y-72000000D02*
X269420000Y-77920000D01*
X257500000Y-72000000D02*
X263500000Y-72000000D01*
X253730000Y-75770000D02*
X257500000Y-72000000D01*
X155855000Y-77920000D02*
X155855000Y-76645000D01*
X250000000Y-78000000D02*
X253650000Y-78000000D01*
X244000000Y-72000000D02*
X250000000Y-78000000D01*
X160500000Y-72000000D02*
X244000000Y-72000000D01*
X155855000Y-76645000D02*
X160500000Y-72000000D01*
X253650000Y-78000000D02*
X253730000Y-77920000D01*
X124980000Y-77920000D02*
X124980000Y-76020000D01*
X153775000Y-80000000D02*
X155855000Y-77920000D01*
X142000000Y-80000000D02*
X153775000Y-80000000D01*
X137500000Y-75500000D02*
X142000000Y-80000000D01*
X135000000Y-75500000D02*
X137500000Y-75500000D01*
X134000000Y-74500000D02*
X135000000Y-75500000D01*
X134000000Y-73500000D02*
X134000000Y-74500000D01*
X132500000Y-72000000D02*
X134000000Y-73500000D01*
X129000000Y-72000000D02*
X132500000Y-72000000D01*
X124980000Y-76020000D02*
X129000000Y-72000000D01*
X105980000Y-77920000D02*
X105980000Y-76020000D01*
X120920000Y-77920000D02*
X124980000Y-77920000D01*
X115000000Y-72000000D02*
X120920000Y-77920000D01*
X110000000Y-72000000D02*
X115000000Y-72000000D01*
X105980000Y-76020000D02*
X110000000Y-72000000D01*
X86980000Y-77920000D02*
X86980000Y-75520000D01*
X101920000Y-77920000D02*
X105980000Y-77920000D01*
X96000000Y-72000000D02*
X101920000Y-77920000D01*
X90500000Y-72000000D02*
X96000000Y-72000000D01*
X86980000Y-75520000D02*
X90500000Y-72000000D01*
X67980000Y-77920000D02*
X67980000Y-75520000D01*
X67980000Y-75520000D02*
X71500000Y-72000000D01*
X71500000Y-72000000D02*
X77000000Y-72000000D01*
X77000000Y-72000000D02*
X82920000Y-77920000D01*
X82920000Y-77920000D02*
X86980000Y-77920000D01*
X48980000Y-77920000D02*
X48980000Y-75520000D01*
X48980000Y-75520000D02*
X52500000Y-72000000D01*
X52500000Y-72000000D02*
X57500000Y-72000000D01*
X57500000Y-72000000D02*
X63420000Y-77920000D01*
X63420000Y-77920000D02*
X67980000Y-77920000D01*
X29980000Y-77920000D02*
X29980000Y-75520000D01*
X44420000Y-77920000D02*
X48980000Y-77920000D01*
X38500000Y-72000000D02*
X44420000Y-77920000D01*
X33500000Y-72000000D02*
X38500000Y-72000000D01*
X29980000Y-75520000D02*
X33500000Y-72000000D01*
X272730000Y-58920000D02*
X272730000Y-57270000D01*
X286920000Y-58920000D02*
X291730000Y-58920000D01*
X281000000Y-53000000D02*
X286920000Y-58920000D01*
X277000000Y-53000000D02*
X281000000Y-53000000D01*
X272730000Y-57270000D02*
X277000000Y-53000000D01*
X253730000Y-58920000D02*
X253730000Y-56270000D01*
X268420000Y-58920000D02*
X272730000Y-58920000D01*
X262500000Y-53000000D02*
X268420000Y-58920000D01*
X257000000Y-53000000D02*
X262500000Y-53000000D01*
X253730000Y-56270000D02*
X257000000Y-53000000D01*
X229730000Y-58920000D02*
X229730000Y-56770000D01*
X246920000Y-58920000D02*
X253730000Y-58920000D01*
X241000000Y-53000000D02*
X246920000Y-58920000D01*
X233500000Y-53000000D02*
X241000000Y-53000000D01*
X229730000Y-56770000D02*
X233500000Y-53000000D01*
X210730000Y-58920000D02*
X210730000Y-57270000D01*
X224920000Y-58920000D02*
X229730000Y-58920000D01*
X219000000Y-53000000D02*
X224920000Y-58920000D01*
X215000000Y-53000000D02*
X219000000Y-53000000D01*
X210730000Y-57270000D02*
X215000000Y-53000000D01*
X191730000Y-58920000D02*
X191730000Y-56270000D01*
X206920000Y-58920000D02*
X210730000Y-58920000D01*
X201000000Y-53000000D02*
X206920000Y-58920000D01*
X195000000Y-53000000D02*
X201000000Y-53000000D01*
X191730000Y-56270000D02*
X195000000Y-53000000D01*
X162980000Y-58920000D02*
X162980000Y-57520000D01*
X182920000Y-58920000D02*
X191730000Y-58920000D01*
X180500000Y-56500000D02*
X182920000Y-58920000D01*
X164000000Y-56500000D02*
X180500000Y-56500000D01*
X162980000Y-57520000D02*
X164000000Y-56500000D01*
X139230000Y-58920000D02*
X139230000Y-58770000D01*
X139230000Y-58770000D02*
X141500000Y-56500000D01*
X161580000Y-58920000D02*
X162980000Y-58920000D01*
X159500000Y-61000000D02*
X161580000Y-58920000D01*
X153500000Y-61000000D02*
X159500000Y-61000000D01*
X153500000Y-59500000D02*
X153500000Y-61000000D01*
X150500000Y-56500000D02*
X153500000Y-59500000D01*
X141500000Y-56500000D02*
X150500000Y-56500000D01*
X120230000Y-58920000D02*
X120230000Y-56770000D01*
X120230000Y-56770000D02*
X124000000Y-53000000D01*
X124000000Y-53000000D02*
X129000000Y-53000000D01*
X129000000Y-53000000D02*
X134920000Y-58920000D01*
X134920000Y-58920000D02*
X139230000Y-58920000D01*
X101230000Y-58920000D02*
X101230000Y-56770000D01*
X101230000Y-56770000D02*
X105000000Y-53000000D01*
X105000000Y-53000000D02*
X110500000Y-53000000D01*
X110500000Y-53000000D02*
X116420000Y-58920000D01*
X116420000Y-58920000D02*
X120230000Y-58920000D01*
X82230000Y-58920000D02*
X82230000Y-57270000D01*
X96920000Y-58920000D02*
X101230000Y-58920000D01*
X91000000Y-53000000D02*
X96920000Y-58920000D01*
X86500000Y-53000000D02*
X91000000Y-53000000D01*
X82230000Y-57270000D02*
X86500000Y-53000000D01*
X63230000Y-58920000D02*
X63230000Y-57270000D01*
X77420000Y-58920000D02*
X82230000Y-58920000D01*
X71500000Y-53000000D02*
X77420000Y-58920000D01*
X67500000Y-53000000D02*
X71500000Y-53000000D01*
X63230000Y-57270000D02*
X67500000Y-53000000D01*
X44230000Y-58920000D02*
X44230000Y-57270000D01*
X58920000Y-58920000D02*
X63230000Y-58920000D01*
X53000000Y-53000000D02*
X58920000Y-58920000D01*
X48500000Y-53000000D02*
X53000000Y-53000000D01*
X44230000Y-57270000D02*
X48500000Y-53000000D01*
X25230000Y-58920000D02*
X25230000Y-56270000D01*
X39420000Y-58920000D02*
X44230000Y-58920000D01*
X33500000Y-53000000D02*
X39420000Y-58920000D01*
X28500000Y-53000000D02*
X33500000Y-53000000D01*
X25230000Y-56270000D02*
X28500000Y-53000000D01*
X291730000Y-39920000D02*
X291730000Y-37270000D01*
X305920000Y-39920000D02*
X310730000Y-39920000D01*
X300000000Y-34000000D02*
X305920000Y-39920000D01*
X295000000Y-34000000D02*
X300000000Y-34000000D01*
X291730000Y-37270000D02*
X295000000Y-34000000D01*
X272730000Y-39920000D02*
X272730000Y-37270000D01*
X287420000Y-39920000D02*
X291730000Y-39920000D01*
X281500000Y-34000000D02*
X287420000Y-39920000D01*
X276000000Y-34000000D02*
X281500000Y-34000000D01*
X272730000Y-37270000D02*
X276000000Y-34000000D01*
X253730000Y-39920000D02*
X253730000Y-36770000D01*
X267420000Y-39920000D02*
X272730000Y-39920000D01*
X260500000Y-33000000D02*
X267420000Y-39920000D01*
X257500000Y-33000000D02*
X260500000Y-33000000D01*
X253730000Y-36770000D02*
X257500000Y-33000000D01*
X229730000Y-39920000D02*
X229730000Y-36770000D01*
X244500000Y-40000000D02*
X253650000Y-40000000D01*
X238000000Y-33500000D02*
X244500000Y-40000000D01*
X233000000Y-33500000D02*
X238000000Y-33500000D01*
X229730000Y-36770000D02*
X233000000Y-33500000D01*
X253650000Y-40000000D02*
X253730000Y-39920000D01*
X210730000Y-39920000D02*
X210730000Y-36770000D01*
X225420000Y-39920000D02*
X229730000Y-39920000D01*
X219000000Y-33500000D02*
X225420000Y-39920000D01*
X214000000Y-33500000D02*
X219000000Y-33500000D01*
X210730000Y-36770000D02*
X214000000Y-33500000D01*
X191730000Y-39920000D02*
X191730000Y-37270000D01*
X206920000Y-39920000D02*
X210730000Y-39920000D01*
X200500000Y-33500000D02*
X206920000Y-39920000D01*
X195500000Y-33500000D02*
X200500000Y-33500000D01*
X191730000Y-37270000D02*
X195500000Y-33500000D01*
X158230000Y-39920000D02*
X158230000Y-37270000D01*
X181920000Y-39920000D02*
X191730000Y-39920000D01*
X175000000Y-33000000D02*
X181920000Y-39920000D01*
X162500000Y-33000000D02*
X175000000Y-33000000D01*
X158230000Y-37270000D02*
X162500000Y-33000000D01*
X129730000Y-39920000D02*
X129730000Y-37270000D01*
X129730000Y-37270000D02*
X134500000Y-32500000D01*
X134500000Y-32500000D02*
X147500000Y-32500000D01*
X147500000Y-32500000D02*
X155000000Y-40000000D01*
X155000000Y-40000000D02*
X158150000Y-40000000D01*
X158150000Y-40000000D02*
X158230000Y-39920000D01*
X110730000Y-39920000D02*
X110730000Y-37270000D01*
X110730000Y-37270000D02*
X114500000Y-33500000D01*
X114500000Y-33500000D02*
X119000000Y-33500000D01*
X119000000Y-33500000D02*
X125420000Y-39920000D01*
X125420000Y-39920000D02*
X129730000Y-39920000D01*
X91730000Y-39920000D02*
X91730000Y-37270000D01*
X106920000Y-39920000D02*
X110730000Y-39920000D01*
X100000000Y-33000000D02*
X106920000Y-39920000D01*
X96000000Y-33000000D02*
X100000000Y-33000000D01*
X91730000Y-37270000D02*
X96000000Y-33000000D01*
X72730000Y-39920000D02*
X72730000Y-37270000D01*
X87420000Y-39920000D02*
X91730000Y-39920000D01*
X80500000Y-33000000D02*
X87420000Y-39920000D01*
X77000000Y-33000000D02*
X80500000Y-33000000D01*
X72730000Y-37270000D02*
X77000000Y-33000000D01*
X53730000Y-39920000D02*
X53730000Y-37270000D01*
X67920000Y-39920000D02*
X72730000Y-39920000D01*
X61500000Y-33500000D02*
X67920000Y-39920000D01*
X57500000Y-33500000D02*
X61500000Y-33500000D01*
X53730000Y-37270000D02*
X57500000Y-33500000D01*
X34730000Y-39920000D02*
X34730000Y-37770000D01*
X49420000Y-39920000D02*
X53730000Y-39920000D01*
X43000000Y-33500000D02*
X49420000Y-39920000D01*
X39000000Y-33500000D02*
X43000000Y-33500000D01*
X34730000Y-37770000D02*
X39000000Y-33500000D01*
X291730000Y-11920000D02*
X291730000Y-8770000D01*
X305920000Y-11920000D02*
X310730000Y-11920000D01*
X300000000Y-6000000D02*
X305920000Y-11920000D01*
X294500000Y-6000000D02*
X300000000Y-6000000D01*
X291730000Y-8770000D02*
X294500000Y-6000000D01*
X272730000Y-11920000D02*
X272730000Y-9770000D01*
X287420000Y-11920000D02*
X291730000Y-11920000D01*
X281000000Y-5500000D02*
X287420000Y-11920000D01*
X277000000Y-5500000D02*
X281000000Y-5500000D01*
X272730000Y-9770000D02*
X277000000Y-5500000D01*
X253730000Y-11920000D02*
X253730000Y-8770000D01*
X267920000Y-11920000D02*
X272730000Y-11920000D01*
X261500000Y-5500000D02*
X267920000Y-11920000D01*
X257000000Y-5500000D02*
X261500000Y-5500000D01*
X253730000Y-8770000D02*
X257000000Y-5500000D01*
X229730000Y-11920000D02*
X229730000Y-9270000D01*
X243920000Y-11920000D02*
X253730000Y-11920000D01*
X238000000Y-6000000D02*
X243920000Y-11920000D01*
X233000000Y-6000000D02*
X238000000Y-6000000D01*
X229730000Y-9270000D02*
X233000000Y-6000000D01*
X210730000Y-11920000D02*
X210730000Y-9270000D01*
X225420000Y-11920000D02*
X229730000Y-11920000D01*
X219500000Y-6000000D02*
X225420000Y-11920000D01*
X214000000Y-6000000D02*
X219500000Y-6000000D01*
X210730000Y-9270000D02*
X214000000Y-6000000D01*
X191730000Y-11920000D02*
X191730000Y-9270000D01*
X205920000Y-11920000D02*
X210730000Y-11920000D01*
X200000000Y-6000000D02*
X205920000Y-11920000D01*
X195000000Y-6000000D02*
X200000000Y-6000000D01*
X191730000Y-9270000D02*
X195000000Y-6000000D01*
X167730000Y-11920000D02*
X167730000Y-9770000D01*
X182420000Y-11920000D02*
X191730000Y-11920000D01*
X176500000Y-6000000D02*
X182420000Y-11920000D01*
X171500000Y-6000000D02*
X176500000Y-6000000D01*
X167730000Y-9770000D02*
X171500000Y-6000000D01*
X148730000Y-11920000D02*
X148730000Y-8770000D01*
X163420000Y-11920000D02*
X167730000Y-11920000D01*
X157000000Y-5500000D02*
X163420000Y-11920000D01*
X152000000Y-5500000D02*
X157000000Y-5500000D01*
X148730000Y-8770000D02*
X152000000Y-5500000D01*
X129730000Y-11920000D02*
X129730000Y-8770000D01*
X144420000Y-11920000D02*
X148730000Y-11920000D01*
X138000000Y-5500000D02*
X144420000Y-11920000D01*
X133000000Y-5500000D02*
X138000000Y-5500000D01*
X129730000Y-8770000D02*
X133000000Y-5500000D01*
X110730000Y-11920000D02*
X110730000Y-8770000D01*
X125420000Y-11920000D02*
X129730000Y-11920000D01*
X119000000Y-5500000D02*
X125420000Y-11920000D01*
X114000000Y-5500000D02*
X119000000Y-5500000D01*
X110730000Y-8770000D02*
X114000000Y-5500000D01*
X91730000Y-11920000D02*
X91730000Y-9270000D01*
X105920000Y-11920000D02*
X110730000Y-11920000D01*
X99500000Y-5500000D02*
X105920000Y-11920000D01*
X95500000Y-5500000D02*
X99500000Y-5500000D01*
X91730000Y-9270000D02*
X95500000Y-5500000D01*
X72730000Y-11920000D02*
X72730000Y-9270000D01*
X87420000Y-11920000D02*
X91730000Y-11920000D01*
X81000000Y-5500000D02*
X87420000Y-11920000D01*
X76500000Y-5500000D02*
X81000000Y-5500000D01*
X72730000Y-9270000D02*
X76500000Y-5500000D01*
X53730000Y-11920000D02*
X53730000Y-9270000D01*
X67920000Y-11920000D02*
X72730000Y-11920000D01*
X61500000Y-5500000D02*
X67920000Y-11920000D01*
X57500000Y-5500000D02*
X61500000Y-5500000D01*
X53730000Y-9270000D02*
X57500000Y-5500000D01*
X334897000Y-56946000D02*
X339946000Y-56946000D01*
X338500000Y-131500000D02*
X320000000Y-131500000D01*
X340000000Y-130000000D02*
X338500000Y-131500000D01*
X339946000Y-56946000D02*
X340000000Y-57000000D01*
X259500000Y-112110000D02*
X260890000Y-112110000D01*
X284890000Y-109000000D02*
X288000000Y-112110000D01*
X264000000Y-109000000D02*
X284890000Y-109000000D01*
X260890000Y-112110000D02*
X264000000Y-109000000D01*
X226000000Y-112110000D02*
X226000000Y-112000000D01*
X226000000Y-112000000D02*
X229000000Y-109000000D01*
X256390000Y-109000000D02*
X259500000Y-112110000D01*
X229000000Y-109000000D02*
X256390000Y-109000000D01*
X207000000Y-112110000D02*
X208890000Y-112110000D01*
X222890000Y-109000000D02*
X226000000Y-112110000D01*
X212000000Y-109000000D02*
X222890000Y-109000000D01*
X208890000Y-112110000D02*
X212000000Y-109000000D01*
X188000000Y-112110000D02*
X188000000Y-111500000D01*
X188000000Y-111500000D02*
X190500000Y-109000000D01*
X203890000Y-109000000D02*
X207000000Y-112110000D01*
X190500000Y-109000000D02*
X203890000Y-109000000D01*
X114125000Y-112110000D02*
X114890000Y-112110000D01*
X114890000Y-112110000D02*
X117500000Y-109500000D01*
X184890000Y-109000000D02*
X188000000Y-112110000D01*
X168500000Y-109000000D02*
X184890000Y-109000000D01*
X166500000Y-107000000D02*
X168500000Y-109000000D01*
X162000000Y-107000000D02*
X166500000Y-107000000D01*
X160000000Y-109000000D02*
X162000000Y-107000000D01*
X145000000Y-109000000D02*
X160000000Y-109000000D01*
X142500000Y-106500000D02*
X145000000Y-109000000D01*
X139500000Y-106500000D02*
X142500000Y-106500000D01*
X136500000Y-109500000D02*
X139500000Y-106500000D01*
X117500000Y-109500000D02*
X136500000Y-109500000D01*
X137875000Y-129890000D02*
X137875000Y-130875000D01*
X157515000Y-134000000D02*
X161625000Y-129890000D01*
X141000000Y-134000000D02*
X157515000Y-134000000D01*
X137875000Y-130875000D02*
X141000000Y-134000000D01*
X121110000Y-129890000D02*
X137875000Y-129890000D01*
X121000000Y-130000000D02*
X121110000Y-129890000D01*
X90375000Y-112110000D02*
X90390000Y-112110000D01*
X90390000Y-112110000D02*
X93500000Y-109000000D01*
X111015000Y-109000000D02*
X114125000Y-112110000D01*
X93500000Y-109000000D02*
X111015000Y-109000000D01*
X61875000Y-112110000D02*
X62390000Y-112110000D01*
X62390000Y-112110000D02*
X65500000Y-109000000D01*
X65500000Y-109000000D02*
X87265000Y-109000000D01*
X87265000Y-109000000D02*
X90375000Y-112110000D01*
X10875000Y-116000000D02*
X10875000Y-102125000D01*
X19890000Y-93110000D02*
X35750000Y-93110000D01*
X10875000Y-102125000D02*
X19890000Y-93110000D01*
X288000000Y-93110000D02*
X288890000Y-93110000D01*
X315000000Y-88500000D02*
X320000000Y-93500000D01*
X302000000Y-88500000D02*
X315000000Y-88500000D01*
X300500000Y-90000000D02*
X302000000Y-88500000D01*
X292000000Y-90000000D02*
X300500000Y-90000000D01*
X288890000Y-93110000D02*
X292000000Y-90000000D01*
X269000000Y-93110000D02*
X269390000Y-93110000D01*
X269390000Y-93110000D02*
X272500000Y-90000000D01*
X284890000Y-90000000D02*
X288000000Y-93110000D01*
X272500000Y-90000000D02*
X284890000Y-90000000D01*
X250000000Y-93110000D02*
X251390000Y-93110000D01*
X265890000Y-90000000D02*
X269000000Y-93110000D01*
X254500000Y-90000000D02*
X265890000Y-90000000D01*
X251390000Y-93110000D02*
X254500000Y-90000000D01*
X207000000Y-93110000D02*
X207000000Y-93000000D01*
X207000000Y-93000000D02*
X210000000Y-90000000D01*
X246890000Y-90000000D02*
X250000000Y-93110000D01*
X210000000Y-90000000D02*
X246890000Y-90000000D01*
X134375000Y-97000000D02*
X134500000Y-97000000D01*
X134500000Y-97000000D02*
X143500000Y-88000000D01*
X176110000Y-93110000D02*
X207000000Y-93110000D01*
X171500000Y-88500000D02*
X176110000Y-93110000D01*
X167000000Y-88500000D02*
X171500000Y-88500000D01*
X163500000Y-92000000D02*
X167000000Y-88500000D01*
X150000000Y-92000000D02*
X163500000Y-92000000D01*
X146000000Y-88000000D02*
X150000000Y-92000000D01*
X143500000Y-88000000D02*
X146000000Y-88000000D01*
X111750000Y-93110000D02*
X111890000Y-93110000D01*
X111890000Y-93110000D02*
X115000000Y-90000000D01*
X127375000Y-90000000D02*
X134375000Y-97000000D01*
X115000000Y-90000000D02*
X127375000Y-90000000D01*
X92750000Y-93110000D02*
X93390000Y-93110000D01*
X93390000Y-93110000D02*
X96500000Y-90000000D01*
X108640000Y-90000000D02*
X111750000Y-93110000D01*
X96500000Y-90000000D02*
X108640000Y-90000000D01*
X73750000Y-93110000D02*
X74890000Y-93110000D01*
X74890000Y-93110000D02*
X78000000Y-90000000D01*
X78000000Y-90000000D02*
X89640000Y-90000000D01*
X89640000Y-90000000D02*
X92750000Y-93110000D01*
X54750000Y-93110000D02*
X54890000Y-93110000D01*
X54890000Y-93110000D02*
X58000000Y-90000000D01*
X58000000Y-90000000D02*
X70640000Y-90000000D01*
X70640000Y-90000000D02*
X73750000Y-93110000D01*
X35750000Y-93110000D02*
X35890000Y-93110000D01*
X35890000Y-93110000D02*
X39000000Y-90000000D01*
X39000000Y-90000000D02*
X51640000Y-90000000D01*
X51640000Y-90000000D02*
X54750000Y-93110000D01*
X269000000Y-74110000D02*
X270390000Y-74110000D01*
X284890000Y-71000000D02*
X288000000Y-74110000D01*
X273500000Y-71000000D02*
X284890000Y-71000000D01*
X270390000Y-74110000D02*
X273500000Y-71000000D01*
X250000000Y-74110000D02*
X250000000Y-74000000D01*
X250000000Y-74000000D02*
X253000000Y-71000000D01*
X265890000Y-71000000D02*
X269000000Y-74110000D01*
X253000000Y-71000000D02*
X265890000Y-71000000D01*
X152125000Y-74110000D02*
X156390000Y-74110000D01*
X246890000Y-71000000D02*
X250000000Y-74110000D01*
X159500000Y-71000000D02*
X246890000Y-71000000D01*
X156390000Y-74110000D02*
X159500000Y-71000000D01*
X135500000Y-72890000D02*
X137390000Y-72890000D01*
X147735000Y-78500000D02*
X152125000Y-74110000D01*
X143000000Y-78500000D02*
X147735000Y-78500000D01*
X137390000Y-72890000D02*
X143000000Y-78500000D01*
X121250000Y-74110000D02*
X121250000Y-73250000D01*
X133610000Y-71000000D02*
X135500000Y-72890000D01*
X123500000Y-71000000D02*
X133610000Y-71000000D01*
X121250000Y-73250000D02*
X123500000Y-71000000D01*
X102250000Y-74110000D02*
X102390000Y-74110000D01*
X102390000Y-74110000D02*
X105500000Y-71000000D01*
X118140000Y-71000000D02*
X121250000Y-74110000D01*
X105500000Y-71000000D02*
X118140000Y-71000000D01*
X83250000Y-74110000D02*
X83250000Y-73750000D01*
X83250000Y-73750000D02*
X86000000Y-71000000D01*
X99140000Y-71000000D02*
X102250000Y-74110000D01*
X86000000Y-71000000D02*
X99140000Y-71000000D01*
X64250000Y-74110000D02*
X64250000Y-73250000D01*
X80140000Y-71000000D02*
X83250000Y-74110000D01*
X66500000Y-71000000D02*
X80140000Y-71000000D01*
X64250000Y-73250000D02*
X66500000Y-71000000D01*
X45250000Y-74110000D02*
X45390000Y-74110000D01*
X45390000Y-74110000D02*
X48500000Y-71000000D01*
X61140000Y-71000000D02*
X64250000Y-74110000D01*
X48500000Y-71000000D02*
X61140000Y-71000000D01*
X26250000Y-74110000D02*
X26250000Y-73750000D01*
X26250000Y-73750000D02*
X29000000Y-71000000D01*
X29000000Y-71000000D02*
X42140000Y-71000000D01*
X42140000Y-71000000D02*
X45250000Y-74110000D01*
X269000000Y-55110000D02*
X269390000Y-55110000D01*
X269390000Y-55110000D02*
X272500000Y-52000000D01*
X284890000Y-52000000D02*
X288000000Y-55110000D01*
X272500000Y-52000000D02*
X284890000Y-52000000D01*
X250000000Y-55110000D02*
X250890000Y-55110000D01*
X267000000Y-52000000D02*
X269500000Y-54500000D01*
X254000000Y-52000000D02*
X267000000Y-52000000D01*
X250890000Y-55110000D02*
X254000000Y-52000000D01*
X269500000Y-54500000D02*
X269000000Y-55110000D01*
X226000000Y-55110000D02*
X226000000Y-55000000D01*
X226000000Y-55000000D02*
X229000000Y-52000000D01*
X246890000Y-52000000D02*
X250000000Y-55110000D01*
X229000000Y-52000000D02*
X246890000Y-52000000D01*
X207000000Y-55110000D02*
X207390000Y-55110000D01*
X207390000Y-55110000D02*
X210500000Y-52000000D01*
X222890000Y-52000000D02*
X226000000Y-55110000D01*
X210500000Y-52000000D02*
X222890000Y-52000000D01*
X188000000Y-55110000D02*
X188390000Y-55110000D01*
X188390000Y-55110000D02*
X191500000Y-52000000D01*
X203890000Y-52000000D02*
X207000000Y-55110000D01*
X191500000Y-52000000D02*
X203890000Y-52000000D01*
X155360000Y-59000000D02*
X155360000Y-58140000D01*
X178610000Y-55110000D02*
X188000000Y-55110000D01*
X173000000Y-49500000D02*
X178610000Y-55110000D01*
X169000000Y-49500000D02*
X173000000Y-49500000D01*
X167000000Y-51500000D02*
X169000000Y-49500000D01*
X162000000Y-51500000D02*
X167000000Y-51500000D01*
X155360000Y-58140000D02*
X162000000Y-51500000D01*
X116500000Y-55110000D02*
X116500000Y-54000000D01*
X155360000Y-55360000D02*
X155360000Y-59000000D01*
X149500000Y-49500000D02*
X155360000Y-55360000D01*
X146000000Y-49500000D02*
X149500000Y-49500000D01*
X143500000Y-52000000D02*
X146000000Y-49500000D01*
X118500000Y-52000000D02*
X143500000Y-52000000D01*
X116500000Y-54000000D02*
X118500000Y-52000000D01*
X97500000Y-55110000D02*
X97500000Y-54500000D01*
X97500000Y-54500000D02*
X100000000Y-52000000D01*
X113390000Y-52000000D02*
X116500000Y-55110000D01*
X100000000Y-52000000D02*
X113390000Y-52000000D01*
X78500000Y-55110000D02*
X78500000Y-55000000D01*
X78500000Y-55000000D02*
X81500000Y-52000000D01*
X94390000Y-52000000D02*
X97500000Y-55110000D01*
X81500000Y-52000000D02*
X94390000Y-52000000D01*
X59500000Y-55110000D02*
X59500000Y-54500000D01*
X59500000Y-54500000D02*
X62000000Y-52000000D01*
X75390000Y-52000000D02*
X78500000Y-55110000D01*
X62000000Y-52000000D02*
X75390000Y-52000000D01*
X40500000Y-55110000D02*
X40500000Y-55000000D01*
X40500000Y-55000000D02*
X43500000Y-52000000D01*
X56390000Y-52000000D02*
X59500000Y-55110000D01*
X43500000Y-52000000D02*
X56390000Y-52000000D01*
X21500000Y-55110000D02*
X21890000Y-55110000D01*
X21890000Y-55110000D02*
X25000000Y-52000000D01*
X25000000Y-52000000D02*
X37390000Y-52000000D01*
X37390000Y-52000000D02*
X40500000Y-55110000D01*
X288000000Y-36110000D02*
X288000000Y-34500000D01*
X302390000Y-31500000D02*
X307000000Y-36110000D01*
X291000000Y-31500000D02*
X302390000Y-31500000D01*
X288000000Y-34500000D02*
X291000000Y-31500000D01*
X269000000Y-36110000D02*
X269000000Y-35500000D01*
X269000000Y-35500000D02*
X273000000Y-31500000D01*
X283390000Y-31500000D02*
X288000000Y-36110000D01*
X273000000Y-31500000D02*
X283390000Y-31500000D01*
X250000000Y-36110000D02*
X250000000Y-35000000D01*
X263890000Y-31000000D02*
X269000000Y-36110000D01*
X254000000Y-31000000D02*
X263890000Y-31000000D01*
X250000000Y-35000000D02*
X254000000Y-31000000D01*
X226000000Y-36110000D02*
X226000000Y-36000000D01*
X226000000Y-36000000D02*
X230500000Y-31500000D01*
X247890000Y-34000000D02*
X250000000Y-36110000D01*
X240500000Y-34000000D02*
X247890000Y-34000000D01*
X238000000Y-31500000D02*
X240500000Y-34000000D01*
X230500000Y-31500000D02*
X238000000Y-31500000D01*
X207000000Y-36110000D02*
X207000000Y-35000000D01*
X220890000Y-31000000D02*
X226000000Y-36110000D01*
X211000000Y-31000000D02*
X220890000Y-31000000D01*
X207000000Y-35000000D02*
X211000000Y-31000000D01*
X188000000Y-36110000D02*
X188000000Y-35000000D01*
X201390000Y-30500000D02*
X207000000Y-36110000D01*
X192500000Y-30500000D02*
X201390000Y-30500000D01*
X188000000Y-35000000D02*
X192500000Y-30500000D01*
X154500000Y-36110000D02*
X154500000Y-33500000D01*
X181110000Y-36110000D02*
X188000000Y-36110000D01*
X175500000Y-30500000D02*
X181110000Y-36110000D01*
X157500000Y-30500000D02*
X175500000Y-30500000D01*
X154500000Y-33500000D02*
X157500000Y-30500000D01*
X126000000Y-36110000D02*
X126000000Y-34000000D01*
X148390000Y-30000000D02*
X154500000Y-36110000D01*
X130000000Y-30000000D02*
X148390000Y-30000000D01*
X126000000Y-34000000D02*
X130000000Y-30000000D01*
X107000000Y-36110000D02*
X107000000Y-34000000D01*
X120890000Y-31000000D02*
X126000000Y-36110000D01*
X110000000Y-31000000D02*
X120890000Y-31000000D01*
X107000000Y-34000000D02*
X110000000Y-31000000D01*
X88000000Y-36110000D02*
X88000000Y-34000000D01*
X101390000Y-30500000D02*
X107000000Y-36110000D01*
X91500000Y-30500000D02*
X101390000Y-30500000D01*
X88000000Y-34000000D02*
X91500000Y-30500000D01*
X69000000Y-36110000D02*
X69000000Y-34000000D01*
X82890000Y-31000000D02*
X88000000Y-36110000D01*
X72000000Y-31000000D02*
X82890000Y-31000000D01*
X69000000Y-34000000D02*
X72000000Y-31000000D01*
X50000000Y-36110000D02*
X50000000Y-33500000D01*
X63890000Y-31000000D02*
X69000000Y-36110000D01*
X52500000Y-31000000D02*
X63890000Y-31000000D01*
X50000000Y-33500000D02*
X52500000Y-31000000D01*
X31000000Y-36110000D02*
X31000000Y-34500000D01*
X31000000Y-34500000D02*
X34500000Y-31000000D01*
X34500000Y-31000000D02*
X44890000Y-31000000D01*
X44890000Y-31000000D02*
X50000000Y-36110000D01*
X288000000Y-8110000D02*
X288000000Y-8000000D01*
X288000000Y-8000000D02*
X292000000Y-4000000D01*
X302890000Y-4000000D02*
X307000000Y-8110000D01*
X292000000Y-4000000D02*
X302890000Y-4000000D01*
X269000000Y-8110000D02*
X269000000Y-7500000D01*
X269000000Y-7500000D02*
X273000000Y-3500000D01*
X283390000Y-3500000D02*
X288000000Y-8110000D01*
X273000000Y-3500000D02*
X283390000Y-3500000D01*
X250000000Y-8110000D02*
X250000000Y-8000000D01*
X250000000Y-8000000D02*
X254500000Y-3500000D01*
X264390000Y-3500000D02*
X269000000Y-8110000D01*
X254500000Y-3500000D02*
X264390000Y-3500000D01*
X226000000Y-8110000D02*
X226000000Y-7000000D01*
X248390000Y-6500000D02*
X250000000Y-8110000D01*
X241500000Y-6500000D02*
X248390000Y-6500000D01*
X239000000Y-4000000D02*
X241500000Y-6500000D01*
X229000000Y-4000000D02*
X239000000Y-4000000D01*
X226000000Y-7000000D02*
X229000000Y-4000000D01*
X207000000Y-8110000D02*
X207000000Y-7500000D01*
X207000000Y-7500000D02*
X210500000Y-4000000D01*
X221890000Y-4000000D02*
X226000000Y-8110000D01*
X210500000Y-4000000D02*
X221890000Y-4000000D01*
X188000000Y-8110000D02*
X188000000Y-8000000D01*
X188000000Y-8000000D02*
X192000000Y-4000000D01*
X202890000Y-4000000D02*
X207000000Y-8110000D01*
X192000000Y-4000000D02*
X202890000Y-4000000D01*
X164000000Y-8110000D02*
X164000000Y-7500000D01*
X164000000Y-7500000D02*
X167500000Y-4000000D01*
X185890000Y-6000000D02*
X188000000Y-8110000D01*
X178000000Y-6000000D02*
X185890000Y-6000000D01*
X176000000Y-4000000D02*
X178000000Y-6000000D01*
X167500000Y-4000000D02*
X176000000Y-4000000D01*
X145000000Y-8110000D02*
X145000000Y-6500000D01*
X158890000Y-3000000D02*
X164000000Y-8110000D01*
X148500000Y-3000000D02*
X158890000Y-3000000D01*
X145000000Y-6500000D02*
X148500000Y-3000000D01*
X126000000Y-8110000D02*
X126000000Y-7000000D01*
X140390000Y-3500000D02*
X145000000Y-8110000D01*
X129500000Y-3500000D02*
X140390000Y-3500000D01*
X126000000Y-7000000D02*
X129500000Y-3500000D01*
X107000000Y-8110000D02*
X107000000Y-7500000D01*
X107000000Y-7500000D02*
X111000000Y-3500000D01*
X121390000Y-3500000D02*
X126000000Y-8110000D01*
X111000000Y-3500000D02*
X121390000Y-3500000D01*
X88000000Y-8110000D02*
X88000000Y-6500000D01*
X102390000Y-3500000D02*
X107000000Y-8110000D01*
X91000000Y-3500000D02*
X102390000Y-3500000D01*
X88000000Y-6500000D02*
X91000000Y-3500000D01*
X69000000Y-8110000D02*
X69000000Y-8000000D01*
X69000000Y-8000000D02*
X73500000Y-3500000D01*
X83390000Y-3500000D02*
X88000000Y-8110000D01*
X73500000Y-3500000D02*
X83390000Y-3500000D01*
X50000000Y-8110000D02*
X50000000Y-7000000D01*
X50000000Y-7000000D02*
X53000000Y-4000000D01*
X53000000Y-4000000D02*
X64890000Y-4000000D01*
X64890000Y-4000000D02*
X69000000Y-8110000D01*
X330420000Y-11920000D02*
X320890000Y-11920000D01*
X330500000Y-12000000D02*
X330420000Y-11920000D01*
X301890000Y-11920000D02*
X301890000Y-12890000D01*
X318810000Y-14000000D02*
X320890000Y-11920000D01*
X303000000Y-14000000D02*
X318810000Y-14000000D01*
X301890000Y-12890000D02*
X303000000Y-14000000D01*
X282890000Y-11920000D02*
X282920000Y-11920000D01*
X282920000Y-11920000D02*
X285000000Y-14000000D01*
X299810000Y-14000000D02*
X301890000Y-11920000D01*
X285000000Y-14000000D02*
X299810000Y-14000000D01*
X263890000Y-11920000D02*
X264420000Y-11920000D01*
X264420000Y-11920000D02*
X266500000Y-14000000D01*
X266500000Y-14000000D02*
X280810000Y-14000000D01*
X280810000Y-14000000D02*
X282890000Y-11920000D01*
X321343000Y-30657000D02*
X332103000Y-30657000D01*
X321000000Y-31000000D02*
X321343000Y-30657000D01*
X301890000Y-39920000D02*
X302420000Y-39920000D01*
X302420000Y-39920000D02*
X304000000Y-41500000D01*
X319310000Y-41500000D02*
X320890000Y-39920000D01*
X304000000Y-41500000D02*
X319310000Y-41500000D01*
X282890000Y-39920000D02*
X283420000Y-39920000D01*
X283420000Y-39920000D02*
X285500000Y-42000000D01*
X299810000Y-42000000D02*
X301890000Y-39920000D01*
X285500000Y-42000000D02*
X299810000Y-42000000D01*
X263890000Y-39920000D02*
X264420000Y-39920000D01*
X264420000Y-39920000D02*
X266000000Y-41500000D01*
X266000000Y-41500000D02*
X281310000Y-41500000D01*
X281310000Y-41500000D02*
X282890000Y-39920000D01*
X301890000Y-58920000D02*
X323580000Y-58920000D01*
X326049000Y-33451000D02*
X332103000Y-33451000D01*
X325500000Y-34000000D02*
X326049000Y-33451000D01*
X323580000Y-58920000D02*
X324000000Y-58500000D01*
X282890000Y-58920000D02*
X282890000Y-59390000D01*
X282890000Y-59390000D02*
X284500000Y-61000000D01*
X299810000Y-61000000D02*
X301890000Y-58920000D01*
X284500000Y-61000000D02*
X299810000Y-61000000D01*
X263890000Y-58920000D02*
X263920000Y-58920000D01*
X263920000Y-58920000D02*
X266000000Y-61000000D01*
X266000000Y-61000000D02*
X280810000Y-61000000D01*
X280810000Y-61000000D02*
X282890000Y-58920000D01*
X301890000Y-77920000D02*
X327420000Y-77920000D01*
X327755000Y-36245000D02*
X332103000Y-36245000D01*
X327500000Y-36500000D02*
X327755000Y-36245000D01*
X327420000Y-77920000D02*
X327500000Y-78000000D01*
X282890000Y-77920000D02*
X283920000Y-77920000D01*
X299810000Y-80000000D02*
X301890000Y-77920000D01*
X286000000Y-80000000D02*
X299810000Y-80000000D01*
X283920000Y-77920000D02*
X286000000Y-80000000D01*
X263890000Y-77920000D02*
X264920000Y-77920000D01*
X281310000Y-79500000D02*
X282890000Y-77920000D01*
X266500000Y-79500000D02*
X281310000Y-79500000D01*
X264920000Y-77920000D02*
X266500000Y-79500000D01*
X301890000Y-96920000D02*
X328420000Y-96920000D01*
X328539000Y-39039000D02*
X332103000Y-39039000D01*
X328500000Y-39000000D02*
X328539000Y-39039000D01*
X328420000Y-96920000D02*
X328500000Y-97000000D01*
X282890000Y-96920000D02*
X283920000Y-96920000D01*
X299810000Y-99000000D02*
X301890000Y-96920000D01*
X286000000Y-99000000D02*
X299810000Y-99000000D01*
X283920000Y-96920000D02*
X286000000Y-99000000D01*
X263890000Y-96920000D02*
X264420000Y-96920000D01*
X264420000Y-96920000D02*
X266000000Y-98500000D01*
X266000000Y-98500000D02*
X281310000Y-98500000D01*
X281310000Y-98500000D02*
X282890000Y-96920000D01*
X301890000Y-115920000D02*
X305920000Y-115920000D01*
X329794000Y-41706000D02*
X332103000Y-41706000D01*
X329500000Y-42000000D02*
X329794000Y-41706000D01*
X308500000Y-118500000D02*
X326000000Y-118500000D01*
X305920000Y-115920000D02*
X308500000Y-118500000D01*
X246500000Y-115920000D02*
X246920000Y-115920000D01*
X246920000Y-115920000D02*
X249000000Y-118000000D01*
X249000000Y-118000000D02*
X297000000Y-118000000D01*
X297000000Y-118000000D02*
X299080000Y-115920000D01*
X299080000Y-115920000D02*
X301890000Y-115920000D01*
X239890000Y-11920000D02*
X240920000Y-11920000D01*
X326500000Y-44500000D02*
X332103000Y-44500000D01*
X314500000Y-23000000D02*
X325000000Y-23000000D01*
X311500000Y-20000000D02*
X314500000Y-23000000D01*
X307500000Y-20000000D02*
X311500000Y-20000000D01*
X306000000Y-21500000D02*
X307500000Y-20000000D01*
X294500000Y-21500000D02*
X306000000Y-21500000D01*
X293000000Y-20000000D02*
X294500000Y-21500000D01*
X288000000Y-20000000D02*
X293000000Y-20000000D01*
X286500000Y-21500000D02*
X288000000Y-20000000D01*
X275000000Y-21500000D02*
X286500000Y-21500000D01*
X273500000Y-20000000D02*
X275000000Y-21500000D01*
X270500000Y-20000000D02*
X273500000Y-20000000D01*
X264500000Y-14000000D02*
X270500000Y-20000000D01*
X243000000Y-14000000D02*
X264500000Y-14000000D01*
X240920000Y-11920000D02*
X243000000Y-14000000D01*
X220890000Y-11920000D02*
X220920000Y-11920000D01*
X220920000Y-11920000D02*
X223000000Y-14000000D01*
X237810000Y-14000000D02*
X239890000Y-11920000D01*
X223000000Y-14000000D02*
X237810000Y-14000000D01*
X201890000Y-11920000D02*
X201890000Y-12390000D01*
X201890000Y-12390000D02*
X203500000Y-14000000D01*
X218810000Y-14000000D02*
X220890000Y-11920000D01*
X203500000Y-14000000D02*
X218810000Y-14000000D01*
X177890000Y-11920000D02*
X177890000Y-12890000D01*
X199810000Y-14000000D02*
X201890000Y-11920000D01*
X179000000Y-14000000D02*
X199810000Y-14000000D01*
X177890000Y-12890000D02*
X179000000Y-14000000D01*
X158890000Y-11920000D02*
X159420000Y-11920000D01*
X159420000Y-11920000D02*
X161500000Y-14000000D01*
X175810000Y-14000000D02*
X177890000Y-11920000D01*
X161500000Y-14000000D02*
X175810000Y-14000000D01*
X139890000Y-11920000D02*
X141420000Y-11920000D01*
X156810000Y-14000000D02*
X158890000Y-11920000D01*
X143500000Y-14000000D02*
X156810000Y-14000000D01*
X141420000Y-11920000D02*
X143500000Y-14000000D01*
X120890000Y-11920000D02*
X120920000Y-11920000D01*
X120920000Y-11920000D02*
X123000000Y-14000000D01*
X137810000Y-14000000D02*
X139890000Y-11920000D01*
X123000000Y-14000000D02*
X137810000Y-14000000D01*
X101890000Y-11920000D02*
X101890000Y-12390000D01*
X101890000Y-12390000D02*
X103500000Y-14000000D01*
X118810000Y-14000000D02*
X120890000Y-11920000D01*
X103500000Y-14000000D02*
X118810000Y-14000000D01*
X82890000Y-11920000D02*
X82890000Y-12390000D01*
X82890000Y-12390000D02*
X84500000Y-14000000D01*
X99810000Y-14000000D02*
X101890000Y-11920000D01*
X84500000Y-14000000D02*
X99810000Y-14000000D01*
X63890000Y-11920000D02*
X64420000Y-11920000D01*
X64420000Y-11920000D02*
X66500000Y-14000000D01*
X66500000Y-14000000D02*
X80810000Y-14000000D01*
X80810000Y-14000000D02*
X82890000Y-11920000D01*
X239890000Y-58920000D02*
X242920000Y-58920000D01*
X337912000Y-50088000D02*
X332103000Y-50088000D01*
X338000000Y-50000000D02*
X337912000Y-50088000D01*
X314000000Y-65000000D02*
X338000000Y-65000000D01*
X310000000Y-69000000D02*
X314000000Y-65000000D01*
X294500000Y-69000000D02*
X310000000Y-69000000D01*
X293500000Y-68000000D02*
X294500000Y-69000000D01*
X292000000Y-68000000D02*
X293500000Y-68000000D01*
X291000000Y-67000000D02*
X292000000Y-68000000D01*
X287000000Y-67000000D02*
X291000000Y-67000000D01*
X284500000Y-69500000D02*
X287000000Y-67000000D01*
X275000000Y-69500000D02*
X284500000Y-69500000D01*
X271000000Y-65500000D02*
X275000000Y-69500000D01*
X267000000Y-65500000D02*
X271000000Y-65500000D01*
X262500000Y-61000000D02*
X267000000Y-65500000D01*
X245000000Y-61000000D02*
X262500000Y-61000000D01*
X242920000Y-58920000D02*
X245000000Y-61000000D01*
X220890000Y-58920000D02*
X220920000Y-58920000D01*
X220920000Y-58920000D02*
X223000000Y-61000000D01*
X237810000Y-61000000D02*
X239890000Y-58920000D01*
X223000000Y-61000000D02*
X237810000Y-61000000D01*
X201890000Y-58920000D02*
X202420000Y-58920000D01*
X202420000Y-58920000D02*
X204500000Y-61000000D01*
X218810000Y-61000000D02*
X220890000Y-58920000D01*
X204500000Y-61000000D02*
X218810000Y-61000000D01*
X173140000Y-58920000D02*
X173920000Y-58920000D01*
X173920000Y-58920000D02*
X176000000Y-61000000D01*
X199810000Y-61000000D02*
X201890000Y-58920000D01*
X176000000Y-61000000D02*
X199810000Y-61000000D01*
X149390000Y-58920000D02*
X149390000Y-59890000D01*
X171060000Y-61000000D02*
X173140000Y-58920000D01*
X162000000Y-61000000D02*
X171060000Y-61000000D01*
X160500000Y-62500000D02*
X162000000Y-61000000D01*
X152000000Y-62500000D02*
X160500000Y-62500000D01*
X149390000Y-59890000D02*
X152000000Y-62500000D01*
X130390000Y-58920000D02*
X130920000Y-58920000D01*
X130920000Y-58920000D02*
X133000000Y-61000000D01*
X147310000Y-61000000D02*
X149390000Y-58920000D01*
X133000000Y-61000000D02*
X147310000Y-61000000D01*
X111390000Y-58920000D02*
X111420000Y-58920000D01*
X111420000Y-58920000D02*
X113500000Y-61000000D01*
X128310000Y-61000000D02*
X130390000Y-58920000D01*
X113500000Y-61000000D02*
X128310000Y-61000000D01*
X92390000Y-58920000D02*
X92420000Y-58920000D01*
X92420000Y-58920000D02*
X94500000Y-61000000D01*
X109310000Y-61000000D02*
X111390000Y-58920000D01*
X94500000Y-61000000D02*
X109310000Y-61000000D01*
X73390000Y-58920000D02*
X73390000Y-59390000D01*
X73390000Y-59390000D02*
X75000000Y-61000000D01*
X90310000Y-61000000D02*
X92390000Y-58920000D01*
X75000000Y-61000000D02*
X90310000Y-61000000D01*
X54390000Y-58920000D02*
X54390000Y-59390000D01*
X54390000Y-59390000D02*
X56000000Y-61000000D01*
X71310000Y-61000000D02*
X73390000Y-58920000D01*
X56000000Y-61000000D02*
X71310000Y-61000000D01*
X35390000Y-58920000D02*
X35420000Y-58920000D01*
X35420000Y-58920000D02*
X37500000Y-61000000D01*
X37500000Y-61000000D02*
X52310000Y-61000000D01*
X52310000Y-61000000D02*
X54390000Y-58920000D01*
X175125000Y-77920000D02*
X245920000Y-77920000D01*
X336118000Y-52882000D02*
X332103000Y-52882000D01*
X336500000Y-52500000D02*
X336118000Y-52882000D01*
X317000000Y-88000000D02*
X336500000Y-88000000D01*
X294500000Y-88000000D02*
X317000000Y-88000000D01*
X292500000Y-86000000D02*
X294500000Y-88000000D01*
X288500000Y-86000000D02*
X292500000Y-86000000D01*
X286500000Y-88000000D02*
X288500000Y-86000000D01*
X274500000Y-88000000D02*
X286500000Y-88000000D01*
X272000000Y-85500000D02*
X274500000Y-88000000D01*
X269500000Y-85500000D02*
X272000000Y-85500000D01*
X266500000Y-88500000D02*
X269500000Y-85500000D01*
X256500000Y-88500000D02*
X266500000Y-88500000D01*
X245920000Y-77920000D02*
X256500000Y-88500000D01*
X135140000Y-77920000D02*
X135920000Y-77920000D01*
X135920000Y-77920000D02*
X139500000Y-81500000D01*
X173045000Y-80000000D02*
X175125000Y-77920000D01*
X155500000Y-80000000D02*
X173045000Y-80000000D01*
X154000000Y-81500000D02*
X155500000Y-80000000D01*
X139500000Y-81500000D02*
X154000000Y-81500000D01*
X116140000Y-77920000D02*
X117420000Y-77920000D01*
X133560000Y-79500000D02*
X135140000Y-77920000D01*
X119000000Y-79500000D02*
X133560000Y-79500000D01*
X117420000Y-77920000D02*
X119000000Y-79500000D01*
X97140000Y-77920000D02*
X97920000Y-77920000D01*
X97920000Y-77920000D02*
X100000000Y-80000000D01*
X114060000Y-80000000D02*
X116140000Y-77920000D01*
X100000000Y-80000000D02*
X114060000Y-80000000D01*
X78140000Y-77920000D02*
X78140000Y-78140000D01*
X78140000Y-78140000D02*
X80000000Y-80000000D01*
X95060000Y-80000000D02*
X97140000Y-77920000D01*
X80000000Y-80000000D02*
X95060000Y-80000000D01*
X59140000Y-77920000D02*
X59920000Y-77920000D01*
X59920000Y-77920000D02*
X61500000Y-79500000D01*
X76560000Y-79500000D02*
X78140000Y-77920000D01*
X61500000Y-79500000D02*
X76560000Y-79500000D01*
X40140000Y-77920000D02*
X40420000Y-77920000D01*
X40420000Y-77920000D02*
X42000000Y-79500000D01*
X42000000Y-79500000D02*
X57560000Y-79500000D01*
X57560000Y-79500000D02*
X59140000Y-77920000D01*
X220890000Y-96920000D02*
X242920000Y-96920000D01*
X326549000Y-55549000D02*
X332103000Y-55549000D01*
X326500000Y-55500000D02*
X326549000Y-55549000D01*
X308500000Y-104000000D02*
X325500000Y-104000000D01*
X306000000Y-106500000D02*
X308500000Y-104000000D01*
X294000000Y-106500000D02*
X306000000Y-106500000D01*
X292500000Y-105000000D02*
X294000000Y-106500000D01*
X288500000Y-105000000D02*
X292500000Y-105000000D01*
X287000000Y-106500000D02*
X288500000Y-105000000D01*
X274000000Y-106500000D02*
X287000000Y-106500000D01*
X271500000Y-104000000D02*
X274000000Y-106500000D01*
X269000000Y-104000000D02*
X271500000Y-104000000D01*
X264000000Y-99000000D02*
X269000000Y-104000000D01*
X245000000Y-99000000D02*
X264000000Y-99000000D01*
X242920000Y-96920000D02*
X245000000Y-99000000D01*
X170500000Y-101000000D02*
X200000000Y-101000000D01*
X219310000Y-98500000D02*
X220890000Y-96920000D01*
X202500000Y-98500000D02*
X219310000Y-98500000D01*
X200000000Y-101000000D02*
X202500000Y-98500000D01*
X125640000Y-96920000D02*
X126920000Y-96920000D01*
X163500000Y-101000000D02*
X170500000Y-101000000D01*
X161500000Y-99000000D02*
X163500000Y-101000000D01*
X147500000Y-99000000D02*
X161500000Y-99000000D01*
X145500000Y-101000000D02*
X147500000Y-99000000D01*
X131000000Y-101000000D02*
X145500000Y-101000000D01*
X126920000Y-96920000D02*
X131000000Y-101000000D01*
X106640000Y-96920000D02*
X107420000Y-96920000D01*
X107420000Y-96920000D02*
X109000000Y-98500000D01*
X124060000Y-98500000D02*
X125640000Y-96920000D01*
X109000000Y-98500000D02*
X124060000Y-98500000D01*
X87640000Y-96920000D02*
X88420000Y-96920000D01*
X88420000Y-96920000D02*
X90500000Y-99000000D01*
X104560000Y-99000000D02*
X106640000Y-96920000D01*
X90500000Y-99000000D02*
X104560000Y-99000000D01*
X68640000Y-96920000D02*
X68640000Y-97140000D01*
X68640000Y-97140000D02*
X70000000Y-98500000D01*
X86060000Y-98500000D02*
X87640000Y-96920000D01*
X70000000Y-98500000D02*
X86060000Y-98500000D01*
X49640000Y-96920000D02*
X49920000Y-96920000D01*
X49920000Y-96920000D02*
X52000000Y-99000000D01*
X52000000Y-99000000D02*
X66560000Y-99000000D01*
X66560000Y-99000000D02*
X68640000Y-96920000D01*
X239890000Y-115920000D02*
X239890000Y-119890000D01*
X313000000Y-119500000D02*
X330500000Y-119500000D01*
X303500000Y-129000000D02*
X313000000Y-119500000D01*
X289000000Y-129000000D02*
X303500000Y-129000000D01*
X285500000Y-125500000D02*
X289000000Y-129000000D01*
X274500000Y-125500000D02*
X285500000Y-125500000D01*
X272000000Y-128000000D02*
X274500000Y-125500000D01*
X260000000Y-128000000D02*
X272000000Y-128000000D01*
X258000000Y-126000000D02*
X260000000Y-128000000D01*
X246000000Y-126000000D02*
X258000000Y-126000000D01*
X239890000Y-119890000D02*
X246000000Y-126000000D01*
X220890000Y-115920000D02*
X220890000Y-116390000D01*
X220890000Y-116390000D02*
X222000000Y-117500000D01*
X238310000Y-117500000D02*
X239890000Y-115920000D01*
X222000000Y-117500000D02*
X238310000Y-117500000D01*
X201890000Y-115920000D02*
X202420000Y-115920000D01*
X202420000Y-115920000D02*
X204000000Y-117500000D01*
X219310000Y-117500000D02*
X220890000Y-115920000D01*
X204000000Y-117500000D02*
X219310000Y-117500000D01*
X175515000Y-115920000D02*
X175920000Y-115920000D01*
X175920000Y-115920000D02*
X178000000Y-118000000D01*
X199810000Y-118000000D02*
X201890000Y-115920000D01*
X178000000Y-118000000D02*
X199810000Y-118000000D01*
X151765000Y-115920000D02*
X153420000Y-115920000D01*
X173435000Y-118000000D02*
X175515000Y-115920000D01*
X155500000Y-118000000D02*
X173435000Y-118000000D01*
X153420000Y-115920000D02*
X155500000Y-118000000D01*
X128015000Y-115920000D02*
X128920000Y-115920000D01*
X149685000Y-118000000D02*
X151765000Y-115920000D01*
X131000000Y-118000000D02*
X149685000Y-118000000D01*
X128920000Y-115920000D02*
X131000000Y-118000000D01*
X104265000Y-115920000D02*
X104420000Y-115920000D01*
X104420000Y-115920000D02*
X106500000Y-118000000D01*
X125935000Y-118000000D02*
X128015000Y-115920000D01*
X106500000Y-118000000D02*
X125935000Y-118000000D01*
X75765000Y-115920000D02*
X75920000Y-115920000D01*
X75920000Y-115920000D02*
X78000000Y-118000000D01*
X102185000Y-118000000D02*
X104265000Y-115920000D01*
X78000000Y-118000000D02*
X102185000Y-118000000D01*
X46875000Y-115920000D02*
X46920000Y-115920000D01*
X46920000Y-115920000D02*
X49000000Y-118000000D01*
X49000000Y-118000000D02*
X73685000Y-118000000D01*
X73685000Y-118000000D02*
X75765000Y-115920000D01*
X332103000Y-61137000D02*
X325863000Y-61137000D01*
X9080000Y-69080000D02*
X23960000Y-69080000D01*
X9000000Y-69000000D02*
X9080000Y-69080000D01*
X11500000Y-129000000D02*
X8000000Y-129000000D01*
X15000000Y-132500000D02*
X11500000Y-129000000D01*
X117000000Y-132500000D02*
X15000000Y-132500000D01*
X120000000Y-135500000D02*
X117000000Y-132500000D01*
X170500000Y-135500000D02*
X120000000Y-135500000D01*
X174500000Y-131500000D02*
X170500000Y-135500000D01*
X249000000Y-131500000D02*
X174500000Y-131500000D01*
X251500000Y-134000000D02*
X249000000Y-131500000D01*
X323500000Y-134000000D02*
X251500000Y-134000000D01*
X324500000Y-133000000D02*
X323500000Y-134000000D01*
X325863000Y-61137000D02*
X325500000Y-61500000D01*
X334897000Y-29260000D02*
X304240000Y-29260000D01*
X182000000Y-29000000D02*
X52000000Y-29000000D01*
X182500000Y-29500000D02*
X182000000Y-29000000D01*
X201500000Y-29500000D02*
X182500000Y-29500000D01*
X202000000Y-30000000D02*
X201500000Y-29500000D01*
X238500000Y-30000000D02*
X202000000Y-30000000D01*
X241500000Y-33000000D02*
X238500000Y-30000000D01*
X245000000Y-33000000D02*
X241500000Y-33000000D01*
X248000000Y-30000000D02*
X245000000Y-33000000D01*
X303500000Y-30000000D02*
X248000000Y-30000000D01*
X304240000Y-29260000D02*
X303500000Y-30000000D01*
X329554000Y-32054000D02*
X334897000Y-32054000D01*
X329500000Y-32000000D02*
X329554000Y-32054000D01*
X78000000Y-1000000D02*
X326500000Y-1000000D01*
X77500000Y-1500000D02*
X78000000Y-1000000D01*
X330152000Y-34848000D02*
X334897000Y-34848000D01*
X329500000Y-35500000D02*
X330152000Y-34848000D01*
X323000000Y-35500000D02*
X329500000Y-35500000D01*
X331500000Y-72000000D02*
X323500000Y-72000000D01*
X330000000Y-135500000D02*
X332500000Y-133000000D01*
X250000000Y-135500000D02*
X330000000Y-135500000D01*
X248000000Y-133500000D02*
X250000000Y-135500000D01*
X245500000Y-80500000D02*
X245500000Y-81000000D01*
X245000000Y-80000000D02*
X245500000Y-80500000D01*
X185500000Y-80000000D02*
X245000000Y-80000000D01*
X90000000Y-28000000D02*
X185500000Y-28000000D01*
X334897000Y-37515000D02*
X328015000Y-37515000D01*
X260500000Y-25500000D02*
X109000000Y-25500000D01*
X261000000Y-25000000D02*
X260500000Y-25500000D01*
X268000000Y-30500000D02*
X267000000Y-31500000D01*
X319000000Y-30500000D02*
X268000000Y-30500000D01*
X319500000Y-31000000D02*
X319000000Y-30500000D01*
X327530000Y-38000000D02*
X319500000Y-38000000D01*
X328015000Y-37515000D02*
X327530000Y-38000000D01*
X275000000Y-33500000D02*
X274000000Y-33500000D01*
X167500000Y-27000000D02*
X128500000Y-27000000D01*
X168000000Y-26500000D02*
X167500000Y-27000000D01*
X179000000Y-44000000D02*
X168000000Y-44000000D01*
X182500000Y-47500000D02*
X179000000Y-44000000D01*
X191000000Y-47500000D02*
X182500000Y-47500000D01*
X194000000Y-50500000D02*
X191000000Y-47500000D01*
X203500000Y-50500000D02*
X194000000Y-50500000D01*
X206000000Y-48000000D02*
X203500000Y-50500000D01*
X210500000Y-48000000D02*
X206000000Y-48000000D01*
X213500000Y-51000000D02*
X210500000Y-48000000D01*
X223500000Y-51000000D02*
X213500000Y-51000000D01*
X226500000Y-48000000D02*
X223500000Y-51000000D01*
X229500000Y-48000000D02*
X226500000Y-48000000D01*
X230000000Y-48500000D02*
X229500000Y-48000000D01*
X230500000Y-48500000D02*
X230000000Y-48500000D01*
X232000000Y-50000000D02*
X230500000Y-48500000D01*
X244000000Y-50000000D02*
X232000000Y-50000000D01*
X249000000Y-38500000D02*
X246500000Y-36000000D01*
X250500000Y-38500000D02*
X249000000Y-38500000D01*
X257000000Y-32000000D02*
X250500000Y-38500000D01*
X262000000Y-32000000D02*
X257000000Y-32000000D01*
X268000000Y-38000000D02*
X262000000Y-32000000D01*
X269500000Y-38000000D02*
X268000000Y-38000000D01*
X274000000Y-33500000D02*
X269500000Y-38000000D01*
X334897000Y-40309000D02*
X324191000Y-40309000D01*
X283000000Y-33500000D02*
X275000000Y-33500000D01*
X275000000Y-33500000D02*
X274500000Y-33500000D01*
X287500000Y-38000000D02*
X283000000Y-33500000D01*
X289000000Y-38000000D02*
X287500000Y-38000000D01*
X294000000Y-33000000D02*
X289000000Y-38000000D01*
X301000000Y-33000000D02*
X294000000Y-33000000D01*
X306500000Y-38500000D02*
X301000000Y-33000000D01*
X308500000Y-38500000D02*
X306500000Y-38500000D01*
X309500000Y-37500000D02*
X308500000Y-38500000D01*
X314000000Y-37500000D02*
X309500000Y-37500000D01*
X315000000Y-36500000D02*
X314000000Y-37500000D01*
X321500000Y-43000000D02*
X316000000Y-43000000D01*
X324191000Y-40309000D02*
X321500000Y-43000000D01*
X147460000Y-22080000D02*
X161920000Y-22080000D01*
X324603000Y-43103000D02*
X334897000Y-43103000D01*
X324500000Y-43000000D02*
X324603000Y-43103000D01*
X308000000Y-27500000D02*
X323500000Y-27500000D01*
X307500000Y-28000000D02*
X308000000Y-27500000D01*
X290000000Y-27000000D02*
X303500000Y-27000000D01*
X289000000Y-28000000D02*
X290000000Y-27000000D01*
X269500000Y-26000000D02*
X286000000Y-26000000D01*
X257000000Y-23500000D02*
X267500000Y-23500000D01*
X253500000Y-20000000D02*
X257000000Y-23500000D01*
X250500000Y-20000000D02*
X253500000Y-20000000D01*
X248500000Y-22000000D02*
X250500000Y-20000000D01*
X232000000Y-22000000D02*
X248500000Y-22000000D01*
X230000000Y-20000000D02*
X232000000Y-22000000D01*
X226000000Y-20000000D02*
X230000000Y-20000000D01*
X224000000Y-22000000D02*
X226000000Y-20000000D01*
X213000000Y-22000000D02*
X224000000Y-22000000D01*
X211000000Y-20000000D02*
X213000000Y-22000000D01*
X208000000Y-20000000D02*
X211000000Y-20000000D01*
X206000000Y-22000000D02*
X208000000Y-20000000D01*
X194000000Y-22000000D02*
X206000000Y-22000000D01*
X192000000Y-20000000D02*
X194000000Y-22000000D01*
X188500000Y-20000000D02*
X192000000Y-20000000D01*
X186500000Y-22000000D02*
X188500000Y-20000000D01*
X170500000Y-22000000D02*
X186500000Y-22000000D01*
X168500000Y-20000000D02*
X170500000Y-22000000D01*
X164000000Y-20000000D02*
X168500000Y-20000000D01*
X161920000Y-22080000D02*
X164000000Y-20000000D01*
X271460000Y-50080000D02*
X272030002Y-50080000D01*
X272030002Y-50080000D02*
X272950002Y-51000000D01*
X324691000Y-48691000D02*
X334897000Y-48691000D01*
X324500000Y-48500000D02*
X324691000Y-48691000D01*
X289500000Y-53000000D02*
X324500000Y-53000000D01*
X287500000Y-51000000D02*
X289500000Y-53000000D01*
X272950002Y-51000000D02*
X287500000Y-51000000D01*
X271460000Y-22080000D02*
X271460000Y-22540000D01*
X271460000Y-22540000D02*
X267500000Y-26500000D01*
X267500000Y-26500000D02*
X192500000Y-26500000D01*
X290460000Y-50080000D02*
X292080000Y-50080000D01*
X321642000Y-51358000D02*
X334897000Y-51358000D01*
X321000000Y-52000000D02*
X321642000Y-51358000D01*
X294000000Y-52000000D02*
X321000000Y-52000000D01*
X292080000Y-50080000D02*
X294000000Y-52000000D01*
X290460000Y-22080000D02*
X290460000Y-24540000D01*
X287000000Y-28000000D02*
X212000000Y-28000000D01*
X290460000Y-24540000D02*
X287000000Y-28000000D01*
X309460000Y-22080000D02*
X311580000Y-22080000D01*
X338848000Y-54152000D02*
X334897000Y-54152000D01*
X339000000Y-54000000D02*
X338848000Y-54152000D01*
X313500000Y-24000000D02*
X339500000Y-24000000D01*
X311580000Y-22080000D02*
X313500000Y-24000000D01*
X309460000Y-22080000D02*
X309460000Y-23040000D01*
X309460000Y-23040000D02*
X303500000Y-29000000D01*
X303500000Y-29000000D02*
X231000000Y-29000000D01*
X196810000Y-66540000D02*
X201890000Y-66540000D01*
X194270000Y-58920000D02*
X194270000Y-58840000D01*
X194270000Y-58840000D02*
X198000000Y-55110000D01*
X215810000Y-123540000D02*
X220890000Y-123540000D01*
X213270000Y-115920000D02*
X213270000Y-115840000D01*
X213270000Y-115840000D02*
X217000000Y-112110000D01*
X215810000Y-66540000D02*
X220890000Y-66540000D01*
X213270000Y-58920000D02*
X213270000Y-58840000D01*
X213270000Y-58840000D02*
X217000000Y-55110000D01*
X160935000Y-85540000D02*
X175125000Y-85540000D01*
X158395000Y-77920000D02*
X158395000Y-77840000D01*
X158395000Y-77840000D02*
X162125000Y-74110000D01*
X58810000Y-19540000D02*
X63890000Y-19540000D01*
X56270000Y-11920000D02*
X56270000Y-11840000D01*
X56270000Y-11840000D02*
X60000000Y-8110000D01*
X77810000Y-19540000D02*
X82890000Y-19540000D01*
X75270000Y-11920000D02*
X75270000Y-11840000D01*
X75270000Y-11840000D02*
X79000000Y-8110000D01*
X96810000Y-19540000D02*
X101890000Y-19540000D01*
X94270000Y-11920000D02*
X94270000Y-11840000D01*
X94270000Y-11840000D02*
X98000000Y-8110000D01*
X115810000Y-19540000D02*
X120890000Y-19540000D01*
X113270000Y-11920000D02*
X113270000Y-11840000D01*
X113270000Y-11840000D02*
X117000000Y-8110000D01*
X134810000Y-19540000D02*
X139890000Y-19540000D01*
X132270000Y-11920000D02*
X132270000Y-11840000D01*
X132270000Y-11840000D02*
X136000000Y-8110000D01*
X153810000Y-19540000D02*
X158890000Y-19540000D01*
X151270000Y-11920000D02*
X151270000Y-11840000D01*
X151270000Y-11840000D02*
X155000000Y-8110000D01*
X172810000Y-19540000D02*
X177890000Y-19540000D01*
X170270000Y-11920000D02*
X170270000Y-11840000D01*
X170270000Y-11840000D02*
X174000000Y-8110000D01*
X215810000Y-47540000D02*
X220890000Y-47540000D01*
X213270000Y-39920000D02*
X213270000Y-39840000D01*
X213270000Y-39840000D02*
X217000000Y-36110000D01*
X196810000Y-47540000D02*
X201890000Y-47540000D01*
X194270000Y-39920000D02*
X194270000Y-39840000D01*
X194270000Y-39840000D02*
X198000000Y-36110000D01*
X96810000Y-47540000D02*
X101890000Y-47540000D01*
X94270000Y-39920000D02*
X94270000Y-39840000D01*
X94270000Y-39840000D02*
X98000000Y-36110000D01*
X39810000Y-47540000D02*
X44890000Y-47540000D01*
X37270000Y-39920000D02*
X37270000Y-39840000D01*
X37270000Y-39840000D02*
X41000000Y-36110000D01*
X58810000Y-47540000D02*
X63890000Y-47540000D01*
X56270000Y-39920000D02*
X56270000Y-39840000D01*
X56270000Y-39840000D02*
X60000000Y-36110000D01*
X77810000Y-47540000D02*
X82890000Y-47540000D01*
X75270000Y-39920000D02*
X75270000Y-39840000D01*
X75270000Y-39840000D02*
X79000000Y-36110000D01*
X168060000Y-66540000D02*
X173140000Y-66540000D01*
X170500000Y-69000000D02*
X165000000Y-69000000D01*
X165000000Y-69000000D02*
X163000000Y-67000000D01*
X163000000Y-67000000D02*
X160000000Y-67000000D01*
X160000000Y-67000000D02*
X158000000Y-69000000D01*
X158000000Y-69000000D02*
X155360000Y-69000000D01*
X82560000Y-104540000D02*
X87640000Y-104540000D01*
X80020000Y-96920000D02*
X80020000Y-96840000D01*
X80020000Y-96840000D02*
X83750000Y-93110000D01*
X134810000Y-47540000D02*
X139890000Y-47540000D01*
X132270000Y-39920000D02*
X132270000Y-39840000D01*
X132270000Y-39840000D02*
X136000000Y-36110000D01*
X120560000Y-104540000D02*
X125640000Y-104540000D01*
X118020000Y-96920000D02*
X118020000Y-96840000D01*
X118020000Y-96840000D02*
X121750000Y-93110000D01*
X35060000Y-85540000D02*
X40140000Y-85540000D01*
X32520000Y-77920000D02*
X32520000Y-77840000D01*
X32520000Y-77840000D02*
X36250000Y-74110000D01*
X68310000Y-66540000D02*
X73390000Y-66540000D01*
X65770000Y-58920000D02*
X65770000Y-58840000D01*
X65770000Y-58840000D02*
X69500000Y-55110000D01*
X54060000Y-85540000D02*
X59140000Y-85540000D01*
X51520000Y-77920000D02*
X51520000Y-77840000D01*
X51520000Y-77840000D02*
X55250000Y-74110000D01*
X73060000Y-85540000D02*
X78140000Y-85540000D01*
X70520000Y-77920000D02*
X70520000Y-77840000D01*
X70520000Y-77840000D02*
X74250000Y-74110000D01*
X92060000Y-85540000D02*
X97140000Y-85540000D01*
X89520000Y-77920000D02*
X89520000Y-77840000D01*
X89520000Y-77840000D02*
X93250000Y-74110000D01*
X125310000Y-66540000D02*
X130390000Y-66540000D01*
X122770000Y-58920000D02*
X122770000Y-58840000D01*
X122770000Y-58840000D02*
X126500000Y-55110000D01*
X63560000Y-104540000D02*
X68640000Y-104540000D01*
X61020000Y-96920000D02*
X61020000Y-96840000D01*
X61020000Y-96840000D02*
X64750000Y-93110000D01*
X115810000Y-47540000D02*
X120890000Y-47540000D01*
X113270000Y-39920000D02*
X113270000Y-39840000D01*
X113270000Y-39840000D02*
X117000000Y-36110000D01*
X44560000Y-104540000D02*
X49640000Y-104540000D01*
X42020000Y-96920000D02*
X42020000Y-96840000D01*
X42020000Y-96840000D02*
X45750000Y-93110000D01*
X87310000Y-66540000D02*
X92390000Y-66540000D01*
X84770000Y-58920000D02*
X84770000Y-58840000D01*
X84770000Y-58840000D02*
X88500000Y-55110000D01*
X106310000Y-66540000D02*
X111390000Y-66540000D01*
X103770000Y-58920000D02*
X103770000Y-58840000D01*
X103770000Y-58840000D02*
X107500000Y-55110000D01*
X101560000Y-104540000D02*
X106640000Y-104540000D01*
X99020000Y-96920000D02*
X99020000Y-96840000D01*
X99020000Y-96840000D02*
X102750000Y-93110000D01*
X130060000Y-85540000D02*
X135140000Y-85540000D01*
X127520000Y-77920000D02*
X127520000Y-77840000D01*
X127520000Y-77840000D02*
X131250000Y-74110000D01*
X144310000Y-66540000D02*
X149390000Y-66540000D01*
X111060000Y-85540000D02*
X116140000Y-85540000D01*
X108520000Y-77920000D02*
X108520000Y-77840000D01*
X108520000Y-77840000D02*
X112250000Y-74110000D01*
X49310000Y-66540000D02*
X54390000Y-66540000D01*
X46770000Y-58920000D02*
X46770000Y-58840000D01*
X46770000Y-58840000D02*
X50500000Y-55110000D01*
X30310000Y-66540000D02*
X35390000Y-66540000D01*
X27770000Y-58920000D02*
X27770000Y-58840000D01*
X27770000Y-58840000D02*
X31500000Y-55110000D01*
X196810000Y-123540000D02*
X201890000Y-123540000D01*
X194270000Y-115920000D02*
X194270000Y-115840000D01*
X194270000Y-115840000D02*
X198000000Y-112110000D01*
X258810000Y-19540000D02*
X263890000Y-19540000D01*
X256270000Y-11920000D02*
X256270000Y-11840000D01*
X256270000Y-11840000D02*
X260000000Y-8110000D01*
X277810000Y-19540000D02*
X282890000Y-19540000D01*
X275270000Y-11920000D02*
X275270000Y-11840000D01*
X275270000Y-11840000D02*
X279000000Y-8110000D01*
X296810000Y-19540000D02*
X301890000Y-19540000D01*
X294270000Y-11920000D02*
X294270000Y-11840000D01*
X294270000Y-11840000D02*
X298000000Y-8110000D01*
X315810000Y-19540000D02*
X320890000Y-19540000D01*
X313270000Y-11920000D02*
X313270000Y-11840000D01*
X313270000Y-11840000D02*
X317000000Y-8110000D01*
X268310000Y-123540000D02*
X246500000Y-123540000D01*
X265770000Y-115920000D02*
X265770000Y-115840000D01*
X265770000Y-115840000D02*
X269500000Y-112110000D01*
X258810000Y-104540000D02*
X263890000Y-104540000D01*
X256270000Y-96920000D02*
X256270000Y-96840000D01*
X256270000Y-96840000D02*
X260000000Y-93110000D01*
X277810000Y-104540000D02*
X282890000Y-104540000D01*
X275270000Y-96920000D02*
X275270000Y-96840000D01*
X275270000Y-96840000D02*
X279000000Y-93110000D01*
X296810000Y-104540000D02*
X301890000Y-104540000D01*
X294270000Y-96920000D02*
X294270000Y-96840000D01*
X294270000Y-96840000D02*
X298000000Y-93110000D01*
X258810000Y-85540000D02*
X263890000Y-85540000D01*
X256270000Y-77920000D02*
X256270000Y-77840000D01*
X256270000Y-77840000D02*
X260000000Y-74110000D01*
X277810000Y-85540000D02*
X282890000Y-85540000D01*
X275270000Y-77920000D02*
X275270000Y-77840000D01*
X275270000Y-77840000D02*
X279000000Y-74110000D01*
X296810000Y-85540000D02*
X301890000Y-85540000D01*
X294270000Y-77920000D02*
X294270000Y-77840000D01*
X294270000Y-77840000D02*
X298000000Y-74110000D01*
X258810000Y-66540000D02*
X263890000Y-66540000D01*
X256270000Y-58920000D02*
X256270000Y-58840000D01*
X256270000Y-58840000D02*
X260000000Y-55110000D01*
X277810000Y-66540000D02*
X282890000Y-66540000D01*
X275270000Y-58920000D02*
X275270000Y-58840000D01*
X275270000Y-58840000D02*
X279000000Y-55110000D01*
X296810000Y-66540000D02*
X301890000Y-66540000D01*
X294270000Y-58920000D02*
X294270000Y-58840000D01*
X294270000Y-58840000D02*
X298000000Y-55110000D01*
X296810000Y-47540000D02*
X301890000Y-47540000D01*
X294270000Y-39920000D02*
X294270000Y-39840000D01*
X294270000Y-39840000D02*
X298000000Y-36110000D01*
X258810000Y-47540000D02*
X263890000Y-47540000D01*
X256270000Y-39920000D02*
X256270000Y-39840000D01*
X256270000Y-39840000D02*
X260000000Y-36110000D01*
X315810000Y-47540000D02*
X320890000Y-47540000D01*
X313270000Y-39920000D02*
X313270000Y-39840000D01*
X313270000Y-39840000D02*
X317000000Y-36110000D01*
X296810000Y-123540000D02*
X301890000Y-123540000D01*
X294270000Y-115920000D02*
X294270000Y-115840000D01*
X294270000Y-115840000D02*
X298000000Y-112110000D01*
X277810000Y-47540000D02*
X282890000Y-47540000D01*
X275270000Y-39920000D02*
X275270000Y-39840000D01*
X275270000Y-39840000D02*
X279000000Y-36110000D01*
X234810000Y-66540000D02*
X239890000Y-66540000D01*
X232270000Y-58920000D02*
X232270000Y-58840000D01*
X232270000Y-58840000D02*
X236000000Y-55110000D01*
X234810000Y-47540000D02*
X239890000Y-47540000D01*
X232270000Y-39920000D02*
X232270000Y-39840000D01*
X232270000Y-39840000D02*
X236000000Y-36110000D01*
X234810000Y-19540000D02*
X239890000Y-19540000D01*
X232270000Y-11920000D02*
X232270000Y-11840000D01*
X232270000Y-11840000D02*
X236000000Y-8110000D01*
X196810000Y-19540000D02*
X201890000Y-19540000D01*
X194270000Y-11920000D02*
X194270000Y-11840000D01*
X194270000Y-11840000D02*
X198000000Y-8110000D01*
X234810000Y-123540000D02*
X239890000Y-123540000D01*
X232270000Y-115920000D02*
X232270000Y-115840000D01*
X232270000Y-115840000D02*
X236000000Y-112110000D01*
X99185000Y-123540000D02*
X104265000Y-123540000D01*
X96645000Y-115920000D02*
X96645000Y-115840000D01*
X96645000Y-115840000D02*
X100375000Y-112110000D01*
X170435000Y-123540000D02*
X175515000Y-123540000D01*
X70685000Y-123540000D02*
X75765000Y-123540000D01*
X68145000Y-115920000D02*
X68145000Y-115840000D01*
X68145000Y-115840000D02*
X71875000Y-112110000D01*
X146685000Y-123540000D02*
X151765000Y-123540000D01*
X156185000Y-104540000D02*
X170375000Y-104540000D01*
X158500000Y-106500000D02*
X158000000Y-107000000D01*
X158000000Y-107000000D02*
X153000000Y-107000000D01*
X153000000Y-107000000D02*
X151000000Y-105000000D01*
X151000000Y-105000000D02*
X136375000Y-105000000D01*
X136375000Y-105000000D02*
X134375000Y-107000000D01*
X32685000Y-123540000D02*
X46875000Y-123540000D01*
X30145000Y-115920000D02*
X30080000Y-115920000D01*
X30080000Y-115920000D02*
X29500000Y-116500000D01*
X29500000Y-116500000D02*
X29500000Y-118000000D01*
X29500000Y-118000000D02*
X25000000Y-118000000D01*
X25000000Y-118000000D02*
X17000000Y-126000000D01*
X17000000Y-126000000D02*
X10875000Y-126000000D01*
X122935000Y-123540000D02*
X128015000Y-123540000D01*
X120395000Y-115920000D02*
X120395000Y-115840000D01*
X120395000Y-115840000D02*
X124125000Y-112110000D01*
X215810000Y-19540000D02*
X220890000Y-19540000D01*
X213270000Y-11920000D02*
X213270000Y-11840000D01*
X213270000Y-11840000D02*
X217000000Y-8110000D01*
X215810000Y-104540000D02*
X220890000Y-104540000D01*
X213270000Y-96920000D02*
X213270000Y-96840000D01*
X213270000Y-96840000D02*
X217000000Y-93110000D01*
M02*
