  0
SECTION
  2
BLOCKS
  0
ENDSEC
  0
SECTION
  2
ENTITIES
  0
LINE
  8
0
 10
0
 11
0
 20
0
 21
138
  0
LINE
  8
0
 10
0
 11
160
 20
138
 21
138
  0
LINE
  8
0
 10
160
 11
160
 20
138
 21
59
  0
LINE
  8
0
 10
160
 11
147
 20
59
 21
59
  0
LINE
  8
0
 10
147
 11
147
 20
59
 21
0
  0
LINE
  8
0
 10
147
 11
0
 20
0
 21
0
  0
LINE
  8
0
 10
7
 11
7
 20
7
 21
27
  0
LINE
  8
0
 10
7
 11
27
 20
27
 21
27
  0
LINE
  8
0
 10
27
 11
27
 20
27
 21
7
  0
LINE
  8
0
 10
27
 11
7
 20
7
 21
7
  0
LINE
  8
0
 10
7
 11
7
 20
35
 21
74
  0
LINE
  8
0
 10
7
 11
41
 20
74
 21
74
  0
LINE
  8
0
 10
41
 11
41
 20
74
 21
92
  0
LINE
  8
0
 10
41
 11
7
 20
92
 21
92
  0
LINE
  8
0
 10
7
 11
7
 20
92
 21
131
  0
LINE
  8
0
 10
7
 11
81
 20
131
 21
131
  0
LINE
  8
0
 10
81
 11
81
 20
131
 21
112
  0
LINE
  8
0
 10
81
 11
110
 20
112
 21
112
  0
LINE
  8
0
 10
110
 11
110
 20
112
 21
131
  0
LINE
  8
0
 10
110
 11
154
 20
131
 21
131
  0
LINE
  8
0
 10
154
 11
154
 20
131
 21
111
  0
LINE
  8
0
 10
154
 11
146
 20
111
 21
111
  0
LINE
  8
0
 10
146
 11
146
 20
111
 21
92
  0
LINE
  8
0
 10
146
 11
137
 20
92
 21
92
  0
LINE
  8
0
 10
137
 11
137
 20
92
 21
73
  0
LINE
  8
0
 10
137
 11
132
 20
73
 21
73
  0
LINE
  8
0
 10
132
 11
132
 20
73
 21
55
  0
LINE
  8
0
 10
132
 11
141
 20
55
 21
55
  0
LINE
  8
0
 10
141
 11
141
 20
55
 21
35
  0
LINE
  8
0
 10
141
 11
7
 20
35
 21
35
  0
LINE
  8
0
 10
45
 11
45
 20
7
 21
27
  0
LINE
  8
0
 10
45
 11
141
 20
27
 21
27
  0
LINE
  8
0
 10
141
 11
141
 20
27
 21
7
  0
LINE
  8
0
 10
141
 11
45
 20
7
 21
7
  0
ENDSEC
  0
SECTION
  2
OBJECTS
  0
DICTIONARY
  0
ENDSEC
  0
EOF
