  0
SECTION
  2
BLOCKS
  0
ENDSEC
  0
SECTION
  2
ENTITIES
  0
LINE
  8
0
 10
513.5
 20
293
 11
344
 21
293
  0
LINE
  8
0
 10
344
 20
293
 11
344
 21
227
  0
LINE
  8
0
 10
344
 20
227
 11
355
 21
227
  0
LINE
  8
0
 10
355
 20
227
 11
355
 21
172
  0
LINE
  8
0
 10
355
 20
172
 11
344
 21
172
  0
LINE
  8
0
 10
344
 20
172
 11
344
 21
155
  0
LINE
  8
0
 10
344
 20
155
 11
513.5
 21
155
  0
LINE
  8
0
 10
513.5
 20
155
 11
513.5
 21
293
  0
LINE
  8
0
 10
346.625
 20
287.984
 11
345.984
 21
288.625
  0
LINE
  8
0
 10
345.984
 20
288.625
 11
345.75
 21
289.5
  0
LINE
  8
0
 10
345.75
 20
289.5
 11
345.984
 21
290.375
  0
LINE
  8
0
 10
345.984
 20
290.375
 11
346.625
 21
291.016
  0
LINE
  8
0
 10
346.625
 20
291.016
 11
347.5
 21
291.25
  0
LINE
  8
0
 10
347.5
 20
291.25
 11
348.375
 21
291.016
  0
LINE
  8
0
 10
348.375
 20
291.016
 11
349.016
 21
290.375
  0
LINE
  8
0
 10
349.016
 20
290.375
 11
349.25
 21
289.5
  0
LINE
  8
0
 10
349.25
 20
289.5
 11
349.016
 21
288.625
  0
LINE
  8
0
 10
349.016
 20
288.625
 11
348.375
 21
287.984
  0
LINE
  8
0
 10
348.375
 20
287.984
 11
347.5
 21
287.75
  0
LINE
  8
0
 10
347.5
 20
287.75
 11
346.625
 21
287.984
  0
LINE
  8
0
 10
509.125
 20
287.984
 11
508.484
 21
288.625
  0
LINE
  8
0
 10
508.484
 20
288.625
 11
508.25
 21
289.5
  0
LINE
  8
0
 10
508.25
 20
289.5
 11
508.484
 21
290.375
  0
LINE
  8
0
 10
508.484
 20
290.375
 11
509.125
 21
291.016
  0
LINE
  8
0
 10
509.125
 20
291.016
 11
510
 21
291.25
  0
LINE
  8
0
 10
510
 20
291.25
 11
510.875
 21
291.016
  0
LINE
  8
0
 10
510.875
 20
291.016
 11
511.516
 21
290.375
  0
LINE
  8
0
 10
511.516
 20
290.375
 11
511.75
 21
289.5
  0
LINE
  8
0
 10
511.75
 20
289.5
 11
511.516
 21
288.625
  0
LINE
  8
0
 10
511.516
 20
288.625
 11
510.875
 21
287.984
  0
LINE
  8
0
 10
510.875
 20
287.984
 11
510
 21
287.75
  0
LINE
  8
0
 10
510
 20
287.75
 11
509.125
 21
287.984
  0
LINE
  8
0
 10
477.625
 20
269
 11
477.625
 21
271.27
  0
LINE
  8
0
 10
477.625
 20
271.27
 11
476.05
 21
271.27
  0
LINE
  8
0
 10
476.05
 20
271.27
 11
476.05
 21
270.47
  0
LINE
  8
0
 10
476.05
 20
270.47
 11
469.4
 21
270.47
  0
LINE
  8
0
 10
469.4
 20
270.47
 11
469.4
 21
273.7
  0
LINE
  8
0
 10
469.4
 20
273.7
 11
468.525
 21
273.7
  0
LINE
  8
0
 10
468.525
 20
273.7
 11
468.525
 21
276.5
  0
LINE
  8
0
 10
468.525
 20
276.5
 11
469.4
 21
276.5
  0
LINE
  8
0
 10
469.4
 20
276.5
 11
469.4
 21
282.77
  0
LINE
  8
0
 10
469.4
 20
282.77
 11
471.225
 21
282.77
  0
LINE
  8
0
 10
471.225
 20
282.77
 11
471.225
 21
283.97
  0
LINE
  8
0
 10
471.225
 20
283.97
 11
474.225
 21
283.97
  0
LINE
  8
0
 10
474.225
 20
283.97
 11
474.225
 21
282.77
  0
LINE
  8
0
 10
474.225
 20
282.77
 11
476.05
 21
282.77
  0
LINE
  8
0
 10
476.05
 20
282.77
 11
476.05
 21
281.97
  0
LINE
  8
0
 10
476.05
 20
281.97
 11
477.625
 21
281.97
  0
LINE
  8
0
 10
477.625
 20
281.97
 11
477.625
 21
283
  0
LINE
  8
0
 10
477.625
 20
283
 11
491.625
 21
283
  0
LINE
  8
0
 10
491.625
 20
283
 11
491.625
 21
281.97
  0
LINE
  8
0
 10
491.625
 20
281.97
 11
493.2
 21
281.97
  0
LINE
  8
0
 10
493.2
 20
281.97
 11
493.2
 21
282.77
  0
LINE
  8
0
 10
493.2
 20
282.77
 11
495.025
 21
282.77
  0
LINE
  8
0
 10
495.025
 20
282.77
 11
495.025
 21
283.97
  0
LINE
  8
0
 10
495.025
 20
283.97
 11
498.025
 21
283.97
  0
LINE
  8
0
 10
498.025
 20
283.97
 11
498.025
 21
282.77
  0
LINE
  8
0
 10
498.025
 20
282.77
 11
499.85
 21
282.77
  0
LINE
  8
0
 10
499.85
 20
282.77
 11
499.85
 21
276.5
  0
LINE
  8
0
 10
499.85
 20
276.5
 11
500.725
 21
276.5
  0
LINE
  8
0
 10
500.725
 20
276.5
 11
500.725
 21
273.7
  0
LINE
  8
0
 10
500.725
 20
273.7
 11
499.85
 21
273.7
  0
LINE
  8
0
 10
499.85
 20
273.7
 11
499.85
 21
270.47
  0
LINE
  8
0
 10
499.85
 20
270.47
 11
493.2
 21
270.47
  0
LINE
  8
0
 10
493.2
 20
270.47
 11
493.2
 21
271.27
  0
LINE
  8
0
 10
493.2
 20
271.27
 11
491.625
 21
271.27
  0
LINE
  8
0
 10
491.625
 20
271.27
 11
491.625
 21
269
  0
LINE
  8
0
 10
491.625
 20
269
 11
477.625
 21
269
  0
LINE
  8
0
 10
442
 20
269
 11
442
 21
283
  0
LINE
  8
0
 10
442
 20
283
 11
456
 21
283
  0
LINE
  8
0
 10
456
 20
283
 11
456
 21
269
  0
LINE
  8
0
 10
456
 20
269
 11
442
 21
269
  0
LINE
  8
0
 10
392.125
 20
269
 11
392.125
 21
283
  0
LINE
  8
0
 10
392.125
 20
283
 11
406.125
 21
283
  0
LINE
  8
0
 10
406.125
 20
283
 11
406.125
 21
269
  0
LINE
  8
0
 10
406.125
 20
269
 11
392.125
 21
269
  0
LINE
  8
0
 10
368.375
 20
269
 11
368.375
 21
283
  0
LINE
  8
0
 10
368.375
 20
283
 11
382.375
 21
283
  0
LINE
  8
0
 10
382.375
 20
283
 11
382.375
 21
269
  0
LINE
  8
0
 10
382.375
 20
269
 11
368.375
 21
269
  0
LINE
  8
0
 10
415.875
 20
269
 11
415.875
 21
283
  0
LINE
  8
0
 10
415.875
 20
283
 11
429.875
 21
283
  0
LINE
  8
0
 10
429.875
 20
283
 11
429.875
 21
269
  0
LINE
  8
0
 10
429.875
 20
269
 11
415.875
 21
269
  0
LINE
  8
0
 10
377.875
 20
250
 11
377.875
 21
252.27
  0
LINE
  8
0
 10
377.875
 20
252.27
 11
376.3
 21
252.27
  0
LINE
  8
0
 10
376.3
 20
252.27
 11
376.3
 21
251.47
  0
LINE
  8
0
 10
376.3
 20
251.47
 11
369.65
 21
251.47
  0
LINE
  8
0
 10
369.65
 20
251.47
 11
369.65
 21
254.7
  0
LINE
  8
0
 10
369.65
 20
254.7
 11
368.775
 21
254.7
  0
LINE
  8
0
 10
368.775
 20
254.7
 11
368.775
 21
257.5
  0
LINE
  8
0
 10
368.775
 20
257.5
 11
369.65
 21
257.5
  0
LINE
  8
0
 10
369.65
 20
257.5
 11
369.65
 21
263.77
  0
LINE
  8
0
 10
369.65
 20
263.77
 11
371.475
 21
263.77
  0
LINE
  8
0
 10
371.475
 20
263.77
 11
371.475
 21
264.97
  0
LINE
  8
0
 10
371.475
 20
264.97
 11
374.475
 21
264.97
  0
LINE
  8
0
 10
374.475
 20
264.97
 11
374.475
 21
263.77
  0
LINE
  8
0
 10
374.475
 20
263.77
 11
376.3
 21
263.77
  0
LINE
  8
0
 10
376.3
 20
263.77
 11
376.3
 21
262.97
  0
LINE
  8
0
 10
376.3
 20
262.97
 11
377.875
 21
262.97
  0
LINE
  8
0
 10
377.875
 20
262.97
 11
377.875
 21
264
  0
LINE
  8
0
 10
377.875
 20
264
 11
391.875
 21
264
  0
LINE
  8
0
 10
391.875
 20
264
 11
391.875
 21
262.97
  0
LINE
  8
0
 10
391.875
 20
262.97
 11
393.45
 21
262.97
  0
LINE
  8
0
 10
393.45
 20
262.97
 11
393.45
 21
263.77
  0
LINE
  8
0
 10
393.45
 20
263.77
 11
395.275
 21
263.77
  0
LINE
  8
0
 10
395.275
 20
263.77
 11
395.275
 21
264.97
  0
LINE
  8
0
 10
395.275
 20
264.97
 11
398.275
 21
264.97
  0
LINE
  8
0
 10
398.275
 20
264.97
 11
398.275
 21
263.77
  0
LINE
  8
0
 10
398.275
 20
263.77
 11
400.1
 21
263.77
  0
LINE
  8
0
 10
400.1
 20
263.77
 11
400.1
 21
257.5
  0
LINE
  8
0
 10
400.1
 20
257.5
 11
400.975
 21
257.5
  0
LINE
  8
0
 10
400.975
 20
257.5
 11
400.975
 21
254.7
  0
LINE
  8
0
 10
400.975
 20
254.7
 11
400.1
 21
254.7
  0
LINE
  8
0
 10
400.1
 20
254.7
 11
400.1
 21
251.47
  0
LINE
  8
0
 10
400.1
 20
251.47
 11
393.45
 21
251.47
  0
LINE
  8
0
 10
393.45
 20
251.47
 11
393.45
 21
252.27
  0
LINE
  8
0
 10
393.45
 20
252.27
 11
391.875
 21
252.27
  0
LINE
  8
0
 10
391.875
 20
252.27
 11
391.875
 21
250
  0
LINE
  8
0
 10
391.875
 20
250
 11
377.875
 21
250
  0
LINE
  8
0
 10
446.75
 20
250
 11
446.75
 21
264
  0
LINE
  8
0
 10
446.75
 20
264
 11
460.75
 21
264
  0
LINE
  8
0
 10
460.75
 20
264
 11
460.75
 21
250
  0
LINE
  8
0
 10
460.75
 20
250
 11
446.75
 21
250
  0
LINE
  8
0
 10
465.75
 20
250
 11
465.75
 21
264
  0
LINE
  8
0
 10
465.75
 20
264
 11
479.75
 21
264
  0
LINE
  8
0
 10
479.75
 20
264
 11
479.75
 21
250
  0
LINE
  8
0
 10
479.75
 20
250
 11
465.75
 21
250
  0
LINE
  8
0
 10
484.75
 20
250
 11
484.75
 21
264
  0
LINE
  8
0
 10
484.75
 20
264
 11
498.75
 21
264
  0
LINE
  8
0
 10
498.75
 20
264
 11
498.75
 21
250
  0
LINE
  8
0
 10
498.75
 20
250
 11
484.75
 21
250
  0
LINE
  8
0
 10
408.75
 20
250
 11
408.75
 21
264
  0
LINE
  8
0
 10
408.75
 20
264
 11
422.75
 21
264
  0
LINE
  8
0
 10
422.75
 20
264
 11
422.75
 21
250
  0
LINE
  8
0
 10
422.75
 20
250
 11
408.75
 21
250
  0
LINE
  8
0
 10
441.75
 20
250
 11
427.75
 21
250
  0
LINE
  8
0
 10
427.75
 20
250
 11
427.75
 21
264
  0
LINE
  8
0
 10
427.75
 20
264
 11
441.75
 21
264
  0
LINE
  8
0
 10
441.75
 20
264
 11
441.75
 21
250
  0
LINE
  8
0
 10
437.25
 20
231
 11
437.25
 21
245
  0
LINE
  8
0
 10
437.25
 20
245
 11
451.25
 21
245
  0
LINE
  8
0
 10
451.25
 20
245
 11
451.25
 21
231
  0
LINE
  8
0
 10
451.25
 20
231
 11
437.25
 21
231
  0
LINE
  8
0
 10
399.25
 20
231
 11
399.25
 21
245
  0
LINE
  8
0
 10
399.25
 20
245
 11
413.25
 21
245
  0
LINE
  8
0
 10
413.25
 20
245
 11
413.25
 21
231
  0
LINE
  8
0
 10
413.25
 20
231
 11
399.25
 21
231
  0
LINE
  8
0
 10
418.25
 20
231
 11
418.25
 21
245
  0
LINE
  8
0
 10
418.25
 20
245
 11
432.25
 21
245
  0
LINE
  8
0
 10
432.25
 20
245
 11
432.25
 21
231
  0
LINE
  8
0
 10
432.25
 20
231
 11
418.25
 21
231
  0
LINE
  8
0
 10
456.25
 20
231
 11
456.25
 21
245
  0
LINE
  8
0
 10
456.25
 20
245
 11
470.25
 21
245
  0
LINE
  8
0
 10
470.25
 20
245
 11
470.25
 21
231
  0
LINE
  8
0
 10
470.25
 20
231
 11
456.25
 21
231
  0
LINE
  8
0
 10
475.25
 20
231
 11
475.25
 21
245
  0
LINE
  8
0
 10
475.25
 20
245
 11
489.25
 21
245
  0
LINE
  8
0
 10
489.25
 20
245
 11
489.25
 21
231
  0
LINE
  8
0
 10
489.25
 20
231
 11
475.25
 21
231
  0
LINE
  8
0
 10
379.25
 20
236.484
 11
378.609
 21
237.125
  0
LINE
  8
0
 10
378.609
 20
237.125
 11
378.375
 21
238
  0
LINE
  8
0
 10
378.375
 20
238
 11
378.609
 21
238.875
  0
LINE
  8
0
 10
378.609
 20
238.875
 11
379.25
 21
239.516
  0
LINE
  8
0
 10
379.25
 20
239.516
 11
380.125
 21
239.75
  0
LINE
  8
0
 10
380.125
 20
239.75
 11
381
 21
239.516
  0
LINE
  8
0
 10
381
 20
239.516
 11
381.641
 21
238.875
  0
LINE
  8
0
 10
381.641
 20
238.875
 11
381.875
 21
238
  0
LINE
  8
0
 10
381.875
 20
238
 11
381.641
 21
237.125
  0
LINE
  8
0
 10
381.641
 20
237.125
 11
381
 21
236.484
  0
LINE
  8
0
 10
381
 20
236.484
 11
380.125
 21
236.25
  0
LINE
  8
0
 10
380.125
 20
236.25
 11
379.25
 21
236.484
  0
LINE
  8
0
 10
394.5
 20
212
 11
394.5
 21
226
  0
LINE
  8
0
 10
394.5
 20
226
 11
408.5
 21
226
  0
LINE
  8
0
 10
408.5
 20
226
 11
408.5
 21
212
  0
LINE
  8
0
 10
408.5
 20
212
 11
394.5
 21
212
  0
LINE
  8
0
 10
413.5
 20
212
 11
413.5
 21
226
  0
LINE
  8
0
 10
413.5
 20
226
 11
427.5
 21
226
  0
LINE
  8
0
 10
427.5
 20
226
 11
427.5
 21
212
  0
LINE
  8
0
 10
427.5
 20
212
 11
413.5
 21
212
  0
LINE
  8
0
 10
470.5
 20
212
 11
470.5
 21
226
  0
LINE
  8
0
 10
470.5
 20
226
 11
484.5
 21
226
  0
LINE
  8
0
 10
484.5
 20
226
 11
484.5
 21
212
  0
LINE
  8
0
 10
484.5
 20
212
 11
470.5
 21
212
  0
LINE
  8
0
 10
451.5
 20
212
 11
451.5
 21
226
  0
LINE
  8
0
 10
451.5
 20
226
 11
465.5
 21
226
  0
LINE
  8
0
 10
465.5
 20
226
 11
465.5
 21
212
  0
LINE
  8
0
 10
465.5
 20
212
 11
451.5
 21
212
  0
LINE
  8
0
 10
370.75
 20
212
 11
370.75
 21
226
  0
LINE
  8
0
 10
370.75
 20
226
 11
384.75
 21
226
  0
LINE
  8
0
 10
384.75
 20
226
 11
384.75
 21
212
  0
LINE
  8
0
 10
384.75
 20
212
 11
370.75
 21
212
  0
LINE
  8
0
 10
432.5
 20
212
 11
432.5
 21
226
  0
LINE
  8
0
 10
432.5
 20
226
 11
446.5
 21
226
  0
LINE
  8
0
 10
446.5
 20
226
 11
446.5
 21
212
  0
LINE
  8
0
 10
446.5
 20
212
 11
432.5
 21
212
  0
LINE
  8
0
 10
495.625
 20
217.484
 11
494.984
 21
218.125
  0
LINE
  8
0
 10
494.984
 20
218.125
 11
494.75
 21
219
  0
LINE
  8
0
 10
494.75
 20
219
 11
494.984
 21
219.875
  0
LINE
  8
0
 10
494.984
 20
219.875
 11
495.625
 21
220.516
  0
LINE
  8
0
 10
495.625
 20
220.516
 11
496.5
 21
220.75
  0
LINE
  8
0
 10
496.5
 20
220.75
 11
497.375
 21
220.516
  0
LINE
  8
0
 10
497.375
 20
220.516
 11
498.016
 21
219.875
  0
LINE
  8
0
 10
498.016
 20
219.875
 11
498.25
 21
219
  0
LINE
  8
0
 10
498.25
 20
219
 11
498.016
 21
218.125
  0
LINE
  8
0
 10
498.016
 20
218.125
 11
497.375
 21
217.484
  0
LINE
  8
0
 10
497.375
 20
217.484
 11
496.5
 21
217.25
  0
LINE
  8
0
 10
496.5
 20
217.25
 11
495.625
 21
217.484
  0
LINE
  8
0
 10
480
 20
193
 11
480
 21
207
  0
LINE
  8
0
 10
480
 20
207
 11
494
 21
207
  0
LINE
  8
0
 10
494
 20
207
 11
494
 21
193
  0
LINE
  8
0
 10
494
 20
193
 11
480
 21
193
  0
LINE
  8
0
 10
461
 20
193
 11
461
 21
207
  0
LINE
  8
0
 10
461
 20
207
 11
475
 21
207
  0
LINE
  8
0
 10
475
 20
207
 11
475
 21
193
  0
LINE
  8
0
 10
475
 20
193
 11
461
 21
193
  0
LINE
  8
0
 10
442
 20
193
 11
442
 21
207
  0
LINE
  8
0
 10
442
 20
207
 11
456
 21
207
  0
LINE
  8
0
 10
456
 20
207
 11
456
 21
193
  0
LINE
  8
0
 10
456
 20
193
 11
442
 21
193
  0
LINE
  8
0
 10
423
 20
193
 11
423
 21
207
  0
LINE
  8
0
 10
423
 20
207
 11
437
 21
207
  0
LINE
  8
0
 10
437
 20
207
 11
437
 21
193
  0
LINE
  8
0
 10
437
 20
193
 11
423
 21
193
  0
LINE
  8
0
 10
404
 20
193
 11
404
 21
207
  0
LINE
  8
0
 10
404
 20
207
 11
418
 21
207
  0
LINE
  8
0
 10
418
 20
207
 11
418
 21
193
  0
LINE
  8
0
 10
418
 20
193
 11
404
 21
193
  0
LINE
  8
0
 10
385
 20
193
 11
385
 21
207
  0
LINE
  8
0
 10
385
 20
207
 11
399
 21
207
  0
LINE
  8
0
 10
399
 20
207
 11
399
 21
193
  0
LINE
  8
0
 10
399
 20
193
 11
385
 21
193
  0
LINE
  8
0
 10
366
 20
193
 11
366
 21
207
  0
LINE
  8
0
 10
366
 20
207
 11
380
 21
207
  0
LINE
  8
0
 10
380
 20
207
 11
380
 21
193
  0
LINE
  8
0
 10
380
 20
193
 11
366
 21
193
  0
LINE
  8
0
 10
480
 20
165
 11
480
 21
179
  0
LINE
  8
0
 10
480
 20
179
 11
494
 21
179
  0
LINE
  8
0
 10
494
 20
179
 11
494
 21
165
  0
LINE
  8
0
 10
494
 20
165
 11
480
 21
165
  0
LINE
  8
0
 10
461
 20
165
 11
461
 21
179
  0
LINE
  8
0
 10
461
 20
179
 11
475
 21
179
  0
LINE
  8
0
 10
475
 20
179
 11
475
 21
165
  0
LINE
  8
0
 10
475
 20
165
 11
461
 21
165
  0
LINE
  8
0
 10
366
 20
165
 11
366
 21
179
  0
LINE
  8
0
 10
366
 20
179
 11
380
 21
179
  0
LINE
  8
0
 10
380
 20
179
 11
380
 21
165
  0
LINE
  8
0
 10
380
 20
165
 11
366
 21
165
  0
LINE
  8
0
 10
442
 20
165
 11
442
 21
179
  0
LINE
  8
0
 10
442
 20
179
 11
456
 21
179
  0
LINE
  8
0
 10
456
 20
179
 11
456
 21
165
  0
LINE
  8
0
 10
456
 20
165
 11
442
 21
165
  0
LINE
  8
0
 10
404
 20
165
 11
404
 21
179
  0
LINE
  8
0
 10
404
 20
179
 11
418
 21
179
  0
LINE
  8
0
 10
418
 20
179
 11
418
 21
165
  0
LINE
  8
0
 10
418
 20
165
 11
404
 21
165
  0
LINE
  8
0
 10
423
 20
165
 11
423
 21
179
  0
LINE
  8
0
 10
423
 20
179
 11
437
 21
179
  0
LINE
  8
0
 10
437
 20
179
 11
437
 21
165
  0
LINE
  8
0
 10
437
 20
165
 11
423
 21
165
  0
LINE
  8
0
 10
391.125
 20
170.484
 11
390.484
 21
171.125
  0
LINE
  8
0
 10
390.484
 20
171.125
 11
390.25
 21
172
  0
LINE
  8
0
 10
390.25
 20
172
 11
390.484
 21
172.875
  0
LINE
  8
0
 10
390.484
 20
172.875
 11
391.125
 21
173.516
  0
LINE
  8
0
 10
391.125
 20
173.516
 11
392
 21
173.75
  0
LINE
  8
0
 10
392
 20
173.75
 11
392.875
 21
173.516
  0
LINE
  8
0
 10
392.875
 20
173.516
 11
393.516
 21
172.875
  0
LINE
  8
0
 10
393.516
 20
172.875
 11
393.75
 21
172
  0
LINE
  8
0
 10
393.75
 20
172
 11
393.516
 21
171.125
  0
LINE
  8
0
 10
393.516
 20
171.125
 11
392.875
 21
170.484
  0
LINE
  8
0
 10
392.875
 20
170.484
 11
392
 21
170.25
  0
LINE
  8
0
 10
392
 20
170.25
 11
391.125
 21
170.484
  0
LINE
  8
0
 10
346.625
 20
156.984
 11
345.984
 21
157.625
  0
LINE
  8
0
 10
345.984
 20
157.625
 11
345.75
 21
158.5
  0
LINE
  8
0
 10
345.75
 20
158.5
 11
345.984
 21
159.375
  0
LINE
  8
0
 10
345.984
 20
159.375
 11
346.625
 21
160.016
  0
LINE
  8
0
 10
346.625
 20
160.016
 11
347.5
 21
160.25
  0
LINE
  8
0
 10
347.5
 20
160.25
 11
348.375
 21
160.016
  0
LINE
  8
0
 10
348.375
 20
160.016
 11
349.016
 21
159.375
  0
LINE
  8
0
 10
349.016
 20
159.375
 11
349.25
 21
158.5
  0
LINE
  8
0
 10
349.25
 20
158.5
 11
349.016
 21
157.625
  0
LINE
  8
0
 10
349.016
 20
157.625
 11
348.375
 21
156.984
  0
LINE
  8
0
 10
348.375
 20
156.984
 11
347.5
 21
156.75
  0
LINE
  8
0
 10
347.5
 20
156.75
 11
346.625
 21
156.984
  0
LINE
  8
0
 10
509.125
 20
156.984
 11
508.484
 21
157.625
  0
LINE
  8
0
 10
508.484
 20
157.625
 11
508.25
 21
158.5
  0
LINE
  8
0
 10
508.25
 20
158.5
 11
508.484
 21
159.375
  0
LINE
  8
0
 10
508.484
 20
159.375
 11
509.125
 21
160.016
  0
LINE
  8
0
 10
509.125
 20
160.016
 11
510
 21
160.25
  0
LINE
  8
0
 10
510
 20
160.25
 11
510.875
 21
160.016
  0
LINE
  8
0
 10
510.875
 20
160.016
 11
511.516
 21
159.375
  0
LINE
  8
0
 10
511.516
 20
159.375
 11
511.75
 21
158.5
  0
LINE
  8
0
 10
511.75
 20
158.5
 11
511.516
 21
157.625
  0
LINE
  8
0
 10
511.516
 20
157.625
 11
510.875
 21
156.984
  0
LINE
  8
0
 10
510.875
 20
156.984
 11
510
 21
156.75
  0
LINE
  8
0
 10
510
 20
156.75
 11
509.125
 21
156.984
  0
LINE
  8
0
 10
341
 20
172
 11
330
 21
172
  0
LINE
  8
0
 10
330
 20
172
 11
330
 21
227
  0
LINE
  8
0
 10
330
 20
227
 11
341
 21
227
  0
LINE
  8
0
 10
341
 20
227
 11
341
 21
293
  0
LINE
  8
0
 10
341
 20
293
 11
0
 21
293
  0
LINE
  8
0
 10
0
 20
293
 11
0
 21
155
  0
LINE
  8
0
 10
0
 20
155
 11
341
 21
155
  0
LINE
  8
0
 10
341
 20
155
 11
341
 21
172
  0
LINE
  8
0
 10
242.125
 20
287.984
 11
241.484
 21
288.625
  0
LINE
  8
0
 10
241.484
 20
288.625
 11
241.25
 21
289.5
  0
LINE
  8
0
 10
241.25
 20
289.5
 11
241.484
 21
290.375
  0
LINE
  8
0
 10
241.484
 20
290.375
 11
242.125
 21
291.016
  0
LINE
  8
0
 10
242.125
 20
291.016
 11
243
 21
291.25
  0
LINE
  8
0
 10
243
 20
291.25
 11
243.875
 21
291.016
  0
LINE
  8
0
 10
243.875
 20
291.016
 11
244.516
 21
290.375
  0
LINE
  8
0
 10
244.516
 20
290.375
 11
244.75
 21
289.5
  0
LINE
  8
0
 10
244.75
 20
289.5
 11
244.516
 21
288.625
  0
LINE
  8
0
 10
244.516
 20
288.625
 11
243.875
 21
287.984
  0
LINE
  8
0
 10
243.875
 20
287.984
 11
243
 21
287.75
  0
LINE
  8
0
 10
243
 20
287.75
 11
242.125
 21
287.984
  0
LINE
  8
0
 10
336.625
 20
287.984
 11
335.984
 21
288.625
  0
LINE
  8
0
 10
335.984
 20
288.625
 11
335.75
 21
289.5
  0
LINE
  8
0
 10
335.75
 20
289.5
 11
335.984
 21
290.375
  0
LINE
  8
0
 10
335.984
 20
290.375
 11
336.625
 21
291.016
  0
LINE
  8
0
 10
336.625
 20
291.016
 11
337.5
 21
291.25
  0
LINE
  8
0
 10
337.5
 20
291.25
 11
338.375
 21
291.016
  0
LINE
  8
0
 10
338.375
 20
291.016
 11
339.016
 21
290.375
  0
LINE
  8
0
 10
339.016
 20
290.375
 11
339.25
 21
289.5
  0
LINE
  8
0
 10
339.25
 20
289.5
 11
339.016
 21
288.625
  0
LINE
  8
0
 10
339.016
 20
288.625
 11
338.375
 21
287.984
  0
LINE
  8
0
 10
338.375
 20
287.984
 11
337.5
 21
287.75
  0
LINE
  8
0
 10
337.5
 20
287.75
 11
336.625
 21
287.984
  0
LINE
  8
0
 10
180.125
 20
287.984
 11
179.484
 21
288.625
  0
LINE
  8
0
 10
179.484
 20
288.625
 11
179.25
 21
289.5
  0
LINE
  8
0
 10
179.25
 20
289.5
 11
179.484
 21
290.375
  0
LINE
  8
0
 10
179.484
 20
290.375
 11
180.125
 21
291.016
  0
LINE
  8
0
 10
180.125
 20
291.016
 11
181
 21
291.25
  0
LINE
  8
0
 10
181
 20
291.25
 11
181.875
 21
291.016
  0
LINE
  8
0
 10
181.875
 20
291.016
 11
182.516
 21
290.375
  0
LINE
  8
0
 10
182.516
 20
290.375
 11
182.75
 21
289.5
  0
LINE
  8
0
 10
182.75
 20
289.5
 11
182.516
 21
288.625
  0
LINE
  8
0
 10
182.516
 20
288.625
 11
181.875
 21
287.984
  0
LINE
  8
0
 10
181.875
 20
287.984
 11
181
 21
287.75
  0
LINE
  8
0
 10
181
 20
287.75
 11
180.125
 21
287.984
  0
LINE
  8
0
 10
2.625
 20
287.984
 11
1.98445
 21
288.625
  0
LINE
  8
0
 10
1.98445
 20
288.625
 11
1.75
 21
289.5
  0
LINE
  8
0
 10
1.75
 20
289.5
 11
1.98445
 21
290.375
  0
LINE
  8
0
 10
1.98445
 20
290.375
 11
2.625
 21
291.016
  0
LINE
  8
0
 10
2.625
 20
291.016
 11
3.5
 21
291.25
  0
LINE
  8
0
 10
3.5
 20
291.25
 11
4.375
 21
291.016
  0
LINE
  8
0
 10
4.375
 20
291.016
 11
5.01553
 21
290.375
  0
LINE
  8
0
 10
5.01553
 20
290.375
 11
5.25
 21
289.5
  0
LINE
  8
0
 10
5.25
 20
289.5
 11
5.01553
 21
288.625
  0
LINE
  8
0
 10
5.01553
 20
288.625
 11
4.375
 21
287.984
  0
LINE
  8
0
 10
4.375
 20
287.984
 11
3.5
 21
287.75
  0
LINE
  8
0
 10
3.5
 20
287.75
 11
2.625
 21
287.984
  0
LINE
  8
0
 10
21.875
 20
269
 11
21.875
 21
271.27
  0
LINE
  8
0
 10
21.875
 20
271.27
 11
20.3
 21
271.27
  0
LINE
  8
0
 10
20.3
 20
271.27
 11
20.3
 21
270.47
  0
LINE
  8
0
 10
20.3
 20
270.47
 11
13.65
 21
270.47
  0
LINE
  8
0
 10
13.65
 20
270.47
 11
13.65
 21
273.7
  0
LINE
  8
0
 10
13.65
 20
273.7
 11
12.775
 21
273.7
  0
LINE
  8
0
 10
12.775
 20
273.7
 11
12.775
 21
276.5
  0
LINE
  8
0
 10
12.775
 20
276.5
 11
13.65
 21
276.5
  0
LINE
  8
0
 10
13.65
 20
276.5
 11
13.65
 21
282.77
  0
LINE
  8
0
 10
13.65
 20
282.77
 11
15.475
 21
282.77
  0
LINE
  8
0
 10
15.475
 20
282.77
 11
15.475
 21
283.97
  0
LINE
  8
0
 10
15.475
 20
283.97
 11
18.475
 21
283.97
  0
LINE
  8
0
 10
18.475
 20
283.97
 11
18.475
 21
282.77
  0
LINE
  8
0
 10
18.475
 20
282.77
 11
20.3
 21
282.77
  0
LINE
  8
0
 10
20.3
 20
282.77
 11
20.3
 21
281.97
  0
LINE
  8
0
 10
20.3
 20
281.97
 11
21.875
 21
281.97
  0
LINE
  8
0
 10
21.875
 20
281.97
 11
21.875
 21
283
  0
LINE
  8
0
 10
21.875
 20
283
 11
35.875
 21
283
  0
LINE
  8
0
 10
35.875
 20
283
 11
35.875
 21
281.97
  0
LINE
  8
0
 10
35.875
 20
281.97
 11
37.45
 21
281.97
  0
LINE
  8
0
 10
37.45
 20
281.97
 11
37.45
 21
282.77
  0
LINE
  8
0
 10
37.45
 20
282.77
 11
39.275
 21
282.77
  0
LINE
  8
0
 10
39.275
 20
282.77
 11
39.275
 21
283.97
  0
LINE
  8
0
 10
39.275
 20
283.97
 11
42.275
 21
283.97
  0
LINE
  8
0
 10
42.275
 20
283.97
 11
42.275
 21
282.77
  0
LINE
  8
0
 10
42.275
 20
282.77
 11
44.1
 21
282.77
  0
LINE
  8
0
 10
44.1
 20
282.77
 11
44.1
 21
276.5
  0
LINE
  8
0
 10
44.1
 20
276.5
 11
44.975
 21
276.5
  0
LINE
  8
0
 10
44.975
 20
276.5
 11
44.975
 21
273.7
  0
LINE
  8
0
 10
44.975
 20
273.7
 11
44.1
 21
273.7
  0
LINE
  8
0
 10
44.1
 20
273.7
 11
44.1
 21
270.47
  0
LINE
  8
0
 10
44.1
 20
270.47
 11
37.45
 21
270.47
  0
LINE
  8
0
 10
37.45
 20
270.47
 11
37.45
 21
271.27
  0
LINE
  8
0
 10
37.45
 20
271.27
 11
35.875
 21
271.27
  0
LINE
  8
0
 10
35.875
 20
271.27
 11
35.875
 21
269
  0
LINE
  8
0
 10
35.875
 20
269
 11
21.875
 21
269
  0
LINE
  8
0
 10
257.5
 20
269
 11
257.5
 21
271.27
  0
LINE
  8
0
 10
257.5
 20
271.27
 11
255.925
 21
271.27
  0
LINE
  8
0
 10
255.925
 20
271.27
 11
255.925
 21
270.47
  0
LINE
  8
0
 10
255.925
 20
270.47
 11
249.275
 21
270.47
  0
LINE
  8
0
 10
249.275
 20
270.47
 11
249.275
 21
273.7
  0
LINE
  8
0
 10
249.275
 20
273.7
 11
248.4
 21
273.7
  0
LINE
  8
0
 10
248.4
 20
273.7
 11
248.4
 21
276.5
  0
LINE
  8
0
 10
248.4
 20
276.5
 11
249.275
 21
276.5
  0
LINE
  8
0
 10
249.275
 20
276.5
 11
249.275
 21
282.77
  0
LINE
  8
0
 10
249.275
 20
282.77
 11
251.1
 21
282.77
  0
LINE
  8
0
 10
251.1
 20
282.77
 11
251.1
 21
283.97
  0
LINE
  8
0
 10
251.1
 20
283.97
 11
254.1
 21
283.97
  0
LINE
  8
0
 10
254.1
 20
283.97
 11
254.1
 21
282.77
  0
LINE
  8
0
 10
254.1
 20
282.77
 11
255.925
 21
282.77
  0
LINE
  8
0
 10
255.925
 20
282.77
 11
255.925
 21
281.97
  0
LINE
  8
0
 10
255.925
 20
281.97
 11
257.5
 21
281.97
  0
LINE
  8
0
 10
257.5
 20
281.97
 11
257.5
 21
283
  0
LINE
  8
0
 10
257.5
 20
283
 11
271.5
 21
283
  0
LINE
  8
0
 10
271.5
 20
283
 11
271.5
 21
281.97
  0
LINE
  8
0
 10
271.5
 20
281.97
 11
273.075
 21
281.97
  0
LINE
  8
0
 10
273.075
 20
281.97
 11
273.075
 21
282.77
  0
LINE
  8
0
 10
273.075
 20
282.77
 11
274.9
 21
282.77
  0
LINE
  8
0
 10
274.9
 20
282.77
 11
274.9
 21
283.97
  0
LINE
  8
0
 10
274.9
 20
283.97
 11
277.9
 21
283.97
  0
LINE
  8
0
 10
277.9
 20
283.97
 11
277.9
 21
282.77
  0
LINE
  8
0
 10
277.9
 20
282.77
 11
279.725
 21
282.77
  0
LINE
  8
0
 10
279.725
 20
282.77
 11
279.725
 21
276.5
  0
LINE
  8
0
 10
279.725
 20
276.5
 11
280.6
 21
276.5
  0
LINE
  8
0
 10
280.6
 20
276.5
 11
280.6
 21
273.7
  0
LINE
  8
0
 10
280.6
 20
273.7
 11
279.725
 21
273.7
  0
LINE
  8
0
 10
279.725
 20
273.7
 11
279.725
 21
270.47
  0
LINE
  8
0
 10
279.725
 20
270.47
 11
273.075
 21
270.47
  0
LINE
  8
0
 10
273.075
 20
270.47
 11
273.075
 21
271.27
  0
LINE
  8
0
 10
273.075
 20
271.27
 11
271.5
 21
271.27
  0
LINE
  8
0
 10
271.5
 20
271.27
 11
271.5
 21
269
  0
LINE
  8
0
 10
271.5
 20
269
 11
257.5
 21
269
  0
LINE
  8
0
 10
59.875
 20
269
 11
59.875
 21
283
  0
LINE
  8
0
 10
59.875
 20
283
 11
73.875
 21
283
  0
LINE
  8
0
 10
73.875
 20
283
 11
73.875
 21
269
  0
LINE
  8
0
 10
73.875
 20
269
 11
59.875
 21
269
  0
LINE
  8
0
 10
135.875
 20
269
 11
135.875
 21
283
  0
LINE
  8
0
 10
135.875
 20
283
 11
149.875
 21
283
  0
LINE
  8
0
 10
149.875
 20
283
 11
149.875
 21
269
  0
LINE
  8
0
 10
149.875
 20
269
 11
135.875
 21
269
  0
LINE
  8
0
 10
159.625
 20
269
 11
159.625
 21
283
  0
LINE
  8
0
 10
159.625
 20
283
 11
173.625
 21
283
  0
LINE
  8
0
 10
173.625
 20
283
 11
173.625
 21
269
  0
LINE
  8
0
 10
173.625
 20
269
 11
159.625
 21
269
  0
LINE
  8
0
 10
224
 20
269
 11
224
 21
283
  0
LINE
  8
0
 10
224
 20
283
 11
238
 21
283
  0
LINE
  8
0
 10
238
 20
283
 11
238
 21
269
  0
LINE
  8
0
 10
238
 20
269
 11
224
 21
269
  0
LINE
  8
0
 10
286
 20
269
 11
286
 21
283
  0
LINE
  8
0
 10
286
 20
283
 11
300
 21
283
  0
LINE
  8
0
 10
300
 20
283
 11
300
 21
269
  0
LINE
  8
0
 10
300
 20
269
 11
286
 21
269
  0
LINE
  8
0
 10
112.125
 20
269
 11
112.125
 21
283
  0
LINE
  8
0
 10
112.125
 20
283
 11
126.125
 21
283
  0
LINE
  8
0
 10
126.125
 20
283
 11
126.125
 21
269
  0
LINE
  8
0
 10
126.125
 20
269
 11
112.125
 21
269
  0
LINE
  8
0
 10
186
 20
269
 11
186
 21
283
  0
LINE
  8
0
 10
186
 20
283
 11
200
 21
283
  0
LINE
  8
0
 10
200
 20
283
 11
200
 21
269
  0
LINE
  8
0
 10
200
 20
269
 11
186
 21
269
  0
LINE
  8
0
 10
205
 20
269
 11
205
 21
283
  0
LINE
  8
0
 10
205
 20
283
 11
219
 21
283
  0
LINE
  8
0
 10
219
 20
283
 11
219
 21
269
  0
LINE
  8
0
 10
219
 20
269
 11
205
 21
269
  0
LINE
  8
0
 10
88.375
 20
269
 11
88.375
 21
283
  0
LINE
  8
0
 10
88.375
 20
283
 11
102.375
 21
283
  0
LINE
  8
0
 10
102.375
 20
283
 11
102.375
 21
269
  0
LINE
  8
0
 10
102.375
 20
269
 11
88.375
 21
269
  0
LINE
  8
0
 10
309.7
 20
250.4
 11
309.7
 21
251.275
  0
LINE
  8
0
 10
309.7
 20
251.275
 11
306.47
 21
251.275
  0
LINE
  8
0
 10
306.47
 20
251.275
 11
306.47
 21
257.925
  0
LINE
  8
0
 10
306.47
 20
257.925
 11
307.27
 21
257.925
  0
LINE
  8
0
 10
307.27
 20
257.925
 11
307.27
 21
259.5
  0
LINE
  8
0
 10
307.27
 20
259.5
 11
305
 21
259.5
  0
LINE
  8
0
 10
305
 20
259.5
 11
305
 21
273.5
  0
LINE
  8
0
 10
305
 20
273.5
 11
307.27
 21
273.5
  0
LINE
  8
0
 10
307.27
 20
273.5
 11
307.27
 21
275.075
  0
LINE
  8
0
 10
307.27
 20
275.075
 11
306.47
 21
275.075
  0
LINE
  8
0
 10
306.47
 20
275.075
 11
306.47
 21
281.725
  0
LINE
  8
0
 10
306.47
 20
281.725
 11
309.7
 21
281.725
  0
LINE
  8
0
 10
309.7
 20
281.725
 11
309.7
 21
282.6
  0
LINE
  8
0
 10
309.7
 20
282.6
 11
312.5
 21
282.6
  0
LINE
  8
0
 10
312.5
 20
282.6
 11
312.5
 21
281.725
  0
LINE
  8
0
 10
312.5
 20
281.725
 11
318.77
 21
281.725
  0
LINE
  8
0
 10
318.77
 20
281.725
 11
318.77
 21
279.9
  0
LINE
  8
0
 10
318.77
 20
279.9
 11
319.97
 21
279.9
  0
LINE
  8
0
 10
319.97
 20
279.9
 11
319.97
 21
276.9
  0
LINE
  8
0
 10
319.97
 20
276.9
 11
318.77
 21
276.9
  0
LINE
  8
0
 10
318.77
 20
276.9
 11
318.77
 21
275.075
  0
LINE
  8
0
 10
318.77
 20
275.075
 11
317.97
 21
275.075
  0
LINE
  8
0
 10
317.97
 20
275.075
 11
317.97
 21
273.5
  0
LINE
  8
0
 10
317.97
 20
273.5
 11
319
 21
273.5
  0
LINE
  8
0
 10
319
 20
273.5
 11
319
 21
259.5
  0
LINE
  8
0
 10
319
 20
259.5
 11
317.97
 21
259.5
  0
LINE
  8
0
 10
317.97
 20
259.5
 11
317.97
 21
257.925
  0
LINE
  8
0
 10
317.97
 20
257.925
 11
318.77
 21
257.925
  0
LINE
  8
0
 10
318.77
 20
257.925
 11
318.77
 21
256.1
  0
LINE
  8
0
 10
318.77
 20
256.1
 11
319.97
 21
256.1
  0
LINE
  8
0
 10
319.97
 20
256.1
 11
319.97
 21
253.1
  0
LINE
  8
0
 10
319.97
 20
253.1
 11
318.77
 21
253.1
  0
LINE
  8
0
 10
318.77
 20
253.1
 11
318.77
 21
251.275
  0
LINE
  8
0
 10
318.77
 20
251.275
 11
312.5
 21
251.275
  0
LINE
  8
0
 10
312.5
 20
251.275
 11
312.5
 21
250.4
  0
LINE
  8
0
 10
312.5
 20
250.4
 11
309.7
 21
250.4
  0
LINE
  8
0
 10
145.375
 20
250
 11
145.375
 21
252.27
  0
LINE
  8
0
 10
145.375
 20
252.27
 11
143.8
 21
252.27
  0
LINE
  8
0
 10
143.8
 20
252.27
 11
143.8
 21
251.47
  0
LINE
  8
0
 10
143.8
 20
251.47
 11
137.15
 21
251.47
  0
LINE
  8
0
 10
137.15
 20
251.47
 11
137.15
 21
254.7
  0
LINE
  8
0
 10
137.15
 20
254.7
 11
136.275
 21
254.7
  0
LINE
  8
0
 10
136.275
 20
254.7
 11
136.275
 21
257.5
  0
LINE
  8
0
 10
136.275
 20
257.5
 11
137.15
 21
257.5
  0
LINE
  8
0
 10
137.15
 20
257.5
 11
137.15
 21
263.77
  0
LINE
  8
0
 10
137.15
 20
263.77
 11
138.975
 21
263.77
  0
LINE
  8
0
 10
138.975
 20
263.77
 11
138.975
 21
264.97
  0
LINE
  8
0
 10
138.975
 20
264.97
 11
141.975
 21
264.97
  0
LINE
  8
0
 10
141.975
 20
264.97
 11
141.975
 21
263.77
  0
LINE
  8
0
 10
141.975
 20
263.77
 11
143.8
 21
263.77
  0
LINE
  8
0
 10
143.8
 20
263.77
 11
143.8
 21
262.97
  0
LINE
  8
0
 10
143.8
 20
262.97
 11
145.375
 21
262.97
  0
LINE
  8
0
 10
145.375
 20
262.97
 11
145.375
 21
264
  0
LINE
  8
0
 10
145.375
 20
264
 11
159.375
 21
264
  0
LINE
  8
0
 10
159.375
 20
264
 11
159.375
 21
262.97
  0
LINE
  8
0
 10
159.375
 20
262.97
 11
160.95
 21
262.97
  0
LINE
  8
0
 10
160.95
 20
262.97
 11
160.95
 21
263.77
  0
LINE
  8
0
 10
160.95
 20
263.77
 11
162.775
 21
263.77
  0
LINE
  8
0
 10
162.775
 20
263.77
 11
162.775
 21
264.97
  0
LINE
  8
0
 10
162.775
 20
264.97
 11
165.775
 21
264.97
  0
LINE
  8
0
 10
165.775
 20
264.97
 11
165.775
 21
263.77
  0
LINE
  8
0
 10
165.775
 20
263.77
 11
167.6
 21
263.77
  0
LINE
  8
0
 10
167.6
 20
263.77
 11
167.6
 21
257.5
  0
LINE
  8
0
 10
167.6
 20
257.5
 11
168.475
 21
257.5
  0
LINE
  8
0
 10
168.475
 20
257.5
 11
168.475
 21
254.7
  0
LINE
  8
0
 10
168.475
 20
254.7
 11
167.6
 21
254.7
  0
LINE
  8
0
 10
167.6
 20
254.7
 11
167.6
 21
251.47
  0
LINE
  8
0
 10
167.6
 20
251.47
 11
160.95
 21
251.47
  0
LINE
  8
0
 10
160.95
 20
251.47
 11
160.95
 21
252.27
  0
LINE
  8
0
 10
160.95
 20
252.27
 11
159.375
 21
252.27
  0
LINE
  8
0
 10
159.375
 20
252.27
 11
159.375
 21
250
  0
LINE
  8
0
 10
159.375
 20
250
 11
145.375
 21
250
  0
LINE
  8
0
 10
286
 20
250
 11
286
 21
264
  0
LINE
  8
0
 10
286
 20
264
 11
300
 21
264
  0
LINE
  8
0
 10
300
 20
264
 11
300
 21
250
  0
LINE
  8
0
 10
300
 20
250
 11
286
 21
250
  0
LINE
  8
0
 10
205
 20
250
 11
205
 21
264
  0
LINE
  8
0
 10
205
 20
264
 11
219
 21
264
  0
LINE
  8
0
 10
219
 20
264
 11
219
 21
250
  0
LINE
  8
0
 10
219
 20
250
 11
205
 21
250
  0
LINE
  8
0
 10
33.75
 20
250
 11
33.75
 21
264
  0
LINE
  8
0
 10
33.75
 20
264
 11
47.75
 21
264
  0
LINE
  8
0
 10
47.75
 20
264
 11
47.75
 21
250
  0
LINE
  8
0
 10
47.75
 20
250
 11
33.75
 21
250
  0
LINE
  8
0
 10
248
 20
264
 11
262
 21
264
  0
LINE
  8
0
 10
262
 20
264
 11
262
 21
250
  0
LINE
  8
0
 10
262
 20
250
 11
248
 21
250
  0
LINE
  8
0
 10
248
 20
250
 11
248
 21
264
  0
LINE
  8
0
 10
90.75
 20
250
 11
90.75
 21
264
  0
LINE
  8
0
 10
90.75
 20
264
 11
104.75
 21
264
  0
LINE
  8
0
 10
104.75
 20
264
 11
104.75
 21
250
  0
LINE
  8
0
 10
104.75
 20
250
 11
90.75
 21
250
  0
LINE
  8
0
 10
71.75
 20
250
 11
71.75
 21
264
  0
LINE
  8
0
 10
71.75
 20
264
 11
85.75
 21
264
  0
LINE
  8
0
 10
85.75
 20
264
 11
85.75
 21
250
  0
LINE
  8
0
 10
85.75
 20
250
 11
71.75
 21
250
  0
LINE
  8
0
 10
123.75
 20
250
 11
109.75
 21
250
  0
LINE
  8
0
 10
109.75
 20
250
 11
109.75
 21
264
  0
LINE
  8
0
 10
109.75
 20
264
 11
123.75
 21
264
  0
LINE
  8
0
 10
123.75
 20
264
 11
123.75
 21
250
  0
LINE
  8
0
 10
52.75
 20
250
 11
52.75
 21
264
  0
LINE
  8
0
 10
52.75
 20
264
 11
66.75
 21
264
  0
LINE
  8
0
 10
66.75
 20
264
 11
66.75
 21
250
  0
LINE
  8
0
 10
66.75
 20
250
 11
52.75
 21
250
  0
LINE
  8
0
 10
20.875
 20
255.484
 11
20.2345
 21
256.125
  0
LINE
  8
0
 10
20.2345
 20
256.125
 11
20
 21
257
  0
LINE
  8
0
 10
20
 20
257
 11
20.2345
 21
257.875
  0
LINE
  8
0
 10
20.2345
 20
257.875
 11
20.875
 21
258.516
  0
LINE
  8
0
 10
20.875
 20
258.516
 11
21.75
 21
258.75
  0
LINE
  8
0
 10
21.75
 20
258.75
 11
22.625
 21
258.516
  0
LINE
  8
0
 10
22.625
 20
258.516
 11
23.2655
 21
257.875
  0
LINE
  8
0
 10
23.2655
 20
257.875
 11
23.5
 21
257
  0
LINE
  8
0
 10
23.5
 20
257
 11
23.2655
 21
256.125
  0
LINE
  8
0
 10
23.2655
 20
256.125
 11
22.625
 21
255.484
  0
LINE
  8
0
 10
22.625
 20
255.484
 11
21.75
 21
255.25
  0
LINE
  8
0
 10
21.75
 20
255.25
 11
20.875
 21
255.484
  0
LINE
  8
0
 10
150.125
 20
231
 11
150.125
 21
233.27
  0
LINE
  8
0
 10
150.125
 20
233.27
 11
148.55
 21
233.27
  0
LINE
  8
0
 10
148.55
 20
233.27
 11
148.55
 21
232.47
  0
LINE
  8
0
 10
148.55
 20
232.47
 11
141.9
 21
232.47
  0
LINE
  8
0
 10
141.9
 20
232.47
 11
141.9
 21
235.7
  0
LINE
  8
0
 10
141.9
 20
235.7
 11
141.025
 21
235.7
  0
LINE
  8
0
 10
141.025
 20
235.7
 11
141.025
 21
238.5
  0
LINE
  8
0
 10
141.025
 20
238.5
 11
141.9
 21
238.5
  0
LINE
  8
0
 10
141.9
 20
238.5
 11
141.9
 21
244.77
  0
LINE
  8
0
 10
141.9
 20
244.77
 11
143.725
 21
244.77
  0
LINE
  8
0
 10
143.725
 20
244.77
 11
143.725
 21
245.97
  0
LINE
  8
0
 10
143.725
 20
245.97
 11
146.725
 21
245.97
  0
LINE
  8
0
 10
146.725
 20
245.97
 11
146.725
 21
244.77
  0
LINE
  8
0
 10
146.725
 20
244.77
 11
148.55
 21
244.77
  0
LINE
  8
0
 10
148.55
 20
244.77
 11
148.55
 21
243.97
  0
LINE
  8
0
 10
148.55
 20
243.97
 11
150.125
 21
243.97
  0
LINE
  8
0
 10
150.125
 20
243.97
 11
150.125
 21
245
  0
LINE
  8
0
 10
150.125
 20
245
 11
164.125
 21
245
  0
LINE
  8
0
 10
164.125
 20
245
 11
164.125
 21
243.97
  0
LINE
  8
0
 10
164.125
 20
243.97
 11
165.7
 21
243.97
  0
LINE
  8
0
 10
165.7
 20
243.97
 11
165.7
 21
244.77
  0
LINE
  8
0
 10
165.7
 20
244.77
 11
167.525
 21
244.77
  0
LINE
  8
0
 10
167.525
 20
244.77
 11
167.525
 21
245.97
  0
LINE
  8
0
 10
167.525
 20
245.97
 11
170.525
 21
245.97
  0
LINE
  8
0
 10
170.525
 20
245.97
 11
170.525
 21
244.77
  0
LINE
  8
0
 10
170.525
 20
244.77
 11
172.35
 21
244.77
  0
LINE
  8
0
 10
172.35
 20
244.77
 11
172.35
 21
238.5
  0
LINE
  8
0
 10
172.35
 20
238.5
 11
173.225
 21
238.5
  0
LINE
  8
0
 10
173.225
 20
238.5
 11
173.225
 21
235.7
  0
LINE
  8
0
 10
173.225
 20
235.7
 11
172.35
 21
235.7
  0
LINE
  8
0
 10
172.35
 20
235.7
 11
172.35
 21
232.47
  0
LINE
  8
0
 10
172.35
 20
232.47
 11
165.7
 21
232.47
  0
LINE
  8
0
 10
165.7
 20
232.47
 11
165.7
 21
233.27
  0
LINE
  8
0
 10
165.7
 20
233.27
 11
164.125
 21
233.27
  0
LINE
  8
0
 10
164.125
 20
233.27
 11
164.125
 21
231
  0
LINE
  8
0
 10
164.125
 20
231
 11
150.125
 21
231
  0
LINE
  8
0
 10
24.25
 20
231
 11
24.25
 21
245
  0
LINE
  8
0
 10
24.25
 20
245
 11
38.25
 21
245
  0
LINE
  8
0
 10
38.25
 20
245
 11
38.25
 21
231
  0
LINE
  8
0
 10
38.25
 20
231
 11
24.25
 21
231
  0
LINE
  8
0
 10
100.25
 20
231
 11
100.25
 21
245
  0
LINE
  8
0
 10
100.25
 20
245
 11
114.25
 21
245
  0
LINE
  8
0
 10
114.25
 20
245
 11
114.25
 21
231
  0
LINE
  8
0
 10
114.25
 20
231
 11
100.25
 21
231
  0
LINE
  8
0
 10
248
 20
231
 11
248
 21
245
  0
LINE
  8
0
 10
248
 20
245
 11
262
 21
245
  0
LINE
  8
0
 10
262
 20
245
 11
262
 21
231
  0
LINE
  8
0
 10
262
 20
231
 11
248
 21
231
  0
LINE
  8
0
 10
43.25
 20
231
 11
43.25
 21
245
  0
LINE
  8
0
 10
43.25
 20
245
 11
57.25
 21
245
  0
LINE
  8
0
 10
57.25
 20
245
 11
57.25
 21
231
  0
LINE
  8
0
 10
57.25
 20
231
 11
43.25
 21
231
  0
LINE
  8
0
 10
62.25
 20
231
 11
62.25
 21
245
  0
LINE
  8
0
 10
62.25
 20
245
 11
76.25
 21
245
  0
LINE
  8
0
 10
76.25
 20
245
 11
76.25
 21
231
  0
LINE
  8
0
 10
76.25
 20
231
 11
62.25
 21
231
  0
LINE
  8
0
 10
267
 20
231
 11
267
 21
245
  0
LINE
  8
0
 10
267
 20
245
 11
281
 21
245
  0
LINE
  8
0
 10
281
 20
245
 11
281
 21
231
  0
LINE
  8
0
 10
281
 20
231
 11
267
 21
231
  0
LINE
  8
0
 10
81.25
 20
231
 11
81.25
 21
245
  0
LINE
  8
0
 10
81.25
 20
245
 11
95.25
 21
245
  0
LINE
  8
0
 10
95.25
 20
245
 11
95.25
 21
231
  0
LINE
  8
0
 10
95.25
 20
231
 11
81.25
 21
231
  0
LINE
  8
0
 10
119.25
 20
231
 11
119.25
 21
245
  0
LINE
  8
0
 10
119.25
 20
245
 11
133.25
 21
245
  0
LINE
  8
0
 10
133.25
 20
245
 11
133.25
 21
231
  0
LINE
  8
0
 10
133.25
 20
231
 11
119.25
 21
231
  0
LINE
  8
0
 10
286
 20
231
 11
286
 21
245
  0
LINE
  8
0
 10
286
 20
245
 11
300
 21
245
  0
LINE
  8
0
 10
300
 20
245
 11
300
 21
231
  0
LINE
  8
0
 10
300
 20
231
 11
286
 21
231
  0
LINE
  8
0
 10
309.7
 20
212.4
 11
309.7
 21
213.275
  0
LINE
  8
0
 10
309.7
 20
213.275
 11
306.47
 21
213.275
  0
LINE
  8
0
 10
306.47
 20
213.275
 11
306.47
 21
219.925
  0
LINE
  8
0
 10
306.47
 20
219.925
 11
307.27
 21
219.925
  0
LINE
  8
0
 10
307.27
 20
219.925
 11
307.27
 21
221.5
  0
LINE
  8
0
 10
307.27
 20
221.5
 11
305
 21
221.5
  0
LINE
  8
0
 10
305
 20
221.5
 11
305
 21
235.5
  0
LINE
  8
0
 10
305
 20
235.5
 11
307.27
 21
235.5
  0
LINE
  8
0
 10
307.27
 20
235.5
 11
307.27
 21
237.075
  0
LINE
  8
0
 10
307.27
 20
237.075
 11
306.47
 21
237.075
  0
LINE
  8
0
 10
306.47
 20
237.075
 11
306.47
 21
243.725
  0
LINE
  8
0
 10
306.47
 20
243.725
 11
309.7
 21
243.725
  0
LINE
  8
0
 10
309.7
 20
243.725
 11
309.7
 21
244.6
  0
LINE
  8
0
 10
309.7
 20
244.6
 11
312.5
 21
244.6
  0
LINE
  8
0
 10
312.5
 20
244.6
 11
312.5
 21
243.725
  0
LINE
  8
0
 10
312.5
 20
243.725
 11
318.77
 21
243.725
  0
LINE
  8
0
 10
318.77
 20
243.725
 11
318.77
 21
241.9
  0
LINE
  8
0
 10
318.77
 20
241.9
 11
319.97
 21
241.9
  0
LINE
  8
0
 10
319.97
 20
241.9
 11
319.97
 21
238.9
  0
LINE
  8
0
 10
319.97
 20
238.9
 11
318.77
 21
238.9
  0
LINE
  8
0
 10
318.77
 20
238.9
 11
318.77
 21
237.075
  0
LINE
  8
0
 10
318.77
 20
237.075
 11
317.97
 21
237.075
  0
LINE
  8
0
 10
317.97
 20
237.075
 11
317.97
 21
235.5
  0
LINE
  8
0
 10
317.97
 20
235.5
 11
319
 21
235.5
  0
LINE
  8
0
 10
319
 20
235.5
 11
319
 21
221.5
  0
LINE
  8
0
 10
319
 20
221.5
 11
317.97
 21
221.5
  0
LINE
  8
0
 10
317.97
 20
221.5
 11
317.97
 21
219.925
  0
LINE
  8
0
 10
317.97
 20
219.925
 11
318.77
 21
219.925
  0
LINE
  8
0
 10
318.77
 20
219.925
 11
318.77
 21
218.1
  0
LINE
  8
0
 10
318.77
 20
218.1
 11
319.97
 21
218.1
  0
LINE
  8
0
 10
319.97
 20
218.1
 11
319.97
 21
215.1
  0
LINE
  8
0
 10
319.97
 20
215.1
 11
318.77
 21
215.1
  0
LINE
  8
0
 10
318.77
 20
215.1
 11
318.77
 21
213.275
  0
LINE
  8
0
 10
318.77
 20
213.275
 11
312.5
 21
213.275
  0
LINE
  8
0
 10
312.5
 20
213.275
 11
312.5
 21
212.4
  0
LINE
  8
0
 10
312.5
 20
212.4
 11
309.7
 21
212.4
  0
LINE
  8
0
 10
180.125
 20
236.484
 11
179.484
 21
237.125
  0
LINE
  8
0
 10
179.484
 20
237.125
 11
179.25
 21
238
  0
LINE
  8
0
 10
179.25
 20
238
 11
179.484
 21
238.875
  0
LINE
  8
0
 10
179.484
 20
238.875
 11
180.125
 21
239.516
  0
LINE
  8
0
 10
180.125
 20
239.516
 11
181
 21
239.75
  0
LINE
  8
0
 10
181
 20
239.75
 11
181.875
 21
239.516
  0
LINE
  8
0
 10
181.875
 20
239.516
 11
182.516
 21
238.875
  0
LINE
  8
0
 10
182.516
 20
238.875
 11
182.75
 21
238
  0
LINE
  8
0
 10
182.75
 20
238
 11
182.516
 21
237.125
  0
LINE
  8
0
 10
182.516
 20
237.125
 11
181.875
 21
236.484
  0
LINE
  8
0
 10
181.875
 20
236.484
 11
181
 21
236.25
  0
LINE
  8
0
 10
181
 20
236.25
 11
180.125
 21
236.484
  0
LINE
  8
0
 10
242.125
 20
236.484
 11
241.484
 21
237.125
  0
LINE
  8
0
 10
241.484
 20
237.125
 11
241.25
 21
238
  0
LINE
  8
0
 10
241.25
 20
238
 11
241.484
 21
238.875
  0
LINE
  8
0
 10
241.484
 20
238.875
 11
242.125
 21
239.516
  0
LINE
  8
0
 10
242.125
 20
239.516
 11
243
 21
239.75
  0
LINE
  8
0
 10
243
 20
239.75
 11
243.875
 21
239.516
  0
LINE
  8
0
 10
243.875
 20
239.516
 11
244.516
 21
238.875
  0
LINE
  8
0
 10
244.516
 20
238.875
 11
244.75
 21
238
  0
LINE
  8
0
 10
244.75
 20
238
 11
244.516
 21
237.125
  0
LINE
  8
0
 10
244.516
 20
237.125
 11
243.875
 21
236.484
  0
LINE
  8
0
 10
243.875
 20
236.484
 11
243
 21
236.25
  0
LINE
  8
0
 10
243
 20
236.25
 11
242.125
 21
236.484
  0
LINE
  8
0
 10
224
 20
212
 11
224
 21
226
  0
LINE
  8
0
 10
224
 20
226
 11
238
 21
226
  0
LINE
  8
0
 10
238
 20
226
 11
238
 21
212
  0
LINE
  8
0
 10
238
 20
212
 11
224
 21
212
  0
LINE
  8
0
 10
38.5
 20
212
 11
38.5
 21
226
  0
LINE
  8
0
 10
38.5
 20
226
 11
52.5
 21
226
  0
LINE
  8
0
 10
52.5
 20
226
 11
52.5
 21
212
  0
LINE
  8
0
 10
52.5
 20
212
 11
38.5
 21
212
  0
LINE
  8
0
 10
157.25
 20
212
 11
157.25
 21
226
  0
LINE
  8
0
 10
157.25
 20
226
 11
171.25
 21
226
  0
LINE
  8
0
 10
171.25
 20
226
 11
171.25
 21
212
  0
LINE
  8
0
 10
171.25
 20
212
 11
157.25
 21
212
  0
LINE
  8
0
 10
286
 20
212
 11
286
 21
226
  0
LINE
  8
0
 10
286
 20
226
 11
300
 21
226
  0
LINE
  8
0
 10
300
 20
226
 11
300
 21
212
  0
LINE
  8
0
 10
300
 20
212
 11
286
 21
212
  0
LINE
  8
0
 10
248
 20
212
 11
248
 21
226
  0
LINE
  8
0
 10
248
 20
226
 11
262
 21
226
  0
LINE
  8
0
 10
262
 20
226
 11
262
 21
212
  0
LINE
  8
0
 10
262
 20
212
 11
248
 21
212
  0
LINE
  8
0
 10
133.5
 20
212
 11
133.5
 21
226
  0
LINE
  8
0
 10
133.5
 20
226
 11
147.5
 21
226
  0
LINE
  8
0
 10
147.5
 20
226
 11
147.5
 21
212
  0
LINE
  8
0
 10
147.5
 20
212
 11
133.5
 21
212
  0
LINE
  8
0
 10
205
 20
212
 11
205
 21
226
  0
LINE
  8
0
 10
205
 20
226
 11
219
 21
226
  0
LINE
  8
0
 10
219
 20
226
 11
219
 21
212
  0
LINE
  8
0
 10
219
 20
212
 11
205
 21
212
  0
LINE
  8
0
 10
267
 20
212
 11
267
 21
226
  0
LINE
  8
0
 10
267
 20
226
 11
281
 21
226
  0
LINE
  8
0
 10
281
 20
226
 11
281
 21
212
  0
LINE
  8
0
 10
281
 20
212
 11
267
 21
212
  0
LINE
  8
0
 10
114.5
 20
212
 11
114.5
 21
226
  0
LINE
  8
0
 10
114.5
 20
226
 11
128.5
 21
226
  0
LINE
  8
0
 10
128.5
 20
226
 11
128.5
 21
212
  0
LINE
  8
0
 10
128.5
 20
212
 11
114.5
 21
212
  0
LINE
  8
0
 10
95.5
 20
212
 11
95.5
 21
226
  0
LINE
  8
0
 10
95.5
 20
226
 11
109.5
 21
226
  0
LINE
  8
0
 10
109.5
 20
226
 11
109.5
 21
212
  0
LINE
  8
0
 10
109.5
 20
212
 11
95.5
 21
212
  0
LINE
  8
0
 10
186
 20
212
 11
186
 21
226
  0
LINE
  8
0
 10
186
 20
226
 11
200
 21
226
  0
LINE
  8
0
 10
200
 20
226
 11
200
 21
212
  0
LINE
  8
0
 10
200
 20
212
 11
186
 21
212
  0
LINE
  8
0
 10
76.5
 20
212
 11
76.5
 21
226
  0
LINE
  8
0
 10
76.5
 20
226
 11
90.5
 21
226
  0
LINE
  8
0
 10
90.5
 20
226
 11
90.5
 21
212
  0
LINE
  8
0
 10
90.5
 20
212
 11
76.5
 21
212
  0
LINE
  8
0
 10
57.5
 20
212
 11
57.5
 21
226
  0
LINE
  8
0
 10
57.5
 20
226
 11
71.5
 21
226
  0
LINE
  8
0
 10
71.5
 20
226
 11
71.5
 21
212
  0
LINE
  8
0
 10
71.5
 20
212
 11
57.5
 21
212
  0
LINE
  8
0
 10
19.5
 20
212
 11
19.5
 21
226
  0
LINE
  8
0
 10
19.5
 20
226
 11
33.5
 21
226
  0
LINE
  8
0
 10
33.5
 20
226
 11
33.5
 21
212
  0
LINE
  8
0
 10
33.5
 20
212
 11
19.5
 21
212
  0
LINE
  8
0
 10
152.5
 20
193
 11
152.5
 21
195.27
  0
LINE
  8
0
 10
152.5
 20
195.27
 11
150.925
 21
195.27
  0
LINE
  8
0
 10
150.925
 20
195.27
 11
150.925
 21
194.47
  0
LINE
  8
0
 10
150.925
 20
194.47
 11
144.275
 21
194.47
  0
LINE
  8
0
 10
144.275
 20
194.47
 11
144.275
 21
197.7
  0
LINE
  8
0
 10
144.275
 20
197.7
 11
143.4
 21
197.7
  0
LINE
  8
0
 10
143.4
 20
197.7
 11
143.4
 21
200.5
  0
LINE
  8
0
 10
143.4
 20
200.5
 11
144.275
 21
200.5
  0
LINE
  8
0
 10
144.275
 20
200.5
 11
144.275
 21
206.77
  0
LINE
  8
0
 10
144.275
 20
206.77
 11
146.1
 21
206.77
  0
LINE
  8
0
 10
146.1
 20
206.77
 11
146.1
 21
207.97
  0
LINE
  8
0
 10
146.1
 20
207.97
 11
149.1
 21
207.97
  0
LINE
  8
0
 10
149.1
 20
207.97
 11
149.1
 21
206.77
  0
LINE
  8
0
 10
149.1
 20
206.77
 11
150.925
 21
206.77
  0
LINE
  8
0
 10
150.925
 20
206.77
 11
150.925
 21
205.97
  0
LINE
  8
0
 10
150.925
 20
205.97
 11
152.5
 21
205.97
  0
LINE
  8
0
 10
152.5
 20
205.97
 11
152.5
 21
207
  0
LINE
  8
0
 10
152.5
 20
207
 11
166.5
 21
207
  0
LINE
  8
0
 10
166.5
 20
207
 11
166.5
 21
205.97
  0
LINE
  8
0
 10
166.5
 20
205.97
 11
168.075
 21
205.97
  0
LINE
  8
0
 10
168.075
 20
205.97
 11
168.075
 21
206.77
  0
LINE
  8
0
 10
168.075
 20
206.77
 11
169.9
 21
206.77
  0
LINE
  8
0
 10
169.9
 20
206.77
 11
169.9
 21
207.97
  0
LINE
  8
0
 10
169.9
 20
207.97
 11
172.9
 21
207.97
  0
LINE
  8
0
 10
172.9
 20
207.97
 11
172.9
 21
206.77
  0
LINE
  8
0
 10
172.9
 20
206.77
 11
174.725
 21
206.77
  0
LINE
  8
0
 10
174.725
 20
206.77
 11
174.725
 21
200.5
  0
LINE
  8
0
 10
174.725
 20
200.5
 11
175.6
 21
200.5
  0
LINE
  8
0
 10
175.6
 20
200.5
 11
175.6
 21
197.7
  0
LINE
  8
0
 10
175.6
 20
197.7
 11
174.725
 21
197.7
  0
LINE
  8
0
 10
174.725
 20
197.7
 11
174.725
 21
194.47
  0
LINE
  8
0
 10
174.725
 20
194.47
 11
168.075
 21
194.47
  0
LINE
  8
0
 10
168.075
 20
194.47
 11
168.075
 21
195.27
  0
LINE
  8
0
 10
168.075
 20
195.27
 11
166.5
 21
195.27
  0
LINE
  8
0
 10
166.5
 20
195.27
 11
166.5
 21
193
  0
LINE
  8
0
 10
166.5
 20
193
 11
152.5
 21
193
  0
LINE
  8
0
 10
224
 20
193
 11
224
 21
207
  0
LINE
  8
0
 10
224
 20
207
 11
238
 21
207
  0
LINE
  8
0
 10
238
 20
207
 11
238
 21
193
  0
LINE
  8
0
 10
238
 20
193
 11
224
 21
193
  0
LINE
  8
0
 10
267
 20
193
 11
267
 21
207
  0
LINE
  8
0
 10
267
 20
207
 11
281
 21
207
  0
LINE
  8
0
 10
281
 20
207
 11
281
 21
193
  0
LINE
  8
0
 10
281
 20
193
 11
267
 21
193
  0
LINE
  8
0
 10
286
 20
193
 11
286
 21
207
  0
LINE
  8
0
 10
286
 20
207
 11
300
 21
207
  0
LINE
  8
0
 10
300
 20
207
 11
300
 21
193
  0
LINE
  8
0
 10
300
 20
193
 11
286
 21
193
  0
LINE
  8
0
 10
29
 20
193
 11
29
 21
207
  0
LINE
  8
0
 10
29
 20
207
 11
43
 21
207
  0
LINE
  8
0
 10
43
 20
207
 11
43
 21
193
  0
LINE
  8
0
 10
43
 20
193
 11
29
 21
193
  0
LINE
  8
0
 10
48
 20
207
 11
62
 21
207
  0
LINE
  8
0
 10
62
 20
207
 11
62
 21
193
  0
LINE
  8
0
 10
62
 20
193
 11
48
 21
193
  0
LINE
  8
0
 10
48
 20
193
 11
48
 21
207
  0
LINE
  8
0
 10
248
 20
193
 11
248
 21
207
  0
LINE
  8
0
 10
248
 20
207
 11
262
 21
207
  0
LINE
  8
0
 10
262
 20
207
 11
262
 21
193
  0
LINE
  8
0
 10
262
 20
193
 11
248
 21
193
  0
LINE
  8
0
 10
186
 20
193
 11
186
 21
207
  0
LINE
  8
0
 10
186
 20
207
 11
200
 21
207
  0
LINE
  8
0
 10
200
 20
207
 11
200
 21
193
  0
LINE
  8
0
 10
200
 20
193
 11
186
 21
193
  0
LINE
  8
0
 10
124
 20
193
 11
124
 21
207
  0
LINE
  8
0
 10
124
 20
207
 11
138
 21
207
  0
LINE
  8
0
 10
138
 20
207
 11
138
 21
193
  0
LINE
  8
0
 10
138
 20
193
 11
124
 21
193
  0
LINE
  8
0
 10
305
 20
193
 11
305
 21
207
  0
LINE
  8
0
 10
305
 20
207
 11
319
 21
207
  0
LINE
  8
0
 10
319
 20
207
 11
319
 21
193
  0
LINE
  8
0
 10
319
 20
193
 11
305
 21
193
  0
LINE
  8
0
 10
205
 20
193
 11
205
 21
207
  0
LINE
  8
0
 10
205
 20
207
 11
219
 21
207
  0
LINE
  8
0
 10
219
 20
207
 11
219
 21
193
  0
LINE
  8
0
 10
219
 20
193
 11
205
 21
193
  0
LINE
  8
0
 10
16.125
 20
198.484
 11
15.4845
 21
199.125
  0
LINE
  8
0
 10
15.4845
 20
199.125
 11
15.25
 21
200
  0
LINE
  8
0
 10
15.25
 20
200
 11
15.4845
 21
200.875
  0
LINE
  8
0
 10
15.4845
 20
200.875
 11
16.125
 21
201.516
  0
LINE
  8
0
 10
16.125
 20
201.516
 11
17
 21
201.75
  0
LINE
  8
0
 10
17
 20
201.75
 11
17.875
 21
201.516
  0
LINE
  8
0
 10
17.875
 20
201.516
 11
18.5155
 21
200.875
  0
LINE
  8
0
 10
18.5155
 20
200.875
 11
18.75
 21
200
  0
LINE
  8
0
 10
18.75
 20
200
 11
18.5155
 21
199.125
  0
LINE
  8
0
 10
18.5155
 20
199.125
 11
17.875
 21
198.484
  0
LINE
  8
0
 10
17.875
 20
198.484
 11
17
 21
198.25
  0
LINE
  8
0
 10
17
 20
198.25
 11
16.125
 21
198.484
  0
LINE
  8
0
 10
242.125
 20
184.484
 11
241.484
 21
185.125
  0
LINE
  8
0
 10
241.484
 20
185.125
 11
241.25
 21
186
  0
LINE
  8
0
 10
241.25
 20
186
 11
241.484
 21
186.875
  0
LINE
  8
0
 10
241.484
 20
186.875
 11
242.125
 21
187.516
  0
LINE
  8
0
 10
242.125
 20
187.516
 11
243
 21
187.75
  0
LINE
  8
0
 10
243
 20
187.75
 11
243.875
 21
187.516
  0
LINE
  8
0
 10
243.875
 20
187.516
 11
244.516
 21
186.875
  0
LINE
  8
0
 10
244.516
 20
186.875
 11
244.75
 21
186
  0
LINE
  8
0
 10
244.75
 20
186
 11
244.516
 21
185.125
  0
LINE
  8
0
 10
244.516
 20
185.125
 11
243.875
 21
184.484
  0
LINE
  8
0
 10
243.875
 20
184.484
 11
243
 21
184.25
  0
LINE
  8
0
 10
243
 20
184.25
 11
242.125
 21
184.484
  0
LINE
  8
0
 10
180.125
 20
184.484
 11
179.484
 21
185.125
  0
LINE
  8
0
 10
179.484
 20
185.125
 11
179.25
 21
186
  0
LINE
  8
0
 10
179.25
 20
186
 11
179.484
 21
186.875
  0
LINE
  8
0
 10
179.484
 20
186.875
 11
180.125
 21
187.516
  0
LINE
  8
0
 10
180.125
 20
187.516
 11
181
 21
187.75
  0
LINE
  8
0
 10
181
 20
187.75
 11
181.875
 21
187.516
  0
LINE
  8
0
 10
181.875
 20
187.516
 11
182.516
 21
186.875
  0
LINE
  8
0
 10
182.516
 20
186.875
 11
182.75
 21
186
  0
LINE
  8
0
 10
182.75
 20
186
 11
182.516
 21
185.125
  0
LINE
  8
0
 10
182.516
 20
185.125
 11
181.875
 21
184.484
  0
LINE
  8
0
 10
181.875
 20
184.484
 11
181
 21
184.25
  0
LINE
  8
0
 10
181
 20
184.25
 11
180.125
 21
184.484
  0
LINE
  8
0
 10
162
 20
165
 11
162
 21
179
  0
LINE
  8
0
 10
162
 20
179
 11
176
 21
179
  0
LINE
  8
0
 10
176
 20
179
 11
176
 21
165
  0
LINE
  8
0
 10
176
 20
165
 11
162
 21
165
  0
LINE
  8
0
 10
224
 20
165
 11
224
 21
179
  0
LINE
  8
0
 10
224
 20
179
 11
238
 21
179
  0
LINE
  8
0
 10
238
 20
179
 11
238
 21
165
  0
LINE
  8
0
 10
238
 20
165
 11
224
 21
165
  0
LINE
  8
0
 10
205
 20
165
 11
205
 21
179
  0
LINE
  8
0
 10
205
 20
179
 11
219
 21
179
  0
LINE
  8
0
 10
219
 20
179
 11
219
 21
165
  0
LINE
  8
0
 10
219
 20
165
 11
205
 21
165
  0
LINE
  8
0
 10
186
 20
165
 11
186
 21
179
  0
LINE
  8
0
 10
186
 20
179
 11
200
 21
179
  0
LINE
  8
0
 10
200
 20
179
 11
200
 21
165
  0
LINE
  8
0
 10
200
 20
165
 11
186
 21
165
  0
LINE
  8
0
 10
48
 20
165
 11
48
 21
179
  0
LINE
  8
0
 10
48
 20
179
 11
62
 21
179
  0
LINE
  8
0
 10
62
 20
179
 11
62
 21
165
  0
LINE
  8
0
 10
62
 20
165
 11
48
 21
165
  0
LINE
  8
0
 10
286
 20
165
 11
286
 21
179
  0
LINE
  8
0
 10
286
 20
179
 11
300
 21
179
  0
LINE
  8
0
 10
300
 20
179
 11
300
 21
165
  0
LINE
  8
0
 10
300
 20
165
 11
286
 21
165
  0
LINE
  8
0
 10
267
 20
165
 11
267
 21
179
  0
LINE
  8
0
 10
267
 20
179
 11
281
 21
179
  0
LINE
  8
0
 10
281
 20
179
 11
281
 21
165
  0
LINE
  8
0
 10
281
 20
165
 11
267
 21
165
  0
LINE
  8
0
 10
143
 20
165
 11
143
 21
179
  0
LINE
  8
0
 10
143
 20
179
 11
157
 21
179
  0
LINE
  8
0
 10
157
 20
179
 11
157
 21
165
  0
LINE
  8
0
 10
157
 20
165
 11
143
 21
165
  0
LINE
  8
0
 10
124
 20
165
 11
124
 21
179
  0
LINE
  8
0
 10
124
 20
179
 11
138
 21
179
  0
LINE
  8
0
 10
138
 20
179
 11
138
 21
165
  0
LINE
  8
0
 10
138
 20
165
 11
124
 21
165
  0
LINE
  8
0
 10
86
 20
165
 11
86
 21
179
  0
LINE
  8
0
 10
86
 20
179
 11
100
 21
179
  0
LINE
  8
0
 10
100
 20
179
 11
100
 21
165
  0
LINE
  8
0
 10
100
 20
165
 11
86
 21
165
  0
LINE
  8
0
 10
67
 20
165
 11
67
 21
179
  0
LINE
  8
0
 10
67
 20
179
 11
81
 21
179
  0
LINE
  8
0
 10
81
 20
179
 11
81
 21
165
  0
LINE
  8
0
 10
81
 20
165
 11
67
 21
165
  0
LINE
  8
0
 10
305
 20
165
 11
305
 21
179
  0
LINE
  8
0
 10
305
 20
179
 11
319
 21
179
  0
LINE
  8
0
 10
319
 20
179
 11
319
 21
165
  0
LINE
  8
0
 10
319
 20
165
 11
305
 21
165
  0
LINE
  8
0
 10
119
 20
165
 11
105
 21
165
  0
LINE
  8
0
 10
105
 20
165
 11
105
 21
179
  0
LINE
  8
0
 10
105
 20
179
 11
119
 21
179
  0
LINE
  8
0
 10
119
 20
179
 11
119
 21
165
  0
LINE
  8
0
 10
262
 20
165
 11
248
 21
165
  0
LINE
  8
0
 10
248
 20
165
 11
248
 21
179
  0
LINE
  8
0
 10
248
 20
179
 11
262
 21
179
  0
LINE
  8
0
 10
262
 20
179
 11
262
 21
165
  0
LINE
  8
0
 10
35.125
 20
170.484
 11
34.4845
 21
171.125
  0
LINE
  8
0
 10
34.4845
 20
171.125
 11
34.25
 21
172
  0
LINE
  8
0
 10
34.25
 20
172
 11
34.4845
 21
172.875
  0
LINE
  8
0
 10
34.4845
 20
172.875
 11
35.125
 21
173.516
  0
LINE
  8
0
 10
35.125
 20
173.516
 11
36
 21
173.75
  0
LINE
  8
0
 10
36
 20
173.75
 11
36.875
 21
173.516
  0
LINE
  8
0
 10
36.875
 20
173.516
 11
37.5155
 21
172.875
  0
LINE
  8
0
 10
37.5155
 20
172.875
 11
37.75
 21
172
  0
LINE
  8
0
 10
37.75
 20
172
 11
37.5155
 21
171.125
  0
LINE
  8
0
 10
37.5155
 20
171.125
 11
36.875
 21
170.484
  0
LINE
  8
0
 10
36.875
 20
170.484
 11
36
 21
170.25
  0
LINE
  8
0
 10
36
 20
170.25
 11
35.125
 21
170.484
  0
LINE
  8
0
 10
2.625
 20
156.984
 11
1.98445
 21
157.625
  0
LINE
  8
0
 10
1.98445
 20
157.625
 11
1.75
 21
158.5
  0
LINE
  8
0
 10
1.75
 20
158.5
 11
1.98445
 21
159.375
  0
LINE
  8
0
 10
1.98445
 20
159.375
 11
2.625
 21
160.016
  0
LINE
  8
0
 10
2.625
 20
160.016
 11
3.5
 21
160.25
  0
LINE
  8
0
 10
3.5
 20
160.25
 11
4.375
 21
160.016
  0
LINE
  8
0
 10
4.375
 20
160.016
 11
5.01553
 21
159.375
  0
LINE
  8
0
 10
5.01553
 20
159.375
 11
5.25
 21
158.5
  0
LINE
  8
0
 10
5.25
 20
158.5
 11
5.01553
 21
157.625
  0
LINE
  8
0
 10
5.01553
 20
157.625
 11
4.375
 21
156.984
  0
LINE
  8
0
 10
4.375
 20
156.984
 11
3.5
 21
156.75
  0
LINE
  8
0
 10
3.5
 20
156.75
 11
2.625
 21
156.984
  0
LINE
  8
0
 10
336.625
 20
156.984
 11
335.984
 21
157.625
  0
LINE
  8
0
 10
335.984
 20
157.625
 11
335.75
 21
158.5
  0
LINE
  8
0
 10
335.75
 20
158.5
 11
335.984
 21
159.375
  0
LINE
  8
0
 10
335.984
 20
159.375
 11
336.625
 21
160.016
  0
LINE
  8
0
 10
336.625
 20
160.016
 11
337.5
 21
160.25
  0
LINE
  8
0
 10
337.5
 20
160.25
 11
338.375
 21
160.016
  0
LINE
  8
0
 10
338.375
 20
160.016
 11
339.016
 21
159.375
  0
LINE
  8
0
 10
339.016
 20
159.375
 11
339.25
 21
158.5
  0
LINE
  8
0
 10
339.25
 20
158.5
 11
339.016
 21
157.625
  0
LINE
  8
0
 10
339.016
 20
157.625
 11
338.375
 21
156.984
  0
LINE
  8
0
 10
338.375
 20
156.984
 11
337.5
 21
156.75
  0
LINE
  8
0
 10
337.5
 20
156.75
 11
336.625
 21
156.984
  0
LINE
  8
0
 10
242.125
 20
156.984
 11
241.484
 21
157.625
  0
LINE
  8
0
 10
241.484
 20
157.625
 11
241.25
 21
158.5
  0
LINE
  8
0
 10
241.25
 20
158.5
 11
241.484
 21
159.375
  0
LINE
  8
0
 10
241.484
 20
159.375
 11
242.125
 21
160.016
  0
LINE
  8
0
 10
242.125
 20
160.016
 11
243
 21
160.25
  0
LINE
  8
0
 10
243
 20
160.25
 11
243.875
 21
160.016
  0
LINE
  8
0
 10
243.875
 20
160.016
 11
244.516
 21
159.375
  0
LINE
  8
0
 10
244.516
 20
159.375
 11
244.75
 21
158.5
  0
LINE
  8
0
 10
244.75
 20
158.5
 11
244.516
 21
157.625
  0
LINE
  8
0
 10
244.516
 20
157.625
 11
243.875
 21
156.984
  0
LINE
  8
0
 10
243.875
 20
156.984
 11
243
 21
156.75
  0
LINE
  8
0
 10
243
 20
156.75
 11
242.125
 21
156.984
  0
LINE
  8
0
 10
180.125
 20
156.984
 11
179.484
 21
157.625
  0
LINE
  8
0
 10
179.484
 20
157.625
 11
179.25
 21
158.5
  0
LINE
  8
0
 10
179.25
 20
158.5
 11
179.484
 21
159.375
  0
LINE
  8
0
 10
179.484
 20
159.375
 11
180.125
 21
160.016
  0
LINE
  8
0
 10
180.125
 20
160.016
 11
181
 21
160.25
  0
LINE
  8
0
 10
181
 20
160.25
 11
181.875
 21
160.016
  0
LINE
  8
0
 10
181.875
 20
160.016
 11
182.516
 21
159.375
  0
LINE
  8
0
 10
182.516
 20
159.375
 11
182.75
 21
158.5
  0
LINE
  8
0
 10
182.75
 20
158.5
 11
182.516
 21
157.625
  0
LINE
  8
0
 10
182.516
 20
157.625
 11
181.875
 21
156.984
  0
LINE
  8
0
 10
181.875
 20
156.984
 11
181
 21
156.75
  0
LINE
  8
0
 10
181
 20
156.75
 11
180.125
 21
156.984
  0
LINE
  8
0
 10
281
 20
264
 11
281
 21
250
  0
LINE
  8
0
 10
281
 20
250
 11
267
 21
250
  0
LINE
  8
0
 10
267
 20
250
 11
267
 21
264
  0
LINE
  8
0
 10
267
 20
264
 11
281
 21
264
  0
LINE
  8
0
 10
119
 20
207
 11
119
 21
193
  0
LINE
  8
0
 10
119
 20
193
 11
105
 21
193
  0
LINE
  8
0
 10
105
 20
193
 11
105
 21
207
  0
LINE
  8
0
 10
105
 20
207
 11
119
 21
207
  0
LINE
  8
0
 10
86
 20
207
 11
100
 21
207
  0
LINE
  8
0
 10
100
 20
207
 11
100
 21
193
  0
LINE
  8
0
 10
100
 20
193
 11
86
 21
193
  0
LINE
  8
0
 10
86
 20
193
 11
86
 21
207
  0
LINE
  8
0
 10
67
 20
207
 11
81
 21
207
  0
LINE
  8
0
 10
81
 20
207
 11
81
 21
193
  0
LINE
  8
0
 10
81
 20
193
 11
67
 21
193
  0
LINE
  8
0
 10
67
 20
193
 11
67
 21
207
  0
LINE
  8
0
 10
541.5
 20
152
 11
358
 21
152
  0
LINE
  8
0
 10
358
 20
152
 11
358
 21
79
  0
LINE
  8
0
 10
358
 20
79
 11
366
 21
79
  0
LINE
  8
0
 10
366
 20
79
 11
366
 21
24
  0
LINE
  8
0
 10
366
 20
24
 11
358
 21
24
  0
LINE
  8
0
 10
358
 20
24
 11
358
 21
0
  0
LINE
  8
0
 10
358
 20
0
 11
541.5
 21
0
  0
LINE
  8
0
 10
541.5
 20
0
 11
541.5
 21
152
  0
LINE
  8
0
 10
527.5
 20
146
 11
527.5
 21
149
  0
LINE
  8
0
 10
527.5
 20
149
 11
532.5
 21
149
  0
LINE
  8
0
 10
532.5
 20
149
 11
532.5
 21
146
  0
LINE
  8
0
 10
532.5
 20
146
 11
527.5
 21
146
  0
LINE
  8
0
 10
367
 20
146
 11
367
 21
149
  0
LINE
  8
0
 10
367
 20
149
 11
372
 21
149
  0
LINE
  8
0
 10
372
 20
149
 11
372
 21
146
  0
LINE
  8
0
 10
372
 20
146
 11
367
 21
146
  0
LINE
  8
0
 10
361
 20
138
 11
361
 21
143
  0
LINE
  8
0
 10
361
 20
143
 11
364
 21
143
  0
LINE
  8
0
 10
364
 20
143
 11
364
 21
138
  0
LINE
  8
0
 10
364
 20
138
 11
361
 21
138
  0
LINE
  8
0
 10
535.5
 20
138
 11
535.5
 21
143
  0
LINE
  8
0
 10
535.5
 20
143
 11
538.5
 21
143
  0
LINE
  8
0
 10
538.5
 20
143
 11
538.5
 21
138
  0
LINE
  8
0
 10
538.5
 20
138
 11
535.5
 21
138
  0
LINE
  8
0
 10
530.4
 20
140.461
 11
529.961
 21
140.9
  0
LINE
  8
0
 10
529.961
 20
140.9
 11
529.8
 21
141.5
  0
LINE
  8
0
 10
529.8
 20
141.5
 11
529.961
 21
142.1
  0
LINE
  8
0
 10
529.961
 20
142.1
 11
530.4
 21
142.539
  0
LINE
  8
0
 10
530.4
 20
142.539
 11
531
 21
142.7
  0
LINE
  8
0
 10
531
 20
142.7
 11
531.6
 21
142.539
  0
LINE
  8
0
 10
531.6
 20
142.539
 11
532.039
 21
142.1
  0
LINE
  8
0
 10
532.039
 20
142.1
 11
532.2
 21
141.5
  0
LINE
  8
0
 10
532.2
 20
141.5
 11
532.039
 21
140.9
  0
LINE
  8
0
 10
532.039
 20
140.9
 11
531.6
 21
140.461
  0
LINE
  8
0
 10
531.6
 20
140.461
 11
531
 21
140.3
  0
LINE
  8
0
 10
531
 20
140.3
 11
530.4
 21
140.461
  0
LINE
  8
0
 10
367.9
 20
140.461
 11
367.461
 21
140.9
  0
LINE
  8
0
 10
367.461
 20
140.9
 11
367.3
 21
141.5
  0
LINE
  8
0
 10
367.3
 20
141.5
 11
367.461
 21
142.1
  0
LINE
  8
0
 10
367.461
 20
142.1
 11
367.9
 21
142.539
  0
LINE
  8
0
 10
367.9
 20
142.539
 11
368.5
 21
142.7
  0
LINE
  8
0
 10
368.5
 20
142.7
 11
369.1
 21
142.539
  0
LINE
  8
0
 10
369.1
 20
142.539
 11
369.539
 21
142.1
  0
LINE
  8
0
 10
369.539
 20
142.1
 11
369.7
 21
141.5
  0
LINE
  8
0
 10
369.7
 20
141.5
 11
369.539
 21
140.9
  0
LINE
  8
0
 10
369.539
 20
140.9
 11
369.1
 21
140.461
  0
LINE
  8
0
 10
369.1
 20
140.461
 11
368.5
 21
140.3
  0
LINE
  8
0
 10
368.5
 20
140.3
 11
367.9
 21
140.461
  0
LINE
  8
0
 10
384
 20
42
 11
384
 21
81
  0
LINE
  8
0
 10
384
 20
81
 11
417.25
 21
81
  0
LINE
  8
0
 10
417.25
 20
81
 11
417.25
 21
99
  0
LINE
  8
0
 10
417.25
 20
99
 11
384
 21
99
  0
LINE
  8
0
 10
384
 20
99
 11
384
 21
138
  0
LINE
  8
0
 10
384
 20
138
 11
527.5
 21
138
  0
LINE
  8
0
 10
527.5
 20
138
 11
527.5
 21
118
  0
LINE
  8
0
 10
527.5
 20
118
 11
522.75
 21
118
  0
LINE
  8
0
 10
522.75
 20
118
 11
522.75
 21
99
  0
LINE
  8
0
 10
522.75
 20
99
 11
513.25
 21
99
  0
LINE
  8
0
 10
513.25
 20
99
 11
513.25
 21
80
  0
LINE
  8
0
 10
513.25
 20
80
 11
508.5
 21
80
  0
LINE
  8
0
 10
508.5
 20
80
 11
508.5
 21
62
  0
LINE
  8
0
 10
508.5
 20
62
 11
518
 21
62
  0
LINE
  8
0
 10
518
 20
62
 11
518
 21
42
  0
LINE
  8
0
 10
518
 20
42
 11
384
 21
42
  0
LINE
  8
0
 10
400.525
 20
88.9608
 11
400.086
 21
89.4
  0
LINE
  8
0
 10
400.086
 20
89.4
 11
399.925
 21
90
  0
LINE
  8
0
 10
399.925
 20
90
 11
400.086
 21
90.6
  0
LINE
  8
0
 10
400.086
 20
90.6
 11
400.525
 21
91.0392
  0
LINE
  8
0
 10
400.525
 20
91.0392
 11
401.125
 21
91.2
  0
LINE
  8
0
 10
401.125
 20
91.2
 11
401.725
 21
91.0392
  0
LINE
  8
0
 10
401.725
 20
91.0392
 11
402.164
 21
90.6
  0
LINE
  8
0
 10
402.164
 20
90.6
 11
402.325
 21
90
  0
LINE
  8
0
 10
402.325
 20
90
 11
402.164
 21
89.4
  0
LINE
  8
0
 10
402.164
 20
89.4
 11
401.725
 21
88.9608
  0
LINE
  8
0
 10
401.725
 20
88.9608
 11
401.125
 21
88.8
  0
LINE
  8
0
 10
401.125
 20
88.8
 11
400.525
 21
88.9608
  0
LINE
  8
0
 10
516.9
 20
69.9608
 11
516.461
 21
70.4
  0
LINE
  8
0
 10
516.461
 20
70.4
 11
516.3
 21
71
  0
LINE
  8
0
 10
516.3
 20
71
 11
516.461
 21
71.6
  0
LINE
  8
0
 10
516.461
 20
71.6
 11
516.9
 21
72.0392
  0
LINE
  8
0
 10
516.9
 20
72.0392
 11
517.5
 21
72.2
  0
LINE
  8
0
 10
517.5
 20
72.2
 11
518.1
 21
72.0392
  0
LINE
  8
0
 10
518.1
 20
72.0392
 11
518.539
 21
71.6
  0
LINE
  8
0
 10
518.539
 20
71.6
 11
518.7
 21
71
  0
LINE
  8
0
 10
518.7
 20
71
 11
518.539
 21
70.4
  0
LINE
  8
0
 10
518.539
 20
70.4
 11
518.1
 21
69.9608
  0
LINE
  8
0
 10
518.1
 20
69.9608
 11
517.5
 21
69.8
  0
LINE
  8
0
 10
517.5
 20
69.8
 11
516.9
 21
69.9608
  0
LINE
  8
0
 10
384
 20
14
 11
384
 21
34
  0
LINE
  8
0
 10
384
 20
34
 11
404
 21
34
  0
LINE
  8
0
 10
404
 20
34
 11
404
 21
14
  0
LINE
  8
0
 10
404
 20
14
 11
384
 21
14
  0
LINE
  8
0
 10
422
 20
14
 11
422
 21
34
  0
LINE
  8
0
 10
422
 20
34
 11
518
 21
34
  0
LINE
  8
0
 10
518
 20
34
 11
518
 21
14
  0
LINE
  8
0
 10
518
 20
14
 11
422
 21
14
  0
LINE
  8
0
 10
412.4
 20
22.9608
 11
411.961
 21
23.4
  0
LINE
  8
0
 10
411.961
 20
23.4
 11
411.8
 21
24
  0
LINE
  8
0
 10
411.8
 20
24
 11
411.961
 21
24.6
  0
LINE
  8
0
 10
411.961
 20
24.6
 11
412.4
 21
25.0392
  0
LINE
  8
0
 10
412.4
 20
25.0392
 11
413
 21
25.2
  0
LINE
  8
0
 10
413
 20
25.2
 11
413.6
 21
25.0392
  0
LINE
  8
0
 10
413.6
 20
25.0392
 11
414.039
 21
24.6
  0
LINE
  8
0
 10
414.039
 20
24.6
 11
414.2
 21
24
  0
LINE
  8
0
 10
414.2
 20
24
 11
414.039
 21
23.4
  0
LINE
  8
0
 10
414.039
 20
23.4
 11
413.6
 21
22.9608
  0
LINE
  8
0
 10
413.6
 20
22.9608
 11
413
 21
22.8
  0
LINE
  8
0
 10
413
 20
22.8
 11
412.4
 21
22.9608
  0
LINE
  8
0
 10
535.5
 20
9
 11
535.5
 21
14
  0
LINE
  8
0
 10
535.5
 20
14
 11
538.5
 21
14
  0
LINE
  8
0
 10
538.5
 20
14
 11
538.5
 21
9
  0
LINE
  8
0
 10
538.5
 20
9
 11
535.5
 21
9
  0
LINE
  8
0
 10
361
 20
9
 11
361
 21
14
  0
LINE
  8
0
 10
361
 20
14
 11
364
 21
14
  0
LINE
  8
0
 10
364
 20
14
 11
364
 21
9
  0
LINE
  8
0
 10
364
 20
9
 11
361
 21
9
  0
LINE
  8
0
 10
367.9
 20
9.46075
 11
367.461
 21
9.89999
  0
LINE
  8
0
 10
367.461
 20
9.89999
 11
367.3
 21
10.5
  0
LINE
  8
0
 10
367.3
 20
10.5
 11
367.461
 21
11.1
  0
LINE
  8
0
 10
367.461
 20
11.1
 11
367.9
 21
11.5392
  0
LINE
  8
0
 10
367.9
 20
11.5392
 11
368.5
 21
11.7
  0
LINE
  8
0
 10
368.5
 20
11.7
 11
369.1
 21
11.5392
  0
LINE
  8
0
 10
369.1
 20
11.5392
 11
369.539
 21
11.1
  0
LINE
  8
0
 10
369.539
 20
11.1
 11
369.7
 21
10.5
  0
LINE
  8
0
 10
369.7
 20
10.5
 11
369.539
 21
9.89999
  0
LINE
  8
0
 10
369.539
 20
9.89999
 11
369.1
 21
9.46075
  0
LINE
  8
0
 10
369.1
 20
9.46075
 11
368.5
 21
9.29999
  0
LINE
  8
0
 10
368.5
 20
9.29999
 11
367.9
 21
9.46075
  0
LINE
  8
0
 10
530.4
 20
9.46075
 11
529.961
 21
9.89999
  0
LINE
  8
0
 10
529.961
 20
9.89999
 11
529.8
 21
10.5
  0
LINE
  8
0
 10
529.8
 20
10.5
 11
529.961
 21
11.1
  0
LINE
  8
0
 10
529.961
 20
11.1
 11
530.4
 21
11.5392
  0
LINE
  8
0
 10
530.4
 20
11.5392
 11
531
 21
11.7
  0
LINE
  8
0
 10
531
 20
11.7
 11
531.6
 21
11.5392
  0
LINE
  8
0
 10
531.6
 20
11.5392
 11
532.039
 21
11.1
  0
LINE
  8
0
 10
532.039
 20
11.1
 11
532.2
 21
10.5
  0
LINE
  8
0
 10
532.2
 20
10.5
 11
532.039
 21
9.89999
  0
LINE
  8
0
 10
532.039
 20
9.89999
 11
531.6
 21
9.46075
  0
LINE
  8
0
 10
531.6
 20
9.46075
 11
531
 21
9.29999
  0
LINE
  8
0
 10
531
 20
9.29999
 11
530.4
 21
9.46075
  0
LINE
  8
0
 10
527.5
 20
3
 11
527.5
 21
6
  0
LINE
  8
0
 10
527.5
 20
6
 11
532.5
 21
6
  0
LINE
  8
0
 10
532.5
 20
6
 11
532.5
 21
3
  0
LINE
  8
0
 10
532.5
 20
3
 11
527.5
 21
3
  0
LINE
  8
0
 10
367
 20
3
 11
367
 21
6
  0
LINE
  8
0
 10
367
 20
6
 11
372
 21
6
  0
LINE
  8
0
 10
372
 20
6
 11
372
 21
3
  0
LINE
  8
0
 10
372
 20
3
 11
367
 21
3
  0
LINE
  8
0
 10
355
 20
24
 11
347
 21
24
  0
LINE
  8
0
 10
347
 20
24
 11
347
 21
79
  0
LINE
  8
0
 10
347
 20
79
 11
355
 21
79
  0
LINE
  8
0
 10
355
 20
79
 11
355
 21
152
  0
LINE
  8
0
 10
355
 20
152
 11
0
 21
152
  0
LINE
  8
0
 10
0
 20
152
 11
0
 21
0
  0
LINE
  8
0
 10
0
 20
0
 11
355
 21
0
  0
LINE
  8
0
 10
355
 20
0
 11
355
 21
24
  0
LINE
  8
0
 10
341
 20
146
 11
341
 21
149
  0
LINE
  8
0
 10
341
 20
149
 11
346
 21
149
  0
LINE
  8
0
 10
346
 20
149
 11
346
 21
146
  0
LINE
  8
0
 10
346
 20
146
 11
341
 21
146
  0
LINE
  8
0
 10
247.5
 20
146
 11
247.5
 21
149
  0
LINE
  8
0
 10
247.5
 20
149
 11
252.5
 21
149
  0
LINE
  8
0
 10
252.5
 20
149
 11
252.5
 21
146
  0
LINE
  8
0
 10
252.5
 20
146
 11
247.5
 21
146
  0
LINE
  8
0
 10
9
 20
146
 11
9
 21
149
  0
LINE
  8
0
 10
9
 20
149
 11
14
 21
149
  0
LINE
  8
0
 10
14
 20
149
 11
14
 21
146
  0
LINE
  8
0
 10
14
 20
146
 11
9
 21
146
  0
LINE
  8
0
 10
185.5
 20
146
 11
185.5
 21
149
  0
LINE
  8
0
 10
185.5
 20
149
 11
190.5
 21
149
  0
LINE
  8
0
 10
190.5
 20
149
 11
190.5
 21
146
  0
LINE
  8
0
 10
190.5
 20
146
 11
185.5
 21
146
  0
LINE
  8
0
 10
349
 20
138
 11
349
 21
143
  0
LINE
  8
0
 10
349
 20
143
 11
352
 21
143
  0
LINE
  8
0
 10
352
 20
143
 11
352
 21
138
  0
LINE
  8
0
 10
352
 20
138
 11
349
 21
138
  0
LINE
  8
0
 10
3
 20
138
 11
3
 21
143
  0
LINE
  8
0
 10
3
 20
143
 11
6
 21
143
  0
LINE
  8
0
 10
6
 20
143
 11
6
 21
138
  0
LINE
  8
0
 10
6
 20
138
 11
3
 21
138
  0
LINE
  8
0
 10
249.4
 20
140.461
 11
248.961
 21
140.9
  0
LINE
  8
0
 10
248.961
 20
140.9
 11
248.8
 21
141.5
  0
LINE
  8
0
 10
248.8
 20
141.5
 11
248.961
 21
142.1
  0
LINE
  8
0
 10
248.961
 20
142.1
 11
249.4
 21
142.539
  0
LINE
  8
0
 10
249.4
 20
142.539
 11
250
 21
142.7
  0
LINE
  8
0
 10
250
 20
142.7
 11
250.6
 21
142.539
  0
LINE
  8
0
 10
250.6
 20
142.539
 11
251.039
 21
142.1
  0
LINE
  8
0
 10
251.039
 20
142.1
 11
251.2
 21
141.5
  0
LINE
  8
0
 10
251.2
 20
141.5
 11
251.039
 21
140.9
  0
LINE
  8
0
 10
251.039
 20
140.9
 11
250.6
 21
140.461
  0
LINE
  8
0
 10
250.6
 20
140.461
 11
250
 21
140.3
  0
LINE
  8
0
 10
250
 20
140.3
 11
249.4
 21
140.461
  0
LINE
  8
0
 10
343.9
 20
140.461
 11
343.461
 21
140.9
  0
LINE
  8
0
 10
343.461
 20
140.9
 11
343.3
 21
141.5
  0
LINE
  8
0
 10
343.3
 20
141.5
 11
343.461
 21
142.1
  0
LINE
  8
0
 10
343.461
 20
142.1
 11
343.9
 21
142.539
  0
LINE
  8
0
 10
343.9
 20
142.539
 11
344.5
 21
142.7
  0
LINE
  8
0
 10
344.5
 20
142.7
 11
345.1
 21
142.539
  0
LINE
  8
0
 10
345.1
 20
142.539
 11
345.539
 21
142.1
  0
LINE
  8
0
 10
345.539
 20
142.1
 11
345.7
 21
141.5
  0
LINE
  8
0
 10
345.7
 20
141.5
 11
345.539
 21
140.9
  0
LINE
  8
0
 10
345.539
 20
140.9
 11
345.1
 21
140.461
  0
LINE
  8
0
 10
345.1
 20
140.461
 11
344.5
 21
140.3
  0
LINE
  8
0
 10
344.5
 20
140.3
 11
343.9
 21
140.461
  0
LINE
  8
0
 10
9.89999
 20
140.461
 11
9.46075
 21
140.9
  0
LINE
  8
0
 10
9.46075
 20
140.9
 11
9.29999
 21
141.5
  0
LINE
  8
0
 10
9.29999
 20
141.5
 11
9.46075
 21
142.1
  0
LINE
  8
0
 10
9.46075
 20
142.1
 11
9.89999
 21
142.539
  0
LINE
  8
0
 10
9.89999
 20
142.539
 11
10.5
 21
142.7
  0
LINE
  8
0
 10
10.5
 20
142.7
 11
11.1
 21
142.539
  0
LINE
  8
0
 10
11.1
 20
142.539
 11
11.5392
 21
142.1
  0
LINE
  8
0
 10
11.5392
 20
142.1
 11
11.7
 21
141.5
  0
LINE
  8
0
 10
11.7
 20
141.5
 11
11.5392
 21
140.9
  0
LINE
  8
0
 10
11.5392
 20
140.9
 11
11.1
 21
140.461
  0
LINE
  8
0
 10
11.1
 20
140.461
 11
10.5
 21
140.3
  0
LINE
  8
0
 10
10.5
 20
140.3
 11
9.89999
 21
140.461
  0
LINE
  8
0
 10
187.4
 20
140.461
 11
186.961
 21
140.9
  0
LINE
  8
0
 10
186.961
 20
140.9
 11
186.8
 21
141.5
  0
LINE
  8
0
 10
186.8
 20
141.5
 11
186.961
 21
142.1
  0
LINE
  8
0
 10
186.961
 20
142.1
 11
187.4
 21
142.539
  0
LINE
  8
0
 10
187.4
 20
142.539
 11
188
 21
142.7
  0
LINE
  8
0
 10
188
 20
142.7
 11
188.6
 21
142.539
  0
LINE
  8
0
 10
188.6
 20
142.539
 11
189.039
 21
142.1
  0
LINE
  8
0
 10
189.039
 20
142.1
 11
189.2
 21
141.5
  0
LINE
  8
0
 10
189.2
 20
141.5
 11
189.039
 21
140.9
  0
LINE
  8
0
 10
189.039
 20
140.9
 11
188.6
 21
140.461
  0
LINE
  8
0
 10
188.6
 20
140.461
 11
188
 21
140.3
  0
LINE
  8
0
 10
188
 20
140.3
 11
187.4
 21
140.461
  0
LINE
  8
0
 10
33
 20
42
 11
33
 21
61
  0
LINE
  8
0
 10
33
 20
61
 11
23.5
 21
61
  0
LINE
  8
0
 10
23.5
 20
61
 11
23.5
 21
81
  0
LINE
  8
0
 10
23.5
 20
81
 11
28.25
 21
81
  0
LINE
  8
0
 10
28.25
 20
81
 11
28.25
 21
100
  0
LINE
  8
0
 10
28.25
 20
100
 11
37.75
 21
100
  0
LINE
  8
0
 10
37.75
 20
100
 11
37.75
 21
118
  0
LINE
  8
0
 10
37.75
 20
118
 11
14
 21
118
  0
LINE
  8
0
 10
14
 20
118
 11
14
 21
138
  0
LINE
  8
0
 10
14
 20
138
 11
186
 21
138
  0
LINE
  8
0
 10
186
 20
138
 11
186
 21
42
  0
LINE
  8
0
 10
186
 20
42
 11
33
 21
42
  0
LINE
  8
0
 10
96.5
 20
65
 11
151.5
 21
65
  0
LINE
  8
0
 10
151.5
 20
65
 11
151.5
 21
57
  0
LINE
  8
0
 10
151.5
 20
57
 11
175.5
 21
57
  0
LINE
  8
0
 10
175.5
 20
57
 11
175.5
 21
124
  0
LINE
  8
0
 10
175.5
 20
124
 11
151.5
 21
124
  0
LINE
  8
0
 10
151.5
 20
124
 11
151.5
 21
116
  0
LINE
  8
0
 10
151.5
 20
116
 11
96.5
 21
116
  0
LINE
  8
0
 10
96.5
 20
116
 11
96.5
 21
124
  0
LINE
  8
0
 10
96.5
 20
124
 11
45
 21
124
  0
LINE
  8
0
 10
45
 20
124
 11
45
 21
57
  0
LINE
  8
0
 10
45
 20
57
 11
96.5
 21
57
  0
LINE
  8
0
 10
96.5
 20
57
 11
96.5
 21
65
  0
LINE
  8
0
 10
54
 20
118
 11
54
 21
121
  0
LINE
  8
0
 10
54
 20
121
 11
59
 21
121
  0
LINE
  8
0
 10
59
 20
121
 11
59
 21
118
  0
LINE
  8
0
 10
59
 20
118
 11
54
 21
118
  0
LINE
  8
0
 10
161.5
 20
118
 11
161.5
 21
121
  0
LINE
  8
0
 10
161.5
 20
121
 11
166.5
 21
121
  0
LINE
  8
0
 10
166.5
 20
121
 11
166.5
 21
118
  0
LINE
  8
0
 10
166.5
 20
118
 11
161.5
 21
118
  0
LINE
  8
0
 10
169.5
 20
110
 11
169.5
 21
115
  0
LINE
  8
0
 10
169.5
 20
115
 11
172.5
 21
115
  0
LINE
  8
0
 10
172.5
 20
115
 11
172.5
 21
110
  0
LINE
  8
0
 10
172.5
 20
110
 11
169.5
 21
110
  0
LINE
  8
0
 10
48
 20
110
 11
48
 21
115
  0
LINE
  8
0
 10
48
 20
115
 11
51
 21
115
  0
LINE
  8
0
 10
51
 20
115
 11
51
 21
110
  0
LINE
  8
0
 10
51
 20
110
 11
48
 21
110
  0
LINE
  8
0
 10
54.9
 20
112.461
 11
54.4608
 21
112.9
  0
LINE
  8
0
 10
54.4608
 20
112.9
 11
54.3
 21
113.5
  0
LINE
  8
0
 10
54.3
 20
113.5
 11
54.4608
 21
114.1
  0
LINE
  8
0
 10
54.4608
 20
114.1
 11
54.9
 21
114.539
  0
LINE
  8
0
 10
54.9
 20
114.539
 11
55.5
 21
114.7
  0
LINE
  8
0
 10
55.5
 20
114.7
 11
56.1
 21
114.539
  0
LINE
  8
0
 10
56.1
 20
114.539
 11
56.5392
 21
114.1
  0
LINE
  8
0
 10
56.5392
 20
114.1
 11
56.7
 21
113.5
  0
LINE
  8
0
 10
56.7
 20
113.5
 11
56.5392
 21
112.9
  0
LINE
  8
0
 10
56.5392
 20
112.9
 11
56.1
 21
112.461
  0
LINE
  8
0
 10
56.1
 20
112.461
 11
55.5
 21
112.3
  0
LINE
  8
0
 10
55.5
 20
112.3
 11
54.9
 21
112.461
  0
LINE
  8
0
 10
164.4
 20
112.461
 11
163.961
 21
112.9
  0
LINE
  8
0
 10
163.961
 20
112.9
 11
163.8
 21
113.5
  0
LINE
  8
0
 10
163.8
 20
113.5
 11
163.961
 21
114.1
  0
LINE
  8
0
 10
163.961
 20
114.1
 11
164.4
 21
114.539
  0
LINE
  8
0
 10
164.4
 20
114.539
 11
165
 21
114.7
  0
LINE
  8
0
 10
165
 20
114.7
 11
165.6
 21
114.539
  0
LINE
  8
0
 10
165.6
 20
114.539
 11
166.039
 21
114.1
  0
LINE
  8
0
 10
166.039
 20
114.1
 11
166.2
 21
113.5
  0
LINE
  8
0
 10
166.2
 20
113.5
 11
166.039
 21
112.9
  0
LINE
  8
0
 10
166.039
 20
112.9
 11
165.6
 21
112.461
  0
LINE
  8
0
 10
165.6
 20
112.461
 11
165
 21
112.3
  0
LINE
  8
0
 10
165
 20
112.3
 11
164.4
 21
112.461
  0
LINE
  8
0
 10
85.75
 20
89.201
 11
85.201
 21
89.75
  0
LINE
  8
0
 10
85.201
 20
89.75
 11
85
 21
90.5
  0
LINE
  8
0
 10
85
 20
90.5
 11
85.201
 21
91.25
  0
LINE
  8
0
 10
85.201
 20
91.25
 11
85.75
 21
91.799
  0
LINE
  8
0
 10
85.75
 20
91.799
 11
86.5
 21
92
  0
LINE
  8
0
 10
86.5
 20
92
 11
87.25
 21
91.799
  0
LINE
  8
0
 10
87.25
 20
91.799
 11
87.799
 21
91.25
  0
LINE
  8
0
 10
87.799
 20
91.25
 11
88
 21
90.5
  0
LINE
  8
0
 10
88
 20
90.5
 11
87.799
 21
89.75
  0
LINE
  8
0
 10
87.799
 20
89.75
 11
87.25
 21
89.201
  0
LINE
  8
0
 10
87.25
 20
89.201
 11
86.5
 21
89
  0
LINE
  8
0
 10
86.5
 20
89
 11
85.75
 21
89.201
  0
LINE
  8
0
 10
169.5
 20
66
 11
169.5
 21
71
  0
LINE
  8
0
 10
169.5
 20
71
 11
172.5
 21
71
  0
LINE
  8
0
 10
172.5
 20
71
 11
172.5
 21
66
  0
LINE
  8
0
 10
172.5
 20
66
 11
169.5
 21
66
  0
LINE
  8
0
 10
48
 20
66
 11
48
 21
71
  0
LINE
  8
0
 10
48
 20
71
 11
51
 21
71
  0
LINE
  8
0
 10
51
 20
71
 11
51
 21
66
  0
LINE
  8
0
 10
51
 20
66
 11
48
 21
66
  0
LINE
  8
0
 10
54.9
 20
66.4608
 11
54.4608
 21
66.9
  0
LINE
  8
0
 10
54.4608
 20
66.9
 11
54.3
 21
67.5
  0
LINE
  8
0
 10
54.3
 20
67.5
 11
54.4608
 21
68.1
  0
LINE
  8
0
 10
54.4608
 20
68.1
 11
54.9
 21
68.5392
  0
LINE
  8
0
 10
54.9
 20
68.5392
 11
55.5
 21
68.7
  0
LINE
  8
0
 10
55.5
 20
68.7
 11
56.1
 21
68.5392
  0
LINE
  8
0
 10
56.1
 20
68.5392
 11
56.5392
 21
68.1
  0
LINE
  8
0
 10
56.5392
 20
68.1
 11
56.7
 21
67.5
  0
LINE
  8
0
 10
56.7
 20
67.5
 11
56.5392
 21
66.9
  0
LINE
  8
0
 10
56.5392
 20
66.9
 11
56.1
 21
66.4608
  0
LINE
  8
0
 10
56.1
 20
66.4608
 11
55.5
 21
66.3
  0
LINE
  8
0
 10
55.5
 20
66.3
 11
54.9
 21
66.4608
  0
LINE
  8
0
 10
164.4
 20
66.4608
 11
163.961
 21
66.9
  0
LINE
  8
0
 10
163.961
 20
66.9
 11
163.8
 21
67.5
  0
LINE
  8
0
 10
163.8
 20
67.5
 11
163.961
 21
68.1
  0
LINE
  8
0
 10
163.961
 20
68.1
 11
164.4
 21
68.5392
  0
LINE
  8
0
 10
164.4
 20
68.5392
 11
165
 21
68.7
  0
LINE
  8
0
 10
165
 20
68.7
 11
165.6
 21
68.5392
  0
LINE
  8
0
 10
165.6
 20
68.5392
 11
166.039
 21
68.1
  0
LINE
  8
0
 10
166.039
 20
68.1
 11
166.2
 21
67.5
  0
LINE
  8
0
 10
166.2
 20
67.5
 11
166.039
 21
66.9
  0
LINE
  8
0
 10
166.039
 20
66.9
 11
165.6
 21
66.4608
  0
LINE
  8
0
 10
165.6
 20
66.4608
 11
165
 21
66.3
  0
LINE
  8
0
 10
165
 20
66.3
 11
164.4
 21
66.4608
  0
LINE
  8
0
 10
161.5
 20
60
 11
161.5
 21
63
  0
LINE
  8
0
 10
161.5
 20
63
 11
166.5
 21
63
  0
LINE
  8
0
 10
166.5
 20
63
 11
166.5
 21
60
  0
LINE
  8
0
 10
166.5
 20
60
 11
161.5
 21
60
  0
LINE
  8
0
 10
54
 20
60
 11
54
 21
63
  0
LINE
  8
0
 10
54
 20
63
 11
59
 21
63
  0
LINE
  8
0
 10
59
 20
63
 11
59
 21
60
  0
LINE
  8
0
 10
59
 20
60
 11
54
 21
60
  0
LINE
  8
0
 10
209
 20
99
 11
209
 21
118
  0
LINE
  8
0
 10
209
 20
118
 11
190
 21
118
  0
LINE
  8
0
 10
190
 20
118
 11
190
 21
138
  0
LINE
  8
0
 10
190
 20
138
 11
248
 21
138
  0
LINE
  8
0
 10
248
 20
138
 11
248
 21
118
  0
LINE
  8
0
 10
248
 20
118
 11
229
 21
118
  0
LINE
  8
0
 10
229
 20
118
 11
229
 21
99
  0
LINE
  8
0
 10
229
 20
99
 11
209
 21
99
  0
LINE
  8
0
 10
252
 20
42
 11
252
 21
138
  0
LINE
  8
0
 10
252
 20
138
 11
329
 21
138
  0
LINE
  8
0
 10
329
 20
138
 11
329
 21
42
  0
LINE
  8
0
 10
329
 20
42
 11
252
 21
42
  0
LINE
  8
0
 10
28.15
 20
107.961
 11
27.7108
 21
108.4
  0
LINE
  8
0
 10
27.7108
 20
108.4
 11
27.55
 21
109
  0
LINE
  8
0
 10
27.55
 20
109
 11
27.7108
 21
109.6
  0
LINE
  8
0
 10
27.7108
 20
109.6
 11
28.15
 21
110.039
  0
LINE
  8
0
 10
28.15
 20
110.039
 11
28.75
 21
110.2
  0
LINE
  8
0
 10
28.75
 20
110.2
 11
29.35
 21
110.039
  0
LINE
  8
0
 10
29.35
 20
110.039
 11
29.7892
 21
109.6
  0
LINE
  8
0
 10
29.7892
 20
109.6
 11
29.95
 21
109
  0
LINE
  8
0
 10
29.95
 20
109
 11
29.7892
 21
108.4
  0
LINE
  8
0
 10
29.7892
 20
108.4
 11
29.35
 21
107.961
  0
LINE
  8
0
 10
29.35
 20
107.961
 11
28.75
 21
107.8
  0
LINE
  8
0
 10
28.75
 20
107.8
 11
28.15
 21
107.961
  0
LINE
  8
0
 10
249.4
 20
88.9608
 11
248.961
 21
89.4
  0
LINE
  8
0
 10
248.961
 20
89.4
 11
248.8
 21
90
  0
LINE
  8
0
 10
248.8
 20
90
 11
248.961
 21
90.6
  0
LINE
  8
0
 10
248.961
 20
90.6
 11
249.4
 21
91.0392
  0
LINE
  8
0
 10
249.4
 20
91.0392
 11
250
 21
91.2
  0
LINE
  8
0
 10
250
 20
91.2
 11
250.6
 21
91.0392
  0
LINE
  8
0
 10
250.6
 20
91.0392
 11
251.039
 21
90.6
  0
LINE
  8
0
 10
251.039
 20
90.6
 11
251.2
 21
90
  0
LINE
  8
0
 10
251.2
 20
90
 11
251.039
 21
89.4
  0
LINE
  8
0
 10
251.039
 20
89.4
 11
250.6
 21
88.9608
  0
LINE
  8
0
 10
250.6
 20
88.9608
 11
250
 21
88.8
  0
LINE
  8
0
 10
250
 20
88.8
 11
249.4
 21
88.9608
  0
LINE
  8
0
 10
187.4
 20
88.9608
 11
186.961
 21
89.4
  0
LINE
  8
0
 10
186.961
 20
89.4
 11
186.8
 21
90
  0
LINE
  8
0
 10
186.8
 20
90
 11
186.961
 21
90.6
  0
LINE
  8
0
 10
186.961
 20
90.6
 11
187.4
 21
91.0392
  0
LINE
  8
0
 10
187.4
 20
91.0392
 11
188
 21
91.2
  0
LINE
  8
0
 10
188
 20
91.2
 11
188.6
 21
91.0392
  0
LINE
  8
0
 10
188.6
 20
91.0392
 11
189.039
 21
90.6
  0
LINE
  8
0
 10
189.039
 20
90.6
 11
189.2
 21
90
  0
LINE
  8
0
 10
189.2
 20
90
 11
189.039
 21
89.4
  0
LINE
  8
0
 10
189.039
 20
89.4
 11
188.6
 21
88.9608
  0
LINE
  8
0
 10
188.6
 20
88.9608
 11
188
 21
88.8
  0
LINE
  8
0
 10
188
 20
88.8
 11
187.4
 21
88.9608
  0
LINE
  8
0
 10
190
 20
42
 11
190
 21
81
  0
LINE
  8
0
 10
190
 20
81
 11
248
 21
81
  0
LINE
  8
0
 10
248
 20
81
 11
248
 21
42
  0
LINE
  8
0
 10
248
 20
42
 11
190
 21
42
  0
LINE
  8
0
 10
23.4
 20
50.9608
 11
22.9608
 21
51.4
  0
LINE
  8
0
 10
22.9608
 20
51.4
 11
22.8
 21
52
  0
LINE
  8
0
 10
22.8
 20
52
 11
22.9608
 21
52.6
  0
LINE
  8
0
 10
22.9608
 20
52.6
 11
23.4
 21
53.0392
  0
LINE
  8
0
 10
23.4
 20
53.0392
 11
24
 21
53.2
  0
LINE
  8
0
 10
24
 20
53.2
 11
24.6
 21
53.0392
  0
LINE
  8
0
 10
24.6
 20
53.0392
 11
25.0392
 21
52.6
  0
LINE
  8
0
 10
25.0392
 20
52.6
 11
25.2
 21
52
  0
LINE
  8
0
 10
25.2
 20
52
 11
25.0392
 21
51.4
  0
LINE
  8
0
 10
25.0392
 20
51.4
 11
24.6
 21
50.9608
  0
LINE
  8
0
 10
24.6
 20
50.9608
 11
24
 21
50.8
  0
LINE
  8
0
 10
24
 20
50.8
 11
23.4
 21
50.9608
  0
LINE
  8
0
 10
187.4
 20
36.9608
 11
186.961
 21
37.4
  0
LINE
  8
0
 10
186.961
 20
37.4
 11
186.8
 21
38
  0
LINE
  8
0
 10
186.8
 20
38
 11
186.961
 21
38.6
  0
LINE
  8
0
 10
186.961
 20
38.6
 11
187.4
 21
39.0392
  0
LINE
  8
0
 10
187.4
 20
39.0392
 11
188
 21
39.2
  0
LINE
  8
0
 10
188
 20
39.2
 11
188.6
 21
39.0392
  0
LINE
  8
0
 10
188.6
 20
39.0392
 11
189.039
 21
38.6
  0
LINE
  8
0
 10
189.039
 20
38.6
 11
189.2
 21
38
  0
LINE
  8
0
 10
189.2
 20
38
 11
189.039
 21
37.4
  0
LINE
  8
0
 10
189.039
 20
37.4
 11
188.6
 21
36.9608
  0
LINE
  8
0
 10
188.6
 20
36.9608
 11
188
 21
36.8
  0
LINE
  8
0
 10
188
 20
36.8
 11
187.4
 21
36.9608
  0
LINE
  8
0
 10
249.4
 20
36.9608
 11
248.961
 21
37.4
  0
LINE
  8
0
 10
248.961
 20
37.4
 11
248.8
 21
38
  0
LINE
  8
0
 10
248.8
 20
38
 11
248.961
 21
38.6
  0
LINE
  8
0
 10
248.961
 20
38.6
 11
249.4
 21
39.0392
  0
LINE
  8
0
 10
249.4
 20
39.0392
 11
250
 21
39.2
  0
LINE
  8
0
 10
250
 20
39.2
 11
250.6
 21
39.0392
  0
LINE
  8
0
 10
250.6
 20
39.0392
 11
251.039
 21
38.6
  0
LINE
  8
0
 10
251.039
 20
38.6
 11
251.2
 21
38
  0
LINE
  8
0
 10
251.2
 20
38
 11
251.039
 21
37.4
  0
LINE
  8
0
 10
251.039
 20
37.4
 11
250.6
 21
36.9608
  0
LINE
  8
0
 10
250.6
 20
36.9608
 11
250
 21
36.8
  0
LINE
  8
0
 10
250
 20
36.8
 11
249.4
 21
36.9608
  0
LINE
  8
0
 10
190
 20
14
 11
190
 21
34
  0
LINE
  8
0
 10
190
 20
34
 11
248
 21
34
  0
LINE
  8
0
 10
248
 20
34
 11
248
 21
14
  0
LINE
  8
0
 10
248
 20
14
 11
190
 21
14
  0
LINE
  8
0
 10
52
 20
14
 11
52
 21
34
  0
LINE
  8
0
 10
52
 20
34
 11
186
 21
34
  0
LINE
  8
0
 10
186
 20
34
 11
186
 21
14
  0
LINE
  8
0
 10
186
 20
14
 11
52
 21
14
  0
LINE
  8
0
 10
252
 20
14
 11
252
 21
34
  0
LINE
  8
0
 10
252
 20
34
 11
329
 21
34
  0
LINE
  8
0
 10
329
 20
34
 11
329
 21
14
  0
LINE
  8
0
 10
329
 20
14
 11
252
 21
14
  0
LINE
  8
0
 10
42.4
 20
22.9608
 11
41.9608
 21
23.4
  0
LINE
  8
0
 10
41.9608
 20
23.4
 11
41.8
 21
24
  0
LINE
  8
0
 10
41.8
 20
24
 11
41.9608
 21
24.6
  0
LINE
  8
0
 10
41.9608
 20
24.6
 11
42.4
 21
25.0392
  0
LINE
  8
0
 10
42.4
 20
25.0392
 11
43
 21
25.2
  0
LINE
  8
0
 10
43
 20
25.2
 11
43.6
 21
25.0392
  0
LINE
  8
0
 10
43.6
 20
25.0392
 11
44.0392
 21
24.6
  0
LINE
  8
0
 10
44.0392
 20
24.6
 11
44.2
 21
24
  0
LINE
  8
0
 10
44.2
 20
24
 11
44.0392
 21
23.4
  0
LINE
  8
0
 10
44.0392
 20
23.4
 11
43.6
 21
22.9608
  0
LINE
  8
0
 10
43.6
 20
22.9608
 11
43
 21
22.8
  0
LINE
  8
0
 10
43
 20
22.8
 11
42.4
 21
22.9608
  0
LINE
  8
0
 10
349
 20
9
 11
349
 21
14
  0
LINE
  8
0
 10
349
 20
14
 11
352
 21
14
  0
LINE
  8
0
 10
352
 20
14
 11
352
 21
9
  0
LINE
  8
0
 10
352
 20
9
 11
349
 21
9
  0
LINE
  8
0
 10
3
 20
9
 11
3
 21
14
  0
LINE
  8
0
 10
3
 20
14
 11
6
 21
14
  0
LINE
  8
0
 10
6
 20
14
 11
6
 21
9
  0
LINE
  8
0
 10
6
 20
9
 11
3
 21
9
  0
LINE
  8
0
 10
343.9
 20
9.46075
 11
343.461
 21
9.89999
  0
LINE
  8
0
 10
343.461
 20
9.89999
 11
343.3
 21
10.5
  0
LINE
  8
0
 10
343.3
 20
10.5
 11
343.461
 21
11.1
  0
LINE
  8
0
 10
343.461
 20
11.1
 11
343.9
 21
11.5392
  0
LINE
  8
0
 10
343.9
 20
11.5392
 11
344.5
 21
11.7
  0
LINE
  8
0
 10
344.5
 20
11.7
 11
345.1
 21
11.5392
  0
LINE
  8
0
 10
345.1
 20
11.5392
 11
345.539
 21
11.1
  0
LINE
  8
0
 10
345.539
 20
11.1
 11
345.7
 21
10.5
  0
LINE
  8
0
 10
345.7
 20
10.5
 11
345.539
 21
9.89999
  0
LINE
  8
0
 10
345.539
 20
9.89999
 11
345.1
 21
9.46075
  0
LINE
  8
0
 10
345.1
 20
9.46075
 11
344.5
 21
9.29999
  0
LINE
  8
0
 10
344.5
 20
9.29999
 11
343.9
 21
9.46075
  0
LINE
  8
0
 10
9.89999
 20
9.46075
 11
9.46075
 21
9.89999
  0
LINE
  8
0
 10
9.46075
 20
9.89999
 11
9.29999
 21
10.5
  0
LINE
  8
0
 10
9.29999
 20
10.5
 11
9.46075
 21
11.1
  0
LINE
  8
0
 10
9.46075
 20
11.1
 11
9.89999
 21
11.5392
  0
LINE
  8
0
 10
9.89999
 20
11.5392
 11
10.5
 21
11.7
  0
LINE
  8
0
 10
10.5
 20
11.7
 11
11.1
 21
11.5392
  0
LINE
  8
0
 10
11.1
 20
11.5392
 11
11.5392
 21
11.1
  0
LINE
  8
0
 10
11.5392
 20
11.1
 11
11.7
 21
10.5
  0
LINE
  8
0
 10
11.7
 20
10.5
 11
11.5392
 21
9.89999
  0
LINE
  8
0
 10
11.5392
 20
9.89999
 11
11.1
 21
9.46075
  0
LINE
  8
0
 10
11.1
 20
9.46075
 11
10.5
 21
9.29999
  0
LINE
  8
0
 10
10.5
 20
9.29999
 11
9.89999
 21
9.46075
  0
LINE
  8
0
 10
187.4
 20
9.46075
 11
186.961
 21
9.89999
  0
LINE
  8
0
 10
186.961
 20
9.89999
 11
186.8
 21
10.5
  0
LINE
  8
0
 10
186.8
 20
10.5
 11
186.961
 21
11.1
  0
LINE
  8
0
 10
186.961
 20
11.1
 11
187.4
 21
11.5392
  0
LINE
  8
0
 10
187.4
 20
11.5392
 11
188
 21
11.7
  0
LINE
  8
0
 10
188
 20
11.7
 11
188.6
 21
11.5392
  0
LINE
  8
0
 10
188.6
 20
11.5392
 11
189.039
 21
11.1
  0
LINE
  8
0
 10
189.039
 20
11.1
 11
189.2
 21
10.5
  0
LINE
  8
0
 10
189.2
 20
10.5
 11
189.039
 21
9.89999
  0
LINE
  8
0
 10
189.039
 20
9.89999
 11
188.6
 21
9.46075
  0
LINE
  8
0
 10
188.6
 20
9.46075
 11
188
 21
9.29999
  0
LINE
  8
0
 10
188
 20
9.29999
 11
187.4
 21
9.46075
  0
LINE
  8
0
 10
249.4
 20
9.46075
 11
248.961
 21
9.89999
  0
LINE
  8
0
 10
248.961
 20
9.89999
 11
248.8
 21
10.5
  0
LINE
  8
0
 10
248.8
 20
10.5
 11
248.961
 21
11.1
  0
LINE
  8
0
 10
248.961
 20
11.1
 11
249.4
 21
11.5392
  0
LINE
  8
0
 10
249.4
 20
11.5392
 11
250
 21
11.7
  0
LINE
  8
0
 10
250
 20
11.7
 11
250.6
 21
11.5392
  0
LINE
  8
0
 10
250.6
 20
11.5392
 11
251.039
 21
11.1
  0
LINE
  8
0
 10
251.039
 20
11.1
 11
251.2
 21
10.5
  0
LINE
  8
0
 10
251.2
 20
10.5
 11
251.039
 21
9.89999
  0
LINE
  8
0
 10
251.039
 20
9.89999
 11
250.6
 21
9.46075
  0
LINE
  8
0
 10
250.6
 20
9.46075
 11
250
 21
9.29999
  0
LINE
  8
0
 10
250
 20
9.29999
 11
249.4
 21
9.46075
  0
LINE
  8
0
 10
341
 20
3
 11
341
 21
6
  0
LINE
  8
0
 10
341
 20
6
 11
346
 21
6
  0
LINE
  8
0
 10
346
 20
6
 11
346
 21
3
  0
LINE
  8
0
 10
346
 20
3
 11
341
 21
3
  0
LINE
  8
0
 10
247.5
 20
3
 11
247.5
 21
6
  0
LINE
  8
0
 10
247.5
 20
6
 11
252.5
 21
6
  0
LINE
  8
0
 10
252.5
 20
6
 11
252.5
 21
3
  0
LINE
  8
0
 10
252.5
 20
3
 11
247.5
 21
3
  0
LINE
  8
0
 10
185.5
 20
3
 11
185.5
 21
6
  0
LINE
  8
0
 10
185.5
 20
6
 11
190.5
 21
6
  0
LINE
  8
0
 10
190.5
 20
6
 11
190.5
 21
3
  0
LINE
  8
0
 10
190.5
 20
3
 11
185.5
 21
3
  0
LINE
  8
0
 10
9
 20
3
 11
9
 21
6
  0
LINE
  8
0
 10
9
 20
6
 11
14
 21
6
  0
LINE
  8
0
 10
14
 20
6
 11
14
 21
3
  0
LINE
  8
0
 10
14
 20
3
 11
9
 21
3
  0
ENDSEC
  0
SECTION
  2
OBJECTS
  0
DICTIONARY
  0
ENDSEC
  0
EOF
