G04 #@! TF.FileFunction,Soldermask,Bot*
%FSLAX46Y46*%
G04 Gerber Fmt 4.6, Leading zero omitted, Abs format (unit mm)*
G04 Created by KiCad (PCBNEW 4.0.7) date 12/14/17 04:12:44*
%MOMM*%
%LPD*%
G01*
G04 APERTURE LIST*
%ADD10C,0.100000*%
%ADD11C,2.686000*%
%ADD12C,4.387800*%
%ADD13C,2.051000*%
%ADD14R,2.051000X2.051000*%
%ADD15C,4.210000*%
%ADD16R,1.924000X1.924000*%
%ADD17C,1.924000*%
%ADD18C,4.400000*%
%ADD19C,3.450000*%
%ADD20C,2.800000*%
G04 APERTURE END LIST*
D10*
D11*
X309460000Y-138080000D03*
X315810000Y-135540000D03*
D12*
X312000000Y-133000000D03*
D13*
X320890000Y-135540000D03*
D14*
X320890000Y-127920000D03*
D13*
X313270000Y-127920000D03*
D14*
X310730000Y-127920000D03*
X317000000Y-124110000D03*
D13*
X307000000Y-124110000D03*
D15*
X306995000Y-7500000D03*
X260005000Y-7500000D03*
D16*
X266863000Y-8897000D03*
D17*
X269657000Y-8897000D03*
X272451000Y-8897000D03*
X275245000Y-8897000D03*
X278039000Y-8897000D03*
X280706000Y-8897000D03*
X283500000Y-8897000D03*
X286294000Y-8897000D03*
X289088000Y-8897000D03*
X291882000Y-8897000D03*
X294549000Y-8897000D03*
X297343000Y-8897000D03*
X300137000Y-8897000D03*
X268260000Y-6103000D03*
X271054000Y-6103000D03*
X273848000Y-6103000D03*
X276515000Y-6103000D03*
X279309000Y-6103000D03*
X282103000Y-6103000D03*
X284897000Y-6103000D03*
X287691000Y-6103000D03*
X290358000Y-6103000D03*
X293152000Y-6103000D03*
X295946000Y-6103000D03*
X298740000Y-6103000D03*
D11*
X71460000Y-34080000D03*
X77810000Y-31540000D03*
D12*
X74000000Y-29000000D03*
D13*
X82890000Y-31540000D03*
D14*
X82890000Y-23920000D03*
D13*
X75270000Y-23920000D03*
D14*
X72730000Y-23920000D03*
X79000000Y-20110000D03*
D13*
X69000000Y-20110000D03*
D11*
X90460000Y-34080000D03*
X96810000Y-31540000D03*
D12*
X93000000Y-29000000D03*
D13*
X101890000Y-31540000D03*
D14*
X101890000Y-23920000D03*
D13*
X94270000Y-23920000D03*
D14*
X91730000Y-23920000D03*
X98000000Y-20110000D03*
D13*
X88000000Y-20110000D03*
D11*
X109460000Y-34080000D03*
X115810000Y-31540000D03*
D12*
X112000000Y-29000000D03*
D13*
X120890000Y-31540000D03*
D14*
X120890000Y-23920000D03*
D13*
X113270000Y-23920000D03*
D14*
X110730000Y-23920000D03*
X117000000Y-20110000D03*
D13*
X107000000Y-20110000D03*
D11*
X128460000Y-34080000D03*
X134810000Y-31540000D03*
D12*
X131000000Y-29000000D03*
D13*
X139890000Y-31540000D03*
D14*
X139890000Y-23920000D03*
D13*
X132270000Y-23920000D03*
D14*
X129730000Y-23920000D03*
X136000000Y-20110000D03*
D13*
X126000000Y-20110000D03*
D11*
X147460000Y-34080000D03*
X153810000Y-31540000D03*
D12*
X150000000Y-29000000D03*
D13*
X158890000Y-31540000D03*
D14*
X158890000Y-23920000D03*
D13*
X151270000Y-23920000D03*
D14*
X148730000Y-23920000D03*
X155000000Y-20110000D03*
D13*
X145000000Y-20110000D03*
D11*
X166460000Y-34080000D03*
X172810000Y-31540000D03*
D12*
X169000000Y-29000000D03*
D13*
X177890000Y-31540000D03*
D14*
X177890000Y-23920000D03*
D13*
X170270000Y-23920000D03*
D14*
X167730000Y-23920000D03*
X174000000Y-20110000D03*
D13*
X164000000Y-20110000D03*
D11*
X185460000Y-34080000D03*
X191810000Y-31540000D03*
D12*
X188000000Y-29000000D03*
D13*
X196890000Y-31540000D03*
D14*
X196890000Y-23920000D03*
D13*
X189270000Y-23920000D03*
D14*
X186730000Y-23920000D03*
X193000000Y-20110000D03*
D13*
X183000000Y-20110000D03*
D11*
X109460000Y-62080000D03*
X115810000Y-59540000D03*
D12*
X112000000Y-57000000D03*
D13*
X120890000Y-59540000D03*
D14*
X120890000Y-51920000D03*
D13*
X113270000Y-51920000D03*
D14*
X110730000Y-51920000D03*
X117000000Y-48110000D03*
D13*
X107000000Y-48110000D03*
D11*
X52460000Y-62080000D03*
X58810000Y-59540000D03*
D12*
X55000000Y-57000000D03*
D13*
X63890000Y-59540000D03*
D14*
X63890000Y-51920000D03*
D13*
X56270000Y-51920000D03*
D14*
X53730000Y-51920000D03*
X60000000Y-48110000D03*
D13*
X50000000Y-48110000D03*
D11*
X71460000Y-62080000D03*
X77810000Y-59540000D03*
D12*
X74000000Y-57000000D03*
D13*
X82890000Y-59540000D03*
D14*
X82890000Y-51920000D03*
D13*
X75270000Y-51920000D03*
D14*
X72730000Y-51920000D03*
X79000000Y-48110000D03*
D13*
X69000000Y-48110000D03*
D11*
X90460000Y-62080000D03*
X96810000Y-59540000D03*
D12*
X93000000Y-57000000D03*
D13*
X101890000Y-59540000D03*
D14*
X101890000Y-51920000D03*
D13*
X94270000Y-51920000D03*
D14*
X91730000Y-51920000D03*
X98000000Y-48110000D03*
D13*
X88000000Y-48110000D03*
D11*
X175960000Y-62080000D03*
X182310000Y-59540000D03*
D12*
X178500000Y-57000000D03*
D13*
X196500000Y-59540000D03*
D14*
X196500000Y-51920000D03*
D13*
X179770000Y-51920000D03*
D14*
X177230000Y-51920000D03*
X183500000Y-48110000D03*
D13*
X173500000Y-48110000D03*
D18*
X190400000Y-65240000D03*
D19*
X190400000Y-50000000D03*
D18*
X166600000Y-65240000D03*
D19*
X166600000Y-50000000D03*
D11*
X95210000Y-119080000D03*
X101560000Y-116540000D03*
D12*
X97750000Y-114000000D03*
D13*
X106640000Y-116540000D03*
D14*
X106640000Y-108920000D03*
D13*
X99020000Y-108920000D03*
D14*
X96480000Y-108920000D03*
X102750000Y-105110000D03*
D13*
X92750000Y-105110000D03*
D11*
X209460000Y-81080000D03*
X215810000Y-78540000D03*
D12*
X212000000Y-76000000D03*
D13*
X220890000Y-78540000D03*
D14*
X220890000Y-70920000D03*
D13*
X213270000Y-70920000D03*
D14*
X210730000Y-70920000D03*
X217000000Y-67110000D03*
D13*
X207000000Y-67110000D03*
D11*
X228460000Y-138080000D03*
X234810000Y-135540000D03*
D12*
X231000000Y-133000000D03*
D13*
X239890000Y-135540000D03*
D14*
X239890000Y-127920000D03*
D13*
X232270000Y-127920000D03*
D14*
X229730000Y-127920000D03*
X236000000Y-124110000D03*
D13*
X226000000Y-124110000D03*
D11*
X228460000Y-81080000D03*
X234810000Y-78540000D03*
D12*
X231000000Y-76000000D03*
D13*
X239890000Y-78540000D03*
D14*
X239890000Y-70920000D03*
D13*
X232270000Y-70920000D03*
D14*
X229730000Y-70920000D03*
X236000000Y-67110000D03*
D13*
X226000000Y-67110000D03*
D11*
X173585000Y-100080000D03*
X179935000Y-97540000D03*
D12*
X176125000Y-95000000D03*
D13*
X194125000Y-97540000D03*
D14*
X194125000Y-89920000D03*
D13*
X177395000Y-89920000D03*
D14*
X174855000Y-89920000D03*
X181125000Y-86110000D03*
D13*
X171125000Y-86110000D03*
D18*
X188025000Y-103240000D03*
D19*
X188025000Y-88000000D03*
D18*
X164225000Y-103240000D03*
D19*
X164225000Y-88000000D03*
D11*
X147460000Y-62080000D03*
X153810000Y-59540000D03*
D12*
X150000000Y-57000000D03*
D13*
X158890000Y-59540000D03*
D14*
X158890000Y-51920000D03*
D13*
X151270000Y-51920000D03*
D14*
X148730000Y-51920000D03*
X155000000Y-48110000D03*
D13*
X145000000Y-48110000D03*
D11*
X133210000Y-119080000D03*
X139560000Y-116540000D03*
D12*
X135750000Y-114000000D03*
D13*
X144640000Y-116540000D03*
D14*
X144640000Y-108920000D03*
D13*
X137020000Y-108920000D03*
D14*
X134480000Y-108920000D03*
X140750000Y-105110000D03*
D13*
X130750000Y-105110000D03*
D11*
X47710000Y-100080000D03*
X54060000Y-97540000D03*
D12*
X50250000Y-95000000D03*
D13*
X59140000Y-97540000D03*
D14*
X59140000Y-89920000D03*
D13*
X51520000Y-89920000D03*
D14*
X48980000Y-89920000D03*
X55250000Y-86110000D03*
D13*
X45250000Y-86110000D03*
D11*
X228460000Y-62080000D03*
X234810000Y-59540000D03*
D12*
X231000000Y-57000000D03*
D13*
X239890000Y-59540000D03*
D14*
X239890000Y-51920000D03*
D13*
X232270000Y-51920000D03*
D14*
X229730000Y-51920000D03*
X236000000Y-48110000D03*
D13*
X226000000Y-48110000D03*
D11*
X80960000Y-81080000D03*
X87310000Y-78540000D03*
D12*
X83500000Y-76000000D03*
D13*
X92390000Y-78540000D03*
D14*
X92390000Y-70920000D03*
D13*
X84770000Y-70920000D03*
D14*
X82230000Y-70920000D03*
X88500000Y-67110000D03*
D13*
X78500000Y-67110000D03*
D11*
X209460000Y-62080000D03*
X215810000Y-59540000D03*
D12*
X212000000Y-57000000D03*
D13*
X220890000Y-59540000D03*
D14*
X220890000Y-51920000D03*
D13*
X213270000Y-51920000D03*
D14*
X210730000Y-51920000D03*
X217000000Y-48110000D03*
D13*
X207000000Y-48110000D03*
D11*
X66710000Y-100080000D03*
X73060000Y-97540000D03*
D12*
X69250000Y-95000000D03*
D13*
X78140000Y-97540000D03*
D14*
X78140000Y-89920000D03*
D13*
X70520000Y-89920000D03*
D14*
X67980000Y-89920000D03*
X74250000Y-86110000D03*
D13*
X64250000Y-86110000D03*
D11*
X85710000Y-100080000D03*
X92060000Y-97540000D03*
D12*
X88250000Y-95000000D03*
D13*
X97140000Y-97540000D03*
D14*
X97140000Y-89920000D03*
D13*
X89520000Y-89920000D03*
D14*
X86980000Y-89920000D03*
X93250000Y-86110000D03*
D13*
X83250000Y-86110000D03*
D11*
X104710000Y-100080000D03*
X111060000Y-97540000D03*
D12*
X107250000Y-95000000D03*
D13*
X116140000Y-97540000D03*
D14*
X116140000Y-89920000D03*
D13*
X108520000Y-89920000D03*
D14*
X105980000Y-89920000D03*
X112250000Y-86110000D03*
D13*
X102250000Y-86110000D03*
D11*
X209460000Y-138080000D03*
X215810000Y-135540000D03*
D12*
X212000000Y-133000000D03*
D13*
X220890000Y-135540000D03*
D14*
X220890000Y-127920000D03*
D13*
X213270000Y-127920000D03*
D14*
X210730000Y-127920000D03*
X217000000Y-124110000D03*
D13*
X207000000Y-124110000D03*
D11*
X137960000Y-81080000D03*
X144310000Y-78540000D03*
D12*
X140500000Y-76000000D03*
D13*
X149390000Y-78540000D03*
D14*
X149390000Y-70920000D03*
D13*
X141770000Y-70920000D03*
D14*
X139230000Y-70920000D03*
X145500000Y-67110000D03*
D13*
X135500000Y-67110000D03*
D11*
X76210000Y-119080000D03*
X82560000Y-116540000D03*
D12*
X78750000Y-114000000D03*
D13*
X87640000Y-116540000D03*
D14*
X87640000Y-108920000D03*
D13*
X80020000Y-108920000D03*
D14*
X77480000Y-108920000D03*
X83750000Y-105110000D03*
D13*
X73750000Y-105110000D03*
D11*
X128460000Y-62080000D03*
X134810000Y-59540000D03*
D12*
X131000000Y-57000000D03*
D13*
X139890000Y-59540000D03*
D14*
X139890000Y-51920000D03*
D13*
X132270000Y-51920000D03*
D14*
X129730000Y-51920000D03*
X136000000Y-48110000D03*
D13*
X126000000Y-48110000D03*
D11*
X57210000Y-119080000D03*
X63560000Y-116540000D03*
D12*
X59750000Y-114000000D03*
D13*
X68640000Y-116540000D03*
D14*
X68640000Y-108920000D03*
D13*
X61020000Y-108920000D03*
D14*
X58480000Y-108920000D03*
X64750000Y-105110000D03*
D13*
X54750000Y-105110000D03*
D11*
X99960000Y-81080000D03*
X106310000Y-78540000D03*
D12*
X102500000Y-76000000D03*
D13*
X111390000Y-78540000D03*
D14*
X111390000Y-70920000D03*
D13*
X103770000Y-70920000D03*
D14*
X101230000Y-70920000D03*
X107500000Y-67110000D03*
D13*
X97500000Y-67110000D03*
D11*
X118960000Y-81080000D03*
X125310000Y-78540000D03*
D12*
X121500000Y-76000000D03*
D13*
X130390000Y-78540000D03*
D14*
X130390000Y-70920000D03*
D13*
X122770000Y-70920000D03*
D14*
X120230000Y-70920000D03*
X126500000Y-67110000D03*
D13*
X116500000Y-67110000D03*
D11*
X247460000Y-81080000D03*
X253810000Y-78540000D03*
D12*
X250000000Y-76000000D03*
D13*
X258890000Y-78540000D03*
D14*
X258890000Y-70920000D03*
D13*
X251270000Y-70920000D03*
D14*
X248730000Y-70920000D03*
X255000000Y-67110000D03*
D13*
X245000000Y-67110000D03*
D11*
X247460000Y-62080000D03*
X253810000Y-59540000D03*
D12*
X250000000Y-57000000D03*
D13*
X258890000Y-59540000D03*
D14*
X258890000Y-51920000D03*
D13*
X251270000Y-51920000D03*
D14*
X248730000Y-51920000D03*
X255000000Y-48110000D03*
D13*
X245000000Y-48110000D03*
D11*
X247460000Y-34080000D03*
X253810000Y-31540000D03*
D12*
X250000000Y-29000000D03*
D13*
X258890000Y-31540000D03*
D14*
X258890000Y-23920000D03*
D13*
X251270000Y-23920000D03*
D14*
X248730000Y-23920000D03*
X255000000Y-20110000D03*
D13*
X245000000Y-20110000D03*
D11*
X114210000Y-119080000D03*
X120560000Y-116540000D03*
D12*
X116750000Y-114000000D03*
D13*
X125640000Y-116540000D03*
D14*
X125640000Y-108920000D03*
D13*
X118020000Y-108920000D03*
D14*
X115480000Y-108920000D03*
X121750000Y-105110000D03*
D13*
X111750000Y-105110000D03*
D11*
X209460000Y-34080000D03*
X215810000Y-31540000D03*
D12*
X212000000Y-29000000D03*
D13*
X220890000Y-31540000D03*
D14*
X220890000Y-23920000D03*
D13*
X213270000Y-23920000D03*
D14*
X210730000Y-23920000D03*
X217000000Y-20110000D03*
D13*
X207000000Y-20110000D03*
D11*
X142710000Y-100080000D03*
X149060000Y-97540000D03*
D12*
X145250000Y-95000000D03*
D13*
X154140000Y-97540000D03*
D14*
X154140000Y-89920000D03*
D13*
X146520000Y-89920000D03*
D14*
X143980000Y-89920000D03*
X150250000Y-86110000D03*
D13*
X140250000Y-86110000D03*
D11*
X247460000Y-138080000D03*
X253810000Y-135540000D03*
D12*
X250000000Y-133000000D03*
D13*
X258890000Y-135540000D03*
D14*
X258890000Y-127920000D03*
D13*
X251270000Y-127920000D03*
D14*
X248730000Y-127920000D03*
X255000000Y-124110000D03*
D13*
X245000000Y-124110000D03*
D11*
X111835000Y-138080000D03*
X118185000Y-135540000D03*
D12*
X114375000Y-133000000D03*
D13*
X123265000Y-135540000D03*
D14*
X123265000Y-127920000D03*
D13*
X115645000Y-127920000D03*
D14*
X113105000Y-127920000D03*
X119375000Y-124110000D03*
D13*
X109375000Y-124110000D03*
D11*
X83335000Y-138080000D03*
X89685000Y-135540000D03*
D12*
X85875000Y-133000000D03*
D13*
X94765000Y-135540000D03*
D14*
X94765000Y-127920000D03*
D13*
X87145000Y-127920000D03*
D14*
X84605000Y-127920000D03*
X90875000Y-124110000D03*
D13*
X80875000Y-124110000D03*
D11*
X135585000Y-138080000D03*
X141935000Y-135540000D03*
D12*
X138125000Y-133000000D03*
D13*
X147015000Y-135540000D03*
D14*
X147015000Y-127920000D03*
D13*
X139395000Y-127920000D03*
D14*
X136855000Y-127920000D03*
X143125000Y-124110000D03*
D13*
X133125000Y-124110000D03*
D11*
X228460000Y-34080000D03*
X234810000Y-31540000D03*
D12*
X231000000Y-29000000D03*
D13*
X239890000Y-31540000D03*
D14*
X239890000Y-23920000D03*
D13*
X232270000Y-23920000D03*
D14*
X229730000Y-23920000D03*
X236000000Y-20110000D03*
D13*
X226000000Y-20110000D03*
D11*
X123710000Y-100080000D03*
X130060000Y-97540000D03*
D12*
X126250000Y-95000000D03*
D13*
X135140000Y-97540000D03*
D14*
X135140000Y-89920000D03*
D13*
X127520000Y-89920000D03*
D14*
X124980000Y-89920000D03*
X131250000Y-86110000D03*
D13*
X121250000Y-86110000D03*
D11*
X61960000Y-81080000D03*
X68310000Y-78540000D03*
D12*
X64500000Y-76000000D03*
D13*
X73390000Y-78540000D03*
D14*
X73390000Y-70920000D03*
D13*
X65770000Y-70920000D03*
D14*
X63230000Y-70920000D03*
X69500000Y-67110000D03*
D13*
X59500000Y-67110000D03*
D11*
X228460000Y-119080000D03*
X234810000Y-116540000D03*
D12*
X231000000Y-114000000D03*
D13*
X239890000Y-116540000D03*
D14*
X239890000Y-108920000D03*
D13*
X232270000Y-108920000D03*
D14*
X229730000Y-108920000D03*
X236000000Y-105110000D03*
D13*
X226000000Y-105110000D03*
D11*
X352460000Y-34080000D03*
X358810000Y-31540000D03*
D12*
X355000000Y-29000000D03*
D13*
X363890000Y-31540000D03*
D14*
X363890000Y-23920000D03*
D13*
X356270000Y-23920000D03*
D14*
X353730000Y-23920000D03*
X360000000Y-20110000D03*
D13*
X350000000Y-20110000D03*
D11*
X352460000Y-62080000D03*
X358810000Y-59540000D03*
D12*
X355000000Y-57000000D03*
D13*
X363890000Y-59540000D03*
D14*
X363890000Y-51920000D03*
D13*
X356270000Y-51920000D03*
D14*
X353730000Y-51920000D03*
X360000000Y-48110000D03*
D13*
X350000000Y-48110000D03*
D11*
X352460000Y-81080000D03*
X358810000Y-78540000D03*
D12*
X355000000Y-76000000D03*
D13*
X363890000Y-78540000D03*
D14*
X363890000Y-70920000D03*
D13*
X356270000Y-70920000D03*
D14*
X353730000Y-70920000D03*
X360000000Y-67110000D03*
D13*
X350000000Y-67110000D03*
D11*
X352460000Y-100080000D03*
X358810000Y-97540000D03*
D12*
X355000000Y-95000000D03*
D13*
X363890000Y-97540000D03*
D14*
X363890000Y-89920000D03*
D13*
X356270000Y-89920000D03*
D14*
X353730000Y-89920000D03*
X360000000Y-86110000D03*
D13*
X350000000Y-86110000D03*
D11*
X352460000Y-119080000D03*
X358810000Y-116540000D03*
D12*
X355000000Y-114000000D03*
D13*
X363890000Y-116540000D03*
D14*
X363890000Y-108920000D03*
D13*
X356270000Y-108920000D03*
D14*
X353730000Y-108920000D03*
X360000000Y-105110000D03*
D13*
X350000000Y-105110000D03*
D11*
X352460000Y-138080000D03*
X358810000Y-135540000D03*
D12*
X355000000Y-133000000D03*
D13*
X363890000Y-135540000D03*
D14*
X363890000Y-127920000D03*
D13*
X356270000Y-127920000D03*
D14*
X353730000Y-127920000D03*
X360000000Y-124110000D03*
D13*
X350000000Y-124110000D03*
D11*
X14460000Y-34080000D03*
X20810000Y-31540000D03*
D12*
X17000000Y-29000000D03*
D13*
X25890000Y-31540000D03*
D14*
X25890000Y-23920000D03*
D13*
X18270000Y-23920000D03*
D14*
X15730000Y-23920000D03*
X22000000Y-20110000D03*
D13*
X12000000Y-20110000D03*
D11*
X33460000Y-34080000D03*
X39810000Y-31540000D03*
D12*
X36000000Y-29000000D03*
D13*
X44890000Y-31540000D03*
D14*
X44890000Y-23920000D03*
D13*
X37270000Y-23920000D03*
D14*
X34730000Y-23920000D03*
X41000000Y-20110000D03*
D13*
X31000000Y-20110000D03*
D11*
X23960000Y-62080000D03*
X30310000Y-59540000D03*
D12*
X26500000Y-57000000D03*
D13*
X8500000Y-59540000D03*
D14*
X8500000Y-51920000D03*
D13*
X27770000Y-51920000D03*
D14*
X25230000Y-51920000D03*
X31500000Y-48110000D03*
D13*
X21500000Y-48110000D03*
D18*
X38400000Y-65240000D03*
D19*
X38400000Y-50000000D03*
D18*
X14600000Y-65240000D03*
D19*
X14600000Y-50000000D03*
D11*
X21585000Y-100080000D03*
X27935000Y-97540000D03*
D12*
X24125000Y-95000000D03*
D13*
X33015000Y-97540000D03*
D14*
X33015000Y-89920000D03*
D13*
X25395000Y-89920000D03*
D14*
X22855000Y-89920000D03*
X29125000Y-86110000D03*
D13*
X19125000Y-86110000D03*
D11*
X26335000Y-119080000D03*
X32685000Y-116540000D03*
D12*
X28875000Y-114000000D03*
D13*
X10875000Y-116540000D03*
D14*
X10875000Y-108920000D03*
D13*
X30145000Y-108920000D03*
D14*
X27605000Y-108920000D03*
X33875000Y-105110000D03*
D13*
X23875000Y-105110000D03*
D18*
X40775000Y-122240000D03*
D19*
X40775000Y-107000000D03*
D18*
X16975000Y-122240000D03*
D19*
X16975000Y-107000000D03*
D11*
X280960000Y-138080000D03*
X287310000Y-135540000D03*
D12*
X283500000Y-133000000D03*
D13*
X265500000Y-135540000D03*
D14*
X265500000Y-127920000D03*
D13*
X284770000Y-127920000D03*
D14*
X282230000Y-127920000D03*
X288500000Y-124110000D03*
D13*
X278500000Y-124110000D03*
D18*
X295400000Y-141240000D03*
D19*
X295400000Y-126000000D03*
D18*
X271600000Y-141240000D03*
D19*
X271600000Y-126000000D03*
D11*
X271460000Y-119080000D03*
X277810000Y-116540000D03*
D12*
X274000000Y-114000000D03*
D13*
X282890000Y-116540000D03*
D14*
X282890000Y-108920000D03*
D13*
X275270000Y-108920000D03*
D14*
X272730000Y-108920000D03*
X279000000Y-105110000D03*
D13*
X269000000Y-105110000D03*
D11*
X290460000Y-119080000D03*
X296810000Y-116540000D03*
D12*
X293000000Y-114000000D03*
D13*
X301890000Y-116540000D03*
D14*
X301890000Y-108920000D03*
D13*
X294270000Y-108920000D03*
D14*
X291730000Y-108920000D03*
X298000000Y-105110000D03*
D13*
X288000000Y-105110000D03*
D11*
X309460000Y-119080000D03*
X315810000Y-116540000D03*
D12*
X312000000Y-114000000D03*
D13*
X320890000Y-116540000D03*
D14*
X320890000Y-108920000D03*
D13*
X313270000Y-108920000D03*
D14*
X310730000Y-108920000D03*
X317000000Y-105110000D03*
D13*
X307000000Y-105110000D03*
D11*
X271460000Y-100080000D03*
X277810000Y-97540000D03*
D12*
X274000000Y-95000000D03*
D13*
X282890000Y-97540000D03*
D14*
X282890000Y-89920000D03*
D13*
X275270000Y-89920000D03*
D14*
X272730000Y-89920000D03*
X279000000Y-86110000D03*
D13*
X269000000Y-86110000D03*
D11*
X290460000Y-100080000D03*
X296810000Y-97540000D03*
D12*
X293000000Y-95000000D03*
D13*
X301890000Y-97540000D03*
D14*
X301890000Y-89920000D03*
D13*
X294270000Y-89920000D03*
D14*
X291730000Y-89920000D03*
X298000000Y-86110000D03*
D13*
X288000000Y-86110000D03*
D11*
X309460000Y-100080000D03*
X315810000Y-97540000D03*
D12*
X312000000Y-95000000D03*
D13*
X320890000Y-97540000D03*
D14*
X320890000Y-89920000D03*
D13*
X313270000Y-89920000D03*
D14*
X310730000Y-89920000D03*
X317000000Y-86110000D03*
D13*
X307000000Y-86110000D03*
D11*
X271460000Y-81080000D03*
X277810000Y-78540000D03*
D12*
X274000000Y-76000000D03*
D13*
X282890000Y-78540000D03*
D14*
X282890000Y-70920000D03*
D13*
X275270000Y-70920000D03*
D14*
X272730000Y-70920000D03*
X279000000Y-67110000D03*
D13*
X269000000Y-67110000D03*
D11*
X290460000Y-81080000D03*
X296810000Y-78540000D03*
D12*
X293000000Y-76000000D03*
D13*
X301890000Y-78540000D03*
D14*
X301890000Y-70920000D03*
D13*
X294270000Y-70920000D03*
D14*
X291730000Y-70920000D03*
X298000000Y-67110000D03*
D13*
X288000000Y-67110000D03*
D11*
X309460000Y-81080000D03*
X315810000Y-78540000D03*
D12*
X312000000Y-76000000D03*
D13*
X320890000Y-78540000D03*
D14*
X320890000Y-70920000D03*
D13*
X313270000Y-70920000D03*
D14*
X310730000Y-70920000D03*
X317000000Y-67110000D03*
D13*
X307000000Y-67110000D03*
D11*
X290460000Y-62080000D03*
X296810000Y-59540000D03*
D12*
X293000000Y-57000000D03*
D13*
X301890000Y-59540000D03*
D14*
X301890000Y-51920000D03*
D13*
X294270000Y-51920000D03*
D14*
X291730000Y-51920000D03*
X298000000Y-48110000D03*
D13*
X288000000Y-48110000D03*
D11*
X271460000Y-62080000D03*
X277810000Y-59540000D03*
D12*
X274000000Y-57000000D03*
D13*
X282890000Y-59540000D03*
D14*
X282890000Y-51920000D03*
D13*
X275270000Y-51920000D03*
D14*
X272730000Y-51920000D03*
X279000000Y-48110000D03*
D13*
X269000000Y-48110000D03*
D11*
X328460000Y-62080000D03*
X334810000Y-59540000D03*
D12*
X331000000Y-57000000D03*
D13*
X339890000Y-59540000D03*
D14*
X339890000Y-51920000D03*
D13*
X332270000Y-51920000D03*
D14*
X329730000Y-51920000D03*
X336000000Y-48110000D03*
D13*
X326000000Y-48110000D03*
D11*
X309460000Y-62080000D03*
X315810000Y-59540000D03*
D12*
X312000000Y-57000000D03*
D13*
X320890000Y-59540000D03*
D14*
X320890000Y-51920000D03*
D13*
X313270000Y-51920000D03*
D14*
X310730000Y-51920000D03*
X317000000Y-48110000D03*
D13*
X307000000Y-48110000D03*
D11*
X271460000Y-34080000D03*
X277810000Y-31540000D03*
D12*
X274000000Y-29000000D03*
D13*
X282890000Y-31540000D03*
D14*
X282890000Y-23920000D03*
D13*
X275270000Y-23920000D03*
D14*
X272730000Y-23920000D03*
X279000000Y-20110000D03*
D13*
X269000000Y-20110000D03*
D11*
X290460000Y-34080000D03*
X296810000Y-31540000D03*
D12*
X293000000Y-29000000D03*
D13*
X301890000Y-31540000D03*
D14*
X301890000Y-23920000D03*
D13*
X294270000Y-23920000D03*
D14*
X291730000Y-23920000D03*
X298000000Y-20110000D03*
D13*
X288000000Y-20110000D03*
D11*
X309460000Y-34080000D03*
X315810000Y-31540000D03*
D12*
X312000000Y-29000000D03*
D13*
X320890000Y-31540000D03*
D14*
X320890000Y-23920000D03*
D13*
X313270000Y-23920000D03*
D14*
X310730000Y-23920000D03*
X317000000Y-20110000D03*
D13*
X307000000Y-20110000D03*
D11*
X328460000Y-34080000D03*
X334810000Y-31540000D03*
D12*
X331000000Y-29000000D03*
D13*
X339890000Y-31540000D03*
D14*
X339890000Y-23920000D03*
D13*
X332270000Y-23920000D03*
D14*
X329730000Y-23920000D03*
X336000000Y-20110000D03*
D13*
X326000000Y-20110000D03*
D20*
X3500000Y-3500000D03*
X3500000Y-146500000D03*
X368500000Y-3500000D03*
X368500000Y-146500000D03*
X200000000Y-3500000D03*
X200000000Y-95000000D03*
X200000000Y-146500000D03*
D11*
X19210000Y-81080000D03*
X25560000Y-78540000D03*
D12*
X21750000Y-76000000D03*
D13*
X30640000Y-78540000D03*
D14*
X30640000Y-70920000D03*
D13*
X23020000Y-70920000D03*
D14*
X20480000Y-70920000D03*
X12860000Y-81000000D03*
D13*
X12860000Y-71000000D03*
D11*
X14460000Y-138080000D03*
X20810000Y-135540000D03*
D12*
X17000000Y-133000000D03*
D13*
X25890000Y-135540000D03*
D14*
X25890000Y-127920000D03*
D13*
X18270000Y-127920000D03*
D14*
X15730000Y-127920000D03*
X8110000Y-138000000D03*
D13*
X8110000Y-128000000D03*
D11*
X42960000Y-81080000D03*
X49310000Y-78540000D03*
D12*
X45500000Y-76000000D03*
D13*
X54390000Y-78540000D03*
D14*
X54390000Y-70920000D03*
D13*
X46770000Y-70920000D03*
D14*
X44230000Y-70920000D03*
X36610000Y-81000000D03*
D13*
X36610000Y-71000000D03*
D11*
X45335000Y-138080000D03*
X51685000Y-135540000D03*
D12*
X47875000Y-133000000D03*
D13*
X65875000Y-135540000D03*
D14*
X65875000Y-127920000D03*
D13*
X49145000Y-127920000D03*
D14*
X46605000Y-127920000D03*
X29875000Y-138000000D03*
D13*
X29875000Y-128000000D03*
D18*
X59775000Y-141240000D03*
D19*
X59775000Y-126000000D03*
D18*
X35975000Y-141240000D03*
D19*
X35975000Y-126000000D03*
D11*
X168835000Y-119080000D03*
X175185000Y-116540000D03*
D12*
X171375000Y-114000000D03*
D13*
X189375000Y-116540000D03*
D14*
X189375000Y-108920000D03*
D13*
X172645000Y-108920000D03*
D14*
X170105000Y-108920000D03*
X153375000Y-119000000D03*
D13*
X153375000Y-109000000D03*
D18*
X183275000Y-122240000D03*
D19*
X183275000Y-107000000D03*
D18*
X159475000Y-122240000D03*
D19*
X159475000Y-107000000D03*
D11*
X159335000Y-138080000D03*
X165685000Y-135540000D03*
D12*
X161875000Y-133000000D03*
D13*
X170765000Y-135540000D03*
D14*
X170765000Y-127920000D03*
D13*
X163145000Y-127920000D03*
D14*
X160605000Y-127920000D03*
X166875000Y-141890000D03*
D13*
X156875000Y-141890000D03*
D11*
X183085000Y-138080000D03*
X189435000Y-135540000D03*
D12*
X185625000Y-133000000D03*
D13*
X194515000Y-135540000D03*
D14*
X194515000Y-127920000D03*
D13*
X186895000Y-127920000D03*
D14*
X184355000Y-127920000D03*
X190625000Y-141890000D03*
D13*
X180625000Y-141890000D03*
D11*
X180710000Y-81080000D03*
X187060000Y-78540000D03*
D12*
X183250000Y-76000000D03*
D13*
X192140000Y-78540000D03*
D14*
X192140000Y-70920000D03*
D13*
X184520000Y-70920000D03*
D14*
X181980000Y-70920000D03*
X174360000Y-81000000D03*
D13*
X174360000Y-71000000D03*
D11*
X156960000Y-81080000D03*
X163310000Y-78540000D03*
D12*
X159500000Y-76000000D03*
D13*
X168390000Y-78540000D03*
D14*
X168390000Y-70920000D03*
D13*
X160770000Y-70920000D03*
D14*
X158230000Y-70920000D03*
X164500000Y-84890000D03*
D13*
X154500000Y-84890000D03*
D11*
X336080000Y-88040000D03*
X333540000Y-81690000D03*
D12*
X331000000Y-85500000D03*
D13*
X333540000Y-103500000D03*
D14*
X325920000Y-103500000D03*
D13*
X325920000Y-84230000D03*
D14*
X325920000Y-86770000D03*
X329000000Y-105500000D03*
D13*
X339000000Y-105500000D03*
D18*
X339240000Y-73600000D03*
D19*
X324000000Y-73600000D03*
D18*
X339240000Y-97400000D03*
D19*
X324000000Y-97400000D03*
D11*
X336080000Y-126040000D03*
X333540000Y-119690000D03*
D12*
X331000000Y-123500000D03*
D13*
X333540000Y-141500000D03*
D14*
X325920000Y-141500000D03*
D13*
X325920000Y-122230000D03*
D14*
X325920000Y-124770000D03*
X329000000Y-143500000D03*
D13*
X339000000Y-143500000D03*
D18*
X339240000Y-111600000D03*
D19*
X324000000Y-111600000D03*
D18*
X339240000Y-135400000D03*
D19*
X324000000Y-135400000D03*
M02*
