G04 #@! TF.FileFunction,Legend,Top*
%FSLAX46Y46*%
G04 Gerber Fmt 4.6, Leading zero omitted, Abs format (unit mm)*
G04 Created by KiCad (PCBNEW 4.0.7) date 12/14/17 04:12:44*
%MOMM*%
%LPD*%
G01*
G04 APERTURE LIST*
%ADD10C,0.100000*%
%ADD11C,0.304800*%
%ADD12C,0.203200*%
%ADD13C,0.150000*%
G04 APERTURE END LIST*
D10*
D11*
X309154000Y-10675000D02*
X309154000Y-10675000D01*
X309154000Y-10675000D02*
X309154000Y-4325000D01*
X309154000Y-4325000D02*
X257719000Y-4325000D01*
X257719000Y-4325000D02*
X257719000Y-10675000D01*
X257719000Y-10675000D02*
X309027000Y-10675000D01*
X309027000Y-10675000D02*
X309154000Y-10675000D01*
D12*
X304452572Y-130399524D02*
X304452572Y-129129524D01*
X305323429Y-130399524D01*
X305323429Y-129129524D01*
X306049143Y-129129524D02*
X306049143Y-130157619D01*
X306121715Y-130278571D01*
X306194286Y-130339048D01*
X306339429Y-130399524D01*
X306629715Y-130399524D01*
X306774857Y-130339048D01*
X306847429Y-130278571D01*
X306920000Y-130157619D01*
X306920000Y-129129524D01*
X307645714Y-130399524D02*
X307645714Y-129129524D01*
X308153714Y-130036667D01*
X308661714Y-129129524D01*
X308661714Y-130399524D01*
X309024571Y-130520476D02*
X310185714Y-130520476D01*
X310548571Y-130399524D02*
X310548571Y-129129524D01*
X311129143Y-129129524D01*
X311274285Y-129190000D01*
X311346857Y-129250476D01*
X311419428Y-129371429D01*
X311419428Y-129552857D01*
X311346857Y-129673810D01*
X311274285Y-129734286D01*
X311129143Y-129794762D01*
X310548571Y-129794762D01*
X312072571Y-129734286D02*
X312580571Y-129734286D01*
X312798285Y-130399524D02*
X312072571Y-130399524D01*
X312072571Y-129129524D01*
X312798285Y-129129524D01*
X314322285Y-130399524D02*
X313814285Y-129794762D01*
X313451428Y-130399524D02*
X313451428Y-129129524D01*
X314032000Y-129129524D01*
X314177142Y-129190000D01*
X314249714Y-129250476D01*
X314322285Y-129371429D01*
X314322285Y-129552857D01*
X314249714Y-129673810D01*
X314177142Y-129734286D01*
X314032000Y-129794762D01*
X313451428Y-129794762D01*
X314975428Y-130399524D02*
X314975428Y-129129524D01*
X315991428Y-129129524D02*
X316281714Y-129129524D01*
X316426856Y-129190000D01*
X316571999Y-129310952D01*
X316644571Y-129552857D01*
X316644571Y-129976190D01*
X316571999Y-130218095D01*
X316426856Y-130339048D01*
X316281714Y-130399524D01*
X315991428Y-130399524D01*
X315846285Y-130339048D01*
X315701142Y-130218095D01*
X315628571Y-129976190D01*
X315628571Y-129552857D01*
X315701142Y-129310952D01*
X315846285Y-129190000D01*
X315991428Y-129129524D01*
X317297713Y-130399524D02*
X317297713Y-129129524D01*
X317660570Y-129129524D01*
X317878285Y-129190000D01*
X318023427Y-129310952D01*
X318095999Y-129431905D01*
X318168570Y-129673810D01*
X318168570Y-129855238D01*
X318095999Y-130097143D01*
X318023427Y-130218095D01*
X317878285Y-130339048D01*
X317660570Y-130399524D01*
X317297713Y-130399524D01*
X319619999Y-130399524D02*
X318749142Y-130399524D01*
X319184570Y-130399524D02*
X319184570Y-129129524D01*
X319039427Y-129310952D01*
X318894285Y-129431905D01*
X318749142Y-129492381D01*
D11*
X294603428Y-13269429D02*
X294603428Y-11745429D01*
X294966285Y-11745429D01*
X295184000Y-11818000D01*
X295329142Y-11963143D01*
X295401714Y-12108286D01*
X295474285Y-12398571D01*
X295474285Y-12616286D01*
X295401714Y-12906571D01*
X295329142Y-13051714D01*
X295184000Y-13196857D01*
X294966285Y-13269429D01*
X294603428Y-13269429D01*
X296054857Y-13196857D02*
X296272571Y-13269429D01*
X296635428Y-13269429D01*
X296780571Y-13196857D01*
X296853142Y-13124286D01*
X296925714Y-12979143D01*
X296925714Y-12834000D01*
X296853142Y-12688857D01*
X296780571Y-12616286D01*
X296635428Y-12543714D01*
X296345142Y-12471143D01*
X296200000Y-12398571D01*
X296127428Y-12326000D01*
X296054857Y-12180857D01*
X296054857Y-12035714D01*
X296127428Y-11890571D01*
X296200000Y-11818000D01*
X296345142Y-11745429D01*
X296708000Y-11745429D01*
X296925714Y-11818000D01*
X297578857Y-11745429D02*
X297578857Y-12979143D01*
X297651429Y-13124286D01*
X297724000Y-13196857D01*
X297869143Y-13269429D01*
X298159429Y-13269429D01*
X298304571Y-13196857D01*
X298377143Y-13124286D01*
X298449714Y-12979143D01*
X298449714Y-11745429D01*
X299683428Y-12471143D02*
X299901142Y-12543714D01*
X299973714Y-12616286D01*
X300046285Y-12761429D01*
X300046285Y-12979143D01*
X299973714Y-13124286D01*
X299901142Y-13196857D01*
X299756000Y-13269429D01*
X299175428Y-13269429D01*
X299175428Y-11745429D01*
X299683428Y-11745429D01*
X299828571Y-11818000D01*
X299901142Y-11890571D01*
X299973714Y-12035714D01*
X299973714Y-12180857D01*
X299901142Y-12326000D01*
X299828571Y-12398571D01*
X299683428Y-12471143D01*
X299175428Y-12471143D01*
X300626857Y-11890571D02*
X300699428Y-11818000D01*
X300844571Y-11745429D01*
X301207428Y-11745429D01*
X301352571Y-11818000D01*
X301425142Y-11890571D01*
X301497714Y-12035714D01*
X301497714Y-12180857D01*
X301425142Y-12398571D01*
X300554285Y-13269429D01*
X301497714Y-13269429D01*
X302876571Y-11745429D02*
X302150857Y-11745429D01*
X302078286Y-12471143D01*
X302150857Y-12398571D01*
X302296000Y-12326000D01*
X302658857Y-12326000D01*
X302804000Y-12398571D01*
X302876571Y-12471143D01*
X302949143Y-12616286D01*
X302949143Y-12979143D01*
X302876571Y-13124286D01*
X302804000Y-13196857D01*
X302658857Y-13269429D01*
X302296000Y-13269429D01*
X302150857Y-13196857D01*
X302078286Y-13124286D01*
X268187428Y-13269429D02*
X268187428Y-11745429D01*
X268550285Y-11745429D01*
X268768000Y-11818000D01*
X268913142Y-11963143D01*
X268985714Y-12108286D01*
X269058285Y-12398571D01*
X269058285Y-12616286D01*
X268985714Y-12906571D01*
X268913142Y-13051714D01*
X268768000Y-13196857D01*
X268550285Y-13269429D01*
X268187428Y-13269429D01*
X270219428Y-12471143D02*
X270437142Y-12543714D01*
X270509714Y-12616286D01*
X270582285Y-12761429D01*
X270582285Y-12979143D01*
X270509714Y-13124286D01*
X270437142Y-13196857D01*
X270292000Y-13269429D01*
X269711428Y-13269429D01*
X269711428Y-11745429D01*
X270219428Y-11745429D01*
X270364571Y-11818000D01*
X270437142Y-11890571D01*
X270509714Y-12035714D01*
X270509714Y-12180857D01*
X270437142Y-12326000D01*
X270364571Y-12398571D01*
X270219428Y-12471143D01*
X269711428Y-12471143D01*
X271162857Y-11890571D02*
X271235428Y-11818000D01*
X271380571Y-11745429D01*
X271743428Y-11745429D01*
X271888571Y-11818000D01*
X271961142Y-11890571D01*
X272033714Y-12035714D01*
X272033714Y-12180857D01*
X271961142Y-12398571D01*
X271090285Y-13269429D01*
X272033714Y-13269429D01*
X273412571Y-11745429D02*
X272686857Y-11745429D01*
X272614286Y-12471143D01*
X272686857Y-12398571D01*
X272832000Y-12326000D01*
X273194857Y-12326000D01*
X273340000Y-12398571D01*
X273412571Y-12471143D01*
X273485143Y-12616286D01*
X273485143Y-12979143D01*
X273412571Y-13124286D01*
X273340000Y-13196857D01*
X273194857Y-13269429D01*
X272832000Y-13269429D01*
X272686857Y-13196857D01*
X272614286Y-13124286D01*
D12*
X69899714Y-25734286D02*
X69391714Y-25734286D01*
X69391714Y-26399524D02*
X69391714Y-25129524D01*
X70117428Y-25129524D01*
X70698000Y-25129524D02*
X70698000Y-26157619D01*
X70770572Y-26278571D01*
X70843143Y-26339048D01*
X70988286Y-26399524D01*
X71278572Y-26399524D01*
X71423714Y-26339048D01*
X71496286Y-26278571D01*
X71568857Y-26157619D01*
X71568857Y-25129524D01*
X72294571Y-26399524D02*
X72294571Y-25129524D01*
X73165428Y-26399524D01*
X73165428Y-25129524D01*
X74761999Y-26278571D02*
X74689428Y-26339048D01*
X74471714Y-26399524D01*
X74326571Y-26399524D01*
X74108856Y-26339048D01*
X73963714Y-26218095D01*
X73891142Y-26097143D01*
X73818571Y-25855238D01*
X73818571Y-25673810D01*
X73891142Y-25431905D01*
X73963714Y-25310952D01*
X74108856Y-25190000D01*
X74326571Y-25129524D01*
X74471714Y-25129524D01*
X74689428Y-25190000D01*
X74761999Y-25250476D01*
X75052285Y-26520476D02*
X76213428Y-26520476D01*
X77084285Y-25734286D02*
X76576285Y-25734286D01*
X76576285Y-26399524D02*
X76576285Y-25129524D01*
X77301999Y-25129524D01*
X78535714Y-25129524D02*
X78245428Y-25129524D01*
X78100285Y-25190000D01*
X78027714Y-25250476D01*
X77882571Y-25431905D01*
X77810000Y-25673810D01*
X77810000Y-26157619D01*
X77882571Y-26278571D01*
X77955143Y-26339048D01*
X78100285Y-26399524D01*
X78390571Y-26399524D01*
X78535714Y-26339048D01*
X78608285Y-26278571D01*
X78680857Y-26157619D01*
X78680857Y-25855238D01*
X78608285Y-25734286D01*
X78535714Y-25673810D01*
X78390571Y-25613333D01*
X78100285Y-25613333D01*
X77955143Y-25673810D01*
X77882571Y-25734286D01*
X77810000Y-25855238D01*
X88899714Y-25734286D02*
X88391714Y-25734286D01*
X88391714Y-26399524D02*
X88391714Y-25129524D01*
X89117428Y-25129524D01*
X89698000Y-25129524D02*
X89698000Y-26157619D01*
X89770572Y-26278571D01*
X89843143Y-26339048D01*
X89988286Y-26399524D01*
X90278572Y-26399524D01*
X90423714Y-26339048D01*
X90496286Y-26278571D01*
X90568857Y-26157619D01*
X90568857Y-25129524D01*
X91294571Y-26399524D02*
X91294571Y-25129524D01*
X92165428Y-26399524D01*
X92165428Y-25129524D01*
X93761999Y-26278571D02*
X93689428Y-26339048D01*
X93471714Y-26399524D01*
X93326571Y-26399524D01*
X93108856Y-26339048D01*
X92963714Y-26218095D01*
X92891142Y-26097143D01*
X92818571Y-25855238D01*
X92818571Y-25673810D01*
X92891142Y-25431905D01*
X92963714Y-25310952D01*
X93108856Y-25190000D01*
X93326571Y-25129524D01*
X93471714Y-25129524D01*
X93689428Y-25190000D01*
X93761999Y-25250476D01*
X94052285Y-26520476D02*
X95213428Y-26520476D01*
X96084285Y-25734286D02*
X95576285Y-25734286D01*
X95576285Y-26399524D02*
X95576285Y-25129524D01*
X96301999Y-25129524D01*
X96737428Y-25129524D02*
X97753428Y-25129524D01*
X97100285Y-26399524D01*
X107899714Y-25734286D02*
X107391714Y-25734286D01*
X107391714Y-26399524D02*
X107391714Y-25129524D01*
X108117428Y-25129524D01*
X108698000Y-25129524D02*
X108698000Y-26157619D01*
X108770572Y-26278571D01*
X108843143Y-26339048D01*
X108988286Y-26399524D01*
X109278572Y-26399524D01*
X109423714Y-26339048D01*
X109496286Y-26278571D01*
X109568857Y-26157619D01*
X109568857Y-25129524D01*
X110294571Y-26399524D02*
X110294571Y-25129524D01*
X111165428Y-26399524D01*
X111165428Y-25129524D01*
X112761999Y-26278571D02*
X112689428Y-26339048D01*
X112471714Y-26399524D01*
X112326571Y-26399524D01*
X112108856Y-26339048D01*
X111963714Y-26218095D01*
X111891142Y-26097143D01*
X111818571Y-25855238D01*
X111818571Y-25673810D01*
X111891142Y-25431905D01*
X111963714Y-25310952D01*
X112108856Y-25190000D01*
X112326571Y-25129524D01*
X112471714Y-25129524D01*
X112689428Y-25190000D01*
X112761999Y-25250476D01*
X113052285Y-26520476D02*
X114213428Y-26520476D01*
X115084285Y-25734286D02*
X114576285Y-25734286D01*
X114576285Y-26399524D02*
X114576285Y-25129524D01*
X115301999Y-25129524D01*
X116100285Y-25673810D02*
X115955143Y-25613333D01*
X115882571Y-25552857D01*
X115810000Y-25431905D01*
X115810000Y-25371429D01*
X115882571Y-25250476D01*
X115955143Y-25190000D01*
X116100285Y-25129524D01*
X116390571Y-25129524D01*
X116535714Y-25190000D01*
X116608285Y-25250476D01*
X116680857Y-25371429D01*
X116680857Y-25431905D01*
X116608285Y-25552857D01*
X116535714Y-25613333D01*
X116390571Y-25673810D01*
X116100285Y-25673810D01*
X115955143Y-25734286D01*
X115882571Y-25794762D01*
X115810000Y-25915714D01*
X115810000Y-26157619D01*
X115882571Y-26278571D01*
X115955143Y-26339048D01*
X116100285Y-26399524D01*
X116390571Y-26399524D01*
X116535714Y-26339048D01*
X116608285Y-26278571D01*
X116680857Y-26157619D01*
X116680857Y-25915714D01*
X116608285Y-25794762D01*
X116535714Y-25734286D01*
X116390571Y-25673810D01*
X126899714Y-25734286D02*
X126391714Y-25734286D01*
X126391714Y-26399524D02*
X126391714Y-25129524D01*
X127117428Y-25129524D01*
X127698000Y-25129524D02*
X127698000Y-26157619D01*
X127770572Y-26278571D01*
X127843143Y-26339048D01*
X127988286Y-26399524D01*
X128278572Y-26399524D01*
X128423714Y-26339048D01*
X128496286Y-26278571D01*
X128568857Y-26157619D01*
X128568857Y-25129524D01*
X129294571Y-26399524D02*
X129294571Y-25129524D01*
X130165428Y-26399524D01*
X130165428Y-25129524D01*
X131761999Y-26278571D02*
X131689428Y-26339048D01*
X131471714Y-26399524D01*
X131326571Y-26399524D01*
X131108856Y-26339048D01*
X130963714Y-26218095D01*
X130891142Y-26097143D01*
X130818571Y-25855238D01*
X130818571Y-25673810D01*
X130891142Y-25431905D01*
X130963714Y-25310952D01*
X131108856Y-25190000D01*
X131326571Y-25129524D01*
X131471714Y-25129524D01*
X131689428Y-25190000D01*
X131761999Y-25250476D01*
X132052285Y-26520476D02*
X133213428Y-26520476D01*
X134084285Y-25734286D02*
X133576285Y-25734286D01*
X133576285Y-26399524D02*
X133576285Y-25129524D01*
X134301999Y-25129524D01*
X134955143Y-26399524D02*
X135245428Y-26399524D01*
X135390571Y-26339048D01*
X135463143Y-26278571D01*
X135608285Y-26097143D01*
X135680857Y-25855238D01*
X135680857Y-25371429D01*
X135608285Y-25250476D01*
X135535714Y-25190000D01*
X135390571Y-25129524D01*
X135100285Y-25129524D01*
X134955143Y-25190000D01*
X134882571Y-25250476D01*
X134810000Y-25371429D01*
X134810000Y-25673810D01*
X134882571Y-25794762D01*
X134955143Y-25855238D01*
X135100285Y-25915714D01*
X135390571Y-25915714D01*
X135535714Y-25855238D01*
X135608285Y-25794762D01*
X135680857Y-25673810D01*
X145174000Y-25734286D02*
X144666000Y-25734286D01*
X144666000Y-26399524D02*
X144666000Y-25129524D01*
X145391714Y-25129524D01*
X145972286Y-25129524D02*
X145972286Y-26157619D01*
X146044858Y-26278571D01*
X146117429Y-26339048D01*
X146262572Y-26399524D01*
X146552858Y-26399524D01*
X146698000Y-26339048D01*
X146770572Y-26278571D01*
X146843143Y-26157619D01*
X146843143Y-25129524D01*
X147568857Y-26399524D02*
X147568857Y-25129524D01*
X148439714Y-26399524D01*
X148439714Y-25129524D01*
X150036285Y-26278571D02*
X149963714Y-26339048D01*
X149746000Y-26399524D01*
X149600857Y-26399524D01*
X149383142Y-26339048D01*
X149238000Y-26218095D01*
X149165428Y-26097143D01*
X149092857Y-25855238D01*
X149092857Y-25673810D01*
X149165428Y-25431905D01*
X149238000Y-25310952D01*
X149383142Y-25190000D01*
X149600857Y-25129524D01*
X149746000Y-25129524D01*
X149963714Y-25190000D01*
X150036285Y-25250476D01*
X150326571Y-26520476D02*
X151487714Y-26520476D01*
X152358571Y-25734286D02*
X151850571Y-25734286D01*
X151850571Y-26399524D02*
X151850571Y-25129524D01*
X152576285Y-25129524D01*
X153955143Y-26399524D02*
X153084286Y-26399524D01*
X153519714Y-26399524D02*
X153519714Y-25129524D01*
X153374571Y-25310952D01*
X153229429Y-25431905D01*
X153084286Y-25492381D01*
X154898572Y-25129524D02*
X155043715Y-25129524D01*
X155188858Y-25190000D01*
X155261429Y-25250476D01*
X155334000Y-25371429D01*
X155406572Y-25613333D01*
X155406572Y-25915714D01*
X155334000Y-26157619D01*
X155261429Y-26278571D01*
X155188858Y-26339048D01*
X155043715Y-26399524D01*
X154898572Y-26399524D01*
X154753429Y-26339048D01*
X154680858Y-26278571D01*
X154608286Y-26157619D01*
X154535715Y-25915714D01*
X154535715Y-25613333D01*
X154608286Y-25371429D01*
X154680858Y-25250476D01*
X154753429Y-25190000D01*
X154898572Y-25129524D01*
X164174000Y-25734286D02*
X163666000Y-25734286D01*
X163666000Y-26399524D02*
X163666000Y-25129524D01*
X164391714Y-25129524D01*
X164972286Y-25129524D02*
X164972286Y-26157619D01*
X165044858Y-26278571D01*
X165117429Y-26339048D01*
X165262572Y-26399524D01*
X165552858Y-26399524D01*
X165698000Y-26339048D01*
X165770572Y-26278571D01*
X165843143Y-26157619D01*
X165843143Y-25129524D01*
X166568857Y-26399524D02*
X166568857Y-25129524D01*
X167439714Y-26399524D01*
X167439714Y-25129524D01*
X169036285Y-26278571D02*
X168963714Y-26339048D01*
X168746000Y-26399524D01*
X168600857Y-26399524D01*
X168383142Y-26339048D01*
X168238000Y-26218095D01*
X168165428Y-26097143D01*
X168092857Y-25855238D01*
X168092857Y-25673810D01*
X168165428Y-25431905D01*
X168238000Y-25310952D01*
X168383142Y-25190000D01*
X168600857Y-25129524D01*
X168746000Y-25129524D01*
X168963714Y-25190000D01*
X169036285Y-25250476D01*
X169326571Y-26520476D02*
X170487714Y-26520476D01*
X171358571Y-25734286D02*
X170850571Y-25734286D01*
X170850571Y-26399524D02*
X170850571Y-25129524D01*
X171576285Y-25129524D01*
X172955143Y-26399524D02*
X172084286Y-26399524D01*
X172519714Y-26399524D02*
X172519714Y-25129524D01*
X172374571Y-25310952D01*
X172229429Y-25431905D01*
X172084286Y-25492381D01*
X174406572Y-26399524D02*
X173535715Y-26399524D01*
X173971143Y-26399524D02*
X173971143Y-25129524D01*
X173826000Y-25310952D01*
X173680858Y-25431905D01*
X173535715Y-25492381D01*
X183174000Y-25734286D02*
X182666000Y-25734286D01*
X182666000Y-26399524D02*
X182666000Y-25129524D01*
X183391714Y-25129524D01*
X183972286Y-25129524D02*
X183972286Y-26157619D01*
X184044858Y-26278571D01*
X184117429Y-26339048D01*
X184262572Y-26399524D01*
X184552858Y-26399524D01*
X184698000Y-26339048D01*
X184770572Y-26278571D01*
X184843143Y-26157619D01*
X184843143Y-25129524D01*
X185568857Y-26399524D02*
X185568857Y-25129524D01*
X186439714Y-26399524D01*
X186439714Y-25129524D01*
X188036285Y-26278571D02*
X187963714Y-26339048D01*
X187746000Y-26399524D01*
X187600857Y-26399524D01*
X187383142Y-26339048D01*
X187238000Y-26218095D01*
X187165428Y-26097143D01*
X187092857Y-25855238D01*
X187092857Y-25673810D01*
X187165428Y-25431905D01*
X187238000Y-25310952D01*
X187383142Y-25190000D01*
X187600857Y-25129524D01*
X187746000Y-25129524D01*
X187963714Y-25190000D01*
X188036285Y-25250476D01*
X188326571Y-26520476D02*
X189487714Y-26520476D01*
X190358571Y-25734286D02*
X189850571Y-25734286D01*
X189850571Y-26399524D02*
X189850571Y-25129524D01*
X190576285Y-25129524D01*
X191955143Y-26399524D02*
X191084286Y-26399524D01*
X191519714Y-26399524D02*
X191519714Y-25129524D01*
X191374571Y-25310952D01*
X191229429Y-25431905D01*
X191084286Y-25492381D01*
X192535715Y-25250476D02*
X192608286Y-25190000D01*
X192753429Y-25129524D01*
X193116286Y-25129524D01*
X193261429Y-25190000D01*
X193334000Y-25250476D01*
X193406572Y-25371429D01*
X193406572Y-25492381D01*
X193334000Y-25673810D01*
X192463143Y-26399524D01*
X193406572Y-26399524D01*
X108952000Y-54399524D02*
X108952000Y-53129524D01*
X109822857Y-54399524D02*
X109169714Y-53673810D01*
X109822857Y-53129524D02*
X108952000Y-53855238D01*
X110476000Y-53734286D02*
X110984000Y-53734286D01*
X111201714Y-54399524D02*
X110476000Y-54399524D01*
X110476000Y-53129524D01*
X111201714Y-53129524D01*
X112145143Y-53794762D02*
X112145143Y-54399524D01*
X111637143Y-53129524D02*
X112145143Y-53794762D01*
X112653143Y-53129524D01*
X112798286Y-54520476D02*
X113959429Y-54520476D01*
X114612572Y-53129524D02*
X114757715Y-53129524D01*
X114902858Y-53190000D01*
X114975429Y-53250476D01*
X115048000Y-53371429D01*
X115120572Y-53613333D01*
X115120572Y-53915714D01*
X115048000Y-54157619D01*
X114975429Y-54278571D01*
X114902858Y-54339048D01*
X114757715Y-54399524D01*
X114612572Y-54399524D01*
X114467429Y-54339048D01*
X114394858Y-54278571D01*
X114322286Y-54157619D01*
X114249715Y-53915714D01*
X114249715Y-53613333D01*
X114322286Y-53371429D01*
X114394858Y-53250476D01*
X114467429Y-53190000D01*
X114612572Y-53129524D01*
X51952000Y-54399524D02*
X51952000Y-53129524D01*
X52822857Y-54399524D02*
X52169714Y-53673810D01*
X52822857Y-53129524D02*
X51952000Y-53855238D01*
X53476000Y-53734286D02*
X53984000Y-53734286D01*
X54201714Y-54399524D02*
X53476000Y-54399524D01*
X53476000Y-53129524D01*
X54201714Y-53129524D01*
X55145143Y-53794762D02*
X55145143Y-54399524D01*
X54637143Y-53129524D02*
X55145143Y-53794762D01*
X55653143Y-53129524D01*
X55798286Y-54520476D02*
X56959429Y-54520476D01*
X57177143Y-53129524D02*
X58193143Y-53129524D01*
X57540000Y-54399524D01*
X70952000Y-54399524D02*
X70952000Y-53129524D01*
X71822857Y-54399524D02*
X71169714Y-53673810D01*
X71822857Y-53129524D02*
X70952000Y-53855238D01*
X72476000Y-53734286D02*
X72984000Y-53734286D01*
X73201714Y-54399524D02*
X72476000Y-54399524D01*
X72476000Y-53129524D01*
X73201714Y-53129524D01*
X74145143Y-53794762D02*
X74145143Y-54399524D01*
X73637143Y-53129524D02*
X74145143Y-53794762D01*
X74653143Y-53129524D01*
X74798286Y-54520476D02*
X75959429Y-54520476D01*
X76540000Y-53673810D02*
X76394858Y-53613333D01*
X76322286Y-53552857D01*
X76249715Y-53431905D01*
X76249715Y-53371429D01*
X76322286Y-53250476D01*
X76394858Y-53190000D01*
X76540000Y-53129524D01*
X76830286Y-53129524D01*
X76975429Y-53190000D01*
X77048000Y-53250476D01*
X77120572Y-53371429D01*
X77120572Y-53431905D01*
X77048000Y-53552857D01*
X76975429Y-53613333D01*
X76830286Y-53673810D01*
X76540000Y-53673810D01*
X76394858Y-53734286D01*
X76322286Y-53794762D01*
X76249715Y-53915714D01*
X76249715Y-54157619D01*
X76322286Y-54278571D01*
X76394858Y-54339048D01*
X76540000Y-54399524D01*
X76830286Y-54399524D01*
X76975429Y-54339048D01*
X77048000Y-54278571D01*
X77120572Y-54157619D01*
X77120572Y-53915714D01*
X77048000Y-53794762D01*
X76975429Y-53734286D01*
X76830286Y-53673810D01*
X89952000Y-54399524D02*
X89952000Y-53129524D01*
X90822857Y-54399524D02*
X90169714Y-53673810D01*
X90822857Y-53129524D02*
X89952000Y-53855238D01*
X91476000Y-53734286D02*
X91984000Y-53734286D01*
X92201714Y-54399524D02*
X91476000Y-54399524D01*
X91476000Y-53129524D01*
X92201714Y-53129524D01*
X93145143Y-53794762D02*
X93145143Y-54399524D01*
X92637143Y-53129524D02*
X93145143Y-53794762D01*
X93653143Y-53129524D01*
X93798286Y-54520476D02*
X94959429Y-54520476D01*
X95394858Y-54399524D02*
X95685143Y-54399524D01*
X95830286Y-54339048D01*
X95902858Y-54278571D01*
X96048000Y-54097143D01*
X96120572Y-53855238D01*
X96120572Y-53371429D01*
X96048000Y-53250476D01*
X95975429Y-53190000D01*
X95830286Y-53129524D01*
X95540000Y-53129524D01*
X95394858Y-53190000D01*
X95322286Y-53250476D01*
X95249715Y-53371429D01*
X95249715Y-53673810D01*
X95322286Y-53794762D01*
X95394858Y-53855238D01*
X95540000Y-53915714D01*
X95830286Y-53915714D01*
X95975429Y-53855238D01*
X96048000Y-53794762D01*
X96120572Y-53673810D01*
X168920571Y-54399524D02*
X168920571Y-53129524D01*
X169791428Y-54399524D02*
X169138285Y-53673810D01*
X169791428Y-53129524D02*
X168920571Y-53855238D01*
X170444571Y-53734286D02*
X170952571Y-53734286D01*
X171170285Y-54399524D02*
X170444571Y-54399524D01*
X170444571Y-53129524D01*
X171170285Y-53129524D01*
X172113714Y-53794762D02*
X172113714Y-54399524D01*
X171605714Y-53129524D02*
X172113714Y-53794762D01*
X172621714Y-53129524D01*
X172766857Y-54520476D02*
X173928000Y-54520476D01*
X174798857Y-53734286D02*
X175016571Y-53794762D01*
X175089143Y-53855238D01*
X175161714Y-53976190D01*
X175161714Y-54157619D01*
X175089143Y-54278571D01*
X175016571Y-54339048D01*
X174871429Y-54399524D01*
X174290857Y-54399524D01*
X174290857Y-53129524D01*
X174798857Y-53129524D01*
X174944000Y-53190000D01*
X175016571Y-53250476D01*
X175089143Y-53371429D01*
X175089143Y-53492381D01*
X175016571Y-53613333D01*
X174944000Y-53673810D01*
X174798857Y-53734286D01*
X174290857Y-53734286D01*
X175742286Y-54036667D02*
X176468000Y-54036667D01*
X175597143Y-54399524D02*
X176105143Y-53129524D01*
X176613143Y-54399524D01*
X177992000Y-54278571D02*
X177919429Y-54339048D01*
X177701715Y-54399524D01*
X177556572Y-54399524D01*
X177338857Y-54339048D01*
X177193715Y-54218095D01*
X177121143Y-54097143D01*
X177048572Y-53855238D01*
X177048572Y-53673810D01*
X177121143Y-53431905D01*
X177193715Y-53310952D01*
X177338857Y-53190000D01*
X177556572Y-53129524D01*
X177701715Y-53129524D01*
X177919429Y-53190000D01*
X177992000Y-53250476D01*
X178645143Y-54399524D02*
X178645143Y-53129524D01*
X179516000Y-54399524D02*
X178862857Y-53673810D01*
X179516000Y-53129524D02*
X178645143Y-53855238D01*
X180096572Y-54339048D02*
X180314286Y-54399524D01*
X180677143Y-54399524D01*
X180822286Y-54339048D01*
X180894857Y-54278571D01*
X180967429Y-54157619D01*
X180967429Y-54036667D01*
X180894857Y-53915714D01*
X180822286Y-53855238D01*
X180677143Y-53794762D01*
X180386857Y-53734286D01*
X180241715Y-53673810D01*
X180169143Y-53613333D01*
X180096572Y-53492381D01*
X180096572Y-53371429D01*
X180169143Y-53250476D01*
X180241715Y-53190000D01*
X180386857Y-53129524D01*
X180749715Y-53129524D01*
X180967429Y-53190000D01*
X181620572Y-54399524D02*
X181620572Y-53129524D01*
X182201144Y-53129524D01*
X182346286Y-53190000D01*
X182418858Y-53250476D01*
X182491429Y-53371429D01*
X182491429Y-53552857D01*
X182418858Y-53673810D01*
X182346286Y-53734286D01*
X182201144Y-53794762D01*
X181620572Y-53794762D01*
X183072001Y-54036667D02*
X183797715Y-54036667D01*
X182926858Y-54399524D02*
X183434858Y-53129524D01*
X183942858Y-54399524D01*
X185321715Y-54278571D02*
X185249144Y-54339048D01*
X185031430Y-54399524D01*
X184886287Y-54399524D01*
X184668572Y-54339048D01*
X184523430Y-54218095D01*
X184450858Y-54097143D01*
X184378287Y-53855238D01*
X184378287Y-53673810D01*
X184450858Y-53431905D01*
X184523430Y-53310952D01*
X184668572Y-53190000D01*
X184886287Y-53129524D01*
X185031430Y-53129524D01*
X185249144Y-53190000D01*
X185321715Y-53250476D01*
X185974858Y-53734286D02*
X186482858Y-53734286D01*
X186700572Y-54399524D02*
X185974858Y-54399524D01*
X185974858Y-53129524D01*
X186700572Y-53129524D01*
X188152001Y-54399524D02*
X187281144Y-54399524D01*
X187716572Y-54399524D02*
X187716572Y-53129524D01*
X187571429Y-53310952D01*
X187426287Y-53431905D01*
X187281144Y-53492381D01*
X90746857Y-111399524D02*
X90746857Y-110129524D01*
X91617714Y-111399524D02*
X90964571Y-110673810D01*
X91617714Y-110129524D02*
X90746857Y-110855238D01*
X92270857Y-110734286D02*
X92778857Y-110734286D01*
X92996571Y-111399524D02*
X92270857Y-111399524D01*
X92270857Y-110129524D01*
X92996571Y-110129524D01*
X93940000Y-110794762D02*
X93940000Y-111399524D01*
X93432000Y-110129524D02*
X93940000Y-110794762D01*
X94448000Y-110129524D01*
X94593143Y-111520476D02*
X95754286Y-111520476D01*
X96988000Y-111278571D02*
X96915429Y-111339048D01*
X96697715Y-111399524D01*
X96552572Y-111399524D01*
X96334857Y-111339048D01*
X96189715Y-111218095D01*
X96117143Y-111097143D01*
X96044572Y-110855238D01*
X96044572Y-110673810D01*
X96117143Y-110431905D01*
X96189715Y-110310952D01*
X96334857Y-110190000D01*
X96552572Y-110129524D01*
X96697715Y-110129524D01*
X96915429Y-110190000D01*
X96988000Y-110250476D01*
X97931429Y-110129524D02*
X98221715Y-110129524D01*
X98366857Y-110190000D01*
X98512000Y-110310952D01*
X98584572Y-110552857D01*
X98584572Y-110976190D01*
X98512000Y-111218095D01*
X98366857Y-111339048D01*
X98221715Y-111399524D01*
X97931429Y-111399524D01*
X97786286Y-111339048D01*
X97641143Y-111218095D01*
X97568572Y-110976190D01*
X97568572Y-110552857D01*
X97641143Y-110310952D01*
X97786286Y-110190000D01*
X97931429Y-110129524D01*
X99237714Y-111399524D02*
X99237714Y-110129524D01*
X99745714Y-111036667D01*
X100253714Y-110129524D01*
X100253714Y-111399524D01*
X100979428Y-111399524D02*
X100979428Y-110129524D01*
X101487428Y-111036667D01*
X101995428Y-110129524D01*
X101995428Y-111399524D01*
X102648571Y-111036667D02*
X103374285Y-111036667D01*
X102503428Y-111399524D02*
X103011428Y-110129524D01*
X103519428Y-111399524D01*
X104825714Y-111399524D02*
X103954857Y-111399524D01*
X104390285Y-111399524D02*
X104390285Y-110129524D01*
X104245142Y-110310952D01*
X104100000Y-110431905D01*
X103954857Y-110492381D01*
X204924286Y-73399524D02*
X204924286Y-72129524D01*
X205795143Y-73399524D02*
X205142000Y-72673810D01*
X205795143Y-72129524D02*
X204924286Y-72855238D01*
X206448286Y-72734286D02*
X206956286Y-72734286D01*
X207174000Y-73399524D02*
X206448286Y-73399524D01*
X206448286Y-72129524D01*
X207174000Y-72129524D01*
X208117429Y-72794762D02*
X208117429Y-73399524D01*
X207609429Y-72129524D02*
X208117429Y-72794762D01*
X208625429Y-72129524D01*
X208770572Y-73520476D02*
X209931715Y-73520476D01*
X210294572Y-73399524D02*
X210294572Y-72129524D01*
X210657429Y-72129524D01*
X210875144Y-72190000D01*
X211020286Y-72310952D01*
X211092858Y-72431905D01*
X211165429Y-72673810D01*
X211165429Y-72855238D01*
X211092858Y-73097143D01*
X211020286Y-73218095D01*
X210875144Y-73339048D01*
X210657429Y-73399524D01*
X210294572Y-73399524D01*
X211818572Y-72734286D02*
X212326572Y-72734286D01*
X212544286Y-73399524D02*
X211818572Y-73399524D01*
X211818572Y-72129524D01*
X212544286Y-72129524D01*
X213923143Y-73399524D02*
X213197429Y-73399524D01*
X213197429Y-72129524D01*
X214431143Y-72734286D02*
X214939143Y-72734286D01*
X215156857Y-73399524D02*
X214431143Y-73399524D01*
X214431143Y-72129524D01*
X215156857Y-72129524D01*
X215592286Y-72129524D02*
X216463143Y-72129524D01*
X216027714Y-73399524D02*
X216027714Y-72129524D01*
X216971143Y-72734286D02*
X217479143Y-72734286D01*
X217696857Y-73399524D02*
X216971143Y-73399524D01*
X216971143Y-72129524D01*
X217696857Y-72129524D01*
X219148286Y-73399524D02*
X218277429Y-73399524D01*
X218712857Y-73399524D02*
X218712857Y-72129524D01*
X218567714Y-72310952D01*
X218422572Y-72431905D01*
X218277429Y-72492381D01*
X224722572Y-130399524D02*
X224722572Y-129129524D01*
X225593429Y-130399524D02*
X224940286Y-129673810D01*
X225593429Y-129129524D02*
X224722572Y-129855238D01*
X226246572Y-129734286D02*
X226754572Y-129734286D01*
X226972286Y-130399524D02*
X226246572Y-130399524D01*
X226246572Y-129129524D01*
X226972286Y-129129524D01*
X227915715Y-129794762D02*
X227915715Y-130399524D01*
X227407715Y-129129524D02*
X227915715Y-129794762D01*
X228423715Y-129129524D01*
X228568858Y-130520476D02*
X229730001Y-130520476D01*
X230092858Y-130399524D02*
X230092858Y-129129524D01*
X230455715Y-129129524D01*
X230673430Y-129190000D01*
X230818572Y-129310952D01*
X230891144Y-129431905D01*
X230963715Y-129673810D01*
X230963715Y-129855238D01*
X230891144Y-130097143D01*
X230818572Y-130218095D01*
X230673430Y-130339048D01*
X230455715Y-130399524D01*
X230092858Y-130399524D01*
X231907144Y-129129524D02*
X232197430Y-129129524D01*
X232342572Y-129190000D01*
X232487715Y-129310952D01*
X232560287Y-129552857D01*
X232560287Y-129976190D01*
X232487715Y-130218095D01*
X232342572Y-130339048D01*
X232197430Y-130399524D01*
X231907144Y-130399524D01*
X231762001Y-130339048D01*
X231616858Y-130218095D01*
X231544287Y-129976190D01*
X231544287Y-129552857D01*
X231616858Y-129310952D01*
X231762001Y-129190000D01*
X231907144Y-129129524D01*
X233068286Y-129129524D02*
X233431143Y-130399524D01*
X233721429Y-129492381D01*
X234011715Y-130399524D01*
X234374572Y-129129524D01*
X234955143Y-130399524D02*
X234955143Y-129129524D01*
X235826000Y-130399524D01*
X235826000Y-129129524D01*
X237350000Y-130399524D02*
X236479143Y-130399524D01*
X236914571Y-130399524D02*
X236914571Y-129129524D01*
X236769428Y-129310952D01*
X236624286Y-129431905D01*
X236479143Y-129492381D01*
X225702286Y-73399524D02*
X225702286Y-72129524D01*
X226573143Y-73399524D02*
X225920000Y-72673810D01*
X226573143Y-72129524D02*
X225702286Y-72855238D01*
X227226286Y-72734286D02*
X227734286Y-72734286D01*
X227952000Y-73399524D02*
X227226286Y-73399524D01*
X227226286Y-72129524D01*
X227952000Y-72129524D01*
X228895429Y-72794762D02*
X228895429Y-73399524D01*
X228387429Y-72129524D02*
X228895429Y-72794762D01*
X229403429Y-72129524D01*
X229548572Y-73520476D02*
X230709715Y-73520476D01*
X231072572Y-72734286D02*
X231580572Y-72734286D01*
X231798286Y-73399524D02*
X231072572Y-73399524D01*
X231072572Y-72129524D01*
X231798286Y-72129524D01*
X232451429Y-73399524D02*
X232451429Y-72129524D01*
X233322286Y-73399524D01*
X233322286Y-72129524D01*
X234048000Y-73399524D02*
X234048000Y-72129524D01*
X234410857Y-72129524D01*
X234628572Y-72190000D01*
X234773714Y-72310952D01*
X234846286Y-72431905D01*
X234918857Y-72673810D01*
X234918857Y-72855238D01*
X234846286Y-73097143D01*
X234773714Y-73218095D01*
X234628572Y-73339048D01*
X234410857Y-73399524D01*
X234048000Y-73399524D01*
X236370286Y-73399524D02*
X235499429Y-73399524D01*
X235934857Y-73399524D02*
X235934857Y-72129524D01*
X235789714Y-72310952D01*
X235644572Y-72431905D01*
X235499429Y-72492381D01*
X169557286Y-92574524D02*
X169557286Y-91304524D01*
X170428143Y-92574524D02*
X169775000Y-91848810D01*
X170428143Y-91304524D02*
X169557286Y-92030238D01*
X171081286Y-91909286D02*
X171589286Y-91909286D01*
X171807000Y-92574524D02*
X171081286Y-92574524D01*
X171081286Y-91304524D01*
X171807000Y-91304524D01*
X172750429Y-91969762D02*
X172750429Y-92574524D01*
X172242429Y-91304524D02*
X172750429Y-91969762D01*
X173258429Y-91304524D01*
X173403572Y-92695476D02*
X174564715Y-92695476D01*
X174927572Y-91909286D02*
X175435572Y-91909286D01*
X175653286Y-92574524D02*
X174927572Y-92574524D01*
X174927572Y-91304524D01*
X175653286Y-91304524D01*
X176306429Y-92574524D02*
X176306429Y-91304524D01*
X177177286Y-92574524D01*
X177177286Y-91304524D01*
X177685286Y-91304524D02*
X178556143Y-91304524D01*
X178120714Y-92574524D02*
X178120714Y-91304524D01*
X179064143Y-91909286D02*
X179572143Y-91909286D01*
X179789857Y-92574524D02*
X179064143Y-92574524D01*
X179064143Y-91304524D01*
X179789857Y-91304524D01*
X181313857Y-92574524D02*
X180805857Y-91969762D01*
X180443000Y-92574524D02*
X180443000Y-91304524D01*
X181023572Y-91304524D01*
X181168714Y-91365000D01*
X181241286Y-91425476D01*
X181313857Y-91546429D01*
X181313857Y-91727857D01*
X181241286Y-91848810D01*
X181168714Y-91909286D01*
X181023572Y-91969762D01*
X180443000Y-91969762D01*
X182765286Y-92574524D02*
X181894429Y-92574524D01*
X182329857Y-92574524D02*
X182329857Y-91304524D01*
X182184714Y-91485952D01*
X182039572Y-91606905D01*
X181894429Y-91667381D01*
X142670286Y-54399524D02*
X142670286Y-53129524D01*
X143541143Y-54399524D02*
X142888000Y-53673810D01*
X143541143Y-53129524D02*
X142670286Y-53855238D01*
X144194286Y-53734286D02*
X144702286Y-53734286D01*
X144920000Y-54399524D02*
X144194286Y-54399524D01*
X144194286Y-53129524D01*
X144920000Y-53129524D01*
X145863429Y-53794762D02*
X145863429Y-54399524D01*
X145355429Y-53129524D02*
X145863429Y-53794762D01*
X146371429Y-53129524D01*
X146516572Y-54520476D02*
X147677715Y-54520476D01*
X148040572Y-53734286D02*
X148548572Y-53734286D01*
X148766286Y-54399524D02*
X148040572Y-54399524D01*
X148040572Y-53129524D01*
X148766286Y-53129524D01*
X150435429Y-54520476D02*
X150290286Y-54460000D01*
X150145143Y-54339048D01*
X149927429Y-54157619D01*
X149782286Y-54097143D01*
X149637143Y-54097143D01*
X149709715Y-54399524D02*
X149564572Y-54339048D01*
X149419429Y-54218095D01*
X149346858Y-53976190D01*
X149346858Y-53552857D01*
X149419429Y-53310952D01*
X149564572Y-53190000D01*
X149709715Y-53129524D01*
X150000001Y-53129524D01*
X150145143Y-53190000D01*
X150290286Y-53310952D01*
X150362858Y-53552857D01*
X150362858Y-53976190D01*
X150290286Y-54218095D01*
X150145143Y-54339048D01*
X150000001Y-54399524D01*
X149709715Y-54399524D01*
X151016000Y-53129524D02*
X151016000Y-54157619D01*
X151088572Y-54278571D01*
X151161143Y-54339048D01*
X151306286Y-54399524D01*
X151596572Y-54399524D01*
X151741714Y-54339048D01*
X151814286Y-54278571D01*
X151886857Y-54157619D01*
X151886857Y-53129524D01*
X152540000Y-54036667D02*
X153265714Y-54036667D01*
X152394857Y-54399524D02*
X152902857Y-53129524D01*
X153410857Y-54399524D01*
X154644571Y-54399524D02*
X153918857Y-54399524D01*
X153918857Y-53129524D01*
X155080000Y-54339048D02*
X155297714Y-54399524D01*
X155660571Y-54399524D01*
X155805714Y-54339048D01*
X155878285Y-54278571D01*
X155950857Y-54157619D01*
X155950857Y-54036667D01*
X155878285Y-53915714D01*
X155805714Y-53855238D01*
X155660571Y-53794762D01*
X155370285Y-53734286D01*
X155225143Y-53673810D01*
X155152571Y-53613333D01*
X155080000Y-53492381D01*
X155080000Y-53371429D01*
X155152571Y-53250476D01*
X155225143Y-53190000D01*
X155370285Y-53129524D01*
X155733143Y-53129524D01*
X155950857Y-53190000D01*
X157402286Y-54399524D02*
X156531429Y-54399524D01*
X156966857Y-54399524D02*
X156966857Y-53129524D01*
X156821714Y-53310952D01*
X156676572Y-53431905D01*
X156531429Y-53492381D01*
X123340285Y-111399524D02*
X123340285Y-110129524D01*
X124211142Y-111399524D02*
X123557999Y-110673810D01*
X124211142Y-110129524D02*
X123340285Y-110855238D01*
X124864285Y-110734286D02*
X125372285Y-110734286D01*
X125589999Y-111399524D02*
X124864285Y-111399524D01*
X124864285Y-110129524D01*
X125589999Y-110129524D01*
X126533428Y-110794762D02*
X126533428Y-111399524D01*
X126025428Y-110129524D02*
X126533428Y-110794762D01*
X127041428Y-110129524D01*
X127186571Y-111520476D02*
X128347714Y-111520476D01*
X129218571Y-110734286D02*
X128710571Y-110734286D01*
X128710571Y-111399524D02*
X128710571Y-110129524D01*
X129436285Y-110129524D01*
X130307143Y-110129524D02*
X130597429Y-110129524D01*
X130742571Y-110190000D01*
X130887714Y-110310952D01*
X130960286Y-110552857D01*
X130960286Y-110976190D01*
X130887714Y-111218095D01*
X130742571Y-111339048D01*
X130597429Y-111399524D01*
X130307143Y-111399524D01*
X130162000Y-111339048D01*
X130016857Y-111218095D01*
X129944286Y-110976190D01*
X129944286Y-110552857D01*
X130016857Y-110310952D01*
X130162000Y-110190000D01*
X130307143Y-110129524D01*
X132484285Y-111399524D02*
X131976285Y-110794762D01*
X131613428Y-111399524D02*
X131613428Y-110129524D01*
X132194000Y-110129524D01*
X132339142Y-110190000D01*
X132411714Y-110250476D01*
X132484285Y-110371429D01*
X132484285Y-110552857D01*
X132411714Y-110673810D01*
X132339142Y-110734286D01*
X132194000Y-110794762D01*
X131613428Y-110794762D01*
X132992285Y-110129524D02*
X133355142Y-111399524D01*
X133645428Y-110492381D01*
X133935714Y-111399524D01*
X134298571Y-110129524D01*
X134806571Y-111036667D02*
X135532285Y-111036667D01*
X134661428Y-111399524D02*
X135169428Y-110129524D01*
X135677428Y-111399524D01*
X137056285Y-111399524D02*
X136548285Y-110794762D01*
X136185428Y-111399524D02*
X136185428Y-110129524D01*
X136766000Y-110129524D01*
X136911142Y-110190000D01*
X136983714Y-110250476D01*
X137056285Y-110371429D01*
X137056285Y-110552857D01*
X136983714Y-110673810D01*
X136911142Y-110734286D01*
X136766000Y-110794762D01*
X136185428Y-110794762D01*
X137709428Y-111399524D02*
X137709428Y-110129524D01*
X138072285Y-110129524D01*
X138290000Y-110190000D01*
X138435142Y-110310952D01*
X138507714Y-110431905D01*
X138580285Y-110673810D01*
X138580285Y-110855238D01*
X138507714Y-111097143D01*
X138435142Y-111218095D01*
X138290000Y-111339048D01*
X138072285Y-111399524D01*
X137709428Y-111399524D01*
X138870571Y-111520476D02*
X140031714Y-111520476D01*
X140322000Y-111339048D02*
X140539714Y-111399524D01*
X140902571Y-111399524D01*
X141047714Y-111339048D01*
X141120285Y-111278571D01*
X141192857Y-111157619D01*
X141192857Y-111036667D01*
X141120285Y-110915714D01*
X141047714Y-110855238D01*
X140902571Y-110794762D01*
X140612285Y-110734286D01*
X140467143Y-110673810D01*
X140394571Y-110613333D01*
X140322000Y-110492381D01*
X140322000Y-110371429D01*
X140394571Y-110250476D01*
X140467143Y-110190000D01*
X140612285Y-110129524D01*
X140975143Y-110129524D01*
X141192857Y-110190000D01*
X142571714Y-111399524D02*
X141846000Y-111399524D01*
X141846000Y-110129524D01*
X143007143Y-111036667D02*
X143732857Y-111036667D01*
X142862000Y-111399524D02*
X143370000Y-110129524D01*
X143878000Y-111399524D01*
X144313429Y-111339048D02*
X144531143Y-111399524D01*
X144894000Y-111399524D01*
X145039143Y-111339048D01*
X145111714Y-111278571D01*
X145184286Y-111157619D01*
X145184286Y-111036667D01*
X145111714Y-110915714D01*
X145039143Y-110855238D01*
X144894000Y-110794762D01*
X144603714Y-110734286D01*
X144458572Y-110673810D01*
X144386000Y-110613333D01*
X144313429Y-110492381D01*
X144313429Y-110371429D01*
X144386000Y-110250476D01*
X144458572Y-110190000D01*
X144603714Y-110129524D01*
X144966572Y-110129524D01*
X145184286Y-110190000D01*
X145837429Y-111399524D02*
X145837429Y-110129524D01*
X145837429Y-110734286D02*
X146708286Y-110734286D01*
X146708286Y-111399524D02*
X146708286Y-110129524D01*
X148232286Y-111399524D02*
X147361429Y-111399524D01*
X147796857Y-111399524D02*
X147796857Y-110129524D01*
X147651714Y-110310952D01*
X147506572Y-110431905D01*
X147361429Y-110492381D01*
X46403714Y-92399524D02*
X46403714Y-91129524D01*
X47274571Y-92399524D02*
X46621428Y-91673810D01*
X47274571Y-91129524D02*
X46403714Y-91855238D01*
X47927714Y-91734286D02*
X48435714Y-91734286D01*
X48653428Y-92399524D02*
X47927714Y-92399524D01*
X47927714Y-91129524D01*
X48653428Y-91129524D01*
X49596857Y-91794762D02*
X49596857Y-92399524D01*
X49088857Y-91129524D02*
X49596857Y-91794762D01*
X50104857Y-91129524D01*
X50250000Y-92520476D02*
X51411143Y-92520476D01*
X51774000Y-92399524D02*
X51774000Y-91129524D01*
X51774000Y-91734286D02*
X52644857Y-91734286D01*
X52644857Y-92399524D02*
X52644857Y-91129524D01*
X54168857Y-92399524D02*
X53298000Y-92399524D01*
X53733428Y-92399524D02*
X53733428Y-91129524D01*
X53588285Y-91310952D01*
X53443143Y-91431905D01*
X53298000Y-91492381D01*
X224795143Y-54399524D02*
X224795143Y-53129524D01*
X225666000Y-54399524D02*
X225012857Y-53673810D01*
X225666000Y-53129524D02*
X224795143Y-53855238D01*
X226319143Y-53734286D02*
X226827143Y-53734286D01*
X227044857Y-54399524D02*
X226319143Y-54399524D01*
X226319143Y-53129524D01*
X227044857Y-53129524D01*
X227988286Y-53794762D02*
X227988286Y-54399524D01*
X227480286Y-53129524D02*
X227988286Y-53794762D01*
X228496286Y-53129524D01*
X228641429Y-54520476D02*
X229802572Y-54520476D01*
X230165429Y-54399524D02*
X230165429Y-53129524D01*
X230165429Y-53734286D02*
X231036286Y-53734286D01*
X231036286Y-54399524D02*
X231036286Y-53129524D01*
X232052286Y-53129524D02*
X232342572Y-53129524D01*
X232487714Y-53190000D01*
X232632857Y-53310952D01*
X232705429Y-53552857D01*
X232705429Y-53976190D01*
X232632857Y-54218095D01*
X232487714Y-54339048D01*
X232342572Y-54399524D01*
X232052286Y-54399524D01*
X231907143Y-54339048D01*
X231762000Y-54218095D01*
X231689429Y-53976190D01*
X231689429Y-53552857D01*
X231762000Y-53310952D01*
X231907143Y-53190000D01*
X232052286Y-53129524D01*
X233358571Y-54399524D02*
X233358571Y-53129524D01*
X233866571Y-54036667D01*
X234374571Y-53129524D01*
X234374571Y-54399524D01*
X235100285Y-53734286D02*
X235608285Y-53734286D01*
X235825999Y-54399524D02*
X235100285Y-54399524D01*
X235100285Y-53129524D01*
X235825999Y-53129524D01*
X237277428Y-54399524D02*
X236406571Y-54399524D01*
X236841999Y-54399524D02*
X236841999Y-53129524D01*
X236696856Y-53310952D01*
X236551714Y-53431905D01*
X236406571Y-53492381D01*
X80089143Y-73399524D02*
X80089143Y-72129524D01*
X80960000Y-73399524D02*
X80306857Y-72673810D01*
X80960000Y-72129524D02*
X80089143Y-72855238D01*
X81613143Y-72734286D02*
X82121143Y-72734286D01*
X82338857Y-73399524D02*
X81613143Y-73399524D01*
X81613143Y-72129524D01*
X82338857Y-72129524D01*
X83282286Y-72794762D02*
X83282286Y-73399524D01*
X82774286Y-72129524D02*
X83282286Y-72794762D01*
X83790286Y-72129524D01*
X83935429Y-73520476D02*
X85096572Y-73520476D01*
X85459429Y-73399524D02*
X85459429Y-72129524D01*
X86983429Y-73399524D02*
X86112572Y-73399524D01*
X86548000Y-73399524D02*
X86548000Y-72129524D01*
X86402857Y-72310952D01*
X86257715Y-72431905D01*
X86112572Y-72492381D01*
X205033143Y-54399524D02*
X205033143Y-53129524D01*
X205904000Y-54399524D02*
X205250857Y-53673810D01*
X205904000Y-53129524D02*
X205033143Y-53855238D01*
X206557143Y-53734286D02*
X207065143Y-53734286D01*
X207282857Y-54399524D02*
X206557143Y-54399524D01*
X206557143Y-53129524D01*
X207282857Y-53129524D01*
X208226286Y-53794762D02*
X208226286Y-54399524D01*
X207718286Y-53129524D02*
X208226286Y-53794762D01*
X208734286Y-53129524D01*
X208879429Y-54520476D02*
X210040572Y-54520476D01*
X210403429Y-54399524D02*
X210403429Y-53129524D01*
X211129143Y-54399524D02*
X211129143Y-53129524D01*
X212000000Y-54399524D01*
X212000000Y-53129524D01*
X212653143Y-54339048D02*
X212870857Y-54399524D01*
X213233714Y-54399524D01*
X213378857Y-54339048D01*
X213451428Y-54278571D01*
X213524000Y-54157619D01*
X213524000Y-54036667D01*
X213451428Y-53915714D01*
X213378857Y-53855238D01*
X213233714Y-53794762D01*
X212943428Y-53734286D01*
X212798286Y-53673810D01*
X212725714Y-53613333D01*
X212653143Y-53492381D01*
X212653143Y-53371429D01*
X212725714Y-53250476D01*
X212798286Y-53190000D01*
X212943428Y-53129524D01*
X213306286Y-53129524D01*
X213524000Y-53190000D01*
X214177143Y-53734286D02*
X214685143Y-53734286D01*
X214902857Y-54399524D02*
X214177143Y-54399524D01*
X214177143Y-53129524D01*
X214902857Y-53129524D01*
X216426857Y-54399524D02*
X215918857Y-53794762D01*
X215556000Y-54399524D02*
X215556000Y-53129524D01*
X216136572Y-53129524D01*
X216281714Y-53190000D01*
X216354286Y-53250476D01*
X216426857Y-53371429D01*
X216426857Y-53552857D01*
X216354286Y-53673810D01*
X216281714Y-53734286D01*
X216136572Y-53794762D01*
X215556000Y-53794762D01*
X216862286Y-53129524D02*
X217733143Y-53129524D01*
X217297714Y-54399524D02*
X217297714Y-53129524D01*
X219039429Y-54399524D02*
X218168572Y-54399524D01*
X218604000Y-54399524D02*
X218604000Y-53129524D01*
X218458857Y-53310952D01*
X218313715Y-53431905D01*
X218168572Y-53492381D01*
X65621428Y-92399524D02*
X65621428Y-91129524D01*
X66492285Y-92399524D02*
X65839142Y-91673810D01*
X66492285Y-91129524D02*
X65621428Y-91855238D01*
X67145428Y-91734286D02*
X67653428Y-91734286D01*
X67871142Y-92399524D02*
X67145428Y-92399524D01*
X67145428Y-91129524D01*
X67871142Y-91129524D01*
X68814571Y-91794762D02*
X68814571Y-92399524D01*
X68306571Y-91129524D02*
X68814571Y-91794762D01*
X69322571Y-91129524D01*
X69467714Y-92520476D02*
X70628857Y-92520476D01*
X71427143Y-91129524D02*
X71427143Y-92036667D01*
X71354571Y-92218095D01*
X71209428Y-92339048D01*
X70991714Y-92399524D01*
X70846571Y-92399524D01*
X72951143Y-92399524D02*
X72080286Y-92399524D01*
X72515714Y-92399524D02*
X72515714Y-91129524D01*
X72370571Y-91310952D01*
X72225429Y-91431905D01*
X72080286Y-91492381D01*
X84440000Y-92399524D02*
X84440000Y-91129524D01*
X85310857Y-92399524D02*
X84657714Y-91673810D01*
X85310857Y-91129524D02*
X84440000Y-91855238D01*
X85964000Y-91734286D02*
X86472000Y-91734286D01*
X86689714Y-92399524D02*
X85964000Y-92399524D01*
X85964000Y-91129524D01*
X86689714Y-91129524D01*
X87633143Y-91794762D02*
X87633143Y-92399524D01*
X87125143Y-91129524D02*
X87633143Y-91794762D01*
X88141143Y-91129524D01*
X88286286Y-92520476D02*
X89447429Y-92520476D01*
X89810286Y-92399524D02*
X89810286Y-91129524D01*
X90681143Y-92399524D02*
X90028000Y-91673810D01*
X90681143Y-91129524D02*
X89810286Y-91855238D01*
X92132572Y-92399524D02*
X91261715Y-92399524D01*
X91697143Y-92399524D02*
X91697143Y-91129524D01*
X91552000Y-91310952D01*
X91406858Y-91431905D01*
X91261715Y-91492381D01*
X103585143Y-92399524D02*
X103585143Y-91129524D01*
X104456000Y-92399524D02*
X103802857Y-91673810D01*
X104456000Y-91129524D02*
X103585143Y-91855238D01*
X105109143Y-91734286D02*
X105617143Y-91734286D01*
X105834857Y-92399524D02*
X105109143Y-92399524D01*
X105109143Y-91129524D01*
X105834857Y-91129524D01*
X106778286Y-91794762D02*
X106778286Y-92399524D01*
X106270286Y-91129524D02*
X106778286Y-91794762D01*
X107286286Y-91129524D01*
X107431429Y-92520476D02*
X108592572Y-92520476D01*
X109681143Y-92399524D02*
X108955429Y-92399524D01*
X108955429Y-91129524D01*
X110987429Y-92399524D02*
X110116572Y-92399524D01*
X110552000Y-92399524D02*
X110552000Y-91129524D01*
X110406857Y-91310952D01*
X110261715Y-91431905D01*
X110116572Y-91492381D01*
X206412000Y-130399524D02*
X206412000Y-129129524D01*
X207282857Y-130399524D02*
X206629714Y-129673810D01*
X207282857Y-129129524D02*
X206412000Y-129855238D01*
X207936000Y-129734286D02*
X208444000Y-129734286D01*
X208661714Y-130399524D02*
X207936000Y-130399524D01*
X207936000Y-129129524D01*
X208661714Y-129129524D01*
X209605143Y-129794762D02*
X209605143Y-130399524D01*
X209097143Y-129129524D02*
X209605143Y-129794762D01*
X210113143Y-129129524D01*
X210258286Y-130520476D02*
X211419429Y-130520476D01*
X212508000Y-130399524D02*
X211782286Y-130399524D01*
X211782286Y-129129524D01*
X213016000Y-129734286D02*
X213524000Y-129734286D01*
X213741714Y-130399524D02*
X213016000Y-130399524D01*
X213016000Y-129129524D01*
X213741714Y-129129524D01*
X214902857Y-129734286D02*
X214394857Y-129734286D01*
X214394857Y-130399524D02*
X214394857Y-129129524D01*
X215120571Y-129129524D01*
X215483429Y-129129524D02*
X216354286Y-129129524D01*
X215918857Y-130399524D02*
X215918857Y-129129524D01*
X217660572Y-130399524D02*
X216789715Y-130399524D01*
X217225143Y-130399524D02*
X217225143Y-129129524D01*
X217080000Y-129310952D01*
X216934858Y-129431905D01*
X216789715Y-129492381D01*
X130702857Y-73399524D02*
X130702857Y-72129524D01*
X131573714Y-73399524D02*
X130920571Y-72673810D01*
X131573714Y-72129524D02*
X130702857Y-72855238D01*
X132226857Y-72734286D02*
X132734857Y-72734286D01*
X132952571Y-73399524D02*
X132226857Y-73399524D01*
X132226857Y-72129524D01*
X132952571Y-72129524D01*
X133896000Y-72794762D02*
X133896000Y-73399524D01*
X133388000Y-72129524D02*
X133896000Y-72794762D01*
X134404000Y-72129524D01*
X134549143Y-73520476D02*
X135710286Y-73520476D01*
X136798857Y-73399524D02*
X136073143Y-73399524D01*
X136073143Y-72129524D01*
X137306857Y-72734286D02*
X137814857Y-72734286D01*
X138032571Y-73399524D02*
X137306857Y-73399524D01*
X137306857Y-72129524D01*
X138032571Y-72129524D01*
X139193714Y-72734286D02*
X138685714Y-72734286D01*
X138685714Y-73399524D02*
X138685714Y-72129524D01*
X139411428Y-72129524D01*
X139774286Y-72129524D02*
X140645143Y-72129524D01*
X140209714Y-73399524D02*
X140209714Y-72129524D01*
X140790286Y-73520476D02*
X141951429Y-73520476D01*
X142822286Y-72734286D02*
X143040000Y-72794762D01*
X143112572Y-72855238D01*
X143185143Y-72976190D01*
X143185143Y-73157619D01*
X143112572Y-73278571D01*
X143040000Y-73339048D01*
X142894858Y-73399524D01*
X142314286Y-73399524D01*
X142314286Y-72129524D01*
X142822286Y-72129524D01*
X142967429Y-72190000D01*
X143040000Y-72250476D01*
X143112572Y-72371429D01*
X143112572Y-72492381D01*
X143040000Y-72613333D01*
X142967429Y-72673810D01*
X142822286Y-72734286D01*
X142314286Y-72734286D01*
X144709143Y-73399524D02*
X144201143Y-72794762D01*
X143838286Y-73399524D02*
X143838286Y-72129524D01*
X144418858Y-72129524D01*
X144564000Y-72190000D01*
X144636572Y-72250476D01*
X144709143Y-72371429D01*
X144709143Y-72552857D01*
X144636572Y-72673810D01*
X144564000Y-72734286D01*
X144418858Y-72794762D01*
X143838286Y-72794762D01*
X145289715Y-73036667D02*
X146015429Y-73036667D01*
X145144572Y-73399524D02*
X145652572Y-72129524D01*
X146160572Y-73399524D01*
X147539429Y-73278571D02*
X147466858Y-73339048D01*
X147249144Y-73399524D01*
X147104001Y-73399524D01*
X146886286Y-73339048D01*
X146741144Y-73218095D01*
X146668572Y-73097143D01*
X146596001Y-72855238D01*
X146596001Y-72673810D01*
X146668572Y-72431905D01*
X146741144Y-72310952D01*
X146886286Y-72190000D01*
X147104001Y-72129524D01*
X147249144Y-72129524D01*
X147466858Y-72190000D01*
X147539429Y-72250476D01*
X148192572Y-72734286D02*
X148700572Y-72734286D01*
X148918286Y-73399524D02*
X148192572Y-73399524D01*
X148192572Y-72129524D01*
X148918286Y-72129524D01*
X150369715Y-73399524D02*
X149498858Y-73399524D01*
X149934286Y-73399524D02*
X149934286Y-72129524D01*
X149789143Y-72310952D01*
X149644001Y-72431905D01*
X149498858Y-72492381D01*
X74831143Y-111399524D02*
X74831143Y-110129524D01*
X75702000Y-111399524D02*
X75048857Y-110673810D01*
X75702000Y-110129524D02*
X74831143Y-110855238D01*
X76355143Y-110734286D02*
X76863143Y-110734286D01*
X77080857Y-111399524D02*
X76355143Y-111399524D01*
X76355143Y-110129524D01*
X77080857Y-110129524D01*
X78024286Y-110794762D02*
X78024286Y-111399524D01*
X77516286Y-110129524D02*
X78024286Y-110794762D01*
X78532286Y-110129524D01*
X78677429Y-111520476D02*
X79838572Y-111520476D01*
X80201429Y-111399524D02*
X80201429Y-110129524D01*
X80709429Y-111036667D01*
X81217429Y-110129524D01*
X81217429Y-111399524D01*
X82741429Y-111399524D02*
X81870572Y-111399524D01*
X82306000Y-111399524D02*
X82306000Y-110129524D01*
X82160857Y-110310952D01*
X82015715Y-110431905D01*
X81870572Y-110492381D01*
X124396000Y-54399524D02*
X124396000Y-53129524D01*
X125266857Y-54399524D02*
X124613714Y-53673810D01*
X125266857Y-53129524D02*
X124396000Y-53855238D01*
X125920000Y-53734286D02*
X126428000Y-53734286D01*
X126645714Y-54399524D02*
X125920000Y-54399524D01*
X125920000Y-53129524D01*
X126645714Y-53129524D01*
X127589143Y-53794762D02*
X127589143Y-54399524D01*
X127081143Y-53129524D02*
X127589143Y-53794762D01*
X128097143Y-53129524D01*
X128242286Y-54520476D02*
X129403429Y-54520476D01*
X129766286Y-54399524D02*
X129766286Y-53129524D01*
X130274286Y-54036667D01*
X130782286Y-53129524D01*
X130782286Y-54399524D01*
X131508000Y-54399524D02*
X131508000Y-53129524D01*
X132233714Y-54399524D02*
X132233714Y-53129524D01*
X133104571Y-54399524D01*
X133104571Y-53129524D01*
X133830285Y-53129524D02*
X133830285Y-54157619D01*
X133902857Y-54278571D01*
X133975428Y-54339048D01*
X134120571Y-54399524D01*
X134410857Y-54399524D01*
X134555999Y-54339048D01*
X134628571Y-54278571D01*
X134701142Y-54157619D01*
X134701142Y-53129524D01*
X135354285Y-54339048D02*
X135571999Y-54399524D01*
X135934856Y-54399524D01*
X136079999Y-54339048D01*
X136152570Y-54278571D01*
X136225142Y-54157619D01*
X136225142Y-54036667D01*
X136152570Y-53915714D01*
X136079999Y-53855238D01*
X135934856Y-53794762D01*
X135644570Y-53734286D01*
X135499428Y-53673810D01*
X135426856Y-53613333D01*
X135354285Y-53492381D01*
X135354285Y-53371429D01*
X135426856Y-53250476D01*
X135499428Y-53190000D01*
X135644570Y-53129524D01*
X136007428Y-53129524D01*
X136225142Y-53190000D01*
X137676571Y-54399524D02*
X136805714Y-54399524D01*
X137241142Y-54399524D02*
X137241142Y-53129524D01*
X137095999Y-53310952D01*
X136950857Y-53431905D01*
X136805714Y-53492381D01*
X55903714Y-111399524D02*
X55903714Y-110129524D01*
X56774571Y-111399524D02*
X56121428Y-110673810D01*
X56774571Y-110129524D02*
X55903714Y-110855238D01*
X57427714Y-110734286D02*
X57935714Y-110734286D01*
X58153428Y-111399524D02*
X57427714Y-111399524D01*
X57427714Y-110129524D01*
X58153428Y-110129524D01*
X59096857Y-110794762D02*
X59096857Y-111399524D01*
X58588857Y-110129524D02*
X59096857Y-110794762D01*
X59604857Y-110129524D01*
X59750000Y-111520476D02*
X60911143Y-111520476D01*
X61274000Y-111399524D02*
X61274000Y-110129524D01*
X62144857Y-111399524D01*
X62144857Y-110129524D01*
X63668857Y-111399524D02*
X62798000Y-111399524D01*
X63233428Y-111399524D02*
X63233428Y-110129524D01*
X63088285Y-110310952D01*
X62943143Y-110431905D01*
X62798000Y-110492381D01*
X98653714Y-73399524D02*
X98653714Y-72129524D01*
X99524571Y-73399524D02*
X98871428Y-72673810D01*
X99524571Y-72129524D02*
X98653714Y-72855238D01*
X100177714Y-72734286D02*
X100685714Y-72734286D01*
X100903428Y-73399524D02*
X100177714Y-73399524D01*
X100177714Y-72129524D01*
X100903428Y-72129524D01*
X101846857Y-72794762D02*
X101846857Y-73399524D01*
X101338857Y-72129524D02*
X101846857Y-72794762D01*
X102354857Y-72129524D01*
X102500000Y-73520476D02*
X103661143Y-73520476D01*
X104314286Y-72129524D02*
X104604572Y-72129524D01*
X104749714Y-72190000D01*
X104894857Y-72310952D01*
X104967429Y-72552857D01*
X104967429Y-72976190D01*
X104894857Y-73218095D01*
X104749714Y-73339048D01*
X104604572Y-73399524D01*
X104314286Y-73399524D01*
X104169143Y-73339048D01*
X104024000Y-73218095D01*
X103951429Y-72976190D01*
X103951429Y-72552857D01*
X104024000Y-72310952D01*
X104169143Y-72190000D01*
X104314286Y-72129524D01*
X106418857Y-73399524D02*
X105548000Y-73399524D01*
X105983428Y-73399524D02*
X105983428Y-72129524D01*
X105838285Y-72310952D01*
X105693143Y-72431905D01*
X105548000Y-72492381D01*
X117690000Y-73399524D02*
X117690000Y-72129524D01*
X118560857Y-73399524D02*
X117907714Y-72673810D01*
X118560857Y-72129524D02*
X117690000Y-72855238D01*
X119214000Y-72734286D02*
X119722000Y-72734286D01*
X119939714Y-73399524D02*
X119214000Y-73399524D01*
X119214000Y-72129524D01*
X119939714Y-72129524D01*
X120883143Y-72794762D02*
X120883143Y-73399524D01*
X120375143Y-72129524D02*
X120883143Y-72794762D01*
X121391143Y-72129524D01*
X121536286Y-73520476D02*
X122697429Y-73520476D01*
X123060286Y-73399524D02*
X123060286Y-72129524D01*
X123640858Y-72129524D01*
X123786000Y-72190000D01*
X123858572Y-72250476D01*
X123931143Y-72371429D01*
X123931143Y-72552857D01*
X123858572Y-72673810D01*
X123786000Y-72734286D01*
X123640858Y-72794762D01*
X123060286Y-72794762D01*
X125382572Y-73399524D02*
X124511715Y-73399524D01*
X124947143Y-73399524D02*
X124947143Y-72129524D01*
X124802000Y-72310952D01*
X124656858Y-72431905D01*
X124511715Y-72492381D01*
X240275429Y-73399524D02*
X240275429Y-72129524D01*
X241146286Y-73399524D02*
X240493143Y-72673810D01*
X241146286Y-72129524D02*
X240275429Y-72855238D01*
X241799429Y-72734286D02*
X242307429Y-72734286D01*
X242525143Y-73399524D02*
X241799429Y-73399524D01*
X241799429Y-72129524D01*
X242525143Y-72129524D01*
X243468572Y-72794762D02*
X243468572Y-73399524D01*
X242960572Y-72129524D02*
X243468572Y-72794762D01*
X243976572Y-72129524D01*
X244121715Y-73520476D02*
X245282858Y-73520476D01*
X245645715Y-73399524D02*
X245645715Y-72129524D01*
X246226287Y-72129524D01*
X246371429Y-72190000D01*
X246444001Y-72250476D01*
X246516572Y-72371429D01*
X246516572Y-72552857D01*
X246444001Y-72673810D01*
X246371429Y-72734286D01*
X246226287Y-72794762D01*
X245645715Y-72794762D01*
X247097144Y-73036667D02*
X247822858Y-73036667D01*
X246952001Y-73399524D02*
X247460001Y-72129524D01*
X247968001Y-73399524D01*
X249274287Y-72190000D02*
X249129144Y-72129524D01*
X248911430Y-72129524D01*
X248693715Y-72190000D01*
X248548573Y-72310952D01*
X248476001Y-72431905D01*
X248403430Y-72673810D01*
X248403430Y-72855238D01*
X248476001Y-73097143D01*
X248548573Y-73218095D01*
X248693715Y-73339048D01*
X248911430Y-73399524D01*
X249056573Y-73399524D01*
X249274287Y-73339048D01*
X249346858Y-73278571D01*
X249346858Y-72855238D01*
X249056573Y-72855238D01*
X250000001Y-72734286D02*
X250508001Y-72734286D01*
X250725715Y-73399524D02*
X250000001Y-73399524D01*
X250000001Y-72129524D01*
X250725715Y-72129524D01*
X251016001Y-73520476D02*
X252177144Y-73520476D01*
X252540001Y-73399524D02*
X252540001Y-72129524D01*
X252902858Y-72129524D01*
X253120573Y-72190000D01*
X253265715Y-72310952D01*
X253338287Y-72431905D01*
X253410858Y-72673810D01*
X253410858Y-72855238D01*
X253338287Y-73097143D01*
X253265715Y-73218095D01*
X253120573Y-73339048D01*
X252902858Y-73399524D01*
X252540001Y-73399524D01*
X254354287Y-72129524D02*
X254644573Y-72129524D01*
X254789715Y-72190000D01*
X254934858Y-72310952D01*
X255007430Y-72552857D01*
X255007430Y-72976190D01*
X254934858Y-73218095D01*
X254789715Y-73339048D01*
X254644573Y-73399524D01*
X254354287Y-73399524D01*
X254209144Y-73339048D01*
X254064001Y-73218095D01*
X253991430Y-72976190D01*
X253991430Y-72552857D01*
X254064001Y-72310952D01*
X254209144Y-72190000D01*
X254354287Y-72129524D01*
X255515429Y-72129524D02*
X255878286Y-73399524D01*
X256168572Y-72492381D01*
X256458858Y-73399524D01*
X256821715Y-72129524D01*
X257402286Y-73399524D02*
X257402286Y-72129524D01*
X258273143Y-73399524D01*
X258273143Y-72129524D01*
X259797143Y-73399524D02*
X258926286Y-73399524D01*
X259361714Y-73399524D02*
X259361714Y-72129524D01*
X259216571Y-72310952D01*
X259071429Y-72431905D01*
X258926286Y-72492381D01*
X241944571Y-54399524D02*
X241944571Y-53129524D01*
X242815428Y-54399524D02*
X242162285Y-53673810D01*
X242815428Y-53129524D02*
X241944571Y-53855238D01*
X243468571Y-53734286D02*
X243976571Y-53734286D01*
X244194285Y-54399524D02*
X243468571Y-54399524D01*
X243468571Y-53129524D01*
X244194285Y-53129524D01*
X245137714Y-53794762D02*
X245137714Y-54399524D01*
X244629714Y-53129524D02*
X245137714Y-53794762D01*
X245645714Y-53129524D01*
X245790857Y-54520476D02*
X246952000Y-54520476D01*
X247314857Y-54399524D02*
X247314857Y-53129524D01*
X247895429Y-53129524D01*
X248040571Y-53190000D01*
X248113143Y-53250476D01*
X248185714Y-53371429D01*
X248185714Y-53552857D01*
X248113143Y-53673810D01*
X248040571Y-53734286D01*
X247895429Y-53794762D01*
X247314857Y-53794762D01*
X248766286Y-54036667D02*
X249492000Y-54036667D01*
X248621143Y-54399524D02*
X249129143Y-53129524D01*
X249637143Y-54399524D01*
X250943429Y-53190000D02*
X250798286Y-53129524D01*
X250580572Y-53129524D01*
X250362857Y-53190000D01*
X250217715Y-53310952D01*
X250145143Y-53431905D01*
X250072572Y-53673810D01*
X250072572Y-53855238D01*
X250145143Y-54097143D01*
X250217715Y-54218095D01*
X250362857Y-54339048D01*
X250580572Y-54399524D01*
X250725715Y-54399524D01*
X250943429Y-54339048D01*
X251016000Y-54278571D01*
X251016000Y-53855238D01*
X250725715Y-53855238D01*
X251669143Y-53734286D02*
X252177143Y-53734286D01*
X252394857Y-54399524D02*
X251669143Y-54399524D01*
X251669143Y-53129524D01*
X252394857Y-53129524D01*
X252685143Y-54520476D02*
X253846286Y-54520476D01*
X254209143Y-53129524D02*
X254209143Y-54157619D01*
X254281715Y-54278571D01*
X254354286Y-54339048D01*
X254499429Y-54399524D01*
X254789715Y-54399524D01*
X254934857Y-54339048D01*
X255007429Y-54278571D01*
X255080000Y-54157619D01*
X255080000Y-53129524D01*
X255805714Y-54399524D02*
X255805714Y-53129524D01*
X256386286Y-53129524D01*
X256531428Y-53190000D01*
X256604000Y-53250476D01*
X256676571Y-53371429D01*
X256676571Y-53552857D01*
X256604000Y-53673810D01*
X256531428Y-53734286D01*
X256386286Y-53794762D01*
X255805714Y-53794762D01*
X258128000Y-54399524D02*
X257257143Y-54399524D01*
X257692571Y-54399524D02*
X257692571Y-53129524D01*
X257547428Y-53310952D01*
X257402286Y-53431905D01*
X257257143Y-53492381D01*
X243323428Y-26399524D02*
X243323428Y-25129524D01*
X244194285Y-26399524D02*
X243541142Y-25673810D01*
X244194285Y-25129524D02*
X243323428Y-25855238D01*
X244847428Y-25734286D02*
X245355428Y-25734286D01*
X245573142Y-26399524D02*
X244847428Y-26399524D01*
X244847428Y-25129524D01*
X245573142Y-25129524D01*
X246516571Y-25794762D02*
X246516571Y-26399524D01*
X246008571Y-25129524D02*
X246516571Y-25794762D01*
X247024571Y-25129524D01*
X247169714Y-26520476D02*
X248330857Y-26520476D01*
X248693714Y-26399524D02*
X248693714Y-25129524D01*
X249274286Y-25129524D01*
X249419428Y-25190000D01*
X249492000Y-25250476D01*
X249564571Y-25371429D01*
X249564571Y-25552857D01*
X249492000Y-25673810D01*
X249419428Y-25734286D01*
X249274286Y-25794762D01*
X248693714Y-25794762D01*
X250145143Y-26036667D02*
X250870857Y-26036667D01*
X250000000Y-26399524D02*
X250508000Y-25129524D01*
X251016000Y-26399524D01*
X251524000Y-25129524D02*
X251524000Y-26157619D01*
X251596572Y-26278571D01*
X251669143Y-26339048D01*
X251814286Y-26399524D01*
X252104572Y-26399524D01*
X252249714Y-26339048D01*
X252322286Y-26278571D01*
X252394857Y-26157619D01*
X252394857Y-25129524D01*
X253048000Y-26339048D02*
X253265714Y-26399524D01*
X253628571Y-26399524D01*
X253773714Y-26339048D01*
X253846285Y-26278571D01*
X253918857Y-26157619D01*
X253918857Y-26036667D01*
X253846285Y-25915714D01*
X253773714Y-25855238D01*
X253628571Y-25794762D01*
X253338285Y-25734286D01*
X253193143Y-25673810D01*
X253120571Y-25613333D01*
X253048000Y-25492381D01*
X253048000Y-25371429D01*
X253120571Y-25250476D01*
X253193143Y-25190000D01*
X253338285Y-25129524D01*
X253701143Y-25129524D01*
X253918857Y-25190000D01*
X254572000Y-25734286D02*
X255080000Y-25734286D01*
X255297714Y-26399524D02*
X254572000Y-26399524D01*
X254572000Y-25129524D01*
X255297714Y-25129524D01*
X256749143Y-26399524D02*
X255878286Y-26399524D01*
X256313714Y-26399524D02*
X256313714Y-25129524D01*
X256168571Y-25310952D01*
X256023429Y-25431905D01*
X255878286Y-25492381D01*
X109565429Y-111399524D02*
X109565429Y-110129524D01*
X110436286Y-111399524D02*
X109783143Y-110673810D01*
X110436286Y-110129524D02*
X109565429Y-110855238D01*
X111089429Y-110734286D02*
X111597429Y-110734286D01*
X111815143Y-111399524D02*
X111089429Y-111399524D01*
X111089429Y-110129524D01*
X111815143Y-110129524D01*
X112758572Y-110794762D02*
X112758572Y-111399524D01*
X112250572Y-110129524D02*
X112758572Y-110794762D01*
X113266572Y-110129524D01*
X113411715Y-111520476D02*
X114572858Y-111520476D01*
X114935715Y-111399524D02*
X114935715Y-110129524D01*
X115516287Y-110129524D01*
X115661429Y-110190000D01*
X115734001Y-110250476D01*
X115806572Y-110371429D01*
X115806572Y-110552857D01*
X115734001Y-110673810D01*
X115661429Y-110734286D01*
X115516287Y-110794762D01*
X114935715Y-110794762D01*
X116459715Y-110734286D02*
X116967715Y-110734286D01*
X117185429Y-111399524D02*
X116459715Y-111399524D01*
X116459715Y-110129524D01*
X117185429Y-110129524D01*
X118709429Y-111399524D02*
X118201429Y-110794762D01*
X117838572Y-111399524D02*
X117838572Y-110129524D01*
X118419144Y-110129524D01*
X118564286Y-110190000D01*
X118636858Y-110250476D01*
X118709429Y-110371429D01*
X118709429Y-110552857D01*
X118636858Y-110673810D01*
X118564286Y-110734286D01*
X118419144Y-110794762D01*
X117838572Y-110794762D01*
X119362572Y-111399524D02*
X119362572Y-110129524D01*
X120378572Y-110129524D02*
X120668858Y-110129524D01*
X120814000Y-110190000D01*
X120959143Y-110310952D01*
X121031715Y-110552857D01*
X121031715Y-110976190D01*
X120959143Y-111218095D01*
X120814000Y-111339048D01*
X120668858Y-111399524D01*
X120378572Y-111399524D01*
X120233429Y-111339048D01*
X120088286Y-111218095D01*
X120015715Y-110976190D01*
X120015715Y-110552857D01*
X120088286Y-110310952D01*
X120233429Y-110190000D01*
X120378572Y-110129524D01*
X121684857Y-111399524D02*
X121684857Y-110129524D01*
X122047714Y-110129524D01*
X122265429Y-110190000D01*
X122410571Y-110310952D01*
X122483143Y-110431905D01*
X122555714Y-110673810D01*
X122555714Y-110855238D01*
X122483143Y-111097143D01*
X122410571Y-111218095D01*
X122265429Y-111339048D01*
X122047714Y-111399524D01*
X121684857Y-111399524D01*
X124007143Y-111399524D02*
X123136286Y-111399524D01*
X123571714Y-111399524D02*
X123571714Y-110129524D01*
X123426571Y-110310952D01*
X123281429Y-110431905D01*
X123136286Y-110492381D01*
X205686286Y-26399524D02*
X205686286Y-25129524D01*
X206557143Y-26399524D02*
X205904000Y-25673810D01*
X206557143Y-25129524D02*
X205686286Y-25855238D01*
X207210286Y-25734286D02*
X207718286Y-25734286D01*
X207936000Y-26399524D02*
X207210286Y-26399524D01*
X207210286Y-25129524D01*
X207936000Y-25129524D01*
X208879429Y-25794762D02*
X208879429Y-26399524D01*
X208371429Y-25129524D02*
X208879429Y-25794762D01*
X209387429Y-25129524D01*
X209532572Y-26520476D02*
X210693715Y-26520476D01*
X211056572Y-26399524D02*
X211056572Y-25129524D01*
X211637144Y-25129524D01*
X211782286Y-25190000D01*
X211854858Y-25250476D01*
X211927429Y-25371429D01*
X211927429Y-25552857D01*
X211854858Y-25673810D01*
X211782286Y-25734286D01*
X211637144Y-25794762D01*
X211056572Y-25794762D01*
X213451429Y-26399524D02*
X212943429Y-25794762D01*
X212580572Y-26399524D02*
X212580572Y-25129524D01*
X213161144Y-25129524D01*
X213306286Y-25190000D01*
X213378858Y-25250476D01*
X213451429Y-25371429D01*
X213451429Y-25552857D01*
X213378858Y-25673810D01*
X213306286Y-25734286D01*
X213161144Y-25794762D01*
X212580572Y-25794762D01*
X214104572Y-26399524D02*
X214104572Y-25129524D01*
X214830286Y-26399524D02*
X214830286Y-25129524D01*
X215701143Y-26399524D01*
X215701143Y-25129524D01*
X216209143Y-25129524D02*
X217080000Y-25129524D01*
X216644571Y-26399524D02*
X216644571Y-25129524D01*
X218386286Y-26399524D02*
X217515429Y-26399524D01*
X217950857Y-26399524D02*
X217950857Y-25129524D01*
X217805714Y-25310952D01*
X217660572Y-25431905D01*
X217515429Y-25492381D01*
X138537143Y-92399524D02*
X138537143Y-91129524D01*
X139408000Y-92399524D02*
X138754857Y-91673810D01*
X139408000Y-91129524D02*
X138537143Y-91855238D01*
X140061143Y-91734286D02*
X140569143Y-91734286D01*
X140786857Y-92399524D02*
X140061143Y-92399524D01*
X140061143Y-91129524D01*
X140786857Y-91129524D01*
X141730286Y-91794762D02*
X141730286Y-92399524D01*
X141222286Y-91129524D02*
X141730286Y-91794762D01*
X142238286Y-91129524D01*
X142383429Y-92520476D02*
X143544572Y-92520476D01*
X144923429Y-92520476D02*
X144778286Y-92460000D01*
X144633143Y-92339048D01*
X144415429Y-92157619D01*
X144270286Y-92097143D01*
X144125143Y-92097143D01*
X144197715Y-92399524D02*
X144052572Y-92339048D01*
X143907429Y-92218095D01*
X143834858Y-91976190D01*
X143834858Y-91552857D01*
X143907429Y-91310952D01*
X144052572Y-91190000D01*
X144197715Y-91129524D01*
X144488001Y-91129524D01*
X144633143Y-91190000D01*
X144778286Y-91310952D01*
X144850858Y-91552857D01*
X144850858Y-91976190D01*
X144778286Y-92218095D01*
X144633143Y-92339048D01*
X144488001Y-92399524D01*
X144197715Y-92399524D01*
X145504000Y-91129524D02*
X145504000Y-92157619D01*
X145576572Y-92278571D01*
X145649143Y-92339048D01*
X145794286Y-92399524D01*
X146084572Y-92399524D01*
X146229714Y-92339048D01*
X146302286Y-92278571D01*
X146374857Y-92157619D01*
X146374857Y-91129524D01*
X147390857Y-91129524D02*
X147681143Y-91129524D01*
X147826285Y-91190000D01*
X147971428Y-91310952D01*
X148044000Y-91552857D01*
X148044000Y-91976190D01*
X147971428Y-92218095D01*
X147826285Y-92339048D01*
X147681143Y-92399524D01*
X147390857Y-92399524D01*
X147245714Y-92339048D01*
X147100571Y-92218095D01*
X147028000Y-91976190D01*
X147028000Y-91552857D01*
X147100571Y-91310952D01*
X147245714Y-91190000D01*
X147390857Y-91129524D01*
X148479428Y-91129524D02*
X149350285Y-91129524D01*
X148914856Y-92399524D02*
X148914856Y-91129524D01*
X149858285Y-91734286D02*
X150366285Y-91734286D01*
X150583999Y-92399524D02*
X149858285Y-92399524D01*
X149858285Y-91129524D01*
X150583999Y-91129524D01*
X152035428Y-92399524D02*
X151164571Y-92399524D01*
X151599999Y-92399524D02*
X151599999Y-91129524D01*
X151454856Y-91310952D01*
X151309714Y-91431905D01*
X151164571Y-91492381D01*
X243686286Y-130399524D02*
X243686286Y-129129524D01*
X244557143Y-130399524D02*
X243904000Y-129673810D01*
X244557143Y-129129524D02*
X243686286Y-129855238D01*
X245210286Y-129734286D02*
X245718286Y-129734286D01*
X245936000Y-130399524D02*
X245210286Y-130399524D01*
X245210286Y-129129524D01*
X245936000Y-129129524D01*
X246879429Y-129794762D02*
X246879429Y-130399524D01*
X246371429Y-129129524D02*
X246879429Y-129794762D01*
X247387429Y-129129524D01*
X247532572Y-130520476D02*
X248693715Y-130520476D01*
X249927429Y-130399524D02*
X249419429Y-129794762D01*
X249056572Y-130399524D02*
X249056572Y-129129524D01*
X249637144Y-129129524D01*
X249782286Y-129190000D01*
X249854858Y-129250476D01*
X249927429Y-129371429D01*
X249927429Y-129552857D01*
X249854858Y-129673810D01*
X249782286Y-129734286D01*
X249637144Y-129794762D01*
X249056572Y-129794762D01*
X250580572Y-130399524D02*
X250580572Y-129129524D01*
X252104572Y-129190000D02*
X251959429Y-129129524D01*
X251741715Y-129129524D01*
X251524000Y-129190000D01*
X251378858Y-129310952D01*
X251306286Y-129431905D01*
X251233715Y-129673810D01*
X251233715Y-129855238D01*
X251306286Y-130097143D01*
X251378858Y-130218095D01*
X251524000Y-130339048D01*
X251741715Y-130399524D01*
X251886858Y-130399524D01*
X252104572Y-130339048D01*
X252177143Y-130278571D01*
X252177143Y-129855238D01*
X251886858Y-129855238D01*
X252830286Y-130399524D02*
X252830286Y-129129524D01*
X252830286Y-129734286D02*
X253701143Y-129734286D01*
X253701143Y-130399524D02*
X253701143Y-129129524D01*
X254209143Y-129129524D02*
X255080000Y-129129524D01*
X254644571Y-130399524D02*
X254644571Y-129129524D01*
X256386286Y-130399524D02*
X255515429Y-130399524D01*
X255950857Y-130399524D02*
X255950857Y-129129524D01*
X255805714Y-129310952D01*
X255660572Y-129431905D01*
X255515429Y-129492381D01*
X105630143Y-130399524D02*
X105630143Y-129129524D01*
X106501000Y-130399524D02*
X105847857Y-129673810D01*
X106501000Y-129129524D02*
X105630143Y-129855238D01*
X107154143Y-129734286D02*
X107662143Y-129734286D01*
X107879857Y-130399524D02*
X107154143Y-130399524D01*
X107154143Y-129129524D01*
X107879857Y-129129524D01*
X108823286Y-129794762D02*
X108823286Y-130399524D01*
X108315286Y-129129524D02*
X108823286Y-129794762D01*
X109331286Y-129129524D01*
X109476429Y-130520476D02*
X110637572Y-130520476D01*
X111871286Y-130399524D02*
X111363286Y-129794762D01*
X111000429Y-130399524D02*
X111000429Y-129129524D01*
X111581001Y-129129524D01*
X111726143Y-129190000D01*
X111798715Y-129250476D01*
X111871286Y-129371429D01*
X111871286Y-129552857D01*
X111798715Y-129673810D01*
X111726143Y-129734286D01*
X111581001Y-129794762D01*
X111000429Y-129794762D01*
X112524429Y-130399524D02*
X112524429Y-129129524D01*
X114048429Y-129190000D02*
X113903286Y-129129524D01*
X113685572Y-129129524D01*
X113467857Y-129190000D01*
X113322715Y-129310952D01*
X113250143Y-129431905D01*
X113177572Y-129673810D01*
X113177572Y-129855238D01*
X113250143Y-130097143D01*
X113322715Y-130218095D01*
X113467857Y-130339048D01*
X113685572Y-130399524D01*
X113830715Y-130399524D01*
X114048429Y-130339048D01*
X114121000Y-130278571D01*
X114121000Y-129855238D01*
X113830715Y-129855238D01*
X114774143Y-130399524D02*
X114774143Y-129129524D01*
X114774143Y-129734286D02*
X115645000Y-129734286D01*
X115645000Y-130399524D02*
X115645000Y-129129524D01*
X116153000Y-129129524D02*
X117023857Y-129129524D01*
X116588428Y-130399524D02*
X116588428Y-129129524D01*
X117169000Y-130520476D02*
X118330143Y-130520476D01*
X118620429Y-130036667D02*
X119346143Y-130036667D01*
X118475286Y-130399524D02*
X118983286Y-129129524D01*
X119491286Y-130399524D01*
X120725000Y-130399524D02*
X119999286Y-130399524D01*
X119999286Y-129129524D01*
X121015286Y-129129524D02*
X121886143Y-129129524D01*
X121450714Y-130399524D02*
X121450714Y-129129524D01*
X123192429Y-130399524D02*
X122321572Y-130399524D01*
X122757000Y-130399524D02*
X122757000Y-129129524D01*
X122611857Y-129310952D01*
X122466715Y-129431905D01*
X122321572Y-129492381D01*
X75315857Y-130399524D02*
X75315857Y-129129524D01*
X76186714Y-130399524D02*
X75533571Y-129673810D01*
X76186714Y-129129524D02*
X75315857Y-129855238D01*
X76839857Y-129734286D02*
X77347857Y-129734286D01*
X77565571Y-130399524D02*
X76839857Y-130399524D01*
X76839857Y-129129524D01*
X77565571Y-129129524D01*
X78509000Y-129794762D02*
X78509000Y-130399524D01*
X78001000Y-129129524D02*
X78509000Y-129794762D01*
X79017000Y-129129524D01*
X79162143Y-130520476D02*
X80323286Y-130520476D01*
X81557000Y-130399524D02*
X81049000Y-129794762D01*
X80686143Y-130399524D02*
X80686143Y-129129524D01*
X81266715Y-129129524D01*
X81411857Y-129190000D01*
X81484429Y-129250476D01*
X81557000Y-129371429D01*
X81557000Y-129552857D01*
X81484429Y-129673810D01*
X81411857Y-129734286D01*
X81266715Y-129794762D01*
X80686143Y-129794762D01*
X82210143Y-130399524D02*
X82210143Y-129129524D01*
X83734143Y-129190000D02*
X83589000Y-129129524D01*
X83371286Y-129129524D01*
X83153571Y-129190000D01*
X83008429Y-129310952D01*
X82935857Y-129431905D01*
X82863286Y-129673810D01*
X82863286Y-129855238D01*
X82935857Y-130097143D01*
X83008429Y-130218095D01*
X83153571Y-130339048D01*
X83371286Y-130399524D01*
X83516429Y-130399524D01*
X83734143Y-130339048D01*
X83806714Y-130278571D01*
X83806714Y-129855238D01*
X83516429Y-129855238D01*
X84459857Y-130399524D02*
X84459857Y-129129524D01*
X84459857Y-129734286D02*
X85330714Y-129734286D01*
X85330714Y-130399524D02*
X85330714Y-129129524D01*
X85838714Y-129129524D02*
X86709571Y-129129524D01*
X86274142Y-130399524D02*
X86274142Y-129129524D01*
X86854714Y-130520476D02*
X88015857Y-130520476D01*
X88378714Y-130399524D02*
X88378714Y-129129524D01*
X88378714Y-129734286D02*
X89249571Y-129734286D01*
X89249571Y-130399524D02*
X89249571Y-129129524D01*
X90265571Y-129794762D02*
X90265571Y-130399524D01*
X89757571Y-129129524D02*
X90265571Y-129794762D01*
X90773571Y-129129524D01*
X91281571Y-130399524D02*
X91281571Y-129129524D01*
X91862143Y-129129524D01*
X92007285Y-129190000D01*
X92079857Y-129250476D01*
X92152428Y-129371429D01*
X92152428Y-129552857D01*
X92079857Y-129673810D01*
X92007285Y-129734286D01*
X91862143Y-129794762D01*
X91281571Y-129794762D01*
X92805571Y-129734286D02*
X93313571Y-129734286D01*
X93531285Y-130399524D02*
X92805571Y-130399524D01*
X92805571Y-129129524D01*
X93531285Y-129129524D01*
X95055285Y-130399524D02*
X94547285Y-129794762D01*
X94184428Y-130399524D02*
X94184428Y-129129524D01*
X94765000Y-129129524D01*
X94910142Y-129190000D01*
X94982714Y-129250476D01*
X95055285Y-129371429D01*
X95055285Y-129552857D01*
X94982714Y-129673810D01*
X94910142Y-129734286D01*
X94765000Y-129794762D01*
X94184428Y-129794762D01*
X96506714Y-130399524D02*
X95635857Y-130399524D01*
X96071285Y-130399524D02*
X96071285Y-129129524D01*
X95926142Y-129310952D01*
X95781000Y-129431905D01*
X95635857Y-129492381D01*
X129198715Y-130399524D02*
X129198715Y-129129524D01*
X130069572Y-130399524D02*
X129416429Y-129673810D01*
X130069572Y-129129524D02*
X129198715Y-129855238D01*
X130722715Y-129734286D02*
X131230715Y-129734286D01*
X131448429Y-130399524D02*
X130722715Y-130399524D01*
X130722715Y-129129524D01*
X131448429Y-129129524D01*
X132391858Y-129794762D02*
X132391858Y-130399524D01*
X131883858Y-129129524D02*
X132391858Y-129794762D01*
X132899858Y-129129524D01*
X133045001Y-130520476D02*
X134206144Y-130520476D01*
X135439858Y-130399524D02*
X134931858Y-129794762D01*
X134569001Y-130399524D02*
X134569001Y-129129524D01*
X135149573Y-129129524D01*
X135294715Y-129190000D01*
X135367287Y-129250476D01*
X135439858Y-129371429D01*
X135439858Y-129552857D01*
X135367287Y-129673810D01*
X135294715Y-129734286D01*
X135149573Y-129794762D01*
X134569001Y-129794762D01*
X136093001Y-130399524D02*
X136093001Y-129129524D01*
X137617001Y-129190000D02*
X137471858Y-129129524D01*
X137254144Y-129129524D01*
X137036429Y-129190000D01*
X136891287Y-129310952D01*
X136818715Y-129431905D01*
X136746144Y-129673810D01*
X136746144Y-129855238D01*
X136818715Y-130097143D01*
X136891287Y-130218095D01*
X137036429Y-130339048D01*
X137254144Y-130399524D01*
X137399287Y-130399524D01*
X137617001Y-130339048D01*
X137689572Y-130278571D01*
X137689572Y-129855238D01*
X137399287Y-129855238D01*
X138342715Y-130399524D02*
X138342715Y-129129524D01*
X138342715Y-129734286D02*
X139213572Y-129734286D01*
X139213572Y-130399524D02*
X139213572Y-129129524D01*
X139721572Y-129129524D02*
X140592429Y-129129524D01*
X140157000Y-130399524D02*
X140157000Y-129129524D01*
X140737572Y-130520476D02*
X141898715Y-130520476D01*
X142116429Y-129129524D02*
X142479286Y-130399524D01*
X142769572Y-129492381D01*
X143059858Y-130399524D01*
X143422715Y-129129524D01*
X144003286Y-130399524D02*
X144003286Y-129129524D01*
X144729000Y-130399524D02*
X144729000Y-129129524D01*
X145599857Y-130399524D01*
X145599857Y-129129524D01*
X147123857Y-130399524D02*
X146253000Y-130399524D01*
X146688428Y-130399524D02*
X146688428Y-129129524D01*
X146543285Y-129310952D01*
X146398143Y-129431905D01*
X146253000Y-129492381D01*
X223670286Y-26399524D02*
X223670286Y-25129524D01*
X224541143Y-26399524D02*
X223888000Y-25673810D01*
X224541143Y-25129524D02*
X223670286Y-25855238D01*
X225194286Y-25734286D02*
X225702286Y-25734286D01*
X225920000Y-26399524D02*
X225194286Y-26399524D01*
X225194286Y-25129524D01*
X225920000Y-25129524D01*
X226863429Y-25794762D02*
X226863429Y-26399524D01*
X226355429Y-25129524D02*
X226863429Y-25794762D01*
X227371429Y-25129524D01*
X227516572Y-26520476D02*
X228677715Y-26520476D01*
X228968001Y-26339048D02*
X229185715Y-26399524D01*
X229548572Y-26399524D01*
X229693715Y-26339048D01*
X229766286Y-26278571D01*
X229838858Y-26157619D01*
X229838858Y-26036667D01*
X229766286Y-25915714D01*
X229693715Y-25855238D01*
X229548572Y-25794762D01*
X229258286Y-25734286D01*
X229113144Y-25673810D01*
X229040572Y-25613333D01*
X228968001Y-25492381D01*
X228968001Y-25371429D01*
X229040572Y-25250476D01*
X229113144Y-25190000D01*
X229258286Y-25129524D01*
X229621144Y-25129524D01*
X229838858Y-25190000D01*
X231362858Y-26278571D02*
X231290287Y-26339048D01*
X231072573Y-26399524D01*
X230927430Y-26399524D01*
X230709715Y-26339048D01*
X230564573Y-26218095D01*
X230492001Y-26097143D01*
X230419430Y-25855238D01*
X230419430Y-25673810D01*
X230492001Y-25431905D01*
X230564573Y-25310952D01*
X230709715Y-25190000D01*
X230927430Y-25129524D01*
X231072573Y-25129524D01*
X231290287Y-25190000D01*
X231362858Y-25250476D01*
X232886858Y-26399524D02*
X232378858Y-25794762D01*
X232016001Y-26399524D02*
X232016001Y-25129524D01*
X232596573Y-25129524D01*
X232741715Y-25190000D01*
X232814287Y-25250476D01*
X232886858Y-25371429D01*
X232886858Y-25552857D01*
X232814287Y-25673810D01*
X232741715Y-25734286D01*
X232596573Y-25794762D01*
X232016001Y-25794762D01*
X233830287Y-25129524D02*
X234120573Y-25129524D01*
X234265715Y-25190000D01*
X234410858Y-25310952D01*
X234483430Y-25552857D01*
X234483430Y-25976190D01*
X234410858Y-26218095D01*
X234265715Y-26339048D01*
X234120573Y-26399524D01*
X233830287Y-26399524D01*
X233685144Y-26339048D01*
X233540001Y-26218095D01*
X233467430Y-25976190D01*
X233467430Y-25552857D01*
X233540001Y-25310952D01*
X233685144Y-25190000D01*
X233830287Y-25129524D01*
X235862286Y-26399524D02*
X235136572Y-26399524D01*
X235136572Y-25129524D01*
X237096000Y-26399524D02*
X236370286Y-26399524D01*
X236370286Y-25129524D01*
X238402286Y-26399524D02*
X237531429Y-26399524D01*
X237966857Y-26399524D02*
X237966857Y-25129524D01*
X237821714Y-25310952D01*
X237676572Y-25431905D01*
X237531429Y-25492381D01*
X116779429Y-92399524D02*
X116779429Y-91129524D01*
X117650286Y-92399524D02*
X116997143Y-91673810D01*
X117650286Y-91129524D02*
X116779429Y-91855238D01*
X118303429Y-91734286D02*
X118811429Y-91734286D01*
X119029143Y-92399524D02*
X118303429Y-92399524D01*
X118303429Y-91129524D01*
X119029143Y-91129524D01*
X119972572Y-91794762D02*
X119972572Y-92399524D01*
X119464572Y-91129524D02*
X119972572Y-91794762D01*
X120480572Y-91129524D01*
X120625715Y-92520476D02*
X121786858Y-92520476D01*
X122077144Y-92339048D02*
X122294858Y-92399524D01*
X122657715Y-92399524D01*
X122802858Y-92339048D01*
X122875429Y-92278571D01*
X122948001Y-92157619D01*
X122948001Y-92036667D01*
X122875429Y-91915714D01*
X122802858Y-91855238D01*
X122657715Y-91794762D01*
X122367429Y-91734286D01*
X122222287Y-91673810D01*
X122149715Y-91613333D01*
X122077144Y-91492381D01*
X122077144Y-91371429D01*
X122149715Y-91250476D01*
X122222287Y-91190000D01*
X122367429Y-91129524D01*
X122730287Y-91129524D01*
X122948001Y-91190000D01*
X123601144Y-91734286D02*
X124109144Y-91734286D01*
X124326858Y-92399524D02*
X123601144Y-92399524D01*
X123601144Y-91129524D01*
X124326858Y-91129524D01*
X124980001Y-92399524D02*
X124980001Y-91129524D01*
X125488001Y-92036667D01*
X125996001Y-91129524D01*
X125996001Y-92399524D01*
X126721715Y-92399524D02*
X126721715Y-91129524D01*
X128318286Y-92278571D02*
X128245715Y-92339048D01*
X128028001Y-92399524D01*
X127882858Y-92399524D01*
X127665143Y-92339048D01*
X127520001Y-92218095D01*
X127447429Y-92097143D01*
X127374858Y-91855238D01*
X127374858Y-91673810D01*
X127447429Y-91431905D01*
X127520001Y-91310952D01*
X127665143Y-91190000D01*
X127882858Y-91129524D01*
X128028001Y-91129524D01*
X128245715Y-91190000D01*
X128318286Y-91250476D01*
X129261715Y-91129524D02*
X129552001Y-91129524D01*
X129697143Y-91190000D01*
X129842286Y-91310952D01*
X129914858Y-91552857D01*
X129914858Y-91976190D01*
X129842286Y-92218095D01*
X129697143Y-92339048D01*
X129552001Y-92399524D01*
X129261715Y-92399524D01*
X129116572Y-92339048D01*
X128971429Y-92218095D01*
X128898858Y-91976190D01*
X128898858Y-91552857D01*
X128971429Y-91310952D01*
X129116572Y-91190000D01*
X129261715Y-91129524D01*
X131293714Y-92399524D02*
X130568000Y-92399524D01*
X130568000Y-91129524D01*
X132092000Y-91129524D02*
X132382286Y-91129524D01*
X132527428Y-91190000D01*
X132672571Y-91310952D01*
X132745143Y-91552857D01*
X132745143Y-91976190D01*
X132672571Y-92218095D01*
X132527428Y-92339048D01*
X132382286Y-92399524D01*
X132092000Y-92399524D01*
X131946857Y-92339048D01*
X131801714Y-92218095D01*
X131729143Y-91976190D01*
X131729143Y-91552857D01*
X131801714Y-91310952D01*
X131946857Y-91190000D01*
X132092000Y-91129524D01*
X133398285Y-92399524D02*
X133398285Y-91129524D01*
X134269142Y-92399524D01*
X134269142Y-91129524D01*
X135793142Y-92399524D02*
X134922285Y-92399524D01*
X135357713Y-92399524D02*
X135357713Y-91129524D01*
X135212570Y-91310952D01*
X135067428Y-91431905D01*
X134922285Y-91492381D01*
X60653714Y-73399524D02*
X60653714Y-72129524D01*
X61524571Y-73399524D02*
X60871428Y-72673810D01*
X61524571Y-72129524D02*
X60653714Y-72855238D01*
X62177714Y-72734286D02*
X62685714Y-72734286D01*
X62903428Y-73399524D02*
X62177714Y-73399524D01*
X62177714Y-72129524D01*
X62903428Y-72129524D01*
X63846857Y-72794762D02*
X63846857Y-73399524D01*
X63338857Y-72129524D02*
X63846857Y-72794762D01*
X64354857Y-72129524D01*
X64500000Y-73520476D02*
X65661143Y-73520476D01*
X66024000Y-72129524D02*
X66024000Y-73157619D01*
X66096572Y-73278571D01*
X66169143Y-73339048D01*
X66314286Y-73399524D01*
X66604572Y-73399524D01*
X66749714Y-73339048D01*
X66822286Y-73278571D01*
X66894857Y-73157619D01*
X66894857Y-72129524D01*
X68418857Y-73399524D02*
X67548000Y-73399524D01*
X67983428Y-73399524D02*
X67983428Y-72129524D01*
X67838285Y-72310952D01*
X67693143Y-72431905D01*
X67548000Y-72492381D01*
X226391714Y-111399524D02*
X226391714Y-110129524D01*
X227262571Y-111399524D02*
X226609428Y-110673810D01*
X227262571Y-110129524D02*
X226391714Y-110855238D01*
X227915714Y-110734286D02*
X228423714Y-110734286D01*
X228641428Y-111399524D02*
X227915714Y-111399524D01*
X227915714Y-110129524D01*
X228641428Y-110129524D01*
X229584857Y-110794762D02*
X229584857Y-111399524D01*
X229076857Y-110129524D02*
X229584857Y-110794762D01*
X230092857Y-110129524D01*
X230238000Y-111520476D02*
X231399143Y-111520476D01*
X231762000Y-110129524D02*
X231762000Y-111157619D01*
X231834572Y-111278571D01*
X231907143Y-111339048D01*
X232052286Y-111399524D01*
X232342572Y-111399524D01*
X232487714Y-111339048D01*
X232560286Y-111278571D01*
X232632857Y-111157619D01*
X232632857Y-110129524D01*
X233358571Y-111399524D02*
X233358571Y-110129524D01*
X233939143Y-110129524D01*
X234084285Y-110190000D01*
X234156857Y-110250476D01*
X234229428Y-110371429D01*
X234229428Y-110552857D01*
X234156857Y-110673810D01*
X234084285Y-110734286D01*
X233939143Y-110794762D01*
X233358571Y-110794762D01*
X235680857Y-111399524D02*
X234810000Y-111399524D01*
X235245428Y-111399524D02*
X235245428Y-110129524D01*
X235100285Y-110310952D01*
X234955143Y-110431905D01*
X234810000Y-110492381D01*
X349339429Y-26399524D02*
X349339429Y-25129524D01*
X349847429Y-26036667D01*
X350355429Y-25129524D01*
X350355429Y-26399524D01*
X351008572Y-26036667D02*
X351734286Y-26036667D01*
X350863429Y-26399524D02*
X351371429Y-25129524D01*
X351879429Y-26399524D01*
X353258286Y-26278571D02*
X353185715Y-26339048D01*
X352968001Y-26399524D01*
X352822858Y-26399524D01*
X352605143Y-26339048D01*
X352460001Y-26218095D01*
X352387429Y-26097143D01*
X352314858Y-25855238D01*
X352314858Y-25673810D01*
X352387429Y-25431905D01*
X352460001Y-25310952D01*
X352605143Y-25190000D01*
X352822858Y-25129524D01*
X352968001Y-25129524D01*
X353185715Y-25190000D01*
X353258286Y-25250476D01*
X354782286Y-26399524D02*
X354274286Y-25794762D01*
X353911429Y-26399524D02*
X353911429Y-25129524D01*
X354492001Y-25129524D01*
X354637143Y-25190000D01*
X354709715Y-25250476D01*
X354782286Y-25371429D01*
X354782286Y-25552857D01*
X354709715Y-25673810D01*
X354637143Y-25734286D01*
X354492001Y-25794762D01*
X353911429Y-25794762D01*
X355725715Y-25129524D02*
X356016001Y-25129524D01*
X356161143Y-25190000D01*
X356306286Y-25310952D01*
X356378858Y-25552857D01*
X356378858Y-25976190D01*
X356306286Y-26218095D01*
X356161143Y-26339048D01*
X356016001Y-26399524D01*
X355725715Y-26399524D01*
X355580572Y-26339048D01*
X355435429Y-26218095D01*
X355362858Y-25976190D01*
X355362858Y-25552857D01*
X355435429Y-25310952D01*
X355580572Y-25190000D01*
X355725715Y-25129524D01*
X356669143Y-26520476D02*
X357830286Y-26520476D01*
X358193143Y-26399524D02*
X358193143Y-25129524D01*
X358701143Y-26036667D01*
X359209143Y-25129524D01*
X359209143Y-26399524D01*
X360733143Y-26399524D02*
X359862286Y-26399524D01*
X360297714Y-26399524D02*
X360297714Y-25129524D01*
X360152571Y-25310952D01*
X360007429Y-25431905D01*
X359862286Y-25492381D01*
X349339429Y-54399524D02*
X349339429Y-53129524D01*
X349847429Y-54036667D01*
X350355429Y-53129524D01*
X350355429Y-54399524D01*
X351008572Y-54036667D02*
X351734286Y-54036667D01*
X350863429Y-54399524D02*
X351371429Y-53129524D01*
X351879429Y-54399524D01*
X353258286Y-54278571D02*
X353185715Y-54339048D01*
X352968001Y-54399524D01*
X352822858Y-54399524D01*
X352605143Y-54339048D01*
X352460001Y-54218095D01*
X352387429Y-54097143D01*
X352314858Y-53855238D01*
X352314858Y-53673810D01*
X352387429Y-53431905D01*
X352460001Y-53310952D01*
X352605143Y-53190000D01*
X352822858Y-53129524D01*
X352968001Y-53129524D01*
X353185715Y-53190000D01*
X353258286Y-53250476D01*
X354782286Y-54399524D02*
X354274286Y-53794762D01*
X353911429Y-54399524D02*
X353911429Y-53129524D01*
X354492001Y-53129524D01*
X354637143Y-53190000D01*
X354709715Y-53250476D01*
X354782286Y-53371429D01*
X354782286Y-53552857D01*
X354709715Y-53673810D01*
X354637143Y-53734286D01*
X354492001Y-53794762D01*
X353911429Y-53794762D01*
X355725715Y-53129524D02*
X356016001Y-53129524D01*
X356161143Y-53190000D01*
X356306286Y-53310952D01*
X356378858Y-53552857D01*
X356378858Y-53976190D01*
X356306286Y-54218095D01*
X356161143Y-54339048D01*
X356016001Y-54399524D01*
X355725715Y-54399524D01*
X355580572Y-54339048D01*
X355435429Y-54218095D01*
X355362858Y-53976190D01*
X355362858Y-53552857D01*
X355435429Y-53310952D01*
X355580572Y-53190000D01*
X355725715Y-53129524D01*
X356669143Y-54520476D02*
X357830286Y-54520476D01*
X358193143Y-54399524D02*
X358193143Y-53129524D01*
X358701143Y-54036667D01*
X359209143Y-53129524D01*
X359209143Y-54399524D01*
X359862286Y-53250476D02*
X359934857Y-53190000D01*
X360080000Y-53129524D01*
X360442857Y-53129524D01*
X360588000Y-53190000D01*
X360660571Y-53250476D01*
X360733143Y-53371429D01*
X360733143Y-53492381D01*
X360660571Y-53673810D01*
X359789714Y-54399524D01*
X360733143Y-54399524D01*
X349339429Y-73399524D02*
X349339429Y-72129524D01*
X349847429Y-73036667D01*
X350355429Y-72129524D01*
X350355429Y-73399524D01*
X351008572Y-73036667D02*
X351734286Y-73036667D01*
X350863429Y-73399524D02*
X351371429Y-72129524D01*
X351879429Y-73399524D01*
X353258286Y-73278571D02*
X353185715Y-73339048D01*
X352968001Y-73399524D01*
X352822858Y-73399524D01*
X352605143Y-73339048D01*
X352460001Y-73218095D01*
X352387429Y-73097143D01*
X352314858Y-72855238D01*
X352314858Y-72673810D01*
X352387429Y-72431905D01*
X352460001Y-72310952D01*
X352605143Y-72190000D01*
X352822858Y-72129524D01*
X352968001Y-72129524D01*
X353185715Y-72190000D01*
X353258286Y-72250476D01*
X354782286Y-73399524D02*
X354274286Y-72794762D01*
X353911429Y-73399524D02*
X353911429Y-72129524D01*
X354492001Y-72129524D01*
X354637143Y-72190000D01*
X354709715Y-72250476D01*
X354782286Y-72371429D01*
X354782286Y-72552857D01*
X354709715Y-72673810D01*
X354637143Y-72734286D01*
X354492001Y-72794762D01*
X353911429Y-72794762D01*
X355725715Y-72129524D02*
X356016001Y-72129524D01*
X356161143Y-72190000D01*
X356306286Y-72310952D01*
X356378858Y-72552857D01*
X356378858Y-72976190D01*
X356306286Y-73218095D01*
X356161143Y-73339048D01*
X356016001Y-73399524D01*
X355725715Y-73399524D01*
X355580572Y-73339048D01*
X355435429Y-73218095D01*
X355362858Y-72976190D01*
X355362858Y-72552857D01*
X355435429Y-72310952D01*
X355580572Y-72190000D01*
X355725715Y-72129524D01*
X356669143Y-73520476D02*
X357830286Y-73520476D01*
X358193143Y-73399524D02*
X358193143Y-72129524D01*
X358701143Y-73036667D01*
X359209143Y-72129524D01*
X359209143Y-73399524D01*
X359789714Y-72129524D02*
X360733143Y-72129524D01*
X360225143Y-72613333D01*
X360442857Y-72613333D01*
X360588000Y-72673810D01*
X360660571Y-72734286D01*
X360733143Y-72855238D01*
X360733143Y-73157619D01*
X360660571Y-73278571D01*
X360588000Y-73339048D01*
X360442857Y-73399524D01*
X360007429Y-73399524D01*
X359862286Y-73339048D01*
X359789714Y-73278571D01*
X349339429Y-92399524D02*
X349339429Y-91129524D01*
X349847429Y-92036667D01*
X350355429Y-91129524D01*
X350355429Y-92399524D01*
X351008572Y-92036667D02*
X351734286Y-92036667D01*
X350863429Y-92399524D02*
X351371429Y-91129524D01*
X351879429Y-92399524D01*
X353258286Y-92278571D02*
X353185715Y-92339048D01*
X352968001Y-92399524D01*
X352822858Y-92399524D01*
X352605143Y-92339048D01*
X352460001Y-92218095D01*
X352387429Y-92097143D01*
X352314858Y-91855238D01*
X352314858Y-91673810D01*
X352387429Y-91431905D01*
X352460001Y-91310952D01*
X352605143Y-91190000D01*
X352822858Y-91129524D01*
X352968001Y-91129524D01*
X353185715Y-91190000D01*
X353258286Y-91250476D01*
X354782286Y-92399524D02*
X354274286Y-91794762D01*
X353911429Y-92399524D02*
X353911429Y-91129524D01*
X354492001Y-91129524D01*
X354637143Y-91190000D01*
X354709715Y-91250476D01*
X354782286Y-91371429D01*
X354782286Y-91552857D01*
X354709715Y-91673810D01*
X354637143Y-91734286D01*
X354492001Y-91794762D01*
X353911429Y-91794762D01*
X355725715Y-91129524D02*
X356016001Y-91129524D01*
X356161143Y-91190000D01*
X356306286Y-91310952D01*
X356378858Y-91552857D01*
X356378858Y-91976190D01*
X356306286Y-92218095D01*
X356161143Y-92339048D01*
X356016001Y-92399524D01*
X355725715Y-92399524D01*
X355580572Y-92339048D01*
X355435429Y-92218095D01*
X355362858Y-91976190D01*
X355362858Y-91552857D01*
X355435429Y-91310952D01*
X355580572Y-91190000D01*
X355725715Y-91129524D01*
X356669143Y-92520476D02*
X357830286Y-92520476D01*
X358193143Y-92399524D02*
X358193143Y-91129524D01*
X358701143Y-92036667D01*
X359209143Y-91129524D01*
X359209143Y-92399524D01*
X360588000Y-91552857D02*
X360588000Y-92399524D01*
X360225143Y-91069048D02*
X359862286Y-91976190D01*
X360805714Y-91976190D01*
X349339429Y-111399524D02*
X349339429Y-110129524D01*
X349847429Y-111036667D01*
X350355429Y-110129524D01*
X350355429Y-111399524D01*
X351008572Y-111036667D02*
X351734286Y-111036667D01*
X350863429Y-111399524D02*
X351371429Y-110129524D01*
X351879429Y-111399524D01*
X353258286Y-111278571D02*
X353185715Y-111339048D01*
X352968001Y-111399524D01*
X352822858Y-111399524D01*
X352605143Y-111339048D01*
X352460001Y-111218095D01*
X352387429Y-111097143D01*
X352314858Y-110855238D01*
X352314858Y-110673810D01*
X352387429Y-110431905D01*
X352460001Y-110310952D01*
X352605143Y-110190000D01*
X352822858Y-110129524D01*
X352968001Y-110129524D01*
X353185715Y-110190000D01*
X353258286Y-110250476D01*
X354782286Y-111399524D02*
X354274286Y-110794762D01*
X353911429Y-111399524D02*
X353911429Y-110129524D01*
X354492001Y-110129524D01*
X354637143Y-110190000D01*
X354709715Y-110250476D01*
X354782286Y-110371429D01*
X354782286Y-110552857D01*
X354709715Y-110673810D01*
X354637143Y-110734286D01*
X354492001Y-110794762D01*
X353911429Y-110794762D01*
X355725715Y-110129524D02*
X356016001Y-110129524D01*
X356161143Y-110190000D01*
X356306286Y-110310952D01*
X356378858Y-110552857D01*
X356378858Y-110976190D01*
X356306286Y-111218095D01*
X356161143Y-111339048D01*
X356016001Y-111399524D01*
X355725715Y-111399524D01*
X355580572Y-111339048D01*
X355435429Y-111218095D01*
X355362858Y-110976190D01*
X355362858Y-110552857D01*
X355435429Y-110310952D01*
X355580572Y-110190000D01*
X355725715Y-110129524D01*
X356669143Y-111520476D02*
X357830286Y-111520476D01*
X358193143Y-111399524D02*
X358193143Y-110129524D01*
X358701143Y-111036667D01*
X359209143Y-110129524D01*
X359209143Y-111399524D01*
X360660571Y-110129524D02*
X359934857Y-110129524D01*
X359862286Y-110734286D01*
X359934857Y-110673810D01*
X360080000Y-110613333D01*
X360442857Y-110613333D01*
X360588000Y-110673810D01*
X360660571Y-110734286D01*
X360733143Y-110855238D01*
X360733143Y-111157619D01*
X360660571Y-111278571D01*
X360588000Y-111339048D01*
X360442857Y-111399524D01*
X360080000Y-111399524D01*
X359934857Y-111339048D01*
X359862286Y-111278571D01*
X349339429Y-130399524D02*
X349339429Y-129129524D01*
X349847429Y-130036667D01*
X350355429Y-129129524D01*
X350355429Y-130399524D01*
X351008572Y-130036667D02*
X351734286Y-130036667D01*
X350863429Y-130399524D02*
X351371429Y-129129524D01*
X351879429Y-130399524D01*
X353258286Y-130278571D02*
X353185715Y-130339048D01*
X352968001Y-130399524D01*
X352822858Y-130399524D01*
X352605143Y-130339048D01*
X352460001Y-130218095D01*
X352387429Y-130097143D01*
X352314858Y-129855238D01*
X352314858Y-129673810D01*
X352387429Y-129431905D01*
X352460001Y-129310952D01*
X352605143Y-129190000D01*
X352822858Y-129129524D01*
X352968001Y-129129524D01*
X353185715Y-129190000D01*
X353258286Y-129250476D01*
X354782286Y-130399524D02*
X354274286Y-129794762D01*
X353911429Y-130399524D02*
X353911429Y-129129524D01*
X354492001Y-129129524D01*
X354637143Y-129190000D01*
X354709715Y-129250476D01*
X354782286Y-129371429D01*
X354782286Y-129552857D01*
X354709715Y-129673810D01*
X354637143Y-129734286D01*
X354492001Y-129794762D01*
X353911429Y-129794762D01*
X355725715Y-129129524D02*
X356016001Y-129129524D01*
X356161143Y-129190000D01*
X356306286Y-129310952D01*
X356378858Y-129552857D01*
X356378858Y-129976190D01*
X356306286Y-130218095D01*
X356161143Y-130339048D01*
X356016001Y-130399524D01*
X355725715Y-130399524D01*
X355580572Y-130339048D01*
X355435429Y-130218095D01*
X355362858Y-129976190D01*
X355362858Y-129552857D01*
X355435429Y-129310952D01*
X355580572Y-129190000D01*
X355725715Y-129129524D01*
X356669143Y-130520476D02*
X357830286Y-130520476D01*
X358193143Y-130399524D02*
X358193143Y-129129524D01*
X358701143Y-130036667D01*
X359209143Y-129129524D01*
X359209143Y-130399524D01*
X360588000Y-129129524D02*
X360297714Y-129129524D01*
X360152571Y-129190000D01*
X360080000Y-129250476D01*
X359934857Y-129431905D01*
X359862286Y-129673810D01*
X359862286Y-130157619D01*
X359934857Y-130278571D01*
X360007429Y-130339048D01*
X360152571Y-130399524D01*
X360442857Y-130399524D01*
X360588000Y-130339048D01*
X360660571Y-130278571D01*
X360733143Y-130157619D01*
X360733143Y-129855238D01*
X360660571Y-129734286D01*
X360588000Y-129673810D01*
X360442857Y-129613333D01*
X360152571Y-129613333D01*
X360007429Y-129673810D01*
X359934857Y-129734286D01*
X359862286Y-129855238D01*
X11448286Y-26399524D02*
X11448286Y-25129524D01*
X11956286Y-26036667D01*
X12464286Y-25129524D01*
X12464286Y-26399524D01*
X13117429Y-26036667D02*
X13843143Y-26036667D01*
X12972286Y-26399524D02*
X13480286Y-25129524D01*
X13988286Y-26399524D01*
X15367143Y-26278571D02*
X15294572Y-26339048D01*
X15076858Y-26399524D01*
X14931715Y-26399524D01*
X14714000Y-26339048D01*
X14568858Y-26218095D01*
X14496286Y-26097143D01*
X14423715Y-25855238D01*
X14423715Y-25673810D01*
X14496286Y-25431905D01*
X14568858Y-25310952D01*
X14714000Y-25190000D01*
X14931715Y-25129524D01*
X15076858Y-25129524D01*
X15294572Y-25190000D01*
X15367143Y-25250476D01*
X16891143Y-26399524D02*
X16383143Y-25794762D01*
X16020286Y-26399524D02*
X16020286Y-25129524D01*
X16600858Y-25129524D01*
X16746000Y-25190000D01*
X16818572Y-25250476D01*
X16891143Y-25371429D01*
X16891143Y-25552857D01*
X16818572Y-25673810D01*
X16746000Y-25734286D01*
X16600858Y-25794762D01*
X16020286Y-25794762D01*
X17834572Y-25129524D02*
X18124858Y-25129524D01*
X18270000Y-25190000D01*
X18415143Y-25310952D01*
X18487715Y-25552857D01*
X18487715Y-25976190D01*
X18415143Y-26218095D01*
X18270000Y-26339048D01*
X18124858Y-26399524D01*
X17834572Y-26399524D01*
X17689429Y-26339048D01*
X17544286Y-26218095D01*
X17471715Y-25976190D01*
X17471715Y-25552857D01*
X17544286Y-25310952D01*
X17689429Y-25190000D01*
X17834572Y-25129524D01*
X18778000Y-26520476D02*
X19939143Y-26520476D01*
X21172857Y-26399524D02*
X20664857Y-25794762D01*
X20302000Y-26399524D02*
X20302000Y-25129524D01*
X20882572Y-25129524D01*
X21027714Y-25190000D01*
X21100286Y-25250476D01*
X21172857Y-25371429D01*
X21172857Y-25552857D01*
X21100286Y-25673810D01*
X21027714Y-25734286D01*
X20882572Y-25794762D01*
X20302000Y-25794762D01*
X22624286Y-26399524D02*
X21753429Y-26399524D01*
X22188857Y-26399524D02*
X22188857Y-25129524D01*
X22043714Y-25310952D01*
X21898572Y-25431905D01*
X21753429Y-25492381D01*
X30448286Y-26399524D02*
X30448286Y-25129524D01*
X30956286Y-26036667D01*
X31464286Y-25129524D01*
X31464286Y-26399524D01*
X32117429Y-26036667D02*
X32843143Y-26036667D01*
X31972286Y-26399524D02*
X32480286Y-25129524D01*
X32988286Y-26399524D01*
X34367143Y-26278571D02*
X34294572Y-26339048D01*
X34076858Y-26399524D01*
X33931715Y-26399524D01*
X33714000Y-26339048D01*
X33568858Y-26218095D01*
X33496286Y-26097143D01*
X33423715Y-25855238D01*
X33423715Y-25673810D01*
X33496286Y-25431905D01*
X33568858Y-25310952D01*
X33714000Y-25190000D01*
X33931715Y-25129524D01*
X34076858Y-25129524D01*
X34294572Y-25190000D01*
X34367143Y-25250476D01*
X35891143Y-26399524D02*
X35383143Y-25794762D01*
X35020286Y-26399524D02*
X35020286Y-25129524D01*
X35600858Y-25129524D01*
X35746000Y-25190000D01*
X35818572Y-25250476D01*
X35891143Y-25371429D01*
X35891143Y-25552857D01*
X35818572Y-25673810D01*
X35746000Y-25734286D01*
X35600858Y-25794762D01*
X35020286Y-25794762D01*
X36834572Y-25129524D02*
X37124858Y-25129524D01*
X37270000Y-25190000D01*
X37415143Y-25310952D01*
X37487715Y-25552857D01*
X37487715Y-25976190D01*
X37415143Y-26218095D01*
X37270000Y-26339048D01*
X37124858Y-26399524D01*
X36834572Y-26399524D01*
X36689429Y-26339048D01*
X36544286Y-26218095D01*
X36471715Y-25976190D01*
X36471715Y-25552857D01*
X36544286Y-25310952D01*
X36689429Y-25190000D01*
X36834572Y-25129524D01*
X37778000Y-26520476D02*
X38939143Y-26520476D01*
X40172857Y-26399524D02*
X39664857Y-25794762D01*
X39302000Y-26399524D02*
X39302000Y-25129524D01*
X39882572Y-25129524D01*
X40027714Y-25190000D01*
X40100286Y-25250476D01*
X40172857Y-25371429D01*
X40172857Y-25552857D01*
X40100286Y-25673810D01*
X40027714Y-25734286D01*
X39882572Y-25794762D01*
X39302000Y-25794762D01*
X40753429Y-25250476D02*
X40826000Y-25190000D01*
X40971143Y-25129524D01*
X41334000Y-25129524D01*
X41479143Y-25190000D01*
X41551714Y-25250476D01*
X41624286Y-25371429D01*
X41624286Y-25492381D01*
X41551714Y-25673810D01*
X40680857Y-26399524D01*
X41624286Y-26399524D01*
X20948286Y-54399524D02*
X20948286Y-53129524D01*
X21456286Y-54036667D01*
X21964286Y-53129524D01*
X21964286Y-54399524D01*
X22617429Y-54036667D02*
X23343143Y-54036667D01*
X22472286Y-54399524D02*
X22980286Y-53129524D01*
X23488286Y-54399524D01*
X24867143Y-54278571D02*
X24794572Y-54339048D01*
X24576858Y-54399524D01*
X24431715Y-54399524D01*
X24214000Y-54339048D01*
X24068858Y-54218095D01*
X23996286Y-54097143D01*
X23923715Y-53855238D01*
X23923715Y-53673810D01*
X23996286Y-53431905D01*
X24068858Y-53310952D01*
X24214000Y-53190000D01*
X24431715Y-53129524D01*
X24576858Y-53129524D01*
X24794572Y-53190000D01*
X24867143Y-53250476D01*
X26391143Y-54399524D02*
X25883143Y-53794762D01*
X25520286Y-54399524D02*
X25520286Y-53129524D01*
X26100858Y-53129524D01*
X26246000Y-53190000D01*
X26318572Y-53250476D01*
X26391143Y-53371429D01*
X26391143Y-53552857D01*
X26318572Y-53673810D01*
X26246000Y-53734286D01*
X26100858Y-53794762D01*
X25520286Y-53794762D01*
X27334572Y-53129524D02*
X27624858Y-53129524D01*
X27770000Y-53190000D01*
X27915143Y-53310952D01*
X27987715Y-53552857D01*
X27987715Y-53976190D01*
X27915143Y-54218095D01*
X27770000Y-54339048D01*
X27624858Y-54399524D01*
X27334572Y-54399524D01*
X27189429Y-54339048D01*
X27044286Y-54218095D01*
X26971715Y-53976190D01*
X26971715Y-53552857D01*
X27044286Y-53310952D01*
X27189429Y-53190000D01*
X27334572Y-53129524D01*
X28278000Y-54520476D02*
X29439143Y-54520476D01*
X30672857Y-54399524D02*
X30164857Y-53794762D01*
X29802000Y-54399524D02*
X29802000Y-53129524D01*
X30382572Y-53129524D01*
X30527714Y-53190000D01*
X30600286Y-53250476D01*
X30672857Y-53371429D01*
X30672857Y-53552857D01*
X30600286Y-53673810D01*
X30527714Y-53734286D01*
X30382572Y-53794762D01*
X29802000Y-53794762D01*
X31180857Y-53129524D02*
X32124286Y-53129524D01*
X31616286Y-53613333D01*
X31834000Y-53613333D01*
X31979143Y-53673810D01*
X32051714Y-53734286D01*
X32124286Y-53855238D01*
X32124286Y-54157619D01*
X32051714Y-54278571D01*
X31979143Y-54339048D01*
X31834000Y-54399524D01*
X31398572Y-54399524D01*
X31253429Y-54339048D01*
X31180857Y-54278571D01*
X18573286Y-92399524D02*
X18573286Y-91129524D01*
X19081286Y-92036667D01*
X19589286Y-91129524D01*
X19589286Y-92399524D01*
X20242429Y-92036667D02*
X20968143Y-92036667D01*
X20097286Y-92399524D02*
X20605286Y-91129524D01*
X21113286Y-92399524D01*
X22492143Y-92278571D02*
X22419572Y-92339048D01*
X22201858Y-92399524D01*
X22056715Y-92399524D01*
X21839000Y-92339048D01*
X21693858Y-92218095D01*
X21621286Y-92097143D01*
X21548715Y-91855238D01*
X21548715Y-91673810D01*
X21621286Y-91431905D01*
X21693858Y-91310952D01*
X21839000Y-91190000D01*
X22056715Y-91129524D01*
X22201858Y-91129524D01*
X22419572Y-91190000D01*
X22492143Y-91250476D01*
X24016143Y-92399524D02*
X23508143Y-91794762D01*
X23145286Y-92399524D02*
X23145286Y-91129524D01*
X23725858Y-91129524D01*
X23871000Y-91190000D01*
X23943572Y-91250476D01*
X24016143Y-91371429D01*
X24016143Y-91552857D01*
X23943572Y-91673810D01*
X23871000Y-91734286D01*
X23725858Y-91794762D01*
X23145286Y-91794762D01*
X24959572Y-91129524D02*
X25249858Y-91129524D01*
X25395000Y-91190000D01*
X25540143Y-91310952D01*
X25612715Y-91552857D01*
X25612715Y-91976190D01*
X25540143Y-92218095D01*
X25395000Y-92339048D01*
X25249858Y-92399524D01*
X24959572Y-92399524D01*
X24814429Y-92339048D01*
X24669286Y-92218095D01*
X24596715Y-91976190D01*
X24596715Y-91552857D01*
X24669286Y-91310952D01*
X24814429Y-91190000D01*
X24959572Y-91129524D01*
X25903000Y-92520476D02*
X27064143Y-92520476D01*
X28297857Y-92399524D02*
X27789857Y-91794762D01*
X27427000Y-92399524D02*
X27427000Y-91129524D01*
X28007572Y-91129524D01*
X28152714Y-91190000D01*
X28225286Y-91250476D01*
X28297857Y-91371429D01*
X28297857Y-91552857D01*
X28225286Y-91673810D01*
X28152714Y-91734286D01*
X28007572Y-91794762D01*
X27427000Y-91794762D01*
X29676714Y-91129524D02*
X28951000Y-91129524D01*
X28878429Y-91734286D01*
X28951000Y-91673810D01*
X29096143Y-91613333D01*
X29459000Y-91613333D01*
X29604143Y-91673810D01*
X29676714Y-91734286D01*
X29749286Y-91855238D01*
X29749286Y-92157619D01*
X29676714Y-92278571D01*
X29604143Y-92339048D01*
X29459000Y-92399524D01*
X29096143Y-92399524D01*
X28951000Y-92339048D01*
X28878429Y-92278571D01*
X23323286Y-111399524D02*
X23323286Y-110129524D01*
X23831286Y-111036667D01*
X24339286Y-110129524D01*
X24339286Y-111399524D01*
X24992429Y-111036667D02*
X25718143Y-111036667D01*
X24847286Y-111399524D02*
X25355286Y-110129524D01*
X25863286Y-111399524D01*
X27242143Y-111278571D02*
X27169572Y-111339048D01*
X26951858Y-111399524D01*
X26806715Y-111399524D01*
X26589000Y-111339048D01*
X26443858Y-111218095D01*
X26371286Y-111097143D01*
X26298715Y-110855238D01*
X26298715Y-110673810D01*
X26371286Y-110431905D01*
X26443858Y-110310952D01*
X26589000Y-110190000D01*
X26806715Y-110129524D01*
X26951858Y-110129524D01*
X27169572Y-110190000D01*
X27242143Y-110250476D01*
X28766143Y-111399524D02*
X28258143Y-110794762D01*
X27895286Y-111399524D02*
X27895286Y-110129524D01*
X28475858Y-110129524D01*
X28621000Y-110190000D01*
X28693572Y-110250476D01*
X28766143Y-110371429D01*
X28766143Y-110552857D01*
X28693572Y-110673810D01*
X28621000Y-110734286D01*
X28475858Y-110794762D01*
X27895286Y-110794762D01*
X29709572Y-110129524D02*
X29999858Y-110129524D01*
X30145000Y-110190000D01*
X30290143Y-110310952D01*
X30362715Y-110552857D01*
X30362715Y-110976190D01*
X30290143Y-111218095D01*
X30145000Y-111339048D01*
X29999858Y-111399524D01*
X29709572Y-111399524D01*
X29564429Y-111339048D01*
X29419286Y-111218095D01*
X29346715Y-110976190D01*
X29346715Y-110552857D01*
X29419286Y-110310952D01*
X29564429Y-110190000D01*
X29709572Y-110129524D01*
X30653000Y-111520476D02*
X31814143Y-111520476D01*
X33047857Y-111399524D02*
X32539857Y-110794762D01*
X32177000Y-111399524D02*
X32177000Y-110129524D01*
X32757572Y-110129524D01*
X32902714Y-110190000D01*
X32975286Y-110250476D01*
X33047857Y-110371429D01*
X33047857Y-110552857D01*
X32975286Y-110673810D01*
X32902714Y-110734286D01*
X32757572Y-110794762D01*
X32177000Y-110794762D01*
X34354143Y-110129524D02*
X34063857Y-110129524D01*
X33918714Y-110190000D01*
X33846143Y-110250476D01*
X33701000Y-110431905D01*
X33628429Y-110673810D01*
X33628429Y-111157619D01*
X33701000Y-111278571D01*
X33773572Y-111339048D01*
X33918714Y-111399524D01*
X34209000Y-111399524D01*
X34354143Y-111339048D01*
X34426714Y-111278571D01*
X34499286Y-111157619D01*
X34499286Y-110855238D01*
X34426714Y-110734286D01*
X34354143Y-110673810D01*
X34209000Y-110613333D01*
X33918714Y-110613333D01*
X33773572Y-110673810D01*
X33701000Y-110734286D01*
X33628429Y-110855238D01*
X280089143Y-130399524D02*
X280089143Y-129129524D01*
X280960000Y-130399524D01*
X280960000Y-129129524D01*
X281685714Y-129129524D02*
X281685714Y-130157619D01*
X281758286Y-130278571D01*
X281830857Y-130339048D01*
X281976000Y-130399524D01*
X282266286Y-130399524D01*
X282411428Y-130339048D01*
X282484000Y-130278571D01*
X282556571Y-130157619D01*
X282556571Y-129129524D01*
X283282285Y-130399524D02*
X283282285Y-129129524D01*
X283790285Y-130036667D01*
X284298285Y-129129524D01*
X284298285Y-130399524D01*
X284661142Y-130520476D02*
X285822285Y-130520476D01*
X286475428Y-129129524D02*
X286620571Y-129129524D01*
X286765714Y-129190000D01*
X286838285Y-129250476D01*
X286910856Y-129371429D01*
X286983428Y-129613333D01*
X286983428Y-129915714D01*
X286910856Y-130157619D01*
X286838285Y-130278571D01*
X286765714Y-130339048D01*
X286620571Y-130399524D01*
X286475428Y-130399524D01*
X286330285Y-130339048D01*
X286257714Y-130278571D01*
X286185142Y-130157619D01*
X286112571Y-129915714D01*
X286112571Y-129613333D01*
X286185142Y-129371429D01*
X286257714Y-129250476D01*
X286330285Y-129190000D01*
X286475428Y-129129524D01*
X270589143Y-111399524D02*
X270589143Y-110129524D01*
X271460000Y-111399524D01*
X271460000Y-110129524D01*
X272185714Y-110129524D02*
X272185714Y-111157619D01*
X272258286Y-111278571D01*
X272330857Y-111339048D01*
X272476000Y-111399524D01*
X272766286Y-111399524D01*
X272911428Y-111339048D01*
X272984000Y-111278571D01*
X273056571Y-111157619D01*
X273056571Y-110129524D01*
X273782285Y-111399524D02*
X273782285Y-110129524D01*
X274290285Y-111036667D01*
X274798285Y-110129524D01*
X274798285Y-111399524D01*
X275161142Y-111520476D02*
X276322285Y-111520476D01*
X277483428Y-111399524D02*
X276612571Y-111399524D01*
X277047999Y-111399524D02*
X277047999Y-110129524D01*
X276902856Y-110310952D01*
X276757714Y-110431905D01*
X276612571Y-110492381D01*
X289589143Y-111399524D02*
X289589143Y-110129524D01*
X290460000Y-111399524D01*
X290460000Y-110129524D01*
X291185714Y-110129524D02*
X291185714Y-111157619D01*
X291258286Y-111278571D01*
X291330857Y-111339048D01*
X291476000Y-111399524D01*
X291766286Y-111399524D01*
X291911428Y-111339048D01*
X291984000Y-111278571D01*
X292056571Y-111157619D01*
X292056571Y-110129524D01*
X292782285Y-111399524D02*
X292782285Y-110129524D01*
X293290285Y-111036667D01*
X293798285Y-110129524D01*
X293798285Y-111399524D01*
X294161142Y-111520476D02*
X295322285Y-111520476D01*
X295612571Y-110250476D02*
X295685142Y-110190000D01*
X295830285Y-110129524D01*
X296193142Y-110129524D01*
X296338285Y-110190000D01*
X296410856Y-110250476D01*
X296483428Y-110371429D01*
X296483428Y-110492381D01*
X296410856Y-110673810D01*
X295539999Y-111399524D01*
X296483428Y-111399524D01*
X308589143Y-111399524D02*
X308589143Y-110129524D01*
X309460000Y-111399524D01*
X309460000Y-110129524D01*
X310185714Y-110129524D02*
X310185714Y-111157619D01*
X310258286Y-111278571D01*
X310330857Y-111339048D01*
X310476000Y-111399524D01*
X310766286Y-111399524D01*
X310911428Y-111339048D01*
X310984000Y-111278571D01*
X311056571Y-111157619D01*
X311056571Y-110129524D01*
X311782285Y-111399524D02*
X311782285Y-110129524D01*
X312290285Y-111036667D01*
X312798285Y-110129524D01*
X312798285Y-111399524D01*
X313161142Y-111520476D02*
X314322285Y-111520476D01*
X314539999Y-110129524D02*
X315483428Y-110129524D01*
X314975428Y-110613333D01*
X315193142Y-110613333D01*
X315338285Y-110673810D01*
X315410856Y-110734286D01*
X315483428Y-110855238D01*
X315483428Y-111157619D01*
X315410856Y-111278571D01*
X315338285Y-111339048D01*
X315193142Y-111399524D01*
X314757714Y-111399524D01*
X314612571Y-111339048D01*
X314539999Y-111278571D01*
X270589143Y-92399524D02*
X270589143Y-91129524D01*
X271460000Y-92399524D01*
X271460000Y-91129524D01*
X272185714Y-91129524D02*
X272185714Y-92157619D01*
X272258286Y-92278571D01*
X272330857Y-92339048D01*
X272476000Y-92399524D01*
X272766286Y-92399524D01*
X272911428Y-92339048D01*
X272984000Y-92278571D01*
X273056571Y-92157619D01*
X273056571Y-91129524D01*
X273782285Y-92399524D02*
X273782285Y-91129524D01*
X274290285Y-92036667D01*
X274798285Y-91129524D01*
X274798285Y-92399524D01*
X275161142Y-92520476D02*
X276322285Y-92520476D01*
X277338285Y-91552857D02*
X277338285Y-92399524D01*
X276975428Y-91069048D02*
X276612571Y-91976190D01*
X277555999Y-91976190D01*
X289589143Y-92399524D02*
X289589143Y-91129524D01*
X290460000Y-92399524D01*
X290460000Y-91129524D01*
X291185714Y-91129524D02*
X291185714Y-92157619D01*
X291258286Y-92278571D01*
X291330857Y-92339048D01*
X291476000Y-92399524D01*
X291766286Y-92399524D01*
X291911428Y-92339048D01*
X291984000Y-92278571D01*
X292056571Y-92157619D01*
X292056571Y-91129524D01*
X292782285Y-92399524D02*
X292782285Y-91129524D01*
X293290285Y-92036667D01*
X293798285Y-91129524D01*
X293798285Y-92399524D01*
X294161142Y-92520476D02*
X295322285Y-92520476D01*
X296410856Y-91129524D02*
X295685142Y-91129524D01*
X295612571Y-91734286D01*
X295685142Y-91673810D01*
X295830285Y-91613333D01*
X296193142Y-91613333D01*
X296338285Y-91673810D01*
X296410856Y-91734286D01*
X296483428Y-91855238D01*
X296483428Y-92157619D01*
X296410856Y-92278571D01*
X296338285Y-92339048D01*
X296193142Y-92399524D01*
X295830285Y-92399524D01*
X295685142Y-92339048D01*
X295612571Y-92278571D01*
X308589143Y-92399524D02*
X308589143Y-91129524D01*
X309460000Y-92399524D01*
X309460000Y-91129524D01*
X310185714Y-91129524D02*
X310185714Y-92157619D01*
X310258286Y-92278571D01*
X310330857Y-92339048D01*
X310476000Y-92399524D01*
X310766286Y-92399524D01*
X310911428Y-92339048D01*
X310984000Y-92278571D01*
X311056571Y-92157619D01*
X311056571Y-91129524D01*
X311782285Y-92399524D02*
X311782285Y-91129524D01*
X312290285Y-92036667D01*
X312798285Y-91129524D01*
X312798285Y-92399524D01*
X313161142Y-92520476D02*
X314322285Y-92520476D01*
X315338285Y-91129524D02*
X315047999Y-91129524D01*
X314902856Y-91190000D01*
X314830285Y-91250476D01*
X314685142Y-91431905D01*
X314612571Y-91673810D01*
X314612571Y-92157619D01*
X314685142Y-92278571D01*
X314757714Y-92339048D01*
X314902856Y-92399524D01*
X315193142Y-92399524D01*
X315338285Y-92339048D01*
X315410856Y-92278571D01*
X315483428Y-92157619D01*
X315483428Y-91855238D01*
X315410856Y-91734286D01*
X315338285Y-91673810D01*
X315193142Y-91613333D01*
X314902856Y-91613333D01*
X314757714Y-91673810D01*
X314685142Y-91734286D01*
X314612571Y-91855238D01*
X270589143Y-73399524D02*
X270589143Y-72129524D01*
X271460000Y-73399524D01*
X271460000Y-72129524D01*
X272185714Y-72129524D02*
X272185714Y-73157619D01*
X272258286Y-73278571D01*
X272330857Y-73339048D01*
X272476000Y-73399524D01*
X272766286Y-73399524D01*
X272911428Y-73339048D01*
X272984000Y-73278571D01*
X273056571Y-73157619D01*
X273056571Y-72129524D01*
X273782285Y-73399524D02*
X273782285Y-72129524D01*
X274290285Y-73036667D01*
X274798285Y-72129524D01*
X274798285Y-73399524D01*
X275161142Y-73520476D02*
X276322285Y-73520476D01*
X276539999Y-72129524D02*
X277555999Y-72129524D01*
X276902856Y-73399524D01*
X289589143Y-73399524D02*
X289589143Y-72129524D01*
X290460000Y-73399524D01*
X290460000Y-72129524D01*
X291185714Y-72129524D02*
X291185714Y-73157619D01*
X291258286Y-73278571D01*
X291330857Y-73339048D01*
X291476000Y-73399524D01*
X291766286Y-73399524D01*
X291911428Y-73339048D01*
X291984000Y-73278571D01*
X292056571Y-73157619D01*
X292056571Y-72129524D01*
X292782285Y-73399524D02*
X292782285Y-72129524D01*
X293290285Y-73036667D01*
X293798285Y-72129524D01*
X293798285Y-73399524D01*
X294161142Y-73520476D02*
X295322285Y-73520476D01*
X295902856Y-72673810D02*
X295757714Y-72613333D01*
X295685142Y-72552857D01*
X295612571Y-72431905D01*
X295612571Y-72371429D01*
X295685142Y-72250476D01*
X295757714Y-72190000D01*
X295902856Y-72129524D01*
X296193142Y-72129524D01*
X296338285Y-72190000D01*
X296410856Y-72250476D01*
X296483428Y-72371429D01*
X296483428Y-72431905D01*
X296410856Y-72552857D01*
X296338285Y-72613333D01*
X296193142Y-72673810D01*
X295902856Y-72673810D01*
X295757714Y-72734286D01*
X295685142Y-72794762D01*
X295612571Y-72915714D01*
X295612571Y-73157619D01*
X295685142Y-73278571D01*
X295757714Y-73339048D01*
X295902856Y-73399524D01*
X296193142Y-73399524D01*
X296338285Y-73339048D01*
X296410856Y-73278571D01*
X296483428Y-73157619D01*
X296483428Y-72915714D01*
X296410856Y-72794762D01*
X296338285Y-72734286D01*
X296193142Y-72673810D01*
X308589143Y-73399524D02*
X308589143Y-72129524D01*
X309460000Y-73399524D01*
X309460000Y-72129524D01*
X310185714Y-72129524D02*
X310185714Y-73157619D01*
X310258286Y-73278571D01*
X310330857Y-73339048D01*
X310476000Y-73399524D01*
X310766286Y-73399524D01*
X310911428Y-73339048D01*
X310984000Y-73278571D01*
X311056571Y-73157619D01*
X311056571Y-72129524D01*
X311782285Y-73399524D02*
X311782285Y-72129524D01*
X312290285Y-73036667D01*
X312798285Y-72129524D01*
X312798285Y-73399524D01*
X313161142Y-73520476D02*
X314322285Y-73520476D01*
X314757714Y-73399524D02*
X315047999Y-73399524D01*
X315193142Y-73339048D01*
X315265714Y-73278571D01*
X315410856Y-73097143D01*
X315483428Y-72855238D01*
X315483428Y-72371429D01*
X315410856Y-72250476D01*
X315338285Y-72190000D01*
X315193142Y-72129524D01*
X314902856Y-72129524D01*
X314757714Y-72190000D01*
X314685142Y-72250476D01*
X314612571Y-72371429D01*
X314612571Y-72673810D01*
X314685142Y-72794762D01*
X314757714Y-72855238D01*
X314902856Y-72915714D01*
X315193142Y-72915714D01*
X315338285Y-72855238D01*
X315410856Y-72794762D01*
X315483428Y-72673810D01*
X287811143Y-54399524D02*
X287811143Y-53129524D01*
X288682000Y-54399524D01*
X288682000Y-53129524D01*
X289407714Y-53129524D02*
X289407714Y-54157619D01*
X289480286Y-54278571D01*
X289552857Y-54339048D01*
X289698000Y-54399524D01*
X289988286Y-54399524D01*
X290133428Y-54339048D01*
X290206000Y-54278571D01*
X290278571Y-54157619D01*
X290278571Y-53129524D01*
X291004285Y-54399524D02*
X291004285Y-53129524D01*
X291512285Y-54036667D01*
X292020285Y-53129524D01*
X292020285Y-54399524D01*
X292383142Y-54520476D02*
X293544285Y-54520476D01*
X293907142Y-54399524D02*
X293907142Y-53129524D01*
X294269999Y-53129524D01*
X294487714Y-53190000D01*
X294632856Y-53310952D01*
X294705428Y-53431905D01*
X294777999Y-53673810D01*
X294777999Y-53855238D01*
X294705428Y-54097143D01*
X294632856Y-54218095D01*
X294487714Y-54339048D01*
X294269999Y-54399524D01*
X293907142Y-54399524D01*
X295431142Y-54399524D02*
X295431142Y-53129524D01*
X295939142Y-53129524D02*
X296447142Y-54399524D01*
X296955142Y-53129524D01*
X298261428Y-54399524D02*
X297390571Y-54399524D01*
X297825999Y-54399524D02*
X297825999Y-53129524D01*
X297680856Y-53310952D01*
X297535714Y-53431905D01*
X297390571Y-53492381D01*
X267650001Y-54399524D02*
X267650001Y-53129524D01*
X268520858Y-54399524D01*
X268520858Y-53129524D01*
X269246572Y-53129524D02*
X269246572Y-54157619D01*
X269319144Y-54278571D01*
X269391715Y-54339048D01*
X269536858Y-54399524D01*
X269827144Y-54399524D01*
X269972286Y-54339048D01*
X270044858Y-54278571D01*
X270117429Y-54157619D01*
X270117429Y-53129524D01*
X270843143Y-54399524D02*
X270843143Y-53129524D01*
X271351143Y-54036667D01*
X271859143Y-53129524D01*
X271859143Y-54399524D01*
X272222000Y-54520476D02*
X273383143Y-54520476D01*
X274471714Y-54399524D02*
X273746000Y-54399524D01*
X273746000Y-53129524D01*
X275270000Y-53129524D02*
X275560286Y-53129524D01*
X275705428Y-53190000D01*
X275850571Y-53310952D01*
X275923143Y-53552857D01*
X275923143Y-53976190D01*
X275850571Y-54218095D01*
X275705428Y-54339048D01*
X275560286Y-54399524D01*
X275270000Y-54399524D01*
X275124857Y-54339048D01*
X274979714Y-54218095D01*
X274907143Y-53976190D01*
X274907143Y-53552857D01*
X274979714Y-53310952D01*
X275124857Y-53190000D01*
X275270000Y-53129524D01*
X277447142Y-54278571D02*
X277374571Y-54339048D01*
X277156857Y-54399524D01*
X277011714Y-54399524D01*
X276793999Y-54339048D01*
X276648857Y-54218095D01*
X276576285Y-54097143D01*
X276503714Y-53855238D01*
X276503714Y-53673810D01*
X276576285Y-53431905D01*
X276648857Y-53310952D01*
X276793999Y-53190000D01*
X277011714Y-53129524D01*
X277156857Y-53129524D01*
X277374571Y-53190000D01*
X277447142Y-53250476D01*
X278100285Y-54399524D02*
X278100285Y-53129524D01*
X278971142Y-54399524D02*
X278317999Y-53673810D01*
X278971142Y-53129524D02*
X278100285Y-53855238D01*
X280422571Y-54399524D02*
X279551714Y-54399524D01*
X279987142Y-54399524D02*
X279987142Y-53129524D01*
X279841999Y-53310952D01*
X279696857Y-53431905D01*
X279551714Y-53492381D01*
X324033144Y-54399524D02*
X324033144Y-53129524D01*
X324904001Y-54399524D01*
X324904001Y-53129524D01*
X325629715Y-53129524D02*
X325629715Y-54157619D01*
X325702287Y-54278571D01*
X325774858Y-54339048D01*
X325920001Y-54399524D01*
X326210287Y-54399524D01*
X326355429Y-54339048D01*
X326428001Y-54278571D01*
X326500572Y-54157619D01*
X326500572Y-53129524D01*
X327226286Y-54399524D02*
X327226286Y-53129524D01*
X327734286Y-54036667D01*
X328242286Y-53129524D01*
X328242286Y-54399524D01*
X328605143Y-54520476D02*
X329766286Y-54520476D01*
X330129143Y-54399524D02*
X330129143Y-53129524D01*
X330637143Y-54036667D01*
X331145143Y-53129524D01*
X331145143Y-54399524D01*
X331870857Y-54399524D02*
X331870857Y-53129524D01*
X332596571Y-54399524D02*
X332596571Y-53129524D01*
X333467428Y-54399524D01*
X333467428Y-53129524D01*
X334193142Y-53129524D02*
X334193142Y-54157619D01*
X334265714Y-54278571D01*
X334338285Y-54339048D01*
X334483428Y-54399524D01*
X334773714Y-54399524D01*
X334918856Y-54339048D01*
X334991428Y-54278571D01*
X335063999Y-54157619D01*
X335063999Y-53129524D01*
X335717142Y-54339048D02*
X335934856Y-54399524D01*
X336297713Y-54399524D01*
X336442856Y-54339048D01*
X336515427Y-54278571D01*
X336587999Y-54157619D01*
X336587999Y-54036667D01*
X336515427Y-53915714D01*
X336442856Y-53855238D01*
X336297713Y-53794762D01*
X336007427Y-53734286D01*
X335862285Y-53673810D01*
X335789713Y-53613333D01*
X335717142Y-53492381D01*
X335717142Y-53371429D01*
X335789713Y-53250476D01*
X335862285Y-53190000D01*
X336007427Y-53129524D01*
X336370285Y-53129524D01*
X336587999Y-53190000D01*
X338039428Y-54399524D02*
X337168571Y-54399524D01*
X337603999Y-54399524D02*
X337603999Y-53129524D01*
X337458856Y-53310952D01*
X337313714Y-53431905D01*
X337168571Y-53492381D01*
X306303144Y-54399524D02*
X306303144Y-53129524D01*
X307174001Y-54399524D01*
X307174001Y-53129524D01*
X307899715Y-53129524D02*
X307899715Y-54157619D01*
X307972287Y-54278571D01*
X308044858Y-54339048D01*
X308190001Y-54399524D01*
X308480287Y-54399524D01*
X308625429Y-54339048D01*
X308698001Y-54278571D01*
X308770572Y-54157619D01*
X308770572Y-53129524D01*
X309496286Y-54399524D02*
X309496286Y-53129524D01*
X310004286Y-54036667D01*
X310512286Y-53129524D01*
X310512286Y-54399524D01*
X310875143Y-54520476D02*
X312036286Y-54520476D01*
X312399143Y-54399524D02*
X312399143Y-53129524D01*
X312907143Y-54036667D01*
X313415143Y-53129524D01*
X313415143Y-54399524D01*
X314140857Y-53129524D02*
X314140857Y-54157619D01*
X314213429Y-54278571D01*
X314286000Y-54339048D01*
X314431143Y-54399524D01*
X314721429Y-54399524D01*
X314866571Y-54339048D01*
X314939143Y-54278571D01*
X315011714Y-54157619D01*
X315011714Y-53129524D01*
X316463142Y-54399524D02*
X315737428Y-54399524D01*
X315737428Y-53129524D01*
X317769428Y-54399524D02*
X316898571Y-54399524D01*
X317333999Y-54399524D02*
X317333999Y-53129524D01*
X317188856Y-53310952D01*
X317043714Y-53431905D01*
X316898571Y-53492381D01*
X269790858Y-26399524D02*
X269790858Y-25129524D01*
X270661715Y-26399524D01*
X270661715Y-25129524D01*
X271387429Y-25129524D02*
X271387429Y-26157619D01*
X271460001Y-26278571D01*
X271532572Y-26339048D01*
X271677715Y-26399524D01*
X271968001Y-26399524D01*
X272113143Y-26339048D01*
X272185715Y-26278571D01*
X272258286Y-26157619D01*
X272258286Y-25129524D01*
X272984000Y-26399524D02*
X272984000Y-25129524D01*
X273492000Y-26036667D01*
X274000000Y-25129524D01*
X274000000Y-26399524D01*
X274362857Y-26520476D02*
X275524000Y-26520476D01*
X275886857Y-26399524D02*
X275886857Y-25129524D01*
X276757714Y-26399524D01*
X276757714Y-25129524D01*
X278281714Y-26399524D02*
X277410857Y-26399524D01*
X277846285Y-26399524D02*
X277846285Y-25129524D01*
X277701142Y-25310952D01*
X277556000Y-25431905D01*
X277410857Y-25492381D01*
X288790858Y-26399524D02*
X288790858Y-25129524D01*
X289661715Y-26399524D01*
X289661715Y-25129524D01*
X290387429Y-25129524D02*
X290387429Y-26157619D01*
X290460001Y-26278571D01*
X290532572Y-26339048D01*
X290677715Y-26399524D01*
X290968001Y-26399524D01*
X291113143Y-26339048D01*
X291185715Y-26278571D01*
X291258286Y-26157619D01*
X291258286Y-25129524D01*
X291984000Y-26399524D02*
X291984000Y-25129524D01*
X292492000Y-26036667D01*
X293000000Y-25129524D01*
X293000000Y-26399524D01*
X293362857Y-26520476D02*
X294524000Y-26520476D01*
X294886857Y-26399524D02*
X294886857Y-25129524D01*
X295757714Y-26399524D01*
X295757714Y-25129524D01*
X296410857Y-25250476D02*
X296483428Y-25190000D01*
X296628571Y-25129524D01*
X296991428Y-25129524D01*
X297136571Y-25190000D01*
X297209142Y-25250476D01*
X297281714Y-25371429D01*
X297281714Y-25492381D01*
X297209142Y-25673810D01*
X296338285Y-26399524D01*
X297281714Y-26399524D01*
X307790858Y-26399524D02*
X307790858Y-25129524D01*
X308661715Y-26399524D01*
X308661715Y-25129524D01*
X309387429Y-25129524D02*
X309387429Y-26157619D01*
X309460001Y-26278571D01*
X309532572Y-26339048D01*
X309677715Y-26399524D01*
X309968001Y-26399524D01*
X310113143Y-26339048D01*
X310185715Y-26278571D01*
X310258286Y-26157619D01*
X310258286Y-25129524D01*
X310984000Y-26399524D02*
X310984000Y-25129524D01*
X311492000Y-26036667D01*
X312000000Y-25129524D01*
X312000000Y-26399524D01*
X312362857Y-26520476D02*
X313524000Y-26520476D01*
X313886857Y-26399524D02*
X313886857Y-25129524D01*
X314757714Y-26399524D01*
X314757714Y-25129524D01*
X315338285Y-25129524D02*
X316281714Y-25129524D01*
X315773714Y-25613333D01*
X315991428Y-25613333D01*
X316136571Y-25673810D01*
X316209142Y-25734286D01*
X316281714Y-25855238D01*
X316281714Y-26157619D01*
X316209142Y-26278571D01*
X316136571Y-26339048D01*
X315991428Y-26399524D01*
X315556000Y-26399524D01*
X315410857Y-26339048D01*
X315338285Y-26278571D01*
X326790858Y-26399524D02*
X326790858Y-25129524D01*
X327661715Y-26399524D01*
X327661715Y-25129524D01*
X328387429Y-25129524D02*
X328387429Y-26157619D01*
X328460001Y-26278571D01*
X328532572Y-26339048D01*
X328677715Y-26399524D01*
X328968001Y-26399524D01*
X329113143Y-26339048D01*
X329185715Y-26278571D01*
X329258286Y-26157619D01*
X329258286Y-25129524D01*
X329984000Y-26399524D02*
X329984000Y-25129524D01*
X330492000Y-26036667D01*
X331000000Y-25129524D01*
X331000000Y-26399524D01*
X331362857Y-26520476D02*
X332524000Y-26520476D01*
X332886857Y-26399524D02*
X332886857Y-25129524D01*
X333757714Y-26399524D01*
X333757714Y-25129524D01*
X335136571Y-25552857D02*
X335136571Y-26399524D01*
X334773714Y-25069048D02*
X334410857Y-25976190D01*
X335354285Y-25976190D01*
D13*
X-995238Y-5854762D02*
X-852381Y-5902381D01*
X-614285Y-5902381D01*
X-519047Y-5854762D01*
X-471428Y-5807143D01*
X-423809Y-5711905D01*
X-423809Y-5616667D01*
X-471428Y-5521429D01*
X-519047Y-5473810D01*
X-614285Y-5426190D01*
X-804762Y-5378571D01*
X-900000Y-5330952D01*
X-947619Y-5283333D01*
X-995238Y-5188095D01*
X-995238Y-5092857D01*
X-947619Y-4997619D01*
X-900000Y-4950000D01*
X-804762Y-4902381D01*
X-566666Y-4902381D01*
X-423809Y-4950000D01*
X576191Y-5807143D02*
X528572Y-5854762D01*
X385715Y-5902381D01*
X290477Y-5902381D01*
X147619Y-5854762D01*
X52381Y-5759524D01*
X4762Y-5664286D01*
X-42857Y-5473810D01*
X-42857Y-5330952D01*
X4762Y-5140476D01*
X52381Y-5045238D01*
X147619Y-4950000D01*
X290477Y-4902381D01*
X385715Y-4902381D01*
X528572Y-4950000D01*
X576191Y-4997619D01*
X1576191Y-5902381D02*
X1242857Y-5426190D01*
X1004762Y-5902381D02*
X1004762Y-4902381D01*
X1385715Y-4902381D01*
X1480953Y-4950000D01*
X1528572Y-4997619D01*
X1576191Y-5092857D01*
X1576191Y-5235714D01*
X1528572Y-5330952D01*
X1480953Y-5378571D01*
X1385715Y-5426190D01*
X1004762Y-5426190D01*
X2004762Y-5378571D02*
X2338096Y-5378571D01*
X2480953Y-5902381D02*
X2004762Y-5902381D01*
X2004762Y-4902381D01*
X2480953Y-4902381D01*
X2814286Y-4902381D02*
X3052381Y-5902381D01*
X3242858Y-5188095D01*
X3433334Y-5902381D01*
X3671429Y-4902381D01*
X3814286Y-5997619D02*
X4576191Y-5997619D01*
X4814286Y-5902381D02*
X4814286Y-4902381D01*
X4814286Y-5378571D02*
X5385715Y-5378571D01*
X5385715Y-5902381D02*
X5385715Y-4902381D01*
X6052381Y-4902381D02*
X6242858Y-4902381D01*
X6338096Y-4950000D01*
X6433334Y-5045238D01*
X6480953Y-5235714D01*
X6480953Y-5569048D01*
X6433334Y-5759524D01*
X6338096Y-5854762D01*
X6242858Y-5902381D01*
X6052381Y-5902381D01*
X5957143Y-5854762D01*
X5861905Y-5759524D01*
X5814286Y-5569048D01*
X5814286Y-5235714D01*
X5861905Y-5045238D01*
X5957143Y-4950000D01*
X6052381Y-4902381D01*
X7385715Y-5902381D02*
X6909524Y-5902381D01*
X6909524Y-4902381D01*
X7719048Y-5378571D02*
X8052382Y-5378571D01*
X8195239Y-5902381D02*
X7719048Y-5902381D01*
X7719048Y-4902381D01*
X8195239Y-4902381D01*
X1721428Y-752381D02*
X2054761Y-1752381D01*
X2388095Y-752381D01*
X2673809Y-1466667D02*
X3150000Y-1466667D01*
X2578571Y-1752381D02*
X2911904Y-752381D01*
X3245238Y-1752381D01*
X4054762Y-1752381D02*
X3578571Y-1752381D01*
X3578571Y-752381D01*
X4530952Y-752381D02*
X4530952Y-990476D01*
X4292857Y-895238D02*
X4530952Y-990476D01*
X4769048Y-895238D01*
X4388095Y-1180952D02*
X4530952Y-990476D01*
X4673810Y-1180952D01*
X5292857Y-752381D02*
X5292857Y-990476D01*
X5054762Y-895238D02*
X5292857Y-990476D01*
X5530953Y-895238D01*
X5150000Y-1180952D02*
X5292857Y-990476D01*
X5435715Y-1180952D01*
X-995238Y-148854762D02*
X-852381Y-148902381D01*
X-614285Y-148902381D01*
X-519047Y-148854762D01*
X-471428Y-148807143D01*
X-423809Y-148711905D01*
X-423809Y-148616667D01*
X-471428Y-148521429D01*
X-519047Y-148473810D01*
X-614285Y-148426190D01*
X-804762Y-148378571D01*
X-900000Y-148330952D01*
X-947619Y-148283333D01*
X-995238Y-148188095D01*
X-995238Y-148092857D01*
X-947619Y-147997619D01*
X-900000Y-147950000D01*
X-804762Y-147902381D01*
X-566666Y-147902381D01*
X-423809Y-147950000D01*
X576191Y-148807143D02*
X528572Y-148854762D01*
X385715Y-148902381D01*
X290477Y-148902381D01*
X147619Y-148854762D01*
X52381Y-148759524D01*
X4762Y-148664286D01*
X-42857Y-148473810D01*
X-42857Y-148330952D01*
X4762Y-148140476D01*
X52381Y-148045238D01*
X147619Y-147950000D01*
X290477Y-147902381D01*
X385715Y-147902381D01*
X528572Y-147950000D01*
X576191Y-147997619D01*
X1576191Y-148902381D02*
X1242857Y-148426190D01*
X1004762Y-148902381D02*
X1004762Y-147902381D01*
X1385715Y-147902381D01*
X1480953Y-147950000D01*
X1528572Y-147997619D01*
X1576191Y-148092857D01*
X1576191Y-148235714D01*
X1528572Y-148330952D01*
X1480953Y-148378571D01*
X1385715Y-148426190D01*
X1004762Y-148426190D01*
X2004762Y-148378571D02*
X2338096Y-148378571D01*
X2480953Y-148902381D02*
X2004762Y-148902381D01*
X2004762Y-147902381D01*
X2480953Y-147902381D01*
X2814286Y-147902381D02*
X3052381Y-148902381D01*
X3242858Y-148188095D01*
X3433334Y-148902381D01*
X3671429Y-147902381D01*
X3814286Y-148997619D02*
X4576191Y-148997619D01*
X4814286Y-148902381D02*
X4814286Y-147902381D01*
X4814286Y-148378571D02*
X5385715Y-148378571D01*
X5385715Y-148902381D02*
X5385715Y-147902381D01*
X6052381Y-147902381D02*
X6242858Y-147902381D01*
X6338096Y-147950000D01*
X6433334Y-148045238D01*
X6480953Y-148235714D01*
X6480953Y-148569048D01*
X6433334Y-148759524D01*
X6338096Y-148854762D01*
X6242858Y-148902381D01*
X6052381Y-148902381D01*
X5957143Y-148854762D01*
X5861905Y-148759524D01*
X5814286Y-148569048D01*
X5814286Y-148235714D01*
X5861905Y-148045238D01*
X5957143Y-147950000D01*
X6052381Y-147902381D01*
X7385715Y-148902381D02*
X6909524Y-148902381D01*
X6909524Y-147902381D01*
X7719048Y-148378571D02*
X8052382Y-148378571D01*
X8195239Y-148902381D02*
X7719048Y-148902381D01*
X7719048Y-147902381D01*
X8195239Y-147902381D01*
X1721428Y-143752381D02*
X2054761Y-144752381D01*
X2388095Y-143752381D01*
X2673809Y-144466667D02*
X3150000Y-144466667D01*
X2578571Y-144752381D02*
X2911904Y-143752381D01*
X3245238Y-144752381D01*
X4054762Y-144752381D02*
X3578571Y-144752381D01*
X3578571Y-143752381D01*
X4530952Y-143752381D02*
X4530952Y-143990476D01*
X4292857Y-143895238D02*
X4530952Y-143990476D01*
X4769048Y-143895238D01*
X4388095Y-144180952D02*
X4530952Y-143990476D01*
X4673810Y-144180952D01*
X5292857Y-143752381D02*
X5292857Y-143990476D01*
X5054762Y-143895238D02*
X5292857Y-143990476D01*
X5530953Y-143895238D01*
X5150000Y-144180952D02*
X5292857Y-143990476D01*
X5435715Y-144180952D01*
X364004762Y-5854762D02*
X364147619Y-5902381D01*
X364385715Y-5902381D01*
X364480953Y-5854762D01*
X364528572Y-5807143D01*
X364576191Y-5711905D01*
X364576191Y-5616667D01*
X364528572Y-5521429D01*
X364480953Y-5473810D01*
X364385715Y-5426190D01*
X364195238Y-5378571D01*
X364100000Y-5330952D01*
X364052381Y-5283333D01*
X364004762Y-5188095D01*
X364004762Y-5092857D01*
X364052381Y-4997619D01*
X364100000Y-4950000D01*
X364195238Y-4902381D01*
X364433334Y-4902381D01*
X364576191Y-4950000D01*
X365576191Y-5807143D02*
X365528572Y-5854762D01*
X365385715Y-5902381D01*
X365290477Y-5902381D01*
X365147619Y-5854762D01*
X365052381Y-5759524D01*
X365004762Y-5664286D01*
X364957143Y-5473810D01*
X364957143Y-5330952D01*
X365004762Y-5140476D01*
X365052381Y-5045238D01*
X365147619Y-4950000D01*
X365290477Y-4902381D01*
X365385715Y-4902381D01*
X365528572Y-4950000D01*
X365576191Y-4997619D01*
X366576191Y-5902381D02*
X366242857Y-5426190D01*
X366004762Y-5902381D02*
X366004762Y-4902381D01*
X366385715Y-4902381D01*
X366480953Y-4950000D01*
X366528572Y-4997619D01*
X366576191Y-5092857D01*
X366576191Y-5235714D01*
X366528572Y-5330952D01*
X366480953Y-5378571D01*
X366385715Y-5426190D01*
X366004762Y-5426190D01*
X367004762Y-5378571D02*
X367338096Y-5378571D01*
X367480953Y-5902381D02*
X367004762Y-5902381D01*
X367004762Y-4902381D01*
X367480953Y-4902381D01*
X367814286Y-4902381D02*
X368052381Y-5902381D01*
X368242858Y-5188095D01*
X368433334Y-5902381D01*
X368671429Y-4902381D01*
X368814286Y-5997619D02*
X369576191Y-5997619D01*
X369814286Y-5902381D02*
X369814286Y-4902381D01*
X369814286Y-5378571D02*
X370385715Y-5378571D01*
X370385715Y-5902381D02*
X370385715Y-4902381D01*
X371052381Y-4902381D02*
X371242858Y-4902381D01*
X371338096Y-4950000D01*
X371433334Y-5045238D01*
X371480953Y-5235714D01*
X371480953Y-5569048D01*
X371433334Y-5759524D01*
X371338096Y-5854762D01*
X371242858Y-5902381D01*
X371052381Y-5902381D01*
X370957143Y-5854762D01*
X370861905Y-5759524D01*
X370814286Y-5569048D01*
X370814286Y-5235714D01*
X370861905Y-5045238D01*
X370957143Y-4950000D01*
X371052381Y-4902381D01*
X372385715Y-5902381D02*
X371909524Y-5902381D01*
X371909524Y-4902381D01*
X372719048Y-5378571D02*
X373052382Y-5378571D01*
X373195239Y-5902381D02*
X372719048Y-5902381D01*
X372719048Y-4902381D01*
X373195239Y-4902381D01*
X366721428Y-752381D02*
X367054761Y-1752381D01*
X367388095Y-752381D01*
X367673809Y-1466667D02*
X368150000Y-1466667D01*
X367578571Y-1752381D02*
X367911904Y-752381D01*
X368245238Y-1752381D01*
X369054762Y-1752381D02*
X368578571Y-1752381D01*
X368578571Y-752381D01*
X369530952Y-752381D02*
X369530952Y-990476D01*
X369292857Y-895238D02*
X369530952Y-990476D01*
X369769048Y-895238D01*
X369388095Y-1180952D02*
X369530952Y-990476D01*
X369673810Y-1180952D01*
X370292857Y-752381D02*
X370292857Y-990476D01*
X370054762Y-895238D02*
X370292857Y-990476D01*
X370530953Y-895238D01*
X370150000Y-1180952D02*
X370292857Y-990476D01*
X370435715Y-1180952D01*
X364004762Y-148854762D02*
X364147619Y-148902381D01*
X364385715Y-148902381D01*
X364480953Y-148854762D01*
X364528572Y-148807143D01*
X364576191Y-148711905D01*
X364576191Y-148616667D01*
X364528572Y-148521429D01*
X364480953Y-148473810D01*
X364385715Y-148426190D01*
X364195238Y-148378571D01*
X364100000Y-148330952D01*
X364052381Y-148283333D01*
X364004762Y-148188095D01*
X364004762Y-148092857D01*
X364052381Y-147997619D01*
X364100000Y-147950000D01*
X364195238Y-147902381D01*
X364433334Y-147902381D01*
X364576191Y-147950000D01*
X365576191Y-148807143D02*
X365528572Y-148854762D01*
X365385715Y-148902381D01*
X365290477Y-148902381D01*
X365147619Y-148854762D01*
X365052381Y-148759524D01*
X365004762Y-148664286D01*
X364957143Y-148473810D01*
X364957143Y-148330952D01*
X365004762Y-148140476D01*
X365052381Y-148045238D01*
X365147619Y-147950000D01*
X365290477Y-147902381D01*
X365385715Y-147902381D01*
X365528572Y-147950000D01*
X365576191Y-147997619D01*
X366576191Y-148902381D02*
X366242857Y-148426190D01*
X366004762Y-148902381D02*
X366004762Y-147902381D01*
X366385715Y-147902381D01*
X366480953Y-147950000D01*
X366528572Y-147997619D01*
X366576191Y-148092857D01*
X366576191Y-148235714D01*
X366528572Y-148330952D01*
X366480953Y-148378571D01*
X366385715Y-148426190D01*
X366004762Y-148426190D01*
X367004762Y-148378571D02*
X367338096Y-148378571D01*
X367480953Y-148902381D02*
X367004762Y-148902381D01*
X367004762Y-147902381D01*
X367480953Y-147902381D01*
X367814286Y-147902381D02*
X368052381Y-148902381D01*
X368242858Y-148188095D01*
X368433334Y-148902381D01*
X368671429Y-147902381D01*
X368814286Y-148997619D02*
X369576191Y-148997619D01*
X369814286Y-148902381D02*
X369814286Y-147902381D01*
X369814286Y-148378571D02*
X370385715Y-148378571D01*
X370385715Y-148902381D02*
X370385715Y-147902381D01*
X371052381Y-147902381D02*
X371242858Y-147902381D01*
X371338096Y-147950000D01*
X371433334Y-148045238D01*
X371480953Y-148235714D01*
X371480953Y-148569048D01*
X371433334Y-148759524D01*
X371338096Y-148854762D01*
X371242858Y-148902381D01*
X371052381Y-148902381D01*
X370957143Y-148854762D01*
X370861905Y-148759524D01*
X370814286Y-148569048D01*
X370814286Y-148235714D01*
X370861905Y-148045238D01*
X370957143Y-147950000D01*
X371052381Y-147902381D01*
X372385715Y-148902381D02*
X371909524Y-148902381D01*
X371909524Y-147902381D01*
X372719048Y-148378571D02*
X373052382Y-148378571D01*
X373195239Y-148902381D02*
X372719048Y-148902381D01*
X372719048Y-147902381D01*
X373195239Y-147902381D01*
X366721428Y-143752381D02*
X367054761Y-144752381D01*
X367388095Y-143752381D01*
X367673809Y-144466667D02*
X368150000Y-144466667D01*
X367578571Y-144752381D02*
X367911904Y-143752381D01*
X368245238Y-144752381D01*
X369054762Y-144752381D02*
X368578571Y-144752381D01*
X368578571Y-143752381D01*
X369530952Y-143752381D02*
X369530952Y-143990476D01*
X369292857Y-143895238D02*
X369530952Y-143990476D01*
X369769048Y-143895238D01*
X369388095Y-144180952D02*
X369530952Y-143990476D01*
X369673810Y-144180952D01*
X370292857Y-143752381D02*
X370292857Y-143990476D01*
X370054762Y-143895238D02*
X370292857Y-143990476D01*
X370530953Y-143895238D01*
X370150000Y-144180952D02*
X370292857Y-143990476D01*
X370435715Y-144180952D01*
X195504762Y-5854762D02*
X195647619Y-5902381D01*
X195885715Y-5902381D01*
X195980953Y-5854762D01*
X196028572Y-5807143D01*
X196076191Y-5711905D01*
X196076191Y-5616667D01*
X196028572Y-5521429D01*
X195980953Y-5473810D01*
X195885715Y-5426190D01*
X195695238Y-5378571D01*
X195600000Y-5330952D01*
X195552381Y-5283333D01*
X195504762Y-5188095D01*
X195504762Y-5092857D01*
X195552381Y-4997619D01*
X195600000Y-4950000D01*
X195695238Y-4902381D01*
X195933334Y-4902381D01*
X196076191Y-4950000D01*
X197076191Y-5807143D02*
X197028572Y-5854762D01*
X196885715Y-5902381D01*
X196790477Y-5902381D01*
X196647619Y-5854762D01*
X196552381Y-5759524D01*
X196504762Y-5664286D01*
X196457143Y-5473810D01*
X196457143Y-5330952D01*
X196504762Y-5140476D01*
X196552381Y-5045238D01*
X196647619Y-4950000D01*
X196790477Y-4902381D01*
X196885715Y-4902381D01*
X197028572Y-4950000D01*
X197076191Y-4997619D01*
X198076191Y-5902381D02*
X197742857Y-5426190D01*
X197504762Y-5902381D02*
X197504762Y-4902381D01*
X197885715Y-4902381D01*
X197980953Y-4950000D01*
X198028572Y-4997619D01*
X198076191Y-5092857D01*
X198076191Y-5235714D01*
X198028572Y-5330952D01*
X197980953Y-5378571D01*
X197885715Y-5426190D01*
X197504762Y-5426190D01*
X198504762Y-5378571D02*
X198838096Y-5378571D01*
X198980953Y-5902381D02*
X198504762Y-5902381D01*
X198504762Y-4902381D01*
X198980953Y-4902381D01*
X199314286Y-4902381D02*
X199552381Y-5902381D01*
X199742858Y-5188095D01*
X199933334Y-5902381D01*
X200171429Y-4902381D01*
X200314286Y-5997619D02*
X201076191Y-5997619D01*
X201314286Y-5902381D02*
X201314286Y-4902381D01*
X201314286Y-5378571D02*
X201885715Y-5378571D01*
X201885715Y-5902381D02*
X201885715Y-4902381D01*
X202552381Y-4902381D02*
X202742858Y-4902381D01*
X202838096Y-4950000D01*
X202933334Y-5045238D01*
X202980953Y-5235714D01*
X202980953Y-5569048D01*
X202933334Y-5759524D01*
X202838096Y-5854762D01*
X202742858Y-5902381D01*
X202552381Y-5902381D01*
X202457143Y-5854762D01*
X202361905Y-5759524D01*
X202314286Y-5569048D01*
X202314286Y-5235714D01*
X202361905Y-5045238D01*
X202457143Y-4950000D01*
X202552381Y-4902381D01*
X203885715Y-5902381D02*
X203409524Y-5902381D01*
X203409524Y-4902381D01*
X204219048Y-5378571D02*
X204552382Y-5378571D01*
X204695239Y-5902381D02*
X204219048Y-5902381D01*
X204219048Y-4902381D01*
X204695239Y-4902381D01*
X198221428Y-752381D02*
X198554761Y-1752381D01*
X198888095Y-752381D01*
X199173809Y-1466667D02*
X199650000Y-1466667D01*
X199078571Y-1752381D02*
X199411904Y-752381D01*
X199745238Y-1752381D01*
X200554762Y-1752381D02*
X200078571Y-1752381D01*
X200078571Y-752381D01*
X201030952Y-752381D02*
X201030952Y-990476D01*
X200792857Y-895238D02*
X201030952Y-990476D01*
X201269048Y-895238D01*
X200888095Y-1180952D02*
X201030952Y-990476D01*
X201173810Y-1180952D01*
X201792857Y-752381D02*
X201792857Y-990476D01*
X201554762Y-895238D02*
X201792857Y-990476D01*
X202030953Y-895238D01*
X201650000Y-1180952D02*
X201792857Y-990476D01*
X201935715Y-1180952D01*
X195504762Y-97354762D02*
X195647619Y-97402381D01*
X195885715Y-97402381D01*
X195980953Y-97354762D01*
X196028572Y-97307143D01*
X196076191Y-97211905D01*
X196076191Y-97116667D01*
X196028572Y-97021429D01*
X195980953Y-96973810D01*
X195885715Y-96926190D01*
X195695238Y-96878571D01*
X195600000Y-96830952D01*
X195552381Y-96783333D01*
X195504762Y-96688095D01*
X195504762Y-96592857D01*
X195552381Y-96497619D01*
X195600000Y-96450000D01*
X195695238Y-96402381D01*
X195933334Y-96402381D01*
X196076191Y-96450000D01*
X197076191Y-97307143D02*
X197028572Y-97354762D01*
X196885715Y-97402381D01*
X196790477Y-97402381D01*
X196647619Y-97354762D01*
X196552381Y-97259524D01*
X196504762Y-97164286D01*
X196457143Y-96973810D01*
X196457143Y-96830952D01*
X196504762Y-96640476D01*
X196552381Y-96545238D01*
X196647619Y-96450000D01*
X196790477Y-96402381D01*
X196885715Y-96402381D01*
X197028572Y-96450000D01*
X197076191Y-96497619D01*
X198076191Y-97402381D02*
X197742857Y-96926190D01*
X197504762Y-97402381D02*
X197504762Y-96402381D01*
X197885715Y-96402381D01*
X197980953Y-96450000D01*
X198028572Y-96497619D01*
X198076191Y-96592857D01*
X198076191Y-96735714D01*
X198028572Y-96830952D01*
X197980953Y-96878571D01*
X197885715Y-96926190D01*
X197504762Y-96926190D01*
X198504762Y-96878571D02*
X198838096Y-96878571D01*
X198980953Y-97402381D02*
X198504762Y-97402381D01*
X198504762Y-96402381D01*
X198980953Y-96402381D01*
X199314286Y-96402381D02*
X199552381Y-97402381D01*
X199742858Y-96688095D01*
X199933334Y-97402381D01*
X200171429Y-96402381D01*
X200314286Y-97497619D02*
X201076191Y-97497619D01*
X201314286Y-97402381D02*
X201314286Y-96402381D01*
X201314286Y-96878571D02*
X201885715Y-96878571D01*
X201885715Y-97402381D02*
X201885715Y-96402381D01*
X202552381Y-96402381D02*
X202742858Y-96402381D01*
X202838096Y-96450000D01*
X202933334Y-96545238D01*
X202980953Y-96735714D01*
X202980953Y-97069048D01*
X202933334Y-97259524D01*
X202838096Y-97354762D01*
X202742858Y-97402381D01*
X202552381Y-97402381D01*
X202457143Y-97354762D01*
X202361905Y-97259524D01*
X202314286Y-97069048D01*
X202314286Y-96735714D01*
X202361905Y-96545238D01*
X202457143Y-96450000D01*
X202552381Y-96402381D01*
X203885715Y-97402381D02*
X203409524Y-97402381D01*
X203409524Y-96402381D01*
X204219048Y-96878571D02*
X204552382Y-96878571D01*
X204695239Y-97402381D02*
X204219048Y-97402381D01*
X204219048Y-96402381D01*
X204695239Y-96402381D01*
X198221428Y-92252381D02*
X198554761Y-93252381D01*
X198888095Y-92252381D01*
X199173809Y-92966667D02*
X199650000Y-92966667D01*
X199078571Y-93252381D02*
X199411904Y-92252381D01*
X199745238Y-93252381D01*
X200554762Y-93252381D02*
X200078571Y-93252381D01*
X200078571Y-92252381D01*
X201030952Y-92252381D02*
X201030952Y-92490476D01*
X200792857Y-92395238D02*
X201030952Y-92490476D01*
X201269048Y-92395238D01*
X200888095Y-92680952D02*
X201030952Y-92490476D01*
X201173810Y-92680952D01*
X201792857Y-92252381D02*
X201792857Y-92490476D01*
X201554762Y-92395238D02*
X201792857Y-92490476D01*
X202030953Y-92395238D01*
X201650000Y-92680952D02*
X201792857Y-92490476D01*
X201935715Y-92680952D01*
X195504762Y-148854762D02*
X195647619Y-148902381D01*
X195885715Y-148902381D01*
X195980953Y-148854762D01*
X196028572Y-148807143D01*
X196076191Y-148711905D01*
X196076191Y-148616667D01*
X196028572Y-148521429D01*
X195980953Y-148473810D01*
X195885715Y-148426190D01*
X195695238Y-148378571D01*
X195600000Y-148330952D01*
X195552381Y-148283333D01*
X195504762Y-148188095D01*
X195504762Y-148092857D01*
X195552381Y-147997619D01*
X195600000Y-147950000D01*
X195695238Y-147902381D01*
X195933334Y-147902381D01*
X196076191Y-147950000D01*
X197076191Y-148807143D02*
X197028572Y-148854762D01*
X196885715Y-148902381D01*
X196790477Y-148902381D01*
X196647619Y-148854762D01*
X196552381Y-148759524D01*
X196504762Y-148664286D01*
X196457143Y-148473810D01*
X196457143Y-148330952D01*
X196504762Y-148140476D01*
X196552381Y-148045238D01*
X196647619Y-147950000D01*
X196790477Y-147902381D01*
X196885715Y-147902381D01*
X197028572Y-147950000D01*
X197076191Y-147997619D01*
X198076191Y-148902381D02*
X197742857Y-148426190D01*
X197504762Y-148902381D02*
X197504762Y-147902381D01*
X197885715Y-147902381D01*
X197980953Y-147950000D01*
X198028572Y-147997619D01*
X198076191Y-148092857D01*
X198076191Y-148235714D01*
X198028572Y-148330952D01*
X197980953Y-148378571D01*
X197885715Y-148426190D01*
X197504762Y-148426190D01*
X198504762Y-148378571D02*
X198838096Y-148378571D01*
X198980953Y-148902381D02*
X198504762Y-148902381D01*
X198504762Y-147902381D01*
X198980953Y-147902381D01*
X199314286Y-147902381D02*
X199552381Y-148902381D01*
X199742858Y-148188095D01*
X199933334Y-148902381D01*
X200171429Y-147902381D01*
X200314286Y-148997619D02*
X201076191Y-148997619D01*
X201314286Y-148902381D02*
X201314286Y-147902381D01*
X201314286Y-148378571D02*
X201885715Y-148378571D01*
X201885715Y-148902381D02*
X201885715Y-147902381D01*
X202552381Y-147902381D02*
X202742858Y-147902381D01*
X202838096Y-147950000D01*
X202933334Y-148045238D01*
X202980953Y-148235714D01*
X202980953Y-148569048D01*
X202933334Y-148759524D01*
X202838096Y-148854762D01*
X202742858Y-148902381D01*
X202552381Y-148902381D01*
X202457143Y-148854762D01*
X202361905Y-148759524D01*
X202314286Y-148569048D01*
X202314286Y-148235714D01*
X202361905Y-148045238D01*
X202457143Y-147950000D01*
X202552381Y-147902381D01*
X203885715Y-148902381D02*
X203409524Y-148902381D01*
X203409524Y-147902381D01*
X204219048Y-148378571D02*
X204552382Y-148378571D01*
X204695239Y-148902381D02*
X204219048Y-148902381D01*
X204219048Y-147902381D01*
X204695239Y-147902381D01*
X198221428Y-143752381D02*
X198554761Y-144752381D01*
X198888095Y-143752381D01*
X199173809Y-144466667D02*
X199650000Y-144466667D01*
X199078571Y-144752381D02*
X199411904Y-143752381D01*
X199745238Y-144752381D01*
X200554762Y-144752381D02*
X200078571Y-144752381D01*
X200078571Y-143752381D01*
X201030952Y-143752381D02*
X201030952Y-143990476D01*
X200792857Y-143895238D02*
X201030952Y-143990476D01*
X201269048Y-143895238D01*
X200888095Y-144180952D02*
X201030952Y-143990476D01*
X201173810Y-144180952D01*
X201792857Y-143752381D02*
X201792857Y-143990476D01*
X201554762Y-143895238D02*
X201792857Y-143990476D01*
X202030953Y-143895238D01*
X201650000Y-144180952D02*
X201792857Y-143990476D01*
X201935715Y-144180952D01*
D12*
X16198286Y-73399524D02*
X16198286Y-72129524D01*
X16706286Y-73036667D01*
X17214286Y-72129524D01*
X17214286Y-73399524D01*
X17867429Y-73036667D02*
X18593143Y-73036667D01*
X17722286Y-73399524D02*
X18230286Y-72129524D01*
X18738286Y-73399524D01*
X20117143Y-73278571D02*
X20044572Y-73339048D01*
X19826858Y-73399524D01*
X19681715Y-73399524D01*
X19464000Y-73339048D01*
X19318858Y-73218095D01*
X19246286Y-73097143D01*
X19173715Y-72855238D01*
X19173715Y-72673810D01*
X19246286Y-72431905D01*
X19318858Y-72310952D01*
X19464000Y-72190000D01*
X19681715Y-72129524D01*
X19826858Y-72129524D01*
X20044572Y-72190000D01*
X20117143Y-72250476D01*
X21641143Y-73399524D02*
X21133143Y-72794762D01*
X20770286Y-73399524D02*
X20770286Y-72129524D01*
X21350858Y-72129524D01*
X21496000Y-72190000D01*
X21568572Y-72250476D01*
X21641143Y-72371429D01*
X21641143Y-72552857D01*
X21568572Y-72673810D01*
X21496000Y-72734286D01*
X21350858Y-72794762D01*
X20770286Y-72794762D01*
X22584572Y-72129524D02*
X22874858Y-72129524D01*
X23020000Y-72190000D01*
X23165143Y-72310952D01*
X23237715Y-72552857D01*
X23237715Y-72976190D01*
X23165143Y-73218095D01*
X23020000Y-73339048D01*
X22874858Y-73399524D01*
X22584572Y-73399524D01*
X22439429Y-73339048D01*
X22294286Y-73218095D01*
X22221715Y-72976190D01*
X22221715Y-72552857D01*
X22294286Y-72310952D01*
X22439429Y-72190000D01*
X22584572Y-72129524D01*
X23528000Y-73520476D02*
X24689143Y-73520476D01*
X25922857Y-73399524D02*
X25414857Y-72794762D01*
X25052000Y-73399524D02*
X25052000Y-72129524D01*
X25632572Y-72129524D01*
X25777714Y-72190000D01*
X25850286Y-72250476D01*
X25922857Y-72371429D01*
X25922857Y-72552857D01*
X25850286Y-72673810D01*
X25777714Y-72734286D01*
X25632572Y-72794762D01*
X25052000Y-72794762D01*
X27229143Y-72552857D02*
X27229143Y-73399524D01*
X26866286Y-72069048D02*
X26503429Y-72976190D01*
X27446857Y-72976190D01*
X11448286Y-130399524D02*
X11448286Y-129129524D01*
X11956286Y-130036667D01*
X12464286Y-129129524D01*
X12464286Y-130399524D01*
X13117429Y-130036667D02*
X13843143Y-130036667D01*
X12972286Y-130399524D02*
X13480286Y-129129524D01*
X13988286Y-130399524D01*
X15367143Y-130278571D02*
X15294572Y-130339048D01*
X15076858Y-130399524D01*
X14931715Y-130399524D01*
X14714000Y-130339048D01*
X14568858Y-130218095D01*
X14496286Y-130097143D01*
X14423715Y-129855238D01*
X14423715Y-129673810D01*
X14496286Y-129431905D01*
X14568858Y-129310952D01*
X14714000Y-129190000D01*
X14931715Y-129129524D01*
X15076858Y-129129524D01*
X15294572Y-129190000D01*
X15367143Y-129250476D01*
X16891143Y-130399524D02*
X16383143Y-129794762D01*
X16020286Y-130399524D02*
X16020286Y-129129524D01*
X16600858Y-129129524D01*
X16746000Y-129190000D01*
X16818572Y-129250476D01*
X16891143Y-129371429D01*
X16891143Y-129552857D01*
X16818572Y-129673810D01*
X16746000Y-129734286D01*
X16600858Y-129794762D01*
X16020286Y-129794762D01*
X17834572Y-129129524D02*
X18124858Y-129129524D01*
X18270000Y-129190000D01*
X18415143Y-129310952D01*
X18487715Y-129552857D01*
X18487715Y-129976190D01*
X18415143Y-130218095D01*
X18270000Y-130339048D01*
X18124858Y-130399524D01*
X17834572Y-130399524D01*
X17689429Y-130339048D01*
X17544286Y-130218095D01*
X17471715Y-129976190D01*
X17471715Y-129552857D01*
X17544286Y-129310952D01*
X17689429Y-129190000D01*
X17834572Y-129129524D01*
X18778000Y-130520476D02*
X19939143Y-130520476D01*
X21172857Y-130399524D02*
X20664857Y-129794762D01*
X20302000Y-130399524D02*
X20302000Y-129129524D01*
X20882572Y-129129524D01*
X21027714Y-129190000D01*
X21100286Y-129250476D01*
X21172857Y-129371429D01*
X21172857Y-129552857D01*
X21100286Y-129673810D01*
X21027714Y-129734286D01*
X20882572Y-129794762D01*
X20302000Y-129794762D01*
X21680857Y-129129524D02*
X22696857Y-129129524D01*
X22043714Y-130399524D01*
X41798857Y-73399524D02*
X41798857Y-72129524D01*
X42669714Y-73399524D02*
X42016571Y-72673810D01*
X42669714Y-72129524D02*
X41798857Y-72855238D01*
X43322857Y-72734286D02*
X43830857Y-72734286D01*
X44048571Y-73399524D02*
X43322857Y-73399524D01*
X43322857Y-72129524D01*
X44048571Y-72129524D01*
X44992000Y-72794762D02*
X44992000Y-73399524D01*
X44484000Y-72129524D02*
X44992000Y-72794762D01*
X45500000Y-72129524D01*
X45645143Y-73520476D02*
X46806286Y-73520476D01*
X47459429Y-72794762D02*
X47459429Y-73399524D01*
X46951429Y-72129524D02*
X47459429Y-72794762D01*
X47967429Y-72129524D01*
X49273715Y-73399524D02*
X48402858Y-73399524D01*
X48838286Y-73399524D02*
X48838286Y-72129524D01*
X48693143Y-72310952D01*
X48548001Y-72431905D01*
X48402858Y-72492381D01*
X37388428Y-130399524D02*
X37388428Y-129129524D01*
X38259285Y-130399524D02*
X37606142Y-129673810D01*
X38259285Y-129129524D02*
X37388428Y-129855238D01*
X38912428Y-129734286D02*
X39420428Y-129734286D01*
X39638142Y-130399524D02*
X38912428Y-130399524D01*
X38912428Y-129129524D01*
X39638142Y-129129524D01*
X40581571Y-129794762D02*
X40581571Y-130399524D01*
X40073571Y-129129524D02*
X40581571Y-129794762D01*
X41089571Y-129129524D01*
X41234714Y-130520476D02*
X42395857Y-130520476D01*
X43629571Y-130399524D02*
X43121571Y-129794762D01*
X42758714Y-130399524D02*
X42758714Y-129129524D01*
X43339286Y-129129524D01*
X43484428Y-129190000D01*
X43557000Y-129250476D01*
X43629571Y-129371429D01*
X43629571Y-129552857D01*
X43557000Y-129673810D01*
X43484428Y-129734286D01*
X43339286Y-129794762D01*
X42758714Y-129794762D01*
X44282714Y-130399524D02*
X44282714Y-129129524D01*
X45806714Y-129190000D02*
X45661571Y-129129524D01*
X45443857Y-129129524D01*
X45226142Y-129190000D01*
X45081000Y-129310952D01*
X45008428Y-129431905D01*
X44935857Y-129673810D01*
X44935857Y-129855238D01*
X45008428Y-130097143D01*
X45081000Y-130218095D01*
X45226142Y-130339048D01*
X45443857Y-130399524D01*
X45589000Y-130399524D01*
X45806714Y-130339048D01*
X45879285Y-130278571D01*
X45879285Y-129855238D01*
X45589000Y-129855238D01*
X46532428Y-130399524D02*
X46532428Y-129129524D01*
X46532428Y-129734286D02*
X47403285Y-129734286D01*
X47403285Y-130399524D02*
X47403285Y-129129524D01*
X47911285Y-129129524D02*
X48782142Y-129129524D01*
X48346713Y-130399524D02*
X48346713Y-129129524D01*
X48927285Y-130520476D02*
X50088428Y-130520476D01*
X50378714Y-130339048D02*
X50596428Y-130399524D01*
X50959285Y-130399524D01*
X51104428Y-130339048D01*
X51176999Y-130278571D01*
X51249571Y-130157619D01*
X51249571Y-130036667D01*
X51176999Y-129915714D01*
X51104428Y-129855238D01*
X50959285Y-129794762D01*
X50668999Y-129734286D01*
X50523857Y-129673810D01*
X50451285Y-129613333D01*
X50378714Y-129492381D01*
X50378714Y-129371429D01*
X50451285Y-129250476D01*
X50523857Y-129190000D01*
X50668999Y-129129524D01*
X51031857Y-129129524D01*
X51249571Y-129190000D01*
X51902714Y-130399524D02*
X51902714Y-129129524D01*
X52483286Y-129129524D01*
X52628428Y-129190000D01*
X52701000Y-129250476D01*
X52773571Y-129371429D01*
X52773571Y-129552857D01*
X52701000Y-129673810D01*
X52628428Y-129734286D01*
X52483286Y-129794762D01*
X51902714Y-129794762D01*
X53354143Y-130036667D02*
X54079857Y-130036667D01*
X53209000Y-130399524D02*
X53717000Y-129129524D01*
X54225000Y-130399524D01*
X55603857Y-130278571D02*
X55531286Y-130339048D01*
X55313572Y-130399524D01*
X55168429Y-130399524D01*
X54950714Y-130339048D01*
X54805572Y-130218095D01*
X54733000Y-130097143D01*
X54660429Y-129855238D01*
X54660429Y-129673810D01*
X54733000Y-129431905D01*
X54805572Y-129310952D01*
X54950714Y-129190000D01*
X55168429Y-129129524D01*
X55313572Y-129129524D01*
X55531286Y-129190000D01*
X55603857Y-129250476D01*
X56257000Y-129734286D02*
X56765000Y-129734286D01*
X56982714Y-130399524D02*
X56257000Y-130399524D01*
X56257000Y-129129524D01*
X56982714Y-129129524D01*
X58434143Y-130399524D02*
X57563286Y-130399524D01*
X57998714Y-130399524D02*
X57998714Y-129129524D01*
X57853571Y-129310952D01*
X57708429Y-129431905D01*
X57563286Y-129492381D01*
X161360143Y-111399524D02*
X161360143Y-110129524D01*
X162231000Y-111399524D02*
X161577857Y-110673810D01*
X162231000Y-110129524D02*
X161360143Y-110855238D01*
X162884143Y-110734286D02*
X163392143Y-110734286D01*
X163609857Y-111399524D02*
X162884143Y-111399524D01*
X162884143Y-110129524D01*
X163609857Y-110129524D01*
X164553286Y-110794762D02*
X164553286Y-111399524D01*
X164045286Y-110129524D02*
X164553286Y-110794762D01*
X165061286Y-110129524D01*
X165206429Y-111520476D02*
X166367572Y-111520476D01*
X167601286Y-111399524D02*
X167093286Y-110794762D01*
X166730429Y-111399524D02*
X166730429Y-110129524D01*
X167311001Y-110129524D01*
X167456143Y-110190000D01*
X167528715Y-110250476D01*
X167601286Y-110371429D01*
X167601286Y-110552857D01*
X167528715Y-110673810D01*
X167456143Y-110734286D01*
X167311001Y-110794762D01*
X166730429Y-110794762D01*
X168254429Y-111399524D02*
X168254429Y-110129524D01*
X169778429Y-110190000D02*
X169633286Y-110129524D01*
X169415572Y-110129524D01*
X169197857Y-110190000D01*
X169052715Y-110310952D01*
X168980143Y-110431905D01*
X168907572Y-110673810D01*
X168907572Y-110855238D01*
X168980143Y-111097143D01*
X169052715Y-111218095D01*
X169197857Y-111339048D01*
X169415572Y-111399524D01*
X169560715Y-111399524D01*
X169778429Y-111339048D01*
X169851000Y-111278571D01*
X169851000Y-110855238D01*
X169560715Y-110855238D01*
X170504143Y-111399524D02*
X170504143Y-110129524D01*
X170504143Y-110734286D02*
X171375000Y-110734286D01*
X171375000Y-111399524D02*
X171375000Y-110129524D01*
X171883000Y-110129524D02*
X172753857Y-110129524D01*
X172318428Y-111399524D02*
X172318428Y-110129524D01*
X172899000Y-111520476D02*
X174060143Y-111520476D01*
X174350429Y-111339048D02*
X174568143Y-111399524D01*
X174931000Y-111399524D01*
X175076143Y-111339048D01*
X175148714Y-111278571D01*
X175221286Y-111157619D01*
X175221286Y-111036667D01*
X175148714Y-110915714D01*
X175076143Y-110855238D01*
X174931000Y-110794762D01*
X174640714Y-110734286D01*
X174495572Y-110673810D01*
X174423000Y-110613333D01*
X174350429Y-110492381D01*
X174350429Y-110371429D01*
X174423000Y-110250476D01*
X174495572Y-110190000D01*
X174640714Y-110129524D01*
X175003572Y-110129524D01*
X175221286Y-110190000D01*
X175874429Y-111399524D02*
X175874429Y-110129524D01*
X175874429Y-110734286D02*
X176745286Y-110734286D01*
X176745286Y-111399524D02*
X176745286Y-110129524D01*
X177471000Y-111399524D02*
X177471000Y-110129524D01*
X178704714Y-110734286D02*
X178196714Y-110734286D01*
X178196714Y-111399524D02*
X178196714Y-110129524D01*
X178922428Y-110129524D01*
X179285286Y-110129524D02*
X180156143Y-110129524D01*
X179720714Y-111399524D02*
X179720714Y-110129524D01*
X181462429Y-111399524D02*
X180591572Y-111399524D01*
X181027000Y-111399524D02*
X181027000Y-110129524D01*
X180881857Y-110310952D01*
X180736715Y-110431905D01*
X180591572Y-110492381D01*
X151823858Y-130399524D02*
X151823858Y-129129524D01*
X152694715Y-130399524D02*
X152041572Y-129673810D01*
X152694715Y-129129524D02*
X151823858Y-129855238D01*
X153347858Y-129734286D02*
X153855858Y-129734286D01*
X154073572Y-130399524D02*
X153347858Y-130399524D01*
X153347858Y-129129524D01*
X154073572Y-129129524D01*
X155017001Y-129794762D02*
X155017001Y-130399524D01*
X154509001Y-129129524D02*
X155017001Y-129794762D01*
X155525001Y-129129524D01*
X155670144Y-130520476D02*
X156831287Y-130520476D01*
X158065001Y-130399524D02*
X157557001Y-129794762D01*
X157194144Y-130399524D02*
X157194144Y-129129524D01*
X157774716Y-129129524D01*
X157919858Y-129190000D01*
X157992430Y-129250476D01*
X158065001Y-129371429D01*
X158065001Y-129552857D01*
X157992430Y-129673810D01*
X157919858Y-129734286D01*
X157774716Y-129794762D01*
X157194144Y-129794762D01*
X158718144Y-130399524D02*
X158718144Y-129129524D01*
X160242144Y-129190000D02*
X160097001Y-129129524D01*
X159879287Y-129129524D01*
X159661572Y-129190000D01*
X159516430Y-129310952D01*
X159443858Y-129431905D01*
X159371287Y-129673810D01*
X159371287Y-129855238D01*
X159443858Y-130097143D01*
X159516430Y-130218095D01*
X159661572Y-130339048D01*
X159879287Y-130399524D01*
X160024430Y-130399524D01*
X160242144Y-130339048D01*
X160314715Y-130278571D01*
X160314715Y-129855238D01*
X160024430Y-129855238D01*
X160967858Y-130399524D02*
X160967858Y-129129524D01*
X160967858Y-129734286D02*
X161838715Y-129734286D01*
X161838715Y-130399524D02*
X161838715Y-129129524D01*
X162346715Y-129129524D02*
X163217572Y-129129524D01*
X162782143Y-130399524D02*
X162782143Y-129129524D01*
X163362715Y-130520476D02*
X164523858Y-130520476D01*
X164886715Y-130399524D02*
X164886715Y-129129524D01*
X165394715Y-130036667D01*
X165902715Y-129129524D01*
X165902715Y-130399524D01*
X166628429Y-129734286D02*
X167136429Y-129734286D01*
X167354143Y-130399524D02*
X166628429Y-130399524D01*
X166628429Y-129129524D01*
X167354143Y-129129524D01*
X168007286Y-130399524D02*
X168007286Y-129129524D01*
X168878143Y-130399524D01*
X168878143Y-129129524D01*
X169603857Y-129129524D02*
X169603857Y-130157619D01*
X169676429Y-130278571D01*
X169749000Y-130339048D01*
X169894143Y-130399524D01*
X170184429Y-130399524D01*
X170329571Y-130339048D01*
X170402143Y-130278571D01*
X170474714Y-130157619D01*
X170474714Y-129129524D01*
X171998714Y-130399524D02*
X171127857Y-130399524D01*
X171563285Y-130399524D02*
X171563285Y-129129524D01*
X171418142Y-129310952D01*
X171273000Y-129431905D01*
X171127857Y-129492381D01*
X176009286Y-130399524D02*
X176009286Y-129129524D01*
X176880143Y-130399524D02*
X176227000Y-129673810D01*
X176880143Y-129129524D02*
X176009286Y-129855238D01*
X177533286Y-129734286D02*
X178041286Y-129734286D01*
X178259000Y-130399524D02*
X177533286Y-130399524D01*
X177533286Y-129129524D01*
X178259000Y-129129524D01*
X179202429Y-129794762D02*
X179202429Y-130399524D01*
X178694429Y-129129524D02*
X179202429Y-129794762D01*
X179710429Y-129129524D01*
X179855572Y-130520476D02*
X181016715Y-130520476D01*
X182250429Y-130399524D02*
X181742429Y-129794762D01*
X181379572Y-130399524D02*
X181379572Y-129129524D01*
X181960144Y-129129524D01*
X182105286Y-129190000D01*
X182177858Y-129250476D01*
X182250429Y-129371429D01*
X182250429Y-129552857D01*
X182177858Y-129673810D01*
X182105286Y-129734286D01*
X181960144Y-129794762D01*
X181379572Y-129794762D01*
X182903572Y-130399524D02*
X182903572Y-129129524D01*
X184427572Y-129190000D02*
X184282429Y-129129524D01*
X184064715Y-129129524D01*
X183847000Y-129190000D01*
X183701858Y-129310952D01*
X183629286Y-129431905D01*
X183556715Y-129673810D01*
X183556715Y-129855238D01*
X183629286Y-130097143D01*
X183701858Y-130218095D01*
X183847000Y-130339048D01*
X184064715Y-130399524D01*
X184209858Y-130399524D01*
X184427572Y-130339048D01*
X184500143Y-130278571D01*
X184500143Y-129855238D01*
X184209858Y-129855238D01*
X185153286Y-130399524D02*
X185153286Y-129129524D01*
X185153286Y-129734286D02*
X186024143Y-129734286D01*
X186024143Y-130399524D02*
X186024143Y-129129524D01*
X186532143Y-129129524D02*
X187403000Y-129129524D01*
X186967571Y-130399524D02*
X186967571Y-129129524D01*
X187548143Y-130520476D02*
X188709286Y-130520476D01*
X189943000Y-130278571D02*
X189870429Y-130339048D01*
X189652715Y-130399524D01*
X189507572Y-130399524D01*
X189289857Y-130339048D01*
X189144715Y-130218095D01*
X189072143Y-130097143D01*
X188999572Y-129855238D01*
X188999572Y-129673810D01*
X189072143Y-129431905D01*
X189144715Y-129310952D01*
X189289857Y-129190000D01*
X189507572Y-129129524D01*
X189652715Y-129129524D01*
X189870429Y-129190000D01*
X189943000Y-129250476D01*
X190378429Y-129129524D02*
X191249286Y-129129524D01*
X190813857Y-130399524D02*
X190813857Y-129129524D01*
X192628143Y-130399524D02*
X192120143Y-129794762D01*
X191757286Y-130399524D02*
X191757286Y-129129524D01*
X192337858Y-129129524D01*
X192483000Y-129190000D01*
X192555572Y-129250476D01*
X192628143Y-129371429D01*
X192628143Y-129552857D01*
X192555572Y-129673810D01*
X192483000Y-129734286D01*
X192337858Y-129794762D01*
X191757286Y-129794762D01*
X194007000Y-130399524D02*
X193281286Y-130399524D01*
X193281286Y-129129524D01*
X195313286Y-130399524D02*
X194442429Y-130399524D01*
X194877857Y-130399524D02*
X194877857Y-129129524D01*
X194732714Y-129310952D01*
X194587572Y-129431905D01*
X194442429Y-129492381D01*
X173743142Y-73399524D02*
X173743142Y-72129524D01*
X174613999Y-73399524D02*
X173960856Y-72673810D01*
X174613999Y-72129524D02*
X173743142Y-72855238D01*
X175267142Y-72734286D02*
X175775142Y-72734286D01*
X175992856Y-73399524D02*
X175267142Y-73399524D01*
X175267142Y-72129524D01*
X175992856Y-72129524D01*
X176936285Y-72794762D02*
X176936285Y-73399524D01*
X176428285Y-72129524D02*
X176936285Y-72794762D01*
X177444285Y-72129524D01*
X177589428Y-73520476D02*
X178750571Y-73520476D01*
X179621428Y-72734286D02*
X179839142Y-72794762D01*
X179911714Y-72855238D01*
X179984285Y-72976190D01*
X179984285Y-73157619D01*
X179911714Y-73278571D01*
X179839142Y-73339048D01*
X179694000Y-73399524D01*
X179113428Y-73399524D01*
X179113428Y-72129524D01*
X179621428Y-72129524D01*
X179766571Y-72190000D01*
X179839142Y-72250476D01*
X179911714Y-72371429D01*
X179911714Y-72492381D01*
X179839142Y-72613333D01*
X179766571Y-72673810D01*
X179621428Y-72734286D01*
X179113428Y-72734286D01*
X180564857Y-73036667D02*
X181290571Y-73036667D01*
X180419714Y-73399524D02*
X180927714Y-72129524D01*
X181435714Y-73399524D01*
X182814571Y-73278571D02*
X182742000Y-73339048D01*
X182524286Y-73399524D01*
X182379143Y-73399524D01*
X182161428Y-73339048D01*
X182016286Y-73218095D01*
X181943714Y-73097143D01*
X181871143Y-72855238D01*
X181871143Y-72673810D01*
X181943714Y-72431905D01*
X182016286Y-72310952D01*
X182161428Y-72190000D01*
X182379143Y-72129524D01*
X182524286Y-72129524D01*
X182742000Y-72190000D01*
X182814571Y-72250476D01*
X183467714Y-73399524D02*
X183467714Y-72129524D01*
X184338571Y-73399524D02*
X183685428Y-72673810D01*
X184338571Y-72129524D02*
X183467714Y-72855238D01*
X184919143Y-73339048D02*
X185136857Y-73399524D01*
X185499714Y-73399524D01*
X185644857Y-73339048D01*
X185717428Y-73278571D01*
X185790000Y-73157619D01*
X185790000Y-73036667D01*
X185717428Y-72915714D01*
X185644857Y-72855238D01*
X185499714Y-72794762D01*
X185209428Y-72734286D01*
X185064286Y-72673810D01*
X184991714Y-72613333D01*
X184919143Y-72492381D01*
X184919143Y-72371429D01*
X184991714Y-72250476D01*
X185064286Y-72190000D01*
X185209428Y-72129524D01*
X185572286Y-72129524D01*
X185790000Y-72190000D01*
X187168857Y-73399524D02*
X186443143Y-73399524D01*
X186443143Y-72129524D01*
X187604286Y-73036667D02*
X188330000Y-73036667D01*
X187459143Y-73399524D02*
X187967143Y-72129524D01*
X188475143Y-73399524D01*
X188910572Y-73339048D02*
X189128286Y-73399524D01*
X189491143Y-73399524D01*
X189636286Y-73339048D01*
X189708857Y-73278571D01*
X189781429Y-73157619D01*
X189781429Y-73036667D01*
X189708857Y-72915714D01*
X189636286Y-72855238D01*
X189491143Y-72794762D01*
X189200857Y-72734286D01*
X189055715Y-72673810D01*
X188983143Y-72613333D01*
X188910572Y-72492381D01*
X188910572Y-72371429D01*
X188983143Y-72250476D01*
X189055715Y-72190000D01*
X189200857Y-72129524D01*
X189563715Y-72129524D01*
X189781429Y-72190000D01*
X190434572Y-73399524D02*
X190434572Y-72129524D01*
X190434572Y-72734286D02*
X191305429Y-72734286D01*
X191305429Y-73399524D02*
X191305429Y-72129524D01*
X192829429Y-73399524D02*
X191958572Y-73399524D01*
X192394000Y-73399524D02*
X192394000Y-72129524D01*
X192248857Y-72310952D01*
X192103715Y-72431905D01*
X191958572Y-72492381D01*
X148977143Y-73399524D02*
X148977143Y-72129524D01*
X149848000Y-73399524D02*
X149194857Y-72673810D01*
X149848000Y-72129524D02*
X148977143Y-72855238D01*
X150501143Y-72734286D02*
X151009143Y-72734286D01*
X151226857Y-73399524D02*
X150501143Y-73399524D01*
X150501143Y-72129524D01*
X151226857Y-72129524D01*
X152170286Y-72794762D02*
X152170286Y-73399524D01*
X151662286Y-72129524D02*
X152170286Y-72794762D01*
X152678286Y-72129524D01*
X152823429Y-73520476D02*
X153984572Y-73520476D01*
X155218286Y-73399524D02*
X154710286Y-72794762D01*
X154347429Y-73399524D02*
X154347429Y-72129524D01*
X154928001Y-72129524D01*
X155073143Y-72190000D01*
X155145715Y-72250476D01*
X155218286Y-72371429D01*
X155218286Y-72552857D01*
X155145715Y-72673810D01*
X155073143Y-72734286D01*
X154928001Y-72794762D01*
X154347429Y-72794762D01*
X155871429Y-73399524D02*
X155871429Y-72129524D01*
X157395429Y-72190000D02*
X157250286Y-72129524D01*
X157032572Y-72129524D01*
X156814857Y-72190000D01*
X156669715Y-72310952D01*
X156597143Y-72431905D01*
X156524572Y-72673810D01*
X156524572Y-72855238D01*
X156597143Y-73097143D01*
X156669715Y-73218095D01*
X156814857Y-73339048D01*
X157032572Y-73399524D01*
X157177715Y-73399524D01*
X157395429Y-73339048D01*
X157468000Y-73278571D01*
X157468000Y-72855238D01*
X157177715Y-72855238D01*
X158121143Y-73399524D02*
X158121143Y-72129524D01*
X158121143Y-72734286D02*
X158992000Y-72734286D01*
X158992000Y-73399524D02*
X158992000Y-72129524D01*
X159500000Y-72129524D02*
X160370857Y-72129524D01*
X159935428Y-73399524D02*
X159935428Y-72129524D01*
X160516000Y-73520476D02*
X161677143Y-73520476D01*
X162548000Y-72734286D02*
X162765714Y-72794762D01*
X162838286Y-72855238D01*
X162910857Y-72976190D01*
X162910857Y-73157619D01*
X162838286Y-73278571D01*
X162765714Y-73339048D01*
X162620572Y-73399524D01*
X162040000Y-73399524D01*
X162040000Y-72129524D01*
X162548000Y-72129524D01*
X162693143Y-72190000D01*
X162765714Y-72250476D01*
X162838286Y-72371429D01*
X162838286Y-72492381D01*
X162765714Y-72613333D01*
X162693143Y-72673810D01*
X162548000Y-72734286D01*
X162040000Y-72734286D01*
X164434857Y-73399524D02*
X163926857Y-72794762D01*
X163564000Y-73399524D02*
X163564000Y-72129524D01*
X164144572Y-72129524D01*
X164289714Y-72190000D01*
X164362286Y-72250476D01*
X164434857Y-72371429D01*
X164434857Y-72552857D01*
X164362286Y-72673810D01*
X164289714Y-72734286D01*
X164144572Y-72794762D01*
X163564000Y-72794762D01*
X165015429Y-73036667D02*
X165741143Y-73036667D01*
X164870286Y-73399524D02*
X165378286Y-72129524D01*
X165886286Y-73399524D01*
X167265143Y-73278571D02*
X167192572Y-73339048D01*
X166974858Y-73399524D01*
X166829715Y-73399524D01*
X166612000Y-73339048D01*
X166466858Y-73218095D01*
X166394286Y-73097143D01*
X166321715Y-72855238D01*
X166321715Y-72673810D01*
X166394286Y-72431905D01*
X166466858Y-72310952D01*
X166612000Y-72190000D01*
X166829715Y-72129524D01*
X166974858Y-72129524D01*
X167192572Y-72190000D01*
X167265143Y-72250476D01*
X167918286Y-72734286D02*
X168426286Y-72734286D01*
X168644000Y-73399524D02*
X167918286Y-73399524D01*
X167918286Y-72129524D01*
X168644000Y-72129524D01*
X170095429Y-73399524D02*
X169224572Y-73399524D01*
X169660000Y-73399524D02*
X169660000Y-72129524D01*
X169514857Y-72310952D01*
X169369715Y-72431905D01*
X169224572Y-72492381D01*
X328399524Y-91813714D02*
X327129524Y-91813714D01*
X328399524Y-90942857D01*
X327129524Y-90942857D01*
X327129524Y-90217143D02*
X328157619Y-90217143D01*
X328278571Y-90144571D01*
X328339048Y-90072000D01*
X328399524Y-89926857D01*
X328399524Y-89636571D01*
X328339048Y-89491429D01*
X328278571Y-89418857D01*
X328157619Y-89346286D01*
X327129524Y-89346286D01*
X328399524Y-88620572D02*
X327129524Y-88620572D01*
X328036667Y-88112572D01*
X327129524Y-87604572D01*
X328399524Y-87604572D01*
X328520476Y-87241715D02*
X328520476Y-86080572D01*
X328399524Y-85717715D02*
X327129524Y-85717715D01*
X327129524Y-85137143D01*
X327190000Y-84992001D01*
X327250476Y-84919429D01*
X327371429Y-84846858D01*
X327552857Y-84846858D01*
X327673810Y-84919429D01*
X327734286Y-84992001D01*
X327794762Y-85137143D01*
X327794762Y-85717715D01*
X328399524Y-83468001D02*
X328399524Y-84193715D01*
X327129524Y-84193715D01*
X327129524Y-82960001D02*
X328157619Y-82960001D01*
X328278571Y-82887429D01*
X328339048Y-82814858D01*
X328399524Y-82669715D01*
X328399524Y-82379429D01*
X328339048Y-82234287D01*
X328278571Y-82161715D01*
X328157619Y-82089144D01*
X327129524Y-82089144D01*
X328339048Y-81436001D02*
X328399524Y-81218287D01*
X328399524Y-80855430D01*
X328339048Y-80710287D01*
X328278571Y-80637716D01*
X328157619Y-80565144D01*
X328036667Y-80565144D01*
X327915714Y-80637716D01*
X327855238Y-80710287D01*
X327794762Y-80855430D01*
X327734286Y-81145716D01*
X327673810Y-81290858D01*
X327613333Y-81363430D01*
X327492381Y-81436001D01*
X327371429Y-81436001D01*
X327250476Y-81363430D01*
X327190000Y-81290858D01*
X327129524Y-81145716D01*
X327129524Y-80782858D01*
X327190000Y-80565144D01*
X328399524Y-79113715D02*
X328399524Y-79984572D01*
X328399524Y-79549144D02*
X327129524Y-79549144D01*
X327310952Y-79694287D01*
X327431905Y-79839429D01*
X327492381Y-79984572D01*
X328399524Y-130430571D02*
X327129524Y-130430571D01*
X328399524Y-129559714D01*
X327129524Y-129559714D01*
X327129524Y-128834000D02*
X328157619Y-128834000D01*
X328278571Y-128761428D01*
X328339048Y-128688857D01*
X328399524Y-128543714D01*
X328399524Y-128253428D01*
X328339048Y-128108286D01*
X328278571Y-128035714D01*
X328157619Y-127963143D01*
X327129524Y-127963143D01*
X328399524Y-127237429D02*
X327129524Y-127237429D01*
X328036667Y-126729429D01*
X327129524Y-126221429D01*
X328399524Y-126221429D01*
X328520476Y-125858572D02*
X328520476Y-124697429D01*
X327734286Y-124334572D02*
X327734286Y-123826572D01*
X328399524Y-123608858D02*
X328399524Y-124334572D01*
X327129524Y-124334572D01*
X327129524Y-123608858D01*
X328399524Y-122955715D02*
X327129524Y-122955715D01*
X328399524Y-122084858D01*
X327129524Y-122084858D01*
X327129524Y-121576858D02*
X327129524Y-120706001D01*
X328399524Y-121141430D02*
X327129524Y-121141430D01*
X327734286Y-120198001D02*
X327734286Y-119690001D01*
X328399524Y-119472287D02*
X328399524Y-120198001D01*
X327129524Y-120198001D01*
X327129524Y-119472287D01*
X328399524Y-117948287D02*
X327794762Y-118456287D01*
X328399524Y-118819144D02*
X327129524Y-118819144D01*
X327129524Y-118238572D01*
X327190000Y-118093430D01*
X327250476Y-118020858D01*
X327371429Y-117948287D01*
X327552857Y-117948287D01*
X327673810Y-118020858D01*
X327734286Y-118093430D01*
X327794762Y-118238572D01*
X327794762Y-118819144D01*
X328399524Y-116496858D02*
X328399524Y-117367715D01*
X328399524Y-116932287D02*
X327129524Y-116932287D01*
X327310952Y-117077430D01*
X327431905Y-117222572D01*
X327492381Y-117367715D01*
M02*
