M48
;DRILL file {KiCad 4.0.7} date 12/14/17 04:12:57
;FORMAT={3:3/ absolute / metric / suppress leading zeros}
FMAT,2
METRIC,TZ
T1C0.400
T2C0.991
T3C1.016
T4C1.499
T5C2.400
T6C3.048
T7C3.050
T8C3.988
T9C4.000
%
G90
G05
M71
T1
X3000Y-29000
X26000Y-124500
X28500Y-14000
X36000Y-77500
X38500Y-113000
X38500Y-117500
X41500Y-78500
X46500Y-125500
X51000Y-125500
X66500Y-6500
X72500Y-123000
X80000Y-122000
X80000Y-130000
X85000Y-7500
X85500Y-122000
X104000Y-8500
X122500Y-10000
X142000Y-11500
X157500Y-67500
X161500Y-12500
X171000Y-125000
X180000Y-69000
X194500Y-125000
X202000Y-126000
X207500Y-129500
X210500Y-148000
X221000Y-120000
X242000Y-145000
X259000Y-43500
X260500Y-17500
X260500Y-42500
X261500Y-15500
X262000Y-123500
X262500Y-88500
X263000Y-14500
X263500Y-39000
X263500Y-58000
X263500Y-90000
X265500Y-40000
X267000Y-37000
X267000Y-41000
X268500Y-1000
X269500Y-17500
X271000Y-1500
X273500Y-2500
X275000Y-60500
X275500Y-15500
X275500Y-146000
X276500Y-4000
X278000Y-14500
X279500Y-11000
X280000Y-39000
X281000Y-37000
X282000Y-12000
X283500Y-17500
X284500Y-65000
X285000Y-34000
X286000Y-43500
X290500Y-41000
X291000Y-139000
X292000Y-12000
X294000Y-42500
X294000Y-46000
X294500Y-11000
X296000Y-16500
X296500Y-145000
X297500Y-15500
X299000Y-40000
X299000Y-146000
X300000Y-13000
X300000Y-26000
X304000Y-15500
X304500Y-62500
X310500Y-3000
X320000Y-41000
X320000Y-82500
X322000Y-65500
X322500Y-87000
X323000Y-62000
X324500Y-115000
X328500Y-4000
X328500Y-115000
X334000Y-146000
X338000Y-146000
X347000Y-65500
X363000Y-147500
X366000Y-11000
X366500Y-62000
X368000Y-128000
X368500Y-12000
X368500Y-52000
T2
X8110Y-128000
X8110Y-138000
X8500Y-51920
X8500Y-59540
X10875Y-108920
X10875Y-116540
X12000Y-20110
X12860Y-71000
X12860Y-81000
X15730Y-23920
X15730Y-127920
X18270Y-23920
X18270Y-127920
X19125Y-86110
X20480Y-70920
X21500Y-48110
X22000Y-20110
X22855Y-89920
X23020Y-70920
X23875Y-105110
X25230Y-51920
X25395Y-89920
X25890Y-23920
X25890Y-31540
X25890Y-127920
X25890Y-135540
X27605Y-108920
X27770Y-51920
X29125Y-86110
X29875Y-128000
X29875Y-138000
X30145Y-108920
X30640Y-70920
X30640Y-78540
X31000Y-20110
X31500Y-48110
X33015Y-89920
X33015Y-97540
X33875Y-105110
X34730Y-23920
X36610Y-71000
X36610Y-81000
X37270Y-23920
X41000Y-20110
X44230Y-70920
X44890Y-23920
X44890Y-31540
X45250Y-86110
X46605Y-127920
X46770Y-70920
X48980Y-89920
X49145Y-127920
X50000Y-48110
X51520Y-89920
X53730Y-51920
X54390Y-70920
X54390Y-78540
X54750Y-105110
X55250Y-86110
X56270Y-51920
X58480Y-108920
X59140Y-89920
X59140Y-97540
X59500Y-67110
X60000Y-48110
X61020Y-108920
X63230Y-70920
X63890Y-51920
X63890Y-59540
X64250Y-86110
X64750Y-105110
X65770Y-70920
X65875Y-127920
X65875Y-135540
X67980Y-89920
X68640Y-108920
X68640Y-116540
X69000Y-20110
X69000Y-48110
X69500Y-67110
X70520Y-89920
X72730Y-23920
X72730Y-51920
X73390Y-70920
X73390Y-78540
X73750Y-105110
X74250Y-86110
X75270Y-23920
X75270Y-51920
X77480Y-108920
X78140Y-89920
X78140Y-97540
X78500Y-67110
X79000Y-20110
X79000Y-48110
X80020Y-108920
X80875Y-124110
X82230Y-70920
X82890Y-23920
X82890Y-31540
X82890Y-51920
X82890Y-59540
X83250Y-86110
X83750Y-105110
X84605Y-127920
X84770Y-70920
X86980Y-89920
X87145Y-127920
X87640Y-108920
X87640Y-116540
X88000Y-20110
X88000Y-48110
X88500Y-67110
X89520Y-89920
X90875Y-124110
X91730Y-23920
X91730Y-51920
X92390Y-70920
X92390Y-78540
X92750Y-105110
X93250Y-86110
X94270Y-23920
X94270Y-51920
X94765Y-127920
X94765Y-135540
X96480Y-108920
X97140Y-89920
X97140Y-97540
X97500Y-67110
X98000Y-20110
X98000Y-48110
X99020Y-108920
X101230Y-70920
X101890Y-23920
X101890Y-31540
X101890Y-51920
X101890Y-59540
X102250Y-86110
X102750Y-105110
X103770Y-70920
X105980Y-89920
X106640Y-108920
X106640Y-116540
X107000Y-20110
X107000Y-48110
X107500Y-67110
X108520Y-89920
X109375Y-124110
X110730Y-23920
X110730Y-51920
X111390Y-70920
X111390Y-78540
X111750Y-105110
X112250Y-86110
X113105Y-127920
X113270Y-23920
X113270Y-51920
X115480Y-108920
X115645Y-127920
X116140Y-89920
X116140Y-97540
X116500Y-67110
X117000Y-20110
X117000Y-48110
X118020Y-108920
X119375Y-124110
X120230Y-70920
X120890Y-23920
X120890Y-31540
X120890Y-51920
X120890Y-59540
X121250Y-86110
X121750Y-105110
X122770Y-70920
X123265Y-127920
X123265Y-135540
X124980Y-89920
X125640Y-108920
X125640Y-116540
X126000Y-20110
X126000Y-48110
X126500Y-67110
X127520Y-89920
X129730Y-23920
X129730Y-51920
X130390Y-70920
X130390Y-78540
X130750Y-105110
X131250Y-86110
X132270Y-23920
X132270Y-51920
X133125Y-124110
X134480Y-108920
X135140Y-89920
X135140Y-97540
X135500Y-67110
X136000Y-20110
X136000Y-48110
X136855Y-127920
X137020Y-108920
X139230Y-70920
X139395Y-127920
X139890Y-23920
X139890Y-31540
X139890Y-51920
X139890Y-59540
X140250Y-86110
X140750Y-105110
X141770Y-70920
X143125Y-124110
X143980Y-89920
X144640Y-108920
X144640Y-116540
X145000Y-20110
X145000Y-48110
X145500Y-67110
X146520Y-89920
X147015Y-127920
X147015Y-135540
X148730Y-23920
X148730Y-51920
X149390Y-70920
X149390Y-78540
X150250Y-86110
X151270Y-23920
X151270Y-51920
X153375Y-109000
X153375Y-119000
X154140Y-89920
X154140Y-97540
X154500Y-84890
X155000Y-20110
X155000Y-48110
X156875Y-141890
X158230Y-70920
X158890Y-23920
X158890Y-31540
X158890Y-51920
X158890Y-59540
X160605Y-127920
X160770Y-70920
X163145Y-127920
X164000Y-20110
X164500Y-84890
X166875Y-141890
X167730Y-23920
X168390Y-70920
X168390Y-78540
X170105Y-108920
X170270Y-23920
X170765Y-127920
X170765Y-135540
X171125Y-86110
X172645Y-108920
X173500Y-48110
X174000Y-20110
X174360Y-71000
X174360Y-81000
X174855Y-89920
X177230Y-51920
X177395Y-89920
X177890Y-23920
X177890Y-31540
X179770Y-51920
X180625Y-141890
X181125Y-86110
X181980Y-70920
X183000Y-20110
X183500Y-48110
X184355Y-127920
X184520Y-70920
X186730Y-23920
X186895Y-127920
X189270Y-23920
X189375Y-108920
X189375Y-116540
X190625Y-141890
X192140Y-70920
X192140Y-78540
X193000Y-20110
X194125Y-89920
X194125Y-97540
X194515Y-127920
X194515Y-135540
X196500Y-51920
X196500Y-59540
X196890Y-23920
X196890Y-31540
X207000Y-20110
X207000Y-48110
X207000Y-67110
X207000Y-124110
X210730Y-23920
X210730Y-51920
X210730Y-70920
X210730Y-127920
X213270Y-23920
X213270Y-51920
X213270Y-70920
X213270Y-127920
X217000Y-20110
X217000Y-48110
X217000Y-67110
X217000Y-124110
X220890Y-23920
X220890Y-31540
X220890Y-51920
X220890Y-59540
X220890Y-70920
X220890Y-78540
X220890Y-127920
X220890Y-135540
X226000Y-20110
X226000Y-48110
X226000Y-67110
X226000Y-105110
X226000Y-124110
X229730Y-23920
X229730Y-51920
X229730Y-70920
X229730Y-108920
X229730Y-127920
X232270Y-23920
X232270Y-51920
X232270Y-70920
X232270Y-108920
X232270Y-127920
X236000Y-20110
X236000Y-48110
X236000Y-67110
X236000Y-105110
X236000Y-124110
X239890Y-23920
X239890Y-31540
X239890Y-51920
X239890Y-59540
X239890Y-70920
X239890Y-78540
X239890Y-108920
X239890Y-116540
X239890Y-127920
X239890Y-135540
X245000Y-20110
X245000Y-48110
X245000Y-67110
X245000Y-124110
X248730Y-23920
X248730Y-51920
X248730Y-70920
X248730Y-127920
X251270Y-23920
X251270Y-51920
X251270Y-70920
X251270Y-127920
X255000Y-20110
X255000Y-48110
X255000Y-67110
X255000Y-124110
X258890Y-23920
X258890Y-31540
X258890Y-51920
X258890Y-59540
X258890Y-70920
X258890Y-78540
X258890Y-127920
X258890Y-135540
X265500Y-127920
X265500Y-135540
X269000Y-20110
X269000Y-48110
X269000Y-67110
X269000Y-86110
X269000Y-105110
X272730Y-23920
X272730Y-51920
X272730Y-70920
X272730Y-89920
X272730Y-108920
X275270Y-23920
X275270Y-51920
X275270Y-70920
X275270Y-89920
X275270Y-108920
X278500Y-124110
X279000Y-20110
X279000Y-48110
X279000Y-67110
X279000Y-86110
X279000Y-105110
X282230Y-127920
X282890Y-23920
X282890Y-31540
X282890Y-51920
X282890Y-59540
X282890Y-70920
X282890Y-78540
X282890Y-89920
X282890Y-97540
X282890Y-108920
X282890Y-116540
X284770Y-127920
X288000Y-20110
X288000Y-48110
X288000Y-67110
X288000Y-86110
X288000Y-105110
X288500Y-124110
X291730Y-23920
X291730Y-51920
X291730Y-70920
X291730Y-89920
X291730Y-108920
X294270Y-23920
X294270Y-51920
X294270Y-70920
X294270Y-89920
X294270Y-108920
X298000Y-20110
X298000Y-48110
X298000Y-67110
X298000Y-86110
X298000Y-105110
X301890Y-23920
X301890Y-31540
X301890Y-51920
X301890Y-59540
X301890Y-70920
X301890Y-78540
X301890Y-89920
X301890Y-97540
X301890Y-108920
X301890Y-116540
X307000Y-20110
X307000Y-48110
X307000Y-67110
X307000Y-86110
X307000Y-105110
X307000Y-124110
X310730Y-23920
X310730Y-51920
X310730Y-70920
X310730Y-89920
X310730Y-108920
X310730Y-127920
X313270Y-23920
X313270Y-51920
X313270Y-70920
X313270Y-89920
X313270Y-108920
X313270Y-127920
X317000Y-20110
X317000Y-48110
X317000Y-67110
X317000Y-86110
X317000Y-105110
X317000Y-124110
X320890Y-23920
X320890Y-31540
X320890Y-51920
X320890Y-59540
X320890Y-70920
X320890Y-78540
X320890Y-89920
X320890Y-97540
X320890Y-108920
X320890Y-116540
X320890Y-127920
X320890Y-135540
X325920Y-84230
X325920Y-86770
X325920Y-103500
X325920Y-122230
X325920Y-124770
X325920Y-141500
X326000Y-20110
X326000Y-48110
X329000Y-105500
X329000Y-143500
X329730Y-23920
X329730Y-51920
X332270Y-23920
X332270Y-51920
X333540Y-103500
X333540Y-141500
X336000Y-20110
X336000Y-48110
X339000Y-105500
X339000Y-143500
X339890Y-23920
X339890Y-31540
X339890Y-51920
X339890Y-59540
X350000Y-20110
X350000Y-48110
X350000Y-67110
X350000Y-86110
X350000Y-105110
X350000Y-124110
X353730Y-23920
X353730Y-51920
X353730Y-70920
X353730Y-89920
X353730Y-108920
X353730Y-127920
X356270Y-23920
X356270Y-51920
X356270Y-70920
X356270Y-89920
X356270Y-108920
X356270Y-127920
X360000Y-20110
X360000Y-48110
X360000Y-67110
X360000Y-86110
X360000Y-105110
X360000Y-124110
X363890Y-23920
X363890Y-31540
X363890Y-51920
X363890Y-59540
X363890Y-70920
X363890Y-78540
X363890Y-89920
X363890Y-97540
X363890Y-108920
X363890Y-116540
X363890Y-127920
X363890Y-135540
T3
X266863Y-8897
X268260Y-6103
X269657Y-8897
X271054Y-6103
X272451Y-8897
X273848Y-6103
X275245Y-8897
X276515Y-6103
X278039Y-8897
X279309Y-6103
X280706Y-8897
X282103Y-6103
X283500Y-8897
X284897Y-6103
X286294Y-8897
X287691Y-6103
X289088Y-8897
X290358Y-6103
X291882Y-8897
X293152Y-6103
X294549Y-8897
X295946Y-6103
X297343Y-8897
X298740Y-6103
X300137Y-8897
T4
X14460Y-34080
X14460Y-138080
X19210Y-81080
X20810Y-31540
X20810Y-135540
X21585Y-100080
X23960Y-62080
X25560Y-78540
X26335Y-119080
X27935Y-97540
X30310Y-59540
X32685Y-116540
X33460Y-34080
X39810Y-31540
X42960Y-81080
X45335Y-138080
X47710Y-100080
X49310Y-78540
X51685Y-135540
X52460Y-62080
X54060Y-97540
X57210Y-119080
X58810Y-59540
X61960Y-81080
X63560Y-116540
X66710Y-100080
X68310Y-78540
X71460Y-34080
X71460Y-62080
X73060Y-97540
X76210Y-119080
X77810Y-31540
X77810Y-59540
X80960Y-81080
X82560Y-116540
X83335Y-138080
X85710Y-100080
X87310Y-78540
X89685Y-135540
X90460Y-34080
X90460Y-62080
X92060Y-97540
X95210Y-119080
X96810Y-31540
X96810Y-59540
X99960Y-81080
X101560Y-116540
X104710Y-100080
X106310Y-78540
X109460Y-34080
X109460Y-62080
X111060Y-97540
X111835Y-138080
X114210Y-119080
X115810Y-31540
X115810Y-59540
X118185Y-135540
X118960Y-81080
X120560Y-116540
X123710Y-100080
X125310Y-78540
X128460Y-34080
X128460Y-62080
X130060Y-97540
X133210Y-119080
X134810Y-31540
X134810Y-59540
X135585Y-138080
X137960Y-81080
X139560Y-116540
X141935Y-135540
X142710Y-100080
X144310Y-78540
X147460Y-34080
X147460Y-62080
X149060Y-97540
X153810Y-31540
X153810Y-59540
X156960Y-81080
X159335Y-138080
X163310Y-78540
X165685Y-135540
X166460Y-34080
X168835Y-119080
X172810Y-31540
X173585Y-100080
X175185Y-116540
X175960Y-62080
X179935Y-97540
X180710Y-81080
X182310Y-59540
X183085Y-138080
X185460Y-34080
X187060Y-78540
X189435Y-135540
X191810Y-31540
X209460Y-34080
X209460Y-62080
X209460Y-81080
X209460Y-138080
X215810Y-31540
X215810Y-59540
X215810Y-78540
X215810Y-135540
X228460Y-34080
X228460Y-62080
X228460Y-81080
X228460Y-119080
X228460Y-138080
X234810Y-31540
X234810Y-59540
X234810Y-78540
X234810Y-116540
X234810Y-135540
X247460Y-34080
X247460Y-62080
X247460Y-81080
X247460Y-138080
X253810Y-31540
X253810Y-59540
X253810Y-78540
X253810Y-135540
X271460Y-34080
X271460Y-62080
X271460Y-81080
X271460Y-100080
X271460Y-119080
X277810Y-31540
X277810Y-59540
X277810Y-78540
X277810Y-97540
X277810Y-116540
X280960Y-138080
X287310Y-135540
X290460Y-34080
X290460Y-62080
X290460Y-81080
X290460Y-100080
X290460Y-119080
X296810Y-31540
X296810Y-59540
X296810Y-78540
X296810Y-97540
X296810Y-116540
X309460Y-34080
X309460Y-62080
X309460Y-81080
X309460Y-100080
X309460Y-119080
X309460Y-138080
X315810Y-31540
X315810Y-59540
X315810Y-78540
X315810Y-97540
X315810Y-116540
X315810Y-135540
X328460Y-34080
X328460Y-62080
X333540Y-81690
X333540Y-119690
X334810Y-31540
X334810Y-59540
X336080Y-88040
X336080Y-126040
X352460Y-34080
X352460Y-62080
X352460Y-81080
X352460Y-100080
X352460Y-119080
X352460Y-138080
X358810Y-31540
X358810Y-59540
X358810Y-78540
X358810Y-97540
X358810Y-116540
X358810Y-135540
T5
X3500Y-3500
X3500Y-146500
X200000Y-3500
X200000Y-95000
X200000Y-146500
X368500Y-3500
X368500Y-146500
T6
X260005Y-7500
X306995Y-7500
T7
X14600Y-50000
X16975Y-107000
X35975Y-126000
X38400Y-50000
X40775Y-107000
X59775Y-126000
X159475Y-107000
X164225Y-88000
X166600Y-50000
X183275Y-107000
X188025Y-88000
X190400Y-50000
X271600Y-126000
X295400Y-126000
X324000Y-73600
X324000Y-97400
X324000Y-111600
X324000Y-135400
T8
X17000Y-29000
X17000Y-133000
X21750Y-76000
X24125Y-95000
X26500Y-57000
X28875Y-114000
X36000Y-29000
X45500Y-76000
X47875Y-133000
X50250Y-95000
X55000Y-57000
X59750Y-114000
X64500Y-76000
X69250Y-95000
X74000Y-29000
X74000Y-57000
X78750Y-114000
X83500Y-76000
X85875Y-133000
X88250Y-95000
X93000Y-29000
X93000Y-57000
X97750Y-114000
X102500Y-76000
X107250Y-95000
X112000Y-29000
X112000Y-57000
X114375Y-133000
X116750Y-114000
X121500Y-76000
X126250Y-95000
X131000Y-29000
X131000Y-57000
X135750Y-114000
X138125Y-133000
X140500Y-76000
X145250Y-95000
X150000Y-29000
X150000Y-57000
X159500Y-76000
X161875Y-133000
X169000Y-29000
X171375Y-114000
X176125Y-95000
X178500Y-57000
X183250Y-76000
X185625Y-133000
X188000Y-29000
X212000Y-29000
X212000Y-57000
X212000Y-76000
X212000Y-133000
X231000Y-29000
X231000Y-57000
X231000Y-76000
X231000Y-114000
X231000Y-133000
X250000Y-29000
X250000Y-57000
X250000Y-76000
X250000Y-133000
X274000Y-29000
X274000Y-57000
X274000Y-76000
X274000Y-95000
X274000Y-114000
X283500Y-133000
X293000Y-29000
X293000Y-57000
X293000Y-76000
X293000Y-95000
X293000Y-114000
X312000Y-29000
X312000Y-57000
X312000Y-76000
X312000Y-95000
X312000Y-114000
X312000Y-133000
X331000Y-29000
X331000Y-57000
X331000Y-85500
X331000Y-123500
X355000Y-29000
X355000Y-57000
X355000Y-76000
X355000Y-95000
X355000Y-114000
X355000Y-133000
T9
X14600Y-65240
X16975Y-122240
X35975Y-141240
X38400Y-65240
X40775Y-122240
X59775Y-141240
X159475Y-122240
X164225Y-103240
X166600Y-65240
X183275Y-122240
X188025Y-103240
X190400Y-65240
X271600Y-141240
X295400Y-141240
X339240Y-73600
X339240Y-97400
X339240Y-111600
X339240Y-135400
T0
M30
