G04 #@! TF.FileFunction,Copper,L1,Top,Signal*
%FSLAX46Y46*%
G04 Gerber Fmt 4.6, Leading zero omitted, Abs format (unit mm)*
G04 Created by KiCad (PCBNEW 4.0.7) date 12/14/17 04:12:44*
%MOMM*%
%LPD*%
G01*
G04 APERTURE LIST*
%ADD10C,0.100000*%
%ADD11C,2.286000*%
%ADD12C,3.987800*%
%ADD13C,1.651000*%
%ADD14R,1.651000X1.651000*%
%ADD15C,3.810000*%
%ADD16R,1.524000X1.524000*%
%ADD17C,1.524000*%
%ADD18C,4.000000*%
%ADD19C,3.050000*%
%ADD20C,2.400000*%
%ADD21C,0.600000*%
%ADD22C,0.250000*%
G04 APERTURE END LIST*
D10*
D11*
X309460000Y-138080000D03*
X315810000Y-135540000D03*
D12*
X312000000Y-133000000D03*
D13*
X320890000Y-135540000D03*
D14*
X320890000Y-127920000D03*
D13*
X313270000Y-127920000D03*
D14*
X310730000Y-127920000D03*
X317000000Y-124110000D03*
D13*
X307000000Y-124110000D03*
D15*
X306995000Y-7500000D03*
X260005000Y-7500000D03*
D16*
X266863000Y-8897000D03*
D17*
X269657000Y-8897000D03*
X272451000Y-8897000D03*
X275245000Y-8897000D03*
X278039000Y-8897000D03*
X280706000Y-8897000D03*
X283500000Y-8897000D03*
X286294000Y-8897000D03*
X289088000Y-8897000D03*
X291882000Y-8897000D03*
X294549000Y-8897000D03*
X297343000Y-8897000D03*
X300137000Y-8897000D03*
X268260000Y-6103000D03*
X271054000Y-6103000D03*
X273848000Y-6103000D03*
X276515000Y-6103000D03*
X279309000Y-6103000D03*
X282103000Y-6103000D03*
X284897000Y-6103000D03*
X287691000Y-6103000D03*
X290358000Y-6103000D03*
X293152000Y-6103000D03*
X295946000Y-6103000D03*
X298740000Y-6103000D03*
D11*
X71460000Y-34080000D03*
X77810000Y-31540000D03*
D12*
X74000000Y-29000000D03*
D13*
X82890000Y-31540000D03*
D14*
X82890000Y-23920000D03*
D13*
X75270000Y-23920000D03*
D14*
X72730000Y-23920000D03*
X79000000Y-20110000D03*
D13*
X69000000Y-20110000D03*
D11*
X90460000Y-34080000D03*
X96810000Y-31540000D03*
D12*
X93000000Y-29000000D03*
D13*
X101890000Y-31540000D03*
D14*
X101890000Y-23920000D03*
D13*
X94270000Y-23920000D03*
D14*
X91730000Y-23920000D03*
X98000000Y-20110000D03*
D13*
X88000000Y-20110000D03*
D11*
X109460000Y-34080000D03*
X115810000Y-31540000D03*
D12*
X112000000Y-29000000D03*
D13*
X120890000Y-31540000D03*
D14*
X120890000Y-23920000D03*
D13*
X113270000Y-23920000D03*
D14*
X110730000Y-23920000D03*
X117000000Y-20110000D03*
D13*
X107000000Y-20110000D03*
D11*
X128460000Y-34080000D03*
X134810000Y-31540000D03*
D12*
X131000000Y-29000000D03*
D13*
X139890000Y-31540000D03*
D14*
X139890000Y-23920000D03*
D13*
X132270000Y-23920000D03*
D14*
X129730000Y-23920000D03*
X136000000Y-20110000D03*
D13*
X126000000Y-20110000D03*
D11*
X147460000Y-34080000D03*
X153810000Y-31540000D03*
D12*
X150000000Y-29000000D03*
D13*
X158890000Y-31540000D03*
D14*
X158890000Y-23920000D03*
D13*
X151270000Y-23920000D03*
D14*
X148730000Y-23920000D03*
X155000000Y-20110000D03*
D13*
X145000000Y-20110000D03*
D11*
X166460000Y-34080000D03*
X172810000Y-31540000D03*
D12*
X169000000Y-29000000D03*
D13*
X177890000Y-31540000D03*
D14*
X177890000Y-23920000D03*
D13*
X170270000Y-23920000D03*
D14*
X167730000Y-23920000D03*
X174000000Y-20110000D03*
D13*
X164000000Y-20110000D03*
D11*
X185460000Y-34080000D03*
X191810000Y-31540000D03*
D12*
X188000000Y-29000000D03*
D13*
X196890000Y-31540000D03*
D14*
X196890000Y-23920000D03*
D13*
X189270000Y-23920000D03*
D14*
X186730000Y-23920000D03*
X193000000Y-20110000D03*
D13*
X183000000Y-20110000D03*
D11*
X109460000Y-62080000D03*
X115810000Y-59540000D03*
D12*
X112000000Y-57000000D03*
D13*
X120890000Y-59540000D03*
D14*
X120890000Y-51920000D03*
D13*
X113270000Y-51920000D03*
D14*
X110730000Y-51920000D03*
X117000000Y-48110000D03*
D13*
X107000000Y-48110000D03*
D11*
X52460000Y-62080000D03*
X58810000Y-59540000D03*
D12*
X55000000Y-57000000D03*
D13*
X63890000Y-59540000D03*
D14*
X63890000Y-51920000D03*
D13*
X56270000Y-51920000D03*
D14*
X53730000Y-51920000D03*
X60000000Y-48110000D03*
D13*
X50000000Y-48110000D03*
D11*
X71460000Y-62080000D03*
X77810000Y-59540000D03*
D12*
X74000000Y-57000000D03*
D13*
X82890000Y-59540000D03*
D14*
X82890000Y-51920000D03*
D13*
X75270000Y-51920000D03*
D14*
X72730000Y-51920000D03*
X79000000Y-48110000D03*
D13*
X69000000Y-48110000D03*
D11*
X90460000Y-62080000D03*
X96810000Y-59540000D03*
D12*
X93000000Y-57000000D03*
D13*
X101890000Y-59540000D03*
D14*
X101890000Y-51920000D03*
D13*
X94270000Y-51920000D03*
D14*
X91730000Y-51920000D03*
X98000000Y-48110000D03*
D13*
X88000000Y-48110000D03*
D11*
X175960000Y-62080000D03*
X182310000Y-59540000D03*
D12*
X178500000Y-57000000D03*
D13*
X196500000Y-59540000D03*
D14*
X196500000Y-51920000D03*
D13*
X179770000Y-51920000D03*
D14*
X177230000Y-51920000D03*
X183500000Y-48110000D03*
D13*
X173500000Y-48110000D03*
D18*
X190400000Y-65240000D03*
D19*
X190400000Y-50000000D03*
D18*
X166600000Y-65240000D03*
D19*
X166600000Y-50000000D03*
D11*
X95210000Y-119080000D03*
X101560000Y-116540000D03*
D12*
X97750000Y-114000000D03*
D13*
X106640000Y-116540000D03*
D14*
X106640000Y-108920000D03*
D13*
X99020000Y-108920000D03*
D14*
X96480000Y-108920000D03*
X102750000Y-105110000D03*
D13*
X92750000Y-105110000D03*
D11*
X209460000Y-81080000D03*
X215810000Y-78540000D03*
D12*
X212000000Y-76000000D03*
D13*
X220890000Y-78540000D03*
D14*
X220890000Y-70920000D03*
D13*
X213270000Y-70920000D03*
D14*
X210730000Y-70920000D03*
X217000000Y-67110000D03*
D13*
X207000000Y-67110000D03*
D11*
X228460000Y-138080000D03*
X234810000Y-135540000D03*
D12*
X231000000Y-133000000D03*
D13*
X239890000Y-135540000D03*
D14*
X239890000Y-127920000D03*
D13*
X232270000Y-127920000D03*
D14*
X229730000Y-127920000D03*
X236000000Y-124110000D03*
D13*
X226000000Y-124110000D03*
D11*
X228460000Y-81080000D03*
X234810000Y-78540000D03*
D12*
X231000000Y-76000000D03*
D13*
X239890000Y-78540000D03*
D14*
X239890000Y-70920000D03*
D13*
X232270000Y-70920000D03*
D14*
X229730000Y-70920000D03*
X236000000Y-67110000D03*
D13*
X226000000Y-67110000D03*
D11*
X173585000Y-100080000D03*
X179935000Y-97540000D03*
D12*
X176125000Y-95000000D03*
D13*
X194125000Y-97540000D03*
D14*
X194125000Y-89920000D03*
D13*
X177395000Y-89920000D03*
D14*
X174855000Y-89920000D03*
X181125000Y-86110000D03*
D13*
X171125000Y-86110000D03*
D18*
X188025000Y-103240000D03*
D19*
X188025000Y-88000000D03*
D18*
X164225000Y-103240000D03*
D19*
X164225000Y-88000000D03*
D11*
X147460000Y-62080000D03*
X153810000Y-59540000D03*
D12*
X150000000Y-57000000D03*
D13*
X158890000Y-59540000D03*
D14*
X158890000Y-51920000D03*
D13*
X151270000Y-51920000D03*
D14*
X148730000Y-51920000D03*
X155000000Y-48110000D03*
D13*
X145000000Y-48110000D03*
D11*
X133210000Y-119080000D03*
X139560000Y-116540000D03*
D12*
X135750000Y-114000000D03*
D13*
X144640000Y-116540000D03*
D14*
X144640000Y-108920000D03*
D13*
X137020000Y-108920000D03*
D14*
X134480000Y-108920000D03*
X140750000Y-105110000D03*
D13*
X130750000Y-105110000D03*
D11*
X47710000Y-100080000D03*
X54060000Y-97540000D03*
D12*
X50250000Y-95000000D03*
D13*
X59140000Y-97540000D03*
D14*
X59140000Y-89920000D03*
D13*
X51520000Y-89920000D03*
D14*
X48980000Y-89920000D03*
X55250000Y-86110000D03*
D13*
X45250000Y-86110000D03*
D11*
X228460000Y-62080000D03*
X234810000Y-59540000D03*
D12*
X231000000Y-57000000D03*
D13*
X239890000Y-59540000D03*
D14*
X239890000Y-51920000D03*
D13*
X232270000Y-51920000D03*
D14*
X229730000Y-51920000D03*
X236000000Y-48110000D03*
D13*
X226000000Y-48110000D03*
D11*
X80960000Y-81080000D03*
X87310000Y-78540000D03*
D12*
X83500000Y-76000000D03*
D13*
X92390000Y-78540000D03*
D14*
X92390000Y-70920000D03*
D13*
X84770000Y-70920000D03*
D14*
X82230000Y-70920000D03*
X88500000Y-67110000D03*
D13*
X78500000Y-67110000D03*
D11*
X209460000Y-62080000D03*
X215810000Y-59540000D03*
D12*
X212000000Y-57000000D03*
D13*
X220890000Y-59540000D03*
D14*
X220890000Y-51920000D03*
D13*
X213270000Y-51920000D03*
D14*
X210730000Y-51920000D03*
X217000000Y-48110000D03*
D13*
X207000000Y-48110000D03*
D11*
X66710000Y-100080000D03*
X73060000Y-97540000D03*
D12*
X69250000Y-95000000D03*
D13*
X78140000Y-97540000D03*
D14*
X78140000Y-89920000D03*
D13*
X70520000Y-89920000D03*
D14*
X67980000Y-89920000D03*
X74250000Y-86110000D03*
D13*
X64250000Y-86110000D03*
D11*
X85710000Y-100080000D03*
X92060000Y-97540000D03*
D12*
X88250000Y-95000000D03*
D13*
X97140000Y-97540000D03*
D14*
X97140000Y-89920000D03*
D13*
X89520000Y-89920000D03*
D14*
X86980000Y-89920000D03*
X93250000Y-86110000D03*
D13*
X83250000Y-86110000D03*
D11*
X104710000Y-100080000D03*
X111060000Y-97540000D03*
D12*
X107250000Y-95000000D03*
D13*
X116140000Y-97540000D03*
D14*
X116140000Y-89920000D03*
D13*
X108520000Y-89920000D03*
D14*
X105980000Y-89920000D03*
X112250000Y-86110000D03*
D13*
X102250000Y-86110000D03*
D11*
X209460000Y-138080000D03*
X215810000Y-135540000D03*
D12*
X212000000Y-133000000D03*
D13*
X220890000Y-135540000D03*
D14*
X220890000Y-127920000D03*
D13*
X213270000Y-127920000D03*
D14*
X210730000Y-127920000D03*
X217000000Y-124110000D03*
D13*
X207000000Y-124110000D03*
D11*
X137960000Y-81080000D03*
X144310000Y-78540000D03*
D12*
X140500000Y-76000000D03*
D13*
X149390000Y-78540000D03*
D14*
X149390000Y-70920000D03*
D13*
X141770000Y-70920000D03*
D14*
X139230000Y-70920000D03*
X145500000Y-67110000D03*
D13*
X135500000Y-67110000D03*
D11*
X76210000Y-119080000D03*
X82560000Y-116540000D03*
D12*
X78750000Y-114000000D03*
D13*
X87640000Y-116540000D03*
D14*
X87640000Y-108920000D03*
D13*
X80020000Y-108920000D03*
D14*
X77480000Y-108920000D03*
X83750000Y-105110000D03*
D13*
X73750000Y-105110000D03*
D11*
X128460000Y-62080000D03*
X134810000Y-59540000D03*
D12*
X131000000Y-57000000D03*
D13*
X139890000Y-59540000D03*
D14*
X139890000Y-51920000D03*
D13*
X132270000Y-51920000D03*
D14*
X129730000Y-51920000D03*
X136000000Y-48110000D03*
D13*
X126000000Y-48110000D03*
D11*
X57210000Y-119080000D03*
X63560000Y-116540000D03*
D12*
X59750000Y-114000000D03*
D13*
X68640000Y-116540000D03*
D14*
X68640000Y-108920000D03*
D13*
X61020000Y-108920000D03*
D14*
X58480000Y-108920000D03*
X64750000Y-105110000D03*
D13*
X54750000Y-105110000D03*
D11*
X99960000Y-81080000D03*
X106310000Y-78540000D03*
D12*
X102500000Y-76000000D03*
D13*
X111390000Y-78540000D03*
D14*
X111390000Y-70920000D03*
D13*
X103770000Y-70920000D03*
D14*
X101230000Y-70920000D03*
X107500000Y-67110000D03*
D13*
X97500000Y-67110000D03*
D11*
X118960000Y-81080000D03*
X125310000Y-78540000D03*
D12*
X121500000Y-76000000D03*
D13*
X130390000Y-78540000D03*
D14*
X130390000Y-70920000D03*
D13*
X122770000Y-70920000D03*
D14*
X120230000Y-70920000D03*
X126500000Y-67110000D03*
D13*
X116500000Y-67110000D03*
D11*
X247460000Y-81080000D03*
X253810000Y-78540000D03*
D12*
X250000000Y-76000000D03*
D13*
X258890000Y-78540000D03*
D14*
X258890000Y-70920000D03*
D13*
X251270000Y-70920000D03*
D14*
X248730000Y-70920000D03*
X255000000Y-67110000D03*
D13*
X245000000Y-67110000D03*
D11*
X247460000Y-62080000D03*
X253810000Y-59540000D03*
D12*
X250000000Y-57000000D03*
D13*
X258890000Y-59540000D03*
D14*
X258890000Y-51920000D03*
D13*
X251270000Y-51920000D03*
D14*
X248730000Y-51920000D03*
X255000000Y-48110000D03*
D13*
X245000000Y-48110000D03*
D11*
X247460000Y-34080000D03*
X253810000Y-31540000D03*
D12*
X250000000Y-29000000D03*
D13*
X258890000Y-31540000D03*
D14*
X258890000Y-23920000D03*
D13*
X251270000Y-23920000D03*
D14*
X248730000Y-23920000D03*
X255000000Y-20110000D03*
D13*
X245000000Y-20110000D03*
D11*
X114210000Y-119080000D03*
X120560000Y-116540000D03*
D12*
X116750000Y-114000000D03*
D13*
X125640000Y-116540000D03*
D14*
X125640000Y-108920000D03*
D13*
X118020000Y-108920000D03*
D14*
X115480000Y-108920000D03*
X121750000Y-105110000D03*
D13*
X111750000Y-105110000D03*
D11*
X209460000Y-34080000D03*
X215810000Y-31540000D03*
D12*
X212000000Y-29000000D03*
D13*
X220890000Y-31540000D03*
D14*
X220890000Y-23920000D03*
D13*
X213270000Y-23920000D03*
D14*
X210730000Y-23920000D03*
X217000000Y-20110000D03*
D13*
X207000000Y-20110000D03*
D11*
X142710000Y-100080000D03*
X149060000Y-97540000D03*
D12*
X145250000Y-95000000D03*
D13*
X154140000Y-97540000D03*
D14*
X154140000Y-89920000D03*
D13*
X146520000Y-89920000D03*
D14*
X143980000Y-89920000D03*
X150250000Y-86110000D03*
D13*
X140250000Y-86110000D03*
D11*
X247460000Y-138080000D03*
X253810000Y-135540000D03*
D12*
X250000000Y-133000000D03*
D13*
X258890000Y-135540000D03*
D14*
X258890000Y-127920000D03*
D13*
X251270000Y-127920000D03*
D14*
X248730000Y-127920000D03*
X255000000Y-124110000D03*
D13*
X245000000Y-124110000D03*
D11*
X111835000Y-138080000D03*
X118185000Y-135540000D03*
D12*
X114375000Y-133000000D03*
D13*
X123265000Y-135540000D03*
D14*
X123265000Y-127920000D03*
D13*
X115645000Y-127920000D03*
D14*
X113105000Y-127920000D03*
X119375000Y-124110000D03*
D13*
X109375000Y-124110000D03*
D11*
X83335000Y-138080000D03*
X89685000Y-135540000D03*
D12*
X85875000Y-133000000D03*
D13*
X94765000Y-135540000D03*
D14*
X94765000Y-127920000D03*
D13*
X87145000Y-127920000D03*
D14*
X84605000Y-127920000D03*
X90875000Y-124110000D03*
D13*
X80875000Y-124110000D03*
D11*
X135585000Y-138080000D03*
X141935000Y-135540000D03*
D12*
X138125000Y-133000000D03*
D13*
X147015000Y-135540000D03*
D14*
X147015000Y-127920000D03*
D13*
X139395000Y-127920000D03*
D14*
X136855000Y-127920000D03*
X143125000Y-124110000D03*
D13*
X133125000Y-124110000D03*
D11*
X228460000Y-34080000D03*
X234810000Y-31540000D03*
D12*
X231000000Y-29000000D03*
D13*
X239890000Y-31540000D03*
D14*
X239890000Y-23920000D03*
D13*
X232270000Y-23920000D03*
D14*
X229730000Y-23920000D03*
X236000000Y-20110000D03*
D13*
X226000000Y-20110000D03*
D11*
X123710000Y-100080000D03*
X130060000Y-97540000D03*
D12*
X126250000Y-95000000D03*
D13*
X135140000Y-97540000D03*
D14*
X135140000Y-89920000D03*
D13*
X127520000Y-89920000D03*
D14*
X124980000Y-89920000D03*
X131250000Y-86110000D03*
D13*
X121250000Y-86110000D03*
D11*
X61960000Y-81080000D03*
X68310000Y-78540000D03*
D12*
X64500000Y-76000000D03*
D13*
X73390000Y-78540000D03*
D14*
X73390000Y-70920000D03*
D13*
X65770000Y-70920000D03*
D14*
X63230000Y-70920000D03*
X69500000Y-67110000D03*
D13*
X59500000Y-67110000D03*
D11*
X228460000Y-119080000D03*
X234810000Y-116540000D03*
D12*
X231000000Y-114000000D03*
D13*
X239890000Y-116540000D03*
D14*
X239890000Y-108920000D03*
D13*
X232270000Y-108920000D03*
D14*
X229730000Y-108920000D03*
X236000000Y-105110000D03*
D13*
X226000000Y-105110000D03*
D11*
X352460000Y-34080000D03*
X358810000Y-31540000D03*
D12*
X355000000Y-29000000D03*
D13*
X363890000Y-31540000D03*
D14*
X363890000Y-23920000D03*
D13*
X356270000Y-23920000D03*
D14*
X353730000Y-23920000D03*
X360000000Y-20110000D03*
D13*
X350000000Y-20110000D03*
D11*
X352460000Y-62080000D03*
X358810000Y-59540000D03*
D12*
X355000000Y-57000000D03*
D13*
X363890000Y-59540000D03*
D14*
X363890000Y-51920000D03*
D13*
X356270000Y-51920000D03*
D14*
X353730000Y-51920000D03*
X360000000Y-48110000D03*
D13*
X350000000Y-48110000D03*
D11*
X352460000Y-81080000D03*
X358810000Y-78540000D03*
D12*
X355000000Y-76000000D03*
D13*
X363890000Y-78540000D03*
D14*
X363890000Y-70920000D03*
D13*
X356270000Y-70920000D03*
D14*
X353730000Y-70920000D03*
X360000000Y-67110000D03*
D13*
X350000000Y-67110000D03*
D11*
X352460000Y-100080000D03*
X358810000Y-97540000D03*
D12*
X355000000Y-95000000D03*
D13*
X363890000Y-97540000D03*
D14*
X363890000Y-89920000D03*
D13*
X356270000Y-89920000D03*
D14*
X353730000Y-89920000D03*
X360000000Y-86110000D03*
D13*
X350000000Y-86110000D03*
D11*
X352460000Y-119080000D03*
X358810000Y-116540000D03*
D12*
X355000000Y-114000000D03*
D13*
X363890000Y-116540000D03*
D14*
X363890000Y-108920000D03*
D13*
X356270000Y-108920000D03*
D14*
X353730000Y-108920000D03*
X360000000Y-105110000D03*
D13*
X350000000Y-105110000D03*
D11*
X352460000Y-138080000D03*
X358810000Y-135540000D03*
D12*
X355000000Y-133000000D03*
D13*
X363890000Y-135540000D03*
D14*
X363890000Y-127920000D03*
D13*
X356270000Y-127920000D03*
D14*
X353730000Y-127920000D03*
X360000000Y-124110000D03*
D13*
X350000000Y-124110000D03*
D11*
X14460000Y-34080000D03*
X20810000Y-31540000D03*
D12*
X17000000Y-29000000D03*
D13*
X25890000Y-31540000D03*
D14*
X25890000Y-23920000D03*
D13*
X18270000Y-23920000D03*
D14*
X15730000Y-23920000D03*
X22000000Y-20110000D03*
D13*
X12000000Y-20110000D03*
D11*
X33460000Y-34080000D03*
X39810000Y-31540000D03*
D12*
X36000000Y-29000000D03*
D13*
X44890000Y-31540000D03*
D14*
X44890000Y-23920000D03*
D13*
X37270000Y-23920000D03*
D14*
X34730000Y-23920000D03*
X41000000Y-20110000D03*
D13*
X31000000Y-20110000D03*
D11*
X23960000Y-62080000D03*
X30310000Y-59540000D03*
D12*
X26500000Y-57000000D03*
D13*
X8500000Y-59540000D03*
D14*
X8500000Y-51920000D03*
D13*
X27770000Y-51920000D03*
D14*
X25230000Y-51920000D03*
X31500000Y-48110000D03*
D13*
X21500000Y-48110000D03*
D18*
X38400000Y-65240000D03*
D19*
X38400000Y-50000000D03*
D18*
X14600000Y-65240000D03*
D19*
X14600000Y-50000000D03*
D11*
X21585000Y-100080000D03*
X27935000Y-97540000D03*
D12*
X24125000Y-95000000D03*
D13*
X33015000Y-97540000D03*
D14*
X33015000Y-89920000D03*
D13*
X25395000Y-89920000D03*
D14*
X22855000Y-89920000D03*
X29125000Y-86110000D03*
D13*
X19125000Y-86110000D03*
D11*
X26335000Y-119080000D03*
X32685000Y-116540000D03*
D12*
X28875000Y-114000000D03*
D13*
X10875000Y-116540000D03*
D14*
X10875000Y-108920000D03*
D13*
X30145000Y-108920000D03*
D14*
X27605000Y-108920000D03*
X33875000Y-105110000D03*
D13*
X23875000Y-105110000D03*
D18*
X40775000Y-122240000D03*
D19*
X40775000Y-107000000D03*
D18*
X16975000Y-122240000D03*
D19*
X16975000Y-107000000D03*
D11*
X280960000Y-138080000D03*
X287310000Y-135540000D03*
D12*
X283500000Y-133000000D03*
D13*
X265500000Y-135540000D03*
D14*
X265500000Y-127920000D03*
D13*
X284770000Y-127920000D03*
D14*
X282230000Y-127920000D03*
X288500000Y-124110000D03*
D13*
X278500000Y-124110000D03*
D18*
X295400000Y-141240000D03*
D19*
X295400000Y-126000000D03*
D18*
X271600000Y-141240000D03*
D19*
X271600000Y-126000000D03*
D11*
X271460000Y-119080000D03*
X277810000Y-116540000D03*
D12*
X274000000Y-114000000D03*
D13*
X282890000Y-116540000D03*
D14*
X282890000Y-108920000D03*
D13*
X275270000Y-108920000D03*
D14*
X272730000Y-108920000D03*
X279000000Y-105110000D03*
D13*
X269000000Y-105110000D03*
D11*
X290460000Y-119080000D03*
X296810000Y-116540000D03*
D12*
X293000000Y-114000000D03*
D13*
X301890000Y-116540000D03*
D14*
X301890000Y-108920000D03*
D13*
X294270000Y-108920000D03*
D14*
X291730000Y-108920000D03*
X298000000Y-105110000D03*
D13*
X288000000Y-105110000D03*
D11*
X309460000Y-119080000D03*
X315810000Y-116540000D03*
D12*
X312000000Y-114000000D03*
D13*
X320890000Y-116540000D03*
D14*
X320890000Y-108920000D03*
D13*
X313270000Y-108920000D03*
D14*
X310730000Y-108920000D03*
X317000000Y-105110000D03*
D13*
X307000000Y-105110000D03*
D11*
X271460000Y-100080000D03*
X277810000Y-97540000D03*
D12*
X274000000Y-95000000D03*
D13*
X282890000Y-97540000D03*
D14*
X282890000Y-89920000D03*
D13*
X275270000Y-89920000D03*
D14*
X272730000Y-89920000D03*
X279000000Y-86110000D03*
D13*
X269000000Y-86110000D03*
D11*
X290460000Y-100080000D03*
X296810000Y-97540000D03*
D12*
X293000000Y-95000000D03*
D13*
X301890000Y-97540000D03*
D14*
X301890000Y-89920000D03*
D13*
X294270000Y-89920000D03*
D14*
X291730000Y-89920000D03*
X298000000Y-86110000D03*
D13*
X288000000Y-86110000D03*
D11*
X309460000Y-100080000D03*
X315810000Y-97540000D03*
D12*
X312000000Y-95000000D03*
D13*
X320890000Y-97540000D03*
D14*
X320890000Y-89920000D03*
D13*
X313270000Y-89920000D03*
D14*
X310730000Y-89920000D03*
X317000000Y-86110000D03*
D13*
X307000000Y-86110000D03*
D11*
X271460000Y-81080000D03*
X277810000Y-78540000D03*
D12*
X274000000Y-76000000D03*
D13*
X282890000Y-78540000D03*
D14*
X282890000Y-70920000D03*
D13*
X275270000Y-70920000D03*
D14*
X272730000Y-70920000D03*
X279000000Y-67110000D03*
D13*
X269000000Y-67110000D03*
D11*
X290460000Y-81080000D03*
X296810000Y-78540000D03*
D12*
X293000000Y-76000000D03*
D13*
X301890000Y-78540000D03*
D14*
X301890000Y-70920000D03*
D13*
X294270000Y-70920000D03*
D14*
X291730000Y-70920000D03*
X298000000Y-67110000D03*
D13*
X288000000Y-67110000D03*
D11*
X309460000Y-81080000D03*
X315810000Y-78540000D03*
D12*
X312000000Y-76000000D03*
D13*
X320890000Y-78540000D03*
D14*
X320890000Y-70920000D03*
D13*
X313270000Y-70920000D03*
D14*
X310730000Y-70920000D03*
X317000000Y-67110000D03*
D13*
X307000000Y-67110000D03*
D11*
X290460000Y-62080000D03*
X296810000Y-59540000D03*
D12*
X293000000Y-57000000D03*
D13*
X301890000Y-59540000D03*
D14*
X301890000Y-51920000D03*
D13*
X294270000Y-51920000D03*
D14*
X291730000Y-51920000D03*
X298000000Y-48110000D03*
D13*
X288000000Y-48110000D03*
D11*
X271460000Y-62080000D03*
X277810000Y-59540000D03*
D12*
X274000000Y-57000000D03*
D13*
X282890000Y-59540000D03*
D14*
X282890000Y-51920000D03*
D13*
X275270000Y-51920000D03*
D14*
X272730000Y-51920000D03*
X279000000Y-48110000D03*
D13*
X269000000Y-48110000D03*
D11*
X328460000Y-62080000D03*
X334810000Y-59540000D03*
D12*
X331000000Y-57000000D03*
D13*
X339890000Y-59540000D03*
D14*
X339890000Y-51920000D03*
D13*
X332270000Y-51920000D03*
D14*
X329730000Y-51920000D03*
X336000000Y-48110000D03*
D13*
X326000000Y-48110000D03*
D11*
X309460000Y-62080000D03*
X315810000Y-59540000D03*
D12*
X312000000Y-57000000D03*
D13*
X320890000Y-59540000D03*
D14*
X320890000Y-51920000D03*
D13*
X313270000Y-51920000D03*
D14*
X310730000Y-51920000D03*
X317000000Y-48110000D03*
D13*
X307000000Y-48110000D03*
D11*
X271460000Y-34080000D03*
X277810000Y-31540000D03*
D12*
X274000000Y-29000000D03*
D13*
X282890000Y-31540000D03*
D14*
X282890000Y-23920000D03*
D13*
X275270000Y-23920000D03*
D14*
X272730000Y-23920000D03*
X279000000Y-20110000D03*
D13*
X269000000Y-20110000D03*
D11*
X290460000Y-34080000D03*
X296810000Y-31540000D03*
D12*
X293000000Y-29000000D03*
D13*
X301890000Y-31540000D03*
D14*
X301890000Y-23920000D03*
D13*
X294270000Y-23920000D03*
D14*
X291730000Y-23920000D03*
X298000000Y-20110000D03*
D13*
X288000000Y-20110000D03*
D11*
X309460000Y-34080000D03*
X315810000Y-31540000D03*
D12*
X312000000Y-29000000D03*
D13*
X320890000Y-31540000D03*
D14*
X320890000Y-23920000D03*
D13*
X313270000Y-23920000D03*
D14*
X310730000Y-23920000D03*
X317000000Y-20110000D03*
D13*
X307000000Y-20110000D03*
D11*
X328460000Y-34080000D03*
X334810000Y-31540000D03*
D12*
X331000000Y-29000000D03*
D13*
X339890000Y-31540000D03*
D14*
X339890000Y-23920000D03*
D13*
X332270000Y-23920000D03*
D14*
X329730000Y-23920000D03*
X336000000Y-20110000D03*
D13*
X326000000Y-20110000D03*
D20*
X3500000Y-3500000D03*
X3500000Y-146500000D03*
X368500000Y-3500000D03*
X368500000Y-146500000D03*
X200000000Y-3500000D03*
X200000000Y-95000000D03*
X200000000Y-146500000D03*
D11*
X19210000Y-81080000D03*
X25560000Y-78540000D03*
D12*
X21750000Y-76000000D03*
D13*
X30640000Y-78540000D03*
D14*
X30640000Y-70920000D03*
D13*
X23020000Y-70920000D03*
D14*
X20480000Y-70920000D03*
X12860000Y-81000000D03*
D13*
X12860000Y-71000000D03*
D11*
X14460000Y-138080000D03*
X20810000Y-135540000D03*
D12*
X17000000Y-133000000D03*
D13*
X25890000Y-135540000D03*
D14*
X25890000Y-127920000D03*
D13*
X18270000Y-127920000D03*
D14*
X15730000Y-127920000D03*
X8110000Y-138000000D03*
D13*
X8110000Y-128000000D03*
D11*
X42960000Y-81080000D03*
X49310000Y-78540000D03*
D12*
X45500000Y-76000000D03*
D13*
X54390000Y-78540000D03*
D14*
X54390000Y-70920000D03*
D13*
X46770000Y-70920000D03*
D14*
X44230000Y-70920000D03*
X36610000Y-81000000D03*
D13*
X36610000Y-71000000D03*
D11*
X45335000Y-138080000D03*
X51685000Y-135540000D03*
D12*
X47875000Y-133000000D03*
D13*
X65875000Y-135540000D03*
D14*
X65875000Y-127920000D03*
D13*
X49145000Y-127920000D03*
D14*
X46605000Y-127920000D03*
X29875000Y-138000000D03*
D13*
X29875000Y-128000000D03*
D18*
X59775000Y-141240000D03*
D19*
X59775000Y-126000000D03*
D18*
X35975000Y-141240000D03*
D19*
X35975000Y-126000000D03*
D11*
X168835000Y-119080000D03*
X175185000Y-116540000D03*
D12*
X171375000Y-114000000D03*
D13*
X189375000Y-116540000D03*
D14*
X189375000Y-108920000D03*
D13*
X172645000Y-108920000D03*
D14*
X170105000Y-108920000D03*
X153375000Y-119000000D03*
D13*
X153375000Y-109000000D03*
D18*
X183275000Y-122240000D03*
D19*
X183275000Y-107000000D03*
D18*
X159475000Y-122240000D03*
D19*
X159475000Y-107000000D03*
D11*
X159335000Y-138080000D03*
X165685000Y-135540000D03*
D12*
X161875000Y-133000000D03*
D13*
X170765000Y-135540000D03*
D14*
X170765000Y-127920000D03*
D13*
X163145000Y-127920000D03*
D14*
X160605000Y-127920000D03*
X166875000Y-141890000D03*
D13*
X156875000Y-141890000D03*
D11*
X183085000Y-138080000D03*
X189435000Y-135540000D03*
D12*
X185625000Y-133000000D03*
D13*
X194515000Y-135540000D03*
D14*
X194515000Y-127920000D03*
D13*
X186895000Y-127920000D03*
D14*
X184355000Y-127920000D03*
X190625000Y-141890000D03*
D13*
X180625000Y-141890000D03*
D11*
X180710000Y-81080000D03*
X187060000Y-78540000D03*
D12*
X183250000Y-76000000D03*
D13*
X192140000Y-78540000D03*
D14*
X192140000Y-70920000D03*
D13*
X184520000Y-70920000D03*
D14*
X181980000Y-70920000D03*
X174360000Y-81000000D03*
D13*
X174360000Y-71000000D03*
D11*
X156960000Y-81080000D03*
X163310000Y-78540000D03*
D12*
X159500000Y-76000000D03*
D13*
X168390000Y-78540000D03*
D14*
X168390000Y-70920000D03*
D13*
X160770000Y-70920000D03*
D14*
X158230000Y-70920000D03*
X164500000Y-84890000D03*
D13*
X154500000Y-84890000D03*
D11*
X336080000Y-88040000D03*
X333540000Y-81690000D03*
D12*
X331000000Y-85500000D03*
D13*
X333540000Y-103500000D03*
D14*
X325920000Y-103500000D03*
D13*
X325920000Y-84230000D03*
D14*
X325920000Y-86770000D03*
X329000000Y-105500000D03*
D13*
X339000000Y-105500000D03*
D18*
X339240000Y-73600000D03*
D19*
X324000000Y-73600000D03*
D18*
X339240000Y-97400000D03*
D19*
X324000000Y-97400000D03*
D11*
X336080000Y-126040000D03*
X333540000Y-119690000D03*
D12*
X331000000Y-123500000D03*
D13*
X333540000Y-141500000D03*
D14*
X325920000Y-141500000D03*
D13*
X325920000Y-122230000D03*
D14*
X325920000Y-124770000D03*
X329000000Y-143500000D03*
D13*
X339000000Y-143500000D03*
D18*
X339240000Y-111600000D03*
D19*
X324000000Y-111600000D03*
D18*
X339240000Y-135400000D03*
D19*
X324000000Y-135400000D03*
D21*
X281000000Y-37000000D03*
X267000000Y-37000000D03*
X294000000Y-46000000D03*
X294000000Y-42500000D03*
X260500000Y-42500000D03*
X260500000Y-17500000D03*
X269500000Y-17500000D03*
X275500000Y-15500000D03*
X261500000Y-15500000D03*
X262500000Y-88500000D03*
X347000000Y-65500000D03*
X322000000Y-65500000D03*
X320000000Y-82500000D03*
X275000000Y-60500000D03*
X263500000Y-58000000D03*
X263000000Y-14500000D03*
X278000000Y-14500000D03*
X262000000Y-123500000D03*
X263500000Y-39000000D03*
X280000000Y-39000000D03*
X283500000Y-17500000D03*
X259000000Y-43500000D03*
X286000000Y-43500000D03*
X284500000Y-65000000D03*
X180000000Y-69000000D03*
X157500000Y-67500000D03*
X366500000Y-62000000D03*
X368500000Y-52000000D03*
X368500000Y-12000000D03*
X292000000Y-12000000D03*
X363000000Y-147500000D03*
X210500000Y-148000000D03*
X366000000Y-11000000D03*
X294500000Y-11000000D03*
X242000000Y-145000000D03*
X296500000Y-145000000D03*
X299000000Y-146000000D03*
X334000000Y-146000000D03*
X338000000Y-146000000D03*
X368000000Y-128000000D03*
X3000000Y-29000000D03*
X265500000Y-40000000D03*
X299000000Y-40000000D03*
X304000000Y-15500000D03*
X297500000Y-15500000D03*
X38500000Y-113000000D03*
X38500000Y-117500000D03*
X85500000Y-122000000D03*
X80000000Y-122000000D03*
X51000000Y-125500000D03*
X46500000Y-125500000D03*
X26000000Y-124500000D03*
X221000000Y-120000000D03*
X194500000Y-125000000D03*
X171000000Y-125000000D03*
X28500000Y-14000000D03*
X300000000Y-13000000D03*
X41500000Y-78500000D03*
X36000000Y-77500000D03*
X66500000Y-6500000D03*
X268500000Y-1000000D03*
X85000000Y-7500000D03*
X271000000Y-1500000D03*
X104000000Y-8500000D03*
X273500000Y-2500000D03*
X122500000Y-10000000D03*
X276500000Y-4000000D03*
X142000000Y-11500000D03*
X279500000Y-11000000D03*
X161500000Y-12500000D03*
X282000000Y-12000000D03*
X285000000Y-34000000D03*
X323000000Y-62000000D03*
X320000000Y-41000000D03*
X290500000Y-41000000D03*
X267000000Y-41000000D03*
X275500000Y-146000000D03*
X310500000Y-3000000D03*
X291000000Y-139000000D03*
X328500000Y-4000000D03*
X304500000Y-62500000D03*
X328500000Y-115000000D03*
X324500000Y-115000000D03*
X296000000Y-16500000D03*
X322500000Y-87000000D03*
X300000000Y-26000000D03*
X207500000Y-129500000D03*
X202000000Y-126000000D03*
X80000000Y-130000000D03*
X72500000Y-123000000D03*
X263500000Y-90000000D03*
D22*
X266863000Y-8897000D02*
X266863000Y-36863000D01*
X281000000Y-26000000D02*
X282890000Y-24110000D01*
X281000000Y-37000000D02*
X281000000Y-26000000D01*
X266863000Y-36863000D02*
X267000000Y-37000000D01*
X282890000Y-24110000D02*
X282890000Y-23920000D01*
X269657000Y-8897000D02*
X269657000Y-17343000D01*
X294000000Y-42500000D02*
X294000000Y-46000000D01*
X260500000Y-17500000D02*
X260500000Y-42500000D01*
X269657000Y-17343000D02*
X269500000Y-17500000D01*
X272451000Y-8897000D02*
X272451000Y-20549000D01*
X277500000Y-70500000D02*
X282470000Y-70500000D01*
X275000000Y-68000000D02*
X277500000Y-70500000D01*
X272000000Y-68000000D02*
X275000000Y-68000000D01*
X268500000Y-64500000D02*
X272000000Y-68000000D01*
X268500000Y-52500000D02*
X268500000Y-64500000D01*
X271000000Y-50000000D02*
X268500000Y-52500000D01*
X271000000Y-48000000D02*
X271000000Y-50000000D01*
X268500000Y-45500000D02*
X271000000Y-48000000D01*
X268500000Y-24500000D02*
X268500000Y-45500000D01*
X272451000Y-20549000D02*
X268500000Y-24500000D01*
X282470000Y-70500000D02*
X282890000Y-70920000D01*
X325920000Y-103500000D02*
X325920000Y-100580000D01*
X325920000Y-100580000D02*
X328000000Y-98500000D01*
X328000000Y-98500000D02*
X328000000Y-82500000D01*
X328000000Y-82500000D02*
X320890000Y-75390000D01*
X320890000Y-75390000D02*
X320890000Y-70920000D01*
X275245000Y-15245000D02*
X275245000Y-8897000D01*
X275500000Y-15500000D02*
X275245000Y-15245000D01*
X261500000Y-69000000D02*
X261500000Y-15500000D01*
X262500000Y-70000000D02*
X261500000Y-69000000D01*
X262500000Y-88500000D02*
X262500000Y-70000000D01*
X320890000Y-83500000D02*
X320890000Y-81890000D01*
X366000000Y-26030000D02*
X363890000Y-23920000D01*
X366000000Y-33500000D02*
X366000000Y-26030000D01*
X363000000Y-36500000D02*
X366000000Y-33500000D01*
X358000000Y-36500000D02*
X363000000Y-36500000D01*
X347500000Y-47000000D02*
X358000000Y-36500000D01*
X347500000Y-65000000D02*
X347500000Y-47000000D01*
X347000000Y-65500000D02*
X347500000Y-65000000D01*
X318000000Y-69500000D02*
X322000000Y-65500000D01*
X318000000Y-79000000D02*
X318000000Y-69500000D01*
X320890000Y-81890000D02*
X318000000Y-79000000D01*
X320890000Y-83390000D02*
X320890000Y-83500000D01*
X320890000Y-83500000D02*
X320890000Y-89920000D01*
X320000000Y-82500000D02*
X320890000Y-83390000D01*
X278039000Y-8897000D02*
X278039000Y-14461000D01*
X285500000Y-106310000D02*
X282890000Y-108920000D01*
X285500000Y-83000000D02*
X285500000Y-106310000D01*
X286000000Y-82500000D02*
X285500000Y-83000000D01*
X286000000Y-70000000D02*
X286000000Y-82500000D01*
X280500000Y-64500000D02*
X286000000Y-70000000D01*
X279000000Y-64500000D02*
X280500000Y-64500000D01*
X275000000Y-60500000D02*
X279000000Y-64500000D01*
X262500000Y-57000000D02*
X263500000Y-58000000D01*
X262500000Y-15000000D02*
X262500000Y-57000000D01*
X263000000Y-14500000D02*
X262500000Y-15000000D01*
X278039000Y-14461000D02*
X278000000Y-14500000D01*
X325920000Y-141500000D02*
X325920000Y-138580000D01*
X325920000Y-138580000D02*
X327000000Y-137500000D01*
X327000000Y-137500000D02*
X327000000Y-130000000D01*
X327000000Y-130000000D02*
X323000000Y-126000000D01*
X323000000Y-126000000D02*
X323000000Y-114000000D01*
X323000000Y-114000000D02*
X320890000Y-111890000D01*
X320890000Y-111890000D02*
X320890000Y-108920000D01*
X280706000Y-8897000D02*
X280706000Y-12706000D01*
X265000000Y-120500000D02*
X262000000Y-123500000D01*
X265000000Y-40500000D02*
X265000000Y-120500000D01*
X263500000Y-39000000D02*
X265000000Y-40500000D01*
X280000000Y-24500000D02*
X280000000Y-39000000D01*
X282500000Y-22000000D02*
X280000000Y-24500000D01*
X282500000Y-14500000D02*
X282500000Y-22000000D01*
X280706000Y-12706000D02*
X282500000Y-14500000D01*
X283500000Y-17500000D02*
X283500000Y-8897000D01*
X286294000Y-8897000D02*
X286294000Y-43206000D01*
X258890000Y-43610000D02*
X258890000Y-51920000D01*
X259000000Y-43500000D02*
X258890000Y-43610000D01*
X286294000Y-43206000D02*
X286000000Y-43500000D01*
X289088000Y-8897000D02*
X289088000Y-17088000D01*
X284500000Y-48500000D02*
X284500000Y-65000000D01*
X299000000Y-34000000D02*
X284500000Y-48500000D01*
X299000000Y-25000000D02*
X299000000Y-34000000D01*
X296000000Y-22000000D02*
X299000000Y-25000000D01*
X294000000Y-22000000D02*
X296000000Y-22000000D01*
X289088000Y-17088000D02*
X294000000Y-22000000D01*
X190000000Y-69000000D02*
X191920000Y-70920000D01*
X180000000Y-69000000D02*
X190000000Y-69000000D01*
X191920000Y-70920000D02*
X192140000Y-70920000D01*
X164470000Y-67000000D02*
X168390000Y-70920000D01*
X158000000Y-67000000D02*
X164470000Y-67000000D01*
X157500000Y-67500000D02*
X158000000Y-67000000D01*
X291882000Y-8897000D02*
X291882000Y-11882000D01*
X363890000Y-64610000D02*
X363890000Y-70920000D01*
X366500000Y-62000000D02*
X363890000Y-64610000D01*
X368500000Y-12000000D02*
X368500000Y-52000000D01*
X291882000Y-11882000D02*
X292000000Y-12000000D01*
X366485000Y-92515000D02*
X366485000Y-73515000D01*
X366485000Y-73515000D02*
X363890000Y-70920000D01*
X366485000Y-111515000D02*
X366485000Y-92515000D01*
X366485000Y-92515000D02*
X363890000Y-89920000D01*
X194125000Y-89920000D02*
X194125000Y-90125000D01*
X194125000Y-90125000D02*
X197000000Y-93000000D01*
X366500000Y-111530000D02*
X366485000Y-111515000D01*
X366485000Y-111515000D02*
X363890000Y-108920000D01*
X366500000Y-144000000D02*
X366500000Y-111530000D01*
X363000000Y-147500000D02*
X366500000Y-144000000D01*
X197000000Y-134500000D02*
X210500000Y-148000000D01*
X197000000Y-93000000D02*
X197000000Y-134500000D01*
X294549000Y-8897000D02*
X294549000Y-10951000D01*
X367000000Y-48810000D02*
X363890000Y-51920000D01*
X367000000Y-12000000D02*
X367000000Y-48810000D01*
X366000000Y-11000000D02*
X367000000Y-12000000D01*
X294549000Y-10951000D02*
X294500000Y-11000000D01*
X239890000Y-112890000D02*
X239890000Y-108920000D01*
X242000000Y-115000000D02*
X239890000Y-112890000D01*
X242000000Y-145000000D02*
X242000000Y-115000000D01*
X298000000Y-145000000D02*
X296500000Y-145000000D01*
X299000000Y-146000000D02*
X298000000Y-145000000D01*
X338000000Y-146000000D02*
X334000000Y-146000000D01*
X363890000Y-51920000D02*
X363890000Y-56390000D01*
X368000000Y-60500000D02*
X368000000Y-128000000D01*
X363890000Y-56390000D02*
X368000000Y-60500000D01*
X10875000Y-108920000D02*
X8920000Y-108920000D01*
X3000000Y-103000000D02*
X3000000Y-29000000D01*
X8920000Y-108920000D02*
X3000000Y-103000000D01*
X297343000Y-8897000D02*
X297343000Y-15343000D01*
X266000000Y-120810000D02*
X258890000Y-127920000D01*
X266000000Y-40500000D02*
X266000000Y-120810000D01*
X265500000Y-40000000D02*
X266000000Y-40500000D01*
X304000000Y-35000000D02*
X299000000Y-40000000D01*
X304000000Y-15500000D02*
X304000000Y-35000000D01*
X297343000Y-15343000D02*
X297500000Y-15500000D01*
X25890000Y-127920000D02*
X25890000Y-124610000D01*
X25890000Y-124610000D02*
X29500000Y-121000000D01*
X33000000Y-73280000D02*
X30640000Y-70920000D01*
X33000000Y-83000000D02*
X33000000Y-73280000D01*
X36000000Y-86000000D02*
X33000000Y-83000000D01*
X36000000Y-110500000D02*
X36000000Y-86000000D01*
X38500000Y-113000000D02*
X36000000Y-110500000D01*
X35000000Y-121000000D02*
X38500000Y-117500000D01*
X29500000Y-121000000D02*
X35000000Y-121000000D01*
X85000000Y-122000000D02*
X85500000Y-122000000D01*
X80000000Y-122000000D02*
X85000000Y-122000000D01*
X46500000Y-125500000D02*
X51000000Y-125500000D01*
X25890000Y-124610000D02*
X26000000Y-124500000D01*
X220890000Y-120110000D02*
X220890000Y-127920000D01*
X221000000Y-120000000D02*
X220890000Y-120110000D01*
X194515000Y-125015000D02*
X194515000Y-127920000D01*
X194500000Y-125000000D02*
X194515000Y-125015000D01*
X170765000Y-125235000D02*
X170765000Y-127920000D01*
X171000000Y-125000000D02*
X170765000Y-125235000D01*
X300137000Y-8897000D02*
X300137000Y-12863000D01*
X29000000Y-29620000D02*
X33460000Y-34080000D01*
X29000000Y-14500000D02*
X29000000Y-29620000D01*
X28500000Y-14000000D02*
X29000000Y-14500000D01*
X300137000Y-12863000D02*
X300000000Y-13000000D01*
X23960000Y-62080000D02*
X23960000Y-61460000D01*
X23960000Y-61460000D02*
X19000000Y-56500000D01*
X19000000Y-38620000D02*
X14460000Y-34080000D01*
X19000000Y-56500000D02*
X19000000Y-38620000D01*
X19210000Y-81080000D02*
X19210000Y-79210000D01*
X17500000Y-68540000D02*
X23960000Y-62080000D01*
X17500000Y-77500000D02*
X17500000Y-68540000D01*
X19210000Y-79210000D02*
X17500000Y-77500000D01*
X37000000Y-78500000D02*
X41500000Y-78500000D01*
X36000000Y-77500000D02*
X37000000Y-78500000D01*
X21585000Y-100080000D02*
X21585000Y-99585000D01*
X21585000Y-99585000D02*
X16500000Y-94500000D01*
X16500000Y-94500000D02*
X16500000Y-83790000D01*
X16500000Y-83790000D02*
X19210000Y-81080000D01*
X268260000Y-6103000D02*
X268260000Y-1240000D01*
X66000000Y-7000000D02*
X66000000Y-35500000D01*
X66500000Y-6500000D02*
X66000000Y-7000000D01*
X268260000Y-1240000D02*
X268500000Y-1000000D01*
X52460000Y-62080000D02*
X52080000Y-62080000D01*
X52080000Y-62080000D02*
X49000000Y-59000000D01*
X67420000Y-34080000D02*
X71460000Y-34080000D01*
X49000000Y-52500000D02*
X66000000Y-35500000D01*
X66000000Y-35500000D02*
X67420000Y-34080000D01*
X49000000Y-59000000D02*
X49000000Y-52500000D01*
X61960000Y-81080000D02*
X61960000Y-80460000D01*
X61960000Y-80460000D02*
X57000000Y-75500000D01*
X57000000Y-66620000D02*
X52460000Y-62080000D01*
X57000000Y-75500000D02*
X57000000Y-66620000D01*
X47710000Y-100080000D02*
X46580000Y-100080000D01*
X46580000Y-100080000D02*
X45500000Y-99000000D01*
X53420000Y-81080000D02*
X61960000Y-81080000D01*
X45500000Y-89000000D02*
X53420000Y-81080000D01*
X45500000Y-99000000D02*
X45500000Y-89000000D01*
X26335000Y-119080000D02*
X34420000Y-119080000D01*
X47710000Y-105790000D02*
X47710000Y-100080000D01*
X34420000Y-119080000D02*
X47710000Y-105790000D01*
X14460000Y-138080000D02*
X14460000Y-135960000D01*
X20415000Y-125000000D02*
X26335000Y-119080000D01*
X15500000Y-125000000D02*
X20415000Y-125000000D01*
X13000000Y-127500000D02*
X15500000Y-125000000D01*
X13000000Y-134500000D02*
X13000000Y-127500000D01*
X14460000Y-135960000D02*
X13000000Y-134500000D01*
X271054000Y-6103000D02*
X271054000Y-1554000D01*
X85000000Y-28000000D02*
X90460000Y-33460000D01*
X85000000Y-7500000D02*
X85000000Y-28000000D01*
X271054000Y-1554000D02*
X271000000Y-1500000D01*
X90460000Y-33460000D02*
X90460000Y-34080000D01*
X71460000Y-62080000D02*
X71460000Y-60960000D01*
X71460000Y-60960000D02*
X69000000Y-58500000D01*
X86420000Y-34080000D02*
X90460000Y-34080000D01*
X69000000Y-51500000D02*
X86420000Y-34080000D01*
X69000000Y-58500000D02*
X69000000Y-51500000D01*
X80960000Y-81080000D02*
X80960000Y-79960000D01*
X80960000Y-79960000D02*
X75500000Y-74500000D01*
X75500000Y-66120000D02*
X71460000Y-62080000D01*
X75500000Y-74500000D02*
X75500000Y-66120000D01*
X66710000Y-100080000D02*
X66710000Y-98210000D01*
X73420000Y-81080000D02*
X80960000Y-81080000D01*
X65500000Y-89000000D02*
X73420000Y-81080000D01*
X65500000Y-97000000D02*
X65500000Y-89000000D01*
X66710000Y-98210000D02*
X65500000Y-97000000D01*
X57210000Y-119080000D02*
X57210000Y-117210000D01*
X63420000Y-100080000D02*
X66710000Y-100080000D01*
X55500000Y-108000000D02*
X63420000Y-100080000D01*
X55500000Y-115500000D02*
X55500000Y-108000000D01*
X57210000Y-117210000D02*
X55500000Y-115500000D01*
X45335000Y-138080000D02*
X52420000Y-138080000D01*
X57210000Y-133290000D02*
X57210000Y-119080000D01*
X52420000Y-138080000D02*
X57210000Y-133290000D01*
X273848000Y-6103000D02*
X273848000Y-2848000D01*
X104500000Y-29120000D02*
X109460000Y-34080000D01*
X104500000Y-9000000D02*
X104500000Y-29120000D01*
X104000000Y-8500000D02*
X104500000Y-9000000D01*
X273848000Y-2848000D02*
X273500000Y-2500000D01*
X90460000Y-62080000D02*
X90460000Y-60960000D01*
X90460000Y-60960000D02*
X88500000Y-59000000D01*
X105920000Y-34080000D02*
X109460000Y-34080000D01*
X88500000Y-51500000D02*
X105920000Y-34080000D01*
X88500000Y-59000000D02*
X88500000Y-51500000D01*
X99960000Y-81080000D02*
X99960000Y-79960000D01*
X99960000Y-79960000D02*
X95000000Y-75000000D01*
X95000000Y-66620000D02*
X90460000Y-62080000D01*
X95000000Y-75000000D02*
X95000000Y-66620000D01*
X85710000Y-100080000D02*
X85580000Y-100080000D01*
X85580000Y-100080000D02*
X84500000Y-99000000D01*
X92920000Y-81080000D02*
X99960000Y-81080000D01*
X84500000Y-89500000D02*
X92920000Y-81080000D01*
X84500000Y-99000000D02*
X84500000Y-89500000D01*
X76210000Y-119080000D02*
X76210000Y-117210000D01*
X82420000Y-100080000D02*
X85710000Y-100080000D01*
X75000000Y-107500000D02*
X82420000Y-100080000D01*
X75000000Y-116000000D02*
X75000000Y-107500000D01*
X76210000Y-117210000D02*
X75000000Y-116000000D01*
X83335000Y-138080000D02*
X83335000Y-134835000D01*
X76210000Y-123710000D02*
X76210000Y-119080000D01*
X82000000Y-129500000D02*
X76210000Y-123710000D01*
X82000000Y-133500000D02*
X82000000Y-129500000D01*
X83335000Y-134835000D02*
X82000000Y-133500000D01*
X276515000Y-6103000D02*
X276515000Y-4015000D01*
X123500000Y-29120000D02*
X128460000Y-34080000D01*
X123500000Y-11000000D02*
X123500000Y-29120000D01*
X122500000Y-10000000D02*
X123500000Y-11000000D01*
X276515000Y-4015000D02*
X276500000Y-4000000D01*
X109460000Y-62080000D02*
X109460000Y-61960000D01*
X109460000Y-61960000D02*
X107000000Y-59500000D01*
X123920000Y-34080000D02*
X128460000Y-34080000D01*
X107000000Y-51000000D02*
X123920000Y-34080000D01*
X107000000Y-59500000D02*
X107000000Y-51000000D01*
X118960000Y-81080000D02*
X118080000Y-81080000D01*
X118080000Y-81080000D02*
X113500000Y-76500000D01*
X113500000Y-66120000D02*
X109460000Y-62080000D01*
X113500000Y-76500000D02*
X113500000Y-66120000D01*
X104710000Y-100080000D02*
X104710000Y-98710000D01*
X110420000Y-81080000D02*
X118960000Y-81080000D01*
X102500000Y-89000000D02*
X110420000Y-81080000D01*
X102500000Y-96500000D02*
X102500000Y-89000000D01*
X104710000Y-98710000D02*
X102500000Y-96500000D01*
X95210000Y-119080000D02*
X95210000Y-117710000D01*
X101420000Y-100080000D02*
X104710000Y-100080000D01*
X93500000Y-108000000D02*
X101420000Y-100080000D01*
X93500000Y-116000000D02*
X93500000Y-108000000D01*
X95210000Y-117710000D02*
X93500000Y-116000000D01*
X111835000Y-138080000D02*
X111835000Y-135705000D01*
X111835000Y-135705000D02*
X95210000Y-119080000D01*
X279309000Y-6103000D02*
X279309000Y-10809000D01*
X142500000Y-29120000D02*
X147460000Y-34080000D01*
X142500000Y-12000000D02*
X142500000Y-29120000D01*
X142000000Y-11500000D02*
X142500000Y-12000000D01*
X279309000Y-10809000D02*
X279500000Y-11000000D01*
X128460000Y-62080000D02*
X128080000Y-62080000D01*
X128080000Y-62080000D02*
X125500000Y-59500000D01*
X143920000Y-34080000D02*
X147460000Y-34080000D01*
X125500000Y-52500000D02*
X143920000Y-34080000D01*
X125500000Y-59500000D02*
X125500000Y-52500000D01*
X137960000Y-81080000D02*
X136580000Y-81080000D01*
X132500000Y-66120000D02*
X128460000Y-62080000D01*
X132500000Y-77000000D02*
X132500000Y-66120000D01*
X136580000Y-81080000D02*
X132500000Y-77000000D01*
X123710000Y-100080000D02*
X123580000Y-100080000D01*
X123580000Y-100080000D02*
X121000000Y-97500000D01*
X129920000Y-81080000D02*
X137960000Y-81080000D01*
X121000000Y-90000000D02*
X129920000Y-81080000D01*
X121000000Y-97500000D02*
X121000000Y-90000000D01*
X114210000Y-119080000D02*
X114210000Y-118710000D01*
X114210000Y-118710000D02*
X112000000Y-116500000D01*
X119920000Y-100080000D02*
X123710000Y-100080000D01*
X112000000Y-108000000D02*
X119920000Y-100080000D01*
X112000000Y-116500000D02*
X112000000Y-108000000D01*
X135585000Y-138080000D02*
X135585000Y-135585000D01*
X119080000Y-119080000D02*
X114210000Y-119080000D01*
X135585000Y-135585000D02*
X119080000Y-119080000D01*
X282103000Y-6103000D02*
X282103000Y-11897000D01*
X161500000Y-30000000D02*
X165580000Y-34080000D01*
X161500000Y-12500000D02*
X161500000Y-30000000D01*
X282103000Y-11897000D02*
X282000000Y-12000000D01*
X165580000Y-34080000D02*
X166460000Y-34080000D01*
X147460000Y-62080000D02*
X147460000Y-61460000D01*
X147460000Y-61460000D02*
X145000000Y-59000000D01*
X161920000Y-34080000D02*
X166460000Y-34080000D01*
X145000000Y-51000000D02*
X161920000Y-34080000D01*
X145000000Y-59000000D02*
X145000000Y-51000000D01*
X156960000Y-81080000D02*
X156080000Y-81080000D01*
X156080000Y-81080000D02*
X153000000Y-78000000D01*
X153000000Y-67620000D02*
X147460000Y-62080000D01*
X153000000Y-78000000D02*
X153000000Y-67620000D01*
X142710000Y-100080000D02*
X142710000Y-99710000D01*
X142710000Y-99710000D02*
X140000000Y-97000000D01*
X148920000Y-81080000D02*
X156960000Y-81080000D01*
X140000000Y-90000000D02*
X148920000Y-81080000D01*
X140000000Y-97000000D02*
X140000000Y-90000000D01*
X133210000Y-119080000D02*
X133210000Y-117710000D01*
X139420000Y-100080000D02*
X142710000Y-100080000D01*
X131000000Y-108500000D02*
X139420000Y-100080000D01*
X131000000Y-115500000D02*
X131000000Y-108500000D01*
X133210000Y-117710000D02*
X131000000Y-115500000D01*
X159335000Y-138080000D02*
X153080000Y-138080000D01*
X153080000Y-138080000D02*
X134080000Y-119080000D01*
X134080000Y-119080000D02*
X133210000Y-119080000D01*
X284897000Y-6103000D02*
X284897000Y-33897000D01*
X284897000Y-33897000D02*
X285000000Y-34000000D01*
X328460000Y-62080000D02*
X328460000Y-60460000D01*
X328460000Y-60460000D02*
X326000000Y-58000000D01*
X326000000Y-58000000D02*
X326000000Y-53000000D01*
X326000000Y-53000000D02*
X344920000Y-34080000D01*
X344920000Y-34080000D02*
X352460000Y-34080000D01*
X336080000Y-88040000D02*
X336080000Y-76920000D01*
X329000000Y-69840000D02*
X329000000Y-62620000D01*
X336080000Y-76920000D02*
X329000000Y-69840000D01*
X329000000Y-62620000D02*
X328460000Y-62080000D01*
X336080000Y-126040000D02*
X336080000Y-88040000D01*
X175960000Y-62080000D02*
X175960000Y-61960000D01*
X175960000Y-61960000D02*
X172500000Y-58500000D01*
X185460000Y-40540000D02*
X185460000Y-34080000D01*
X172500000Y-53500000D02*
X185460000Y-40540000D01*
X172500000Y-58500000D02*
X172500000Y-53500000D01*
X180710000Y-81080000D02*
X180710000Y-80210000D01*
X180710000Y-80210000D02*
X177500000Y-77000000D01*
X177500000Y-63620000D02*
X175960000Y-62080000D01*
X177500000Y-77000000D02*
X177500000Y-63620000D01*
X173585000Y-100080000D02*
X173585000Y-98585000D01*
X171500000Y-89500000D02*
X179920000Y-81080000D01*
X171500000Y-96500000D02*
X171500000Y-89500000D01*
X173585000Y-98585000D02*
X171500000Y-96500000D01*
X179920000Y-81080000D02*
X180710000Y-81080000D01*
X168835000Y-119080000D02*
X168835000Y-117335000D01*
X166000000Y-107665000D02*
X173585000Y-100080000D01*
X166000000Y-114500000D02*
X166000000Y-107665000D01*
X168835000Y-117335000D02*
X166000000Y-114500000D01*
X183085000Y-138080000D02*
X183085000Y-135585000D01*
X174500000Y-124745000D02*
X168835000Y-119080000D01*
X174500000Y-127000000D02*
X174500000Y-124745000D01*
X183085000Y-135585000D02*
X174500000Y-127000000D01*
X287691000Y-6103000D02*
X287691000Y-17691000D01*
X289000000Y-32620000D02*
X290460000Y-34080000D01*
X289000000Y-23500000D02*
X289000000Y-32620000D01*
X290000000Y-22500000D02*
X289000000Y-23500000D01*
X290000000Y-19500000D02*
X290000000Y-22500000D01*
X289000000Y-18500000D02*
X290000000Y-19500000D01*
X288500000Y-18500000D02*
X289000000Y-18500000D01*
X287691000Y-17691000D02*
X288500000Y-18500000D01*
X323000000Y-44000000D02*
X323000000Y-62000000D01*
X320000000Y-41000000D02*
X323000000Y-44000000D01*
X352460000Y-81080000D02*
X352080000Y-81080000D01*
X352080000Y-81080000D02*
X350500000Y-79500000D01*
X350500000Y-79500000D02*
X350500000Y-70000000D01*
X350500000Y-70000000D02*
X352460000Y-68040000D01*
X352460000Y-68040000D02*
X352460000Y-62080000D01*
X271460000Y-81080000D02*
X271460000Y-78960000D01*
X290460000Y-40960000D02*
X290460000Y-34080000D01*
X290500000Y-41000000D02*
X290460000Y-40960000D01*
X267000000Y-74500000D02*
X267000000Y-41000000D01*
X271460000Y-78960000D02*
X267000000Y-74500000D01*
X271460000Y-100080000D02*
X271460000Y-97960000D01*
X271460000Y-87540000D02*
X271460000Y-81080000D01*
X270000000Y-89000000D02*
X271460000Y-87540000D01*
X270000000Y-96500000D02*
X270000000Y-89000000D01*
X271460000Y-97960000D02*
X270000000Y-96500000D01*
X271460000Y-119080000D02*
X271460000Y-118960000D01*
X271460000Y-118960000D02*
X269500000Y-117000000D01*
X271460000Y-105540000D02*
X271460000Y-100080000D01*
X269500000Y-107500000D02*
X271460000Y-105540000D01*
X269500000Y-117000000D02*
X269500000Y-107500000D01*
X275000000Y-122620000D02*
X271460000Y-119080000D01*
X275000000Y-145500000D02*
X275000000Y-122620000D01*
X275500000Y-146000000D02*
X275000000Y-145500000D01*
X209460000Y-62080000D02*
X208580000Y-62080000D01*
X208580000Y-62080000D02*
X205000000Y-58500000D01*
X205000000Y-38540000D02*
X209460000Y-34080000D01*
X205000000Y-58500000D02*
X205000000Y-38540000D01*
X209460000Y-81080000D02*
X208580000Y-81080000D01*
X208580000Y-81080000D02*
X205000000Y-77500000D01*
X205000000Y-66540000D02*
X209460000Y-62080000D01*
X205000000Y-77500000D02*
X205000000Y-66540000D01*
X209460000Y-138080000D02*
X208080000Y-138080000D01*
X209460000Y-107540000D02*
X209460000Y-81080000D01*
X200000000Y-117000000D02*
X209460000Y-107540000D01*
X200000000Y-130000000D02*
X200000000Y-117000000D01*
X208080000Y-138080000D02*
X200000000Y-130000000D01*
X310500000Y-3000000D02*
X310000000Y-3500000D01*
X310000000Y-3500000D02*
X310000000Y-21500000D01*
X310000000Y-21500000D02*
X308500000Y-23000000D01*
X308500000Y-23000000D02*
X308500000Y-33120000D01*
X308500000Y-33120000D02*
X309460000Y-34080000D01*
X290460000Y-62080000D02*
X290460000Y-60960000D01*
X290460000Y-60960000D02*
X288500000Y-59000000D01*
X307920000Y-34080000D02*
X309460000Y-34080000D01*
X294000000Y-48000000D02*
X307920000Y-34080000D01*
X291500000Y-48000000D02*
X294000000Y-48000000D01*
X288500000Y-51000000D02*
X291500000Y-48000000D01*
X288500000Y-59000000D02*
X288500000Y-51000000D01*
X290460000Y-81080000D02*
X290460000Y-80460000D01*
X290460000Y-80460000D02*
X288500000Y-78500000D01*
X290460000Y-68040000D02*
X290460000Y-62080000D01*
X288500000Y-70000000D02*
X290460000Y-68040000D01*
X288500000Y-78500000D02*
X288500000Y-70000000D01*
X290460000Y-100080000D02*
X290460000Y-98960000D01*
X290460000Y-98960000D02*
X288500000Y-97000000D01*
X290460000Y-87540000D02*
X290460000Y-81080000D01*
X288500000Y-89500000D02*
X290460000Y-87540000D01*
X288500000Y-97000000D02*
X288500000Y-89500000D01*
X290460000Y-119080000D02*
X290460000Y-118460000D01*
X290460000Y-118460000D02*
X289000000Y-117000000D01*
X290460000Y-106040000D02*
X290460000Y-100080000D01*
X289000000Y-107500000D02*
X290460000Y-106040000D01*
X289000000Y-117000000D02*
X289000000Y-107500000D01*
X290460000Y-138460000D02*
X290460000Y-119080000D01*
X291000000Y-139000000D02*
X290460000Y-138460000D01*
X228460000Y-62080000D02*
X228460000Y-60960000D01*
X228460000Y-60960000D02*
X227000000Y-59500000D01*
X228460000Y-49040000D02*
X228460000Y-34080000D01*
X227000000Y-50500000D02*
X228460000Y-49040000D01*
X227000000Y-59500000D02*
X227000000Y-50500000D01*
X228460000Y-81080000D02*
X228460000Y-79960000D01*
X228460000Y-79960000D02*
X227500000Y-79000000D01*
X228460000Y-67540000D02*
X228460000Y-62080000D01*
X227500000Y-68500000D02*
X228460000Y-67540000D01*
X227500000Y-79000000D02*
X227500000Y-68500000D01*
X228460000Y-119080000D02*
X228460000Y-117960000D01*
X228460000Y-117960000D02*
X227000000Y-116500000D01*
X228460000Y-105540000D02*
X228460000Y-81080000D01*
X227000000Y-107000000D02*
X228460000Y-105540000D01*
X227000000Y-116500000D02*
X227000000Y-107000000D01*
X228460000Y-138080000D02*
X228460000Y-136460000D01*
X228460000Y-125540000D02*
X228460000Y-119080000D01*
X227000000Y-127000000D02*
X228460000Y-125540000D01*
X227000000Y-135000000D02*
X227000000Y-127000000D01*
X228460000Y-136460000D02*
X227000000Y-135000000D01*
X328500000Y-4000000D02*
X328500000Y-21000000D01*
X328500000Y-21000000D02*
X326500000Y-23000000D01*
X326500000Y-23000000D02*
X326500000Y-29500000D01*
X326500000Y-29500000D02*
X328460000Y-31460000D01*
X328460000Y-31460000D02*
X328460000Y-34080000D01*
X304500000Y-62500000D02*
X304500000Y-54500000D01*
X324920000Y-34080000D02*
X328460000Y-34080000D01*
X304500000Y-54500000D02*
X324920000Y-34080000D01*
X305000000Y-76620000D02*
X309460000Y-81080000D01*
X305000000Y-63000000D02*
X305000000Y-76620000D01*
X304500000Y-62500000D02*
X305000000Y-63000000D01*
X324500000Y-115000000D02*
X328500000Y-115000000D01*
X309460000Y-100080000D02*
X309460000Y-98460000D01*
X309460000Y-98460000D02*
X308000000Y-97000000D01*
X308000000Y-97000000D02*
X308000000Y-88500000D01*
X308000000Y-88500000D02*
X309460000Y-87040000D01*
X309460000Y-87040000D02*
X309460000Y-81080000D01*
X309460000Y-119080000D02*
X309460000Y-117960000D01*
X309460000Y-117960000D02*
X307500000Y-116000000D01*
X307500000Y-116000000D02*
X307500000Y-108500000D01*
X307500000Y-108500000D02*
X309460000Y-106540000D01*
X309460000Y-106540000D02*
X309460000Y-100080000D01*
X352460000Y-138080000D02*
X352460000Y-136460000D01*
X352460000Y-125040000D02*
X352460000Y-119080000D01*
X351000000Y-126500000D02*
X352460000Y-125040000D01*
X351000000Y-135000000D02*
X351000000Y-126500000D01*
X352460000Y-136460000D02*
X351000000Y-135000000D01*
X247460000Y-62080000D02*
X247460000Y-60960000D01*
X247460000Y-60960000D02*
X246000000Y-59500000D01*
X247460000Y-49040000D02*
X247460000Y-34080000D01*
X246000000Y-50500000D02*
X247460000Y-49040000D01*
X246000000Y-59500000D02*
X246000000Y-50500000D01*
X247460000Y-81080000D02*
X247460000Y-79460000D01*
X247460000Y-67540000D02*
X247460000Y-62080000D01*
X246000000Y-69000000D02*
X247460000Y-67540000D01*
X246000000Y-78000000D02*
X246000000Y-69000000D01*
X247460000Y-79460000D02*
X246000000Y-78000000D01*
X247460000Y-138080000D02*
X247460000Y-136460000D01*
X247460000Y-125540000D02*
X247460000Y-81080000D01*
X246000000Y-127000000D02*
X247460000Y-125540000D01*
X246000000Y-135000000D02*
X246000000Y-127000000D01*
X247460000Y-136460000D02*
X246000000Y-135000000D01*
X226000000Y-124110000D02*
X226000000Y-105110000D01*
X171125000Y-86110000D02*
X171125000Y-74235000D01*
X171125000Y-74235000D02*
X174360000Y-71000000D01*
X307000000Y-105110000D02*
X307000000Y-86110000D01*
X8110000Y-128000000D02*
X8110000Y-116390000D01*
X17985000Y-111000000D02*
X23875000Y-105110000D01*
X13500000Y-111000000D02*
X17985000Y-111000000D01*
X8110000Y-116390000D02*
X13500000Y-111000000D01*
X295946000Y-6103000D02*
X295946000Y-16446000D01*
X295946000Y-16446000D02*
X296000000Y-16500000D01*
X322730000Y-86770000D02*
X325920000Y-86770000D01*
X322500000Y-87000000D02*
X322730000Y-86770000D01*
X353730000Y-127920000D02*
X353730000Y-122270000D01*
X351500000Y-111150000D02*
X353730000Y-108920000D01*
X351500000Y-115000000D02*
X351500000Y-111150000D01*
X355000000Y-118500000D02*
X351500000Y-115000000D01*
X355000000Y-121000000D02*
X355000000Y-118500000D01*
X353730000Y-122270000D02*
X355000000Y-121000000D01*
X299000000Y-6363000D02*
X299000000Y-17500000D01*
X300000000Y-18500000D02*
X299000000Y-17500000D01*
X300000000Y-18500000D02*
X300000000Y-26000000D01*
X299000000Y-6363000D02*
X298740000Y-6103000D01*
X205500000Y-129500000D02*
X207500000Y-129500000D01*
X202000000Y-126000000D02*
X205500000Y-129500000D01*
X79500000Y-130000000D02*
X80000000Y-130000000D01*
X72500000Y-123000000D02*
X79500000Y-130000000D01*
X272730000Y-89920000D02*
X272730000Y-90230000D01*
X263500000Y-90000000D02*
X263500000Y-73500000D01*
M02*
