%TF.GenerationSoftware,KiCad,Pcbnew,(5.1.10)-1*%
%TF.CreationDate,2021-08-19T22:55:08-05:00*%
%TF.ProjectId,RightHand,52696768-7448-4616-9e64-2e6b69636164,rev?*%
%TF.SameCoordinates,Original*%
%TF.FileFunction,Legend,Bot*%
%TF.FilePolarity,Positive*%
%FSLAX46Y46*%
G04 Gerber Fmt 4.6, Leading zero omitted, Abs format (unit mm)*
G04 Created by KiCad (PCBNEW (5.1.10)-1) date 2021-08-19 22:55:08*
%MOMM*%
%LPD*%
G01*
G04 APERTURE LIST*
%ADD10C,0.120000*%
G04 APERTURE END LIST*
D10*
%TO.C,KY1*%
X103000000Y-10570000D02*
X102000000Y-11570000D01*
X103000000Y-11570000D02*
X103000000Y-10570000D01*
X102000000Y-11570000D02*
X103000000Y-11570000D01*
%TO.C,KU1*%
X122000000Y-10570000D02*
X121000000Y-11570000D01*
X122000000Y-11570000D02*
X122000000Y-10570000D01*
X121000000Y-11570000D02*
X122000000Y-11570000D01*
%TO.C,KTG_D1*%
X129000000Y-86570000D02*
X128000000Y-87570000D01*
X129000000Y-87570000D02*
X129000000Y-86570000D01*
X128000000Y-87570000D02*
X129000000Y-87570000D01*
%TO.C,KTG_C1*%
X110000000Y-86570000D02*
X109000000Y-87570000D01*
X110000000Y-87570000D02*
X110000000Y-86570000D01*
X109000000Y-87570000D02*
X110000000Y-87570000D01*
%TO.C,KTG_B1*%
X124000000Y-61500000D02*
X123000000Y-61500000D01*
X123000000Y-61500000D02*
X123000000Y-62500000D01*
X123000000Y-62500000D02*
X124000000Y-61500000D01*
%TO.C,KTG_A1*%
X105000000Y-61500000D02*
X104000000Y-61500000D01*
X104000000Y-61500000D02*
X104000000Y-62500000D01*
X104000000Y-62500000D02*
X105000000Y-61500000D01*
%TO.C,KSEMICOLON1*%
X174000000Y-27500000D02*
X173000000Y-27500000D01*
X173000000Y-27500000D02*
X173000000Y-28500000D01*
X173000000Y-28500000D02*
X174000000Y-27500000D01*
%TO.C,KPERIOD1*%
X160000000Y-48570000D02*
X159000000Y-49570000D01*
X160000000Y-49570000D02*
X160000000Y-48570000D01*
X159000000Y-49570000D02*
X160000000Y-49570000D01*
%TO.C,KP1*%
X179000000Y-14570000D02*
X178000000Y-15570000D01*
X179000000Y-15570000D02*
X179000000Y-14570000D01*
X178000000Y-15570000D02*
X179000000Y-15570000D01*
%TO.C,KO1*%
X160000000Y-10570000D02*
X159000000Y-11570000D01*
X160000000Y-11570000D02*
X160000000Y-10570000D01*
X159000000Y-11570000D02*
X160000000Y-11570000D01*
%TO.C,KN1*%
X103000000Y-48570000D02*
X102000000Y-49570000D01*
X103000000Y-49570000D02*
X103000000Y-48570000D01*
X102000000Y-49570000D02*
X103000000Y-49570000D01*
%TO.C,KM1*%
X122000000Y-48570000D02*
X121000000Y-49570000D01*
X122000000Y-49570000D02*
X122000000Y-48570000D01*
X121000000Y-49570000D02*
X122000000Y-49570000D01*
%TO.C,KL1*%
X155000000Y-23500000D02*
X154000000Y-23500000D01*
X154000000Y-23500000D02*
X154000000Y-24500000D01*
X154000000Y-24500000D02*
X155000000Y-23500000D01*
%TO.C,KK1*%
X136000000Y-19500000D02*
X135000000Y-19500000D01*
X135000000Y-19500000D02*
X135000000Y-20500000D01*
X135000000Y-20500000D02*
X136000000Y-19500000D01*
%TO.C,KJ1*%
X117000000Y-23500000D02*
X116000000Y-23500000D01*
X116000000Y-23500000D02*
X116000000Y-24500000D01*
X116000000Y-24500000D02*
X117000000Y-23500000D01*
%TO.C,KI1*%
X141000000Y-6570000D02*
X140000000Y-7570000D01*
X141000000Y-7570000D02*
X141000000Y-6570000D01*
X140000000Y-7570000D02*
X141000000Y-7570000D01*
%TO.C,KH1*%
X98000000Y-23500000D02*
X97000000Y-23500000D01*
X97000000Y-23500000D02*
X97000000Y-24500000D01*
X97000000Y-24500000D02*
X98000000Y-23500000D01*
%TO.C,KFSLASH1*%
X179000000Y-52570000D02*
X178000000Y-53570000D01*
X179000000Y-53570000D02*
X179000000Y-52570000D01*
X178000000Y-53570000D02*
X179000000Y-53570000D01*
%TO.C,KENTER1*%
X193000000Y-37000000D02*
X192000000Y-37000000D01*
X192000000Y-37000000D02*
X192000000Y-38000000D01*
X192000000Y-38000000D02*
X193000000Y-37000000D01*
%TO.C,KCOMMA1*%
X141000000Y-44570000D02*
X140000000Y-45570000D01*
X141000000Y-45570000D02*
X141000000Y-44570000D01*
X140000000Y-45570000D02*
X141000000Y-45570000D01*
%TO.C,KBACKSPACE1*%
X198000000Y-24070000D02*
X197000000Y-25070000D01*
X198000000Y-25070000D02*
X198000000Y-24070000D01*
X197000000Y-25070000D02*
X198000000Y-25070000D01*
%TO.C,KT2_1*%
X75479058Y-77403470D02*
X75717592Y-78374604D01*
X75717592Y-78374604D02*
X76688726Y-78136071D01*
X76688726Y-78136071D02*
X75479058Y-77403470D01*
%TO.C,KT2_2*%
X61729576Y-75631900D02*
X62939244Y-76364501D01*
X62700710Y-75393367D02*
X61729576Y-75631900D01*
X62939244Y-76364501D02*
X62700710Y-75393367D01*
%TD*%
M02*
