%TF.GenerationSoftware,KiCad,Pcbnew,(5.1.10)-1*%
%TF.CreationDate,2021-08-19T22:55:08-05:00*%
%TF.ProjectId,RightHand,52696768-7448-4616-9e64-2e6b69636164,rev?*%
%TF.SameCoordinates,Original*%
%TF.FileFunction,Profile,NP*%
%FSLAX46Y46*%
G04 Gerber Fmt 4.6, Leading zero omitted, Abs format (unit mm)*
G04 Created by KiCad (PCBNEW (5.1.10)-1) date 2021-08-19 22:55:08*
%MOMM*%
%LPD*%
G01*
G04 APERTURE LIST*
%TA.AperFunction,Profile*%
%ADD10C,0.050000*%
%TD*%
G04 APERTURE END LIST*
D10*
X184300000Y-38000000D02*
X187700000Y-38000000D01*
X184300000Y-35000000D02*
X184300000Y-38000000D01*
X187700000Y-35000000D02*
X184300000Y-35000000D01*
X187700000Y-38000000D02*
X187700000Y-35000000D01*
X111200000Y-21500000D02*
X107800000Y-21500000D01*
X111200000Y-24500000D02*
X111200000Y-21500000D01*
X107800000Y-24500000D02*
X111200000Y-24500000D01*
X107800000Y-21500000D02*
X107800000Y-24500000D01*
X94300000Y-61000000D02*
X97700000Y-61000000D01*
X94300000Y-64000000D02*
X94300000Y-61000000D01*
X97700000Y-64000000D02*
X94300000Y-64000000D01*
X97700000Y-61000000D02*
X97700000Y-64000000D01*
X160300000Y-96000000D02*
X163700000Y-96000000D01*
X160300000Y-93000000D02*
X160300000Y-96000000D01*
X163700000Y-93000000D02*
X160300000Y-93000000D01*
X163700000Y-96000000D02*
X163700000Y-93000000D01*
X90500000Y-4000000D02*
X90500000Y-52089900D01*
X48619500Y-62376300D02*
X90500000Y-52089900D01*
X48619500Y-62376300D02*
X57683400Y-99279500D01*
X57683400Y-99279500D02*
X97500000Y-89500000D01*
X97500000Y-89500000D02*
X97500000Y-99000000D01*
X97500000Y-99000000D02*
X166500000Y-99000000D01*
X166500000Y-65000000D02*
X166500000Y-99000000D01*
X166500000Y-65000000D02*
X185500000Y-65000000D01*
X185500000Y-55500000D02*
X185500000Y-65000000D01*
X185500000Y-55500000D02*
X204500000Y-55500000D01*
X204500000Y-17500000D02*
X204500000Y-55500000D01*
X185500000Y-17500000D02*
X204500000Y-17500000D01*
X185500000Y-8000000D02*
X185500000Y-17500000D01*
X166500000Y-8000000D02*
X185500000Y-8000000D01*
X166500000Y-4000000D02*
X166500000Y-8000000D01*
X147500000Y-4000000D02*
X166500000Y-4000000D01*
X147500000Y0D02*
X147500000Y-4000000D01*
X128500000Y0D02*
X147500000Y0D01*
X128500000Y0D02*
X128500000Y-4000000D01*
X90500000Y-4000000D02*
X128500000Y-4000000D01*
%TO.C,KY1*%
X97325000Y-10500000D02*
X97325000Y-5500000D01*
X102675000Y-10500000D02*
X97325000Y-10500000D01*
X102675000Y-5500000D02*
X102675000Y-10500000D01*
X97325000Y-5500000D02*
X102675000Y-5500000D01*
%TO.C,KU1*%
X116325000Y-10500000D02*
X116325000Y-5500000D01*
X121675000Y-10500000D02*
X116325000Y-10500000D01*
X121675000Y-5500000D02*
X121675000Y-10500000D01*
X116325000Y-5500000D02*
X121675000Y-5500000D01*
%TO.C,KTG_D1*%
X123325000Y-86500000D02*
X123325000Y-81500000D01*
X128675000Y-86500000D02*
X123325000Y-86500000D01*
X128675000Y-81500000D02*
X128675000Y-86500000D01*
X123325000Y-81500000D02*
X128675000Y-81500000D01*
%TO.C,KTG_C1*%
X104325000Y-86500000D02*
X104325000Y-81500000D01*
X109675000Y-86500000D02*
X104325000Y-86500000D01*
X109675000Y-81500000D02*
X109675000Y-86500000D01*
X104325000Y-81500000D02*
X109675000Y-81500000D01*
%TO.C,KTG_B1*%
X123325000Y-67500000D02*
X123325000Y-62500000D01*
X128675000Y-67500000D02*
X123325000Y-67500000D01*
X128675000Y-62500000D02*
X128675000Y-67500000D01*
X123325000Y-62500000D02*
X128675000Y-62500000D01*
%TO.C,KTG_A1*%
X104325000Y-67500000D02*
X104325000Y-62500000D01*
X109675000Y-67500000D02*
X104325000Y-67500000D01*
X109675000Y-62500000D02*
X109675000Y-67500000D01*
X104325000Y-62500000D02*
X109675000Y-62500000D01*
%TO.C,KSEMICOLON1*%
X173325000Y-33500000D02*
X173325000Y-28500000D01*
X178675000Y-33500000D02*
X173325000Y-33500000D01*
X178675000Y-28500000D02*
X178675000Y-33500000D01*
X173325000Y-28500000D02*
X178675000Y-28500000D01*
%TO.C,KPERIOD1*%
X154325000Y-48500000D02*
X154325000Y-43500000D01*
X159675000Y-48500000D02*
X154325000Y-48500000D01*
X159675000Y-43500000D02*
X159675000Y-48500000D01*
X154325000Y-43500000D02*
X159675000Y-43500000D01*
%TO.C,KP1*%
X173325000Y-14500000D02*
X173325000Y-9500000D01*
X178675000Y-14500000D02*
X173325000Y-14500000D01*
X178675000Y-9500000D02*
X178675000Y-14500000D01*
X173325000Y-9500000D02*
X178675000Y-9500000D01*
%TO.C,KO1*%
X154325000Y-10500000D02*
X154325000Y-5500000D01*
X159675000Y-10500000D02*
X154325000Y-10500000D01*
X159675000Y-5500000D02*
X159675000Y-10500000D01*
X154325000Y-5500000D02*
X159675000Y-5500000D01*
%TO.C,KN1*%
X97325000Y-48500000D02*
X97325000Y-43500000D01*
X102675000Y-48500000D02*
X97325000Y-48500000D01*
X102675000Y-43500000D02*
X102675000Y-48500000D01*
X97325000Y-43500000D02*
X102675000Y-43500000D01*
%TO.C,KM1*%
X116325000Y-48500000D02*
X116325000Y-43500000D01*
X121675000Y-48500000D02*
X116325000Y-48500000D01*
X121675000Y-43500000D02*
X121675000Y-48500000D01*
X116325000Y-43500000D02*
X121675000Y-43500000D01*
%TO.C,KL1*%
X154325000Y-29500000D02*
X154325000Y-24500000D01*
X159675000Y-29500000D02*
X154325000Y-29500000D01*
X159675000Y-24500000D02*
X159675000Y-29500000D01*
X154325000Y-24500000D02*
X159675000Y-24500000D01*
%TO.C,KK1*%
X135325000Y-25500000D02*
X135325000Y-20500000D01*
X140675000Y-25500000D02*
X135325000Y-25500000D01*
X140675000Y-20500000D02*
X140675000Y-25500000D01*
X135325000Y-20500000D02*
X140675000Y-20500000D01*
%TO.C,KJ1*%
X116325000Y-29500000D02*
X116325000Y-24500000D01*
X121675000Y-29500000D02*
X116325000Y-29500000D01*
X121675000Y-24500000D02*
X121675000Y-29500000D01*
X116325000Y-24500000D02*
X121675000Y-24500000D01*
%TO.C,KI1*%
X135325000Y-6500000D02*
X135325000Y-1500000D01*
X140675000Y-6500000D02*
X135325000Y-6500000D01*
X140675000Y-1500000D02*
X140675000Y-6500000D01*
X135325000Y-1500000D02*
X140675000Y-1500000D01*
%TO.C,KH1*%
X97325000Y-29500000D02*
X97325000Y-24500000D01*
X102675000Y-29500000D02*
X97325000Y-29500000D01*
X102675000Y-24500000D02*
X102675000Y-29500000D01*
X97325000Y-24500000D02*
X102675000Y-24500000D01*
%TO.C,KFSLASH1*%
X173325000Y-52500000D02*
X173325000Y-47500000D01*
X178675000Y-52500000D02*
X173325000Y-52500000D01*
X178675000Y-47500000D02*
X178675000Y-52500000D01*
X173325000Y-47500000D02*
X178675000Y-47500000D01*
%TO.C,KENTER1*%
X192325000Y-43000000D02*
X192325000Y-38000000D01*
X197675000Y-43000000D02*
X192325000Y-43000000D01*
X197675000Y-38000000D02*
X197675000Y-43000000D01*
X192325000Y-38000000D02*
X197675000Y-38000000D01*
%TO.C,KCOMMA1*%
X135325000Y-44500000D02*
X135325000Y-39500000D01*
X140675000Y-44500000D02*
X135325000Y-44500000D01*
X140675000Y-39500000D02*
X140675000Y-44500000D01*
X135325000Y-39500000D02*
X140675000Y-39500000D01*
%TO.C,KBACKSPACE1*%
X192325000Y-24000000D02*
X192325000Y-19000000D01*
X197675000Y-24000000D02*
X192325000Y-24000000D01*
X197675000Y-19000000D02*
X197675000Y-24000000D01*
X192325000Y-19000000D02*
X197675000Y-19000000D01*
%TO.C,KT2_1*%
X81466874Y-76627785D02*
X76611203Y-77820452D01*
X80190720Y-71432216D02*
X81466874Y-76627785D01*
X75335049Y-72624883D02*
X80190720Y-71432216D01*
X76611203Y-77820452D02*
X75335049Y-72624883D01*
%TO.C,KT2_2*%
X63015274Y-81159785D02*
X58159603Y-82352452D01*
X61739120Y-75964216D02*
X63015274Y-81159785D01*
X56883449Y-77156883D02*
X61739120Y-75964216D01*
X58159603Y-82352452D02*
X56883449Y-77156883D01*
%TD*%
M02*
