%TF.GenerationSoftware,KiCad,Pcbnew,(5.1.10)-1*%
%TF.CreationDate,2021-08-19T22:55:08-05:00*%
%TF.ProjectId,RightHand,52696768-7448-4616-9e64-2e6b69636164,rev?*%
%TF.SameCoordinates,Original*%
%TF.FileFunction,Copper,L1,Top*%
%TF.FilePolarity,Positive*%
%FSLAX46Y46*%
G04 Gerber Fmt 4.6, Leading zero omitted, Abs format (unit mm)*
G04 Created by KiCad (PCBNEW (5.1.10)-1) date 2021-08-19 22:55:08*
%MOMM*%
%LPD*%
G01*
G04 APERTURE LIST*
%TA.AperFunction,ComponentPad*%
%ADD10C,1.130000*%
%TD*%
%TA.AperFunction,ComponentPad*%
%ADD11R,1.130000X1.130000*%
%TD*%
%TA.AperFunction,ComponentPad*%
%ADD12C,1.500000*%
%TD*%
%TA.AperFunction,ComponentPad*%
%ADD13O,1.000000X2.500000*%
%TD*%
%TA.AperFunction,ComponentPad*%
%ADD14C,4.000000*%
%TD*%
%TA.AperFunction,ComponentPad*%
%ADD15C,1.700000*%
%TD*%
%TA.AperFunction,ComponentPad*%
%ADD16C,2.286000*%
%TD*%
%TA.AperFunction,ComponentPad*%
%ADD17C,1.651000*%
%TD*%
%TA.AperFunction,ComponentPad*%
%ADD18R,1.651000X1.651000*%
%TD*%
%TA.AperFunction,ComponentPad*%
%ADD19C,3.050000*%
%TD*%
%TA.AperFunction,ComponentPad*%
%ADD20C,0.100000*%
%TD*%
%TA.AperFunction,ViaPad*%
%ADD21C,0.800000*%
%TD*%
%TA.AperFunction,Conductor*%
%ADD22C,0.250000*%
%TD*%
G04 APERTURE END LIST*
D10*
%TO.P,UREG1,16*%
%TO.N,VCC*%
X151470000Y-79110000D03*
%TO.P,UREG1,15*%
%TO.N,GND*%
X151470000Y-81650000D03*
%TO.P,UREG1,14*%
%TO.N,VCC*%
X151470000Y-84190000D03*
%TO.P,UREG1,13*%
%TO.N,GND*%
X151470000Y-86730000D03*
%TO.P,UREG1,12*%
X151470000Y-89270000D03*
%TO.P,UREG1,11*%
X151470000Y-91810000D03*
%TO.P,UREG1,10*%
X151470000Y-94350000D03*
%TO.P,UREG1,9*%
%TO.N,RX*%
X151470000Y-96890000D03*
%TO.P,UREG1,8*%
%TO.N,GND*%
X143530000Y-96890000D03*
%TO.P,UREG1,7*%
%TO.N,Net-(UREG1-Pad7)*%
X143530000Y-94350000D03*
%TO.P,UREG1,6*%
%TO.N,C0*%
X143530000Y-91810000D03*
%TO.P,UREG1,5*%
%TO.N,C1*%
X143530000Y-89270000D03*
%TO.P,UREG1,4*%
%TO.N,C2*%
X143530000Y-86730000D03*
%TO.P,UREG1,3*%
%TO.N,C3*%
X143530000Y-84190000D03*
%TO.P,UREG1,2*%
%TO.N,CLK_C*%
X143530000Y-81650000D03*
D11*
%TO.P,UREG1,1*%
%TO.N,SH_LD*%
X143530000Y-79110000D03*
%TD*%
D10*
%TO.P,UDEMUX1,16*%
%TO.N,VCC*%
X141610000Y-65530000D03*
%TO.P,UDEMUX1,15*%
%TO.N,R0*%
X144150000Y-65530000D03*
%TO.P,UDEMUX1,14*%
%TO.N,R1*%
X146690000Y-65530000D03*
%TO.P,UDEMUX1,13*%
%TO.N,R2*%
X149230000Y-65530000D03*
%TO.P,UDEMUX1,12*%
%TO.N,R3*%
X151770000Y-65530000D03*
%TO.P,UDEMUX1,11*%
%TO.N,R4*%
X154310000Y-65530000D03*
%TO.P,UDEMUX1,10*%
%TO.N,R5*%
X156850000Y-65530000D03*
%TO.P,UDEMUX1,9*%
%TO.N,R6*%
X159390000Y-65530000D03*
%TO.P,UDEMUX1,8*%
%TO.N,GND*%
X159390000Y-73470000D03*
%TO.P,UDEMUX1,7*%
%TO.N,R7*%
X156850000Y-73470000D03*
%TO.P,UDEMUX1,6*%
%TO.N,VCC*%
X154310000Y-73470000D03*
%TO.P,UDEMUX1,5*%
%TO.N,GND*%
X151770000Y-73470000D03*
%TO.P,UDEMUX1,4*%
X149230000Y-73470000D03*
%TO.P,UDEMUX1,3*%
%TO.N,S2*%
X146690000Y-73470000D03*
%TO.P,UDEMUX1,2*%
%TO.N,S1*%
X144150000Y-73470000D03*
D11*
%TO.P,UDEMUX1,1*%
%TO.N,S0_DL*%
X141610000Y-73470000D03*
%TD*%
D12*
%TO.P,UD9,7*%
%TO.N,S1*%
X155500000Y-82000000D03*
%TO.P,UD9,4*%
%TO.N,S2*%
X155500000Y-84000000D03*
%TO.P,UD9,5*%
%TO.N,SH_LD*%
X155500000Y-86000000D03*
%TO.P,UD9,8*%
%TO.N,CLK_C*%
X155500000Y-88000000D03*
%TO.P,UD9,9*%
%TO.N,CLK_L*%
X155500000Y-90000000D03*
%TO.P,UD9,6*%
%TO.N,GND*%
X158300000Y-90000000D03*
%TO.P,UD9,3*%
%TO.N,VCC*%
X158300000Y-82000000D03*
%TO.P,UD9,1*%
%TO.N,S0_DL*%
X158300000Y-84500000D03*
%TO.P,UD9,2*%
%TO.N,RX*%
X158300000Y-86500000D03*
D13*
%TO.P,UD9,HOLE*%
%TO.N,N/C*%
X161650000Y-86000000D03*
%TD*%
D10*
%TO.P,R3,2*%
%TO.N,VCC*%
X137500000Y-78500000D03*
%TO.P,R3,1*%
%TO.N,C3*%
X137500000Y-86500000D03*
%TD*%
%TO.P,R2,2*%
%TO.N,VCC*%
X140000000Y-78500000D03*
%TO.P,R2,1*%
%TO.N,C2*%
X140000000Y-86500000D03*
%TD*%
%TO.P,R1,2*%
%TO.N,VCC*%
X140000000Y-97000000D03*
%TO.P,R1,1*%
%TO.N,C1*%
X140000000Y-89000000D03*
%TD*%
%TO.P,R0,2*%
%TO.N,C0*%
X137500000Y-89000000D03*
%TO.P,R0,1*%
%TO.N,VCC*%
X137500000Y-97000000D03*
%TD*%
D14*
%TO.P,KY1,HOLE*%
%TO.N,N/C*%
X100000000Y-13500000D03*
D15*
%TO.P,KY1,POST*%
X95000000Y-13500000D03*
X105000000Y-13500000D03*
D16*
%TO.P,KY1,1*%
%TO.N,C0*%
X103810000Y-16040000D03*
%TO.P,KY1,2*%
%TO.N,Net-(KY1-Pad2)*%
X97460000Y-18580000D03*
D17*
%TO.P,KY1,3*%
X97460000Y-21500000D03*
D18*
%TO.P,KY1,4*%
%TO.N,R2*%
X104460000Y-21500000D03*
%TD*%
D14*
%TO.P,KU1,HOLE*%
%TO.N,N/C*%
X119000000Y-13500000D03*
D15*
%TO.P,KU1,POST*%
X114000000Y-13500000D03*
X124000000Y-13500000D03*
D16*
%TO.P,KU1,1*%
%TO.N,C0*%
X122810000Y-16040000D03*
%TO.P,KU1,2*%
%TO.N,Net-(KU1-Pad2)*%
X116460000Y-18580000D03*
D17*
%TO.P,KU1,3*%
X116460000Y-21500000D03*
D18*
%TO.P,KU1,4*%
%TO.N,R3*%
X123460000Y-21500000D03*
%TD*%
D14*
%TO.P,KTG_D1,HOLE*%
%TO.N,N/C*%
X126000000Y-89500000D03*
D15*
%TO.P,KTG_D1,POST*%
X121000000Y-89500000D03*
X131000000Y-89500000D03*
D16*
%TO.P,KTG_D1,1*%
%TO.N,C3*%
X129810000Y-92040000D03*
%TO.P,KTG_D1,2*%
%TO.N,Net-(KTG_D1-Pad2)*%
X123460000Y-94580000D03*
D17*
%TO.P,KTG_D1,3*%
X123460000Y-97500000D03*
D18*
%TO.P,KTG_D1,4*%
%TO.N,R0*%
X130460000Y-97500000D03*
%TD*%
D14*
%TO.P,KTG_C1,HOLE*%
%TO.N,N/C*%
X107000000Y-89500000D03*
D15*
%TO.P,KTG_C1,POST*%
X102000000Y-89500000D03*
X112000000Y-89500000D03*
D16*
%TO.P,KTG_C1,1*%
%TO.N,C3*%
X110810000Y-92040000D03*
%TO.P,KTG_C1,2*%
%TO.N,Net-(KTG_C1-Pad2)*%
X104460000Y-94580000D03*
D17*
%TO.P,KTG_C1,3*%
X104460000Y-97500000D03*
D18*
%TO.P,KTG_C1,4*%
%TO.N,R1*%
X111460000Y-97500000D03*
%TD*%
D14*
%TO.P,KTG_B1,HOLE*%
%TO.N,N/C*%
X126000000Y-70500000D03*
D15*
%TO.P,KTG_B1,POST*%
X121000000Y-70500000D03*
X131000000Y-70500000D03*
D16*
%TO.P,KTG_B1,1*%
%TO.N,C3*%
X129810000Y-73040000D03*
%TO.P,KTG_B1,2*%
%TO.N,Net-(KTG_B1-Pad2)*%
X123460000Y-75580000D03*
D17*
%TO.P,KTG_B1,3*%
X123460000Y-78500000D03*
D18*
%TO.P,KTG_B1,4*%
%TO.N,R3*%
X130460000Y-78500000D03*
%TD*%
D14*
%TO.P,KTG_A1,HOLE*%
%TO.N,N/C*%
X107000000Y-70500000D03*
D15*
%TO.P,KTG_A1,POST*%
X102000000Y-70500000D03*
X112000000Y-70500000D03*
D16*
%TO.P,KTG_A1,1*%
%TO.N,C3*%
X110810000Y-73040000D03*
%TO.P,KTG_A1,2*%
%TO.N,Net-(KTG_A1-Pad2)*%
X104460000Y-75580000D03*
D17*
%TO.P,KTG_A1,3*%
X104460000Y-78500000D03*
D18*
%TO.P,KTG_A1,4*%
%TO.N,R2*%
X111460000Y-78500000D03*
%TD*%
D14*
%TO.P,KSEMICOLON1,HOLE*%
%TO.N,N/C*%
X176000000Y-36500000D03*
D15*
%TO.P,KSEMICOLON1,POST*%
X171000000Y-36500000D03*
X181000000Y-36500000D03*
D16*
%TO.P,KSEMICOLON1,1*%
%TO.N,C1*%
X179810000Y-39040000D03*
%TO.P,KSEMICOLON1,2*%
%TO.N,Net-(KSEMICOLON1-Pad2)*%
X173460000Y-41580000D03*
D17*
%TO.P,KSEMICOLON1,3*%
X173460000Y-44500000D03*
D18*
%TO.P,KSEMICOLON1,4*%
%TO.N,R6*%
X180460000Y-44500000D03*
%TD*%
D14*
%TO.P,KPERIOD1,HOLE*%
%TO.N,N/C*%
X157000000Y-51500000D03*
D15*
%TO.P,KPERIOD1,POST*%
X152000000Y-51500000D03*
X162000000Y-51500000D03*
D16*
%TO.P,KPERIOD1,1*%
%TO.N,C2*%
X160810000Y-54040000D03*
%TO.P,KPERIOD1,2*%
%TO.N,Net-(KPERIOD1-Pad2)*%
X154460000Y-56580000D03*
D17*
%TO.P,KPERIOD1,3*%
X154460000Y-59500000D03*
D18*
%TO.P,KPERIOD1,4*%
%TO.N,R5*%
X161460000Y-59500000D03*
%TD*%
D14*
%TO.P,KP1,HOLE*%
%TO.N,N/C*%
X176000000Y-17500000D03*
D15*
%TO.P,KP1,POST*%
X171000000Y-17500000D03*
X181000000Y-17500000D03*
D16*
%TO.P,KP1,1*%
%TO.N,C0*%
X179810000Y-20040000D03*
%TO.P,KP1,2*%
%TO.N,Net-(KP1-Pad2)*%
X173460000Y-22580000D03*
D17*
%TO.P,KP1,3*%
X173460000Y-25500000D03*
D18*
%TO.P,KP1,4*%
%TO.N,R6*%
X180460000Y-25500000D03*
%TD*%
D14*
%TO.P,KO1,HOLE*%
%TO.N,N/C*%
X157000000Y-13500000D03*
D15*
%TO.P,KO1,POST*%
X152000000Y-13500000D03*
X162000000Y-13500000D03*
D16*
%TO.P,KO1,1*%
%TO.N,C0*%
X160810000Y-16040000D03*
%TO.P,KO1,2*%
%TO.N,Net-(KO1-Pad2)*%
X154460000Y-18580000D03*
D17*
%TO.P,KO1,3*%
X154460000Y-21500000D03*
D18*
%TO.P,KO1,4*%
%TO.N,R5*%
X161460000Y-21500000D03*
%TD*%
D14*
%TO.P,KN1,HOLE*%
%TO.N,N/C*%
X100000000Y-51500000D03*
D15*
%TO.P,KN1,POST*%
X95000000Y-51500000D03*
X105000000Y-51500000D03*
D16*
%TO.P,KN1,1*%
%TO.N,C2*%
X103810000Y-54040000D03*
%TO.P,KN1,2*%
%TO.N,Net-(KN1-Pad2)*%
X97460000Y-56580000D03*
D17*
%TO.P,KN1,3*%
X97460000Y-59500000D03*
D18*
%TO.P,KN1,4*%
%TO.N,R2*%
X104460000Y-59500000D03*
%TD*%
D14*
%TO.P,KM1,HOLE*%
%TO.N,N/C*%
X119000000Y-51500000D03*
D15*
%TO.P,KM1,POST*%
X114000000Y-51500000D03*
X124000000Y-51500000D03*
D16*
%TO.P,KM1,1*%
%TO.N,C2*%
X122810000Y-54040000D03*
%TO.P,KM1,2*%
%TO.N,Net-(KM1-Pad2)*%
X116460000Y-56580000D03*
D17*
%TO.P,KM1,3*%
X116460000Y-59500000D03*
D18*
%TO.P,KM1,4*%
%TO.N,R3*%
X123460000Y-59500000D03*
%TD*%
D14*
%TO.P,KL1,HOLE*%
%TO.N,N/C*%
X157000000Y-32500000D03*
D15*
%TO.P,KL1,POST*%
X152000000Y-32500000D03*
X162000000Y-32500000D03*
D16*
%TO.P,KL1,1*%
%TO.N,C1*%
X160810000Y-35040000D03*
%TO.P,KL1,2*%
%TO.N,Net-(KL1-Pad2)*%
X154460000Y-37580000D03*
D17*
%TO.P,KL1,3*%
X154460000Y-40500000D03*
D18*
%TO.P,KL1,4*%
%TO.N,R5*%
X161460000Y-40500000D03*
%TD*%
D14*
%TO.P,KK1,HOLE*%
%TO.N,N/C*%
X138000000Y-28500000D03*
D15*
%TO.P,KK1,POST*%
X133000000Y-28500000D03*
X143000000Y-28500000D03*
D16*
%TO.P,KK1,1*%
%TO.N,C1*%
X141810000Y-31040000D03*
%TO.P,KK1,2*%
%TO.N,Net-(KK1-Pad2)*%
X135460000Y-33580000D03*
D17*
%TO.P,KK1,3*%
X135460000Y-36500000D03*
D18*
%TO.P,KK1,4*%
%TO.N,R4*%
X142460000Y-36500000D03*
%TD*%
D14*
%TO.P,KJ1,HOLE*%
%TO.N,N/C*%
X119000000Y-32500000D03*
D15*
%TO.P,KJ1,POST*%
X114000000Y-32500000D03*
X124000000Y-32500000D03*
D16*
%TO.P,KJ1,1*%
%TO.N,C1*%
X122810000Y-35040000D03*
%TO.P,KJ1,2*%
%TO.N,Net-(KJ1-Pad2)*%
X116460000Y-37580000D03*
D17*
%TO.P,KJ1,3*%
X116460000Y-40500000D03*
D18*
%TO.P,KJ1,4*%
%TO.N,R3*%
X123460000Y-40500000D03*
%TD*%
D14*
%TO.P,KI1,HOLE*%
%TO.N,N/C*%
X138000000Y-9500000D03*
D15*
%TO.P,KI1,POST*%
X133000000Y-9500000D03*
X143000000Y-9500000D03*
D16*
%TO.P,KI1,1*%
%TO.N,C0*%
X141810000Y-12040000D03*
%TO.P,KI1,2*%
%TO.N,Net-(KI1-Pad2)*%
X135460000Y-14580000D03*
D17*
%TO.P,KI1,3*%
X135460000Y-17500000D03*
D18*
%TO.P,KI1,4*%
%TO.N,R4*%
X142460000Y-17500000D03*
%TD*%
D14*
%TO.P,KH1,HOLE*%
%TO.N,N/C*%
X100000000Y-32500000D03*
D15*
%TO.P,KH1,POST*%
X95000000Y-32500000D03*
X105000000Y-32500000D03*
D16*
%TO.P,KH1,1*%
%TO.N,C1*%
X103810000Y-35040000D03*
%TO.P,KH1,2*%
%TO.N,Net-(KH1-Pad2)*%
X97460000Y-37580000D03*
D17*
%TO.P,KH1,3*%
X97460000Y-40500000D03*
D18*
%TO.P,KH1,4*%
%TO.N,R2*%
X104460000Y-40500000D03*
%TD*%
D14*
%TO.P,KFSLASH1,HOLE*%
%TO.N,N/C*%
X176000000Y-55500000D03*
D15*
%TO.P,KFSLASH1,POST*%
X171000000Y-55500000D03*
X181000000Y-55500000D03*
D16*
%TO.P,KFSLASH1,1*%
%TO.N,C2*%
X179810000Y-58040000D03*
%TO.P,KFSLASH1,2*%
%TO.N,Net-(KFSLASH1-Pad2)*%
X173460000Y-60580000D03*
D17*
%TO.P,KFSLASH1,3*%
X173460000Y-63500000D03*
D18*
%TO.P,KFSLASH1,4*%
%TO.N,R6*%
X180460000Y-63500000D03*
%TD*%
D14*
%TO.P,KENTER1,HOLE*%
%TO.N,N/C*%
X195000000Y-46000000D03*
D15*
%TO.P,KENTER1,POST*%
X190000000Y-46000000D03*
X200000000Y-46000000D03*
D16*
%TO.P,KENTER1,1*%
%TO.N,C1*%
X198810000Y-48540000D03*
%TO.P,KENTER1,2*%
%TO.N,Net-(KENTER1-Pad2)*%
X192460000Y-51080000D03*
D17*
%TO.P,KENTER1,3*%
X192460000Y-54000000D03*
D18*
%TO.P,KENTER1,4*%
%TO.N,R7*%
X199460000Y-54000000D03*
%TD*%
D14*
%TO.P,KCOMMA1,HOLE*%
%TO.N,N/C*%
X138000000Y-47500000D03*
D15*
%TO.P,KCOMMA1,POST*%
X133000000Y-47500000D03*
X143000000Y-47500000D03*
D16*
%TO.P,KCOMMA1,1*%
%TO.N,C2*%
X141810000Y-50040000D03*
%TO.P,KCOMMA1,2*%
%TO.N,Net-(KCOMMA1-Pad2)*%
X135460000Y-52580000D03*
D17*
%TO.P,KCOMMA1,3*%
X135460000Y-55500000D03*
D18*
%TO.P,KCOMMA1,4*%
%TO.N,R4*%
X142460000Y-55500000D03*
%TD*%
D14*
%TO.P,KBACKSPACE1,HOLE*%
%TO.N,N/C*%
X195000000Y-27000000D03*
D15*
%TO.P,KBACKSPACE1,POST*%
X190000000Y-27000000D03*
X200000000Y-27000000D03*
D16*
%TO.P,KBACKSPACE1,1*%
%TO.N,C0*%
X198810000Y-29540000D03*
%TO.P,KBACKSPACE1,2*%
%TO.N,Net-(KBACKSPACE1-Pad2)*%
X192460000Y-32080000D03*
D17*
%TO.P,KBACKSPACE1,3*%
X192460000Y-35000000D03*
D18*
%TO.P,KBACKSPACE1,4*%
%TO.N,R7*%
X199460000Y-35000000D03*
%TD*%
D14*
%TO.P,KT2_1,HOLE*%
%TO.N,N/C*%
X88896257Y-59753541D03*
X94592436Y-82944228D03*
D19*
X79792350Y-86579478D03*
X74096171Y-63388791D03*
D14*
X83742200Y-73314400D03*
D15*
%TO.P,KT2_1,POST*%
X84934867Y-78170071D03*
X82549533Y-68458729D03*
D16*
%TO.P,KT2_1,1*%
%TO.N,C2*%
X85300069Y-69008503D03*
%TO.P,KT2_1,2*%
%TO.N,Net-(KT2_1-Pad2)*%
X89281437Y-74569331D03*
D17*
%TO.P,KT2_1,3*%
X92730631Y-88611933D03*
%TA.AperFunction,ComponentPad*%
D20*
%TO.P,KT2_1,4*%
%TO.N,R1*%
G36*
X86853581Y-90905512D02*
G01*
X85250238Y-91299331D01*
X84856419Y-89695988D01*
X86459762Y-89302169D01*
X86853581Y-90905512D01*
G37*
%TD.AperFunction*%
%TD*%
D19*
%TO.P,KT2_2,HOLE*%
%TO.N,N/C*%
X74936629Y-87772009D03*
X69240450Y-64581322D03*
D14*
X60136543Y-91407259D03*
X54440364Y-68216572D03*
X65290600Y-77846400D03*
D15*
%TO.P,KT2_2,POST*%
X66483267Y-82702071D03*
X64097933Y-72990729D03*
D16*
%TO.P,KT2_2,1*%
%TO.N,C2*%
X66848469Y-73540503D03*
%TO.P,KT2_2,2*%
%TO.N,Net-(KT2_2-Pad2)*%
X70829837Y-79101331D03*
D17*
%TO.P,KT2_2,3*%
X73665549Y-78404813D03*
%TA.AperFunction,ComponentPad*%
D20*
%TO.P,KT2_2,4*%
%TO.N,R0*%
G36*
X72994396Y-72211635D02*
G01*
X71391053Y-72605454D01*
X70997234Y-71002111D01*
X72600577Y-70608292D01*
X72994396Y-72211635D01*
G37*
%TD.AperFunction*%
%TD*%
D21*
%TO.N,C0*%
X91500000Y-16500000D03*
%TO.N,R7*%
X183000000Y-53500000D03*
X164000000Y-53000000D03*
%TO.N,VCC*%
X184500000Y-9000000D03*
X188000000Y-18500000D03*
X80500000Y-67000000D03*
X82000000Y-70500000D03*
X118500000Y-71000000D03*
X117500000Y-83000000D03*
X103000000Y-30500000D03*
X102500000Y-42000000D03*
X95000000Y-6500000D03*
X115500000Y-66000000D03*
X109500000Y-44500000D03*
%TO.N,GND*%
X201000000Y-20000000D03*
X181500000Y-11000000D03*
X162000000Y-6500000D03*
X143500000Y-3000000D03*
X124500000Y-6500000D03*
X107000000Y-6500000D03*
X150500000Y-28500000D03*
X147000000Y-40500000D03*
X162000000Y-44500000D03*
X167000000Y-44500000D03*
X169000000Y-31500000D03*
X179000000Y-46500000D03*
X187000000Y-48500000D03*
X188000000Y-42000000D03*
X148500000Y-58500000D03*
X127500000Y-58000000D03*
X127500000Y-44500000D03*
X120500000Y-61500000D03*
X120500000Y-66500000D03*
X120500000Y-42500000D03*
X111000000Y-28500000D03*
X107000000Y-44500000D03*
X107000000Y-37000000D03*
X127500000Y-28000000D03*
X131500000Y-82500000D03*
X114500000Y-82500000D03*
X115500000Y-76000000D03*
X121000000Y-74500000D03*
X111000000Y-76000000D03*
X100000000Y-66500000D03*
X90000000Y-66500000D03*
X87500000Y-72500000D03*
X60500000Y-71500000D03*
%TO.N,CLK_L*%
X165000000Y-15500000D03*
%TO.N,S0_DL*%
X153000000Y-77000000D03*
X201000000Y-23000000D03*
X201500000Y-31500000D03*
X165725000Y-24000000D03*
%TO.N,C2*%
X135000000Y-81000000D03*
%TO.N,C1*%
X133000000Y-89000000D03*
X116549154Y-86449999D03*
X108460000Y-35040000D03*
%TO.N,Net-(KENTER1-Pad6)*%
X201500000Y-50000000D03*
X201500000Y-40500000D03*
%TO.N,Net-(KENTER1-Pad7)*%
X202500000Y-52500000D03*
X202500000Y-39000000D03*
%TO.N,Net-(KH1-Pad10)*%
X93500000Y-9500000D03*
X93500000Y-25500000D03*
%TO.N,Net-(KH1-Pad9)*%
X92500000Y-8000000D03*
X92500000Y-27000000D03*
%TO.N,R2*%
X135000000Y-79500000D03*
X135000000Y-66500000D03*
%TO.N,R3*%
X132275000Y-68500000D03*
%TO.N,Net-(KN1-Pad7)*%
X102000000Y-63500000D03*
X96500000Y-53000000D03*
%TO.N,Net-(KN1-Pad6)*%
X95500000Y-49000000D03*
X94000000Y-65000000D03*
%TO.N,Net-(KT2_1-Pad6)*%
X74000000Y-71000000D03*
X74000000Y-68500000D03*
%TO.N,R1*%
X147500000Y-93000000D03*
X130000000Y-94500000D03*
%TO.N,R0*%
X84000000Y-86000000D03*
X115000000Y-87000000D03*
X115000000Y-93000000D03*
X145000000Y-95500000D03*
%TO.N,Net-(KTG_B1-Pad7)*%
X134000000Y-63500000D03*
X134000000Y-85500000D03*
%TO.N,Net-(KTG_B1-Pad6)*%
X133000000Y-65000000D03*
X133000000Y-84500000D03*
%TO.N,S2*%
X147000000Y-81000000D03*
%TO.N,S1*%
X145000000Y-79500000D03*
%TD*%
D22*
%TO.N,C0*%
X108723503Y-79650501D02*
X100150501Y-79650501D01*
X116248001Y-87174999D02*
X108723503Y-79650501D01*
X135674999Y-87174999D02*
X116248001Y-87174999D01*
X137500000Y-89000000D02*
X135674999Y-87174999D01*
X91500000Y-71000000D02*
X91500000Y-16500000D01*
X100150501Y-79650501D02*
X91500000Y-71000000D01*
%TO.N,Net-(KBACKSPACE1-Pad2)*%
X192460000Y-32080000D02*
X192460000Y-35000000D01*
%TO.N,R7*%
X197341999Y-51881999D02*
X199460000Y-54000000D01*
X198105359Y-47071999D02*
X197341999Y-47835359D01*
X198105359Y-36354641D02*
X198105359Y-47071999D01*
X199460000Y-35000000D02*
X198105359Y-36354641D01*
X187005012Y-53500000D02*
X183000000Y-53500000D01*
X191663013Y-48841999D02*
X187005012Y-53500000D01*
X197341999Y-48841999D02*
X191663013Y-48841999D01*
X197341999Y-47835359D02*
X197341999Y-48841999D01*
X197341999Y-48841999D02*
X197341999Y-51881999D01*
X164000000Y-66320000D02*
X156850000Y-73470000D01*
X164000000Y-53000000D02*
X164000000Y-66320000D01*
%TO.N,VCC*%
X140890001Y-79390001D02*
X140000000Y-78500000D01*
X140890001Y-96109999D02*
X140890001Y-79390001D01*
X140000000Y-97000000D02*
X140890001Y-96109999D01*
X140000000Y-67140000D02*
X141610000Y-65530000D01*
X140000000Y-78500000D02*
X140000000Y-67140000D01*
X186005012Y-18500000D02*
X188000000Y-18500000D01*
X184500000Y-16994988D02*
X186005012Y-18500000D01*
X184500000Y-9000000D02*
X184500000Y-16994988D01*
X80500000Y-69000000D02*
X82000000Y-70500000D01*
X80500000Y-67000000D02*
X80500000Y-69000000D01*
X117500000Y-72000000D02*
X117500000Y-83000000D01*
X118500000Y-71000000D02*
X117500000Y-72000000D01*
X102341999Y-41841999D02*
X102500000Y-42000000D01*
X102341999Y-31158001D02*
X102341999Y-41841999D01*
X103000000Y-30500000D02*
X102341999Y-31158001D01*
X109500000Y-60000000D02*
X109500000Y-44500000D01*
X115500000Y-66000000D02*
X109500000Y-60000000D01*
X103000000Y-21947358D02*
X103000000Y-30500000D01*
X96175001Y-15122359D02*
X103000000Y-21947358D01*
X96175001Y-7675001D02*
X96175001Y-15122359D01*
X95000000Y-6500000D02*
X96175001Y-7675001D01*
%TO.N,GND*%
X151470000Y-86730000D02*
X151470000Y-89270000D01*
X151470000Y-89270000D02*
X151470000Y-91810000D01*
X151470000Y-91810000D02*
X151470000Y-94350000D01*
X151470000Y-81650000D02*
X149820000Y-80000000D01*
X149820000Y-74060000D02*
X149230000Y-73470000D01*
X149820000Y-80000000D02*
X149820000Y-74060000D01*
X181500000Y-14631398D02*
X181500000Y-11000000D01*
X186093603Y-19225001D02*
X181500000Y-14631398D01*
X188348001Y-19225001D02*
X186093603Y-19225001D01*
X189722992Y-17850010D02*
X188348001Y-19225001D01*
X198850010Y-17850010D02*
X189722992Y-17850010D01*
X201000000Y-20000000D02*
X198850010Y-17850010D01*
X181281388Y-14850010D02*
X170350010Y-14850010D01*
X181500000Y-14631398D02*
X181281388Y-14850010D01*
X166674999Y-11174999D02*
X151674999Y-11174999D01*
X167000000Y-11500000D02*
X166674999Y-11174999D01*
X170350010Y-14850010D02*
X167000000Y-11500000D01*
X167000000Y-11500000D02*
X162000000Y-6500000D01*
X125174999Y-7174999D02*
X124500000Y-6500000D01*
X148500000Y-8000000D02*
X147674999Y-7174999D01*
X148500000Y-8000000D02*
X143500000Y-3000000D01*
X108350010Y-5149990D02*
X107000000Y-6500000D01*
X125299992Y-5149990D02*
X108350010Y-5149990D01*
X127325001Y-7174999D02*
X125299992Y-5149990D01*
X147674999Y-7174999D02*
X127325001Y-7174999D01*
X127325001Y-7174999D02*
X125174999Y-7174999D01*
X150500000Y-10000000D02*
X150500000Y-28500000D01*
X151674999Y-11174999D02*
X150500000Y-10000000D01*
X150500000Y-10000000D02*
X148500000Y-8000000D01*
X150500000Y-37000000D02*
X147000000Y-40500000D01*
X150500000Y-28500000D02*
X150500000Y-37000000D01*
X155200001Y-67499999D02*
X149230000Y-73470000D01*
X155200001Y-65102799D02*
X155200001Y-67499999D01*
X147000000Y-56902798D02*
X155200001Y-65102799D01*
X147000000Y-40500000D02*
X147000000Y-56902798D01*
X155928001Y-38428001D02*
X162000000Y-44500000D01*
X155928001Y-36875359D02*
X155928001Y-38428001D01*
X155164641Y-36111999D02*
X155928001Y-36875359D01*
X151388001Y-36111999D02*
X155164641Y-36111999D01*
X150500000Y-37000000D02*
X151388001Y-36111999D01*
X167000000Y-33500000D02*
X169000000Y-31500000D01*
X167000000Y-44500000D02*
X167000000Y-33500000D01*
X169000000Y-46500000D02*
X179000000Y-46500000D01*
X167000000Y-44500000D02*
X169000000Y-46500000D01*
X188000000Y-47500000D02*
X188000000Y-42000000D01*
X187000000Y-48500000D02*
X188000000Y-47500000D01*
X147000000Y-57000000D02*
X148500000Y-58500000D01*
X147000000Y-56902798D02*
X147000000Y-57000000D01*
X127500000Y-58000000D02*
X127500000Y-44500000D01*
X120500000Y-61500000D02*
X120500000Y-66500000D01*
X111739002Y-28500000D02*
X111000000Y-28500000D01*
X115175001Y-32675001D02*
X115175001Y-31935999D01*
X120500000Y-38000000D02*
X115175001Y-32675001D01*
X115175001Y-31935999D02*
X111739002Y-28500000D01*
X120500000Y-42500000D02*
X120500000Y-38000000D01*
X111000000Y-28500000D02*
X107000000Y-32500000D01*
X107000000Y-37000000D02*
X107000000Y-44500000D01*
X107000000Y-32500000D02*
X107000000Y-37000000D01*
X127500000Y-28000000D02*
X127500000Y-44500000D01*
X124928001Y-75928001D02*
X131500000Y-82500000D01*
X124928001Y-74875359D02*
X124928001Y-75928001D01*
X123111999Y-73059357D02*
X124928001Y-74875359D01*
X123111999Y-69111999D02*
X123111999Y-73059357D01*
X120500000Y-66500000D02*
X123111999Y-69111999D01*
X115500000Y-81500000D02*
X115500000Y-76000000D01*
X114500000Y-82500000D02*
X115500000Y-81500000D01*
X122440643Y-73059357D02*
X123111999Y-73059357D01*
X121000000Y-74500000D02*
X122440643Y-73059357D01*
X107000000Y-76000000D02*
X104000000Y-73000000D01*
X111000000Y-76000000D02*
X107000000Y-76000000D01*
X104000000Y-73000000D02*
X102760998Y-73000000D01*
X102760998Y-73000000D02*
X98500000Y-73000000D01*
X98500000Y-68000000D02*
X100000000Y-66500000D01*
X98500000Y-73000000D02*
X98500000Y-68000000D01*
X90000000Y-70000000D02*
X87500000Y-72500000D01*
X90000000Y-66500000D02*
X90000000Y-70000000D01*
X65500000Y-66500000D02*
X60500000Y-71500000D01*
X80326997Y-66100001D02*
X79926998Y-66500000D01*
X79926998Y-66500000D02*
X65500000Y-66500000D01*
X89600001Y-66100001D02*
X80326997Y-66100001D01*
X90000000Y-66500000D02*
X89600001Y-66100001D01*
X150579999Y-85839999D02*
X151470000Y-86730000D01*
X150579999Y-82540001D02*
X150579999Y-85839999D01*
X151470000Y-81650000D02*
X150579999Y-82540001D01*
%TO.N,CLK_L*%
X152651999Y-76274999D02*
X158088591Y-76274999D01*
X165000000Y-69363590D02*
X165000000Y-15500000D01*
X152274999Y-76651999D02*
X152651999Y-76274999D01*
X158088591Y-76274999D02*
X165000000Y-69363590D01*
X152274999Y-77348001D02*
X152274999Y-76651999D01*
X152651999Y-77725001D02*
X152274999Y-77348001D01*
X152651999Y-87151999D02*
X152651999Y-77725001D01*
X155500000Y-90000000D02*
X152651999Y-87151999D01*
%TO.N,S0_DL*%
X157224999Y-83424999D02*
X158300000Y-84500000D01*
X157224999Y-81224999D02*
X157224999Y-83424999D01*
X153000000Y-77000000D02*
X157224999Y-81224999D01*
X201500000Y-23500000D02*
X201500000Y-31500000D01*
X201000000Y-23000000D02*
X201500000Y-23500000D01*
X165725000Y-77075000D02*
X158300000Y-84500000D01*
X165725000Y-24000000D02*
X165725000Y-77075000D01*
%TO.N,R4*%
X142460000Y-17500000D02*
X142500000Y-17500000D01*
X144175001Y-34784999D02*
X142460000Y-36500000D01*
X144175001Y-19175001D02*
X144175001Y-34784999D01*
X142500000Y-17500000D02*
X144175001Y-19175001D01*
X142460000Y-36500000D02*
X142500000Y-36500000D01*
X144175001Y-53784999D02*
X142460000Y-55500000D01*
X144175001Y-38175001D02*
X144175001Y-53784999D01*
X142500000Y-36500000D02*
X144175001Y-38175001D01*
X144280000Y-55500000D02*
X142460000Y-55500000D01*
X154310000Y-65530000D02*
X144280000Y-55500000D01*
%TO.N,Net-(KCOMMA1-Pad2)*%
X135460000Y-52580000D02*
X135460000Y-55500000D01*
%TO.N,C2*%
X140000000Y-86000000D02*
X140000000Y-86500000D01*
X135000000Y-81000000D02*
X140000000Y-86000000D01*
%TO.N,C1*%
X133890001Y-89890001D02*
X133000000Y-89000000D01*
X139109999Y-89890001D02*
X133890001Y-89890001D01*
X140000000Y-89000000D02*
X139109999Y-89890001D01*
X116549154Y-86449999D02*
X116549154Y-68417756D01*
X114774999Y-66354999D02*
X108460000Y-60040000D01*
X114774999Y-66643601D02*
X114774999Y-66354999D01*
X108460000Y-60040000D02*
X108460000Y-35040000D01*
X116549154Y-68417756D02*
X114774999Y-66643601D01*
%TO.N,Net-(KENTER1-Pad2)*%
X192460000Y-51080000D02*
X192460000Y-54000000D01*
%TO.N,Net-(KENTER1-Pad6)*%
X201500000Y-50000000D02*
X201500000Y-40500000D01*
%TO.N,Net-(KENTER1-Pad7)*%
X202500000Y-52500000D02*
X202500000Y-39000000D01*
%TO.N,R6*%
X182175001Y-42784999D02*
X180460000Y-44500000D01*
X182175001Y-27215001D02*
X182175001Y-42784999D01*
X180460000Y-25500000D02*
X182175001Y-27215001D01*
X180460000Y-44500000D02*
X180500000Y-44500000D01*
X182175001Y-61784999D02*
X180460000Y-63500000D01*
X182175001Y-46175001D02*
X182175001Y-61784999D01*
X180500000Y-44500000D02*
X182175001Y-46175001D01*
%TO.N,Net-(KFSLASH1-Pad2)*%
X173460000Y-60580000D02*
X173460000Y-63500000D01*
%TO.N,Net-(KH1-Pad10)*%
X93500000Y-9500000D02*
X93500000Y-25500000D01*
%TO.N,Net-(KH1-Pad9)*%
X92500000Y-8000000D02*
X92500000Y-27000000D01*
%TO.N,R2*%
X104460000Y-21500000D02*
X104500000Y-21500000D01*
X106175001Y-38784999D02*
X104460000Y-40500000D01*
X106175001Y-23175001D02*
X106175001Y-38784999D01*
X104500000Y-21500000D02*
X106175001Y-23175001D01*
X104460000Y-40500000D02*
X105000000Y-40500000D01*
X106175001Y-57784999D02*
X104460000Y-59500000D01*
X106175001Y-41675001D02*
X106175001Y-57784999D01*
X105000000Y-40500000D02*
X106175001Y-41675001D01*
X135000000Y-79500000D02*
X135000000Y-66500000D01*
X108448600Y-60778612D02*
X105738612Y-60778612D01*
X113175001Y-65505013D02*
X108448600Y-60778612D01*
X113175001Y-76824999D02*
X113175001Y-65505013D01*
X105738612Y-60778612D02*
X104460000Y-59500000D01*
X112318001Y-77681999D02*
X113175001Y-76824999D01*
X112278001Y-77681999D02*
X112318001Y-77681999D01*
X111460000Y-78500000D02*
X112278001Y-77681999D01*
%TO.N,Net-(KH1-Pad2)*%
X97460000Y-37580000D02*
X97460000Y-40500000D01*
%TO.N,Net-(KI1-Pad2)*%
X135460000Y-14580000D02*
X135460000Y-17500000D01*
%TO.N,Net-(KJ1-Pad2)*%
X116460000Y-37580000D02*
X116460000Y-40500000D01*
%TO.N,R3*%
X123460000Y-21500000D02*
X123500000Y-21500000D01*
X125175001Y-38784999D02*
X123460000Y-40500000D01*
X125175001Y-23175001D02*
X125175001Y-38784999D01*
X123500000Y-21500000D02*
X125175001Y-23175001D01*
X123460000Y-40500000D02*
X123500000Y-40500000D01*
X125175001Y-57784999D02*
X123460000Y-59500000D01*
X125175001Y-42175001D02*
X125175001Y-57784999D01*
X123500000Y-40500000D02*
X125175001Y-42175001D01*
X132274999Y-76685001D02*
X132274999Y-68500001D01*
X132274999Y-68500001D02*
X132275000Y-68500000D01*
X130460000Y-78500000D02*
X132274999Y-76685001D01*
X126169988Y-59500000D02*
X123460000Y-59500000D01*
X132275000Y-65605012D02*
X126169988Y-59500000D01*
X132275000Y-68500000D02*
X132275000Y-65605012D01*
%TO.N,Net-(KK1-Pad2)*%
X135460000Y-33580000D02*
X135460000Y-36500000D01*
%TO.N,Net-(KL1-Pad2)*%
X154460000Y-37580000D02*
X154460000Y-40500000D01*
%TO.N,Net-(KM1-Pad2)*%
X116460000Y-56580000D02*
X116460000Y-59500000D01*
%TO.N,Net-(KN1-Pad7)*%
X102000000Y-58947358D02*
X102000000Y-63500000D01*
X97000000Y-53947358D02*
X102000000Y-58947358D01*
X97000000Y-53500000D02*
X97000000Y-53947358D01*
X96500000Y-53000000D02*
X97000000Y-53500000D01*
%TO.N,Net-(KN1-Pad6)*%
X96175001Y-49675001D02*
X96175001Y-52064001D01*
X95500000Y-49000000D02*
X96175001Y-49675001D01*
X93600001Y-54639001D02*
X94119501Y-54119501D01*
X93600001Y-64600001D02*
X93600001Y-54639001D01*
X94119501Y-54119501D02*
X94000000Y-54239002D01*
X94000000Y-65000000D02*
X93600001Y-64600001D01*
X96175001Y-52064001D02*
X94119501Y-54119501D01*
%TO.N,Net-(KN1-Pad2)*%
X97460000Y-56580000D02*
X97460000Y-59500000D01*
%TO.N,Net-(KO1-Pad2)*%
X154460000Y-18580000D02*
X154460000Y-21500000D01*
%TO.N,Net-(KP1-Pad2)*%
X173460000Y-22580000D02*
X173460000Y-25500000D01*
%TO.N,Net-(KPERIOD1-Pad2)*%
X154460000Y-56580000D02*
X154460000Y-59500000D01*
%TO.N,R5*%
X163175001Y-38784999D02*
X161460000Y-40500000D01*
X163175001Y-23175001D02*
X163175001Y-38784999D01*
X161500000Y-21500000D02*
X163175001Y-23175001D01*
X161460000Y-21500000D02*
X161500000Y-21500000D01*
X161460000Y-21500000D02*
X162000000Y-21500000D01*
X161460000Y-40500000D02*
X162000000Y-40500000D01*
X163175001Y-57784999D02*
X161460000Y-59500000D01*
X163175001Y-41675001D02*
X163175001Y-57784999D01*
X162000000Y-40500000D02*
X163175001Y-41675001D01*
X156850000Y-64110000D02*
X161460000Y-59500000D01*
X156850000Y-65530000D02*
X156850000Y-64110000D01*
%TO.N,Net-(KSEMICOLON1-Pad2)*%
X173460000Y-41580000D02*
X173460000Y-44500000D01*
%TO.N,Net-(KT2_1-Pad6)*%
X74000000Y-71000000D02*
X74000000Y-68500000D01*
%TO.N,R1*%
X147725001Y-92774999D02*
X147500000Y-93000000D01*
X147725001Y-66565001D02*
X147725001Y-92774999D01*
X146690000Y-65530000D02*
X147725001Y-66565001D01*
X112535500Y-97500000D02*
X111460000Y-97500000D01*
X116923501Y-93111999D02*
X112535500Y-97500000D01*
X128611999Y-93111999D02*
X116923501Y-93111999D01*
X130000000Y-94500000D02*
X128611999Y-93111999D01*
%TO.N,Net-(KT2_1-Pad2)*%
X89281437Y-85162739D02*
X92730631Y-88611933D01*
X89281437Y-74569331D02*
X89281437Y-85162739D01*
%TO.N,R0*%
X71995815Y-73995815D02*
X84000000Y-86000000D01*
X71995815Y-71606873D02*
X71995815Y-73995815D01*
X115000000Y-87000000D02*
X115000000Y-93000000D01*
X145725001Y-67105001D02*
X145725001Y-84225001D01*
X144150000Y-65530000D02*
X145725001Y-67105001D01*
X145000000Y-84950002D02*
X145000000Y-95500000D01*
X145725001Y-84225001D02*
X145000000Y-84950002D01*
%TO.N,Net-(KT2_2-Pad2)*%
X72969031Y-79101331D02*
X73665549Y-78404813D01*
X70829837Y-79101331D02*
X72969031Y-79101331D01*
%TO.N,Net-(KTG_A1-Pad2)*%
X104460000Y-75580000D02*
X104460000Y-78500000D01*
%TO.N,Net-(KTG_B1-Pad7)*%
X134000000Y-63500000D02*
X134000000Y-81000000D01*
X134000000Y-81000000D02*
X134000000Y-85500000D01*
%TO.N,Net-(KTG_B1-Pad6)*%
X133000000Y-65000000D02*
X133000000Y-84500000D01*
%TO.N,Net-(KTG_B1-Pad2)*%
X123460000Y-75580000D02*
X123460000Y-78500000D01*
%TO.N,Net-(KTG_C1-Pad2)*%
X104460000Y-94580000D02*
X104460000Y-97500000D01*
%TO.N,Net-(KTG_D1-Pad2)*%
X123460000Y-94580000D02*
X123460000Y-97500000D01*
%TO.N,Net-(KU1-Pad2)*%
X116460000Y-18580000D02*
X116460000Y-21500000D01*
%TO.N,Net-(KY1-Pad2)*%
X97460000Y-18580000D02*
X97460000Y-21500000D01*
%TO.N,S2*%
X146690000Y-80690000D02*
X147000000Y-81000000D01*
X146690000Y-73470000D02*
X146690000Y-80690000D01*
%TO.N,S1*%
X145000000Y-74320000D02*
X145000000Y-79500000D01*
X144150000Y-73470000D02*
X145000000Y-74320000D01*
%TD*%
M02*
