%TF.GenerationSoftware,KiCad,Pcbnew,(5.1.10)-1*%
%TF.CreationDate,2021-08-19T22:55:08-05:00*%
%TF.ProjectId,RightHand,52696768-7448-4616-9e64-2e6b69636164,rev?*%
%TF.SameCoordinates,Original*%
%TF.FileFunction,Legend,Top*%
%TF.FilePolarity,Positive*%
%FSLAX46Y46*%
G04 Gerber Fmt 4.6, Leading zero omitted, Abs format (unit mm)*
G04 Created by KiCad (PCBNEW (5.1.10)-1) date 2021-08-19 22:55:08*
%MOMM*%
%LPD*%
G01*
G04 APERTURE LIST*
%ADD10C,0.120000*%
%ADD11C,0.150000*%
G04 APERTURE END LIST*
D10*
%TO.C,UREG1*%
X142500000Y-98000000D02*
X142500000Y-78000000D01*
X152500000Y-98000000D02*
X142500000Y-98000000D01*
X152500000Y-78000000D02*
X152500000Y-98000000D01*
X142500000Y-78000000D02*
X152500000Y-78000000D01*
X148500000Y-78000000D02*
G75*
G02*
X146500000Y-78000000I-1000000J0D01*
G01*
%TO.C,UDEMUX1*%
X160500000Y-74500000D02*
X140500000Y-74500000D01*
X160500000Y-64500000D02*
X160500000Y-74500000D01*
X140500000Y-64500000D02*
X160500000Y-64500000D01*
X140500000Y-74500000D02*
X140500000Y-64500000D01*
X140500000Y-68500000D02*
G75*
G02*
X140500000Y-70500000I0J-1000000D01*
G01*
%TO.C,UD9*%
X166500000Y-93000000D02*
X154200000Y-93000000D01*
X154200000Y-93000000D02*
X154200000Y-79000000D01*
X166500000Y-79000000D02*
X154200000Y-79000000D01*
X166500000Y-93000000D02*
X166500000Y-79000000D01*
%TO.C,R3*%
X138500000Y-85500000D02*
X138500000Y-79500000D01*
X136500000Y-85500000D02*
X138500000Y-85500000D01*
X136500000Y-79500000D02*
X136500000Y-85500000D01*
X138500000Y-79500000D02*
X136500000Y-79500000D01*
%TO.C,R2*%
X141000000Y-85500000D02*
X141000000Y-79500000D01*
X139000000Y-85500000D02*
X141000000Y-85500000D01*
X139000000Y-79500000D02*
X139000000Y-85500000D01*
X141000000Y-79500000D02*
X139000000Y-79500000D01*
%TO.C,R1*%
X139000000Y-90000000D02*
X139000000Y-96000000D01*
X141000000Y-90000000D02*
X139000000Y-90000000D01*
X141000000Y-96000000D02*
X141000000Y-90000000D01*
X139000000Y-96000000D02*
X141000000Y-96000000D01*
%TO.C,R0*%
X138500000Y-96000000D02*
X138500000Y-90000000D01*
X136500000Y-96000000D02*
X138500000Y-96000000D01*
X136500000Y-90000000D02*
X136500000Y-96000000D01*
X138500000Y-90000000D02*
X136500000Y-90000000D01*
%TO.C,KY1*%
X103500000Y-20500000D02*
X98500000Y-20500000D01*
X103500000Y-22500000D02*
X103500000Y-20500000D01*
X98500000Y-22500000D02*
X103500000Y-22500000D01*
X98500000Y-20500000D02*
X98500000Y-22500000D01*
X101500000Y-21000000D02*
X101500000Y-22000000D01*
X101500000Y-22000000D02*
X101500000Y-21500000D01*
X101500000Y-21500000D02*
X101000000Y-21000000D01*
X101000000Y-21000000D02*
X101000000Y-22000000D01*
X101000000Y-22000000D02*
X101500000Y-21500000D01*
X101500000Y-21500000D02*
X102000000Y-21500000D01*
X101000000Y-21500000D02*
X100500000Y-21500000D01*
%TO.C,KU1*%
X122500000Y-20500000D02*
X117500000Y-20500000D01*
X122500000Y-22500000D02*
X122500000Y-20500000D01*
X117500000Y-22500000D02*
X122500000Y-22500000D01*
X117500000Y-20500000D02*
X117500000Y-22500000D01*
X120500000Y-21000000D02*
X120500000Y-22000000D01*
X120500000Y-22000000D02*
X120500000Y-21500000D01*
X120500000Y-21500000D02*
X120000000Y-21000000D01*
X120000000Y-21000000D02*
X120000000Y-22000000D01*
X120000000Y-22000000D02*
X120500000Y-21500000D01*
X120500000Y-21500000D02*
X121000000Y-21500000D01*
X120000000Y-21500000D02*
X119500000Y-21500000D01*
%TO.C,KTG_D1*%
X129500000Y-96500000D02*
X124500000Y-96500000D01*
X129500000Y-98500000D02*
X129500000Y-96500000D01*
X124500000Y-98500000D02*
X129500000Y-98500000D01*
X124500000Y-96500000D02*
X124500000Y-98500000D01*
X127500000Y-97000000D02*
X127500000Y-98000000D01*
X127500000Y-98000000D02*
X127500000Y-97500000D01*
X127500000Y-97500000D02*
X127000000Y-97000000D01*
X127000000Y-97000000D02*
X127000000Y-98000000D01*
X127000000Y-98000000D02*
X127500000Y-97500000D01*
X127500000Y-97500000D02*
X128000000Y-97500000D01*
X127000000Y-97500000D02*
X126500000Y-97500000D01*
%TO.C,KTG_C1*%
X110500000Y-96500000D02*
X105500000Y-96500000D01*
X110500000Y-98500000D02*
X110500000Y-96500000D01*
X105500000Y-98500000D02*
X110500000Y-98500000D01*
X105500000Y-96500000D02*
X105500000Y-98500000D01*
X108500000Y-97000000D02*
X108500000Y-98000000D01*
X108500000Y-98000000D02*
X108500000Y-97500000D01*
X108500000Y-97500000D02*
X108000000Y-97000000D01*
X108000000Y-97000000D02*
X108000000Y-98000000D01*
X108000000Y-98000000D02*
X108500000Y-97500000D01*
X108500000Y-97500000D02*
X109000000Y-97500000D01*
X108000000Y-97500000D02*
X107500000Y-97500000D01*
%TO.C,KTG_B1*%
X129500000Y-77500000D02*
X124500000Y-77500000D01*
X129500000Y-79500000D02*
X129500000Y-77500000D01*
X124500000Y-79500000D02*
X129500000Y-79500000D01*
X124500000Y-77500000D02*
X124500000Y-79500000D01*
X127500000Y-78000000D02*
X127500000Y-79000000D01*
X127500000Y-79000000D02*
X127500000Y-78500000D01*
X127500000Y-78500000D02*
X127000000Y-78000000D01*
X127000000Y-78000000D02*
X127000000Y-79000000D01*
X127000000Y-79000000D02*
X127500000Y-78500000D01*
X127500000Y-78500000D02*
X128000000Y-78500000D01*
X127000000Y-78500000D02*
X126500000Y-78500000D01*
%TO.C,KTG_A1*%
X110500000Y-77500000D02*
X105500000Y-77500000D01*
X110500000Y-79500000D02*
X110500000Y-77500000D01*
X105500000Y-79500000D02*
X110500000Y-79500000D01*
X105500000Y-77500000D02*
X105500000Y-79500000D01*
X108500000Y-78000000D02*
X108500000Y-79000000D01*
X108500000Y-79000000D02*
X108500000Y-78500000D01*
X108500000Y-78500000D02*
X108000000Y-78000000D01*
X108000000Y-78000000D02*
X108000000Y-79000000D01*
X108000000Y-79000000D02*
X108500000Y-78500000D01*
X108500000Y-78500000D02*
X109000000Y-78500000D01*
X108000000Y-78500000D02*
X107500000Y-78500000D01*
%TO.C,KSEMICOLON1*%
X179500000Y-43500000D02*
X174500000Y-43500000D01*
X179500000Y-45500000D02*
X179500000Y-43500000D01*
X174500000Y-45500000D02*
X179500000Y-45500000D01*
X174500000Y-43500000D02*
X174500000Y-45500000D01*
X177500000Y-44000000D02*
X177500000Y-45000000D01*
X177500000Y-45000000D02*
X177500000Y-44500000D01*
X177500000Y-44500000D02*
X177000000Y-44000000D01*
X177000000Y-44000000D02*
X177000000Y-45000000D01*
X177000000Y-45000000D02*
X177500000Y-44500000D01*
X177500000Y-44500000D02*
X178000000Y-44500000D01*
X177000000Y-44500000D02*
X176500000Y-44500000D01*
%TO.C,KPERIOD1*%
X160500000Y-58500000D02*
X155500000Y-58500000D01*
X160500000Y-60500000D02*
X160500000Y-58500000D01*
X155500000Y-60500000D02*
X160500000Y-60500000D01*
X155500000Y-58500000D02*
X155500000Y-60500000D01*
X158500000Y-59000000D02*
X158500000Y-60000000D01*
X158500000Y-60000000D02*
X158500000Y-59500000D01*
X158500000Y-59500000D02*
X158000000Y-59000000D01*
X158000000Y-59000000D02*
X158000000Y-60000000D01*
X158000000Y-60000000D02*
X158500000Y-59500000D01*
X158500000Y-59500000D02*
X159000000Y-59500000D01*
X158000000Y-59500000D02*
X157500000Y-59500000D01*
%TO.C,KP1*%
X179500000Y-24500000D02*
X174500000Y-24500000D01*
X179500000Y-26500000D02*
X179500000Y-24500000D01*
X174500000Y-26500000D02*
X179500000Y-26500000D01*
X174500000Y-24500000D02*
X174500000Y-26500000D01*
X177500000Y-25000000D02*
X177500000Y-26000000D01*
X177500000Y-26000000D02*
X177500000Y-25500000D01*
X177500000Y-25500000D02*
X177000000Y-25000000D01*
X177000000Y-25000000D02*
X177000000Y-26000000D01*
X177000000Y-26000000D02*
X177500000Y-25500000D01*
X177500000Y-25500000D02*
X178000000Y-25500000D01*
X177000000Y-25500000D02*
X176500000Y-25500000D01*
%TO.C,KO1*%
X160500000Y-20500000D02*
X155500000Y-20500000D01*
X160500000Y-22500000D02*
X160500000Y-20500000D01*
X155500000Y-22500000D02*
X160500000Y-22500000D01*
X155500000Y-20500000D02*
X155500000Y-22500000D01*
X158500000Y-21000000D02*
X158500000Y-22000000D01*
X158500000Y-22000000D02*
X158500000Y-21500000D01*
X158500000Y-21500000D02*
X158000000Y-21000000D01*
X158000000Y-21000000D02*
X158000000Y-22000000D01*
X158000000Y-22000000D02*
X158500000Y-21500000D01*
X158500000Y-21500000D02*
X159000000Y-21500000D01*
X158000000Y-21500000D02*
X157500000Y-21500000D01*
%TO.C,KN1*%
X103500000Y-58500000D02*
X98500000Y-58500000D01*
X103500000Y-60500000D02*
X103500000Y-58500000D01*
X98500000Y-60500000D02*
X103500000Y-60500000D01*
X98500000Y-58500000D02*
X98500000Y-60500000D01*
X101500000Y-59000000D02*
X101500000Y-60000000D01*
X101500000Y-60000000D02*
X101500000Y-59500000D01*
X101500000Y-59500000D02*
X101000000Y-59000000D01*
X101000000Y-59000000D02*
X101000000Y-60000000D01*
X101000000Y-60000000D02*
X101500000Y-59500000D01*
X101500000Y-59500000D02*
X102000000Y-59500000D01*
X101000000Y-59500000D02*
X100500000Y-59500000D01*
%TO.C,KM1*%
X122500000Y-58500000D02*
X117500000Y-58500000D01*
X122500000Y-60500000D02*
X122500000Y-58500000D01*
X117500000Y-60500000D02*
X122500000Y-60500000D01*
X117500000Y-58500000D02*
X117500000Y-60500000D01*
X120500000Y-59000000D02*
X120500000Y-60000000D01*
X120500000Y-60000000D02*
X120500000Y-59500000D01*
X120500000Y-59500000D02*
X120000000Y-59000000D01*
X120000000Y-59000000D02*
X120000000Y-60000000D01*
X120000000Y-60000000D02*
X120500000Y-59500000D01*
X120500000Y-59500000D02*
X121000000Y-59500000D01*
X120000000Y-59500000D02*
X119500000Y-59500000D01*
%TO.C,KL1*%
X160500000Y-39500000D02*
X155500000Y-39500000D01*
X160500000Y-41500000D02*
X160500000Y-39500000D01*
X155500000Y-41500000D02*
X160500000Y-41500000D01*
X155500000Y-39500000D02*
X155500000Y-41500000D01*
X158500000Y-40000000D02*
X158500000Y-41000000D01*
X158500000Y-41000000D02*
X158500000Y-40500000D01*
X158500000Y-40500000D02*
X158000000Y-40000000D01*
X158000000Y-40000000D02*
X158000000Y-41000000D01*
X158000000Y-41000000D02*
X158500000Y-40500000D01*
X158500000Y-40500000D02*
X159000000Y-40500000D01*
X158000000Y-40500000D02*
X157500000Y-40500000D01*
%TO.C,KK1*%
X141500000Y-35500000D02*
X136500000Y-35500000D01*
X141500000Y-37500000D02*
X141500000Y-35500000D01*
X136500000Y-37500000D02*
X141500000Y-37500000D01*
X136500000Y-35500000D02*
X136500000Y-37500000D01*
X139500000Y-36000000D02*
X139500000Y-37000000D01*
X139500000Y-37000000D02*
X139500000Y-36500000D01*
X139500000Y-36500000D02*
X139000000Y-36000000D01*
X139000000Y-36000000D02*
X139000000Y-37000000D01*
X139000000Y-37000000D02*
X139500000Y-36500000D01*
X139500000Y-36500000D02*
X140000000Y-36500000D01*
X139000000Y-36500000D02*
X138500000Y-36500000D01*
%TO.C,KJ1*%
X122500000Y-39500000D02*
X117500000Y-39500000D01*
X122500000Y-41500000D02*
X122500000Y-39500000D01*
X117500000Y-41500000D02*
X122500000Y-41500000D01*
X117500000Y-39500000D02*
X117500000Y-41500000D01*
X120500000Y-40000000D02*
X120500000Y-41000000D01*
X120500000Y-41000000D02*
X120500000Y-40500000D01*
X120500000Y-40500000D02*
X120000000Y-40000000D01*
X120000000Y-40000000D02*
X120000000Y-41000000D01*
X120000000Y-41000000D02*
X120500000Y-40500000D01*
X120500000Y-40500000D02*
X121000000Y-40500000D01*
X120000000Y-40500000D02*
X119500000Y-40500000D01*
%TO.C,KI1*%
X141500000Y-16500000D02*
X136500000Y-16500000D01*
X141500000Y-18500000D02*
X141500000Y-16500000D01*
X136500000Y-18500000D02*
X141500000Y-18500000D01*
X136500000Y-16500000D02*
X136500000Y-18500000D01*
X139500000Y-17000000D02*
X139500000Y-18000000D01*
X139500000Y-18000000D02*
X139500000Y-17500000D01*
X139500000Y-17500000D02*
X139000000Y-17000000D01*
X139000000Y-17000000D02*
X139000000Y-18000000D01*
X139000000Y-18000000D02*
X139500000Y-17500000D01*
X139500000Y-17500000D02*
X140000000Y-17500000D01*
X139000000Y-17500000D02*
X138500000Y-17500000D01*
%TO.C,KH1*%
X103500000Y-39500000D02*
X98500000Y-39500000D01*
X103500000Y-41500000D02*
X103500000Y-39500000D01*
X98500000Y-41500000D02*
X103500000Y-41500000D01*
X98500000Y-39500000D02*
X98500000Y-41500000D01*
X101500000Y-40000000D02*
X101500000Y-41000000D01*
X101500000Y-41000000D02*
X101500000Y-40500000D01*
X101500000Y-40500000D02*
X101000000Y-40000000D01*
X101000000Y-40000000D02*
X101000000Y-41000000D01*
X101000000Y-41000000D02*
X101500000Y-40500000D01*
X101500000Y-40500000D02*
X102000000Y-40500000D01*
X101000000Y-40500000D02*
X100500000Y-40500000D01*
%TO.C,KFSLASH1*%
X179500000Y-62500000D02*
X174500000Y-62500000D01*
X179500000Y-64500000D02*
X179500000Y-62500000D01*
X174500000Y-64500000D02*
X179500000Y-64500000D01*
X174500000Y-62500000D02*
X174500000Y-64500000D01*
X177500000Y-63000000D02*
X177500000Y-64000000D01*
X177500000Y-64000000D02*
X177500000Y-63500000D01*
X177500000Y-63500000D02*
X177000000Y-63000000D01*
X177000000Y-63000000D02*
X177000000Y-64000000D01*
X177000000Y-64000000D02*
X177500000Y-63500000D01*
X177500000Y-63500000D02*
X178000000Y-63500000D01*
X177000000Y-63500000D02*
X176500000Y-63500000D01*
%TO.C,KENTER1*%
X198500000Y-53000000D02*
X193500000Y-53000000D01*
X198500000Y-55000000D02*
X198500000Y-53000000D01*
X193500000Y-55000000D02*
X198500000Y-55000000D01*
X193500000Y-53000000D02*
X193500000Y-55000000D01*
X196500000Y-53500000D02*
X196500000Y-54500000D01*
X196500000Y-54500000D02*
X196500000Y-54000000D01*
X196500000Y-54000000D02*
X196000000Y-53500000D01*
X196000000Y-53500000D02*
X196000000Y-54500000D01*
X196000000Y-54500000D02*
X196500000Y-54000000D01*
X196500000Y-54000000D02*
X197000000Y-54000000D01*
X196000000Y-54000000D02*
X195500000Y-54000000D01*
%TO.C,KCOMMA1*%
X141500000Y-54500000D02*
X136500000Y-54500000D01*
X141500000Y-56500000D02*
X141500000Y-54500000D01*
X136500000Y-56500000D02*
X141500000Y-56500000D01*
X136500000Y-54500000D02*
X136500000Y-56500000D01*
X139500000Y-55000000D02*
X139500000Y-56000000D01*
X139500000Y-56000000D02*
X139500000Y-55500000D01*
X139500000Y-55500000D02*
X139000000Y-55000000D01*
X139000000Y-55000000D02*
X139000000Y-56000000D01*
X139000000Y-56000000D02*
X139500000Y-55500000D01*
X139500000Y-55500000D02*
X140000000Y-55500000D01*
X139000000Y-55500000D02*
X138500000Y-55500000D01*
%TO.C,KBACKSPACE1*%
X198500000Y-34000000D02*
X193500000Y-34000000D01*
X198500000Y-36000000D02*
X198500000Y-34000000D01*
X193500000Y-36000000D02*
X198500000Y-36000000D01*
X193500000Y-34000000D02*
X193500000Y-36000000D01*
X196500000Y-34500000D02*
X196500000Y-35500000D01*
X196500000Y-35500000D02*
X196500000Y-35000000D01*
X196500000Y-35000000D02*
X196000000Y-34500000D01*
X196000000Y-34500000D02*
X196000000Y-35500000D01*
X196000000Y-35500000D02*
X196500000Y-35000000D01*
X196500000Y-35000000D02*
X197000000Y-35000000D01*
X196000000Y-35000000D02*
X195500000Y-35000000D01*
%TO.C,KT2_1*%
X87064668Y-91033350D02*
X86587601Y-89091082D01*
X86587601Y-89091082D02*
X91443272Y-87898415D01*
X91443272Y-87898415D02*
X91920339Y-89840683D01*
X91920339Y-89840683D02*
X87064668Y-91033350D01*
X89492504Y-90437017D02*
X88521369Y-90675550D01*
X88887670Y-90070716D02*
X88649136Y-89099582D01*
X88649136Y-89099582D02*
X88768403Y-89585149D01*
X88768403Y-89585149D02*
X89373237Y-89951450D01*
X89373237Y-89951450D02*
X89134703Y-88980315D01*
X89134703Y-88980315D02*
X88768403Y-89585149D01*
X88282836Y-89704416D02*
X88768403Y-89585149D01*
X89253970Y-89465883D02*
X89739537Y-89346616D01*
%TO.C,KT2_2*%
X73195941Y-72300629D02*
X71253673Y-72777696D01*
X74388609Y-77156300D02*
X73195941Y-72300629D01*
X72446340Y-77633367D02*
X74388609Y-77156300D01*
X71253673Y-72777696D02*
X72446340Y-77633367D01*
X72216307Y-74600698D02*
X73187441Y-74362164D01*
X73187441Y-74362164D02*
X72701874Y-74481431D01*
X72701874Y-74481431D02*
X72335574Y-75086265D01*
X72335574Y-75086265D02*
X73306708Y-74847731D01*
X73306708Y-74847731D02*
X72701874Y-74481431D01*
X72701874Y-74481431D02*
X72582607Y-73995864D01*
X72821141Y-74966998D02*
X72940408Y-75452565D01*
%TO.C,UREG1*%
D11*
X145285714Y-95452380D02*
X145285714Y-96261904D01*
X145333333Y-96357142D01*
X145380952Y-96404761D01*
X145476190Y-96452380D01*
X145666666Y-96452380D01*
X145761904Y-96404761D01*
X145809523Y-96357142D01*
X145857142Y-96261904D01*
X145857142Y-95452380D01*
X146904761Y-96452380D02*
X146571428Y-95976190D01*
X146333333Y-96452380D02*
X146333333Y-95452380D01*
X146714285Y-95452380D01*
X146809523Y-95500000D01*
X146857142Y-95547619D01*
X146904761Y-95642857D01*
X146904761Y-95785714D01*
X146857142Y-95880952D01*
X146809523Y-95928571D01*
X146714285Y-95976190D01*
X146333333Y-95976190D01*
X147333333Y-95928571D02*
X147666666Y-95928571D01*
X147809523Y-96452380D02*
X147333333Y-96452380D01*
X147333333Y-95452380D01*
X147809523Y-95452380D01*
X148761904Y-95500000D02*
X148666666Y-95452380D01*
X148523809Y-95452380D01*
X148380952Y-95500000D01*
X148285714Y-95595238D01*
X148238095Y-95690476D01*
X148190476Y-95880952D01*
X148190476Y-96023809D01*
X148238095Y-96214285D01*
X148285714Y-96309523D01*
X148380952Y-96404761D01*
X148523809Y-96452380D01*
X148619047Y-96452380D01*
X148761904Y-96404761D01*
X148809523Y-96357142D01*
X148809523Y-96023809D01*
X148619047Y-96023809D01*
X149761904Y-96452380D02*
X149190476Y-96452380D01*
X149476190Y-96452380D02*
X149476190Y-95452380D01*
X149380952Y-95595238D01*
X149285714Y-95690476D01*
X149190476Y-95738095D01*
%TO.C,UDEMUX1*%
X157952380Y-72785714D02*
X158761904Y-72785714D01*
X158857142Y-72738095D01*
X158904761Y-72690476D01*
X158952380Y-72595238D01*
X158952380Y-72404761D01*
X158904761Y-72309523D01*
X158857142Y-72261904D01*
X158761904Y-72214285D01*
X157952380Y-72214285D01*
X158952380Y-71738095D02*
X157952380Y-71738095D01*
X157952380Y-71500000D01*
X158000000Y-71357142D01*
X158095238Y-71261904D01*
X158190476Y-71214285D01*
X158380952Y-71166666D01*
X158523809Y-71166666D01*
X158714285Y-71214285D01*
X158809523Y-71261904D01*
X158904761Y-71357142D01*
X158952380Y-71500000D01*
X158952380Y-71738095D01*
X158428571Y-70738095D02*
X158428571Y-70404761D01*
X158952380Y-70261904D02*
X158952380Y-70738095D01*
X157952380Y-70738095D01*
X157952380Y-70261904D01*
X158952380Y-69833333D02*
X157952380Y-69833333D01*
X158666666Y-69500000D01*
X157952380Y-69166666D01*
X158952380Y-69166666D01*
X157952380Y-68690476D02*
X158761904Y-68690476D01*
X158857142Y-68642857D01*
X158904761Y-68595238D01*
X158952380Y-68500000D01*
X158952380Y-68309523D01*
X158904761Y-68214285D01*
X158857142Y-68166666D01*
X158761904Y-68119047D01*
X157952380Y-68119047D01*
X157952380Y-67738095D02*
X158952380Y-67071428D01*
X157952380Y-67071428D02*
X158952380Y-67738095D01*
X158952380Y-66166666D02*
X158952380Y-66738095D01*
X158952380Y-66452380D02*
X157952380Y-66452380D01*
X158095238Y-66547619D01*
X158190476Y-66642857D01*
X158238095Y-66738095D01*
%TO.C,UD9*%
X164102380Y-87261904D02*
X164911904Y-87261904D01*
X165007142Y-87214285D01*
X165054761Y-87166666D01*
X165102380Y-87071428D01*
X165102380Y-86880952D01*
X165054761Y-86785714D01*
X165007142Y-86738095D01*
X164911904Y-86690476D01*
X164102380Y-86690476D01*
X165102380Y-86214285D02*
X164102380Y-86214285D01*
X164102380Y-85976190D01*
X164150000Y-85833333D01*
X164245238Y-85738095D01*
X164340476Y-85690476D01*
X164530952Y-85642857D01*
X164673809Y-85642857D01*
X164864285Y-85690476D01*
X164959523Y-85738095D01*
X165054761Y-85833333D01*
X165102380Y-85976190D01*
X165102380Y-86214285D01*
X165102380Y-85166666D02*
X165102380Y-84976190D01*
X165054761Y-84880952D01*
X165007142Y-84833333D01*
X164864285Y-84738095D01*
X164673809Y-84690476D01*
X164292857Y-84690476D01*
X164197619Y-84738095D01*
X164150000Y-84785714D01*
X164102380Y-84880952D01*
X164102380Y-85071428D01*
X164150000Y-85166666D01*
X164197619Y-85214285D01*
X164292857Y-85261904D01*
X164530952Y-85261904D01*
X164626190Y-85214285D01*
X164673809Y-85166666D01*
X164721428Y-85071428D01*
X164721428Y-84880952D01*
X164673809Y-84785714D01*
X164626190Y-84738095D01*
X164530952Y-84690476D01*
%TO.C,R3*%
X137952380Y-82666666D02*
X137476190Y-83000000D01*
X137952380Y-83238095D02*
X136952380Y-83238095D01*
X136952380Y-82857142D01*
X137000000Y-82761904D01*
X137047619Y-82714285D01*
X137142857Y-82666666D01*
X137285714Y-82666666D01*
X137380952Y-82714285D01*
X137428571Y-82761904D01*
X137476190Y-82857142D01*
X137476190Y-83238095D01*
X136952380Y-82333333D02*
X136952380Y-81714285D01*
X137333333Y-82047619D01*
X137333333Y-81904761D01*
X137380952Y-81809523D01*
X137428571Y-81761904D01*
X137523809Y-81714285D01*
X137761904Y-81714285D01*
X137857142Y-81761904D01*
X137904761Y-81809523D01*
X137952380Y-81904761D01*
X137952380Y-82190476D01*
X137904761Y-82285714D01*
X137857142Y-82333333D01*
%TO.C,R2*%
X140452380Y-82666666D02*
X139976190Y-83000000D01*
X140452380Y-83238095D02*
X139452380Y-83238095D01*
X139452380Y-82857142D01*
X139500000Y-82761904D01*
X139547619Y-82714285D01*
X139642857Y-82666666D01*
X139785714Y-82666666D01*
X139880952Y-82714285D01*
X139928571Y-82761904D01*
X139976190Y-82857142D01*
X139976190Y-83238095D01*
X139547619Y-82285714D02*
X139500000Y-82238095D01*
X139452380Y-82142857D01*
X139452380Y-81904761D01*
X139500000Y-81809523D01*
X139547619Y-81761904D01*
X139642857Y-81714285D01*
X139738095Y-81714285D01*
X139880952Y-81761904D01*
X140452380Y-82333333D01*
X140452380Y-81714285D01*
%TO.C,R1*%
X140452380Y-93166666D02*
X139976190Y-93500000D01*
X140452380Y-93738095D02*
X139452380Y-93738095D01*
X139452380Y-93357142D01*
X139500000Y-93261904D01*
X139547619Y-93214285D01*
X139642857Y-93166666D01*
X139785714Y-93166666D01*
X139880952Y-93214285D01*
X139928571Y-93261904D01*
X139976190Y-93357142D01*
X139976190Y-93738095D01*
X140452380Y-92214285D02*
X140452380Y-92785714D01*
X140452380Y-92500000D02*
X139452380Y-92500000D01*
X139595238Y-92595238D01*
X139690476Y-92690476D01*
X139738095Y-92785714D01*
%TO.C,R0*%
X137952380Y-93166666D02*
X137476190Y-93500000D01*
X137952380Y-93738095D02*
X136952380Y-93738095D01*
X136952380Y-93357142D01*
X137000000Y-93261904D01*
X137047619Y-93214285D01*
X137142857Y-93166666D01*
X137285714Y-93166666D01*
X137380952Y-93214285D01*
X137428571Y-93261904D01*
X137476190Y-93357142D01*
X137476190Y-93738095D01*
X136952380Y-92547619D02*
X136952380Y-92452380D01*
X137000000Y-92357142D01*
X137047619Y-92309523D01*
X137142857Y-92261904D01*
X137333333Y-92214285D01*
X137571428Y-92214285D01*
X137761904Y-92261904D01*
X137857142Y-92309523D01*
X137904761Y-92357142D01*
X137952380Y-92452380D01*
X137952380Y-92547619D01*
X137904761Y-92642857D01*
X137857142Y-92690476D01*
X137761904Y-92738095D01*
X137571428Y-92785714D01*
X137333333Y-92785714D01*
X137142857Y-92738095D01*
X137047619Y-92690476D01*
X137000000Y-92642857D01*
X136952380Y-92547619D01*
%TO.C,KY1*%
X99833333Y-19452380D02*
X99833333Y-18452380D01*
X100404761Y-19452380D02*
X99976190Y-18880952D01*
X100404761Y-18452380D02*
X99833333Y-19023809D01*
X101023809Y-18976190D02*
X101023809Y-19452380D01*
X100690476Y-18452380D02*
X101023809Y-18976190D01*
X101357142Y-18452380D01*
X102214285Y-19452380D02*
X101642857Y-19452380D01*
X101928571Y-19452380D02*
X101928571Y-18452380D01*
X101833333Y-18595238D01*
X101738095Y-18690476D01*
X101642857Y-18738095D01*
%TO.C,KU1*%
X118738095Y-19452380D02*
X118738095Y-18452380D01*
X119309523Y-19452380D02*
X118880952Y-18880952D01*
X119309523Y-18452380D02*
X118738095Y-19023809D01*
X119738095Y-18452380D02*
X119738095Y-19261904D01*
X119785714Y-19357142D01*
X119833333Y-19404761D01*
X119928571Y-19452380D01*
X120119047Y-19452380D01*
X120214285Y-19404761D01*
X120261904Y-19357142D01*
X120309523Y-19261904D01*
X120309523Y-18452380D01*
X121309523Y-19452380D02*
X120738095Y-19452380D01*
X121023809Y-19452380D02*
X121023809Y-18452380D01*
X120928571Y-18595238D01*
X120833333Y-18690476D01*
X120738095Y-18738095D01*
%TO.C,KTG_D1*%
X125500000Y-95452380D02*
X125500000Y-94452380D01*
X126071428Y-95452380D02*
X125642857Y-94880952D01*
X126071428Y-94452380D02*
X125500000Y-95023809D01*
X126357142Y-94452380D02*
X126928571Y-94452380D01*
X126642857Y-95452380D02*
X126642857Y-94452380D01*
X127785714Y-94500000D02*
X127690476Y-94452380D01*
X127547619Y-94452380D01*
X127404761Y-94500000D01*
X127309523Y-94595238D01*
X127261904Y-94690476D01*
X127214285Y-94880952D01*
X127214285Y-95023809D01*
X127261904Y-95214285D01*
X127309523Y-95309523D01*
X127404761Y-95404761D01*
X127547619Y-95452380D01*
X127642857Y-95452380D01*
X127785714Y-95404761D01*
X127833333Y-95357142D01*
X127833333Y-95023809D01*
X127642857Y-95023809D01*
X128023809Y-95547619D02*
X128785714Y-95547619D01*
X129023809Y-95452380D02*
X129023809Y-94452380D01*
X129261904Y-94452380D01*
X129404761Y-94500000D01*
X129500000Y-94595238D01*
X129547619Y-94690476D01*
X129595238Y-94880952D01*
X129595238Y-95023809D01*
X129547619Y-95214285D01*
X129500000Y-95309523D01*
X129404761Y-95404761D01*
X129261904Y-95452380D01*
X129023809Y-95452380D01*
X130547619Y-95452380D02*
X129976190Y-95452380D01*
X130261904Y-95452380D02*
X130261904Y-94452380D01*
X130166666Y-94595238D01*
X130071428Y-94690476D01*
X129976190Y-94738095D01*
%TO.C,KTG_C1*%
X106500000Y-95452380D02*
X106500000Y-94452380D01*
X107071428Y-95452380D02*
X106642857Y-94880952D01*
X107071428Y-94452380D02*
X106500000Y-95023809D01*
X107357142Y-94452380D02*
X107928571Y-94452380D01*
X107642857Y-95452380D02*
X107642857Y-94452380D01*
X108785714Y-94500000D02*
X108690476Y-94452380D01*
X108547619Y-94452380D01*
X108404761Y-94500000D01*
X108309523Y-94595238D01*
X108261904Y-94690476D01*
X108214285Y-94880952D01*
X108214285Y-95023809D01*
X108261904Y-95214285D01*
X108309523Y-95309523D01*
X108404761Y-95404761D01*
X108547619Y-95452380D01*
X108642857Y-95452380D01*
X108785714Y-95404761D01*
X108833333Y-95357142D01*
X108833333Y-95023809D01*
X108642857Y-95023809D01*
X109023809Y-95547619D02*
X109785714Y-95547619D01*
X110595238Y-95357142D02*
X110547619Y-95404761D01*
X110404761Y-95452380D01*
X110309523Y-95452380D01*
X110166666Y-95404761D01*
X110071428Y-95309523D01*
X110023809Y-95214285D01*
X109976190Y-95023809D01*
X109976190Y-94880952D01*
X110023809Y-94690476D01*
X110071428Y-94595238D01*
X110166666Y-94500000D01*
X110309523Y-94452380D01*
X110404761Y-94452380D01*
X110547619Y-94500000D01*
X110595238Y-94547619D01*
X111547619Y-95452380D02*
X110976190Y-95452380D01*
X111261904Y-95452380D02*
X111261904Y-94452380D01*
X111166666Y-94595238D01*
X111071428Y-94690476D01*
X110976190Y-94738095D01*
%TO.C,KTG_B1*%
X125500000Y-76452380D02*
X125500000Y-75452380D01*
X126071428Y-76452380D02*
X125642857Y-75880952D01*
X126071428Y-75452380D02*
X125500000Y-76023809D01*
X126357142Y-75452380D02*
X126928571Y-75452380D01*
X126642857Y-76452380D02*
X126642857Y-75452380D01*
X127785714Y-75500000D02*
X127690476Y-75452380D01*
X127547619Y-75452380D01*
X127404761Y-75500000D01*
X127309523Y-75595238D01*
X127261904Y-75690476D01*
X127214285Y-75880952D01*
X127214285Y-76023809D01*
X127261904Y-76214285D01*
X127309523Y-76309523D01*
X127404761Y-76404761D01*
X127547619Y-76452380D01*
X127642857Y-76452380D01*
X127785714Y-76404761D01*
X127833333Y-76357142D01*
X127833333Y-76023809D01*
X127642857Y-76023809D01*
X128023809Y-76547619D02*
X128785714Y-76547619D01*
X129357142Y-75928571D02*
X129500000Y-75976190D01*
X129547619Y-76023809D01*
X129595238Y-76119047D01*
X129595238Y-76261904D01*
X129547619Y-76357142D01*
X129500000Y-76404761D01*
X129404761Y-76452380D01*
X129023809Y-76452380D01*
X129023809Y-75452380D01*
X129357142Y-75452380D01*
X129452380Y-75500000D01*
X129500000Y-75547619D01*
X129547619Y-75642857D01*
X129547619Y-75738095D01*
X129500000Y-75833333D01*
X129452380Y-75880952D01*
X129357142Y-75928571D01*
X129023809Y-75928571D01*
X130547619Y-76452380D02*
X129976190Y-76452380D01*
X130261904Y-76452380D02*
X130261904Y-75452380D01*
X130166666Y-75595238D01*
X130071428Y-75690476D01*
X129976190Y-75738095D01*
%TO.C,KTG_A1*%
X107071428Y-76452380D02*
X107071428Y-75452380D01*
X107642857Y-76452380D02*
X107214285Y-75880952D01*
X107642857Y-75452380D02*
X107071428Y-76023809D01*
X107928571Y-75452380D02*
X108500000Y-75452380D01*
X108214285Y-76452380D02*
X108214285Y-75452380D01*
X109357142Y-75500000D02*
X109261904Y-75452380D01*
X109119047Y-75452380D01*
X108976190Y-75500000D01*
X108880952Y-75595238D01*
X108833333Y-75690476D01*
X108785714Y-75880952D01*
X108785714Y-76023809D01*
X108833333Y-76214285D01*
X108880952Y-76309523D01*
X108976190Y-76404761D01*
X109119047Y-76452380D01*
X109214285Y-76452380D01*
X109357142Y-76404761D01*
X109404761Y-76357142D01*
X109404761Y-76023809D01*
X109214285Y-76023809D01*
X109595238Y-76547619D02*
X110357142Y-76547619D01*
X110547619Y-76166666D02*
X111023809Y-76166666D01*
X110452380Y-76452380D02*
X110785714Y-75452380D01*
X111119047Y-76452380D01*
X111976190Y-76452380D02*
X111404761Y-76452380D01*
X111690476Y-76452380D02*
X111690476Y-75452380D01*
X111595238Y-75595238D01*
X111500000Y-75690476D01*
X111404761Y-75738095D01*
%TO.C,KSEMICOLON1*%
X174547619Y-42452380D02*
X174547619Y-41452380D01*
X175119047Y-42452380D02*
X174690476Y-41880952D01*
X175119047Y-41452380D02*
X174547619Y-42023809D01*
X175500000Y-42404761D02*
X175642857Y-42452380D01*
X175880952Y-42452380D01*
X175976190Y-42404761D01*
X176023809Y-42357142D01*
X176071428Y-42261904D01*
X176071428Y-42166666D01*
X176023809Y-42071428D01*
X175976190Y-42023809D01*
X175880952Y-41976190D01*
X175690476Y-41928571D01*
X175595238Y-41880952D01*
X175547619Y-41833333D01*
X175500000Y-41738095D01*
X175500000Y-41642857D01*
X175547619Y-41547619D01*
X175595238Y-41500000D01*
X175690476Y-41452380D01*
X175928571Y-41452380D01*
X176071428Y-41500000D01*
X176500000Y-41928571D02*
X176833333Y-41928571D01*
X176976190Y-42452380D02*
X176500000Y-42452380D01*
X176500000Y-41452380D01*
X176976190Y-41452380D01*
X177404761Y-42452380D02*
X177404761Y-41452380D01*
X177738095Y-42166666D01*
X178071428Y-41452380D01*
X178071428Y-42452380D01*
X178547619Y-42452380D02*
X178547619Y-41452380D01*
X179595238Y-42357142D02*
X179547619Y-42404761D01*
X179404761Y-42452380D01*
X179309523Y-42452380D01*
X179166666Y-42404761D01*
X179071428Y-42309523D01*
X179023809Y-42214285D01*
X178976190Y-42023809D01*
X178976190Y-41880952D01*
X179023809Y-41690476D01*
X179071428Y-41595238D01*
X179166666Y-41500000D01*
X179309523Y-41452380D01*
X179404761Y-41452380D01*
X179547619Y-41500000D01*
X179595238Y-41547619D01*
X180214285Y-41452380D02*
X180404761Y-41452380D01*
X180500000Y-41500000D01*
X180595238Y-41595238D01*
X180642857Y-41785714D01*
X180642857Y-42119047D01*
X180595238Y-42309523D01*
X180500000Y-42404761D01*
X180404761Y-42452380D01*
X180214285Y-42452380D01*
X180119047Y-42404761D01*
X180023809Y-42309523D01*
X179976190Y-42119047D01*
X179976190Y-41785714D01*
X180023809Y-41595238D01*
X180119047Y-41500000D01*
X180214285Y-41452380D01*
X181547619Y-42452380D02*
X181071428Y-42452380D01*
X181071428Y-41452380D01*
X182071428Y-41452380D02*
X182261904Y-41452380D01*
X182357142Y-41500000D01*
X182452380Y-41595238D01*
X182500000Y-41785714D01*
X182500000Y-42119047D01*
X182452380Y-42309523D01*
X182357142Y-42404761D01*
X182261904Y-42452380D01*
X182071428Y-42452380D01*
X181976190Y-42404761D01*
X181880952Y-42309523D01*
X181833333Y-42119047D01*
X181833333Y-41785714D01*
X181880952Y-41595238D01*
X181976190Y-41500000D01*
X182071428Y-41452380D01*
X182928571Y-42452380D02*
X182928571Y-41452380D01*
X183500000Y-42452380D01*
X183500000Y-41452380D01*
X184500000Y-42452380D02*
X183928571Y-42452380D01*
X184214285Y-42452380D02*
X184214285Y-41452380D01*
X184119047Y-41595238D01*
X184023809Y-41690476D01*
X183928571Y-41738095D01*
%TO.C,KPERIOD1*%
X156547619Y-57452380D02*
X156547619Y-56452380D01*
X157119047Y-57452380D02*
X156690476Y-56880952D01*
X157119047Y-56452380D02*
X156547619Y-57023809D01*
X157547619Y-57452380D02*
X157547619Y-56452380D01*
X157928571Y-56452380D01*
X158023809Y-56500000D01*
X158071428Y-56547619D01*
X158119047Y-56642857D01*
X158119047Y-56785714D01*
X158071428Y-56880952D01*
X158023809Y-56928571D01*
X157928571Y-56976190D01*
X157547619Y-56976190D01*
X158547619Y-56928571D02*
X158880952Y-56928571D01*
X159023809Y-57452380D02*
X158547619Y-57452380D01*
X158547619Y-56452380D01*
X159023809Y-56452380D01*
X160023809Y-57452380D02*
X159690476Y-56976190D01*
X159452380Y-57452380D02*
X159452380Y-56452380D01*
X159833333Y-56452380D01*
X159928571Y-56500000D01*
X159976190Y-56547619D01*
X160023809Y-56642857D01*
X160023809Y-56785714D01*
X159976190Y-56880952D01*
X159928571Y-56928571D01*
X159833333Y-56976190D01*
X159452380Y-56976190D01*
X160452380Y-57452380D02*
X160452380Y-56452380D01*
X161119047Y-56452380D02*
X161309523Y-56452380D01*
X161404761Y-56500000D01*
X161500000Y-56595238D01*
X161547619Y-56785714D01*
X161547619Y-57119047D01*
X161500000Y-57309523D01*
X161404761Y-57404761D01*
X161309523Y-57452380D01*
X161119047Y-57452380D01*
X161023809Y-57404761D01*
X160928571Y-57309523D01*
X160880952Y-57119047D01*
X160880952Y-56785714D01*
X160928571Y-56595238D01*
X161023809Y-56500000D01*
X161119047Y-56452380D01*
X161976190Y-57452380D02*
X161976190Y-56452380D01*
X162214285Y-56452380D01*
X162357142Y-56500000D01*
X162452380Y-56595238D01*
X162500000Y-56690476D01*
X162547619Y-56880952D01*
X162547619Y-57023809D01*
X162500000Y-57214285D01*
X162452380Y-57309523D01*
X162357142Y-57404761D01*
X162214285Y-57452380D01*
X161976190Y-57452380D01*
X163500000Y-57452380D02*
X162928571Y-57452380D01*
X163214285Y-57452380D02*
X163214285Y-56452380D01*
X163119047Y-56595238D01*
X163023809Y-56690476D01*
X162928571Y-56738095D01*
%TO.C,KP1*%
X175761904Y-23452380D02*
X175761904Y-22452380D01*
X176333333Y-23452380D02*
X175904761Y-22880952D01*
X176333333Y-22452380D02*
X175761904Y-23023809D01*
X176761904Y-23452380D02*
X176761904Y-22452380D01*
X177142857Y-22452380D01*
X177238095Y-22500000D01*
X177285714Y-22547619D01*
X177333333Y-22642857D01*
X177333333Y-22785714D01*
X177285714Y-22880952D01*
X177238095Y-22928571D01*
X177142857Y-22976190D01*
X176761904Y-22976190D01*
X178285714Y-23452380D02*
X177714285Y-23452380D01*
X178000000Y-23452380D02*
X178000000Y-22452380D01*
X177904761Y-22595238D01*
X177809523Y-22690476D01*
X177714285Y-22738095D01*
%TO.C,KO1*%
X156738095Y-19452380D02*
X156738095Y-18452380D01*
X157309523Y-19452380D02*
X156880952Y-18880952D01*
X157309523Y-18452380D02*
X156738095Y-19023809D01*
X157928571Y-18452380D02*
X158119047Y-18452380D01*
X158214285Y-18500000D01*
X158309523Y-18595238D01*
X158357142Y-18785714D01*
X158357142Y-19119047D01*
X158309523Y-19309523D01*
X158214285Y-19404761D01*
X158119047Y-19452380D01*
X157928571Y-19452380D01*
X157833333Y-19404761D01*
X157738095Y-19309523D01*
X157690476Y-19119047D01*
X157690476Y-18785714D01*
X157738095Y-18595238D01*
X157833333Y-18500000D01*
X157928571Y-18452380D01*
X159309523Y-19452380D02*
X158738095Y-19452380D01*
X159023809Y-19452380D02*
X159023809Y-18452380D01*
X158928571Y-18595238D01*
X158833333Y-18690476D01*
X158738095Y-18738095D01*
%TO.C,KN1*%
X100238095Y-57452380D02*
X100238095Y-56452380D01*
X100809523Y-57452380D02*
X100380952Y-56880952D01*
X100809523Y-56452380D02*
X100238095Y-57023809D01*
X101238095Y-57452380D02*
X101238095Y-56452380D01*
X101809523Y-57452380D01*
X101809523Y-56452380D01*
X102809523Y-57452380D02*
X102238095Y-57452380D01*
X102523809Y-57452380D02*
X102523809Y-56452380D01*
X102428571Y-56595238D01*
X102333333Y-56690476D01*
X102238095Y-56738095D01*
%TO.C,KM1*%
X118690476Y-57452380D02*
X118690476Y-56452380D01*
X119261904Y-57452380D02*
X118833333Y-56880952D01*
X119261904Y-56452380D02*
X118690476Y-57023809D01*
X119690476Y-57452380D02*
X119690476Y-56452380D01*
X120023809Y-57166666D01*
X120357142Y-56452380D01*
X120357142Y-57452380D01*
X121357142Y-57452380D02*
X120785714Y-57452380D01*
X121071428Y-57452380D02*
X121071428Y-56452380D01*
X120976190Y-56595238D01*
X120880952Y-56690476D01*
X120785714Y-56738095D01*
%TO.C,KL1*%
X157357142Y-38452380D02*
X157357142Y-37452380D01*
X157928571Y-38452380D02*
X157500000Y-37880952D01*
X157928571Y-37452380D02*
X157357142Y-38023809D01*
X158833333Y-38452380D02*
X158357142Y-38452380D01*
X158357142Y-37452380D01*
X159690476Y-38452380D02*
X159119047Y-38452380D01*
X159404761Y-38452380D02*
X159404761Y-37452380D01*
X159309523Y-37595238D01*
X159214285Y-37690476D01*
X159119047Y-37738095D01*
%TO.C,KK1*%
X137761904Y-34452380D02*
X137761904Y-33452380D01*
X138333333Y-34452380D02*
X137904761Y-33880952D01*
X138333333Y-33452380D02*
X137761904Y-34023809D01*
X138761904Y-34452380D02*
X138761904Y-33452380D01*
X139333333Y-34452380D02*
X138904761Y-33880952D01*
X139333333Y-33452380D02*
X138761904Y-34023809D01*
X140285714Y-34452380D02*
X139714285Y-34452380D01*
X140000000Y-34452380D02*
X140000000Y-33452380D01*
X139904761Y-33595238D01*
X139809523Y-33690476D01*
X139714285Y-33738095D01*
%TO.C,KJ1*%
X118880952Y-38452380D02*
X118880952Y-37452380D01*
X119452380Y-38452380D02*
X119023809Y-37880952D01*
X119452380Y-37452380D02*
X118880952Y-38023809D01*
X120166666Y-37452380D02*
X120166666Y-38166666D01*
X120119047Y-38309523D01*
X120023809Y-38404761D01*
X119880952Y-38452380D01*
X119785714Y-38452380D01*
X121166666Y-38452380D02*
X120595238Y-38452380D01*
X120880952Y-38452380D02*
X120880952Y-37452380D01*
X120785714Y-37595238D01*
X120690476Y-37690476D01*
X120595238Y-37738095D01*
%TO.C,KI1*%
X137523809Y-15452380D02*
X137523809Y-14452380D01*
X138095238Y-15452380D02*
X137666666Y-14880952D01*
X138095238Y-14452380D02*
X137523809Y-15023809D01*
X138523809Y-15452380D02*
X138523809Y-14452380D01*
X139523809Y-15452380D02*
X138952380Y-15452380D01*
X139238095Y-15452380D02*
X139238095Y-14452380D01*
X139142857Y-14595238D01*
X139047619Y-14690476D01*
X138952380Y-14738095D01*
%TO.C,KH1*%
X99738095Y-38452380D02*
X99738095Y-37452380D01*
X100309523Y-38452380D02*
X99880952Y-37880952D01*
X100309523Y-37452380D02*
X99738095Y-38023809D01*
X100738095Y-38452380D02*
X100738095Y-37452380D01*
X100738095Y-37928571D02*
X101309523Y-37928571D01*
X101309523Y-38452380D02*
X101309523Y-37452380D01*
X102309523Y-38452380D02*
X101738095Y-38452380D01*
X102023809Y-38452380D02*
X102023809Y-37452380D01*
X101928571Y-37595238D01*
X101833333Y-37690476D01*
X101738095Y-37738095D01*
%TO.C,KFSLASH1*%
X175523809Y-61452380D02*
X175523809Y-60452380D01*
X176095238Y-61452380D02*
X175666666Y-60880952D01*
X176095238Y-60452380D02*
X175523809Y-61023809D01*
X176857142Y-60928571D02*
X176523809Y-60928571D01*
X176523809Y-61452380D02*
X176523809Y-60452380D01*
X177000000Y-60452380D01*
X177333333Y-61404761D02*
X177476190Y-61452380D01*
X177714285Y-61452380D01*
X177809523Y-61404761D01*
X177857142Y-61357142D01*
X177904761Y-61261904D01*
X177904761Y-61166666D01*
X177857142Y-61071428D01*
X177809523Y-61023809D01*
X177714285Y-60976190D01*
X177523809Y-60928571D01*
X177428571Y-60880952D01*
X177380952Y-60833333D01*
X177333333Y-60738095D01*
X177333333Y-60642857D01*
X177380952Y-60547619D01*
X177428571Y-60500000D01*
X177523809Y-60452380D01*
X177761904Y-60452380D01*
X177904761Y-60500000D01*
X178809523Y-61452380D02*
X178333333Y-61452380D01*
X178333333Y-60452380D01*
X179095238Y-61166666D02*
X179571428Y-61166666D01*
X179000000Y-61452380D02*
X179333333Y-60452380D01*
X179666666Y-61452380D01*
X179952380Y-61404761D02*
X180095238Y-61452380D01*
X180333333Y-61452380D01*
X180428571Y-61404761D01*
X180476190Y-61357142D01*
X180523809Y-61261904D01*
X180523809Y-61166666D01*
X180476190Y-61071428D01*
X180428571Y-61023809D01*
X180333333Y-60976190D01*
X180142857Y-60928571D01*
X180047619Y-60880952D01*
X180000000Y-60833333D01*
X179952380Y-60738095D01*
X179952380Y-60642857D01*
X180000000Y-60547619D01*
X180047619Y-60500000D01*
X180142857Y-60452380D01*
X180380952Y-60452380D01*
X180523809Y-60500000D01*
X180952380Y-61452380D02*
X180952380Y-60452380D01*
X180952380Y-60928571D02*
X181523809Y-60928571D01*
X181523809Y-61452380D02*
X181523809Y-60452380D01*
X182523809Y-61452380D02*
X181952380Y-61452380D01*
X182238095Y-61452380D02*
X182238095Y-60452380D01*
X182142857Y-60595238D01*
X182047619Y-60690476D01*
X181952380Y-60738095D01*
%TO.C,KENTER1*%
X194452380Y-51952380D02*
X194452380Y-50952380D01*
X195023809Y-51952380D02*
X194595238Y-51380952D01*
X195023809Y-50952380D02*
X194452380Y-51523809D01*
X195452380Y-51428571D02*
X195785714Y-51428571D01*
X195928571Y-51952380D02*
X195452380Y-51952380D01*
X195452380Y-50952380D01*
X195928571Y-50952380D01*
X196357142Y-51952380D02*
X196357142Y-50952380D01*
X196928571Y-51952380D01*
X196928571Y-50952380D01*
X197261904Y-50952380D02*
X197833333Y-50952380D01*
X197547619Y-51952380D02*
X197547619Y-50952380D01*
X198166666Y-51428571D02*
X198500000Y-51428571D01*
X198642857Y-51952380D02*
X198166666Y-51952380D01*
X198166666Y-50952380D01*
X198642857Y-50952380D01*
X199642857Y-51952380D02*
X199309523Y-51476190D01*
X199071428Y-51952380D02*
X199071428Y-50952380D01*
X199452380Y-50952380D01*
X199547619Y-51000000D01*
X199595238Y-51047619D01*
X199642857Y-51142857D01*
X199642857Y-51285714D01*
X199595238Y-51380952D01*
X199547619Y-51428571D01*
X199452380Y-51476190D01*
X199071428Y-51476190D01*
X200595238Y-51952380D02*
X200023809Y-51952380D01*
X200309523Y-51952380D02*
X200309523Y-50952380D01*
X200214285Y-51095238D01*
X200119047Y-51190476D01*
X200023809Y-51238095D01*
%TO.C,KCOMMA1*%
X137666666Y-53452380D02*
X137666666Y-52452380D01*
X138238095Y-53452380D02*
X137809523Y-52880952D01*
X138238095Y-52452380D02*
X137666666Y-53023809D01*
X139238095Y-53357142D02*
X139190476Y-53404761D01*
X139047619Y-53452380D01*
X138952380Y-53452380D01*
X138809523Y-53404761D01*
X138714285Y-53309523D01*
X138666666Y-53214285D01*
X138619047Y-53023809D01*
X138619047Y-52880952D01*
X138666666Y-52690476D01*
X138714285Y-52595238D01*
X138809523Y-52500000D01*
X138952380Y-52452380D01*
X139047619Y-52452380D01*
X139190476Y-52500000D01*
X139238095Y-52547619D01*
X139857142Y-52452380D02*
X140047619Y-52452380D01*
X140142857Y-52500000D01*
X140238095Y-52595238D01*
X140285714Y-52785714D01*
X140285714Y-53119047D01*
X140238095Y-53309523D01*
X140142857Y-53404761D01*
X140047619Y-53452380D01*
X139857142Y-53452380D01*
X139761904Y-53404761D01*
X139666666Y-53309523D01*
X139619047Y-53119047D01*
X139619047Y-52785714D01*
X139666666Y-52595238D01*
X139761904Y-52500000D01*
X139857142Y-52452380D01*
X140714285Y-53452380D02*
X140714285Y-52452380D01*
X141047619Y-53166666D01*
X141380952Y-52452380D01*
X141380952Y-53452380D01*
X141857142Y-53452380D02*
X141857142Y-52452380D01*
X142190476Y-53166666D01*
X142523809Y-52452380D01*
X142523809Y-53452380D01*
X142952380Y-53166666D02*
X143428571Y-53166666D01*
X142857142Y-53452380D02*
X143190476Y-52452380D01*
X143523809Y-53452380D01*
X144380952Y-53452380D02*
X143809523Y-53452380D01*
X144095238Y-53452380D02*
X144095238Y-52452380D01*
X144000000Y-52595238D01*
X143904761Y-52690476D01*
X143809523Y-52738095D01*
%TO.C,KBACKSPACE1*%
X192476190Y-32952380D02*
X192476190Y-31952380D01*
X193047619Y-32952380D02*
X192619047Y-32380952D01*
X193047619Y-31952380D02*
X192476190Y-32523809D01*
X193809523Y-32428571D02*
X193952380Y-32476190D01*
X194000000Y-32523809D01*
X194047619Y-32619047D01*
X194047619Y-32761904D01*
X194000000Y-32857142D01*
X193952380Y-32904761D01*
X193857142Y-32952380D01*
X193476190Y-32952380D01*
X193476190Y-31952380D01*
X193809523Y-31952380D01*
X193904761Y-32000000D01*
X193952380Y-32047619D01*
X194000000Y-32142857D01*
X194000000Y-32238095D01*
X193952380Y-32333333D01*
X193904761Y-32380952D01*
X193809523Y-32428571D01*
X193476190Y-32428571D01*
X194428571Y-32666666D02*
X194904761Y-32666666D01*
X194333333Y-32952380D02*
X194666666Y-31952380D01*
X195000000Y-32952380D01*
X195904761Y-32857142D02*
X195857142Y-32904761D01*
X195714285Y-32952380D01*
X195619047Y-32952380D01*
X195476190Y-32904761D01*
X195380952Y-32809523D01*
X195333333Y-32714285D01*
X195285714Y-32523809D01*
X195285714Y-32380952D01*
X195333333Y-32190476D01*
X195380952Y-32095238D01*
X195476190Y-32000000D01*
X195619047Y-31952380D01*
X195714285Y-31952380D01*
X195857142Y-32000000D01*
X195904761Y-32047619D01*
X196333333Y-32952380D02*
X196333333Y-31952380D01*
X196904761Y-32952380D02*
X196476190Y-32380952D01*
X196904761Y-31952380D02*
X196333333Y-32523809D01*
X197285714Y-32904761D02*
X197428571Y-32952380D01*
X197666666Y-32952380D01*
X197761904Y-32904761D01*
X197809523Y-32857142D01*
X197857142Y-32761904D01*
X197857142Y-32666666D01*
X197809523Y-32571428D01*
X197761904Y-32523809D01*
X197666666Y-32476190D01*
X197476190Y-32428571D01*
X197380952Y-32380952D01*
X197333333Y-32333333D01*
X197285714Y-32238095D01*
X197285714Y-32142857D01*
X197333333Y-32047619D01*
X197380952Y-32000000D01*
X197476190Y-31952380D01*
X197714285Y-31952380D01*
X197857142Y-32000000D01*
X198285714Y-32952380D02*
X198285714Y-31952380D01*
X198666666Y-31952380D01*
X198761904Y-32000000D01*
X198809523Y-32047619D01*
X198857142Y-32142857D01*
X198857142Y-32285714D01*
X198809523Y-32380952D01*
X198761904Y-32428571D01*
X198666666Y-32476190D01*
X198285714Y-32476190D01*
X199238095Y-32666666D02*
X199714285Y-32666666D01*
X199142857Y-32952380D02*
X199476190Y-31952380D01*
X199809523Y-32952380D01*
X200714285Y-32857142D02*
X200666666Y-32904761D01*
X200523809Y-32952380D01*
X200428571Y-32952380D01*
X200285714Y-32904761D01*
X200190476Y-32809523D01*
X200142857Y-32714285D01*
X200095238Y-32523809D01*
X200095238Y-32380952D01*
X200142857Y-32190476D01*
X200190476Y-32095238D01*
X200285714Y-32000000D01*
X200428571Y-31952380D01*
X200523809Y-31952380D01*
X200666666Y-32000000D01*
X200714285Y-32047619D01*
X201142857Y-32428571D02*
X201476190Y-32428571D01*
X201619047Y-32952380D02*
X201142857Y-32952380D01*
X201142857Y-31952380D01*
X201619047Y-31952380D01*
X202571428Y-32952380D02*
X202000000Y-32952380D01*
X202285714Y-32952380D02*
X202285714Y-31952380D01*
X202190476Y-32095238D01*
X202095238Y-32190476D01*
X202000000Y-32238095D01*
%TO.C,KT2_1*%
X87089289Y-68188761D02*
X88060424Y-67950228D01*
X87225594Y-68743695D02*
X87678299Y-68191190D01*
X88196728Y-68505162D02*
X87505490Y-68086533D01*
X88264881Y-68782629D02*
X88401186Y-69337562D01*
X87361899Y-69298629D02*
X88333033Y-69060095D01*
X88376849Y-69637747D02*
X88434452Y-69672633D01*
X88503414Y-69753763D01*
X88560208Y-69984985D01*
X88536681Y-70088833D01*
X88501795Y-70146436D01*
X88420665Y-70215398D01*
X88328176Y-70238116D01*
X88178084Y-70225947D01*
X87486845Y-69807318D01*
X87634509Y-70408497D01*
X87587455Y-70616192D02*
X87769194Y-71356104D01*
X88043423Y-72073298D02*
X87907118Y-71518364D01*
X87975271Y-71795831D02*
X88946405Y-71557298D01*
X88784954Y-71498885D01*
X88669748Y-71429114D01*
X88600786Y-71347983D01*
%TO.C,KT2_2*%
X68589289Y-72188761D02*
X69560424Y-71950228D01*
X68725594Y-72743695D02*
X69178299Y-72191190D01*
X69696728Y-72505162D02*
X69005490Y-72086533D01*
X69764881Y-72782629D02*
X69901186Y-73337562D01*
X68861899Y-73298629D02*
X69833033Y-73060095D01*
X69876849Y-73637747D02*
X69934452Y-73672633D01*
X70003414Y-73753763D01*
X70060208Y-73984985D01*
X70036681Y-74088833D01*
X70001795Y-74146436D01*
X69920665Y-74215398D01*
X69828176Y-74238116D01*
X69678084Y-74225947D01*
X68986845Y-73807318D01*
X69134509Y-74408497D01*
X69087455Y-74616192D02*
X69269194Y-75356104D01*
X70285764Y-75302548D02*
X70343367Y-75337434D01*
X70412329Y-75418564D01*
X70469122Y-75649787D01*
X70445595Y-75753635D01*
X70410710Y-75811238D01*
X70329579Y-75880200D01*
X70237090Y-75902917D01*
X70086998Y-75890749D01*
X69395760Y-75472120D01*
X69543423Y-76073298D01*
%TD*%
M02*
