%TF.GenerationSoftware,KiCad,Pcbnew,(5.1.10)-1*%
%TF.CreationDate,2021-08-19T22:55:08-05:00*%
%TF.ProjectId,RightHand,52696768-7448-4616-9e64-2e6b69636164,rev?*%
%TF.SameCoordinates,Original*%
%TF.FileFunction,Copper,L2,Bot*%
%TF.FilePolarity,Positive*%
%FSLAX46Y46*%
G04 Gerber Fmt 4.6, Leading zero omitted, Abs format (unit mm)*
G04 Created by KiCad (PCBNEW (5.1.10)-1) date 2021-08-19 22:55:08*
%MOMM*%
%LPD*%
G01*
G04 APERTURE LIST*
%TA.AperFunction,ComponentPad*%
%ADD10C,1.130000*%
%TD*%
%TA.AperFunction,ComponentPad*%
%ADD11R,1.130000X1.130000*%
%TD*%
%TA.AperFunction,ComponentPad*%
%ADD12C,1.500000*%
%TD*%
%TA.AperFunction,ComponentPad*%
%ADD13O,1.000000X2.500000*%
%TD*%
%TA.AperFunction,ComponentPad*%
%ADD14C,4.000000*%
%TD*%
%TA.AperFunction,ComponentPad*%
%ADD15C,1.700000*%
%TD*%
%TA.AperFunction,ComponentPad*%
%ADD16C,2.286000*%
%TD*%
%TA.AperFunction,ComponentPad*%
%ADD17C,1.651000*%
%TD*%
%TA.AperFunction,ComponentPad*%
%ADD18R,1.651000X1.651000*%
%TD*%
%TA.AperFunction,SMDPad,CuDef*%
%ADD19R,1.000000X1.000000*%
%TD*%
%TA.AperFunction,ComponentPad*%
%ADD20C,3.050000*%
%TD*%
%TA.AperFunction,ComponentPad*%
%ADD21C,0.100000*%
%TD*%
%TA.AperFunction,SMDPad,CuDef*%
%ADD22C,0.100000*%
%TD*%
%TA.AperFunction,ViaPad*%
%ADD23C,0.800000*%
%TD*%
%TA.AperFunction,Conductor*%
%ADD24C,0.250000*%
%TD*%
G04 APERTURE END LIST*
D10*
%TO.P,UREG1,16*%
%TO.N,VCC*%
X151470000Y-79110000D03*
%TO.P,UREG1,15*%
%TO.N,GND*%
X151470000Y-81650000D03*
%TO.P,UREG1,14*%
%TO.N,VCC*%
X151470000Y-84190000D03*
%TO.P,UREG1,13*%
%TO.N,GND*%
X151470000Y-86730000D03*
%TO.P,UREG1,12*%
X151470000Y-89270000D03*
%TO.P,UREG1,11*%
X151470000Y-91810000D03*
%TO.P,UREG1,10*%
X151470000Y-94350000D03*
%TO.P,UREG1,9*%
%TO.N,RX*%
X151470000Y-96890000D03*
%TO.P,UREG1,8*%
%TO.N,GND*%
X143530000Y-96890000D03*
%TO.P,UREG1,7*%
%TO.N,Net-(UREG1-Pad7)*%
X143530000Y-94350000D03*
%TO.P,UREG1,6*%
%TO.N,C0*%
X143530000Y-91810000D03*
%TO.P,UREG1,5*%
%TO.N,C1*%
X143530000Y-89270000D03*
%TO.P,UREG1,4*%
%TO.N,C2*%
X143530000Y-86730000D03*
%TO.P,UREG1,3*%
%TO.N,C3*%
X143530000Y-84190000D03*
%TO.P,UREG1,2*%
%TO.N,CLK_C*%
X143530000Y-81650000D03*
D11*
%TO.P,UREG1,1*%
%TO.N,SH_LD*%
X143530000Y-79110000D03*
%TD*%
D10*
%TO.P,UDEMUX1,16*%
%TO.N,VCC*%
X141610000Y-65530000D03*
%TO.P,UDEMUX1,15*%
%TO.N,R0*%
X144150000Y-65530000D03*
%TO.P,UDEMUX1,14*%
%TO.N,R1*%
X146690000Y-65530000D03*
%TO.P,UDEMUX1,13*%
%TO.N,R2*%
X149230000Y-65530000D03*
%TO.P,UDEMUX1,12*%
%TO.N,R3*%
X151770000Y-65530000D03*
%TO.P,UDEMUX1,11*%
%TO.N,R4*%
X154310000Y-65530000D03*
%TO.P,UDEMUX1,10*%
%TO.N,R5*%
X156850000Y-65530000D03*
%TO.P,UDEMUX1,9*%
%TO.N,R6*%
X159390000Y-65530000D03*
%TO.P,UDEMUX1,8*%
%TO.N,GND*%
X159390000Y-73470000D03*
%TO.P,UDEMUX1,7*%
%TO.N,R7*%
X156850000Y-73470000D03*
%TO.P,UDEMUX1,6*%
%TO.N,VCC*%
X154310000Y-73470000D03*
%TO.P,UDEMUX1,5*%
%TO.N,GND*%
X151770000Y-73470000D03*
%TO.P,UDEMUX1,4*%
X149230000Y-73470000D03*
%TO.P,UDEMUX1,3*%
%TO.N,S2*%
X146690000Y-73470000D03*
%TO.P,UDEMUX1,2*%
%TO.N,S1*%
X144150000Y-73470000D03*
D11*
%TO.P,UDEMUX1,1*%
%TO.N,S0_DL*%
X141610000Y-73470000D03*
%TD*%
D12*
%TO.P,UD9,7*%
%TO.N,S1*%
X155500000Y-82000000D03*
%TO.P,UD9,4*%
%TO.N,S2*%
X155500000Y-84000000D03*
%TO.P,UD9,5*%
%TO.N,SH_LD*%
X155500000Y-86000000D03*
%TO.P,UD9,8*%
%TO.N,CLK_C*%
X155500000Y-88000000D03*
%TO.P,UD9,9*%
%TO.N,CLK_L*%
X155500000Y-90000000D03*
%TO.P,UD9,6*%
%TO.N,GND*%
X158300000Y-90000000D03*
%TO.P,UD9,3*%
%TO.N,VCC*%
X158300000Y-82000000D03*
%TO.P,UD9,1*%
%TO.N,S0_DL*%
X158300000Y-84500000D03*
%TO.P,UD9,2*%
%TO.N,RX*%
X158300000Y-86500000D03*
D13*
%TO.P,UD9,HOLE*%
%TO.N,N/C*%
X161650000Y-86000000D03*
%TD*%
D10*
%TO.P,R3,2*%
%TO.N,VCC*%
X137500000Y-78500000D03*
%TO.P,R3,1*%
%TO.N,C3*%
X137500000Y-86500000D03*
%TD*%
%TO.P,R2,2*%
%TO.N,VCC*%
X140000000Y-78500000D03*
%TO.P,R2,1*%
%TO.N,C2*%
X140000000Y-86500000D03*
%TD*%
%TO.P,R1,2*%
%TO.N,VCC*%
X140000000Y-97000000D03*
%TO.P,R1,1*%
%TO.N,C1*%
X140000000Y-89000000D03*
%TD*%
%TO.P,R0,2*%
%TO.N,C0*%
X137500000Y-89000000D03*
%TO.P,R0,1*%
%TO.N,VCC*%
X137500000Y-97000000D03*
%TD*%
D14*
%TO.P,KY1,HOLE*%
%TO.N,N/C*%
X100000000Y-13500000D03*
D15*
%TO.P,KY1,POST*%
X95000000Y-13500000D03*
X105000000Y-13500000D03*
D16*
%TO.P,KY1,1*%
%TO.N,C0*%
X103810000Y-16040000D03*
%TO.P,KY1,2*%
%TO.N,Net-(KY1-Pad2)*%
X97460000Y-18580000D03*
D17*
%TO.P,KY1,3*%
X97460000Y-21500000D03*
D18*
%TO.P,KY1,4*%
%TO.N,R2*%
X104460000Y-21500000D03*
D19*
%TO.P,KY1,5*%
%TO.N,VCC*%
X96800000Y-6400000D03*
%TO.P,KY1,6*%
%TO.N,Net-(KH1-Pad9)*%
X96800000Y-8000000D03*
%TO.P,KY1,7*%
%TO.N,Net-(KH1-Pad10)*%
X96800000Y-9600000D03*
%TO.P,KY1,8*%
%TO.N,GND*%
X103200000Y-6400000D03*
%TO.P,KY1,9*%
%TO.N,Net-(KU1-Pad6)*%
X103200000Y-8000000D03*
%TO.P,KY1,10*%
%TO.N,Net-(KU1-Pad7)*%
X103200000Y-9600000D03*
%TD*%
D14*
%TO.P,KU1,HOLE*%
%TO.N,N/C*%
X119000000Y-13500000D03*
D15*
%TO.P,KU1,POST*%
X114000000Y-13500000D03*
X124000000Y-13500000D03*
D16*
%TO.P,KU1,1*%
%TO.N,C0*%
X122810000Y-16040000D03*
%TO.P,KU1,2*%
%TO.N,Net-(KU1-Pad2)*%
X116460000Y-18580000D03*
D17*
%TO.P,KU1,3*%
X116460000Y-21500000D03*
D18*
%TO.P,KU1,4*%
%TO.N,R3*%
X123460000Y-21500000D03*
D19*
%TO.P,KU1,5*%
%TO.N,VCC*%
X115800000Y-6400000D03*
%TO.P,KU1,6*%
%TO.N,Net-(KU1-Pad6)*%
X115800000Y-8000000D03*
%TO.P,KU1,7*%
%TO.N,Net-(KU1-Pad7)*%
X115800000Y-9600000D03*
%TO.P,KU1,8*%
%TO.N,GND*%
X122200000Y-6400000D03*
%TO.P,KU1,9*%
%TO.N,Net-(KI1-Pad6)*%
X122200000Y-8000000D03*
%TO.P,KU1,10*%
%TO.N,Net-(KI1-Pad7)*%
X122200000Y-9600000D03*
%TD*%
D14*
%TO.P,KTG_D1,HOLE*%
%TO.N,N/C*%
X126000000Y-89500000D03*
D15*
%TO.P,KTG_D1,POST*%
X121000000Y-89500000D03*
X131000000Y-89500000D03*
D16*
%TO.P,KTG_D1,1*%
%TO.N,C3*%
X129810000Y-92040000D03*
%TO.P,KTG_D1,2*%
%TO.N,Net-(KTG_D1-Pad2)*%
X123460000Y-94580000D03*
D17*
%TO.P,KTG_D1,3*%
X123460000Y-97500000D03*
D18*
%TO.P,KTG_D1,4*%
%TO.N,R0*%
X130460000Y-97500000D03*
D19*
%TO.P,KTG_D1,5*%
%TO.N,VCC*%
X122800000Y-82400000D03*
%TO.P,KTG_D1,6*%
%TO.N,Net-(KTG_C1-Pad9)*%
X122800000Y-84000000D03*
%TO.P,KTG_D1,7*%
%TO.N,Net-(KTG_C1-Pad10)*%
X122800000Y-85600000D03*
%TO.P,KTG_D1,8*%
%TO.N,GND*%
X129200000Y-82400000D03*
%TO.P,KTG_D1,9*%
%TO.N,Net-(KTG_B1-Pad6)*%
X129200000Y-84000000D03*
%TO.P,KTG_D1,10*%
%TO.N,Net-(KTG_B1-Pad7)*%
X129200000Y-85600000D03*
%TD*%
D14*
%TO.P,KTG_C1,HOLE*%
%TO.N,N/C*%
X107000000Y-89500000D03*
D15*
%TO.P,KTG_C1,POST*%
X102000000Y-89500000D03*
X112000000Y-89500000D03*
D16*
%TO.P,KTG_C1,1*%
%TO.N,C3*%
X110810000Y-92040000D03*
%TO.P,KTG_C1,2*%
%TO.N,Net-(KTG_C1-Pad2)*%
X104460000Y-94580000D03*
D17*
%TO.P,KTG_C1,3*%
X104460000Y-97500000D03*
D18*
%TO.P,KTG_C1,4*%
%TO.N,R1*%
X111460000Y-97500000D03*
D19*
%TO.P,KTG_C1,5*%
%TO.N,VCC*%
X103800000Y-82400000D03*
%TO.P,KTG_C1,6*%
%TO.N,Net-(KT2_1-Pad9)*%
X103800000Y-84000000D03*
%TO.P,KTG_C1,7*%
%TO.N,Net-(KT2_1-Pad10)*%
X103800000Y-85600000D03*
%TO.P,KTG_C1,8*%
%TO.N,GND*%
X110200000Y-82400000D03*
%TO.P,KTG_C1,9*%
%TO.N,Net-(KTG_C1-Pad9)*%
X110200000Y-84000000D03*
%TO.P,KTG_C1,10*%
%TO.N,Net-(KTG_C1-Pad10)*%
X110200000Y-85600000D03*
%TD*%
D14*
%TO.P,KTG_B1,HOLE*%
%TO.N,N/C*%
X126000000Y-70500000D03*
D15*
%TO.P,KTG_B1,POST*%
X121000000Y-70500000D03*
X131000000Y-70500000D03*
D16*
%TO.P,KTG_B1,1*%
%TO.N,C3*%
X129810000Y-73040000D03*
%TO.P,KTG_B1,2*%
%TO.N,Net-(KTG_B1-Pad2)*%
X123460000Y-75580000D03*
D17*
%TO.P,KTG_B1,3*%
X123460000Y-78500000D03*
D18*
%TO.P,KTG_B1,4*%
%TO.N,R3*%
X130460000Y-78500000D03*
D19*
%TO.P,KTG_B1,5*%
%TO.N,VCC*%
X129200000Y-66600000D03*
%TO.P,KTG_B1,6*%
%TO.N,Net-(KTG_B1-Pad6)*%
X129200000Y-65000000D03*
%TO.P,KTG_B1,7*%
%TO.N,Net-(KTG_B1-Pad7)*%
X129200000Y-63400000D03*
%TO.P,KTG_B1,8*%
%TO.N,GND*%
X122800000Y-66600000D03*
%TO.P,KTG_B1,9*%
%TO.N,Net-(KTG_A1-Pad6)*%
X122800000Y-65000000D03*
%TO.P,KTG_B1,10*%
%TO.N,Net-(KTG_A1-Pad7)*%
X122800000Y-63400000D03*
%TD*%
D14*
%TO.P,KTG_A1,HOLE*%
%TO.N,N/C*%
X107000000Y-70500000D03*
D15*
%TO.P,KTG_A1,POST*%
X102000000Y-70500000D03*
X112000000Y-70500000D03*
D16*
%TO.P,KTG_A1,1*%
%TO.N,C3*%
X110810000Y-73040000D03*
%TO.P,KTG_A1,2*%
%TO.N,Net-(KTG_A1-Pad2)*%
X104460000Y-75580000D03*
D17*
%TO.P,KTG_A1,3*%
X104460000Y-78500000D03*
D18*
%TO.P,KTG_A1,4*%
%TO.N,R2*%
X111460000Y-78500000D03*
D19*
%TO.P,KTG_A1,5*%
%TO.N,VCC*%
X110200000Y-66600000D03*
%TO.P,KTG_A1,6*%
%TO.N,Net-(KTG_A1-Pad6)*%
X110200000Y-65000000D03*
%TO.P,KTG_A1,7*%
%TO.N,Net-(KTG_A1-Pad7)*%
X110200000Y-63400000D03*
%TO.P,KTG_A1,8*%
%TO.N,GND*%
X103800000Y-66600000D03*
%TO.P,KTG_A1,9*%
%TO.N,Net-(KN1-Pad6)*%
X103800000Y-65000000D03*
%TO.P,KTG_A1,10*%
%TO.N,Net-(KN1-Pad7)*%
X103800000Y-63400000D03*
%TD*%
D14*
%TO.P,KSEMICOLON1,HOLE*%
%TO.N,N/C*%
X176000000Y-36500000D03*
D15*
%TO.P,KSEMICOLON1,POST*%
X171000000Y-36500000D03*
X181000000Y-36500000D03*
D16*
%TO.P,KSEMICOLON1,1*%
%TO.N,C1*%
X179810000Y-39040000D03*
%TO.P,KSEMICOLON1,2*%
%TO.N,Net-(KSEMICOLON1-Pad2)*%
X173460000Y-41580000D03*
D17*
%TO.P,KSEMICOLON1,3*%
X173460000Y-44500000D03*
D18*
%TO.P,KSEMICOLON1,4*%
%TO.N,R6*%
X180460000Y-44500000D03*
D19*
%TO.P,KSEMICOLON1,5*%
%TO.N,VCC*%
X179200000Y-32600000D03*
%TO.P,KSEMICOLON1,6*%
%TO.N,Net-(KENTER1-Pad9)*%
X179200000Y-31000000D03*
%TO.P,KSEMICOLON1,7*%
%TO.N,Net-(KENTER1-Pad10)*%
X179200000Y-29400000D03*
%TO.P,KSEMICOLON1,8*%
%TO.N,GND*%
X172800000Y-32600000D03*
%TO.P,KSEMICOLON1,9*%
%TO.N,Net-(KL1-Pad6)*%
X172800000Y-31000000D03*
%TO.P,KSEMICOLON1,10*%
%TO.N,Net-(KL1-Pad7)*%
X172800000Y-29400000D03*
%TD*%
D14*
%TO.P,KPERIOD1,HOLE*%
%TO.N,N/C*%
X157000000Y-51500000D03*
D15*
%TO.P,KPERIOD1,POST*%
X152000000Y-51500000D03*
X162000000Y-51500000D03*
D16*
%TO.P,KPERIOD1,1*%
%TO.N,C2*%
X160810000Y-54040000D03*
%TO.P,KPERIOD1,2*%
%TO.N,Net-(KPERIOD1-Pad2)*%
X154460000Y-56580000D03*
D17*
%TO.P,KPERIOD1,3*%
X154460000Y-59500000D03*
D18*
%TO.P,KPERIOD1,4*%
%TO.N,R5*%
X161460000Y-59500000D03*
D19*
%TO.P,KPERIOD1,5*%
%TO.N,VCC*%
X153800000Y-44400000D03*
%TO.P,KPERIOD1,6*%
%TO.N,Net-(KCOMMA1-Pad9)*%
X153800000Y-46000000D03*
%TO.P,KPERIOD1,7*%
%TO.N,Net-(KCOMMA1-Pad10)*%
X153800000Y-47600000D03*
%TO.P,KPERIOD1,8*%
%TO.N,GND*%
X160200000Y-44400000D03*
%TO.P,KPERIOD1,9*%
%TO.N,Net-(KFSLASH1-Pad6)*%
X160200000Y-46000000D03*
%TO.P,KPERIOD1,10*%
%TO.N,Net-(KFSLASH1-Pad7)*%
X160200000Y-47600000D03*
%TD*%
D14*
%TO.P,KP1,HOLE*%
%TO.N,N/C*%
X176000000Y-17500000D03*
D15*
%TO.P,KP1,POST*%
X171000000Y-17500000D03*
X181000000Y-17500000D03*
D16*
%TO.P,KP1,1*%
%TO.N,C0*%
X179810000Y-20040000D03*
%TO.P,KP1,2*%
%TO.N,Net-(KP1-Pad2)*%
X173460000Y-22580000D03*
D17*
%TO.P,KP1,3*%
X173460000Y-25500000D03*
D18*
%TO.P,KP1,4*%
%TO.N,R6*%
X180460000Y-25500000D03*
D19*
%TO.P,KP1,5*%
%TO.N,VCC*%
X172800000Y-10400000D03*
%TO.P,KP1,6*%
%TO.N,Net-(KO1-Pad9)*%
X172800000Y-12000000D03*
%TO.P,KP1,7*%
%TO.N,Net-(KO1-Pad10)*%
X172800000Y-13600000D03*
%TO.P,KP1,8*%
%TO.N,GND*%
X179200000Y-10400000D03*
%TO.P,KP1,9*%
%TO.N,Net-(KBACKSPACE1-Pad6)*%
X179200000Y-12000000D03*
%TO.P,KP1,10*%
%TO.N,Net-(KBACKSPACE1-Pad7)*%
X179200000Y-13600000D03*
%TD*%
D14*
%TO.P,KO1,HOLE*%
%TO.N,N/C*%
X157000000Y-13500000D03*
D15*
%TO.P,KO1,POST*%
X152000000Y-13500000D03*
X162000000Y-13500000D03*
D16*
%TO.P,KO1,1*%
%TO.N,C0*%
X160810000Y-16040000D03*
%TO.P,KO1,2*%
%TO.N,Net-(KO1-Pad2)*%
X154460000Y-18580000D03*
D17*
%TO.P,KO1,3*%
X154460000Y-21500000D03*
D18*
%TO.P,KO1,4*%
%TO.N,R5*%
X161460000Y-21500000D03*
D19*
%TO.P,KO1,5*%
%TO.N,VCC*%
X153800000Y-6400000D03*
%TO.P,KO1,6*%
%TO.N,Net-(KI1-Pad9)*%
X153800000Y-8000000D03*
%TO.P,KO1,7*%
%TO.N,Net-(KI1-Pad10)*%
X153800000Y-9600000D03*
%TO.P,KO1,8*%
%TO.N,GND*%
X160200000Y-6400000D03*
%TO.P,KO1,9*%
%TO.N,Net-(KO1-Pad9)*%
X160200000Y-8000000D03*
%TO.P,KO1,10*%
%TO.N,Net-(KO1-Pad10)*%
X160200000Y-9600000D03*
%TD*%
D14*
%TO.P,KN1,HOLE*%
%TO.N,N/C*%
X100000000Y-51500000D03*
D15*
%TO.P,KN1,POST*%
X95000000Y-51500000D03*
X105000000Y-51500000D03*
D16*
%TO.P,KN1,1*%
%TO.N,C2*%
X103810000Y-54040000D03*
%TO.P,KN1,2*%
%TO.N,Net-(KN1-Pad2)*%
X97460000Y-56580000D03*
D17*
%TO.P,KN1,3*%
X97460000Y-59500000D03*
D18*
%TO.P,KN1,4*%
%TO.N,R2*%
X104460000Y-59500000D03*
D19*
%TO.P,KN1,5*%
%TO.N,VCC*%
X96800000Y-44400000D03*
%TO.P,KN1,6*%
%TO.N,Net-(KN1-Pad6)*%
X96800000Y-46000000D03*
%TO.P,KN1,7*%
%TO.N,Net-(KN1-Pad7)*%
X96800000Y-47600000D03*
%TO.P,KN1,8*%
%TO.N,GND*%
X103200000Y-44400000D03*
%TO.P,KN1,9*%
%TO.N,Net-(KM1-Pad6)*%
X103200000Y-46000000D03*
%TO.P,KN1,10*%
%TO.N,Net-(KM1-Pad7)*%
X103200000Y-47600000D03*
%TD*%
D14*
%TO.P,KM1,HOLE*%
%TO.N,N/C*%
X119000000Y-51500000D03*
D15*
%TO.P,KM1,POST*%
X114000000Y-51500000D03*
X124000000Y-51500000D03*
D16*
%TO.P,KM1,1*%
%TO.N,C2*%
X122810000Y-54040000D03*
%TO.P,KM1,2*%
%TO.N,Net-(KM1-Pad2)*%
X116460000Y-56580000D03*
D17*
%TO.P,KM1,3*%
X116460000Y-59500000D03*
D18*
%TO.P,KM1,4*%
%TO.N,R3*%
X123460000Y-59500000D03*
D19*
%TO.P,KM1,5*%
%TO.N,VCC*%
X115800000Y-44400000D03*
%TO.P,KM1,6*%
%TO.N,Net-(KM1-Pad6)*%
X115800000Y-46000000D03*
%TO.P,KM1,7*%
%TO.N,Net-(KM1-Pad7)*%
X115800000Y-47600000D03*
%TO.P,KM1,8*%
%TO.N,GND*%
X122200000Y-44400000D03*
%TO.P,KM1,9*%
%TO.N,Net-(KCOMMA1-Pad6)*%
X122200000Y-46000000D03*
%TO.P,KM1,10*%
%TO.N,Net-(KCOMMA1-Pad7)*%
X122200000Y-47600000D03*
%TD*%
D14*
%TO.P,KL1,HOLE*%
%TO.N,N/C*%
X157000000Y-32500000D03*
D15*
%TO.P,KL1,POST*%
X152000000Y-32500000D03*
X162000000Y-32500000D03*
D16*
%TO.P,KL1,1*%
%TO.N,C1*%
X160810000Y-35040000D03*
%TO.P,KL1,2*%
%TO.N,Net-(KL1-Pad2)*%
X154460000Y-37580000D03*
D17*
%TO.P,KL1,3*%
X154460000Y-40500000D03*
D18*
%TO.P,KL1,4*%
%TO.N,R5*%
X161460000Y-40500000D03*
D19*
%TO.P,KL1,5*%
%TO.N,VCC*%
X160200000Y-28600000D03*
%TO.P,KL1,6*%
%TO.N,Net-(KL1-Pad6)*%
X160200000Y-27000000D03*
%TO.P,KL1,7*%
%TO.N,Net-(KL1-Pad7)*%
X160200000Y-25400000D03*
%TO.P,KL1,8*%
%TO.N,GND*%
X153800000Y-28600000D03*
%TO.P,KL1,9*%
%TO.N,Net-(KK1-Pad6)*%
X153800000Y-27000000D03*
%TO.P,KL1,10*%
%TO.N,Net-(KK1-Pad7)*%
X153800000Y-25400000D03*
%TD*%
D14*
%TO.P,KK1,HOLE*%
%TO.N,N/C*%
X138000000Y-28500000D03*
D15*
%TO.P,KK1,POST*%
X133000000Y-28500000D03*
X143000000Y-28500000D03*
D16*
%TO.P,KK1,1*%
%TO.N,C1*%
X141810000Y-31040000D03*
%TO.P,KK1,2*%
%TO.N,Net-(KK1-Pad2)*%
X135460000Y-33580000D03*
D17*
%TO.P,KK1,3*%
X135460000Y-36500000D03*
D18*
%TO.P,KK1,4*%
%TO.N,R4*%
X142460000Y-36500000D03*
D19*
%TO.P,KK1,5*%
%TO.N,VCC*%
X141200000Y-24600000D03*
%TO.P,KK1,6*%
%TO.N,Net-(KK1-Pad6)*%
X141200000Y-23000000D03*
%TO.P,KK1,7*%
%TO.N,Net-(KK1-Pad7)*%
X141200000Y-21400000D03*
%TO.P,KK1,8*%
%TO.N,GND*%
X134800000Y-24600000D03*
%TO.P,KK1,9*%
%TO.N,Net-(KJ1-Pad6)*%
X134800000Y-23000000D03*
%TO.P,KK1,10*%
%TO.N,Net-(KJ1-Pad7)*%
X134800000Y-21400000D03*
%TD*%
D14*
%TO.P,KJ1,HOLE*%
%TO.N,N/C*%
X119000000Y-32500000D03*
D15*
%TO.P,KJ1,POST*%
X114000000Y-32500000D03*
X124000000Y-32500000D03*
D16*
%TO.P,KJ1,1*%
%TO.N,C1*%
X122810000Y-35040000D03*
%TO.P,KJ1,2*%
%TO.N,Net-(KJ1-Pad2)*%
X116460000Y-37580000D03*
D17*
%TO.P,KJ1,3*%
X116460000Y-40500000D03*
D18*
%TO.P,KJ1,4*%
%TO.N,R3*%
X123460000Y-40500000D03*
D19*
%TO.P,KJ1,5*%
%TO.N,VCC*%
X122200000Y-28600000D03*
%TO.P,KJ1,6*%
%TO.N,Net-(KJ1-Pad6)*%
X122200000Y-27000000D03*
%TO.P,KJ1,7*%
%TO.N,Net-(KJ1-Pad7)*%
X122200000Y-25400000D03*
%TO.P,KJ1,8*%
%TO.N,GND*%
X115800000Y-28600000D03*
%TO.P,KJ1,9*%
%TO.N,Net-(KH1-Pad6)*%
X115800000Y-27000000D03*
%TO.P,KJ1,10*%
%TO.N,Net-(KH1-Pad7)*%
X115800000Y-25400000D03*
%TD*%
D14*
%TO.P,KI1,HOLE*%
%TO.N,N/C*%
X138000000Y-9500000D03*
D15*
%TO.P,KI1,POST*%
X133000000Y-9500000D03*
X143000000Y-9500000D03*
D16*
%TO.P,KI1,1*%
%TO.N,C0*%
X141810000Y-12040000D03*
%TO.P,KI1,2*%
%TO.N,Net-(KI1-Pad2)*%
X135460000Y-14580000D03*
D17*
%TO.P,KI1,3*%
X135460000Y-17500000D03*
D18*
%TO.P,KI1,4*%
%TO.N,R4*%
X142460000Y-17500000D03*
D19*
%TO.P,KI1,5*%
%TO.N,VCC*%
X134800000Y-2400000D03*
%TO.P,KI1,6*%
%TO.N,Net-(KI1-Pad6)*%
X134800000Y-4000000D03*
%TO.P,KI1,7*%
%TO.N,Net-(KI1-Pad7)*%
X134800000Y-5600000D03*
%TO.P,KI1,8*%
%TO.N,GND*%
X141200000Y-2400000D03*
%TO.P,KI1,9*%
%TO.N,Net-(KI1-Pad9)*%
X141200000Y-4000000D03*
%TO.P,KI1,10*%
%TO.N,Net-(KI1-Pad10)*%
X141200000Y-5600000D03*
%TD*%
D14*
%TO.P,KH1,HOLE*%
%TO.N,N/C*%
X100000000Y-32500000D03*
D15*
%TO.P,KH1,POST*%
X95000000Y-32500000D03*
X105000000Y-32500000D03*
D16*
%TO.P,KH1,1*%
%TO.N,C1*%
X103810000Y-35040000D03*
%TO.P,KH1,2*%
%TO.N,Net-(KH1-Pad2)*%
X97460000Y-37580000D03*
D17*
%TO.P,KH1,3*%
X97460000Y-40500000D03*
D18*
%TO.P,KH1,4*%
%TO.N,R2*%
X104460000Y-40500000D03*
D19*
%TO.P,KH1,5*%
%TO.N,VCC*%
X103200000Y-28600000D03*
%TO.P,KH1,6*%
%TO.N,Net-(KH1-Pad6)*%
X103200000Y-27000000D03*
%TO.P,KH1,7*%
%TO.N,Net-(KH1-Pad7)*%
X103200000Y-25400000D03*
%TO.P,KH1,8*%
%TO.N,GND*%
X96800000Y-28600000D03*
%TO.P,KH1,9*%
%TO.N,Net-(KH1-Pad9)*%
X96800000Y-27000000D03*
%TO.P,KH1,10*%
%TO.N,Net-(KH1-Pad10)*%
X96800000Y-25400000D03*
%TD*%
D14*
%TO.P,KFSLASH1,HOLE*%
%TO.N,N/C*%
X176000000Y-55500000D03*
D15*
%TO.P,KFSLASH1,POST*%
X171000000Y-55500000D03*
X181000000Y-55500000D03*
D16*
%TO.P,KFSLASH1,1*%
%TO.N,C2*%
X179810000Y-58040000D03*
%TO.P,KFSLASH1,2*%
%TO.N,Net-(KFSLASH1-Pad2)*%
X173460000Y-60580000D03*
D17*
%TO.P,KFSLASH1,3*%
X173460000Y-63500000D03*
D18*
%TO.P,KFSLASH1,4*%
%TO.N,R6*%
X180460000Y-63500000D03*
D19*
%TO.P,KFSLASH1,5*%
%TO.N,VCC*%
X172800000Y-48400000D03*
%TO.P,KFSLASH1,6*%
%TO.N,Net-(KFSLASH1-Pad6)*%
X172800000Y-50000000D03*
%TO.P,KFSLASH1,7*%
%TO.N,Net-(KFSLASH1-Pad7)*%
X172800000Y-51600000D03*
%TO.P,KFSLASH1,8*%
%TO.N,GND*%
X179200000Y-48400000D03*
%TO.P,KFSLASH1,9*%
%TO.N,Net-(KENTER1-Pad6)*%
X179200000Y-50000000D03*
%TO.P,KFSLASH1,10*%
%TO.N,Net-(KENTER1-Pad7)*%
X179200000Y-51600000D03*
%TD*%
D14*
%TO.P,KENTER1,HOLE*%
%TO.N,N/C*%
X195000000Y-46000000D03*
D15*
%TO.P,KENTER1,POST*%
X190000000Y-46000000D03*
X200000000Y-46000000D03*
D16*
%TO.P,KENTER1,1*%
%TO.N,C1*%
X198810000Y-48540000D03*
%TO.P,KENTER1,2*%
%TO.N,Net-(KENTER1-Pad2)*%
X192460000Y-51080000D03*
D17*
%TO.P,KENTER1,3*%
X192460000Y-54000000D03*
D18*
%TO.P,KENTER1,4*%
%TO.N,R7*%
X199460000Y-54000000D03*
D19*
%TO.P,KENTER1,5*%
%TO.N,VCC*%
X198200000Y-42100000D03*
%TO.P,KENTER1,6*%
%TO.N,Net-(KENTER1-Pad6)*%
X198200000Y-40500000D03*
%TO.P,KENTER1,7*%
%TO.N,Net-(KENTER1-Pad7)*%
X198200000Y-38900000D03*
%TO.P,KENTER1,8*%
%TO.N,GND*%
X191800000Y-42100000D03*
%TO.P,KENTER1,9*%
%TO.N,Net-(KENTER1-Pad9)*%
X191800000Y-40500000D03*
%TO.P,KENTER1,10*%
%TO.N,Net-(KENTER1-Pad10)*%
X191800000Y-38900000D03*
%TD*%
D14*
%TO.P,KCOMMA1,HOLE*%
%TO.N,N/C*%
X138000000Y-47500000D03*
D15*
%TO.P,KCOMMA1,POST*%
X133000000Y-47500000D03*
X143000000Y-47500000D03*
D16*
%TO.P,KCOMMA1,1*%
%TO.N,C2*%
X141810000Y-50040000D03*
%TO.P,KCOMMA1,2*%
%TO.N,Net-(KCOMMA1-Pad2)*%
X135460000Y-52580000D03*
D17*
%TO.P,KCOMMA1,3*%
X135460000Y-55500000D03*
D18*
%TO.P,KCOMMA1,4*%
%TO.N,R4*%
X142460000Y-55500000D03*
D19*
%TO.P,KCOMMA1,5*%
%TO.N,VCC*%
X134800000Y-40400000D03*
%TO.P,KCOMMA1,6*%
%TO.N,Net-(KCOMMA1-Pad6)*%
X134800000Y-42000000D03*
%TO.P,KCOMMA1,7*%
%TO.N,Net-(KCOMMA1-Pad7)*%
X134800000Y-43600000D03*
%TO.P,KCOMMA1,8*%
%TO.N,GND*%
X141200000Y-40400000D03*
%TO.P,KCOMMA1,9*%
%TO.N,Net-(KCOMMA1-Pad9)*%
X141200000Y-42000000D03*
%TO.P,KCOMMA1,10*%
%TO.N,Net-(KCOMMA1-Pad10)*%
X141200000Y-43600000D03*
%TD*%
D14*
%TO.P,KBACKSPACE1,HOLE*%
%TO.N,N/C*%
X195000000Y-27000000D03*
D15*
%TO.P,KBACKSPACE1,POST*%
X190000000Y-27000000D03*
X200000000Y-27000000D03*
D16*
%TO.P,KBACKSPACE1,1*%
%TO.N,C0*%
X198810000Y-29540000D03*
%TO.P,KBACKSPACE1,2*%
%TO.N,Net-(KBACKSPACE1-Pad2)*%
X192460000Y-32080000D03*
D17*
%TO.P,KBACKSPACE1,3*%
X192460000Y-35000000D03*
D18*
%TO.P,KBACKSPACE1,4*%
%TO.N,R7*%
X199460000Y-35000000D03*
D19*
%TO.P,KBACKSPACE1,5*%
%TO.N,VCC*%
X191800000Y-19900000D03*
%TO.P,KBACKSPACE1,6*%
%TO.N,Net-(KBACKSPACE1-Pad6)*%
X191800000Y-21500000D03*
%TO.P,KBACKSPACE1,7*%
%TO.N,Net-(KBACKSPACE1-Pad7)*%
X191800000Y-23100000D03*
%TO.P,KBACKSPACE1,8*%
%TO.N,GND*%
X198200000Y-19900000D03*
%TO.P,KBACKSPACE1,9*%
%TO.N,CLK_L*%
X198200000Y-21500000D03*
%TO.P,KBACKSPACE1,10*%
%TO.N,S0_DL*%
X198200000Y-23100000D03*
%TD*%
D14*
%TO.P,KT2_1,HOLE*%
%TO.N,N/C*%
X88896257Y-59753541D03*
X94592436Y-82944228D03*
D20*
X79792350Y-86579478D03*
X74096171Y-63388791D03*
D14*
X83742200Y-73314400D03*
D15*
%TO.P,KT2_1,POST*%
X84934867Y-78170071D03*
X82549533Y-68458729D03*
D16*
%TO.P,KT2_1,1*%
%TO.N,C2*%
X85300069Y-69008503D03*
%TO.P,KT2_1,2*%
%TO.N,Net-(KT2_1-Pad2)*%
X89281437Y-74569331D03*
D17*
%TO.P,KT2_1,3*%
X92730631Y-88611933D03*
%TA.AperFunction,ComponentPad*%
D21*
%TO.P,KT2_1,4*%
%TO.N,R1*%
G36*
X86853581Y-90905512D02*
G01*
X85250238Y-91299331D01*
X84856419Y-89695988D01*
X86459762Y-89302169D01*
X86853581Y-90905512D01*
G37*
%TD.AperFunction*%
%TA.AperFunction,SMDPad,CuDef*%
D22*
%TO.P,KT2_1,5*%
%TO.N,VCC*%
G36*
X79796303Y-71503351D02*
G01*
X78825169Y-71741885D01*
X78586635Y-70770751D01*
X79557769Y-70532217D01*
X79796303Y-71503351D01*
G37*
%TD.AperFunction*%
%TA.AperFunction,SMDPad,CuDef*%
%TO.P,KT2_1,6*%
%TO.N,Net-(KT2_1-Pad6)*%
G36*
X78242488Y-71885004D02*
G01*
X77271354Y-72123538D01*
X77032820Y-71152404D01*
X78003954Y-70913870D01*
X78242488Y-71885004D01*
G37*
%TD.AperFunction*%
%TA.AperFunction,SMDPad,CuDef*%
%TO.P,KT2_1,7*%
%TO.N,Net-(KT2_1-Pad7)*%
G36*
X76688674Y-72266658D02*
G01*
X75717540Y-72505192D01*
X75479006Y-71534058D01*
X76450140Y-71295524D01*
X76688674Y-72266658D01*
G37*
%TD.AperFunction*%
%TA.AperFunction,SMDPad,CuDef*%
%TO.P,KT2_1,8*%
%TO.N,GND*%
G36*
X81322917Y-77718610D02*
G01*
X80351783Y-77957144D01*
X80113249Y-76986010D01*
X81084383Y-76747476D01*
X81322917Y-77718610D01*
G37*
%TD.AperFunction*%
%TA.AperFunction,SMDPad,CuDef*%
%TO.P,KT2_1,9*%
%TO.N,Net-(KT2_1-Pad9)*%
G36*
X79769103Y-78100264D02*
G01*
X78797969Y-78338798D01*
X78559435Y-77367664D01*
X79530569Y-77129130D01*
X79769103Y-78100264D01*
G37*
%TD.AperFunction*%
%TA.AperFunction,SMDPad,CuDef*%
%TO.P,KT2_1,10*%
%TO.N,Net-(KT2_1-Pad10)*%
G36*
X78215288Y-78481917D02*
G01*
X77244154Y-78720451D01*
X77005620Y-77749317D01*
X77976754Y-77510783D01*
X78215288Y-78481917D01*
G37*
%TD.AperFunction*%
%TD*%
D20*
%TO.P,KT2_2,HOLE*%
%TO.N,N/C*%
X74936629Y-87772009D03*
X69240450Y-64581322D03*
D14*
X60136543Y-91407259D03*
X54440364Y-68216572D03*
X65290600Y-77846400D03*
D15*
%TO.P,KT2_2,POST*%
X66483267Y-82702071D03*
X64097933Y-72990729D03*
D16*
%TO.P,KT2_2,1*%
%TO.N,C2*%
X66848469Y-73540503D03*
%TO.P,KT2_2,2*%
%TO.N,Net-(KT2_2-Pad2)*%
X70829837Y-79101331D03*
D17*
%TO.P,KT2_2,3*%
X73665549Y-78404813D03*
%TA.AperFunction,ComponentPad*%
D21*
%TO.P,KT2_2,4*%
%TO.N,R0*%
G36*
X72994396Y-72211635D02*
G01*
X71391053Y-72605454D01*
X70997234Y-71002111D01*
X72600577Y-70608292D01*
X72994396Y-72211635D01*
G37*
%TD.AperFunction*%
%TA.AperFunction,SMDPad,CuDef*%
D22*
%TO.P,KT2_2,5*%
%TO.N,VCC*%
G36*
X59763688Y-83013917D02*
G01*
X58792554Y-83252451D01*
X58554020Y-82281317D01*
X59525154Y-82042783D01*
X59763688Y-83013917D01*
G37*
%TD.AperFunction*%
%TA.AperFunction,SMDPad,CuDef*%
%TO.P,KT2_2,6*%
%TO.N,Net-(KT2_2-Pad6)*%
G36*
X61317503Y-82632264D02*
G01*
X60346369Y-82870798D01*
X60107835Y-81899664D01*
X61078969Y-81661130D01*
X61317503Y-82632264D01*
G37*
%TD.AperFunction*%
%TA.AperFunction,SMDPad,CuDef*%
%TO.P,KT2_2,7*%
%TO.N,Net-(KT2_2-Pad7)*%
G36*
X62871317Y-82250610D02*
G01*
X61900183Y-82489144D01*
X61661649Y-81518010D01*
X62632783Y-81279476D01*
X62871317Y-82250610D01*
G37*
%TD.AperFunction*%
%TA.AperFunction,SMDPad,CuDef*%
%TO.P,KT2_2,8*%
%TO.N,GND*%
G36*
X58237074Y-76798658D02*
G01*
X57265940Y-77037192D01*
X57027406Y-76066058D01*
X57998540Y-75827524D01*
X58237074Y-76798658D01*
G37*
%TD.AperFunction*%
%TA.AperFunction,SMDPad,CuDef*%
%TO.P,KT2_2,9*%
%TO.N,Net-(KT2_1-Pad6)*%
G36*
X59790888Y-76417004D02*
G01*
X58819754Y-76655538D01*
X58581220Y-75684404D01*
X59552354Y-75445870D01*
X59790888Y-76417004D01*
G37*
%TD.AperFunction*%
%TA.AperFunction,SMDPad,CuDef*%
%TO.P,KT2_2,10*%
%TO.N,Net-(KT2_1-Pad7)*%
G36*
X61344703Y-76035351D02*
G01*
X60373569Y-76273885D01*
X60135035Y-75302751D01*
X61106169Y-75064217D01*
X61344703Y-76035351D01*
G37*
%TD.AperFunction*%
%TD*%
D23*
%TO.N,C0*%
X91500000Y-16500000D03*
%TO.N,R7*%
X183000000Y-53500000D03*
X164000000Y-53000000D03*
%TO.N,VCC*%
X184500000Y-9000000D03*
X188000000Y-18500000D03*
X80500000Y-67000000D03*
X82000000Y-70500000D03*
X118500000Y-71000000D03*
X117500000Y-83000000D03*
X103000000Y-30500000D03*
X102500000Y-42000000D03*
X95000000Y-6500000D03*
X115500000Y-66000000D03*
X109500000Y-44500000D03*
%TO.N,GND*%
X201000000Y-20000000D03*
X181500000Y-11000000D03*
X162000000Y-6500000D03*
X143500000Y-3000000D03*
X124500000Y-6500000D03*
X107000000Y-6500000D03*
X150500000Y-28500000D03*
X147000000Y-40500000D03*
X162000000Y-44500000D03*
X167000000Y-44500000D03*
X169000000Y-31500000D03*
X179000000Y-46500000D03*
X187000000Y-48500000D03*
X188000000Y-42000000D03*
X148500000Y-58500000D03*
X127500000Y-58000000D03*
X127500000Y-44500000D03*
X120500000Y-61500000D03*
X120500000Y-66500000D03*
X120500000Y-42500000D03*
X111000000Y-28500000D03*
X107000000Y-44500000D03*
X107000000Y-37000000D03*
X127500000Y-28000000D03*
X131500000Y-82500000D03*
X114500000Y-82500000D03*
X115500000Y-76000000D03*
X121000000Y-74500000D03*
X111000000Y-76000000D03*
X100000000Y-66500000D03*
X90000000Y-66500000D03*
X87500000Y-72500000D03*
X60500000Y-71500000D03*
%TO.N,CLK_L*%
X165000000Y-15500000D03*
%TO.N,S0_DL*%
X153000000Y-77000000D03*
X201000000Y-23000000D03*
X201500000Y-31500000D03*
X165725000Y-24000000D03*
%TO.N,C2*%
X135000000Y-81000000D03*
%TO.N,C1*%
X133000000Y-89000000D03*
X116549154Y-86449999D03*
X108460000Y-35040000D03*
%TO.N,Net-(KENTER1-Pad6)*%
X201500000Y-50000000D03*
X201500000Y-40500000D03*
%TO.N,Net-(KENTER1-Pad7)*%
X202500000Y-52500000D03*
X202500000Y-39000000D03*
%TO.N,Net-(KH1-Pad10)*%
X93500000Y-9500000D03*
X93500000Y-25500000D03*
%TO.N,Net-(KH1-Pad9)*%
X92500000Y-8000000D03*
X92500000Y-27000000D03*
%TO.N,R2*%
X135000000Y-79500000D03*
X135000000Y-66500000D03*
%TO.N,R3*%
X132275000Y-68500000D03*
%TO.N,Net-(KN1-Pad7)*%
X102000000Y-63500000D03*
X96500000Y-53000000D03*
%TO.N,Net-(KN1-Pad6)*%
X95500000Y-49000000D03*
X94000000Y-65000000D03*
%TO.N,Net-(KT2_1-Pad6)*%
X74000000Y-71000000D03*
X74000000Y-68500000D03*
%TO.N,R1*%
X147500000Y-93000000D03*
X130000000Y-94500000D03*
%TO.N,R0*%
X84000000Y-86000000D03*
X115000000Y-87000000D03*
X115000000Y-93000000D03*
X145000000Y-95500000D03*
%TO.N,Net-(KTG_B1-Pad7)*%
X134000000Y-63500000D03*
X134000000Y-85500000D03*
%TO.N,Net-(KTG_B1-Pad6)*%
X133000000Y-65000000D03*
X133000000Y-84500000D03*
%TO.N,S2*%
X147000000Y-81000000D03*
%TO.N,S1*%
X145000000Y-79500000D03*
%TD*%
D24*
%TO.N,C0*%
X103810000Y-16040000D02*
X122810000Y-16040000D01*
X135827358Y-12040000D02*
X141810000Y-12040000D01*
X131827358Y-16040000D02*
X135827358Y-12040000D01*
X122810000Y-16040000D02*
X131827358Y-16040000D01*
X145810000Y-16040000D02*
X160810000Y-16040000D01*
X141810000Y-12040000D02*
X145810000Y-16040000D01*
X164810000Y-20040000D02*
X179810000Y-20040000D01*
X160810000Y-16040000D02*
X164810000Y-20040000D01*
X179810000Y-20040000D02*
X189270000Y-29500000D01*
X198770000Y-29500000D02*
X198810000Y-29540000D01*
X189270000Y-29500000D02*
X198770000Y-29500000D01*
X140310000Y-91810000D02*
X143530000Y-91810000D01*
X137500000Y-89000000D02*
X140310000Y-91810000D01*
X103350000Y-16500000D02*
X103810000Y-16040000D01*
X91500000Y-16500000D02*
X103350000Y-16500000D01*
%TO.N,R7*%
X182500000Y-53000000D02*
X164000000Y-53000000D01*
X183000000Y-53500000D02*
X182500000Y-53000000D01*
%TO.N,VCC*%
X155410000Y-79110000D02*
X158300000Y-82000000D01*
X151470000Y-79110000D02*
X155410000Y-79110000D01*
X150295001Y-77935001D02*
X151470000Y-79110000D01*
X140564999Y-77935001D02*
X150295001Y-77935001D01*
X140000000Y-78500000D02*
X140564999Y-77935001D01*
X140000000Y-78500000D02*
X137500000Y-78500000D01*
X140000000Y-97000000D02*
X137500000Y-97000000D01*
X154310000Y-78010000D02*
X155410000Y-79110000D01*
X154310000Y-73470000D02*
X154310000Y-78010000D01*
X114749990Y-5149990D02*
X116000000Y-6400000D01*
X149405012Y-6400000D02*
X154000000Y-6400000D01*
X144155002Y-1149990D02*
X149405012Y-6400000D01*
X168405012Y-10400000D02*
X173000000Y-10400000D01*
X163155002Y-5149990D02*
X168405012Y-10400000D01*
X190600000Y-18500000D02*
X192000000Y-19900000D01*
X188000000Y-18500000D02*
X190600000Y-18500000D01*
X103000000Y-28600000D02*
X108100000Y-28600000D01*
X108100000Y-28600000D02*
X109350010Y-29850010D01*
X123075001Y-29675001D02*
X134324999Y-29675001D01*
X122000000Y-28600000D02*
X123075001Y-29675001D01*
X135674999Y-27383999D02*
X137208988Y-25850010D01*
X135674999Y-28325001D02*
X135674999Y-27383999D01*
X134324999Y-29675001D02*
X135674999Y-28325001D01*
X141000000Y-24600000D02*
X143600000Y-24600000D01*
X143600000Y-24600000D02*
X148850010Y-29850010D01*
X160000000Y-28600000D02*
X163600000Y-28600000D01*
X163600000Y-28600000D02*
X168850010Y-33850010D01*
X114749990Y-43149990D02*
X116000000Y-44400000D01*
X148749990Y-39149990D02*
X154000000Y-44400000D01*
X167749990Y-43149990D02*
X173000000Y-48400000D01*
X110000000Y-66600000D02*
X116100000Y-66600000D01*
X116100000Y-66600000D02*
X117350010Y-67850010D01*
X111087588Y-81000000D02*
X111587588Y-81500000D01*
X122100000Y-81500000D02*
X123000000Y-82400000D01*
X111587588Y-81500000D02*
X122100000Y-81500000D01*
X92100000Y-70500000D02*
X104000000Y-82400000D01*
X82000000Y-70500000D02*
X92100000Y-70500000D01*
X133826998Y-66600000D02*
X129000000Y-66600000D01*
X134896998Y-65530000D02*
X133826998Y-66600000D01*
X141610000Y-65530000D02*
X134896998Y-65530000D01*
X118350010Y-67850010D02*
X118350010Y-70850010D01*
X118350010Y-70850010D02*
X118500000Y-71000000D01*
X117350010Y-67850010D02*
X118350010Y-67850010D01*
X117500000Y-83000000D02*
X119000000Y-81500000D01*
X103000000Y-28600000D02*
X103000000Y-30500000D01*
X102500000Y-42000000D02*
X101350010Y-43149990D01*
X95100000Y-6400000D02*
X95000000Y-6500000D01*
X97000000Y-6400000D02*
X95100000Y-6400000D01*
X116100000Y-66600000D02*
X115500000Y-66000000D01*
X110649990Y-43350010D02*
X110649990Y-43149990D01*
X109500000Y-44500000D02*
X110649990Y-43350010D01*
X110649990Y-43149990D02*
X114749990Y-43149990D01*
X101350010Y-43149990D02*
X110649990Y-43149990D01*
X141500001Y-80000001D02*
X140000000Y-78500000D01*
X143197203Y-80000001D02*
X141500001Y-80000001D01*
X147387202Y-84190000D02*
X143197203Y-80000001D01*
X151470000Y-84190000D02*
X147387202Y-84190000D01*
X97180022Y-5149990D02*
X114749990Y-5149990D01*
X96800000Y-5530012D02*
X97180022Y-5149990D01*
X96800000Y-6400000D02*
X96800000Y-5530012D01*
X135180022Y-1149990D02*
X144155002Y-1149990D01*
X134800000Y-1530012D02*
X135180022Y-1149990D01*
X134800000Y-2400000D02*
X134800000Y-1530012D01*
X132849990Y-4350010D02*
X134800000Y-2400000D01*
X116980002Y-4350010D02*
X132849990Y-4350010D01*
X115800000Y-5530012D02*
X116980002Y-4350010D01*
X115800000Y-6400000D02*
X115800000Y-5530012D01*
X154180022Y-5149990D02*
X163155002Y-5149990D01*
X153800000Y-5530012D02*
X154180022Y-5149990D01*
X153800000Y-6400000D02*
X153800000Y-5530012D01*
X173330012Y-9000000D02*
X184500000Y-9000000D01*
X172800000Y-9530012D02*
X173330012Y-9000000D01*
X172800000Y-10400000D02*
X172800000Y-9530012D01*
X122200000Y-29469988D02*
X122200000Y-28600000D01*
X121819978Y-29850010D02*
X122200000Y-29469988D01*
X109350010Y-29850010D02*
X121819978Y-29850010D01*
X141200000Y-25469988D02*
X141200000Y-24600000D01*
X140819978Y-25850010D02*
X141200000Y-25469988D01*
X137208988Y-25850010D02*
X140819978Y-25850010D01*
X160200000Y-29469988D02*
X160200000Y-28600000D01*
X159819978Y-29850010D02*
X160200000Y-29469988D01*
X148850010Y-29850010D02*
X159819978Y-29850010D01*
X180675001Y-37675001D02*
X186350010Y-43350010D01*
X180435999Y-37675001D02*
X180675001Y-37675001D01*
X179200000Y-36439002D02*
X180435999Y-37675001D01*
X179200000Y-32600000D02*
X179200000Y-36439002D01*
X179200000Y-33469988D02*
X179200000Y-32600000D01*
X178819978Y-33850010D02*
X179200000Y-33469988D01*
X168850010Y-33850010D02*
X178819978Y-33850010D01*
X197819978Y-43350010D02*
X186350010Y-43350010D01*
X198200000Y-42969988D02*
X197819978Y-43350010D01*
X198200000Y-42100000D02*
X198200000Y-42969988D01*
X97180022Y-43149990D02*
X101350010Y-43149990D01*
X96800000Y-43530012D02*
X97180022Y-43149990D01*
X96800000Y-44400000D02*
X96800000Y-43530012D01*
X125796002Y-40400000D02*
X134800000Y-40400000D01*
X124545501Y-41650501D02*
X125796002Y-40400000D01*
X117679511Y-41650501D02*
X124545501Y-41650501D01*
X115800000Y-43530012D02*
X117679511Y-41650501D01*
X115800000Y-44400000D02*
X115800000Y-43530012D01*
X154180022Y-43149990D02*
X167749990Y-43149990D01*
X153800000Y-43530012D02*
X154180022Y-43149990D01*
X153800000Y-44400000D02*
X153800000Y-43530012D01*
X129200000Y-67469988D02*
X129200000Y-66600000D01*
X128819978Y-67850010D02*
X129200000Y-67469988D01*
X118350010Y-67850010D02*
X128819978Y-67850010D01*
X103800000Y-81530012D02*
X104330012Y-81000000D01*
X103800000Y-82400000D02*
X103800000Y-81530012D01*
X104330012Y-81000000D02*
X111087588Y-81000000D01*
X55500000Y-72000000D02*
X60500000Y-67000000D01*
X55500000Y-80222455D02*
X55500000Y-72000000D01*
X58338498Y-83060953D02*
X55500000Y-80222455D01*
X60500000Y-67000000D02*
X80500000Y-67000000D01*
X58745518Y-83060953D02*
X58338498Y-83060953D01*
X59158854Y-82647617D02*
X58745518Y-83060953D01*
X79828520Y-70500000D02*
X82000000Y-70500000D01*
X79191469Y-71137051D02*
X79828520Y-70500000D01*
X135180022Y-39149990D02*
X148749990Y-39149990D01*
X134800000Y-39530012D02*
X135180022Y-39149990D01*
X134800000Y-40400000D02*
X134800000Y-39530012D01*
%TO.N,Net-(KBACKSPACE1-Pad6)*%
X188700000Y-21500000D02*
X191800000Y-21500000D01*
X179200000Y-12000000D02*
X188700000Y-21500000D01*
%TO.N,Net-(KBACKSPACE1-Pad7)*%
X179000000Y-13600000D02*
X179100000Y-13600000D01*
X188600000Y-23100000D02*
X192000000Y-23100000D01*
X179100000Y-13600000D02*
X188600000Y-23100000D01*
%TO.N,GND*%
X148930000Y-96890000D02*
X151470000Y-94350000D01*
X143530000Y-96890000D02*
X148930000Y-96890000D01*
X153950000Y-94350000D02*
X158300000Y-90000000D01*
X151470000Y-94350000D02*
X153950000Y-94350000D01*
X149230000Y-73470000D02*
X151770000Y-73470000D01*
X151770000Y-73470000D02*
X152740000Y-72500000D01*
X158420000Y-72500000D02*
X159390000Y-73470000D01*
X152740000Y-72500000D02*
X158420000Y-72500000D01*
X200900000Y-19900000D02*
X201000000Y-20000000D01*
X198000000Y-19900000D02*
X200900000Y-19900000D01*
X179600000Y-11000000D02*
X179000000Y-10400000D01*
X181500000Y-11000000D02*
X179600000Y-11000000D01*
X160100000Y-6500000D02*
X160000000Y-6400000D01*
X162000000Y-6500000D02*
X160100000Y-6500000D01*
X142900000Y-2400000D02*
X141000000Y-2400000D01*
X143500000Y-3000000D02*
X142900000Y-2400000D01*
X122100000Y-6500000D02*
X122000000Y-6400000D01*
X124500000Y-6500000D02*
X122100000Y-6500000D01*
X103100000Y-6500000D02*
X103000000Y-6400000D01*
X107000000Y-6500000D02*
X103100000Y-6500000D01*
X153900000Y-28500000D02*
X154000000Y-28600000D01*
X150500000Y-28500000D02*
X153900000Y-28500000D01*
X141100000Y-40500000D02*
X141000000Y-40400000D01*
X147000000Y-40500000D02*
X141100000Y-40500000D01*
X160100000Y-44500000D02*
X160000000Y-44400000D01*
X162000000Y-44500000D02*
X160100000Y-44500000D01*
X162000000Y-44500000D02*
X167000000Y-44500000D01*
X170100000Y-32600000D02*
X173000000Y-32600000D01*
X169000000Y-31500000D02*
X170100000Y-32600000D01*
X179000000Y-46500000D02*
X179000000Y-48400000D01*
X186900000Y-48400000D02*
X187000000Y-48500000D01*
X179000000Y-48400000D02*
X186900000Y-48400000D01*
X191900000Y-42000000D02*
X192000000Y-42100000D01*
X188000000Y-42000000D02*
X191900000Y-42000000D01*
X148000000Y-58000000D02*
X127500000Y-58000000D01*
X148500000Y-58500000D02*
X148000000Y-58000000D01*
X122100000Y-44500000D02*
X122000000Y-44400000D01*
X127500000Y-44500000D02*
X122100000Y-44500000D01*
X124000000Y-61500000D02*
X120500000Y-61500000D01*
X127500000Y-58000000D02*
X124000000Y-61500000D01*
X122900000Y-66500000D02*
X123000000Y-66600000D01*
X120500000Y-66500000D02*
X122900000Y-66500000D01*
X115900000Y-28500000D02*
X116000000Y-28600000D01*
X111000000Y-28500000D02*
X115900000Y-28500000D01*
X103100000Y-44500000D02*
X103000000Y-44400000D01*
X107000000Y-44500000D02*
X103100000Y-44500000D01*
X101058998Y-37000000D02*
X107000000Y-37000000D01*
X97000000Y-32941002D02*
X101058998Y-37000000D01*
X97000000Y-28600000D02*
X97000000Y-32941002D01*
X131600000Y-28000000D02*
X127500000Y-28000000D01*
X135000000Y-24600000D02*
X131600000Y-28000000D01*
X129100000Y-82500000D02*
X129000000Y-82400000D01*
X131500000Y-82500000D02*
X129100000Y-82500000D01*
X114400000Y-82400000D02*
X114500000Y-82500000D01*
X110000000Y-82400000D02*
X114400000Y-82400000D01*
X119500000Y-76000000D02*
X121000000Y-74500000D01*
X115500000Y-76000000D02*
X119500000Y-76000000D01*
X115500000Y-76000000D02*
X111000000Y-76000000D01*
X103900000Y-66500000D02*
X104000000Y-66600000D01*
X100000000Y-66500000D02*
X103900000Y-66500000D01*
X100000000Y-66500000D02*
X90000000Y-66500000D01*
X87500000Y-72500000D02*
X87500000Y-73065685D01*
X60500000Y-71500000D02*
X57679946Y-74320054D01*
X121169988Y-42500000D02*
X120500000Y-42500000D01*
X122200000Y-43530012D02*
X121169988Y-42500000D01*
X122200000Y-44400000D02*
X122200000Y-43530012D01*
X57632240Y-74367760D02*
X57679946Y-74320054D01*
X57632240Y-76432358D02*
X57632240Y-74367760D01*
X87500000Y-73229526D02*
X87500000Y-73065685D01*
X83377216Y-77352310D02*
X87500000Y-73229526D01*
X80718083Y-77352310D02*
X83377216Y-77352310D01*
%TO.N,CLK_L*%
X189538589Y-24674999D02*
X202174999Y-24674999D01*
X183538591Y-18675001D02*
X189538589Y-24674999D01*
X179824999Y-18064001D02*
X180435999Y-18675001D01*
X180435999Y-18675001D02*
X183538591Y-18675001D01*
X179824999Y-17324999D02*
X179824999Y-18064001D01*
X177674999Y-15174999D02*
X179824999Y-17324999D01*
X165325001Y-15174999D02*
X177674999Y-15174999D01*
X165000000Y-15500000D02*
X165325001Y-15174999D01*
X202174999Y-24674999D02*
X202500000Y-24349998D01*
X202500000Y-24349998D02*
X202500000Y-23000000D01*
X201000000Y-21500000D02*
X198000000Y-21500000D01*
X202500000Y-23000000D02*
X201000000Y-21500000D01*
%TO.N,S0_DL*%
X145140000Y-77000000D02*
X153000000Y-77000000D01*
X141610000Y-73470000D02*
X145140000Y-77000000D01*
X200900000Y-23100000D02*
X201000000Y-23000000D01*
X198000000Y-23100000D02*
X200900000Y-23100000D01*
X169205032Y-24000000D02*
X165725000Y-24000000D01*
X173355022Y-28149990D02*
X169205032Y-24000000D01*
X181886400Y-28149990D02*
X173355022Y-28149990D01*
X184348409Y-30611999D02*
X181886400Y-28149990D01*
X193164641Y-30611999D02*
X184348409Y-30611999D01*
X194052642Y-31500000D02*
X193164641Y-30611999D01*
X201500000Y-31500000D02*
X194052642Y-31500000D01*
%TO.N,Net-(KCOMMA1-Pad10)*%
X149800000Y-43600000D02*
X153800000Y-47600000D01*
X141200000Y-43600000D02*
X149800000Y-43600000D01*
%TO.N,Net-(KCOMMA1-Pad9)*%
X149800000Y-42000000D02*
X153800000Y-46000000D01*
X141200000Y-42000000D02*
X149800000Y-42000000D01*
%TO.N,Net-(KCOMMA1-Pad7)*%
X130800000Y-47600000D02*
X134800000Y-43600000D01*
X122200000Y-47600000D02*
X130800000Y-47600000D01*
%TO.N,Net-(KCOMMA1-Pad6)*%
X130800000Y-46000000D02*
X134800000Y-42000000D01*
X122200000Y-46000000D02*
X130800000Y-46000000D01*
%TO.N,C2*%
X103810000Y-54040000D02*
X122810000Y-54040000D01*
X135827358Y-50040000D02*
X141810000Y-50040000D01*
X131827358Y-54040000D02*
X135827358Y-50040000D01*
X122810000Y-54040000D02*
X131827358Y-54040000D01*
X141810000Y-50040000D02*
X147040000Y-50040000D01*
X151040000Y-54040000D02*
X160810000Y-54040000D01*
X147040000Y-50040000D02*
X151040000Y-54040000D01*
X160810000Y-54040000D02*
X164040000Y-54040000D01*
X168040000Y-58040000D02*
X179810000Y-58040000D01*
X164040000Y-54040000D02*
X168040000Y-58040000D01*
X143300000Y-86500000D02*
X143530000Y-86730000D01*
X140000000Y-86500000D02*
X143300000Y-86500000D01*
X84674842Y-69633730D02*
X85300069Y-69008503D01*
X70755242Y-69633730D02*
X84674842Y-69633730D01*
X66848469Y-73540503D02*
X70755242Y-69633730D01*
X97827358Y-54040000D02*
X103810000Y-54040000D01*
X91221258Y-60646100D02*
X97827358Y-54040000D01*
X91221258Y-63087314D02*
X91221258Y-60646100D01*
X85300069Y-69008503D02*
X91221258Y-63087314D01*
X111723998Y-81000000D02*
X135000000Y-81000000D01*
X109341999Y-78618001D02*
X111723998Y-81000000D01*
X109341999Y-69400997D02*
X109341999Y-78618001D01*
X107806506Y-67865504D02*
X109341999Y-69400997D01*
X86443068Y-67865504D02*
X107806506Y-67865504D01*
X85300069Y-69008503D02*
X86443068Y-67865504D01*
%TO.N,C1*%
X135827358Y-31040000D02*
X141810000Y-31040000D01*
X131827358Y-35040000D02*
X135827358Y-31040000D01*
X122810000Y-35040000D02*
X131827358Y-35040000D01*
X141810000Y-31040000D02*
X147540000Y-31040000D01*
X151540000Y-35040000D02*
X160810000Y-35040000D01*
X147540000Y-31040000D02*
X151540000Y-35040000D01*
X160810000Y-35040000D02*
X165040000Y-35040000D01*
X169040000Y-39040000D02*
X179810000Y-39040000D01*
X165040000Y-35040000D02*
X169040000Y-39040000D01*
X189310000Y-48540000D02*
X198810000Y-48540000D01*
X179810000Y-39040000D02*
X189310000Y-48540000D01*
X143260000Y-89000000D02*
X143530000Y-89270000D01*
X140000000Y-89000000D02*
X143260000Y-89000000D01*
X116949165Y-86850010D02*
X116549154Y-86449999D01*
X130850010Y-86850010D02*
X116949165Y-86850010D01*
X133000000Y-89000000D02*
X130850010Y-86850010D01*
X108460000Y-35040000D02*
X122810000Y-35040000D01*
X103810000Y-35040000D02*
X108460000Y-35040000D01*
%TO.N,Net-(KENTER1-Pad6)*%
X201491999Y-50008001D02*
X201500000Y-50000000D01*
X198105359Y-50008001D02*
X201491999Y-50008001D01*
X197709357Y-49611999D02*
X198105359Y-50008001D01*
X179388001Y-49611999D02*
X197709357Y-49611999D01*
X179000000Y-50000000D02*
X179388001Y-49611999D01*
X201500000Y-40500000D02*
X198000000Y-40500000D01*
%TO.N,Net-(KENTER1-Pad7)*%
X202451999Y-52548001D02*
X202500000Y-52500000D01*
X179948001Y-52548001D02*
X202451999Y-52548001D01*
X179000000Y-51600000D02*
X179948001Y-52548001D01*
X198100000Y-39000000D02*
X198000000Y-38900000D01*
X202500000Y-39000000D02*
X198100000Y-39000000D01*
%TO.N,Net-(KENTER1-Pad9)*%
X186305012Y-40500000D02*
X191800000Y-40500000D01*
X183949990Y-34855022D02*
X183949990Y-38144978D01*
X180094968Y-31000000D02*
X183949990Y-34855022D01*
X183949990Y-38144978D02*
X186305012Y-40500000D01*
X179200000Y-31000000D02*
X180094968Y-31000000D01*
%TO.N,Net-(KENTER1-Pad10)*%
X191800000Y-38605012D02*
X191800000Y-38900000D01*
X187844978Y-34649990D02*
X191800000Y-38605012D01*
X184449990Y-34649990D02*
X187844978Y-34649990D01*
X179200000Y-29400000D02*
X184449990Y-34649990D01*
%TO.N,Net-(KFSLASH1-Pad7)*%
X168800000Y-47600000D02*
X172800000Y-51600000D01*
X160200000Y-47600000D02*
X168800000Y-47600000D01*
%TO.N,Net-(KFSLASH1-Pad6)*%
X168800000Y-46000000D02*
X172800000Y-50000000D01*
X160200000Y-46000000D02*
X168800000Y-46000000D01*
%TO.N,R6*%
X179309499Y-62349499D02*
X180460000Y-63500000D01*
X162570501Y-62349499D02*
X179309499Y-62349499D01*
X159390000Y-65530000D02*
X162570501Y-62349499D01*
%TO.N,Net-(KH1-Pad10)*%
X93600000Y-9600000D02*
X93500000Y-9500000D01*
X96900000Y-25500000D02*
X97000000Y-25400000D01*
X93500000Y-25500000D02*
X96900000Y-25500000D01*
X96700000Y-9500000D02*
X96800000Y-9600000D01*
X93500000Y-9500000D02*
X96700000Y-9500000D01*
%TO.N,Net-(KH1-Pad9)*%
X92500000Y-27000000D02*
X97000000Y-27000000D01*
X92500000Y-8000000D02*
X96800000Y-8000000D01*
%TO.N,Net-(KH1-Pad7)*%
X103000000Y-25400000D02*
X116000000Y-25400000D01*
%TO.N,Net-(KH1-Pad6)*%
X103000000Y-27000000D02*
X116000000Y-27000000D01*
%TO.N,R2*%
X134849499Y-79650501D02*
X135000000Y-79500000D01*
X112610501Y-79650501D02*
X134849499Y-79650501D01*
X111460000Y-78500000D02*
X112610501Y-79650501D01*
X148260000Y-66500000D02*
X149230000Y-65530000D01*
X135000000Y-66500000D02*
X148260000Y-66500000D01*
%TO.N,Net-(KI1-Pad10)*%
X145000000Y-9600000D02*
X154000000Y-9600000D01*
X141000000Y-5600000D02*
X145000000Y-9600000D01*
%TO.N,Net-(KI1-Pad9)*%
X145200000Y-8000000D02*
X153800000Y-8000000D01*
X141200000Y-4000000D02*
X145200000Y-8000000D01*
%TO.N,Net-(KI1-Pad7)*%
X134800000Y-5960998D02*
X134800000Y-5600000D01*
X131160998Y-9600000D02*
X134800000Y-5960998D01*
X122200000Y-9600000D02*
X131160998Y-9600000D01*
%TO.N,Net-(KI1-Pad6)*%
X134800000Y-4014998D02*
X134800000Y-4000000D01*
X130814998Y-8000000D02*
X134800000Y-4014998D01*
X122200000Y-8000000D02*
X130814998Y-8000000D01*
%TO.N,R3*%
X148800000Y-68500000D02*
X151770000Y-65530000D01*
X132275000Y-68500000D02*
X148800000Y-68500000D01*
%TO.N,Net-(KJ1-Pad6)*%
X122000000Y-27000000D02*
X130500000Y-27000000D01*
X134500000Y-23000000D02*
X135000000Y-23000000D01*
X130500000Y-27000000D02*
X134500000Y-23000000D01*
%TO.N,Net-(KJ1-Pad7)*%
X130800000Y-25400000D02*
X134800000Y-21400000D01*
X122200000Y-25400000D02*
X130800000Y-25400000D01*
%TO.N,Net-(KK1-Pad6)*%
X153800000Y-26985002D02*
X153800000Y-27000000D01*
X149814998Y-23000000D02*
X153800000Y-26985002D01*
X141200000Y-23000000D02*
X149814998Y-23000000D01*
%TO.N,Net-(KK1-Pad7)*%
X150000000Y-21400000D02*
X154000000Y-25400000D01*
X141000000Y-21400000D02*
X150000000Y-21400000D01*
%TO.N,Net-(KL1-Pad6)*%
X172800000Y-30985002D02*
X172800000Y-31000000D01*
X168814998Y-27000000D02*
X172800000Y-30985002D01*
X160200000Y-27000000D02*
X168814998Y-27000000D01*
%TO.N,Net-(KL1-Pad7)*%
X169000000Y-25400000D02*
X173000000Y-29400000D01*
X160000000Y-25400000D02*
X169000000Y-25400000D01*
%TO.N,Net-(KM1-Pad6)*%
X103000000Y-46000000D02*
X116000000Y-46000000D01*
%TO.N,Net-(KM1-Pad7)*%
X103000000Y-47600000D02*
X116000000Y-47600000D01*
%TO.N,Net-(KN1-Pad7)*%
X103900000Y-63500000D02*
X104000000Y-63400000D01*
X102000000Y-63500000D02*
X103900000Y-63500000D01*
X96800000Y-52700000D02*
X96500000Y-53000000D01*
X96800000Y-47600000D02*
X96800000Y-52700000D01*
%TO.N,Net-(KN1-Pad6)*%
X94000000Y-65000000D02*
X104000000Y-65000000D01*
X95500000Y-47300000D02*
X96800000Y-46000000D01*
X95500000Y-49000000D02*
X95500000Y-47300000D01*
%TO.N,Net-(KO1-Pad9)*%
X164200000Y-12000000D02*
X172800000Y-12000000D01*
X160200000Y-8000000D02*
X164200000Y-12000000D01*
%TO.N,Net-(KO1-Pad10)*%
X164000000Y-13600000D02*
X173000000Y-13600000D01*
X160000000Y-9600000D02*
X164000000Y-13600000D01*
%TO.N,Net-(KT2_1-Pad10)*%
X103669229Y-85269229D02*
X104000000Y-85600000D01*
X84764066Y-85269229D02*
X103669229Y-85269229D01*
X77610454Y-78115617D02*
X84764066Y-85269229D01*
%TO.N,Net-(KT2_1-Pad9)*%
X96795070Y-76995070D02*
X103800000Y-84000000D01*
X84370866Y-76995070D02*
X96795070Y-76995070D01*
X83083782Y-78282154D02*
X84370866Y-76995070D01*
X79712459Y-78282154D02*
X83083782Y-78282154D01*
X79164269Y-77733964D02*
X79712459Y-78282154D01*
%TO.N,Net-(KT2_1-Pad7)*%
X73571081Y-72094585D02*
X70215724Y-75449942D01*
X60958978Y-75449942D02*
X70215724Y-75449942D01*
X60739869Y-75669051D02*
X60958978Y-75449942D01*
X75889613Y-72094585D02*
X76083840Y-71900358D01*
X73571081Y-72094585D02*
X75889613Y-72094585D01*
%TO.N,Net-(KT2_1-Pad6)*%
X66221897Y-68500000D02*
X67000000Y-68500000D01*
X59186054Y-75535843D02*
X66221897Y-68500000D01*
X59186054Y-76050704D02*
X59186054Y-75535843D01*
X67000000Y-68500000D02*
X66720084Y-68500000D01*
X74000000Y-68500000D02*
X67000000Y-68500000D01*
X76718951Y-70600001D02*
X77637654Y-71518704D01*
X74399999Y-70600001D02*
X76718951Y-70600001D01*
X74000000Y-71000000D02*
X74399999Y-70600001D01*
%TO.N,R1*%
X85855000Y-90300750D02*
X89655750Y-86500000D01*
X107071999Y-93111999D02*
X111460000Y-97500000D01*
X103872997Y-93111999D02*
X107071999Y-93111999D01*
X97260998Y-86500000D02*
X103872997Y-93111999D01*
X89655750Y-86500000D02*
X97260998Y-86500000D01*
X131500000Y-93000000D02*
X130000000Y-94500000D01*
X147500000Y-93000000D02*
X131500000Y-93000000D01*
%TO.N,R0*%
X98397408Y-87000000D02*
X115000000Y-87000000D01*
X97397408Y-86000000D02*
X98397408Y-87000000D01*
X84000000Y-86000000D02*
X97397408Y-86000000D01*
X125960000Y-93000000D02*
X130460000Y-97500000D01*
X115000000Y-93000000D02*
X125960000Y-93000000D01*
X132460000Y-95500000D02*
X130460000Y-97500000D01*
X145000000Y-95500000D02*
X132460000Y-95500000D01*
%TO.N,Net-(KTG_A1-Pad7)*%
X110000000Y-63400000D02*
X123000000Y-63400000D01*
%TO.N,Net-(KTG_A1-Pad6)*%
X110000000Y-65000000D02*
X123000000Y-65000000D01*
%TO.N,C3*%
X110810000Y-73040000D02*
X129810000Y-73040000D01*
X110810000Y-92040000D02*
X129810000Y-92040000D01*
X139810000Y-84190000D02*
X143530000Y-84190000D01*
X137500000Y-86500000D02*
X139810000Y-84190000D01*
X131960000Y-92040000D02*
X137500000Y-86500000D01*
X129810000Y-92040000D02*
X131960000Y-92040000D01*
X139810000Y-83040000D02*
X139810000Y-84190000D01*
X129810000Y-73040000D02*
X139810000Y-83040000D01*
%TO.N,Net-(KTG_B1-Pad7)*%
X133900000Y-63400000D02*
X134000000Y-63500000D01*
X129000000Y-63400000D02*
X133900000Y-63400000D01*
X129100000Y-85500000D02*
X129000000Y-85600000D01*
X134000000Y-85500000D02*
X129100000Y-85500000D01*
%TO.N,Net-(KTG_B1-Pad6)*%
X129000000Y-65000000D02*
X133000000Y-65000000D01*
X129500000Y-84500000D02*
X129000000Y-84000000D01*
X133000000Y-84500000D02*
X129500000Y-84500000D01*
%TO.N,Net-(KTG_C1-Pad9)*%
X123000000Y-84000000D02*
X110000000Y-84000000D01*
%TO.N,Net-(KTG_C1-Pad10)*%
X123000000Y-85600000D02*
X110000000Y-85600000D01*
%TO.N,Net-(KU1-Pad6)*%
X103000000Y-8000000D02*
X116000000Y-8000000D01*
%TO.N,Net-(KU1-Pad7)*%
X103000000Y-9600000D02*
X116000000Y-9600000D01*
%TO.N,RX*%
X151470000Y-96890000D02*
X155610000Y-96890000D01*
X155610000Y-96890000D02*
X160500000Y-92000000D01*
X160500000Y-88700000D02*
X158300000Y-86500000D01*
X160500000Y-92000000D02*
X160500000Y-88700000D01*
%TO.N,CLK_C*%
X155120001Y-87620001D02*
X155500000Y-88000000D01*
X149500001Y-87620001D02*
X155120001Y-87620001D01*
X143530000Y-81650000D02*
X149500001Y-87620001D01*
%TO.N,SH_LD*%
X152799999Y-83299999D02*
X155500000Y-86000000D01*
X147719999Y-83299999D02*
X152799999Y-83299999D01*
X143530000Y-79110000D02*
X147719999Y-83299999D01*
%TO.N,S2*%
X154349989Y-82849989D02*
X155500000Y-84000000D01*
X148849989Y-82849989D02*
X154349989Y-82849989D01*
X147000000Y-81000000D02*
X148849989Y-82849989D01*
%TO.N,S1*%
X153079999Y-82000000D02*
X155500000Y-82000000D01*
X150579999Y-79500000D02*
X153079999Y-82000000D01*
X145000000Y-79500000D02*
X150579999Y-79500000D01*
%TD*%
M02*
