%TF.GenerationSoftware,KiCad,Pcbnew,(5.1.10)-1*%
%TF.CreationDate,2021-08-19T22:55:08-05:00*%
%TF.ProjectId,RightHand,52696768-7448-4616-9e64-2e6b69636164,rev?*%
%TF.SameCoordinates,Original*%
%TF.FileFunction,Soldermask,Bot*%
%TF.FilePolarity,Negative*%
%FSLAX46Y46*%
G04 Gerber Fmt 4.6, Leading zero omitted, Abs format (unit mm)*
G04 Created by KiCad (PCBNEW (5.1.10)-1) date 2021-08-19 22:55:08*
%MOMM*%
%LPD*%
G01*
G04 APERTURE LIST*
%ADD10C,1.130000*%
%ADD11R,1.130000X1.130000*%
%ADD12C,1.500000*%
%ADD13O,1.000000X2.500000*%
%ADD14C,4.000000*%
%ADD15C,1.700000*%
%ADD16C,2.286000*%
%ADD17C,1.651000*%
%ADD18R,1.651000X1.651000*%
%ADD19R,1.000000X1.000000*%
%ADD20C,3.050000*%
%ADD21C,0.100000*%
G04 APERTURE END LIST*
D10*
%TO.C,UREG1*%
X151470000Y-79110000D03*
X151470000Y-81650000D03*
X151470000Y-84190000D03*
X151470000Y-86730000D03*
X151470000Y-89270000D03*
X151470000Y-91810000D03*
X151470000Y-94350000D03*
X151470000Y-96890000D03*
X143530000Y-96890000D03*
X143530000Y-94350000D03*
X143530000Y-91810000D03*
X143530000Y-89270000D03*
X143530000Y-86730000D03*
X143530000Y-84190000D03*
X143530000Y-81650000D03*
D11*
X143530000Y-79110000D03*
%TD*%
D10*
%TO.C,UDEMUX1*%
X141610000Y-65530000D03*
X144150000Y-65530000D03*
X146690000Y-65530000D03*
X149230000Y-65530000D03*
X151770000Y-65530000D03*
X154310000Y-65530000D03*
X156850000Y-65530000D03*
X159390000Y-65530000D03*
X159390000Y-73470000D03*
X156850000Y-73470000D03*
X154310000Y-73470000D03*
X151770000Y-73470000D03*
X149230000Y-73470000D03*
X146690000Y-73470000D03*
X144150000Y-73470000D03*
D11*
X141610000Y-73470000D03*
%TD*%
D12*
%TO.C,UD9*%
X155500000Y-82000000D03*
X155500000Y-84000000D03*
X155500000Y-86000000D03*
X155500000Y-88000000D03*
X155500000Y-90000000D03*
X158300000Y-90000000D03*
X158300000Y-82000000D03*
X158300000Y-84500000D03*
X158300000Y-86500000D03*
D13*
X161650000Y-86000000D03*
%TD*%
D10*
%TO.C,R3*%
X137500000Y-78500000D03*
X137500000Y-86500000D03*
%TD*%
%TO.C,R2*%
X140000000Y-78500000D03*
X140000000Y-86500000D03*
%TD*%
%TO.C,R1*%
X140000000Y-97000000D03*
X140000000Y-89000000D03*
%TD*%
%TO.C,R0*%
X137500000Y-89000000D03*
X137500000Y-97000000D03*
%TD*%
D14*
%TO.C,KY1*%
X100000000Y-13500000D03*
D15*
X95000000Y-13500000D03*
X105000000Y-13500000D03*
D16*
X103810000Y-16040000D03*
X97460000Y-18580000D03*
D17*
X97460000Y-21500000D03*
D18*
X104460000Y-21500000D03*
D19*
X96800000Y-6400000D03*
X96800000Y-8000000D03*
X96800000Y-9600000D03*
X103200000Y-6400000D03*
X103200000Y-8000000D03*
X103200000Y-9600000D03*
%TD*%
D14*
%TO.C,KU1*%
X119000000Y-13500000D03*
D15*
X114000000Y-13500000D03*
X124000000Y-13500000D03*
D16*
X122810000Y-16040000D03*
X116460000Y-18580000D03*
D17*
X116460000Y-21500000D03*
D18*
X123460000Y-21500000D03*
D19*
X115800000Y-6400000D03*
X115800000Y-8000000D03*
X115800000Y-9600000D03*
X122200000Y-6400000D03*
X122200000Y-8000000D03*
X122200000Y-9600000D03*
%TD*%
D14*
%TO.C,KTG_D1*%
X126000000Y-89500000D03*
D15*
X121000000Y-89500000D03*
X131000000Y-89500000D03*
D16*
X129810000Y-92040000D03*
X123460000Y-94580000D03*
D17*
X123460000Y-97500000D03*
D18*
X130460000Y-97500000D03*
D19*
X122800000Y-82400000D03*
X122800000Y-84000000D03*
X122800000Y-85600000D03*
X129200000Y-82400000D03*
X129200000Y-84000000D03*
X129200000Y-85600000D03*
%TD*%
D14*
%TO.C,KTG_C1*%
X107000000Y-89500000D03*
D15*
X102000000Y-89500000D03*
X112000000Y-89500000D03*
D16*
X110810000Y-92040000D03*
X104460000Y-94580000D03*
D17*
X104460000Y-97500000D03*
D18*
X111460000Y-97500000D03*
D19*
X103800000Y-82400000D03*
X103800000Y-84000000D03*
X103800000Y-85600000D03*
X110200000Y-82400000D03*
X110200000Y-84000000D03*
X110200000Y-85600000D03*
%TD*%
D14*
%TO.C,KTG_B1*%
X126000000Y-70500000D03*
D15*
X121000000Y-70500000D03*
X131000000Y-70500000D03*
D16*
X129810000Y-73040000D03*
X123460000Y-75580000D03*
D17*
X123460000Y-78500000D03*
D18*
X130460000Y-78500000D03*
D19*
X129200000Y-66600000D03*
X129200000Y-65000000D03*
X129200000Y-63400000D03*
X122800000Y-66600000D03*
X122800000Y-65000000D03*
X122800000Y-63400000D03*
%TD*%
D14*
%TO.C,KTG_A1*%
X107000000Y-70500000D03*
D15*
X102000000Y-70500000D03*
X112000000Y-70500000D03*
D16*
X110810000Y-73040000D03*
X104460000Y-75580000D03*
D17*
X104460000Y-78500000D03*
D18*
X111460000Y-78500000D03*
D19*
X110200000Y-66600000D03*
X110200000Y-65000000D03*
X110200000Y-63400000D03*
X103800000Y-66600000D03*
X103800000Y-65000000D03*
X103800000Y-63400000D03*
%TD*%
D14*
%TO.C,KSEMICOLON1*%
X176000000Y-36500000D03*
D15*
X171000000Y-36500000D03*
X181000000Y-36500000D03*
D16*
X179810000Y-39040000D03*
X173460000Y-41580000D03*
D17*
X173460000Y-44500000D03*
D18*
X180460000Y-44500000D03*
D19*
X179200000Y-32600000D03*
X179200000Y-31000000D03*
X179200000Y-29400000D03*
X172800000Y-32600000D03*
X172800000Y-31000000D03*
X172800000Y-29400000D03*
%TD*%
D14*
%TO.C,KPERIOD1*%
X157000000Y-51500000D03*
D15*
X152000000Y-51500000D03*
X162000000Y-51500000D03*
D16*
X160810000Y-54040000D03*
X154460000Y-56580000D03*
D17*
X154460000Y-59500000D03*
D18*
X161460000Y-59500000D03*
D19*
X153800000Y-44400000D03*
X153800000Y-46000000D03*
X153800000Y-47600000D03*
X160200000Y-44400000D03*
X160200000Y-46000000D03*
X160200000Y-47600000D03*
%TD*%
D14*
%TO.C,KP1*%
X176000000Y-17500000D03*
D15*
X171000000Y-17500000D03*
X181000000Y-17500000D03*
D16*
X179810000Y-20040000D03*
X173460000Y-22580000D03*
D17*
X173460000Y-25500000D03*
D18*
X180460000Y-25500000D03*
D19*
X172800000Y-10400000D03*
X172800000Y-12000000D03*
X172800000Y-13600000D03*
X179200000Y-10400000D03*
X179200000Y-12000000D03*
X179200000Y-13600000D03*
%TD*%
D14*
%TO.C,KO1*%
X157000000Y-13500000D03*
D15*
X152000000Y-13500000D03*
X162000000Y-13500000D03*
D16*
X160810000Y-16040000D03*
X154460000Y-18580000D03*
D17*
X154460000Y-21500000D03*
D18*
X161460000Y-21500000D03*
D19*
X153800000Y-6400000D03*
X153800000Y-8000000D03*
X153800000Y-9600000D03*
X160200000Y-6400000D03*
X160200000Y-8000000D03*
X160200000Y-9600000D03*
%TD*%
D14*
%TO.C,KN1*%
X100000000Y-51500000D03*
D15*
X95000000Y-51500000D03*
X105000000Y-51500000D03*
D16*
X103810000Y-54040000D03*
X97460000Y-56580000D03*
D17*
X97460000Y-59500000D03*
D18*
X104460000Y-59500000D03*
D19*
X96800000Y-44400000D03*
X96800000Y-46000000D03*
X96800000Y-47600000D03*
X103200000Y-44400000D03*
X103200000Y-46000000D03*
X103200000Y-47600000D03*
%TD*%
D14*
%TO.C,KM1*%
X119000000Y-51500000D03*
D15*
X114000000Y-51500000D03*
X124000000Y-51500000D03*
D16*
X122810000Y-54040000D03*
X116460000Y-56580000D03*
D17*
X116460000Y-59500000D03*
D18*
X123460000Y-59500000D03*
D19*
X115800000Y-44400000D03*
X115800000Y-46000000D03*
X115800000Y-47600000D03*
X122200000Y-44400000D03*
X122200000Y-46000000D03*
X122200000Y-47600000D03*
%TD*%
D14*
%TO.C,KL1*%
X157000000Y-32500000D03*
D15*
X152000000Y-32500000D03*
X162000000Y-32500000D03*
D16*
X160810000Y-35040000D03*
X154460000Y-37580000D03*
D17*
X154460000Y-40500000D03*
D18*
X161460000Y-40500000D03*
D19*
X160200000Y-28600000D03*
X160200000Y-27000000D03*
X160200000Y-25400000D03*
X153800000Y-28600000D03*
X153800000Y-27000000D03*
X153800000Y-25400000D03*
%TD*%
D14*
%TO.C,KK1*%
X138000000Y-28500000D03*
D15*
X133000000Y-28500000D03*
X143000000Y-28500000D03*
D16*
X141810000Y-31040000D03*
X135460000Y-33580000D03*
D17*
X135460000Y-36500000D03*
D18*
X142460000Y-36500000D03*
D19*
X141200000Y-24600000D03*
X141200000Y-23000000D03*
X141200000Y-21400000D03*
X134800000Y-24600000D03*
X134800000Y-23000000D03*
X134800000Y-21400000D03*
%TD*%
D14*
%TO.C,KJ1*%
X119000000Y-32500000D03*
D15*
X114000000Y-32500000D03*
X124000000Y-32500000D03*
D16*
X122810000Y-35040000D03*
X116460000Y-37580000D03*
D17*
X116460000Y-40500000D03*
D18*
X123460000Y-40500000D03*
D19*
X122200000Y-28600000D03*
X122200000Y-27000000D03*
X122200000Y-25400000D03*
X115800000Y-28600000D03*
X115800000Y-27000000D03*
X115800000Y-25400000D03*
%TD*%
D14*
%TO.C,KI1*%
X138000000Y-9500000D03*
D15*
X133000000Y-9500000D03*
X143000000Y-9500000D03*
D16*
X141810000Y-12040000D03*
X135460000Y-14580000D03*
D17*
X135460000Y-17500000D03*
D18*
X142460000Y-17500000D03*
D19*
X134800000Y-2400000D03*
X134800000Y-4000000D03*
X134800000Y-5600000D03*
X141200000Y-2400000D03*
X141200000Y-4000000D03*
X141200000Y-5600000D03*
%TD*%
D14*
%TO.C,KH1*%
X100000000Y-32500000D03*
D15*
X95000000Y-32500000D03*
X105000000Y-32500000D03*
D16*
X103810000Y-35040000D03*
X97460000Y-37580000D03*
D17*
X97460000Y-40500000D03*
D18*
X104460000Y-40500000D03*
D19*
X103200000Y-28600000D03*
X103200000Y-27000000D03*
X103200000Y-25400000D03*
X96800000Y-28600000D03*
X96800000Y-27000000D03*
X96800000Y-25400000D03*
%TD*%
D14*
%TO.C,KFSLASH1*%
X176000000Y-55500000D03*
D15*
X171000000Y-55500000D03*
X181000000Y-55500000D03*
D16*
X179810000Y-58040000D03*
X173460000Y-60580000D03*
D17*
X173460000Y-63500000D03*
D18*
X180460000Y-63500000D03*
D19*
X172800000Y-48400000D03*
X172800000Y-50000000D03*
X172800000Y-51600000D03*
X179200000Y-48400000D03*
X179200000Y-50000000D03*
X179200000Y-51600000D03*
%TD*%
D14*
%TO.C,KENTER1*%
X195000000Y-46000000D03*
D15*
X190000000Y-46000000D03*
X200000000Y-46000000D03*
D16*
X198810000Y-48540000D03*
X192460000Y-51080000D03*
D17*
X192460000Y-54000000D03*
D18*
X199460000Y-54000000D03*
D19*
X198200000Y-42100000D03*
X198200000Y-40500000D03*
X198200000Y-38900000D03*
X191800000Y-42100000D03*
X191800000Y-40500000D03*
X191800000Y-38900000D03*
%TD*%
D14*
%TO.C,KCOMMA1*%
X138000000Y-47500000D03*
D15*
X133000000Y-47500000D03*
X143000000Y-47500000D03*
D16*
X141810000Y-50040000D03*
X135460000Y-52580000D03*
D17*
X135460000Y-55500000D03*
D18*
X142460000Y-55500000D03*
D19*
X134800000Y-40400000D03*
X134800000Y-42000000D03*
X134800000Y-43600000D03*
X141200000Y-40400000D03*
X141200000Y-42000000D03*
X141200000Y-43600000D03*
%TD*%
D14*
%TO.C,KBACKSPACE1*%
X195000000Y-27000000D03*
D15*
X190000000Y-27000000D03*
X200000000Y-27000000D03*
D16*
X198810000Y-29540000D03*
X192460000Y-32080000D03*
D17*
X192460000Y-35000000D03*
D18*
X199460000Y-35000000D03*
D19*
X191800000Y-19900000D03*
X191800000Y-21500000D03*
X191800000Y-23100000D03*
X198200000Y-19900000D03*
X198200000Y-21500000D03*
X198200000Y-23100000D03*
%TD*%
D14*
%TO.C,KT2_1*%
X88896257Y-59753541D03*
X94592436Y-82944228D03*
D20*
X79792350Y-86579478D03*
X74096171Y-63388791D03*
D14*
X83742200Y-73314400D03*
D15*
X84934867Y-78170071D03*
X82549533Y-68458729D03*
D16*
X85300069Y-69008503D03*
X89281437Y-74569331D03*
D17*
X92730631Y-88611933D03*
D21*
G36*
X86853581Y-90905512D02*
G01*
X85250238Y-91299331D01*
X84856419Y-89695988D01*
X86459762Y-89302169D01*
X86853581Y-90905512D01*
G37*
G36*
X79796303Y-71503351D02*
G01*
X78825169Y-71741885D01*
X78586635Y-70770751D01*
X79557769Y-70532217D01*
X79796303Y-71503351D01*
G37*
G36*
X78242488Y-71885004D02*
G01*
X77271354Y-72123538D01*
X77032820Y-71152404D01*
X78003954Y-70913870D01*
X78242488Y-71885004D01*
G37*
G36*
X76688674Y-72266658D02*
G01*
X75717540Y-72505192D01*
X75479006Y-71534058D01*
X76450140Y-71295524D01*
X76688674Y-72266658D01*
G37*
G36*
X81322917Y-77718610D02*
G01*
X80351783Y-77957144D01*
X80113249Y-76986010D01*
X81084383Y-76747476D01*
X81322917Y-77718610D01*
G37*
G36*
X79769103Y-78100264D02*
G01*
X78797969Y-78338798D01*
X78559435Y-77367664D01*
X79530569Y-77129130D01*
X79769103Y-78100264D01*
G37*
G36*
X78215288Y-78481917D02*
G01*
X77244154Y-78720451D01*
X77005620Y-77749317D01*
X77976754Y-77510783D01*
X78215288Y-78481917D01*
G37*
%TD*%
D20*
%TO.C,KT2_2*%
X74936629Y-87772009D03*
X69240450Y-64581322D03*
D14*
X60136543Y-91407259D03*
X54440364Y-68216572D03*
X65290600Y-77846400D03*
D15*
X66483267Y-82702071D03*
X64097933Y-72990729D03*
D16*
X66848469Y-73540503D03*
X70829837Y-79101331D03*
D17*
X73665549Y-78404813D03*
D21*
G36*
X72994396Y-72211635D02*
G01*
X71391053Y-72605454D01*
X70997234Y-71002111D01*
X72600577Y-70608292D01*
X72994396Y-72211635D01*
G37*
G36*
X59763688Y-83013917D02*
G01*
X58792554Y-83252451D01*
X58554020Y-82281317D01*
X59525154Y-82042783D01*
X59763688Y-83013917D01*
G37*
G36*
X61317503Y-82632264D02*
G01*
X60346369Y-82870798D01*
X60107835Y-81899664D01*
X61078969Y-81661130D01*
X61317503Y-82632264D01*
G37*
G36*
X62871317Y-82250610D02*
G01*
X61900183Y-82489144D01*
X61661649Y-81518010D01*
X62632783Y-81279476D01*
X62871317Y-82250610D01*
G37*
G36*
X58237074Y-76798658D02*
G01*
X57265940Y-77037192D01*
X57027406Y-76066058D01*
X57998540Y-75827524D01*
X58237074Y-76798658D01*
G37*
G36*
X59790888Y-76417004D02*
G01*
X58819754Y-76655538D01*
X58581220Y-75684404D01*
X59552354Y-75445870D01*
X59790888Y-76417004D01*
G37*
G36*
X61344703Y-76035351D02*
G01*
X60373569Y-76273885D01*
X60135035Y-75302751D01*
X61106169Y-75064217D01*
X61344703Y-76035351D01*
G37*
%TD*%
M02*
