G04 (created by PCBNEW (2013-07-07 BZR 4022)-stable) date 11/1/2014 6:00:42 PM*
%MOIN*%
G04 Gerber Fmt 3.4, Leading zero omitted, Abs format*
%FSLAX34Y34*%
G01*
G70*
G90*
G04 APERTURE LIST*
%ADD10C,0.00590551*%
%ADD11C,0.09*%
%ADD12C,0.157*%
%ADD13C,0.065*%
%ADD14R,0.065X0.065*%
%ADD15R,0.06X0.06*%
%ADD16C,0.06*%
%ADD17C,0.035*%
%ADD18C,0.01*%
G04 APERTURE END LIST*
G54D10*
G54D11*
X46669Y-15716D03*
X44169Y-16716D03*
G54D12*
X45669Y-17716D03*
G54D13*
X42169Y-16716D03*
G54D14*
X42169Y-19716D03*
G54D13*
X45169Y-19716D03*
G54D14*
X46169Y-19716D03*
X43700Y-21216D03*
G54D13*
X47637Y-21216D03*
G54D11*
X57692Y-34220D03*
X55192Y-35220D03*
G54D12*
X56692Y-36220D03*
G54D13*
X53192Y-35220D03*
G54D14*
X53192Y-38220D03*
G54D13*
X56192Y-38220D03*
G54D14*
X57192Y-38220D03*
X54724Y-39720D03*
G54D13*
X58661Y-39720D03*
G54D11*
X52181Y-41700D03*
X49681Y-42700D03*
G54D12*
X51181Y-43700D03*
G54D13*
X47681Y-42700D03*
G54D14*
X47681Y-45700D03*
G54D13*
X50681Y-45700D03*
G54D14*
X51681Y-45700D03*
X49212Y-47200D03*
G54D13*
X53149Y-47200D03*
G54D11*
X48244Y-49181D03*
X45744Y-50181D03*
G54D12*
X47244Y-51181D03*
G54D13*
X43744Y-50181D03*
G54D14*
X43744Y-53181D03*
G54D13*
X46744Y-53181D03*
G54D14*
X47744Y-53181D03*
X45275Y-54681D03*
G54D13*
X49212Y-54681D03*
G54D11*
X28165Y-56661D03*
X25665Y-57661D03*
G54D12*
X27165Y-58661D03*
G54D13*
X23665Y-57661D03*
G54D14*
X23665Y-60661D03*
G54D13*
X26665Y-60661D03*
G54D14*
X27665Y-60661D03*
X25196Y-62161D03*
G54D13*
X29133Y-62161D03*
G54D11*
X54149Y-15716D03*
X51649Y-16716D03*
G54D12*
X53149Y-17716D03*
G54D13*
X49649Y-16716D03*
G54D14*
X49649Y-19716D03*
G54D13*
X52649Y-19716D03*
G54D14*
X53649Y-19716D03*
X51181Y-21216D03*
G54D13*
X55118Y-21216D03*
G54D11*
X46669Y-26740D03*
X44169Y-27740D03*
G54D12*
X45669Y-28740D03*
G54D13*
X42169Y-27740D03*
G54D14*
X42169Y-30740D03*
G54D13*
X45169Y-30740D03*
G54D14*
X46169Y-30740D03*
X43700Y-32240D03*
G54D13*
X47637Y-32240D03*
G54D11*
X50212Y-34220D03*
X47712Y-35220D03*
G54D12*
X49212Y-36220D03*
G54D13*
X45712Y-35220D03*
G54D14*
X45712Y-38220D03*
G54D13*
X48712Y-38220D03*
G54D14*
X49712Y-38220D03*
X47244Y-39720D03*
G54D13*
X51181Y-39720D03*
G54D11*
X44700Y-41700D03*
X42200Y-42700D03*
G54D12*
X43700Y-43700D03*
G54D13*
X40200Y-42700D03*
G54D14*
X40200Y-45700D03*
G54D13*
X43200Y-45700D03*
G54D14*
X44200Y-45700D03*
X41732Y-47200D03*
G54D13*
X45669Y-47200D03*
G54D11*
X40763Y-49181D03*
X38263Y-50181D03*
G54D12*
X39763Y-51181D03*
G54D13*
X36263Y-50181D03*
G54D14*
X36263Y-53181D03*
G54D13*
X39263Y-53181D03*
G54D14*
X40263Y-53181D03*
X37795Y-54681D03*
G54D13*
X41732Y-54681D03*
G54D11*
X84070Y-15716D03*
X81570Y-16716D03*
G54D12*
X83070Y-17716D03*
G54D13*
X79570Y-16716D03*
G54D14*
X79570Y-19716D03*
G54D13*
X82570Y-19716D03*
G54D14*
X83570Y-19716D03*
X81102Y-21216D03*
G54D13*
X85039Y-21216D03*
G54D11*
X39188Y-26740D03*
X36688Y-27740D03*
G54D12*
X38188Y-28740D03*
G54D13*
X34688Y-27740D03*
G54D14*
X34688Y-30740D03*
G54D13*
X37688Y-30740D03*
G54D14*
X38688Y-30740D03*
X36220Y-32240D03*
G54D13*
X40157Y-32240D03*
G54D11*
X42732Y-34220D03*
X40232Y-35220D03*
G54D12*
X41732Y-36220D03*
G54D13*
X38232Y-35220D03*
G54D14*
X38232Y-38220D03*
G54D13*
X41232Y-38220D03*
G54D14*
X42232Y-38220D03*
X39763Y-39720D03*
G54D13*
X43700Y-39720D03*
G54D11*
X37220Y-41700D03*
X34720Y-42700D03*
G54D12*
X36220Y-43700D03*
G54D13*
X32720Y-42700D03*
G54D14*
X32720Y-45700D03*
G54D13*
X35720Y-45700D03*
G54D14*
X36720Y-45700D03*
X34251Y-47200D03*
G54D13*
X38188Y-47200D03*
G54D11*
X33283Y-49181D03*
X30783Y-50181D03*
G54D12*
X32283Y-51181D03*
G54D13*
X28783Y-50181D03*
G54D14*
X28783Y-53181D03*
G54D13*
X31783Y-53181D03*
G54D14*
X32783Y-53181D03*
X30314Y-54681D03*
G54D13*
X34251Y-54681D03*
G54D11*
X39188Y-15716D03*
X36688Y-16716D03*
G54D12*
X38188Y-17716D03*
G54D13*
X34688Y-16716D03*
G54D14*
X34688Y-19716D03*
G54D13*
X37688Y-19716D03*
G54D14*
X38688Y-19716D03*
X36220Y-21216D03*
G54D13*
X40157Y-21216D03*
G54D11*
X31708Y-26740D03*
X29208Y-27740D03*
G54D12*
X30708Y-28740D03*
G54D13*
X27208Y-27740D03*
G54D14*
X27208Y-30740D03*
G54D13*
X30208Y-30740D03*
G54D14*
X31208Y-30740D03*
X28740Y-32240D03*
G54D13*
X32677Y-32240D03*
G54D11*
X35251Y-34220D03*
X32751Y-35220D03*
G54D12*
X34251Y-36220D03*
G54D13*
X30751Y-35220D03*
G54D14*
X30751Y-38220D03*
G54D13*
X33751Y-38220D03*
G54D14*
X34751Y-38220D03*
X32283Y-39720D03*
G54D13*
X36220Y-39720D03*
G54D11*
X29740Y-41700D03*
X27240Y-42700D03*
G54D12*
X28740Y-43700D03*
G54D13*
X25240Y-42700D03*
G54D14*
X25240Y-45700D03*
G54D13*
X28240Y-45700D03*
G54D14*
X29240Y-45700D03*
X26771Y-47200D03*
G54D13*
X30708Y-47200D03*
G54D11*
X27771Y-34220D03*
X25271Y-35220D03*
G54D12*
X26771Y-36220D03*
G54D13*
X23271Y-35220D03*
G54D14*
X23271Y-38220D03*
G54D13*
X26271Y-38220D03*
G54D14*
X27271Y-38220D03*
X24803Y-39720D03*
G54D13*
X28740Y-39720D03*
G54D11*
X54149Y-26740D03*
X51649Y-27740D03*
G54D12*
X53149Y-28740D03*
G54D13*
X49649Y-27740D03*
G54D14*
X49649Y-30740D03*
G54D13*
X52649Y-30740D03*
G54D14*
X53649Y-30740D03*
X51181Y-32240D03*
G54D13*
X55118Y-32240D03*
G54D11*
X80330Y-26740D03*
X77830Y-27740D03*
G54D12*
X79330Y-28740D03*
G54D13*
X75830Y-27740D03*
G54D14*
X75830Y-30740D03*
G54D13*
X78830Y-30740D03*
G54D14*
X79830Y-30740D03*
X77362Y-32240D03*
G54D13*
X81299Y-32240D03*
G54D11*
X82102Y-34220D03*
X79602Y-35220D03*
G54D12*
X81102Y-36220D03*
G54D13*
X77602Y-35220D03*
G54D14*
X77602Y-38220D03*
G54D13*
X80602Y-38220D03*
G54D14*
X81602Y-38220D03*
X79133Y-39720D03*
G54D13*
X83070Y-39720D03*
G54D11*
X79346Y-41700D03*
X76846Y-42700D03*
G54D12*
X78346Y-43700D03*
G54D13*
X74846Y-42700D03*
G54D14*
X74846Y-45700D03*
G54D13*
X77846Y-45700D03*
G54D14*
X78846Y-45700D03*
X76377Y-47200D03*
G54D13*
X80314Y-47200D03*
G54D11*
X77377Y-49181D03*
X74877Y-50181D03*
G54D12*
X76377Y-51181D03*
G54D13*
X72877Y-50181D03*
G54D14*
X72877Y-53181D03*
G54D13*
X75877Y-53181D03*
G54D14*
X76877Y-53181D03*
X74409Y-54681D03*
G54D13*
X78346Y-54681D03*
G54D11*
X83086Y-56661D03*
X80586Y-57661D03*
G54D12*
X82086Y-58661D03*
G54D13*
X78586Y-57661D03*
G54D14*
X78586Y-60661D03*
G54D13*
X81586Y-60661D03*
G54D14*
X82586Y-60661D03*
X80118Y-62161D03*
G54D13*
X84055Y-62161D03*
G54D11*
X76590Y-15716D03*
X74090Y-16716D03*
G54D12*
X75590Y-17716D03*
G54D13*
X72090Y-16716D03*
G54D14*
X72090Y-19716D03*
G54D13*
X75090Y-19716D03*
G54D14*
X76090Y-19716D03*
X73622Y-21216D03*
G54D13*
X77559Y-21216D03*
G54D11*
X69110Y-26740D03*
X66610Y-27740D03*
G54D12*
X68110Y-28740D03*
G54D13*
X64610Y-27740D03*
G54D14*
X64610Y-30740D03*
G54D13*
X67610Y-30740D03*
G54D14*
X68610Y-30740D03*
X66141Y-32240D03*
G54D13*
X70078Y-32240D03*
G54D11*
X72653Y-34220D03*
X70153Y-35220D03*
G54D12*
X71653Y-36220D03*
G54D13*
X68153Y-35220D03*
G54D14*
X68153Y-38220D03*
G54D13*
X71153Y-38220D03*
G54D14*
X72153Y-38220D03*
X69685Y-39720D03*
G54D13*
X73622Y-39720D03*
G54D11*
X67141Y-41700D03*
X64641Y-42700D03*
G54D12*
X66141Y-43700D03*
G54D13*
X62641Y-42700D03*
G54D14*
X62641Y-45700D03*
G54D13*
X65641Y-45700D03*
G54D14*
X66641Y-45700D03*
X64173Y-47200D03*
G54D13*
X68110Y-47200D03*
G54D11*
X63204Y-49181D03*
X60704Y-50181D03*
G54D12*
X62204Y-51181D03*
G54D13*
X58704Y-50181D03*
G54D14*
X58704Y-53181D03*
G54D13*
X61704Y-53181D03*
G54D14*
X62704Y-53181D03*
X60236Y-54681D03*
G54D13*
X64173Y-54681D03*
G54D11*
X73637Y-56661D03*
X71137Y-57661D03*
G54D12*
X72637Y-58661D03*
G54D13*
X69137Y-57661D03*
G54D14*
X69137Y-60661D03*
G54D13*
X72137Y-60661D03*
G54D14*
X73137Y-60661D03*
X70669Y-62161D03*
G54D13*
X74606Y-62161D03*
G54D11*
X69110Y-15716D03*
X66610Y-16716D03*
G54D12*
X68110Y-17716D03*
G54D13*
X64610Y-16716D03*
G54D14*
X64610Y-19716D03*
G54D13*
X67610Y-19716D03*
G54D14*
X68610Y-19716D03*
X66141Y-21216D03*
G54D13*
X70078Y-21216D03*
G54D11*
X61629Y-26740D03*
X59129Y-27740D03*
G54D12*
X60629Y-28740D03*
G54D13*
X57129Y-27740D03*
G54D14*
X57129Y-30740D03*
G54D13*
X60129Y-30740D03*
G54D14*
X61129Y-30740D03*
X58661Y-32240D03*
G54D13*
X62598Y-32240D03*
G54D11*
X65173Y-34220D03*
X62673Y-35220D03*
G54D12*
X64173Y-36220D03*
G54D13*
X60673Y-35220D03*
G54D14*
X60673Y-38220D03*
G54D13*
X63673Y-38220D03*
G54D14*
X64673Y-38220D03*
X62204Y-39720D03*
G54D13*
X66141Y-39720D03*
G54D11*
X59661Y-41700D03*
X57161Y-42700D03*
G54D12*
X58661Y-43700D03*
G54D13*
X55161Y-42700D03*
G54D14*
X55161Y-45700D03*
G54D13*
X58161Y-45700D03*
G54D14*
X59161Y-45700D03*
X56692Y-47200D03*
G54D13*
X60629Y-47200D03*
G54D11*
X55724Y-49181D03*
X53224Y-50181D03*
G54D12*
X54724Y-51181D03*
G54D13*
X51224Y-50181D03*
G54D14*
X51224Y-53181D03*
G54D13*
X54224Y-53181D03*
G54D14*
X55224Y-53181D03*
X52755Y-54681D03*
G54D13*
X56692Y-54681D03*
G54D11*
X64188Y-56661D03*
X61688Y-57661D03*
G54D12*
X63188Y-58661D03*
G54D13*
X59688Y-57661D03*
G54D14*
X59688Y-60661D03*
G54D13*
X62688Y-60661D03*
G54D14*
X63688Y-60661D03*
X61220Y-62161D03*
G54D13*
X65157Y-62161D03*
G54D11*
X61629Y-15716D03*
X59129Y-16716D03*
G54D12*
X60629Y-17716D03*
G54D13*
X57129Y-16716D03*
G54D14*
X57129Y-19716D03*
G54D13*
X60129Y-19716D03*
G54D14*
X61129Y-19716D03*
X58661Y-21216D03*
G54D13*
X62598Y-21216D03*
G54D15*
X28377Y-13082D03*
G54D16*
X28377Y-14082D03*
X27377Y-13082D03*
X27377Y-14082D03*
X26377Y-13082D03*
X26377Y-14082D03*
X25377Y-13082D03*
X25377Y-14082D03*
X24377Y-13082D03*
X24377Y-14082D03*
G54D15*
X18807Y-36645D03*
G54D16*
X17807Y-36645D03*
X18807Y-35645D03*
X17807Y-35645D03*
X18807Y-34645D03*
X17807Y-34645D03*
X18807Y-33645D03*
X17807Y-33645D03*
X18807Y-32645D03*
X17807Y-32645D03*
G54D15*
X18807Y-28771D03*
G54D16*
X17807Y-28771D03*
X18807Y-27771D03*
X17807Y-27771D03*
X18807Y-26771D03*
X17807Y-26771D03*
X18807Y-25771D03*
X17807Y-25771D03*
X18807Y-24771D03*
X17807Y-24771D03*
G54D15*
X20488Y-13082D03*
G54D16*
X20488Y-14082D03*
X19488Y-13082D03*
X19488Y-14082D03*
X18488Y-13082D03*
X18488Y-14082D03*
G54D15*
X18807Y-20881D03*
G54D16*
X17807Y-20881D03*
X18807Y-19881D03*
X17807Y-19881D03*
X18807Y-18881D03*
X17807Y-18881D03*
G54D17*
X20866Y-35826D03*
X22834Y-37007D03*
X23622Y-37007D03*
X20866Y-22834D03*
X25984Y-14960D03*
X16141Y-34251D03*
X32283Y-12992D03*
X36614Y-12992D03*
X54330Y-12992D03*
X50000Y-64566D03*
X17716Y-43307D03*
X17716Y-40944D03*
X26377Y-25590D03*
X29527Y-35039D03*
X17322Y-17322D03*
X35433Y-11811D03*
X37401Y-11811D03*
X17322Y-30314D03*
X22047Y-43700D03*
X26771Y-12204D03*
X35826Y-12204D03*
X38582Y-12204D03*
X21653Y-46456D03*
X16535Y-43307D03*
X21259Y-41732D03*
X20472Y-20866D03*
X19685Y-23622D03*
G54D18*
X79830Y-30740D02*
X79830Y-30011D01*
X79527Y-23759D02*
X83570Y-19716D01*
X79527Y-27165D02*
X79527Y-23759D01*
X80708Y-28346D02*
X79527Y-27165D01*
X80708Y-29133D02*
X80708Y-28346D01*
X79830Y-30011D02*
X80708Y-29133D01*
X81602Y-38220D02*
X81602Y-37688D01*
X79830Y-33374D02*
X79830Y-30740D01*
X82283Y-35826D02*
X79830Y-33374D01*
X82283Y-37007D02*
X82283Y-35826D01*
X81602Y-37688D02*
X82283Y-37007D01*
X78846Y-45700D02*
X78846Y-44775D01*
X78346Y-41476D02*
X81602Y-38220D01*
X78346Y-42125D02*
X78346Y-41476D01*
X79527Y-43307D02*
X78346Y-42125D01*
X79527Y-44094D02*
X79527Y-43307D01*
X78846Y-44775D02*
X79527Y-44094D01*
X76877Y-53181D02*
X76877Y-52649D01*
X76377Y-48169D02*
X78846Y-45700D01*
X76377Y-49606D02*
X76377Y-48169D01*
X77559Y-50787D02*
X76377Y-49606D01*
X77559Y-51968D02*
X77559Y-50787D01*
X76877Y-52649D02*
X77559Y-51968D01*
X82586Y-60661D02*
X82586Y-59933D01*
X78377Y-53181D02*
X76877Y-53181D01*
X83464Y-58267D02*
X78377Y-53181D01*
X83464Y-59055D02*
X83464Y-58267D01*
X82586Y-59933D02*
X83464Y-59055D01*
X17807Y-19881D02*
X17125Y-19881D01*
X16535Y-19291D02*
X16535Y-12992D01*
X17125Y-19881D02*
X16535Y-19291D01*
X40157Y-21216D02*
X40157Y-20472D01*
X17232Y-14082D02*
X18488Y-14082D01*
X16535Y-13385D02*
X17232Y-14082D01*
X16535Y-12598D02*
X16535Y-12992D01*
X16535Y-12992D02*
X16535Y-13385D01*
X17716Y-11417D02*
X16535Y-12598D01*
X36220Y-11417D02*
X17716Y-11417D01*
X40551Y-15748D02*
X36220Y-11417D01*
X40551Y-20078D02*
X40551Y-15748D01*
X40157Y-20472D02*
X40551Y-20078D01*
X27377Y-13082D02*
X27377Y-12779D01*
X21653Y-35826D02*
X20866Y-35826D01*
X22834Y-37007D02*
X21653Y-35826D01*
X24409Y-37007D02*
X23622Y-37007D01*
X26377Y-35039D02*
X24409Y-37007D01*
X26377Y-33070D02*
X26377Y-35039D01*
X29133Y-30314D02*
X26377Y-33070D01*
X29133Y-28740D02*
X29133Y-30314D01*
X30314Y-27559D02*
X29133Y-28740D01*
X30314Y-13385D02*
X30314Y-27559D01*
X29527Y-12598D02*
X30314Y-13385D01*
X27559Y-12598D02*
X29527Y-12598D01*
X27377Y-12779D02*
X27559Y-12598D01*
X17807Y-34645D02*
X17322Y-34645D01*
X17716Y-22834D02*
X20866Y-22834D01*
X16141Y-24409D02*
X17716Y-22834D01*
X16141Y-33464D02*
X16141Y-24409D01*
X17322Y-34645D02*
X16141Y-33464D01*
X17807Y-35645D02*
X17535Y-35645D01*
X27377Y-14748D02*
X27377Y-14082D01*
X27165Y-14960D02*
X27377Y-14748D01*
X25984Y-14960D02*
X27165Y-14960D01*
X17535Y-35645D02*
X16141Y-34251D01*
X36614Y-12992D02*
X32283Y-12992D01*
X61023Y-12992D02*
X54330Y-12992D01*
X63385Y-15354D02*
X61023Y-12992D01*
X63385Y-19291D02*
X63385Y-15354D01*
X55905Y-26771D02*
X63385Y-19291D01*
X55905Y-30708D02*
X55905Y-26771D01*
X59055Y-33858D02*
X55905Y-30708D01*
X59055Y-38582D02*
X59055Y-33858D01*
X55511Y-42125D02*
X59055Y-38582D01*
X54499Y-42125D02*
X55511Y-42125D01*
X54330Y-42294D02*
X54499Y-42125D01*
X54330Y-47244D02*
X54330Y-42294D01*
X53543Y-48031D02*
X54330Y-47244D01*
X51968Y-48031D02*
X53543Y-48031D01*
X50393Y-49606D02*
X51968Y-48031D01*
X50393Y-64173D02*
X50393Y-49606D01*
X50000Y-64566D02*
X50393Y-64173D01*
X17716Y-40944D02*
X17716Y-43307D01*
X17807Y-36645D02*
X17807Y-37492D01*
X28377Y-23590D02*
X28377Y-14082D01*
X26377Y-25590D02*
X28377Y-23590D01*
X29527Y-37795D02*
X29527Y-35039D01*
X26377Y-40944D02*
X29527Y-37795D01*
X21259Y-40944D02*
X26377Y-40944D01*
X17807Y-37492D02*
X21259Y-40944D01*
X19488Y-15157D02*
X19488Y-14082D01*
X17322Y-17322D02*
X19488Y-15157D01*
X18807Y-24771D02*
X19716Y-24771D01*
X21259Y-13854D02*
X20488Y-13082D01*
X21259Y-23228D02*
X21259Y-13854D01*
X19716Y-24771D02*
X21259Y-23228D01*
X38232Y-38220D02*
X38232Y-36657D01*
X25377Y-12811D02*
X25377Y-13082D01*
X26377Y-11811D02*
X25377Y-12811D01*
X35433Y-11811D02*
X26377Y-11811D01*
X41338Y-15748D02*
X37401Y-11811D01*
X41338Y-21259D02*
X41338Y-15748D01*
X38188Y-24409D02*
X41338Y-21259D01*
X38188Y-27165D02*
X38188Y-24409D01*
X39370Y-28346D02*
X38188Y-27165D01*
X39370Y-31496D02*
X39370Y-28346D01*
X37007Y-33858D02*
X39370Y-31496D01*
X37007Y-35433D02*
X37007Y-33858D01*
X38232Y-36657D02*
X37007Y-35433D01*
X23271Y-38220D02*
X23271Y-36657D01*
X21440Y-33645D02*
X18807Y-33645D01*
X21653Y-33858D02*
X21440Y-33645D01*
X21653Y-35039D02*
X21653Y-33858D01*
X23271Y-36657D02*
X21653Y-35039D01*
X24377Y-14082D02*
X23712Y-14082D01*
X17716Y-29921D02*
X17322Y-30314D01*
X19291Y-29921D02*
X17716Y-29921D01*
X19685Y-29527D02*
X19291Y-29921D01*
X19685Y-25196D02*
X19685Y-29527D01*
X21653Y-23228D02*
X19685Y-25196D01*
X21653Y-16141D02*
X21653Y-23228D01*
X23712Y-14082D02*
X21653Y-16141D01*
X25240Y-45700D02*
X24047Y-45700D01*
X24047Y-45700D02*
X22047Y-43700D01*
X34688Y-19716D02*
X34688Y-22397D01*
X24712Y-40551D02*
X18807Y-34645D01*
X25984Y-40551D02*
X24712Y-40551D01*
X28740Y-37795D02*
X25984Y-40551D01*
X28740Y-35039D02*
X28740Y-37795D01*
X31889Y-31889D02*
X28740Y-35039D01*
X31889Y-27952D02*
X31889Y-31889D01*
X30708Y-26771D02*
X31889Y-27952D01*
X30708Y-26377D02*
X30708Y-26771D01*
X34688Y-22397D02*
X30708Y-26377D01*
X43744Y-53181D02*
X43744Y-51618D01*
X35826Y-12204D02*
X26771Y-12204D01*
X52362Y-12204D02*
X38582Y-12204D01*
X55905Y-15748D02*
X52362Y-12204D01*
X55905Y-21653D02*
X55905Y-15748D01*
X55511Y-22047D02*
X55905Y-21653D01*
X53937Y-22047D02*
X55511Y-22047D01*
X48425Y-27559D02*
X53937Y-22047D01*
X48425Y-30708D02*
X48425Y-27559D01*
X50787Y-33070D02*
X48425Y-30708D01*
X51181Y-33070D02*
X50787Y-33070D01*
X51968Y-33858D02*
X51181Y-33070D01*
X51968Y-40157D02*
X51968Y-33858D01*
X50787Y-41338D02*
X51968Y-40157D01*
X49212Y-41338D02*
X50787Y-41338D01*
X48425Y-42125D02*
X49212Y-41338D01*
X46850Y-42125D02*
X48425Y-42125D01*
X46850Y-48031D02*
X46850Y-42125D01*
X44881Y-48031D02*
X46850Y-48031D01*
X42913Y-50000D02*
X44881Y-48031D01*
X42913Y-50787D02*
X42913Y-50000D01*
X43744Y-51618D02*
X42913Y-50787D01*
X28377Y-53181D02*
X28783Y-53181D01*
X21653Y-46456D02*
X28377Y-53181D01*
X25377Y-14082D02*
X25377Y-28909D01*
X25377Y-28909D02*
X27208Y-30740D01*
X27208Y-30740D02*
X17685Y-30740D01*
X16535Y-32374D02*
X17807Y-33645D01*
X16535Y-31889D02*
X16535Y-32374D01*
X17685Y-30740D02*
X16535Y-31889D01*
X54149Y-26740D02*
X55543Y-26740D01*
X62598Y-16685D02*
X61629Y-15716D01*
X62598Y-19685D02*
X62598Y-16685D01*
X55543Y-26740D02*
X62598Y-19685D01*
X57692Y-34220D02*
X57692Y-33283D01*
X55118Y-27708D02*
X54149Y-26740D01*
X55118Y-30708D02*
X55118Y-27708D01*
X57692Y-33283D02*
X55118Y-30708D01*
X52181Y-41700D02*
X55149Y-41700D01*
X58661Y-35188D02*
X57692Y-34220D01*
X58661Y-38188D02*
X58661Y-35188D01*
X55149Y-41700D02*
X58661Y-38188D01*
X48244Y-49181D02*
X49637Y-49181D01*
X53149Y-42669D02*
X52181Y-41700D01*
X53149Y-45669D02*
X53149Y-42669D01*
X49637Y-49181D02*
X53149Y-45669D01*
X28165Y-56661D02*
X45700Y-56661D01*
X48244Y-49425D02*
X48244Y-49181D01*
X48818Y-50000D02*
X48244Y-49425D01*
X48818Y-53543D02*
X48818Y-50000D01*
X45700Y-56661D02*
X48818Y-53543D01*
X36251Y-49181D02*
X40763Y-49181D01*
X35039Y-50393D02*
X36251Y-49181D01*
X33070Y-50393D02*
X35039Y-50393D01*
X31889Y-49212D02*
X33070Y-50393D01*
X25984Y-49212D02*
X31889Y-49212D01*
X22440Y-45669D02*
X25984Y-49212D01*
X18897Y-45669D02*
X22440Y-45669D01*
X16535Y-43307D02*
X18897Y-45669D01*
X46669Y-26740D02*
X48062Y-26740D01*
X55118Y-16685D02*
X54149Y-15716D01*
X55118Y-19685D02*
X55118Y-16685D01*
X48062Y-26740D02*
X55118Y-19685D01*
X50212Y-34220D02*
X50212Y-33283D01*
X47637Y-27708D02*
X46669Y-26740D01*
X47637Y-30708D02*
X47637Y-27708D01*
X50212Y-33283D02*
X47637Y-30708D01*
X44700Y-41700D02*
X47669Y-41700D01*
X50212Y-34858D02*
X50212Y-34220D01*
X51181Y-35826D02*
X50212Y-34858D01*
X51181Y-38188D02*
X51181Y-35826D01*
X47669Y-41700D02*
X51181Y-38188D01*
X40763Y-49181D02*
X42157Y-49181D01*
X45669Y-42669D02*
X44700Y-41700D01*
X45669Y-45669D02*
X45669Y-42669D01*
X42157Y-49181D02*
X45669Y-45669D01*
X39188Y-26740D02*
X40582Y-26740D01*
X47637Y-16685D02*
X46669Y-15716D01*
X47637Y-19685D02*
X47637Y-16685D01*
X40582Y-26740D02*
X47637Y-19685D01*
X42732Y-34220D02*
X42732Y-32889D01*
X40157Y-27708D02*
X39188Y-26740D01*
X40157Y-30314D02*
X40157Y-27708D01*
X42732Y-32889D02*
X40157Y-30314D01*
X37220Y-41700D02*
X40188Y-41700D01*
X43700Y-35188D02*
X42732Y-34220D01*
X43700Y-38188D02*
X43700Y-35188D01*
X40188Y-41700D02*
X43700Y-38188D01*
X33283Y-49181D02*
X34677Y-49181D01*
X38188Y-42669D02*
X37220Y-41700D01*
X38188Y-45669D02*
X38188Y-42669D01*
X34677Y-49181D02*
X38188Y-45669D01*
X29740Y-41700D02*
X21291Y-41700D01*
X21291Y-41700D02*
X21259Y-41732D01*
X31708Y-26740D02*
X33102Y-26740D01*
X40157Y-16685D02*
X39188Y-15716D01*
X40157Y-19685D02*
X40157Y-16685D01*
X33102Y-26740D02*
X40157Y-19685D01*
X35251Y-34220D02*
X35251Y-33283D01*
X33070Y-28102D02*
X31708Y-26740D01*
X33070Y-31102D02*
X33070Y-28102D01*
X35251Y-33283D02*
X33070Y-31102D01*
X29740Y-41700D02*
X32708Y-41700D01*
X36220Y-35188D02*
X35251Y-34220D01*
X36220Y-38188D02*
X36220Y-35188D01*
X32708Y-41700D02*
X36220Y-38188D01*
X20488Y-14082D02*
X20488Y-20850D01*
X20488Y-20850D02*
X20472Y-20866D01*
X80330Y-26740D02*
X81133Y-26740D01*
X85826Y-17472D02*
X84070Y-15716D01*
X85826Y-22047D02*
X85826Y-17472D01*
X81133Y-26740D02*
X85826Y-22047D01*
X82102Y-34220D02*
X82102Y-28511D01*
X82102Y-28511D02*
X80330Y-26740D01*
X79346Y-41700D02*
X82708Y-41700D01*
X83858Y-35976D02*
X82102Y-34220D01*
X83858Y-40551D02*
X83858Y-35976D01*
X82708Y-41700D02*
X83858Y-40551D01*
X77377Y-49181D02*
X79559Y-49181D01*
X81496Y-43850D02*
X79346Y-41700D01*
X81496Y-47244D02*
X81496Y-43850D01*
X79559Y-49181D02*
X81496Y-47244D01*
X83086Y-56661D02*
X83086Y-54889D01*
X83086Y-54889D02*
X77377Y-49181D01*
X69110Y-26740D02*
X70503Y-26740D01*
X77559Y-16685D02*
X76590Y-15716D01*
X77559Y-19685D02*
X77559Y-16685D01*
X70503Y-26740D02*
X77559Y-19685D01*
X72653Y-34220D02*
X72653Y-30283D01*
X72653Y-30283D02*
X69110Y-26740D01*
X67141Y-41700D02*
X70110Y-41700D01*
X73622Y-35188D02*
X72653Y-34220D01*
X73622Y-38188D02*
X73622Y-35188D01*
X70110Y-41700D02*
X73622Y-38188D01*
X63204Y-49181D02*
X64598Y-49181D01*
X67716Y-42275D02*
X67141Y-41700D01*
X67716Y-46062D02*
X67716Y-42275D01*
X64598Y-49181D02*
X67716Y-46062D01*
X73637Y-56661D02*
X70685Y-56661D01*
X70685Y-56661D02*
X63204Y-49181D01*
X17807Y-25771D02*
X17503Y-25771D01*
X17322Y-23622D02*
X19685Y-23622D01*
X16929Y-24015D02*
X17322Y-23622D01*
X16929Y-25196D02*
X16929Y-24015D01*
X17503Y-25771D02*
X16929Y-25196D01*
X61629Y-26740D02*
X63023Y-26740D01*
X70078Y-16685D02*
X69110Y-15716D01*
X70078Y-19685D02*
X70078Y-16685D01*
X63023Y-26740D02*
X70078Y-19685D01*
X65173Y-34220D02*
X65173Y-32889D01*
X62598Y-27708D02*
X61629Y-26740D01*
X62598Y-30314D02*
X62598Y-27708D01*
X65173Y-32889D02*
X62598Y-30314D01*
X59661Y-41700D02*
X62629Y-41700D01*
X65322Y-34220D02*
X65173Y-34220D01*
X66141Y-35039D02*
X65322Y-34220D01*
X66141Y-38188D02*
X66141Y-35039D01*
X62629Y-41700D02*
X66141Y-38188D01*
X55724Y-49181D02*
X57118Y-49181D01*
X60629Y-42669D02*
X59661Y-41700D01*
X60629Y-45669D02*
X60629Y-42669D01*
X57118Y-49181D02*
X60629Y-45669D01*
X64188Y-56661D02*
X63204Y-56661D01*
X63204Y-56661D02*
X55724Y-49181D01*
M02*
