G04 (created by PCBNEW (2013-07-07 BZR 4022)-stable) date 11/1/2014 6:00:42 PM*
%MOIN*%
G04 Gerber Fmt 3.4, Leading zero omitted, Abs format*
%FSLAX34Y34*%
G01*
G70*
G90*
G04 APERTURE LIST*
%ADD10C,0.00590551*%
%ADD11C,0.09*%
%ADD12C,0.157*%
%ADD13C,0.065*%
%ADD14R,0.065X0.065*%
%ADD15R,0.06X0.06*%
%ADD16C,0.06*%
G04 APERTURE END LIST*
G54D10*
G54D11*
X46669Y-15716D03*
X44169Y-16716D03*
G54D12*
X45669Y-17716D03*
G54D13*
X42169Y-16716D03*
G54D14*
X42169Y-19716D03*
G54D13*
X45169Y-19716D03*
G54D14*
X46169Y-19716D03*
X43700Y-21216D03*
G54D13*
X47637Y-21216D03*
G54D11*
X57692Y-34220D03*
X55192Y-35220D03*
G54D12*
X56692Y-36220D03*
G54D13*
X53192Y-35220D03*
G54D14*
X53192Y-38220D03*
G54D13*
X56192Y-38220D03*
G54D14*
X57192Y-38220D03*
X54724Y-39720D03*
G54D13*
X58661Y-39720D03*
G54D11*
X52181Y-41700D03*
X49681Y-42700D03*
G54D12*
X51181Y-43700D03*
G54D13*
X47681Y-42700D03*
G54D14*
X47681Y-45700D03*
G54D13*
X50681Y-45700D03*
G54D14*
X51681Y-45700D03*
X49212Y-47200D03*
G54D13*
X53149Y-47200D03*
G54D11*
X48244Y-49181D03*
X45744Y-50181D03*
G54D12*
X47244Y-51181D03*
G54D13*
X43744Y-50181D03*
G54D14*
X43744Y-53181D03*
G54D13*
X46744Y-53181D03*
G54D14*
X47744Y-53181D03*
X45275Y-54681D03*
G54D13*
X49212Y-54681D03*
G54D11*
X28165Y-56661D03*
X25665Y-57661D03*
G54D12*
X27165Y-58661D03*
G54D13*
X23665Y-57661D03*
G54D14*
X23665Y-60661D03*
G54D13*
X26665Y-60661D03*
G54D14*
X27665Y-60661D03*
X25196Y-62161D03*
G54D13*
X29133Y-62161D03*
G54D11*
X54149Y-15716D03*
X51649Y-16716D03*
G54D12*
X53149Y-17716D03*
G54D13*
X49649Y-16716D03*
G54D14*
X49649Y-19716D03*
G54D13*
X52649Y-19716D03*
G54D14*
X53649Y-19716D03*
X51181Y-21216D03*
G54D13*
X55118Y-21216D03*
G54D11*
X46669Y-26740D03*
X44169Y-27740D03*
G54D12*
X45669Y-28740D03*
G54D13*
X42169Y-27740D03*
G54D14*
X42169Y-30740D03*
G54D13*
X45169Y-30740D03*
G54D14*
X46169Y-30740D03*
X43700Y-32240D03*
G54D13*
X47637Y-32240D03*
G54D11*
X50212Y-34220D03*
X47712Y-35220D03*
G54D12*
X49212Y-36220D03*
G54D13*
X45712Y-35220D03*
G54D14*
X45712Y-38220D03*
G54D13*
X48712Y-38220D03*
G54D14*
X49712Y-38220D03*
X47244Y-39720D03*
G54D13*
X51181Y-39720D03*
G54D11*
X44700Y-41700D03*
X42200Y-42700D03*
G54D12*
X43700Y-43700D03*
G54D13*
X40200Y-42700D03*
G54D14*
X40200Y-45700D03*
G54D13*
X43200Y-45700D03*
G54D14*
X44200Y-45700D03*
X41732Y-47200D03*
G54D13*
X45669Y-47200D03*
G54D11*
X40763Y-49181D03*
X38263Y-50181D03*
G54D12*
X39763Y-51181D03*
G54D13*
X36263Y-50181D03*
G54D14*
X36263Y-53181D03*
G54D13*
X39263Y-53181D03*
G54D14*
X40263Y-53181D03*
X37795Y-54681D03*
G54D13*
X41732Y-54681D03*
G54D11*
X84070Y-15716D03*
X81570Y-16716D03*
G54D12*
X83070Y-17716D03*
G54D13*
X79570Y-16716D03*
G54D14*
X79570Y-19716D03*
G54D13*
X82570Y-19716D03*
G54D14*
X83570Y-19716D03*
X81102Y-21216D03*
G54D13*
X85039Y-21216D03*
G54D11*
X39188Y-26740D03*
X36688Y-27740D03*
G54D12*
X38188Y-28740D03*
G54D13*
X34688Y-27740D03*
G54D14*
X34688Y-30740D03*
G54D13*
X37688Y-30740D03*
G54D14*
X38688Y-30740D03*
X36220Y-32240D03*
G54D13*
X40157Y-32240D03*
G54D11*
X42732Y-34220D03*
X40232Y-35220D03*
G54D12*
X41732Y-36220D03*
G54D13*
X38232Y-35220D03*
G54D14*
X38232Y-38220D03*
G54D13*
X41232Y-38220D03*
G54D14*
X42232Y-38220D03*
X39763Y-39720D03*
G54D13*
X43700Y-39720D03*
G54D11*
X37220Y-41700D03*
X34720Y-42700D03*
G54D12*
X36220Y-43700D03*
G54D13*
X32720Y-42700D03*
G54D14*
X32720Y-45700D03*
G54D13*
X35720Y-45700D03*
G54D14*
X36720Y-45700D03*
X34251Y-47200D03*
G54D13*
X38188Y-47200D03*
G54D11*
X33283Y-49181D03*
X30783Y-50181D03*
G54D12*
X32283Y-51181D03*
G54D13*
X28783Y-50181D03*
G54D14*
X28783Y-53181D03*
G54D13*
X31783Y-53181D03*
G54D14*
X32783Y-53181D03*
X30314Y-54681D03*
G54D13*
X34251Y-54681D03*
G54D11*
X39188Y-15716D03*
X36688Y-16716D03*
G54D12*
X38188Y-17716D03*
G54D13*
X34688Y-16716D03*
G54D14*
X34688Y-19716D03*
G54D13*
X37688Y-19716D03*
G54D14*
X38688Y-19716D03*
X36220Y-21216D03*
G54D13*
X40157Y-21216D03*
G54D11*
X31708Y-26740D03*
X29208Y-27740D03*
G54D12*
X30708Y-28740D03*
G54D13*
X27208Y-27740D03*
G54D14*
X27208Y-30740D03*
G54D13*
X30208Y-30740D03*
G54D14*
X31208Y-30740D03*
X28740Y-32240D03*
G54D13*
X32677Y-32240D03*
G54D11*
X35251Y-34220D03*
X32751Y-35220D03*
G54D12*
X34251Y-36220D03*
G54D13*
X30751Y-35220D03*
G54D14*
X30751Y-38220D03*
G54D13*
X33751Y-38220D03*
G54D14*
X34751Y-38220D03*
X32283Y-39720D03*
G54D13*
X36220Y-39720D03*
G54D11*
X29740Y-41700D03*
X27240Y-42700D03*
G54D12*
X28740Y-43700D03*
G54D13*
X25240Y-42700D03*
G54D14*
X25240Y-45700D03*
G54D13*
X28240Y-45700D03*
G54D14*
X29240Y-45700D03*
X26771Y-47200D03*
G54D13*
X30708Y-47200D03*
G54D11*
X27771Y-34220D03*
X25271Y-35220D03*
G54D12*
X26771Y-36220D03*
G54D13*
X23271Y-35220D03*
G54D14*
X23271Y-38220D03*
G54D13*
X26271Y-38220D03*
G54D14*
X27271Y-38220D03*
X24803Y-39720D03*
G54D13*
X28740Y-39720D03*
G54D11*
X54149Y-26740D03*
X51649Y-27740D03*
G54D12*
X53149Y-28740D03*
G54D13*
X49649Y-27740D03*
G54D14*
X49649Y-30740D03*
G54D13*
X52649Y-30740D03*
G54D14*
X53649Y-30740D03*
X51181Y-32240D03*
G54D13*
X55118Y-32240D03*
G54D11*
X80330Y-26740D03*
X77830Y-27740D03*
G54D12*
X79330Y-28740D03*
G54D13*
X75830Y-27740D03*
G54D14*
X75830Y-30740D03*
G54D13*
X78830Y-30740D03*
G54D14*
X79830Y-30740D03*
X77362Y-32240D03*
G54D13*
X81299Y-32240D03*
G54D11*
X82102Y-34220D03*
X79602Y-35220D03*
G54D12*
X81102Y-36220D03*
G54D13*
X77602Y-35220D03*
G54D14*
X77602Y-38220D03*
G54D13*
X80602Y-38220D03*
G54D14*
X81602Y-38220D03*
X79133Y-39720D03*
G54D13*
X83070Y-39720D03*
G54D11*
X79346Y-41700D03*
X76846Y-42700D03*
G54D12*
X78346Y-43700D03*
G54D13*
X74846Y-42700D03*
G54D14*
X74846Y-45700D03*
G54D13*
X77846Y-45700D03*
G54D14*
X78846Y-45700D03*
X76377Y-47200D03*
G54D13*
X80314Y-47200D03*
G54D11*
X77377Y-49181D03*
X74877Y-50181D03*
G54D12*
X76377Y-51181D03*
G54D13*
X72877Y-50181D03*
G54D14*
X72877Y-53181D03*
G54D13*
X75877Y-53181D03*
G54D14*
X76877Y-53181D03*
X74409Y-54681D03*
G54D13*
X78346Y-54681D03*
G54D11*
X83086Y-56661D03*
X80586Y-57661D03*
G54D12*
X82086Y-58661D03*
G54D13*
X78586Y-57661D03*
G54D14*
X78586Y-60661D03*
G54D13*
X81586Y-60661D03*
G54D14*
X82586Y-60661D03*
X80118Y-62161D03*
G54D13*
X84055Y-62161D03*
G54D11*
X76590Y-15716D03*
X74090Y-16716D03*
G54D12*
X75590Y-17716D03*
G54D13*
X72090Y-16716D03*
G54D14*
X72090Y-19716D03*
G54D13*
X75090Y-19716D03*
G54D14*
X76090Y-19716D03*
X73622Y-21216D03*
G54D13*
X77559Y-21216D03*
G54D11*
X69110Y-26740D03*
X66610Y-27740D03*
G54D12*
X68110Y-28740D03*
G54D13*
X64610Y-27740D03*
G54D14*
X64610Y-30740D03*
G54D13*
X67610Y-30740D03*
G54D14*
X68610Y-30740D03*
X66141Y-32240D03*
G54D13*
X70078Y-32240D03*
G54D11*
X72653Y-34220D03*
X70153Y-35220D03*
G54D12*
X71653Y-36220D03*
G54D13*
X68153Y-35220D03*
G54D14*
X68153Y-38220D03*
G54D13*
X71153Y-38220D03*
G54D14*
X72153Y-38220D03*
X69685Y-39720D03*
G54D13*
X73622Y-39720D03*
G54D11*
X67141Y-41700D03*
X64641Y-42700D03*
G54D12*
X66141Y-43700D03*
G54D13*
X62641Y-42700D03*
G54D14*
X62641Y-45700D03*
G54D13*
X65641Y-45700D03*
G54D14*
X66641Y-45700D03*
X64173Y-47200D03*
G54D13*
X68110Y-47200D03*
G54D11*
X63204Y-49181D03*
X60704Y-50181D03*
G54D12*
X62204Y-51181D03*
G54D13*
X58704Y-50181D03*
G54D14*
X58704Y-53181D03*
G54D13*
X61704Y-53181D03*
G54D14*
X62704Y-53181D03*
X60236Y-54681D03*
G54D13*
X64173Y-54681D03*
G54D11*
X73637Y-56661D03*
X71137Y-57661D03*
G54D12*
X72637Y-58661D03*
G54D13*
X69137Y-57661D03*
G54D14*
X69137Y-60661D03*
G54D13*
X72137Y-60661D03*
G54D14*
X73137Y-60661D03*
X70669Y-62161D03*
G54D13*
X74606Y-62161D03*
G54D11*
X69110Y-15716D03*
X66610Y-16716D03*
G54D12*
X68110Y-17716D03*
G54D13*
X64610Y-16716D03*
G54D14*
X64610Y-19716D03*
G54D13*
X67610Y-19716D03*
G54D14*
X68610Y-19716D03*
X66141Y-21216D03*
G54D13*
X70078Y-21216D03*
G54D11*
X61629Y-26740D03*
X59129Y-27740D03*
G54D12*
X60629Y-28740D03*
G54D13*
X57129Y-27740D03*
G54D14*
X57129Y-30740D03*
G54D13*
X60129Y-30740D03*
G54D14*
X61129Y-30740D03*
X58661Y-32240D03*
G54D13*
X62598Y-32240D03*
G54D11*
X65173Y-34220D03*
X62673Y-35220D03*
G54D12*
X64173Y-36220D03*
G54D13*
X60673Y-35220D03*
G54D14*
X60673Y-38220D03*
G54D13*
X63673Y-38220D03*
G54D14*
X64673Y-38220D03*
X62204Y-39720D03*
G54D13*
X66141Y-39720D03*
G54D11*
X59661Y-41700D03*
X57161Y-42700D03*
G54D12*
X58661Y-43700D03*
G54D13*
X55161Y-42700D03*
G54D14*
X55161Y-45700D03*
G54D13*
X58161Y-45700D03*
G54D14*
X59161Y-45700D03*
X56692Y-47200D03*
G54D13*
X60629Y-47200D03*
G54D11*
X55724Y-49181D03*
X53224Y-50181D03*
G54D12*
X54724Y-51181D03*
G54D13*
X51224Y-50181D03*
G54D14*
X51224Y-53181D03*
G54D13*
X54224Y-53181D03*
G54D14*
X55224Y-53181D03*
X52755Y-54681D03*
G54D13*
X56692Y-54681D03*
G54D11*
X64188Y-56661D03*
X61688Y-57661D03*
G54D12*
X63188Y-58661D03*
G54D13*
X59688Y-57661D03*
G54D14*
X59688Y-60661D03*
G54D13*
X62688Y-60661D03*
G54D14*
X63688Y-60661D03*
X61220Y-62161D03*
G54D13*
X65157Y-62161D03*
G54D11*
X61629Y-15716D03*
X59129Y-16716D03*
G54D12*
X60629Y-17716D03*
G54D13*
X57129Y-16716D03*
G54D14*
X57129Y-19716D03*
G54D13*
X60129Y-19716D03*
G54D14*
X61129Y-19716D03*
X58661Y-21216D03*
G54D13*
X62598Y-21216D03*
G54D15*
X28377Y-13082D03*
G54D16*
X28377Y-14082D03*
X27377Y-13082D03*
X27377Y-14082D03*
X26377Y-13082D03*
X26377Y-14082D03*
X25377Y-13082D03*
X25377Y-14082D03*
X24377Y-13082D03*
X24377Y-14082D03*
G54D15*
X18807Y-36645D03*
G54D16*
X17807Y-36645D03*
X18807Y-35645D03*
X17807Y-35645D03*
X18807Y-34645D03*
X17807Y-34645D03*
X18807Y-33645D03*
X17807Y-33645D03*
X18807Y-32645D03*
X17807Y-32645D03*
G54D15*
X18807Y-28771D03*
G54D16*
X17807Y-28771D03*
X18807Y-27771D03*
X17807Y-27771D03*
X18807Y-26771D03*
X17807Y-26771D03*
X18807Y-25771D03*
X17807Y-25771D03*
X18807Y-24771D03*
X17807Y-24771D03*
G54D15*
X20488Y-13082D03*
G54D16*
X20488Y-14082D03*
X19488Y-13082D03*
X19488Y-14082D03*
X18488Y-13082D03*
X18488Y-14082D03*
G54D15*
X18807Y-20881D03*
G54D16*
X17807Y-20881D03*
X18807Y-19881D03*
X17807Y-19881D03*
X18807Y-18881D03*
X17807Y-18881D03*
M02*
