G04 (created by PCBNEW (2013-07-07 BZR 4022)-stable) date 11/1/2014 6:00:42 PM*
%MOIN*%
G04 Gerber Fmt 3.4, Leading zero omitted, Abs format*
%FSLAX34Y34*%
G01*
G70*
G90*
G04 APERTURE LIST*
%ADD10C,0.00590551*%
%ADD11C,0.012*%
%ADD12C,0.008*%
G04 APERTURE END LIST*
G54D10*
G54D11*
X28877Y-14582D02*
X23877Y-14582D01*
X23877Y-14582D02*
X23877Y-12582D01*
X23877Y-12582D02*
X28877Y-12582D01*
X28877Y-12582D02*
X28877Y-14582D01*
X17307Y-37145D02*
X17307Y-32145D01*
X17307Y-32145D02*
X19307Y-32145D01*
X19307Y-32145D02*
X19307Y-37145D01*
X19307Y-37145D02*
X17307Y-37145D01*
X17307Y-29271D02*
X17307Y-24271D01*
X17307Y-24271D02*
X19307Y-24271D01*
X19307Y-24271D02*
X19307Y-29271D01*
X19307Y-29271D02*
X17307Y-29271D01*
G54D12*
X17988Y-12582D02*
X20988Y-12582D01*
X20988Y-14582D02*
X17988Y-14582D01*
X17988Y-14582D02*
X17988Y-12582D01*
X20988Y-12582D02*
X20988Y-14582D01*
X19307Y-18381D02*
X19307Y-21381D01*
X17307Y-21381D02*
X17307Y-18381D01*
X17307Y-18381D02*
X19307Y-18381D01*
X19307Y-21381D02*
X17307Y-21381D01*
X44869Y-19145D02*
X44955Y-19168D01*
X45097Y-19168D01*
X45155Y-19145D01*
X45183Y-19121D01*
X45212Y-19073D01*
X45212Y-19026D01*
X45183Y-18978D01*
X45155Y-18954D01*
X45097Y-18930D01*
X44983Y-18907D01*
X44926Y-18883D01*
X44897Y-18859D01*
X44869Y-18811D01*
X44869Y-18764D01*
X44897Y-18716D01*
X44926Y-18692D01*
X44983Y-18668D01*
X45126Y-18668D01*
X45212Y-18692D01*
X45412Y-18668D02*
X45555Y-19168D01*
X45669Y-18811D01*
X45783Y-19168D01*
X45926Y-18668D01*
X46412Y-18668D02*
X46297Y-18668D01*
X46240Y-18692D01*
X46212Y-18716D01*
X46155Y-18787D01*
X46126Y-18883D01*
X46126Y-19073D01*
X46155Y-19121D01*
X46183Y-19145D01*
X46240Y-19168D01*
X46355Y-19168D01*
X46412Y-19145D01*
X46440Y-19121D01*
X46469Y-19073D01*
X46469Y-18954D01*
X46440Y-18907D01*
X46412Y-18883D01*
X46355Y-18859D01*
X46240Y-18859D01*
X46183Y-18883D01*
X46155Y-18907D01*
X46126Y-18954D01*
X55607Y-37649D02*
X55692Y-37672D01*
X55835Y-37672D01*
X55892Y-37649D01*
X55921Y-37625D01*
X55950Y-37577D01*
X55950Y-37529D01*
X55921Y-37482D01*
X55892Y-37458D01*
X55835Y-37434D01*
X55721Y-37410D01*
X55664Y-37387D01*
X55635Y-37363D01*
X55607Y-37315D01*
X55607Y-37268D01*
X55635Y-37220D01*
X55664Y-37196D01*
X55721Y-37172D01*
X55864Y-37172D01*
X55950Y-37196D01*
X56150Y-37172D02*
X56292Y-37672D01*
X56407Y-37315D01*
X56521Y-37672D01*
X56664Y-37172D01*
X57207Y-37672D02*
X56864Y-37672D01*
X57035Y-37672D02*
X57035Y-37172D01*
X56978Y-37244D01*
X56921Y-37291D01*
X56864Y-37315D01*
X57550Y-37387D02*
X57492Y-37363D01*
X57464Y-37339D01*
X57435Y-37291D01*
X57435Y-37268D01*
X57464Y-37220D01*
X57492Y-37196D01*
X57550Y-37172D01*
X57664Y-37172D01*
X57721Y-37196D01*
X57750Y-37220D01*
X57778Y-37268D01*
X57778Y-37291D01*
X57750Y-37339D01*
X57721Y-37363D01*
X57664Y-37387D01*
X57550Y-37387D01*
X57492Y-37410D01*
X57464Y-37434D01*
X57435Y-37482D01*
X57435Y-37577D01*
X57464Y-37625D01*
X57492Y-37649D01*
X57550Y-37672D01*
X57664Y-37672D01*
X57721Y-37649D01*
X57750Y-37625D01*
X57778Y-37577D01*
X57778Y-37482D01*
X57750Y-37434D01*
X57721Y-37410D01*
X57664Y-37387D01*
X50095Y-45129D02*
X50181Y-45153D01*
X50323Y-45153D01*
X50381Y-45129D01*
X50409Y-45105D01*
X50438Y-45057D01*
X50438Y-45010D01*
X50409Y-44962D01*
X50381Y-44938D01*
X50323Y-44915D01*
X50209Y-44891D01*
X50152Y-44867D01*
X50123Y-44843D01*
X50095Y-44796D01*
X50095Y-44748D01*
X50123Y-44700D01*
X50152Y-44676D01*
X50209Y-44653D01*
X50352Y-44653D01*
X50438Y-44676D01*
X50638Y-44653D02*
X50781Y-45153D01*
X50895Y-44796D01*
X51009Y-45153D01*
X51152Y-44653D01*
X51695Y-45153D02*
X51352Y-45153D01*
X51523Y-45153D02*
X51523Y-44653D01*
X51466Y-44724D01*
X51409Y-44772D01*
X51352Y-44796D01*
X51981Y-45153D02*
X52095Y-45153D01*
X52152Y-45129D01*
X52181Y-45105D01*
X52238Y-45034D01*
X52266Y-44938D01*
X52266Y-44748D01*
X52238Y-44700D01*
X52209Y-44676D01*
X52152Y-44653D01*
X52038Y-44653D01*
X51981Y-44676D01*
X51952Y-44700D01*
X51923Y-44748D01*
X51923Y-44867D01*
X51952Y-44915D01*
X51981Y-44938D01*
X52038Y-44962D01*
X52152Y-44962D01*
X52209Y-44938D01*
X52238Y-44915D01*
X52266Y-44867D01*
X46158Y-52609D02*
X46244Y-52633D01*
X46386Y-52633D01*
X46444Y-52609D01*
X46472Y-52585D01*
X46501Y-52538D01*
X46501Y-52490D01*
X46472Y-52443D01*
X46444Y-52419D01*
X46386Y-52395D01*
X46272Y-52371D01*
X46215Y-52347D01*
X46186Y-52323D01*
X46158Y-52276D01*
X46158Y-52228D01*
X46186Y-52181D01*
X46215Y-52157D01*
X46272Y-52133D01*
X46415Y-52133D01*
X46501Y-52157D01*
X46701Y-52133D02*
X46844Y-52633D01*
X46958Y-52276D01*
X47072Y-52633D01*
X47215Y-52133D01*
X47415Y-52181D02*
X47444Y-52157D01*
X47501Y-52133D01*
X47644Y-52133D01*
X47701Y-52157D01*
X47729Y-52181D01*
X47758Y-52228D01*
X47758Y-52276D01*
X47729Y-52347D01*
X47386Y-52633D01*
X47758Y-52633D01*
X48129Y-52133D02*
X48186Y-52133D01*
X48244Y-52157D01*
X48272Y-52181D01*
X48301Y-52228D01*
X48329Y-52323D01*
X48329Y-52443D01*
X48301Y-52538D01*
X48272Y-52585D01*
X48244Y-52609D01*
X48186Y-52633D01*
X48129Y-52633D01*
X48072Y-52609D01*
X48044Y-52585D01*
X48015Y-52538D01*
X47986Y-52443D01*
X47986Y-52323D01*
X48015Y-52228D01*
X48044Y-52181D01*
X48072Y-52157D01*
X48129Y-52133D01*
X26079Y-60089D02*
X26165Y-60113D01*
X26308Y-60113D01*
X26365Y-60089D01*
X26393Y-60066D01*
X26422Y-60018D01*
X26422Y-59970D01*
X26393Y-59923D01*
X26365Y-59899D01*
X26308Y-59875D01*
X26193Y-59851D01*
X26136Y-59828D01*
X26108Y-59804D01*
X26079Y-59756D01*
X26079Y-59709D01*
X26108Y-59661D01*
X26136Y-59637D01*
X26193Y-59613D01*
X26336Y-59613D01*
X26422Y-59637D01*
X26622Y-59613D02*
X26765Y-60113D01*
X26879Y-59756D01*
X26993Y-60113D01*
X27136Y-59613D01*
X27336Y-59661D02*
X27365Y-59637D01*
X27422Y-59613D01*
X27565Y-59613D01*
X27622Y-59637D01*
X27651Y-59661D01*
X27679Y-59709D01*
X27679Y-59756D01*
X27651Y-59828D01*
X27308Y-60113D01*
X27679Y-60113D01*
X28251Y-60113D02*
X27908Y-60113D01*
X28079Y-60113D02*
X28079Y-59613D01*
X28022Y-59685D01*
X27965Y-59732D01*
X27908Y-59756D01*
X52063Y-19145D02*
X52149Y-19168D01*
X52292Y-19168D01*
X52349Y-19145D01*
X52378Y-19121D01*
X52406Y-19073D01*
X52406Y-19026D01*
X52378Y-18978D01*
X52349Y-18954D01*
X52292Y-18930D01*
X52178Y-18907D01*
X52121Y-18883D01*
X52092Y-18859D01*
X52063Y-18811D01*
X52063Y-18764D01*
X52092Y-18716D01*
X52121Y-18692D01*
X52178Y-18668D01*
X52321Y-18668D01*
X52406Y-18692D01*
X52606Y-18668D02*
X52749Y-19168D01*
X52863Y-18811D01*
X52978Y-19168D01*
X53121Y-18668D01*
X53663Y-19168D02*
X53321Y-19168D01*
X53492Y-19168D02*
X53492Y-18668D01*
X53435Y-18740D01*
X53378Y-18787D01*
X53321Y-18811D01*
X54235Y-19168D02*
X53892Y-19168D01*
X54063Y-19168D02*
X54063Y-18668D01*
X54006Y-18740D01*
X53949Y-18787D01*
X53892Y-18811D01*
X44583Y-30168D02*
X44669Y-30192D01*
X44812Y-30192D01*
X44869Y-30168D01*
X44897Y-30144D01*
X44926Y-30097D01*
X44926Y-30049D01*
X44897Y-30002D01*
X44869Y-29978D01*
X44812Y-29954D01*
X44697Y-29930D01*
X44640Y-29906D01*
X44612Y-29883D01*
X44583Y-29835D01*
X44583Y-29787D01*
X44612Y-29740D01*
X44640Y-29716D01*
X44697Y-29692D01*
X44840Y-29692D01*
X44926Y-29716D01*
X45126Y-29692D02*
X45269Y-30192D01*
X45383Y-29835D01*
X45497Y-30192D01*
X45640Y-29692D01*
X46183Y-30192D02*
X45840Y-30192D01*
X46012Y-30192D02*
X46012Y-29692D01*
X45955Y-29763D01*
X45897Y-29811D01*
X45840Y-29835D01*
X46412Y-29740D02*
X46440Y-29716D01*
X46497Y-29692D01*
X46640Y-29692D01*
X46697Y-29716D01*
X46726Y-29740D01*
X46755Y-29787D01*
X46755Y-29835D01*
X46726Y-29906D01*
X46383Y-30192D01*
X46755Y-30192D01*
X48126Y-37649D02*
X48212Y-37672D01*
X48355Y-37672D01*
X48412Y-37649D01*
X48441Y-37625D01*
X48469Y-37577D01*
X48469Y-37529D01*
X48441Y-37482D01*
X48412Y-37458D01*
X48355Y-37434D01*
X48241Y-37410D01*
X48184Y-37387D01*
X48155Y-37363D01*
X48126Y-37315D01*
X48126Y-37268D01*
X48155Y-37220D01*
X48184Y-37196D01*
X48241Y-37172D01*
X48384Y-37172D01*
X48469Y-37196D01*
X48669Y-37172D02*
X48812Y-37672D01*
X48926Y-37315D01*
X49041Y-37672D01*
X49184Y-37172D01*
X49726Y-37672D02*
X49384Y-37672D01*
X49555Y-37672D02*
X49555Y-37172D01*
X49498Y-37244D01*
X49441Y-37291D01*
X49384Y-37315D01*
X49926Y-37172D02*
X50298Y-37172D01*
X50098Y-37363D01*
X50184Y-37363D01*
X50241Y-37387D01*
X50269Y-37410D01*
X50298Y-37458D01*
X50298Y-37577D01*
X50269Y-37625D01*
X50241Y-37649D01*
X50184Y-37672D01*
X50012Y-37672D01*
X49955Y-37649D01*
X49926Y-37625D01*
X42615Y-45129D02*
X42700Y-45153D01*
X42843Y-45153D01*
X42900Y-45129D01*
X42929Y-45105D01*
X42957Y-45057D01*
X42957Y-45010D01*
X42929Y-44962D01*
X42900Y-44938D01*
X42843Y-44915D01*
X42729Y-44891D01*
X42672Y-44867D01*
X42643Y-44843D01*
X42615Y-44796D01*
X42615Y-44748D01*
X42643Y-44700D01*
X42672Y-44676D01*
X42729Y-44653D01*
X42872Y-44653D01*
X42957Y-44676D01*
X43157Y-44653D02*
X43300Y-45153D01*
X43415Y-44796D01*
X43529Y-45153D01*
X43672Y-44653D01*
X44215Y-45153D02*
X43872Y-45153D01*
X44043Y-45153D02*
X44043Y-44653D01*
X43986Y-44724D01*
X43929Y-44772D01*
X43872Y-44796D01*
X44729Y-44819D02*
X44729Y-45153D01*
X44586Y-44629D02*
X44443Y-44986D01*
X44815Y-44986D01*
X38678Y-52609D02*
X38763Y-52633D01*
X38906Y-52633D01*
X38963Y-52609D01*
X38992Y-52585D01*
X39020Y-52538D01*
X39020Y-52490D01*
X38992Y-52443D01*
X38963Y-52419D01*
X38906Y-52395D01*
X38792Y-52371D01*
X38735Y-52347D01*
X38706Y-52323D01*
X38678Y-52276D01*
X38678Y-52228D01*
X38706Y-52181D01*
X38735Y-52157D01*
X38792Y-52133D01*
X38935Y-52133D01*
X39020Y-52157D01*
X39220Y-52133D02*
X39363Y-52633D01*
X39478Y-52276D01*
X39592Y-52633D01*
X39735Y-52133D01*
X40278Y-52633D02*
X39935Y-52633D01*
X40106Y-52633D02*
X40106Y-52133D01*
X40049Y-52204D01*
X39992Y-52252D01*
X39935Y-52276D01*
X40820Y-52133D02*
X40535Y-52133D01*
X40506Y-52371D01*
X40535Y-52347D01*
X40592Y-52323D01*
X40735Y-52323D01*
X40792Y-52347D01*
X40820Y-52371D01*
X40849Y-52419D01*
X40849Y-52538D01*
X40820Y-52585D01*
X40792Y-52609D01*
X40735Y-52633D01*
X40592Y-52633D01*
X40535Y-52609D01*
X40506Y-52585D01*
X81985Y-19145D02*
X82070Y-19168D01*
X82213Y-19168D01*
X82270Y-19145D01*
X82299Y-19121D01*
X82328Y-19073D01*
X82328Y-19026D01*
X82299Y-18978D01*
X82270Y-18954D01*
X82213Y-18930D01*
X82099Y-18907D01*
X82042Y-18883D01*
X82013Y-18859D01*
X81985Y-18811D01*
X81985Y-18764D01*
X82013Y-18716D01*
X82042Y-18692D01*
X82099Y-18668D01*
X82242Y-18668D01*
X82328Y-18692D01*
X82528Y-18668D02*
X82670Y-19168D01*
X82785Y-18811D01*
X82899Y-19168D01*
X83042Y-18668D01*
X83213Y-18668D02*
X83585Y-18668D01*
X83385Y-18859D01*
X83470Y-18859D01*
X83528Y-18883D01*
X83556Y-18907D01*
X83585Y-18954D01*
X83585Y-19073D01*
X83556Y-19121D01*
X83528Y-19145D01*
X83470Y-19168D01*
X83299Y-19168D01*
X83242Y-19145D01*
X83213Y-19121D01*
X84099Y-18835D02*
X84099Y-19168D01*
X83956Y-18645D02*
X83813Y-19002D01*
X84185Y-19002D01*
X37388Y-30168D02*
X37474Y-30192D01*
X37617Y-30192D01*
X37674Y-30168D01*
X37703Y-30144D01*
X37731Y-30097D01*
X37731Y-30049D01*
X37703Y-30002D01*
X37674Y-29978D01*
X37617Y-29954D01*
X37503Y-29930D01*
X37446Y-29906D01*
X37417Y-29883D01*
X37388Y-29835D01*
X37388Y-29787D01*
X37417Y-29740D01*
X37446Y-29716D01*
X37503Y-29692D01*
X37646Y-29692D01*
X37731Y-29716D01*
X37931Y-29692D02*
X38074Y-30192D01*
X38188Y-29835D01*
X38303Y-30192D01*
X38446Y-29692D01*
X38617Y-29692D02*
X39017Y-29692D01*
X38760Y-30192D01*
X40932Y-37649D02*
X41017Y-37672D01*
X41160Y-37672D01*
X41217Y-37649D01*
X41246Y-37625D01*
X41275Y-37577D01*
X41275Y-37529D01*
X41246Y-37482D01*
X41217Y-37458D01*
X41160Y-37434D01*
X41046Y-37410D01*
X40989Y-37387D01*
X40960Y-37363D01*
X40932Y-37315D01*
X40932Y-37268D01*
X40960Y-37220D01*
X40989Y-37196D01*
X41046Y-37172D01*
X41189Y-37172D01*
X41275Y-37196D01*
X41475Y-37172D02*
X41617Y-37672D01*
X41732Y-37315D01*
X41846Y-37672D01*
X41989Y-37172D01*
X42303Y-37387D02*
X42246Y-37363D01*
X42217Y-37339D01*
X42189Y-37291D01*
X42189Y-37268D01*
X42217Y-37220D01*
X42246Y-37196D01*
X42303Y-37172D01*
X42417Y-37172D01*
X42475Y-37196D01*
X42503Y-37220D01*
X42532Y-37268D01*
X42532Y-37291D01*
X42503Y-37339D01*
X42475Y-37363D01*
X42417Y-37387D01*
X42303Y-37387D01*
X42246Y-37410D01*
X42217Y-37434D01*
X42189Y-37482D01*
X42189Y-37577D01*
X42217Y-37625D01*
X42246Y-37649D01*
X42303Y-37672D01*
X42417Y-37672D01*
X42475Y-37649D01*
X42503Y-37625D01*
X42532Y-37577D01*
X42532Y-37482D01*
X42503Y-37434D01*
X42475Y-37410D01*
X42417Y-37387D01*
X35420Y-45129D02*
X35506Y-45153D01*
X35649Y-45153D01*
X35706Y-45129D01*
X35734Y-45105D01*
X35763Y-45057D01*
X35763Y-45010D01*
X35734Y-44962D01*
X35706Y-44938D01*
X35649Y-44915D01*
X35534Y-44891D01*
X35477Y-44867D01*
X35449Y-44843D01*
X35420Y-44796D01*
X35420Y-44748D01*
X35449Y-44700D01*
X35477Y-44676D01*
X35534Y-44653D01*
X35677Y-44653D01*
X35763Y-44676D01*
X35963Y-44653D02*
X36106Y-45153D01*
X36220Y-44796D01*
X36334Y-45153D01*
X36477Y-44653D01*
X36734Y-45153D02*
X36849Y-45153D01*
X36906Y-45129D01*
X36934Y-45105D01*
X36991Y-45034D01*
X37020Y-44938D01*
X37020Y-44748D01*
X36991Y-44700D01*
X36963Y-44676D01*
X36906Y-44653D01*
X36791Y-44653D01*
X36734Y-44676D01*
X36706Y-44700D01*
X36677Y-44748D01*
X36677Y-44867D01*
X36706Y-44915D01*
X36734Y-44938D01*
X36791Y-44962D01*
X36906Y-44962D01*
X36963Y-44938D01*
X36991Y-44915D01*
X37020Y-44867D01*
X31197Y-52609D02*
X31283Y-52633D01*
X31426Y-52633D01*
X31483Y-52609D01*
X31512Y-52585D01*
X31540Y-52538D01*
X31540Y-52490D01*
X31512Y-52443D01*
X31483Y-52419D01*
X31426Y-52395D01*
X31312Y-52371D01*
X31254Y-52347D01*
X31226Y-52323D01*
X31197Y-52276D01*
X31197Y-52228D01*
X31226Y-52181D01*
X31254Y-52157D01*
X31312Y-52133D01*
X31454Y-52133D01*
X31540Y-52157D01*
X31740Y-52133D02*
X31883Y-52633D01*
X31997Y-52276D01*
X32112Y-52633D01*
X32254Y-52133D01*
X32797Y-52633D02*
X32454Y-52633D01*
X32626Y-52633D02*
X32626Y-52133D01*
X32569Y-52204D01*
X32512Y-52252D01*
X32454Y-52276D01*
X33169Y-52133D02*
X33226Y-52133D01*
X33283Y-52157D01*
X33312Y-52181D01*
X33340Y-52228D01*
X33369Y-52323D01*
X33369Y-52443D01*
X33340Y-52538D01*
X33312Y-52585D01*
X33283Y-52609D01*
X33226Y-52633D01*
X33169Y-52633D01*
X33112Y-52609D01*
X33083Y-52585D01*
X33054Y-52538D01*
X33026Y-52443D01*
X33026Y-52323D01*
X33054Y-52228D01*
X33083Y-52181D01*
X33112Y-52157D01*
X33169Y-52133D01*
X37388Y-19145D02*
X37474Y-19168D01*
X37617Y-19168D01*
X37674Y-19145D01*
X37703Y-19121D01*
X37731Y-19073D01*
X37731Y-19026D01*
X37703Y-18978D01*
X37674Y-18954D01*
X37617Y-18930D01*
X37503Y-18907D01*
X37446Y-18883D01*
X37417Y-18859D01*
X37388Y-18811D01*
X37388Y-18764D01*
X37417Y-18716D01*
X37446Y-18692D01*
X37503Y-18668D01*
X37646Y-18668D01*
X37731Y-18692D01*
X37931Y-18668D02*
X38074Y-19168D01*
X38188Y-18811D01*
X38303Y-19168D01*
X38446Y-18668D01*
X38646Y-18716D02*
X38674Y-18692D01*
X38731Y-18668D01*
X38874Y-18668D01*
X38931Y-18692D01*
X38960Y-18716D01*
X38988Y-18764D01*
X38988Y-18811D01*
X38960Y-18883D01*
X38617Y-19168D01*
X38988Y-19168D01*
X29908Y-30168D02*
X29994Y-30192D01*
X30137Y-30192D01*
X30194Y-30168D01*
X30222Y-30144D01*
X30251Y-30097D01*
X30251Y-30049D01*
X30222Y-30002D01*
X30194Y-29978D01*
X30137Y-29954D01*
X30022Y-29930D01*
X29965Y-29906D01*
X29937Y-29883D01*
X29908Y-29835D01*
X29908Y-29787D01*
X29937Y-29740D01*
X29965Y-29716D01*
X30022Y-29692D01*
X30165Y-29692D01*
X30251Y-29716D01*
X30451Y-29692D02*
X30594Y-30192D01*
X30708Y-29835D01*
X30822Y-30192D01*
X30965Y-29692D01*
X31137Y-29692D02*
X31508Y-29692D01*
X31308Y-29883D01*
X31394Y-29883D01*
X31451Y-29906D01*
X31480Y-29930D01*
X31508Y-29978D01*
X31508Y-30097D01*
X31480Y-30144D01*
X31451Y-30168D01*
X31394Y-30192D01*
X31222Y-30192D01*
X31165Y-30168D01*
X31137Y-30144D01*
X33451Y-37649D02*
X33537Y-37672D01*
X33680Y-37672D01*
X33737Y-37649D01*
X33766Y-37625D01*
X33794Y-37577D01*
X33794Y-37529D01*
X33766Y-37482D01*
X33737Y-37458D01*
X33680Y-37434D01*
X33566Y-37410D01*
X33509Y-37387D01*
X33480Y-37363D01*
X33451Y-37315D01*
X33451Y-37268D01*
X33480Y-37220D01*
X33509Y-37196D01*
X33566Y-37172D01*
X33709Y-37172D01*
X33794Y-37196D01*
X33994Y-37172D02*
X34137Y-37672D01*
X34251Y-37315D01*
X34366Y-37672D01*
X34509Y-37172D01*
X34994Y-37339D02*
X34994Y-37672D01*
X34851Y-37149D02*
X34709Y-37506D01*
X35080Y-37506D01*
X27940Y-45129D02*
X28025Y-45153D01*
X28168Y-45153D01*
X28225Y-45129D01*
X28254Y-45105D01*
X28283Y-45057D01*
X28283Y-45010D01*
X28254Y-44962D01*
X28225Y-44938D01*
X28168Y-44915D01*
X28054Y-44891D01*
X27997Y-44867D01*
X27968Y-44843D01*
X27940Y-44796D01*
X27940Y-44748D01*
X27968Y-44700D01*
X27997Y-44676D01*
X28054Y-44653D01*
X28197Y-44653D01*
X28283Y-44676D01*
X28483Y-44653D02*
X28625Y-45153D01*
X28740Y-44796D01*
X28854Y-45153D01*
X28997Y-44653D01*
X29511Y-44653D02*
X29225Y-44653D01*
X29197Y-44891D01*
X29225Y-44867D01*
X29283Y-44843D01*
X29425Y-44843D01*
X29483Y-44867D01*
X29511Y-44891D01*
X29540Y-44938D01*
X29540Y-45057D01*
X29511Y-45105D01*
X29483Y-45129D01*
X29425Y-45153D01*
X29283Y-45153D01*
X29225Y-45129D01*
X29197Y-45105D01*
X25971Y-37649D02*
X26057Y-37672D01*
X26200Y-37672D01*
X26257Y-37649D01*
X26285Y-37625D01*
X26314Y-37577D01*
X26314Y-37529D01*
X26285Y-37482D01*
X26257Y-37458D01*
X26200Y-37434D01*
X26085Y-37410D01*
X26028Y-37387D01*
X26000Y-37363D01*
X25971Y-37315D01*
X25971Y-37268D01*
X26000Y-37220D01*
X26028Y-37196D01*
X26085Y-37172D01*
X26228Y-37172D01*
X26314Y-37196D01*
X26514Y-37172D02*
X26657Y-37672D01*
X26771Y-37315D01*
X26885Y-37672D01*
X27028Y-37172D01*
X27571Y-37672D02*
X27228Y-37672D01*
X27400Y-37672D02*
X27400Y-37172D01*
X27343Y-37244D01*
X27285Y-37291D01*
X27228Y-37315D01*
X52063Y-30168D02*
X52149Y-30192D01*
X52292Y-30192D01*
X52349Y-30168D01*
X52378Y-30144D01*
X52406Y-30097D01*
X52406Y-30049D01*
X52378Y-30002D01*
X52349Y-29978D01*
X52292Y-29954D01*
X52178Y-29930D01*
X52121Y-29906D01*
X52092Y-29883D01*
X52063Y-29835D01*
X52063Y-29787D01*
X52092Y-29740D01*
X52121Y-29716D01*
X52178Y-29692D01*
X52321Y-29692D01*
X52406Y-29716D01*
X52606Y-29692D02*
X52749Y-30192D01*
X52863Y-29835D01*
X52978Y-30192D01*
X53121Y-29692D01*
X53663Y-30192D02*
X53321Y-30192D01*
X53492Y-30192D02*
X53492Y-29692D01*
X53435Y-29763D01*
X53378Y-29811D01*
X53321Y-29835D01*
X53863Y-29692D02*
X54263Y-29692D01*
X54006Y-30192D01*
X78244Y-30168D02*
X78330Y-30192D01*
X78473Y-30192D01*
X78530Y-30168D01*
X78559Y-30144D01*
X78587Y-30097D01*
X78587Y-30049D01*
X78559Y-30002D01*
X78530Y-29978D01*
X78473Y-29954D01*
X78359Y-29930D01*
X78302Y-29906D01*
X78273Y-29883D01*
X78244Y-29835D01*
X78244Y-29787D01*
X78273Y-29740D01*
X78302Y-29716D01*
X78359Y-29692D01*
X78502Y-29692D01*
X78587Y-29716D01*
X78787Y-29692D02*
X78930Y-30192D01*
X79044Y-29835D01*
X79159Y-30192D01*
X79302Y-29692D01*
X79473Y-29692D02*
X79844Y-29692D01*
X79644Y-29883D01*
X79730Y-29883D01*
X79787Y-29906D01*
X79816Y-29930D01*
X79844Y-29978D01*
X79844Y-30097D01*
X79816Y-30144D01*
X79787Y-30168D01*
X79730Y-30192D01*
X79559Y-30192D01*
X79502Y-30168D01*
X79473Y-30144D01*
X80387Y-29692D02*
X80102Y-29692D01*
X80073Y-29930D01*
X80102Y-29906D01*
X80159Y-29883D01*
X80302Y-29883D01*
X80359Y-29906D01*
X80387Y-29930D01*
X80416Y-29978D01*
X80416Y-30097D01*
X80387Y-30144D01*
X80359Y-30168D01*
X80302Y-30192D01*
X80159Y-30192D01*
X80102Y-30168D01*
X80073Y-30144D01*
X80016Y-37649D02*
X80102Y-37672D01*
X80245Y-37672D01*
X80302Y-37649D01*
X80330Y-37625D01*
X80359Y-37577D01*
X80359Y-37529D01*
X80330Y-37482D01*
X80302Y-37458D01*
X80245Y-37434D01*
X80130Y-37410D01*
X80073Y-37387D01*
X80045Y-37363D01*
X80016Y-37315D01*
X80016Y-37268D01*
X80045Y-37220D01*
X80073Y-37196D01*
X80130Y-37172D01*
X80273Y-37172D01*
X80359Y-37196D01*
X80559Y-37172D02*
X80702Y-37672D01*
X80816Y-37315D01*
X80930Y-37672D01*
X81073Y-37172D01*
X81245Y-37172D02*
X81616Y-37172D01*
X81416Y-37363D01*
X81502Y-37363D01*
X81559Y-37387D01*
X81588Y-37410D01*
X81616Y-37458D01*
X81616Y-37577D01*
X81588Y-37625D01*
X81559Y-37649D01*
X81502Y-37672D01*
X81330Y-37672D01*
X81273Y-37649D01*
X81245Y-37625D01*
X82130Y-37172D02*
X82016Y-37172D01*
X81959Y-37196D01*
X81930Y-37220D01*
X81873Y-37291D01*
X81845Y-37387D01*
X81845Y-37577D01*
X81873Y-37625D01*
X81902Y-37649D01*
X81959Y-37672D01*
X82073Y-37672D01*
X82130Y-37649D01*
X82159Y-37625D01*
X82188Y-37577D01*
X82188Y-37458D01*
X82159Y-37410D01*
X82130Y-37387D01*
X82073Y-37363D01*
X81959Y-37363D01*
X81902Y-37387D01*
X81873Y-37410D01*
X81845Y-37458D01*
X77260Y-45129D02*
X77346Y-45153D01*
X77489Y-45153D01*
X77546Y-45129D01*
X77575Y-45105D01*
X77603Y-45057D01*
X77603Y-45010D01*
X77575Y-44962D01*
X77546Y-44938D01*
X77489Y-44915D01*
X77375Y-44891D01*
X77317Y-44867D01*
X77289Y-44843D01*
X77260Y-44796D01*
X77260Y-44748D01*
X77289Y-44700D01*
X77317Y-44676D01*
X77375Y-44653D01*
X77517Y-44653D01*
X77603Y-44676D01*
X77803Y-44653D02*
X77946Y-45153D01*
X78060Y-44796D01*
X78175Y-45153D01*
X78317Y-44653D01*
X78489Y-44653D02*
X78860Y-44653D01*
X78660Y-44843D01*
X78746Y-44843D01*
X78803Y-44867D01*
X78832Y-44891D01*
X78860Y-44938D01*
X78860Y-45057D01*
X78832Y-45105D01*
X78803Y-45129D01*
X78746Y-45153D01*
X78575Y-45153D01*
X78517Y-45129D01*
X78489Y-45105D01*
X79060Y-44653D02*
X79460Y-44653D01*
X79203Y-45153D01*
X75292Y-52609D02*
X75377Y-52633D01*
X75520Y-52633D01*
X75577Y-52609D01*
X75606Y-52585D01*
X75635Y-52538D01*
X75635Y-52490D01*
X75606Y-52443D01*
X75577Y-52419D01*
X75520Y-52395D01*
X75406Y-52371D01*
X75349Y-52347D01*
X75320Y-52323D01*
X75292Y-52276D01*
X75292Y-52228D01*
X75320Y-52181D01*
X75349Y-52157D01*
X75406Y-52133D01*
X75549Y-52133D01*
X75635Y-52157D01*
X75835Y-52133D02*
X75977Y-52633D01*
X76092Y-52276D01*
X76206Y-52633D01*
X76349Y-52133D01*
X76520Y-52133D02*
X76892Y-52133D01*
X76692Y-52323D01*
X76777Y-52323D01*
X76835Y-52347D01*
X76863Y-52371D01*
X76892Y-52419D01*
X76892Y-52538D01*
X76863Y-52585D01*
X76835Y-52609D01*
X76777Y-52633D01*
X76606Y-52633D01*
X76549Y-52609D01*
X76520Y-52585D01*
X77235Y-52347D02*
X77177Y-52323D01*
X77149Y-52300D01*
X77120Y-52252D01*
X77120Y-52228D01*
X77149Y-52181D01*
X77177Y-52157D01*
X77235Y-52133D01*
X77349Y-52133D01*
X77406Y-52157D01*
X77435Y-52181D01*
X77463Y-52228D01*
X77463Y-52252D01*
X77435Y-52300D01*
X77406Y-52323D01*
X77349Y-52347D01*
X77235Y-52347D01*
X77177Y-52371D01*
X77149Y-52395D01*
X77120Y-52443D01*
X77120Y-52538D01*
X77149Y-52585D01*
X77177Y-52609D01*
X77235Y-52633D01*
X77349Y-52633D01*
X77406Y-52609D01*
X77435Y-52585D01*
X77463Y-52538D01*
X77463Y-52443D01*
X77435Y-52395D01*
X77406Y-52371D01*
X77349Y-52347D01*
X81000Y-60089D02*
X81086Y-60113D01*
X81229Y-60113D01*
X81286Y-60089D01*
X81315Y-60066D01*
X81343Y-60018D01*
X81343Y-59970D01*
X81315Y-59923D01*
X81286Y-59899D01*
X81229Y-59875D01*
X81115Y-59851D01*
X81058Y-59828D01*
X81029Y-59804D01*
X81000Y-59756D01*
X81000Y-59709D01*
X81029Y-59661D01*
X81058Y-59637D01*
X81115Y-59613D01*
X81258Y-59613D01*
X81343Y-59637D01*
X81543Y-59613D02*
X81686Y-60113D01*
X81800Y-59756D01*
X81915Y-60113D01*
X82058Y-59613D01*
X82229Y-59613D02*
X82600Y-59613D01*
X82400Y-59804D01*
X82486Y-59804D01*
X82543Y-59828D01*
X82572Y-59851D01*
X82600Y-59899D01*
X82600Y-60018D01*
X82572Y-60066D01*
X82543Y-60089D01*
X82486Y-60113D01*
X82315Y-60113D01*
X82258Y-60089D01*
X82229Y-60066D01*
X82886Y-60113D02*
X83000Y-60113D01*
X83058Y-60089D01*
X83086Y-60066D01*
X83143Y-59994D01*
X83172Y-59899D01*
X83172Y-59709D01*
X83143Y-59661D01*
X83115Y-59637D01*
X83058Y-59613D01*
X82943Y-59613D01*
X82886Y-59637D01*
X82858Y-59661D01*
X82829Y-59709D01*
X82829Y-59828D01*
X82858Y-59875D01*
X82886Y-59899D01*
X82943Y-59923D01*
X83058Y-59923D01*
X83115Y-59899D01*
X83143Y-59875D01*
X83172Y-59828D01*
X74504Y-19145D02*
X74590Y-19168D01*
X74733Y-19168D01*
X74790Y-19145D01*
X74819Y-19121D01*
X74847Y-19073D01*
X74847Y-19026D01*
X74819Y-18978D01*
X74790Y-18954D01*
X74733Y-18930D01*
X74619Y-18907D01*
X74561Y-18883D01*
X74533Y-18859D01*
X74504Y-18811D01*
X74504Y-18764D01*
X74533Y-18716D01*
X74561Y-18692D01*
X74619Y-18668D01*
X74761Y-18668D01*
X74847Y-18692D01*
X75047Y-18668D02*
X75190Y-19168D01*
X75304Y-18811D01*
X75419Y-19168D01*
X75561Y-18668D01*
X75761Y-18716D02*
X75790Y-18692D01*
X75847Y-18668D01*
X75990Y-18668D01*
X76047Y-18692D01*
X76076Y-18716D01*
X76104Y-18764D01*
X76104Y-18811D01*
X76076Y-18883D01*
X75733Y-19168D01*
X76104Y-19168D01*
X76447Y-18883D02*
X76390Y-18859D01*
X76361Y-18835D01*
X76333Y-18787D01*
X76333Y-18764D01*
X76361Y-18716D01*
X76390Y-18692D01*
X76447Y-18668D01*
X76561Y-18668D01*
X76619Y-18692D01*
X76647Y-18716D01*
X76676Y-18764D01*
X76676Y-18787D01*
X76647Y-18835D01*
X76619Y-18859D01*
X76561Y-18883D01*
X76447Y-18883D01*
X76390Y-18907D01*
X76361Y-18930D01*
X76333Y-18978D01*
X76333Y-19073D01*
X76361Y-19121D01*
X76390Y-19145D01*
X76447Y-19168D01*
X76561Y-19168D01*
X76619Y-19145D01*
X76647Y-19121D01*
X76676Y-19073D01*
X76676Y-18978D01*
X76647Y-18930D01*
X76619Y-18907D01*
X76561Y-18883D01*
X67024Y-30168D02*
X67110Y-30192D01*
X67253Y-30192D01*
X67310Y-30168D01*
X67338Y-30144D01*
X67367Y-30097D01*
X67367Y-30049D01*
X67338Y-30002D01*
X67310Y-29978D01*
X67253Y-29954D01*
X67138Y-29930D01*
X67081Y-29906D01*
X67053Y-29883D01*
X67024Y-29835D01*
X67024Y-29787D01*
X67053Y-29740D01*
X67081Y-29716D01*
X67138Y-29692D01*
X67281Y-29692D01*
X67367Y-29716D01*
X67567Y-29692D02*
X67710Y-30192D01*
X67824Y-29835D01*
X67938Y-30192D01*
X68081Y-29692D01*
X68281Y-29740D02*
X68310Y-29716D01*
X68367Y-29692D01*
X68510Y-29692D01*
X68567Y-29716D01*
X68595Y-29740D01*
X68624Y-29787D01*
X68624Y-29835D01*
X68595Y-29906D01*
X68253Y-30192D01*
X68624Y-30192D01*
X68910Y-30192D02*
X69024Y-30192D01*
X69081Y-30168D01*
X69110Y-30144D01*
X69167Y-30073D01*
X69195Y-29978D01*
X69195Y-29787D01*
X69167Y-29740D01*
X69138Y-29716D01*
X69081Y-29692D01*
X68967Y-29692D01*
X68910Y-29716D01*
X68881Y-29740D01*
X68853Y-29787D01*
X68853Y-29906D01*
X68881Y-29954D01*
X68910Y-29978D01*
X68967Y-30002D01*
X69081Y-30002D01*
X69138Y-29978D01*
X69167Y-29954D01*
X69195Y-29906D01*
X70567Y-37649D02*
X70653Y-37672D01*
X70796Y-37672D01*
X70853Y-37649D01*
X70882Y-37625D01*
X70910Y-37577D01*
X70910Y-37529D01*
X70882Y-37482D01*
X70853Y-37458D01*
X70796Y-37434D01*
X70682Y-37410D01*
X70624Y-37387D01*
X70596Y-37363D01*
X70567Y-37315D01*
X70567Y-37268D01*
X70596Y-37220D01*
X70624Y-37196D01*
X70682Y-37172D01*
X70824Y-37172D01*
X70910Y-37196D01*
X71110Y-37172D02*
X71253Y-37672D01*
X71367Y-37315D01*
X71482Y-37672D01*
X71624Y-37172D01*
X71796Y-37172D02*
X72167Y-37172D01*
X71967Y-37363D01*
X72053Y-37363D01*
X72110Y-37387D01*
X72139Y-37410D01*
X72167Y-37458D01*
X72167Y-37577D01*
X72139Y-37625D01*
X72110Y-37649D01*
X72053Y-37672D01*
X71882Y-37672D01*
X71824Y-37649D01*
X71796Y-37625D01*
X72539Y-37172D02*
X72596Y-37172D01*
X72653Y-37196D01*
X72682Y-37220D01*
X72710Y-37268D01*
X72739Y-37363D01*
X72739Y-37482D01*
X72710Y-37577D01*
X72682Y-37625D01*
X72653Y-37649D01*
X72596Y-37672D01*
X72539Y-37672D01*
X72482Y-37649D01*
X72453Y-37625D01*
X72424Y-37577D01*
X72396Y-37482D01*
X72396Y-37363D01*
X72424Y-37268D01*
X72453Y-37220D01*
X72482Y-37196D01*
X72539Y-37172D01*
X65056Y-45129D02*
X65141Y-45153D01*
X65284Y-45153D01*
X65341Y-45129D01*
X65370Y-45105D01*
X65398Y-45057D01*
X65398Y-45010D01*
X65370Y-44962D01*
X65341Y-44938D01*
X65284Y-44915D01*
X65170Y-44891D01*
X65113Y-44867D01*
X65084Y-44843D01*
X65056Y-44796D01*
X65056Y-44748D01*
X65084Y-44700D01*
X65113Y-44676D01*
X65170Y-44653D01*
X65313Y-44653D01*
X65398Y-44676D01*
X65598Y-44653D02*
X65741Y-45153D01*
X65856Y-44796D01*
X65970Y-45153D01*
X66113Y-44653D01*
X66284Y-44653D02*
X66656Y-44653D01*
X66456Y-44843D01*
X66541Y-44843D01*
X66598Y-44867D01*
X66627Y-44891D01*
X66656Y-44938D01*
X66656Y-45057D01*
X66627Y-45105D01*
X66598Y-45129D01*
X66541Y-45153D01*
X66370Y-45153D01*
X66313Y-45129D01*
X66284Y-45105D01*
X67227Y-45153D02*
X66884Y-45153D01*
X67056Y-45153D02*
X67056Y-44653D01*
X66998Y-44724D01*
X66941Y-44772D01*
X66884Y-44796D01*
X61119Y-52609D02*
X61204Y-52633D01*
X61347Y-52633D01*
X61404Y-52609D01*
X61433Y-52585D01*
X61461Y-52538D01*
X61461Y-52490D01*
X61433Y-52443D01*
X61404Y-52419D01*
X61347Y-52395D01*
X61233Y-52371D01*
X61176Y-52347D01*
X61147Y-52323D01*
X61119Y-52276D01*
X61119Y-52228D01*
X61147Y-52181D01*
X61176Y-52157D01*
X61233Y-52133D01*
X61376Y-52133D01*
X61461Y-52157D01*
X61661Y-52133D02*
X61804Y-52633D01*
X61919Y-52276D01*
X62033Y-52633D01*
X62176Y-52133D01*
X62347Y-52133D02*
X62719Y-52133D01*
X62519Y-52323D01*
X62604Y-52323D01*
X62661Y-52347D01*
X62690Y-52371D01*
X62719Y-52419D01*
X62719Y-52538D01*
X62690Y-52585D01*
X62661Y-52609D01*
X62604Y-52633D01*
X62433Y-52633D01*
X62376Y-52609D01*
X62347Y-52585D01*
X62947Y-52181D02*
X62976Y-52157D01*
X63033Y-52133D01*
X63176Y-52133D01*
X63233Y-52157D01*
X63261Y-52181D01*
X63290Y-52228D01*
X63290Y-52276D01*
X63261Y-52347D01*
X62919Y-52633D01*
X63290Y-52633D01*
X71552Y-60089D02*
X71637Y-60113D01*
X71780Y-60113D01*
X71837Y-60089D01*
X71866Y-60066D01*
X71894Y-60018D01*
X71894Y-59970D01*
X71866Y-59923D01*
X71837Y-59899D01*
X71780Y-59875D01*
X71666Y-59851D01*
X71609Y-59828D01*
X71580Y-59804D01*
X71552Y-59756D01*
X71552Y-59709D01*
X71580Y-59661D01*
X71609Y-59637D01*
X71666Y-59613D01*
X71809Y-59613D01*
X71894Y-59637D01*
X72094Y-59613D02*
X72237Y-60113D01*
X72352Y-59756D01*
X72466Y-60113D01*
X72609Y-59613D01*
X72780Y-59613D02*
X73152Y-59613D01*
X72952Y-59804D01*
X73037Y-59804D01*
X73094Y-59828D01*
X73123Y-59851D01*
X73152Y-59899D01*
X73152Y-60018D01*
X73123Y-60066D01*
X73094Y-60089D01*
X73037Y-60113D01*
X72866Y-60113D01*
X72809Y-60089D01*
X72780Y-60066D01*
X73352Y-59613D02*
X73723Y-59613D01*
X73523Y-59804D01*
X73609Y-59804D01*
X73666Y-59828D01*
X73694Y-59851D01*
X73723Y-59899D01*
X73723Y-60018D01*
X73694Y-60066D01*
X73666Y-60089D01*
X73609Y-60113D01*
X73437Y-60113D01*
X73380Y-60089D01*
X73352Y-60066D01*
X67024Y-19145D02*
X67110Y-19168D01*
X67253Y-19168D01*
X67310Y-19145D01*
X67338Y-19121D01*
X67367Y-19073D01*
X67367Y-19026D01*
X67338Y-18978D01*
X67310Y-18954D01*
X67253Y-18930D01*
X67138Y-18907D01*
X67081Y-18883D01*
X67053Y-18859D01*
X67024Y-18811D01*
X67024Y-18764D01*
X67053Y-18716D01*
X67081Y-18692D01*
X67138Y-18668D01*
X67281Y-18668D01*
X67367Y-18692D01*
X67567Y-18668D02*
X67710Y-19168D01*
X67824Y-18811D01*
X67938Y-19168D01*
X68081Y-18668D01*
X68281Y-18716D02*
X68310Y-18692D01*
X68367Y-18668D01*
X68510Y-18668D01*
X68567Y-18692D01*
X68595Y-18716D01*
X68624Y-18764D01*
X68624Y-18811D01*
X68595Y-18883D01*
X68253Y-19168D01*
X68624Y-19168D01*
X68853Y-18716D02*
X68881Y-18692D01*
X68938Y-18668D01*
X69081Y-18668D01*
X69138Y-18692D01*
X69167Y-18716D01*
X69195Y-18764D01*
X69195Y-18811D01*
X69167Y-18883D01*
X68824Y-19168D01*
X69195Y-19168D01*
X59544Y-30168D02*
X59629Y-30192D01*
X59772Y-30192D01*
X59829Y-30168D01*
X59858Y-30144D01*
X59887Y-30097D01*
X59887Y-30049D01*
X59858Y-30002D01*
X59829Y-29978D01*
X59772Y-29954D01*
X59658Y-29930D01*
X59601Y-29906D01*
X59572Y-29883D01*
X59544Y-29835D01*
X59544Y-29787D01*
X59572Y-29740D01*
X59601Y-29716D01*
X59658Y-29692D01*
X59801Y-29692D01*
X59887Y-29716D01*
X60087Y-29692D02*
X60229Y-30192D01*
X60344Y-29835D01*
X60458Y-30192D01*
X60601Y-29692D01*
X60801Y-29740D02*
X60829Y-29716D01*
X60887Y-29692D01*
X61029Y-29692D01*
X61087Y-29716D01*
X61115Y-29740D01*
X61144Y-29787D01*
X61144Y-29835D01*
X61115Y-29906D01*
X60772Y-30192D01*
X61144Y-30192D01*
X61344Y-29692D02*
X61715Y-29692D01*
X61515Y-29883D01*
X61601Y-29883D01*
X61658Y-29906D01*
X61687Y-29930D01*
X61715Y-29978D01*
X61715Y-30097D01*
X61687Y-30144D01*
X61658Y-30168D01*
X61601Y-30192D01*
X61429Y-30192D01*
X61372Y-30168D01*
X61344Y-30144D01*
X63087Y-37649D02*
X63173Y-37672D01*
X63316Y-37672D01*
X63373Y-37649D01*
X63401Y-37625D01*
X63430Y-37577D01*
X63430Y-37529D01*
X63401Y-37482D01*
X63373Y-37458D01*
X63316Y-37434D01*
X63201Y-37410D01*
X63144Y-37387D01*
X63116Y-37363D01*
X63087Y-37315D01*
X63087Y-37268D01*
X63116Y-37220D01*
X63144Y-37196D01*
X63201Y-37172D01*
X63344Y-37172D01*
X63430Y-37196D01*
X63630Y-37172D02*
X63773Y-37672D01*
X63887Y-37315D01*
X64001Y-37672D01*
X64144Y-37172D01*
X64344Y-37220D02*
X64373Y-37196D01*
X64430Y-37172D01*
X64573Y-37172D01*
X64630Y-37196D01*
X64658Y-37220D01*
X64687Y-37268D01*
X64687Y-37315D01*
X64658Y-37387D01*
X64316Y-37672D01*
X64687Y-37672D01*
X65201Y-37339D02*
X65201Y-37672D01*
X65058Y-37149D02*
X64916Y-37506D01*
X65287Y-37506D01*
X57575Y-45129D02*
X57661Y-45153D01*
X57804Y-45153D01*
X57861Y-45129D01*
X57889Y-45105D01*
X57918Y-45057D01*
X57918Y-45010D01*
X57889Y-44962D01*
X57861Y-44938D01*
X57804Y-44915D01*
X57689Y-44891D01*
X57632Y-44867D01*
X57604Y-44843D01*
X57575Y-44796D01*
X57575Y-44748D01*
X57604Y-44700D01*
X57632Y-44676D01*
X57689Y-44653D01*
X57832Y-44653D01*
X57918Y-44676D01*
X58118Y-44653D02*
X58261Y-45153D01*
X58375Y-44796D01*
X58489Y-45153D01*
X58632Y-44653D01*
X58832Y-44700D02*
X58861Y-44676D01*
X58918Y-44653D01*
X59061Y-44653D01*
X59118Y-44676D01*
X59147Y-44700D01*
X59175Y-44748D01*
X59175Y-44796D01*
X59147Y-44867D01*
X58804Y-45153D01*
X59175Y-45153D01*
X59718Y-44653D02*
X59432Y-44653D01*
X59404Y-44891D01*
X59432Y-44867D01*
X59489Y-44843D01*
X59632Y-44843D01*
X59689Y-44867D01*
X59718Y-44891D01*
X59747Y-44938D01*
X59747Y-45057D01*
X59718Y-45105D01*
X59689Y-45129D01*
X59632Y-45153D01*
X59489Y-45153D01*
X59432Y-45129D01*
X59404Y-45105D01*
X53638Y-52609D02*
X53724Y-52633D01*
X53867Y-52633D01*
X53924Y-52609D01*
X53952Y-52585D01*
X53981Y-52538D01*
X53981Y-52490D01*
X53952Y-52443D01*
X53924Y-52419D01*
X53867Y-52395D01*
X53752Y-52371D01*
X53695Y-52347D01*
X53667Y-52323D01*
X53638Y-52276D01*
X53638Y-52228D01*
X53667Y-52181D01*
X53695Y-52157D01*
X53752Y-52133D01*
X53895Y-52133D01*
X53981Y-52157D01*
X54181Y-52133D02*
X54324Y-52633D01*
X54438Y-52276D01*
X54552Y-52633D01*
X54695Y-52133D01*
X54895Y-52181D02*
X54924Y-52157D01*
X54981Y-52133D01*
X55124Y-52133D01*
X55181Y-52157D01*
X55210Y-52181D01*
X55238Y-52228D01*
X55238Y-52276D01*
X55210Y-52347D01*
X54867Y-52633D01*
X55238Y-52633D01*
X55752Y-52133D02*
X55638Y-52133D01*
X55581Y-52157D01*
X55552Y-52181D01*
X55495Y-52252D01*
X55467Y-52347D01*
X55467Y-52538D01*
X55495Y-52585D01*
X55524Y-52609D01*
X55581Y-52633D01*
X55695Y-52633D01*
X55752Y-52609D01*
X55781Y-52585D01*
X55810Y-52538D01*
X55810Y-52419D01*
X55781Y-52371D01*
X55752Y-52347D01*
X55695Y-52323D01*
X55581Y-52323D01*
X55524Y-52347D01*
X55495Y-52371D01*
X55467Y-52419D01*
X62103Y-60089D02*
X62188Y-60113D01*
X62331Y-60113D01*
X62388Y-60089D01*
X62417Y-60066D01*
X62446Y-60018D01*
X62446Y-59970D01*
X62417Y-59923D01*
X62388Y-59899D01*
X62331Y-59875D01*
X62217Y-59851D01*
X62160Y-59828D01*
X62131Y-59804D01*
X62103Y-59756D01*
X62103Y-59709D01*
X62131Y-59661D01*
X62160Y-59637D01*
X62217Y-59613D01*
X62360Y-59613D01*
X62446Y-59637D01*
X62646Y-59613D02*
X62788Y-60113D01*
X62903Y-59756D01*
X63017Y-60113D01*
X63160Y-59613D01*
X63360Y-59661D02*
X63388Y-59637D01*
X63446Y-59613D01*
X63588Y-59613D01*
X63646Y-59637D01*
X63674Y-59661D01*
X63703Y-59709D01*
X63703Y-59756D01*
X63674Y-59828D01*
X63331Y-60113D01*
X63703Y-60113D01*
X63903Y-59613D02*
X64303Y-59613D01*
X64046Y-60113D01*
X59544Y-19145D02*
X59629Y-19168D01*
X59772Y-19168D01*
X59829Y-19145D01*
X59858Y-19121D01*
X59887Y-19073D01*
X59887Y-19026D01*
X59858Y-18978D01*
X59829Y-18954D01*
X59772Y-18930D01*
X59658Y-18907D01*
X59601Y-18883D01*
X59572Y-18859D01*
X59544Y-18811D01*
X59544Y-18764D01*
X59572Y-18716D01*
X59601Y-18692D01*
X59658Y-18668D01*
X59801Y-18668D01*
X59887Y-18692D01*
X60087Y-18668D02*
X60229Y-19168D01*
X60344Y-18811D01*
X60458Y-19168D01*
X60601Y-18668D01*
X61144Y-19168D02*
X60801Y-19168D01*
X60972Y-19168D02*
X60972Y-18668D01*
X60915Y-18740D01*
X60858Y-18787D01*
X60801Y-18811D01*
X61658Y-18668D02*
X61544Y-18668D01*
X61487Y-18692D01*
X61458Y-18716D01*
X61401Y-18787D01*
X61372Y-18883D01*
X61372Y-19073D01*
X61401Y-19121D01*
X61429Y-19145D01*
X61487Y-19168D01*
X61601Y-19168D01*
X61658Y-19145D01*
X61687Y-19121D01*
X61715Y-19073D01*
X61715Y-18954D01*
X61687Y-18907D01*
X61658Y-18883D01*
X61601Y-18859D01*
X61487Y-18859D01*
X61429Y-18883D01*
X61401Y-18907D01*
X61372Y-18954D01*
X25832Y-15244D02*
X25832Y-14844D01*
X25985Y-14844D01*
X26023Y-14863D01*
X26042Y-14882D01*
X26061Y-14920D01*
X26061Y-14977D01*
X26042Y-15016D01*
X26023Y-15035D01*
X25985Y-15054D01*
X25832Y-15054D01*
X26404Y-14977D02*
X26404Y-15244D01*
X26308Y-14825D02*
X26213Y-15111D01*
X26461Y-15111D01*
X16968Y-34690D02*
X16568Y-34690D01*
X16568Y-34538D01*
X16588Y-34500D01*
X16607Y-34481D01*
X16645Y-34462D01*
X16702Y-34462D01*
X16740Y-34481D01*
X16759Y-34500D01*
X16778Y-34538D01*
X16778Y-34690D01*
X16568Y-34329D02*
X16568Y-34081D01*
X16721Y-34214D01*
X16721Y-34157D01*
X16740Y-34119D01*
X16759Y-34100D01*
X16797Y-34081D01*
X16892Y-34081D01*
X16930Y-34100D01*
X16949Y-34119D01*
X16968Y-34157D01*
X16968Y-34271D01*
X16949Y-34309D01*
X16930Y-34329D01*
X16968Y-26816D02*
X16568Y-26816D01*
X16568Y-26664D01*
X16588Y-26626D01*
X16607Y-26607D01*
X16645Y-26588D01*
X16702Y-26588D01*
X16740Y-26607D01*
X16759Y-26626D01*
X16778Y-26664D01*
X16778Y-26816D01*
X16607Y-26435D02*
X16588Y-26416D01*
X16568Y-26378D01*
X16568Y-26283D01*
X16588Y-26245D01*
X16607Y-26226D01*
X16645Y-26207D01*
X16683Y-26207D01*
X16740Y-26226D01*
X16968Y-26454D01*
X16968Y-26207D01*
X19192Y-15244D02*
X19192Y-14844D01*
X19345Y-14844D01*
X19383Y-14863D01*
X19402Y-14882D01*
X19421Y-14920D01*
X19421Y-14977D01*
X19402Y-15016D01*
X19383Y-15035D01*
X19345Y-15054D01*
X19192Y-15054D01*
X19783Y-14844D02*
X19592Y-14844D01*
X19573Y-15035D01*
X19592Y-15016D01*
X19631Y-14996D01*
X19726Y-14996D01*
X19764Y-15016D01*
X19783Y-15035D01*
X19802Y-15073D01*
X19802Y-15168D01*
X19783Y-15206D01*
X19764Y-15225D01*
X19726Y-15244D01*
X19631Y-15244D01*
X19592Y-15225D01*
X19573Y-15206D01*
X16968Y-20177D02*
X16568Y-20177D01*
X16568Y-20024D01*
X16588Y-19986D01*
X16607Y-19967D01*
X16645Y-19948D01*
X16702Y-19948D01*
X16740Y-19967D01*
X16759Y-19986D01*
X16778Y-20024D01*
X16778Y-20177D01*
X16968Y-19567D02*
X16968Y-19796D01*
X16968Y-19681D02*
X16568Y-19681D01*
X16626Y-19719D01*
X16664Y-19758D01*
X16683Y-19796D01*
M02*
