M48
;DRILL file {Pcbnew (2013-07-07 BZR 4022)-stable} date 11/1/2014 6:00:45 PM
;FORMAT={-:-/ absolute / inch / decimal}
FMAT,2
INCH,TZ
T1C0.025
T2C0.039
T3C0.040
T4C0.059
T5C0.157
%
G90
G05
M72
T1
X1.6142Y-3.4252
X1.6535Y-4.3307
X1.7323Y-1.7323
X1.7323Y-3.0315
X1.7717Y-4.0945
X1.7717Y-4.3307
X1.9685Y-2.3622
X2.0472Y-2.0866
X2.0866Y-2.2835
X2.0866Y-3.5827
X2.126Y-4.1732
X2.1654Y-4.6457
X2.2047Y-4.3701
X2.2835Y-3.7008
X2.3622Y-3.7008
X2.5984Y-1.4961
X2.6378Y-2.5591
X2.6772Y-1.2205
X2.9528Y-3.5039
X3.2283Y-1.2992
X3.5433Y-1.1811
X3.5827Y-1.2205
X3.6614Y-1.2992
X3.7402Y-1.1811
X3.8583Y-1.2205
X5.Y-6.4567
X5.4331Y-1.2992
T2
X2.3272Y-3.522
X2.3272Y-3.822
X2.3665Y-5.7661
X2.3665Y-6.0661
X2.4803Y-3.972
X2.5197Y-6.2161
X2.524Y-4.2701
X2.524Y-4.5701
X2.6272Y-3.822
X2.6665Y-6.0661
X2.6772Y-4.7201
X2.7209Y-2.774
X2.7209Y-3.074
X2.7272Y-3.822
X2.7665Y-6.0661
X2.824Y-4.5701
X2.874Y-3.224
X2.874Y-3.972
X2.8783Y-5.0181
X2.8783Y-5.3181
X2.9134Y-6.2161
X2.924Y-4.5701
X3.0209Y-3.074
X3.0315Y-5.4681
X3.0709Y-4.7201
X3.0752Y-3.522
X3.0752Y-3.822
X3.1209Y-3.074
X3.1783Y-5.3181
X3.2283Y-3.972
X3.2677Y-3.224
X3.272Y-4.2701
X3.272Y-4.5701
X3.2783Y-5.3181
X3.3752Y-3.822
X3.4252Y-4.7201
X3.4252Y-5.4681
X3.4689Y-1.6717
X3.4689Y-1.9717
X3.4689Y-2.774
X3.4689Y-3.074
X3.4752Y-3.822
X3.572Y-4.5701
X3.622Y-2.1217
X3.622Y-3.224
X3.622Y-3.972
X3.6264Y-5.0181
X3.6264Y-5.3181
X3.672Y-4.5701
X3.7689Y-1.9717
X3.7689Y-3.074
X3.7795Y-5.4681
X3.8189Y-4.7201
X3.8232Y-3.522
X3.8232Y-3.822
X3.8689Y-1.9717
X3.8689Y-3.074
X3.9264Y-5.3181
X3.9764Y-3.972
X4.0157Y-2.1217
X4.0157Y-3.224
X4.0201Y-4.2701
X4.0201Y-4.5701
X4.0264Y-5.3181
X4.1232Y-3.822
X4.1732Y-4.7201
X4.1732Y-5.4681
X4.2169Y-1.6717
X4.2169Y-1.9717
X4.2169Y-2.774
X4.2169Y-3.074
X4.2232Y-3.822
X4.3201Y-4.5701
X4.3701Y-2.1217
X4.3701Y-3.224
X4.3701Y-3.972
X4.3744Y-5.0181
X4.3744Y-5.3181
X4.4201Y-4.5701
X4.5169Y-1.9717
X4.5169Y-3.074
X4.5276Y-5.4681
X4.5669Y-4.7201
X4.5713Y-3.522
X4.5713Y-3.822
X4.6169Y-1.9717
X4.6169Y-3.074
X4.6744Y-5.3181
X4.7244Y-3.972
X4.7638Y-2.1217
X4.7638Y-3.224
X4.7681Y-4.2701
X4.7681Y-4.5701
X4.7744Y-5.3181
X4.8713Y-3.822
X4.9213Y-4.7201
X4.9213Y-5.4681
X4.965Y-1.6717
X4.965Y-1.9717
X4.965Y-2.774
X4.965Y-3.074
X4.9713Y-3.822
X5.0681Y-4.5701
X5.1181Y-2.1217
X5.1181Y-3.224
X5.1181Y-3.972
X5.1224Y-5.0181
X5.1224Y-5.3181
X5.1681Y-4.5701
X5.265Y-1.9717
X5.265Y-3.074
X5.2756Y-5.4681
X5.315Y-4.7201
X5.3193Y-3.522
X5.3193Y-3.822
X5.365Y-1.9717
X5.365Y-3.074
X5.4224Y-5.3181
X5.4724Y-3.972
X5.5118Y-2.1217
X5.5118Y-3.224
X5.5161Y-4.2701
X5.5161Y-4.5701
X5.5224Y-5.3181
X5.6193Y-3.822
X5.6693Y-4.7201
X5.6693Y-5.4681
X5.713Y-1.6717
X5.713Y-1.9717
X5.713Y-2.774
X5.713Y-3.074
X5.7193Y-3.822
X5.8161Y-4.5701
X5.8661Y-2.1217
X5.8661Y-3.224
X5.8661Y-3.972
X5.8705Y-5.0181
X5.8705Y-5.3181
X5.9161Y-4.5701
X5.9689Y-5.7661
X5.9689Y-6.0661
X6.013Y-1.9717
X6.013Y-3.074
X6.0236Y-5.4681
X6.063Y-4.7201
X6.0673Y-3.522
X6.0673Y-3.822
X6.113Y-1.9717
X6.113Y-3.074
X6.122Y-6.2161
X6.1705Y-5.3181
X6.2205Y-3.972
X6.2598Y-2.1217
X6.2598Y-3.224
X6.2642Y-4.2701
X6.2642Y-4.5701
X6.2689Y-6.0661
X6.2705Y-5.3181
X6.3673Y-3.822
X6.3689Y-6.0661
X6.4173Y-4.7201
X6.4173Y-5.4681
X6.461Y-1.6717
X6.461Y-1.9717
X6.461Y-2.774
X6.461Y-3.074
X6.4673Y-3.822
X6.5157Y-6.2161
X6.5642Y-4.5701
X6.6142Y-2.1217
X6.6142Y-3.224
X6.6142Y-3.972
X6.6642Y-4.5701
X6.761Y-1.9717
X6.761Y-3.074
X6.811Y-4.7201
X6.8154Y-3.522
X6.8154Y-3.822
X6.861Y-1.9717
X6.861Y-3.074
X6.9138Y-5.7661
X6.9138Y-6.0661
X6.9685Y-3.972
X7.0079Y-2.1217
X7.0079Y-3.224
X7.0669Y-6.2161
X7.1154Y-3.822
X7.2091Y-1.6717
X7.2091Y-1.9717
X7.2138Y-6.0661
X7.2154Y-3.822
X7.2878Y-5.0181
X7.2878Y-5.3181
X7.3138Y-6.0661
X7.3622Y-2.1217
X7.3622Y-3.972
X7.4409Y-5.4681
X7.4606Y-6.2161
X7.4846Y-4.2701
X7.4846Y-4.5701
X7.5091Y-1.9717
X7.5831Y-2.774
X7.5831Y-3.074
X7.5878Y-5.3181
X7.6091Y-1.9717
X7.6378Y-4.7201
X7.6878Y-5.3181
X7.7362Y-3.224
X7.7559Y-2.1217
X7.7602Y-3.522
X7.7602Y-3.822
X7.7846Y-4.5701
X7.8346Y-5.4681
X7.8587Y-5.7661
X7.8587Y-6.0661
X7.8831Y-3.074
X7.8846Y-4.5701
X7.9134Y-3.972
X7.9571Y-1.6717
X7.9571Y-1.9717
X7.9831Y-3.074
X8.0118Y-6.2161
X8.0315Y-4.7201
X8.0602Y-3.822
X8.1102Y-2.1217
X8.1299Y-3.224
X8.1587Y-6.0661
X8.1602Y-3.822
X8.2571Y-1.9717
X8.2587Y-6.0661
X8.3071Y-3.972
X8.3571Y-1.9717
X8.4055Y-6.2161
X8.5039Y-2.1217
T3
X1.7807Y-1.8882
X1.7807Y-1.9882
X1.7807Y-2.0882
X1.7807Y-2.4772
X1.7807Y-2.5772
X1.7807Y-2.6772
X1.7807Y-2.7772
X1.7807Y-2.8772
X1.7807Y-3.2646
X1.7807Y-3.3646
X1.7807Y-3.4646
X1.7807Y-3.5646
X1.7807Y-3.6646
X1.8488Y-1.3083
X1.8488Y-1.4083
X1.8807Y-1.8882
X1.8807Y-1.9882
X1.8807Y-2.0882
X1.8807Y-2.4772
X1.8807Y-2.5772
X1.8807Y-2.6772
X1.8807Y-2.7772
X1.8807Y-2.8772
X1.8807Y-3.2646
X1.8807Y-3.3646
X1.8807Y-3.4646
X1.8807Y-3.5646
X1.8807Y-3.6646
X1.9488Y-1.3083
X1.9488Y-1.4083
X2.0488Y-1.3083
X2.0488Y-1.4083
X2.4378Y-1.3083
X2.4378Y-1.4083
X2.5378Y-1.3083
X2.5378Y-1.4083
X2.6378Y-1.3083
X2.6378Y-1.4083
X2.7378Y-1.3083
X2.7378Y-1.4083
X2.8378Y-1.3083
X2.8378Y-1.4083
T4
X2.5272Y-3.522
X2.5665Y-5.7661
X2.724Y-4.2701
X2.7772Y-3.422
X2.8165Y-5.6661
X2.9209Y-2.774
X2.974Y-4.1701
X3.0783Y-5.0181
X3.1709Y-2.674
X3.2752Y-3.522
X3.3283Y-4.9181
X3.472Y-4.2701
X3.5252Y-3.422
X3.6689Y-1.6717
X3.6689Y-2.774
X3.722Y-4.1701
X3.8264Y-5.0181
X3.9189Y-1.5717
X3.9189Y-2.674
X4.0232Y-3.522
X4.0764Y-4.9181
X4.2201Y-4.2701
X4.2732Y-3.422
X4.4169Y-1.6717
X4.4169Y-2.774
X4.4701Y-4.1701
X4.5744Y-5.0181
X4.6669Y-1.5717
X4.6669Y-2.674
X4.7713Y-3.522
X4.8244Y-4.9181
X4.9681Y-4.2701
X5.0213Y-3.422
X5.165Y-1.6717
X5.165Y-2.774
X5.2181Y-4.1701
X5.3224Y-5.0181
X5.415Y-1.5717
X5.415Y-2.674
X5.5193Y-3.522
X5.5724Y-4.9181
X5.7161Y-4.2701
X5.7693Y-3.422
X5.913Y-1.6717
X5.913Y-2.774
X5.9661Y-4.1701
X6.0705Y-5.0181
X6.163Y-1.5717
X6.163Y-2.674
X6.1689Y-5.7661
X6.2673Y-3.522
X6.3205Y-4.9181
X6.4189Y-5.6661
X6.4642Y-4.2701
X6.5173Y-3.422
X6.661Y-1.6717
X6.661Y-2.774
X6.7142Y-4.1701
X6.911Y-1.5717
X6.911Y-2.674
X7.0154Y-3.522
X7.1138Y-5.7661
X7.2654Y-3.422
X7.3638Y-5.6661
X7.4091Y-1.6717
X7.4878Y-5.0181
X7.6591Y-1.5717
X7.6846Y-4.2701
X7.7378Y-4.9181
X7.7831Y-2.774
X7.9346Y-4.1701
X7.9602Y-3.522
X8.0331Y-2.674
X8.0587Y-5.7661
X8.1571Y-1.6717
X8.2102Y-3.422
X8.3087Y-5.6661
X8.4071Y-1.5717
T5
X2.6772Y-3.622
X2.7165Y-5.8661
X2.874Y-4.3701
X3.0709Y-2.874
X3.2283Y-5.1181
X3.4252Y-3.622
X3.622Y-4.3701
X3.8189Y-1.7717
X3.8189Y-2.874
X3.9764Y-5.1181
X4.1732Y-3.622
X4.3701Y-4.3701
X4.5669Y-1.7717
X4.5669Y-2.874
X4.7244Y-5.1181
X4.9213Y-3.622
X5.1181Y-4.3701
X5.315Y-1.7717
X5.315Y-2.874
X5.4724Y-5.1181
X5.6693Y-3.622
X5.8661Y-4.3701
X6.063Y-1.7717
X6.063Y-2.874
X6.2205Y-5.1181
X6.3189Y-5.8661
X6.4173Y-3.622
X6.6142Y-4.3701
X6.811Y-1.7717
X6.811Y-2.874
X7.1654Y-3.622
X7.2638Y-5.8661
X7.5591Y-1.7717
X7.6378Y-5.1181
X7.8346Y-4.3701
X7.9331Y-2.874
X8.1102Y-3.622
X8.2087Y-5.8661
X8.3071Y-1.7717
T0
M30
