  0
SECTION
  2
BLOCKS
  0
ENDSEC
  0
SECTION
  2
ENTITIES
  0
LINE
  8
0
 10
0
 11
0
 20
0
 21
138
  0
LINE
  8
0
 10
0
 11
153
 20
138
 21
138
  0
LINE
  8
0
 10
153
 11
153
 20
138
 21
13
  0
LINE
  8
0
 10
153
 11
114
 20
13
 21
13
  0
LINE
  8
0
 10
114
 11
114
 20
13
 21
0
  0
LINE
  8
0
 10
114
 11
0
 20
0
 21
0
  0
LINE
  8
0
 10
10
 11
10
 20
10
 21
24
  0
LINE
  8
0
 10
10
 11
24
 20
24
 21
24
  0
LINE
  8
0
 10
24
 11
24
 20
24
 21
10
  0
LINE
  8
0
 10
24
 11
10
 20
10
 21
10
  0
LINE
  8
0
 10
10
 11
10
 20
38
 21
52
  0
LINE
  8
0
 10
10
 11
24
 20
52
 21
52
  0
LINE
  8
0
 10
24
 11
24
 20
52
 21
38
  0
LINE
  8
0
 10
24
 11
10
 20
38
 21
38
  0
LINE
  8
0
 10
10
 11
10
 20
57
 21
71
  0
LINE
  8
0
 10
10
 11
24
 20
71
 21
71
  0
LINE
  8
0
 10
24
 11
24
 20
71
 21
57
  0
LINE
  8
0
 10
24
 11
10
 20
57
 21
57
  0
LINE
  8
0
 10
10
 11
10
 20
114
 21
128
  0
LINE
  8
0
 10
10
 11
24
 20
128
 21
128
  0
LINE
  8
0
 10
24
 11
24
 20
128
 21
114
  0
LINE
  8
0
 10
24
 11
10
 20
114
 21
114
  0
LINE
  8
0
 10
29
 11
29
 20
10
 21
24
  0
LINE
  8
0
 10
29
 11
43
 20
24
 21
24
  0
LINE
  8
0
 10
43
 11
43
 20
24
 21
10
  0
LINE
  8
0
 10
43
 11
29
 20
10
 21
10
  0
LINE
  8
0
 10
29
 11
29
 20
38
 21
52
  0
LINE
  8
0
 10
29
 11
43
 20
52
 21
52
  0
LINE
  8
0
 10
43
 11
43
 20
52
 21
38
  0
LINE
  8
0
 10
43
 11
29
 20
38
 21
38
  0
LINE
  8
0
 10
29
 11
29
 20
57
 21
71
  0
LINE
  8
0
 10
29
 11
43
 20
71
 21
71
  0
LINE
  8
0
 10
43
 11
43
 20
71
 21
57
  0
LINE
  8
0
 10
43
 11
29
 20
57
 21
57
  0
LINE
  8
0
 10
29
 11
29
 20
95
 21
109
  0
LINE
  8
0
 10
29
 11
43
 20
109
 21
109
  0
LINE
  8
0
 10
43
 11
43
 20
109
 21
95
  0
LINE
  8
0
 10
43
 11
29
 20
95
 21
95
  0
LINE
  8
0
 10
29
 11
29
 20
114
 21
128
  0
LINE
  8
0
 10
29
 11
43
 20
128
 21
128
  0
LINE
  8
0
 10
43
 11
43
 20
128
 21
114
  0
LINE
  8
0
 10
43
 11
29
 20
114
 21
114
  0
LINE
  8
0
 10
48
 11
48
 20
10
 21
24
  0
LINE
  8
0
 10
48
 11
62
 20
24
 21
24
  0
LINE
  8
0
 10
62
 11
62
 20
24
 21
10
  0
LINE
  8
0
 10
62
 11
48
 20
10
 21
10
  0
LINE
  8
0
 10
48
 11
48
 20
38
 21
52
  0
LINE
  8
0
 10
48
 11
62
 20
52
 21
52
  0
LINE
  8
0
 10
62
 11
62
 20
52
 21
38
  0
LINE
  8
0
 10
62
 11
48
 20
38
 21
38
  0
LINE
  8
0
 10
48
 11
48
 20
57
 21
71
  0
LINE
  8
0
 10
48
 11
62
 20
71
 21
71
  0
LINE
  8
0
 10
62
 11
62
 20
71
 21
57
  0
LINE
  8
0
 10
62
 11
48
 20
57
 21
57
  0
LINE
  8
0
 10
48
 11
48
 20
114
 21
128
  0
LINE
  8
0
 10
48
 11
62
 20
128
 21
128
  0
LINE
  8
0
 10
62
 11
62
 20
128
 21
114
  0
LINE
  8
0
 10
62
 11
48
 20
114
 21
114
  0
LINE
  8
0
 10
72
 11
72
 20
38
 21
52
  0
LINE
  8
0
 10
72
 11
86
 20
52
 21
52
  0
LINE
  8
0
 10
86
 11
86
 20
52
 21
38
  0
LINE
  8
0
 10
86
 11
72
 20
38
 21
38
  0
LINE
  8
0
 10
72
 11
72
 20
57
 21
71
  0
LINE
  8
0
 10
72
 11
86
 20
71
 21
71
  0
LINE
  8
0
 10
86
 11
86
 20
71
 21
57
  0
LINE
  8
0
 10
86
 11
72
 20
57
 21
57
  0
LINE
  8
0
 10
72
 11
72
 20
76
 21
90
  0
LINE
  8
0
 10
72
 11
86
 20
90
 21
90
  0
LINE
  8
0
 10
86
 11
86
 20
90
 21
76
  0
LINE
  8
0
 10
86
 11
72
 20
76
 21
76
  0
LINE
  8
0
 10
72
 11
72
 20
95
 21
109
  0
LINE
  8
0
 10
72
 11
86
 20
109
 21
109
  0
LINE
  8
0
 10
86
 11
86
 20
109
 21
95
  0
LINE
  8
0
 10
86
 11
72
 20
95
 21
95
  0
LINE
  8
0
 10
81.5
 11
81.5
 20
114
 21
128
  0
LINE
  8
0
 10
81.5
 11
95.5
 20
128
 21
128
  0
LINE
  8
0
 10
95.5
 11
95.5
 20
128
 21
114
  0
LINE
  8
0
 10
95.5
 11
81.5
 20
114
 21
114
  0
LINE
  8
0
 10
91
 11
91
 20
38
 21
52
  0
LINE
  8
0
 10
91
 11
105
 20
52
 21
52
  0
LINE
  8
0
 10
105
 11
105
 20
52
 21
38
  0
LINE
  8
0
 10
105
 11
91
 20
38
 21
38
  0
LINE
  8
0
 10
91
 11
91
 20
57
 21
71
  0
LINE
  8
0
 10
91
 11
105
 20
71
 21
71
  0
LINE
  8
0
 10
105
 11
105
 20
71
 21
57
  0
LINE
  8
0
 10
105
 11
91
 20
57
 21
57
  0
LINE
  8
0
 10
91
 11
91
 20
76
 21
90
  0
LINE
  8
0
 10
91
 11
105
 20
90
 21
90
  0
LINE
  8
0
 10
105
 11
105
 20
90
 21
76
  0
LINE
  8
0
 10
105
 11
91
 20
76
 21
76
  0
LINE
  8
0
 10
91
 11
91
 20
95
 21
109
  0
LINE
  8
0
 10
91
 11
105
 20
109
 21
109
  0
LINE
  8
0
 10
105
 11
105
 20
109
 21
95
  0
LINE
  8
0
 10
105
 11
91
 20
95
 21
95
  0
LINE
  8
0
 10
110
 11
110
 20
38
 21
52
  0
LINE
  8
0
 10
110
 11
124
 20
52
 21
52
  0
LINE
  8
0
 10
124
 11
124
 20
52
 21
38
  0
LINE
  8
0
 10
124
 11
110
 20
38
 21
38
  0
LINE
  8
0
 10
110
 11
110
 20
57
 21
71
  0
LINE
  8
0
 10
110
 11
124
 20
71
 21
71
  0
LINE
  8
0
 10
124
 11
124
 20
71
 21
57
  0
LINE
  8
0
 10
124
 11
110
 20
57
 21
57
  0
LINE
  8
0
 10
110
 11
110
 20
76
 21
90
  0
LINE
  8
0
 10
110
 11
124
 20
90
 21
90
  0
LINE
  8
0
 10
124
 11
124
 20
90
 21
76
  0
LINE
  8
0
 10
124
 11
110
 20
76
 21
76
  0
LINE
  8
0
 10
110
 11
110
 20
95
 21
109
  0
LINE
  8
0
 10
110
 11
124
 20
109
 21
109
  0
LINE
  8
0
 10
124
 11
124
 20
109
 21
95
  0
LINE
  8
0
 10
124
 11
110
 20
95
 21
95
  0
LINE
  8
0
 10
110
 11
110
 20
114
 21
128
  0
LINE
  8
0
 10
110
 11
124
 20
128
 21
128
  0
LINE
  8
0
 10
124
 11
124
 20
128
 21
114
  0
LINE
  8
0
 10
124
 11
110
 20
114
 21
114
  0
LINE
  8
0
 10
129
 11
129
 20
38
 21
52
  0
LINE
  8
0
 10
129
 11
143
 20
52
 21
52
  0
LINE
  8
0
 10
143
 11
143
 20
52
 21
38
  0
LINE
  8
0
 10
143
 11
129
 20
38
 21
38
  0
LINE
  8
0
 10
129
 11
129
 20
66.5
 21
80.5
  0
LINE
  8
0
 10
129
 11
143
 20
80.5
 21
80.5
  0
LINE
  8
0
 10
143
 11
143
 20
80.5
 21
66.5
  0
LINE
  8
0
 10
143
 11
129
 20
66.5
 21
66.5
  0
LINE
  8
0
 10
129
 11
129
 20
104.5
 21
118.5
  0
LINE
  8
0
 10
129
 11
143
 20
118.5
 21
118.5
  0
LINE
  8
0
 10
143
 11
143
 20
118.5
 21
104.5
  0
LINE
  8
0
 10
143
 11
129
 20
104.5
 21
104.5
  0
ENDSEC
  0
SECTION
  2
OBJECTS
  0
DICTIONARY
  0
ENDSEC
  0
EOF
