  0
SECTION
  2
BLOCKS
  0
ENDSEC
  0
SECTION
  2
ENTITIES
  0
LINE
  8
0
 10
0
 11
0
 20
0
 21
73.5
  0
LINE
  8
0
 10
0
 11
40
 20
73.5
 21
73.5
  0
LINE
  8
0
 10
40
 11
40
 20
73.5
 21
92.5
  0
LINE
  8
0
 10
40
 11
0
 20
92.5
 21
92.5
  0
LINE
  8
0
 10
0
 11
0
 20
92.5
 21
138
  0
LINE
  8
0
 10
0
 11
160
 20
138
 21
138
  0
LINE
  8
0
 10
160
 11
160
 20
138
 21
59
  0
LINE
  8
0
 10
160
 11
147
 20
59
 21
59
  0
LINE
  8
0
 10
147
 11
147
 20
59
 21
0
  0
LINE
  8
0
 10
147
 11
0
 20
0
 21
0
  0
LINE
  8
0
 10
10
 11
10
 20
10
 21
24
  0
LINE
  8
0
 10
10
 11
24
 20
24
 21
24
  0
LINE
  8
0
 10
24
 11
24
 20
24
 21
10
  0
LINE
  8
0
 10
24
 11
10
 20
10
 21
10
  0
LINE
  8
0
 10
10
 11
10
 20
38
 21
52
  0
LINE
  8
0
 10
10
 11
24
 20
52
 21
52
  0
LINE
  8
0
 10
24
 11
24
 20
52
 21
38
  0
LINE
  8
0
 10
24
 11
10
 20
38
 21
38
  0
LINE
  8
0
 10
12.5
 11
12.5
 20
114
 21
128
  0
LINE
  8
0
 10
12.5
 11
26.5
 20
128
 21
128
  0
LINE
  8
0
 10
26.5
 11
26.5
 20
128
 21
114
  0
LINE
  8
0
 10
26.5
 11
12.5
 20
114
 21
114
  0
LINE
  8
0
 10
15
 11
15
 20
57
 21
71
  0
LINE
  8
0
 10
15
 11
29
 20
71
 21
71
  0
LINE
  8
0
 10
29
 11
29
 20
71
 21
57
  0
LINE
  8
0
 10
29
 11
15
 20
57
 21
57
  0
LINE
  8
0
 10
22
 11
22
 20
95
 21
109
  0
LINE
  8
0
 10
22
 11
36
 20
109
 21
109
  0
LINE
  8
0
 10
36
 11
36
 20
109
 21
95
  0
LINE
  8
0
 10
36
 11
22
 20
95
 21
95
  0
LINE
  8
0
 10
29
 11
29
 20
38
 21
52
  0
LINE
  8
0
 10
29
 11
43
 20
52
 21
52
  0
LINE
  8
0
 10
43
 11
43
 20
52
 21
38
  0
LINE
  8
0
 10
43
 11
29
 20
38
 21
38
  0
LINE
  8
0
 10
36.5
 11
36.5
 20
114
 21
128
  0
LINE
  8
0
 10
36.5
 11
50.5
 20
128
 21
128
  0
LINE
  8
0
 10
50.5
 11
50.5
 20
128
 21
114
  0
LINE
  8
0
 10
50.5
 11
36.5
 20
114
 21
114
  0
LINE
  8
0
 10
39
 11
39
 20
57
 21
71
  0
LINE
  8
0
 10
39
 11
53
 20
71
 21
71
  0
LINE
  8
0
 10
53
 11
53
 20
71
 21
57
  0
LINE
  8
0
 10
53
 11
39
 20
57
 21
57
  0
LINE
  8
0
 10
44
 11
44
 20
76
 21
90
  0
LINE
  8
0
 10
44
 11
58
 20
90
 21
90
  0
LINE
  8
0
 10
58
 11
58
 20
90
 21
76
  0
LINE
  8
0
 10
58
 11
44
 20
76
 21
76
  0
LINE
  8
0
 10
48
 11
48
 20
10
 21
24
  0
LINE
  8
0
 10
48
 11
62
 20
24
 21
24
  0
LINE
  8
0
 10
62
 11
62
 20
24
 21
10
  0
LINE
  8
0
 10
62
 11
48
 20
10
 21
10
  0
LINE
  8
0
 10
48
 11
48
 20
38
 21
52
  0
LINE
  8
0
 10
48
 11
62
 20
52
 21
52
  0
LINE
  8
0
 10
62
 11
62
 20
52
 21
38
  0
LINE
  8
0
 10
62
 11
48
 20
38
 21
38
  0
LINE
  8
0
 10
53
 11
53
 20
95
 21
109
  0
LINE
  8
0
 10
53
 11
67
 20
109
 21
109
  0
LINE
  8
0
 10
67
 11
67
 20
109
 21
95
  0
LINE
  8
0
 10
67
 11
53
 20
95
 21
95
  0
LINE
  8
0
 10
58
 11
58
 20
57
 21
71
  0
LINE
  8
0
 10
58
 11
72
 20
71
 21
71
  0
LINE
  8
0
 10
72
 11
72
 20
71
 21
57
  0
LINE
  8
0
 10
72
 11
58
 20
57
 21
57
  0
LINE
  8
0
 10
60.5
 11
60.5
 20
114
 21
128
  0
LINE
  8
0
 10
60.5
 11
74.5
 20
128
 21
128
  0
LINE
  8
0
 10
74.5
 11
74.5
 20
128
 21
114
  0
LINE
  8
0
 10
74.5
 11
60.5
 20
114
 21
114
  0
LINE
  8
0
 10
63
 11
63
 20
76
 21
90
  0
LINE
  8
0
 10
63
 11
77
 20
90
 21
90
  0
LINE
  8
0
 10
77
 11
77
 20
90
 21
76
  0
LINE
  8
0
 10
77
 11
63
 20
76
 21
76
  0
LINE
  8
0
 10
67
 11
67
 20
10
 21
24
  0
LINE
  8
0
 10
67
 11
81
 20
24
 21
24
  0
LINE
  8
0
 10
81
 11
81
 20
24
 21
10
  0
LINE
  8
0
 10
81
 11
67
 20
10
 21
10
  0
LINE
  8
0
 10
67
 11
67
 20
38
 21
52
  0
LINE
  8
0
 10
67
 11
81
 20
52
 21
52
  0
LINE
  8
0
 10
81
 11
81
 20
52
 21
38
  0
LINE
  8
0
 10
81
 11
67
 20
38
 21
38
  0
LINE
  8
0
 10
72
 11
72
 20
95
 21
109
  0
LINE
  8
0
 10
72
 11
86
 20
109
 21
109
  0
LINE
  8
0
 10
86
 11
86
 20
109
 21
95
  0
LINE
  8
0
 10
86
 11
72
 20
95
 21
95
  0
LINE
  8
0
 10
77
 11
77
 20
57
 21
71
  0
LINE
  8
0
 10
77
 11
91
 20
71
 21
71
  0
LINE
  8
0
 10
91
 11
91
 20
71
 21
57
  0
LINE
  8
0
 10
91
 11
77
 20
57
 21
57
  0
LINE
  8
0
 10
82
 11
82
 20
76
 21
90
  0
LINE
  8
0
 10
82
 11
96
 20
90
 21
90
  0
LINE
  8
0
 10
96
 11
96
 20
90
 21
76
  0
LINE
  8
0
 10
96
 11
82
 20
76
 21
76
  0
LINE
  8
0
 10
86
 11
86
 20
10
 21
24
  0
LINE
  8
0
 10
86
 11
100
 20
24
 21
24
  0
LINE
  8
0
 10
100
 11
100
 20
24
 21
10
  0
LINE
  8
0
 10
100
 11
86
 20
10
 21
10
  0
LINE
  8
0
 10
86
 11
86
 20
38
 21
52
  0
LINE
  8
0
 10
86
 11
100
 20
52
 21
52
  0
LINE
  8
0
 10
100
 11
100
 20
52
 21
38
  0
LINE
  8
0
 10
100
 11
86
 20
38
 21
38
  0
LINE
  8
0
 10
91
 11
91
 20
95
 21
109
  0
LINE
  8
0
 10
91
 11
105
 20
109
 21
109
  0
LINE
  8
0
 10
105
 11
105
 20
109
 21
95
  0
LINE
  8
0
 10
105
 11
91
 20
95
 21
95
  0
LINE
  8
0
 10
96
 11
96
 20
57
 21
71
  0
LINE
  8
0
 10
96
 11
110
 20
71
 21
71
  0
LINE
  8
0
 10
110
 11
110
 20
71
 21
57
  0
LINE
  8
0
 10
110
 11
96
 20
57
 21
57
  0
LINE
  8
0
 10
101
 11
101
 20
76
 21
90
  0
LINE
  8
0
 10
101
 11
115
 20
90
 21
90
  0
LINE
  8
0
 10
115
 11
115
 20
90
 21
76
  0
LINE
  8
0
 10
115
 11
101
 20
76
 21
76
  0
LINE
  8
0
 10
105
 11
105
 20
10
 21
24
  0
LINE
  8
0
 10
105
 11
119
 20
24
 21
24
  0
LINE
  8
0
 10
119
 11
119
 20
24
 21
10
  0
LINE
  8
0
 10
119
 11
105
 20
10
 21
10
  0
LINE
  8
0
 10
105
 11
105
 20
38
 21
52
  0
LINE
  8
0
 10
105
 11
119
 20
52
 21
52
  0
LINE
  8
0
 10
119
 11
119
 20
52
 21
38
  0
LINE
  8
0
 10
119
 11
105
 20
38
 21
38
  0
LINE
  8
0
 10
110
 11
110
 20
95
 21
109
  0
LINE
  8
0
 10
110
 11
124
 20
109
 21
109
  0
LINE
  8
0
 10
124
 11
124
 20
109
 21
95
  0
LINE
  8
0
 10
124
 11
110
 20
95
 21
95
  0
LINE
  8
0
 10
115
 11
115
 20
57
 21
71
  0
LINE
  8
0
 10
115
 11
129
 20
71
 21
71
  0
LINE
  8
0
 10
129
 11
129
 20
71
 21
57
  0
LINE
  8
0
 10
129
 11
115
 20
57
 21
57
  0
LINE
  8
0
 10
120
 11
120
 20
76
 21
90
  0
LINE
  8
0
 10
120
 11
134
 20
90
 21
90
  0
LINE
  8
0
 10
134
 11
134
 20
90
 21
76
  0
LINE
  8
0
 10
134
 11
120
 20
76
 21
76
  0
LINE
  8
0
 10
124
 11
124
 20
10
 21
24
  0
LINE
  8
0
 10
124
 11
138
 20
24
 21
24
  0
LINE
  8
0
 10
138
 11
138
 20
24
 21
10
  0
LINE
  8
0
 10
138
 11
124
 20
10
 21
10
  0
LINE
  8
0
 10
124
 11
124
 20
38
 21
52
  0
LINE
  8
0
 10
124
 11
138
 20
52
 21
52
  0
LINE
  8
0
 10
138
 11
138
 20
52
 21
38
  0
LINE
  8
0
 10
138
 11
124
 20
38
 21
38
  0
LINE
  8
0
 10
124
 11
124
 20
114
 21
128
  0
LINE
  8
0
 10
124
 11
138
 20
128
 21
128
  0
LINE
  8
0
 10
138
 11
138
 20
128
 21
114
  0
LINE
  8
0
 10
138
 11
124
 20
114
 21
114
  0
LINE
  8
0
 10
129
 11
129
 20
95
 21
109
  0
LINE
  8
0
 10
129
 11
143
 20
109
 21
109
  0
LINE
  8
0
 10
143
 11
143
 20
109
 21
95
  0
LINE
  8
0
 10
143
 11
129
 20
95
 21
95
  0
ENDSEC
  0
SECTION
  2
OBJECTS
  0
DICTIONARY
  0
ENDSEC
  0
EOF
