  0
SECTION
  2
BLOCKS
  0
ENDSEC
  0
SECTION
  2
ENTITIES
  0
LINE
  8
0
 10
0
 11
0
 20
0
 21
211
  0
LINE
  8
0
 10
0
 11
163
 20
211
 21
211
  0
LINE
  8
0
 10
163
 11
163
 20
211
 21
0
  0
LINE
  8
0
 10
163
 11
0
 20
0
 21
0
  0
LINE
  8
0
 10
0
 11
0
 20
221
 21
291
  0
LINE
  8
0
 10
0
 11
163
 20
291
 21
291
  0
LINE
  8
0
 10
163
 11
163
 20
291
 21
221
  0
LINE
  8
0
 10
163
 11
0
 20
221
 21
221
  0
LINE
  8
0
 10
0
 11
0
 20
301
 21
371
  0
LINE
  8
0
 10
0
 11
163
 20
371
 21
371
  0
LINE
  8
0
 10
163
 11
163
 20
371
 21
301
  0
LINE
  8
0
 10
163
 11
0
 20
301
 21
301
  0
LINE
  8
0
 10
1.5
 11
1.5
 20
6.5
 21
16.5
  0
LINE
  8
0
 10
1.5
 11
3
 20
16.5
 21
16.5
  0
LINE
  8
0
 10
3
 11
3
 20
16.5
 21
6.5
  0
LINE
  8
0
 10
3
 11
1.5
 20
6.5
 21
6.5
  0
LINE
  8
0
 10
1.5
 11
1.5
 20
21.5
 21
31.5
  0
LINE
  8
0
 10
1.5
 11
3
 20
31.5
 21
31.5
  0
LINE
  8
0
 10
3
 11
3
 20
31.5
 21
21.5
  0
LINE
  8
0
 10
3
 11
1.5
 20
21.5
 21
21.5
  0
LINE
  8
0
 10
1.5
 11
1.5
 20
36.5
 21
46.5
  0
LINE
  8
0
 10
1.5
 11
3
 20
46.5
 21
46.5
  0
LINE
  8
0
 10
3
 11
3
 20
46.5
 21
36.5
  0
LINE
  8
0
 10
3
 11
1.5
 20
36.5
 21
36.5
  0
LINE
  8
0
 10
1.5
 11
1.5
 20
51.5
 21
61.5
  0
LINE
  8
0
 10
1.5
 11
3
 20
61.5
 21
61.5
  0
LINE
  8
0
 10
3
 11
3
 20
61.5
 21
51.5
  0
LINE
  8
0
 10
3
 11
1.5
 20
51.5
 21
51.5
  0
LINE
  8
0
 10
1.5
 11
1.5
 20
79.5
 21
89.5
  0
LINE
  8
0
 10
1.5
 11
3
 20
89.5
 21
89.5
  0
LINE
  8
0
 10
3
 11
3
 20
89.5
 21
79.5
  0
LINE
  8
0
 10
3
 11
1.5
 20
79.5
 21
79.5
  0
LINE
  8
0
 10
1.5
 11
1.5
 20
94.5
 21
104.5
  0
LINE
  8
0
 10
1.5
 11
3
 20
104.5
 21
104.5
  0
LINE
  8
0
 10
3
 11
3
 20
104.5
 21
94.5
  0
LINE
  8
0
 10
3
 11
1.5
 20
94.5
 21
94.5
  0
LINE
  8
0
 10
1.5
 11
1.5
 20
109.5
 21
119.5
  0
LINE
  8
0
 10
1.5
 11
3
 20
119.5
 21
119.5
  0
LINE
  8
0
 10
3
 11
3
 20
119.5
 21
109.5
  0
LINE
  8
0
 10
3
 11
1.5
 20
109.5
 21
109.5
  0
LINE
  8
0
 10
1.5
 11
1.5
 20
124.5
 21
134.5
  0
LINE
  8
0
 10
1.5
 11
3
 20
134.5
 21
134.5
  0
LINE
  8
0
 10
3
 11
3
 20
134.5
 21
124.5
  0
LINE
  8
0
 10
3
 11
1.5
 20
124.5
 21
124.5
  0
LINE
  8
0
 10
6.5
 11
6.5
 20
1.5
 21
3
  0
LINE
  8
0
 10
6.5
 11
16.5
 20
3
 21
3
  0
LINE
  8
0
 10
16.5
 11
16.5
 20
3
 21
1.5
  0
LINE
  8
0
 10
16.5
 11
6.5
 20
1.5
 21
1.5
  0
LINE
  8
0
 10
6.5
 11
6.5
 20
138
 21
139.5
  0
LINE
  8
0
 10
6.5
 11
16.5
 20
139.5
 21
139.5
  0
LINE
  8
0
 10
16.5
 11
16.5
 20
139.5
 21
138
  0
LINE
  8
0
 10
16.5
 11
6.5
 20
138
 21
138
  0
LINE
  8
0
 10
21.5
 11
21.5
 20
1.5
 21
3
  0
LINE
  8
0
 10
21.5
 11
31.5
 20
3
 21
3
  0
LINE
  8
0
 10
31.5
 11
31.5
 20
3
 21
1.5
  0
LINE
  8
0
 10
31.5
 11
21.5
 20
1.5
 21
1.5
  0
LINE
  8
0
 10
21.5
 11
21.5
 20
138
 21
139.5
  0
LINE
  8
0
 10
21.5
 11
31.5
 20
139.5
 21
139.5
  0
LINE
  8
0
 10
31.5
 11
31.5
 20
139.5
 21
138
  0
LINE
  8
0
 10
31.5
 11
21.5
 20
138
 21
138
  0
LINE
  8
0
 10
36.5
 11
36.5
 20
1.5
 21
3
  0
LINE
  8
0
 10
36.5
 11
46.5
 20
3
 21
3
  0
LINE
  8
0
 10
46.5
 11
46.5
 20
3
 21
1.5
  0
LINE
  8
0
 10
46.5
 11
36.5
 20
1.5
 21
1.5
  0
LINE
  8
0
 10
36.5
 11
36.5
 20
138
 21
139.5
  0
LINE
  8
0
 10
36.5
 11
46.5
 20
139.5
 21
139.5
  0
LINE
  8
0
 10
46.5
 11
46.5
 20
139.5
 21
138
  0
LINE
  8
0
 10
46.5
 11
36.5
 20
138
 21
138
  0
LINE
  8
0
 10
51.5
 11
51.5
 20
1.5
 21
3
  0
LINE
  8
0
 10
51.5
 11
61.5
 20
3
 21
3
  0
LINE
  8
0
 10
61.5
 11
61.5
 20
3
 21
1.5
  0
LINE
  8
0
 10
61.5
 11
51.5
 20
1.5
 21
1.5
  0
LINE
  8
0
 10
51.5
 11
51.5
 20
138
 21
139.5
  0
LINE
  8
0
 10
51.5
 11
61.5
 20
139.5
 21
139.5
  0
LINE
  8
0
 10
61.5
 11
61.5
 20
139.5
 21
138
  0
LINE
  8
0
 10
61.5
 11
51.5
 20
138
 21
138
  0
LINE
  8
0
 10
66.5
 11
66.5
 20
1.5
 21
3
  0
LINE
  8
0
 10
66.5
 11
76.5
 20
3
 21
3
  0
LINE
  8
0
 10
76.5
 11
76.5
 20
3
 21
1.5
  0
LINE
  8
0
 10
76.5
 11
66.5
 20
1.5
 21
1.5
  0
LINE
  8
0
 10
66.5
 11
66.5
 20
138
 21
139.5
  0
LINE
  8
0
 10
66.5
 11
76.5
 20
139.5
 21
139.5
  0
LINE
  8
0
 10
76.5
 11
76.5
 20
139.5
 21
138
  0
LINE
  8
0
 10
76.5
 11
66.5
 20
138
 21
138
  0
LINE
  8
0
 10
86.5
 11
86.5
 20
1.5
 21
3
  0
LINE
  8
0
 10
86.5
 11
96.5
 20
3
 21
3
  0
LINE
  8
0
 10
96.5
 11
96.5
 20
3
 21
1.5
  0
LINE
  8
0
 10
96.5
 11
86.5
 20
1.5
 21
1.5
  0
LINE
  8
0
 10
86.5
 11
86.5
 20
138
 21
139.5
  0
LINE
  8
0
 10
86.5
 11
96.5
 20
139.5
 21
139.5
  0
LINE
  8
0
 10
96.5
 11
96.5
 20
139.5
 21
138
  0
LINE
  8
0
 10
96.5
 11
86.5
 20
138
 21
138
  0
LINE
  8
0
 10
101.5
 11
101.5
 20
1.5
 21
3
  0
LINE
  8
0
 10
101.5
 11
111.5
 20
3
 21
3
  0
LINE
  8
0
 10
111.5
 11
111.5
 20
3
 21
1.5
  0
LINE
  8
0
 10
111.5
 11
101.5
 20
1.5
 21
1.5
  0
LINE
  8
0
 10
101.5
 11
101.5
 20
138
 21
139.5
  0
LINE
  8
0
 10
101.5
 11
111.5
 20
139.5
 21
139.5
  0
LINE
  8
0
 10
111.5
 11
111.5
 20
139.5
 21
138
  0
LINE
  8
0
 10
111.5
 11
101.5
 20
138
 21
138
  0
LINE
  8
0
 10
116.5
 11
116.5
 20
1.5
 21
3
  0
LINE
  8
0
 10
116.5
 11
126.5
 20
3
 21
3
  0
LINE
  8
0
 10
126.5
 11
126.5
 20
3
 21
1.5
  0
LINE
  8
0
 10
126.5
 11
116.5
 20
1.5
 21
1.5
  0
LINE
  8
0
 10
116.5
 11
116.5
 20
138
 21
139.5
  0
LINE
  8
0
 10
116.5
 11
126.5
 20
139.5
 21
139.5
  0
LINE
  8
0
 10
126.5
 11
126.5
 20
139.5
 21
138
  0
LINE
  8
0
 10
126.5
 11
116.5
 20
138
 21
138
  0
LINE
  8
0
 10
131.5
 11
131.5
 20
1.5
 21
3
  0
LINE
  8
0
 10
131.5
 11
141.5
 20
3
 21
3
  0
LINE
  8
0
 10
141.5
 11
141.5
 20
3
 21
1.5
  0
LINE
  8
0
 10
141.5
 11
131.5
 20
1.5
 21
1.5
  0
LINE
  8
0
 10
131.5
 11
131.5
 20
138
 21
139.5
  0
LINE
  8
0
 10
131.5
 11
141.5
 20
139.5
 21
139.5
  0
LINE
  8
0
 10
141.5
 11
141.5
 20
139.5
 21
138
  0
LINE
  8
0
 10
141.5
 11
131.5
 20
138
 21
138
  0
LINE
  8
0
 10
146.5
 11
146.5
 20
1.5
 21
3
  0
LINE
  8
0
 10
146.5
 11
156.5
 20
3
 21
3
  0
LINE
  8
0
 10
156.5
 11
156.5
 20
3
 21
1.5
  0
LINE
  8
0
 10
156.5
 11
146.5
 20
1.5
 21
1.5
  0
LINE
  8
0
 10
146.5
 11
146.5
 20
138
 21
139.5
  0
LINE
  8
0
 10
146.5
 11
156.5
 20
139.5
 21
139.5
  0
LINE
  8
0
 10
156.5
 11
156.5
 20
139.5
 21
138
  0
LINE
  8
0
 10
156.5
 11
146.5
 20
138
 21
138
  0
LINE
  8
0
 10
160
 11
160
 20
6.5
 21
16.5
  0
LINE
  8
0
 10
160
 11
161.5
 20
16.5
 21
16.5
  0
LINE
  8
0
 10
161.5
 11
161.5
 20
16.5
 21
6.5
  0
LINE
  8
0
 10
161.5
 11
160
 20
6.5
 21
6.5
  0
LINE
  8
0
 10
160
 11
160
 20
21.5
 21
31.5
  0
LINE
  8
0
 10
160
 11
161.5
 20
31.5
 21
31.5
  0
LINE
  8
0
 10
161.5
 11
161.5
 20
31.5
 21
21.5
  0
LINE
  8
0
 10
161.5
 11
160
 20
21.5
 21
21.5
  0
LINE
  8
0
 10
160
 11
160
 20
36.5
 21
46.5
  0
LINE
  8
0
 10
160
 11
161.5
 20
46.5
 21
46.5
  0
LINE
  8
0
 10
161.5
 11
161.5
 20
46.5
 21
36.5
  0
LINE
  8
0
 10
161.5
 11
160
 20
36.5
 21
36.5
  0
LINE
  8
0
 10
160
 11
160
 20
51.5
 21
61.5
  0
LINE
  8
0
 10
160
 11
161.5
 20
61.5
 21
61.5
  0
LINE
  8
0
 10
161.5
 11
161.5
 20
61.5
 21
51.5
  0
LINE
  8
0
 10
161.5
 11
160
 20
51.5
 21
51.5
  0
LINE
  8
0
 10
160
 11
160
 20
79.5
 21
89.5
  0
LINE
  8
0
 10
160
 11
161.5
 20
89.5
 21
89.5
  0
LINE
  8
0
 10
161.5
 11
161.5
 20
89.5
 21
79.5
  0
LINE
  8
0
 10
161.5
 11
160
 20
79.5
 21
79.5
  0
LINE
  8
0
 10
160
 11
160
 20
94.5
 21
104.5
  0
LINE
  8
0
 10
160
 11
161.5
 20
104.5
 21
104.5
  0
LINE
  8
0
 10
161.5
 11
161.5
 20
104.5
 21
94.5
  0
LINE
  8
0
 10
161.5
 11
160
 20
94.5
 21
94.5
  0
LINE
  8
0
 10
160
 11
160
 20
109.5
 21
119.5
  0
LINE
  8
0
 10
160
 11
161.5
 20
119.5
 21
119.5
  0
LINE
  8
0
 10
161.5
 11
161.5
 20
119.5
 21
109.5
  0
LINE
  8
0
 10
161.5
 11
160
 20
109.5
 21
109.5
  0
LINE
  8
0
 10
160
 11
160
 20
124.5
 21
134.5
  0
LINE
  8
0
 10
160
 11
161.5
 20
134.5
 21
134.5
  0
LINE
  8
0
 10
161.5
 11
161.5
 20
134.5
 21
124.5
  0
LINE
  8
0
 10
161.5
 11
160
 20
124.5
 21
124.5
  0
ENDSEC
  0
SECTION
  2
OBJECTS
  0
DICTIONARY
  0
ENDSEC
  0
EOF
