  0
SECTION
  2
BLOCKS
  0
ENDSEC
  0
SECTION
  2
ENTITIES
  0
LINE
  8
0
 10
0
 11
0
 20
221
 21
291
  0
LINE
  8
0
 10
0
 11
345.5
 20
291
 21
291
  0
LINE
  8
0
 10
345.5
 11
345.5
 20
291
 21
221
  0
LINE
  8
0
 10
345.5
 11
0
 20
221
 21
221
  0
LINE
  8
0
 10
0
 11
0
 20
301
 21
371
  0
LINE
  8
0
 10
0
 11
345.5
 20
371
 21
371
  0
LINE
  8
0
 10
345.5
 11
345.5
 20
371
 21
301
  0
LINE
  8
0
 10
345.5
 11
0
 20
301
 21
301
  0
LINE
  8
0
 10
1.5
 11
1.5
 20
6.5
 21
16.5
  0
LINE
  8
0
 10
1.5
 11
3
 20
16.5
 21
16.5
  0
LINE
  8
0
 10
3
 11
3
 20
16.5
 21
6.5
  0
LINE
  8
0
 10
3
 11
1.5
 20
6.5
 21
6.5
  0
LINE
  8
0
 10
1.5
 11
1.5
 20
21.5
 21
31.5
  0
LINE
  8
0
 10
1.5
 11
3
 20
31.5
 21
31.5
  0
LINE
  8
0
 10
3
 11
3
 20
31.5
 21
21.5
  0
LINE
  8
0
 10
3
 11
1.5
 20
21.5
 21
21.5
  0
LINE
  8
0
 10
1.5
 11
1.5
 20
36.5
 21
46.5
  0
LINE
  8
0
 10
1.5
 11
3
 20
46.5
 21
46.5
  0
LINE
  8
0
 10
3
 11
3
 20
46.5
 21
36.5
  0
LINE
  8
0
 10
3
 11
1.5
 20
36.5
 21
36.5
  0
LINE
  8
0
 10
1.5
 11
1.5
 20
51.5
 21
61.5
  0
LINE
  8
0
 10
1.5
 11
3
 20
61.5
 21
61.5
  0
LINE
  8
0
 10
3
 11
3
 20
61.5
 21
51.5
  0
LINE
  8
0
 10
3
 11
1.5
 20
51.5
 21
51.5
  0
LINE
  8
0
 10
1.5
 11
1.5
 20
79.5
 21
89.5
  0
LINE
  8
0
 10
1.5
 11
3
 20
89.5
 21
89.5
  0
LINE
  8
0
 10
3
 11
3
 20
89.5
 21
79.5
  0
LINE
  8
0
 10
3
 11
1.5
 20
79.5
 21
79.5
  0
LINE
  8
0
 10
1.5
 11
1.5
 20
94.5
 21
104.5
  0
LINE
  8
0
 10
1.5
 11
3
 20
104.5
 21
104.5
  0
LINE
  8
0
 10
3
 11
3
 20
104.5
 21
94.5
  0
LINE
  8
0
 10
3
 11
1.5
 20
94.5
 21
94.5
  0
LINE
  8
0
 10
1.5
 11
1.5
 20
109.5
 21
119.5
  0
LINE
  8
0
 10
1.5
 11
3
 20
119.5
 21
119.5
  0
LINE
  8
0
 10
3
 11
3
 20
119.5
 21
109.5
  0
LINE
  8
0
 10
3
 11
1.5
 20
109.5
 21
109.5
  0
LINE
  8
0
 10
1.5
 11
1.5
 20
124.5
 21
134.5
  0
LINE
  8
0
 10
1.5
 11
3
 20
134.5
 21
134.5
  0
LINE
  8
0
 10
3
 11
3
 20
134.5
 21
124.5
  0
LINE
  8
0
 10
3
 11
1.5
 20
124.5
 21
124.5
  0
LINE
  8
0
 10
6.5
 11
6.5
 20
1.5
 21
3
  0
LINE
  8
0
 10
6.5
 11
16.5
 20
3
 21
3
  0
LINE
  8
0
 10
16.5
 11
16.5
 20
3
 21
1.5
  0
LINE
  8
0
 10
16.5
 11
6.5
 20
1.5
 21
1.5
  0
LINE
  8
0
 10
6.5
 11
6.5
 20
138
 21
139.5
  0
LINE
  8
0
 10
6.5
 11
16.5
 20
139.5
 21
139.5
  0
LINE
  8
0
 10
16.5
 11
16.5
 20
139.5
 21
138
  0
LINE
  8
0
 10
16.5
 11
6.5
 20
138
 21
138
  0
LINE
  8
0
 10
21.5
 11
21.5
 20
1.5
 21
3
  0
LINE
  8
0
 10
21.5
 11
31.5
 20
3
 21
3
  0
LINE
  8
0
 10
31.5
 11
31.5
 20
3
 21
1.5
  0
LINE
  8
0
 10
31.5
 11
21.5
 20
1.5
 21
1.5
  0
LINE
  8
0
 10
21.5
 11
21.5
 20
138
 21
139.5
  0
LINE
  8
0
 10
21.5
 11
31.5
 20
139.5
 21
139.5
  0
LINE
  8
0
 10
31.5
 11
31.5
 20
139.5
 21
138
  0
LINE
  8
0
 10
31.5
 11
21.5
 20
138
 21
138
  0
LINE
  8
0
 10
36.5
 11
36.5
 20
1.5
 21
3
  0
LINE
  8
0
 10
36.5
 11
46.5
 20
3
 21
3
  0
LINE
  8
0
 10
46.5
 11
46.5
 20
3
 21
1.5
  0
LINE
  8
0
 10
46.5
 11
36.5
 20
1.5
 21
1.5
  0
LINE
  8
0
 10
36.5
 11
36.5
 20
138
 21
139.5
  0
LINE
  8
0
 10
36.5
 11
46.5
 20
139.5
 21
139.5
  0
LINE
  8
0
 10
46.5
 11
46.5
 20
139.5
 21
138
  0
LINE
  8
0
 10
46.5
 11
36.5
 20
138
 21
138
  0
LINE
  8
0
 10
51.5
 11
51.5
 20
1.5
 21
3
  0
LINE
  8
0
 10
51.5
 11
61.5
 20
3
 21
3
  0
LINE
  8
0
 10
61.5
 11
61.5
 20
3
 21
1.5
  0
LINE
  8
0
 10
61.5
 11
51.5
 20
1.5
 21
1.5
  0
LINE
  8
0
 10
51.5
 11
51.5
 20
138
 21
139.5
  0
LINE
  8
0
 10
51.5
 11
61.5
 20
139.5
 21
139.5
  0
LINE
  8
0
 10
61.5
 11
61.5
 20
139.5
 21
138
  0
LINE
  8
0
 10
61.5
 11
51.5
 20
138
 21
138
  0
LINE
  8
0
 10
66.5
 11
66.5
 20
1.5
 21
3
  0
LINE
  8
0
 10
66.5
 11
76.5
 20
3
 21
3
  0
LINE
  8
0
 10
76.5
 11
76.5
 20
3
 21
1.5
  0
LINE
  8
0
 10
76.5
 11
66.5
 20
1.5
 21
1.5
  0
LINE
  8
0
 10
66.5
 11
66.5
 20
138
 21
139.5
  0
LINE
  8
0
 10
66.5
 11
76.5
 20
139.5
 21
139.5
  0
LINE
  8
0
 10
76.5
 11
76.5
 20
139.5
 21
138
  0
LINE
  8
0
 10
76.5
 11
66.5
 20
138
 21
138
  0
LINE
  8
0
 10
81.5
 11
81.5
 20
1.5
 21
3
  0
LINE
  8
0
 10
81.5
 11
91.5
 20
3
 21
3
  0
LINE
  8
0
 10
91.5
 11
91.5
 20
3
 21
1.5
  0
LINE
  8
0
 10
91.5
 11
81.5
 20
1.5
 21
1.5
  0
LINE
  8
0
 10
81.5
 11
81.5
 20
138
 21
139.5
  0
LINE
  8
0
 10
81.5
 11
91.5
 20
139.5
 21
139.5
  0
LINE
  8
0
 10
91.5
 11
91.5
 20
139.5
 21
138
  0
LINE
  8
0
 10
91.5
 11
81.5
 20
138
 21
138
  0
LINE
  8
0
 10
99.5
 11
99.5
 20
1.5
 21
3
  0
LINE
  8
0
 10
99.5
 11
109.5
 20
3
 21
3
  0
LINE
  8
0
 10
109.5
 11
109.5
 20
3
 21
1.5
  0
LINE
  8
0
 10
109.5
 11
99.5
 20
1.5
 21
1.5
  0
LINE
  8
0
 10
99.5
 11
99.5
 20
138
 21
139.5
  0
LINE
  8
0
 10
99.5
 11
109.5
 20
139.5
 21
139.5
  0
LINE
  8
0
 10
109.5
 11
109.5
 20
139.5
 21
138
  0
LINE
  8
0
 10
109.5
 11
99.5
 20
138
 21
138
  0
LINE
  8
0
 10
114.5
 11
114.5
 20
1.5
 21
3
  0
LINE
  8
0
 10
114.5
 11
124.5
 20
3
 21
3
  0
LINE
  8
0
 10
124.5
 11
124.5
 20
3
 21
1.5
  0
LINE
  8
0
 10
124.5
 11
114.5
 20
1.5
 21
1.5
  0
LINE
  8
0
 10
114.5
 11
114.5
 20
138
 21
139.5
  0
LINE
  8
0
 10
114.5
 11
124.5
 20
139.5
 21
139.5
  0
LINE
  8
0
 10
124.5
 11
124.5
 20
139.5
 21
138
  0
LINE
  8
0
 10
124.5
 11
114.5
 20
138
 21
138
  0
LINE
  8
0
 10
129.5
 11
129.5
 20
1.5
 21
3
  0
LINE
  8
0
 10
129.5
 11
139.5
 20
3
 21
3
  0
LINE
  8
0
 10
139.5
 11
139.5
 20
3
 21
1.5
  0
LINE
  8
0
 10
139.5
 11
129.5
 20
1.5
 21
1.5
  0
LINE
  8
0
 10
129.5
 11
129.5
 20
138
 21
139.5
  0
LINE
  8
0
 10
129.5
 11
139.5
 20
139.5
 21
139.5
  0
LINE
  8
0
 10
139.5
 11
139.5
 20
139.5
 21
138
  0
LINE
  8
0
 10
139.5
 11
129.5
 20
138
 21
138
  0
LINE
  8
0
 10
144.5
 11
144.5
 20
1.5
 21
3
  0
LINE
  8
0
 10
144.5
 11
154.5
 20
3
 21
3
  0
LINE
  8
0
 10
154.5
 11
154.5
 20
3
 21
1.5
  0
LINE
  8
0
 10
154.5
 11
144.5
 20
1.5
 21
1.5
  0
LINE
  8
0
 10
144.5
 11
144.5
 20
138
 21
139.5
  0
LINE
  8
0
 10
144.5
 11
154.5
 20
139.5
 21
139.5
  0
LINE
  8
0
 10
154.5
 11
154.5
 20
139.5
 21
138
  0
LINE
  8
0
 10
154.5
 11
144.5
 20
138
 21
138
  0
LINE
  8
0
 10
159.5
 11
159.5
 20
1.5
 21
3
  0
LINE
  8
0
 10
159.5
 11
169.5
 20
3
 21
3
  0
LINE
  8
0
 10
169.5
 11
169.5
 20
3
 21
1.5
  0
LINE
  8
0
 10
169.5
 11
159.5
 20
1.5
 21
1.5
  0
LINE
  8
0
 10
159.5
 11
159.5
 20
138
 21
139.5
  0
LINE
  8
0
 10
159.5
 11
169.5
 20
139.5
 21
139.5
  0
LINE
  8
0
 10
169.5
 11
169.5
 20
139.5
 21
138
  0
LINE
  8
0
 10
169.5
 11
159.5
 20
138
 21
138
  0
LINE
  8
0
 10
174.5
 11
174.5
 20
1.5
 21
3
  0
LINE
  8
0
 10
174.5
 11
184.5
 20
3
 21
3
  0
LINE
  8
0
 10
184.5
 11
184.5
 20
3
 21
1.5
  0
LINE
  8
0
 10
184.5
 11
174.5
 20
1.5
 21
1.5
  0
LINE
  8
0
 10
174.5
 11
174.5
 20
138
 21
139.5
  0
LINE
  8
0
 10
174.5
 11
184.5
 20
139.5
 21
139.5
  0
LINE
  8
0
 10
184.5
 11
184.5
 20
139.5
 21
138
  0
LINE
  8
0
 10
184.5
 11
174.5
 20
138
 21
138
  0
LINE
  8
0
 10
189.5
 11
189.5
 20
6.5
 21
16.5
  0
LINE
  8
0
 10
189.5
 11
191
 20
16.5
 21
16.5
  0
LINE
  8
0
 10
191
 11
191
 20
16.5
 21
6.5
  0
LINE
  8
0
 10
191
 11
189.5
 20
6.5
 21
6.5
  0
LINE
  8
0
 10
189.5
 11
189.5
 20
21.5
 21
31.5
  0
LINE
  8
0
 10
189.5
 11
191
 20
31.5
 21
31.5
  0
LINE
  8
0
 10
191
 11
191
 20
31.5
 21
21.5
  0
LINE
  8
0
 10
191
 11
189.5
 20
21.5
 21
21.5
  0
LINE
  8
0
 10
189.5
 11
189.5
 20
36.5
 21
46.5
  0
LINE
  8
0
 10
189.5
 11
191
 20
46.5
 21
46.5
  0
LINE
  8
0
 10
191
 11
191
 20
46.5
 21
36.5
  0
LINE
  8
0
 10
191
 11
189.5
 20
36.5
 21
36.5
  0
LINE
  8
0
 10
189.5
 11
189.5
 20
51.5
 21
61.5
  0
LINE
  8
0
 10
189.5
 11
191
 20
61.5
 21
61.5
  0
LINE
  8
0
 10
191
 11
191
 20
61.5
 21
51.5
  0
LINE
  8
0
 10
191
 11
189.5
 20
51.5
 21
51.5
  0
LINE
  8
0
 10
189.5
 11
189.5
 20
79.5
 21
89.5
  0
LINE
  8
0
 10
189.5
 11
191
 20
89.5
 21
89.5
  0
LINE
  8
0
 10
191
 11
191
 20
89.5
 21
79.5
  0
LINE
  8
0
 10
191
 11
189.5
 20
79.5
 21
79.5
  0
LINE
  8
0
 10
189.5
 11
189.5
 20
94.5
 21
104.5
  0
LINE
  8
0
 10
189.5
 11
191
 20
104.5
 21
104.5
  0
LINE
  8
0
 10
191
 11
191
 20
104.5
 21
94.5
  0
LINE
  8
0
 10
191
 11
189.5
 20
94.5
 21
94.5
  0
LINE
  8
0
 10
189.5
 11
189.5
 20
109.5
 21
119.5
  0
LINE
  8
0
 10
189.5
 11
191
 20
119.5
 21
119.5
  0
LINE
  8
0
 10
191
 11
191
 20
119.5
 21
109.5
  0
LINE
  8
0
 10
191
 11
189.5
 20
109.5
 21
109.5
  0
LINE
  8
0
 10
189.5
 11
189.5
 20
124.5
 21
134.5
  0
LINE
  8
0
 10
189.5
 11
191
 20
134.5
 21
134.5
  0
LINE
  8
0
 10
191
 11
191
 20
134.5
 21
124.5
  0
LINE
  8
0
 10
191
 11
189.5
 20
124.5
 21
124.5
  0
LINE
  8
0
 10
196
 11
196
 20
1.5
 21
3
  0
LINE
  8
0
 10
196
 11
206
 20
3
 21
3
  0
LINE
  8
0
 10
206
 11
206
 20
3
 21
1.5
  0
LINE
  8
0
 10
206
 11
196
 20
1.5
 21
1.5
  0
LINE
  8
0
 10
196
 11
196
 20
138
 21
139.5
  0
LINE
  8
0
 10
196
 11
206
 20
139.5
 21
139.5
  0
LINE
  8
0
 10
206
 11
206
 20
139.5
 21
138
  0
LINE
  8
0
 10
206
 11
196
 20
138
 21
138
  0
LINE
  8
0
 10
211
 11
211
 20
1.5
 21
3
  0
LINE
  8
0
 10
211
 11
221
 20
3
 21
3
  0
LINE
  8
0
 10
221
 11
221
 20
3
 21
1.5
  0
LINE
  8
0
 10
221
 11
211
 20
1.5
 21
1.5
  0
LINE
  8
0
 10
211
 11
211
 20
138
 21
139.5
  0
LINE
  8
0
 10
211
 11
221
 20
139.5
 21
139.5
  0
LINE
  8
0
 10
221
 11
221
 20
139.5
 21
138
  0
LINE
  8
0
 10
221
 11
211
 20
138
 21
138
  0
LINE
  8
0
 10
226
 11
226
 20
1.5
 21
3
  0
LINE
  8
0
 10
226
 11
236
 20
3
 21
3
  0
LINE
  8
0
 10
236
 11
236
 20
3
 21
1.5
  0
LINE
  8
0
 10
236
 11
226
 20
1.5
 21
1.5
  0
LINE
  8
0
 10
226
 11
226
 20
138
 21
139.5
  0
LINE
  8
0
 10
226
 11
236
 20
139.5
 21
139.5
  0
LINE
  8
0
 10
236
 11
236
 20
139.5
 21
138
  0
LINE
  8
0
 10
236
 11
226
 20
138
 21
138
  0
LINE
  8
0
 10
241
 11
241
 20
1.5
 21
3
  0
LINE
  8
0
 10
241
 11
251
 20
3
 21
3
  0
LINE
  8
0
 10
251
 11
251
 20
3
 21
1.5
  0
LINE
  8
0
 10
251
 11
241
 20
1.5
 21
1.5
  0
LINE
  8
0
 10
241
 11
241
 20
138
 21
139.5
  0
LINE
  8
0
 10
241
 11
251
 20
139.5
 21
139.5
  0
LINE
  8
0
 10
251
 11
251
 20
139.5
 21
138
  0
LINE
  8
0
 10
251
 11
241
 20
138
 21
138
  0
LINE
  8
0
 10
256
 11
256
 20
1.5
 21
3
  0
LINE
  8
0
 10
256
 11
266
 20
3
 21
3
  0
LINE
  8
0
 10
266
 11
266
 20
3
 21
1.5
  0
LINE
  8
0
 10
266
 11
256
 20
1.5
 21
1.5
  0
LINE
  8
0
 10
256
 11
256
 20
138
 21
139.5
  0
LINE
  8
0
 10
256
 11
266
 20
139.5
 21
139.5
  0
LINE
  8
0
 10
266
 11
266
 20
139.5
 21
138
  0
LINE
  8
0
 10
266
 11
256
 20
138
 21
138
  0
LINE
  8
0
 10
269
 11
269
 20
1.5
 21
3
  0
LINE
  8
0
 10
269
 11
279
 20
3
 21
3
  0
LINE
  8
0
 10
279
 11
279
 20
3
 21
1.5
  0
LINE
  8
0
 10
279
 11
269
 20
1.5
 21
1.5
  0
LINE
  8
0
 10
0
 11
0
 20
0
 21
211
  0
LINE
  8
0
 10
0
 11
345.5
 20
211
 21
211
  0
LINE
  8
0
 10
345.5
 11
345.5
 20
211
 21
0
  0
LINE
  8
0
 10
345.5
 11
0
 20
0
 21
0
  0
LINE
  8
0
 10
269
 11
269
 20
138
 21
139.5
  0
LINE
  8
0
 10
269
 11
279
 20
139.5
 21
139.5
  0
LINE
  8
0
 10
279
 11
279
 20
139.5
 21
138
  0
LINE
  8
0
 10
279
 11
269
 20
138
 21
138
  0
LINE
  8
0
 10
284
 11
284
 20
1.5
 21
3
  0
LINE
  8
0
 10
284
 11
294
 20
3
 21
3
  0
LINE
  8
0
 10
294
 11
294
 20
3
 21
1.5
  0
LINE
  8
0
 10
294
 11
284
 20
1.5
 21
1.5
  0
LINE
  8
0
 10
284
 11
284
 20
138
 21
139.5
  0
LINE
  8
0
 10
284
 11
294
 20
139.5
 21
139.5
  0
LINE
  8
0
 10
294
 11
294
 20
139.5
 21
138
  0
LINE
  8
0
 10
294
 11
284
 20
138
 21
138
  0
LINE
  8
0
 10
299
 11
299
 20
1.5
 21
3
  0
LINE
  8
0
 10
299
 11
309
 20
3
 21
3
  0
LINE
  8
0
 10
309
 11
309
 20
3
 21
1.5
  0
LINE
  8
0
 10
309
 11
299
 20
1.5
 21
1.5
  0
LINE
  8
0
 10
299
 11
299
 20
138
 21
139.5
  0
LINE
  8
0
 10
299
 11
309
 20
139.5
 21
139.5
  0
LINE
  8
0
 10
309
 11
309
 20
139.5
 21
138
  0
LINE
  8
0
 10
309
 11
299
 20
138
 21
138
  0
LINE
  8
0
 10
314
 11
314
 20
1.5
 21
3
  0
LINE
  8
0
 10
314
 11
324
 20
3
 21
3
  0
LINE
  8
0
 10
324
 11
324
 20
3
 21
1.5
  0
LINE
  8
0
 10
324
 11
314
 20
1.5
 21
1.5
  0
LINE
  8
0
 10
314
 11
314
 20
138
 21
139.5
  0
LINE
  8
0
 10
314
 11
324
 20
139.5
 21
139.5
  0
LINE
  8
0
 10
324
 11
324
 20
139.5
 21
138
  0
LINE
  8
0
 10
324
 11
314
 20
138
 21
138
  0
LINE
  8
0
 10
329
 11
329
 20
1.5
 21
3
  0
LINE
  8
0
 10
329
 11
339
 20
3
 21
3
  0
LINE
  8
0
 10
339
 11
339
 20
3
 21
1.5
  0
LINE
  8
0
 10
339
 11
329
 20
1.5
 21
1.5
  0
LINE
  8
0
 10
329
 11
329
 20
138
 21
139.5
  0
LINE
  8
0
 10
329
 11
339
 20
139.5
 21
139.5
  0
LINE
  8
0
 10
339
 11
339
 20
139.5
 21
138
  0
LINE
  8
0
 10
339
 11
329
 20
138
 21
138
  0
LINE
  8
0
 10
342.5
 11
342.5
 20
6.5
 21
16.5
  0
LINE
  8
0
 10
342.5
 11
344
 20
16.5
 21
16.5
  0
LINE
  8
0
 10
344
 11
344
 20
16.5
 21
6.5
  0
LINE
  8
0
 10
344
 11
342.5
 20
6.5
 21
6.5
  0
LINE
  8
0
 10
342.5
 11
342.5
 20
21.5
 21
31.5
  0
LINE
  8
0
 10
342.5
 11
344
 20
31.5
 21
31.5
  0
LINE
  8
0
 10
344
 11
344
 20
31.5
 21
21.5
  0
LINE
  8
0
 10
344
 11
342.5
 20
21.5
 21
21.5
  0
LINE
  8
0
 10
342.5
 11
342.5
 20
36.5
 21
46.5
  0
LINE
  8
0
 10
342.5
 11
344
 20
46.5
 21
46.5
  0
LINE
  8
0
 10
344
 11
344
 20
46.5
 21
36.5
  0
LINE
  8
0
 10
344
 11
342.5
 20
36.5
 21
36.5
  0
LINE
  8
0
 10
342.5
 11
342.5
 20
51.5
 21
61.5
  0
LINE
  8
0
 10
342.5
 11
344
 20
61.5
 21
61.5
  0
LINE
  8
0
 10
344
 11
344
 20
61.5
 21
51.5
  0
LINE
  8
0
 10
344
 11
342.5
 20
51.5
 21
51.5
  0
LINE
  8
0
 10
342.5
 11
342.5
 20
79.5
 21
89.5
  0
LINE
  8
0
 10
342.5
 11
344
 20
89.5
 21
89.5
  0
LINE
  8
0
 10
344
 11
344
 20
89.5
 21
79.5
  0
LINE
  8
0
 10
344
 11
342.5
 20
79.5
 21
79.5
  0
LINE
  8
0
 10
342.5
 11
342.5
 20
94.5
 21
104.5
  0
LINE
  8
0
 10
342.5
 11
344
 20
104.5
 21
104.5
  0
LINE
  8
0
 10
344
 11
344
 20
104.5
 21
94.5
  0
LINE
  8
0
 10
344
 11
342.5
 20
94.5
 21
94.5
  0
LINE
  8
0
 10
342.5
 11
342.5
 20
109.5
 21
119.5
  0
LINE
  8
0
 10
342.5
 11
344
 20
119.5
 21
119.5
  0
LINE
  8
0
 10
344
 11
344
 20
119.5
 21
109.5
  0
LINE
  8
0
 10
344
 11
342.5
 20
109.5
 21
109.5
  0
LINE
  8
0
 10
342.5
 11
342.5
 20
124.5
 21
134.5
  0
LINE
  8
0
 10
342.5
 11
344
 20
134.5
 21
134.5
  0
LINE
  8
0
 10
344
 11
344
 20
134.5
 21
124.5
  0
LINE
  8
0
 10
344
 11
342.5
 20
124.5
 21
124.5
  0
ENDSEC
  0
SECTION
  2
OBJECTS
  0
DICTIONARY
  0
ENDSEC
  0
EOF
