  0
SECTION
  2
BLOCKS
  0
ENDSEC
  0
SECTION
  2
ENTITIES
  0
LINE
  8
0
 10
527
 20
350.9
 11
564.5
 21
350.9
  0
LINE
  8
0
 10
564.5
 20
350.9
 11
564.5
 21
361.2
  0
LINE
  8
0
 10
564.5
 20
361.2
 11
619.5
 21
361.2
  0
LINE
  8
0
 10
619.5
 20
361.2
 11
619.5
 21
350.9
  0
LINE
  8
0
 10
619.5
 20
350.9
 11
629.5
 21
350.9
  0
LINE
  8
0
 10
629.5
 20
350.9
 11
629.5
 21
349.4
  0
LINE
  8
0
 10
629.5
 20
349.4
 11
634.5
 21
349.4
  0
LINE
  8
0
 10
634.5
 20
349.4
 11
634.5
 21
350.9
  0
LINE
  8
0
 10
634.5
 20
350.9
 11
637.5
 21
350.9
  0
LINE
  8
0
 10
637.5
 20
350.9
 11
637.5
 21
359.35
  0
LINE
  8
0
 10
637.5
 20
359.35
 11
640.5
 21
359.35
  0
LINE
  8
0
 10
640.5
 20
359.35
 11
640.5
 21
350.9
  0
LINE
  8
0
 10
640.5
 20
350.9
 11
643.5
 21
350.9
  0
LINE
  8
0
 10
643.5
 20
350.9
 11
643.5
 21
367.8
  0
LINE
  8
0
 10
643.5
 20
367.8
 11
634.5
 21
367.8
  0
LINE
  8
0
 10
634.5
 20
367.8
 11
634.5
 21
370.8
  0
LINE
  8
0
 10
634.5
 20
370.8
 11
629.5
 21
370.8
  0
LINE
  8
0
 10
629.5
 20
370.8
 11
629.5
 21
367.8
  0
LINE
  8
0
 10
629.5
 20
367.8
 11
527
 21
367.8
  0
LINE
  8
0
 10
527
 20
367.8
 11
527
 21
370.8
  0
LINE
  8
0
 10
527
 20
370.8
 11
522
 21
370.8
  0
LINE
  8
0
 10
522
 20
370.8
 11
522
 21
367.8
  0
LINE
  8
0
 10
522
 20
367.8
 11
513
 21
367.8
  0
LINE
  8
0
 10
513
 20
367.8
 11
513
 21
350.9
  0
LINE
  8
0
 10
513
 20
350.9
 11
516
 21
350.9
  0
LINE
  8
0
 10
516
 20
350.9
 11
516
 21
359.35
  0
LINE
  8
0
 10
516
 20
359.35
 11
519
 21
359.35
  0
LINE
  8
0
 10
519
 20
359.35
 11
519
 21
350.9
  0
LINE
  8
0
 10
519
 20
350.9
 11
522
 21
350.9
  0
LINE
  8
0
 10
522
 20
350.9
 11
522
 21
349.4
  0
LINE
  8
0
 10
522
 20
349.4
 11
527
 21
349.4
  0
LINE
  8
0
 10
527
 20
349.4
 11
527
 21
350.9
  0
LINE
  8
0
 10
372
 20
329.7
 11
496
 21
329.7
  0
LINE
  8
0
 10
496
 20
329.7
 11
496
 21
328.2
  0
LINE
  8
0
 10
496
 20
328.2
 11
501
 21
328.2
  0
LINE
  8
0
 10
501
 20
328.2
 11
501
 21
329.7
  0
LINE
  8
0
 10
501
 20
329.7
 11
510
 21
329.7
  0
LINE
  8
0
 10
510
 20
329.7
 11
510
 21
346.6
  0
LINE
  8
0
 10
510
 20
346.6
 11
507
 21
346.6
  0
LINE
  8
0
 10
507
 20
346.6
 11
507
 21
338.15
  0
LINE
  8
0
 10
507
 20
338.15
 11
504
 21
338.15
  0
LINE
  8
0
 10
504
 20
338.15
 11
504
 21
346.6
  0
LINE
  8
0
 10
504
 20
346.6
 11
501
 21
346.6
  0
LINE
  8
0
 10
501
 20
346.6
 11
501
 21
349.6
  0
LINE
  8
0
 10
501
 20
349.6
 11
496
 21
349.6
  0
LINE
  8
0
 10
496
 20
349.6
 11
496
 21
346.6
  0
LINE
  8
0
 10
496
 20
346.6
 11
372
 21
346.6
  0
LINE
  8
0
 10
372
 20
346.6
 11
372
 21
349.6
  0
LINE
  8
0
 10
372
 20
349.6
 11
367
 21
349.6
  0
LINE
  8
0
 10
367
 20
349.6
 11
367
 21
346.6
  0
LINE
  8
0
 10
367
 20
346.6
 11
364
 21
346.6
  0
LINE
  8
0
 10
364
 20
346.6
 11
364
 21
338.15
  0
LINE
  8
0
 10
364
 20
338.15
 11
361
 21
338.15
  0
LINE
  8
0
 10
361
 20
338.15
 11
361
 21
346.6
  0
LINE
  8
0
 10
361
 20
346.6
 11
358
 21
346.6
  0
LINE
  8
0
 10
358
 20
346.6
 11
358
 21
329.7
  0
LINE
  8
0
 10
358
 20
329.7
 11
367
 21
329.7
  0
LINE
  8
0
 10
367
 20
329.7
 11
367
 21
328.2
  0
LINE
  8
0
 10
367
 20
328.2
 11
372
 21
328.2
  0
LINE
  8
0
 10
372
 20
328.2
 11
372
 21
329.7
  0
LINE
  8
0
 10
14
 20
329.7
 11
169.5
 21
329.7
  0
LINE
  8
0
 10
169.5
 20
329.7
 11
169.5
 21
328.2
  0
LINE
  8
0
 10
169.5
 20
328.2
 11
174.5
 21
328.2
  0
LINE
  8
0
 10
174.5
 20
328.2
 11
174.5
 21
329.7
  0
LINE
  8
0
 10
174.5
 20
329.7
 11
177.5
 21
329.7
  0
LINE
  8
0
 10
177.5
 20
329.7
 11
177.5
 21
338.15
  0
LINE
  8
0
 10
177.5
 20
338.15
 11
180.5
 21
338.15
  0
LINE
  8
0
 10
180.5
 20
338.15
 11
180.5
 21
329.7
  0
LINE
  8
0
 10
180.5
 20
329.7
 11
183.5
 21
329.7
  0
LINE
  8
0
 10
183.5
 20
329.7
 11
183.5
 21
346.6
  0
LINE
  8
0
 10
183.5
 20
346.6
 11
174.5
 21
346.6
  0
LINE
  8
0
 10
174.5
 20
346.6
 11
174.5
 21
349.6
  0
LINE
  8
0
 10
174.5
 20
349.6
 11
169.5
 21
349.6
  0
LINE
  8
0
 10
169.5
 20
349.6
 11
169.5
 21
346.6
  0
LINE
  8
0
 10
169.5
 20
346.6
 11
14
 21
346.6
  0
LINE
  8
0
 10
14
 20
346.6
 11
14
 21
349.6
  0
LINE
  8
0
 10
14
 20
349.6
 11
9
 21
349.6
  0
LINE
  8
0
 10
9
 20
349.6
 11
9
 21
346.6
  0
LINE
  8
0
 10
9
 20
346.6
 11
0
 21
346.6
  0
LINE
  8
0
 10
0
 20
346.6
 11
0
 21
329.7
  0
LINE
  8
0
 10
0
 20
329.7
 11
3
 21
329.7
  0
LINE
  8
0
 10
3
 20
329.7
 11
3
 21
338.15
  0
LINE
  8
0
 10
3
 20
338.15
 11
6
 21
338.15
  0
LINE
  8
0
 10
6
 20
338.15
 11
6
 21
329.7
  0
LINE
  8
0
 10
6
 20
329.7
 11
9
 21
329.7
  0
LINE
  8
0
 10
9
 20
329.7
 11
9
 21
328.2
  0
LINE
  8
0
 10
9
 20
328.2
 11
14
 21
328.2
  0
LINE
  8
0
 10
14
 20
328.2
 11
14
 21
329.7
  0
LINE
  8
0
 10
527
 20
326.5
 11
564.5
 21
326.5
  0
LINE
  8
0
 10
564.5
 20
326.5
 11
564.5
 21
336.8
  0
LINE
  8
0
 10
564.5
 20
336.8
 11
619.5
 21
336.8
  0
LINE
  8
0
 10
619.5
 20
336.8
 11
619.5
 21
326.5
  0
LINE
  8
0
 10
619.5
 20
326.5
 11
629.5
 21
326.5
  0
LINE
  8
0
 10
629.5
 20
326.5
 11
629.5
 21
325
  0
LINE
  8
0
 10
629.5
 20
325
 11
634.5
 21
325
  0
LINE
  8
0
 10
634.5
 20
325
 11
634.5
 21
326.5
  0
LINE
  8
0
 10
634.5
 20
326.5
 11
637.5
 21
326.5
  0
LINE
  8
0
 10
637.5
 20
326.5
 11
637.5
 21
334.95
  0
LINE
  8
0
 10
637.5
 20
334.95
 11
640.5
 21
334.95
  0
LINE
  8
0
 10
640.5
 20
334.95
 11
640.5
 21
326.5
  0
LINE
  8
0
 10
640.5
 20
326.5
 11
643.5
 21
326.5
  0
LINE
  8
0
 10
643.5
 20
326.5
 11
643.5
 21
343.4
  0
LINE
  8
0
 10
643.5
 20
343.4
 11
634.5
 21
343.4
  0
LINE
  8
0
 10
634.5
 20
343.4
 11
634.5
 21
346.4
  0
LINE
  8
0
 10
634.5
 20
346.4
 11
629.5
 21
346.4
  0
LINE
  8
0
 10
629.5
 20
346.4
 11
629.5
 21
343.4
  0
LINE
  8
0
 10
629.5
 20
343.4
 11
527
 21
343.4
  0
LINE
  8
0
 10
527
 20
343.4
 11
527
 21
346.4
  0
LINE
  8
0
 10
527
 20
346.4
 11
522
 21
346.4
  0
LINE
  8
0
 10
522
 20
346.4
 11
522
 21
343.4
  0
LINE
  8
0
 10
522
 20
343.4
 11
513
 21
343.4
  0
LINE
  8
0
 10
513
 20
343.4
 11
513
 21
326.5
  0
LINE
  8
0
 10
513
 20
326.5
 11
516
 21
326.5
  0
LINE
  8
0
 10
516
 20
326.5
 11
516
 21
334.95
  0
LINE
  8
0
 10
516
 20
334.95
 11
519
 21
334.95
  0
LINE
  8
0
 10
519
 20
334.95
 11
519
 21
326.5
  0
LINE
  8
0
 10
519
 20
326.5
 11
522
 21
326.5
  0
LINE
  8
0
 10
522
 20
326.5
 11
522
 21
325
  0
LINE
  8
0
 10
522
 20
325
 11
527
 21
325
  0
LINE
  8
0
 10
527
 20
325
 11
527
 21
326.5
  0
LINE
  8
0
 10
372
 20
305.3
 11
382
 21
305.3
  0
LINE
  8
0
 10
382
 20
305.3
 11
382
 21
315.6
  0
LINE
  8
0
 10
382
 20
315.6
 11
437
 21
315.6
  0
LINE
  8
0
 10
437
 20
315.6
 11
437
 21
305.3
  0
LINE
  8
0
 10
437
 20
305.3
 11
496
 21
305.3
  0
LINE
  8
0
 10
496
 20
305.3
 11
496
 21
303.8
  0
LINE
  8
0
 10
496
 20
303.8
 11
501
 21
303.8
  0
LINE
  8
0
 10
501
 20
303.8
 11
501
 21
305.3
  0
LINE
  8
0
 10
501
 20
305.3
 11
510
 21
305.3
  0
LINE
  8
0
 10
510
 20
305.3
 11
510
 21
322.2
  0
LINE
  8
0
 10
510
 20
322.2
 11
507
 21
322.2
  0
LINE
  8
0
 10
507
 20
322.2
 11
507
 21
313.75
  0
LINE
  8
0
 10
507
 20
313.75
 11
504
 21
313.75
  0
LINE
  8
0
 10
504
 20
313.75
 11
504
 21
322.2
  0
LINE
  8
0
 10
504
 20
322.2
 11
501
 21
322.2
  0
LINE
  8
0
 10
501
 20
322.2
 11
501
 21
325.2
  0
LINE
  8
0
 10
501
 20
325.2
 11
496
 21
325.2
  0
LINE
  8
0
 10
496
 20
325.2
 11
496
 21
322.2
  0
LINE
  8
0
 10
496
 20
322.2
 11
372
 21
322.2
  0
LINE
  8
0
 10
372
 20
322.2
 11
372
 21
325.2
  0
LINE
  8
0
 10
372
 20
325.2
 11
367
 21
325.2
  0
LINE
  8
0
 10
367
 20
325.2
 11
367
 21
322.2
  0
LINE
  8
0
 10
367
 20
322.2
 11
364
 21
322.2
  0
LINE
  8
0
 10
364
 20
322.2
 11
364
 21
313.75
  0
LINE
  8
0
 10
364
 20
313.75
 11
361
 21
313.75
  0
LINE
  8
0
 10
361
 20
313.75
 11
361
 21
322.2
  0
LINE
  8
0
 10
361
 20
322.2
 11
358
 21
322.2
  0
LINE
  8
0
 10
358
 20
322.2
 11
358
 21
305.3
  0
LINE
  8
0
 10
358
 20
305.3
 11
367
 21
305.3
  0
LINE
  8
0
 10
367
 20
305.3
 11
367
 21
303.8
  0
LINE
  8
0
 10
367
 20
303.8
 11
372
 21
303.8
  0
LINE
  8
0
 10
372
 20
303.8
 11
372
 21
305.3
  0
LINE
  8
0
 10
14
 20
305.3
 11
169.5
 21
305.3
  0
LINE
  8
0
 10
169.5
 20
305.3
 11
169.5
 21
303.8
  0
LINE
  8
0
 10
169.5
 20
303.8
 11
174.5
 21
303.8
  0
LINE
  8
0
 10
174.5
 20
303.8
 11
174.5
 21
305.3
  0
LINE
  8
0
 10
174.5
 20
305.3
 11
177.5
 21
305.3
  0
LINE
  8
0
 10
177.5
 20
305.3
 11
177.5
 21
313.75
  0
LINE
  8
0
 10
177.5
 20
313.75
 11
180.5
 21
313.75
  0
LINE
  8
0
 10
180.5
 20
313.75
 11
180.5
 21
305.3
  0
LINE
  8
0
 10
180.5
 20
305.3
 11
183.5
 21
305.3
  0
LINE
  8
0
 10
183.5
 20
305.3
 11
183.5
 21
322.2
  0
LINE
  8
0
 10
183.5
 20
322.2
 11
174.5
 21
322.2
  0
LINE
  8
0
 10
174.5
 20
322.2
 11
174.5
 21
325.2
  0
LINE
  8
0
 10
174.5
 20
325.2
 11
169.5
 21
325.2
  0
LINE
  8
0
 10
169.5
 20
325.2
 11
169.5
 21
322.2
  0
LINE
  8
0
 10
169.5
 20
322.2
 11
14
 21
322.2
  0
LINE
  8
0
 10
14
 20
322.2
 11
14
 21
325.2
  0
LINE
  8
0
 10
14
 20
325.2
 11
9
 21
325.2
  0
LINE
  8
0
 10
9
 20
325.2
 11
9
 21
322.2
  0
LINE
  8
0
 10
9
 20
322.2
 11
0
 21
322.2
  0
LINE
  8
0
 10
0
 20
322.2
 11
0
 21
305.3
  0
LINE
  8
0
 10
0
 20
305.3
 11
3
 21
305.3
  0
LINE
  8
0
 10
3
 20
305.3
 11
3
 21
313.75
  0
LINE
  8
0
 10
3
 20
313.75
 11
6
 21
313.75
  0
LINE
  8
0
 10
6
 20
313.75
 11
6
 21
305.3
  0
LINE
  8
0
 10
6
 20
305.3
 11
9
 21
305.3
  0
LINE
  8
0
 10
9
 20
305.3
 11
9
 21
303.8
  0
LINE
  8
0
 10
9
 20
303.8
 11
14
 21
303.8
  0
LINE
  8
0
 10
14
 20
303.8
 11
14
 21
305.3
  0
LINE
  8
0
 10
643.5
 20
322
 11
513
 21
322
  0
LINE
  8
0
 10
513
 20
322
 11
513
 21
255
  0
LINE
  8
0
 10
513
 20
255
 11
643.5
 21
255
  0
LINE
  8
0
 10
643.5
 20
255
 11
643.5
 21
322
  0
LINE
  8
0
 10
522
 20
316
 11
522
 21
319
  0
LINE
  8
0
 10
522
 20
319
 11
527
 21
319
  0
LINE
  8
0
 10
527
 20
319
 11
527
 21
316
  0
LINE
  8
0
 10
527
 20
316
 11
522
 21
316
  0
LINE
  8
0
 10
629.5
 20
316
 11
629.5
 21
319
  0
LINE
  8
0
 10
629.5
 20
319
 11
634.5
 21
319
  0
LINE
  8
0
 10
634.5
 20
319
 11
634.5
 21
316
  0
LINE
  8
0
 10
634.5
 20
316
 11
629.5
 21
316
  0
LINE
  8
0
 10
637.5
 20
308
 11
637.5
 21
313
  0
LINE
  8
0
 10
637.5
 20
313
 11
640.5
 21
313
  0
LINE
  8
0
 10
640.5
 20
313
 11
640.5
 21
308
  0
LINE
  8
0
 10
640.5
 20
308
 11
637.5
 21
308
  0
LINE
  8
0
 10
516
 20
308
 11
516
 21
313
  0
LINE
  8
0
 10
516
 20
313
 11
519
 21
313
  0
LINE
  8
0
 10
519
 20
313
 11
519
 21
308
  0
LINE
  8
0
 10
519
 20
308
 11
516
 21
308
  0
LINE
  8
0
 10
632.5
 20
310.634
 11
632.134
 21
311
  0
LINE
  8
0
 10
632.134
 20
311
 11
632
 21
311.5
  0
LINE
  8
0
 10
632
 20
311.5
 11
632.134
 21
312
  0
LINE
  8
0
 10
632.134
 20
312
 11
632.5
 21
312.366
  0
LINE
  8
0
 10
632.5
 20
312.366
 11
633
 21
312.5
  0
LINE
  8
0
 10
633
 20
312.5
 11
633.5
 21
312.366
  0
LINE
  8
0
 10
633.5
 20
312.366
 11
633.866
 21
312
  0
LINE
  8
0
 10
633.866
 20
312
 11
634
 21
311.5
  0
LINE
  8
0
 10
634
 20
311.5
 11
633.866
 21
311
  0
LINE
  8
0
 10
633.866
 20
311
 11
633.5
 21
310.634
  0
LINE
  8
0
 10
633.5
 20
310.634
 11
633
 21
310.5
  0
LINE
  8
0
 10
633
 20
310.5
 11
632.5
 21
310.634
  0
LINE
  8
0
 10
523
 20
310.634
 11
522.634
 21
311
  0
LINE
  8
0
 10
522.634
 20
311
 11
522.5
 21
311.5
  0
LINE
  8
0
 10
522.5
 20
311.5
 11
522.634
 21
312
  0
LINE
  8
0
 10
522.634
 20
312
 11
523
 21
312.366
  0
LINE
  8
0
 10
523
 20
312.366
 11
523.5
 21
312.5
  0
LINE
  8
0
 10
523.5
 20
312.5
 11
524
 21
312.366
  0
LINE
  8
0
 10
524
 20
312.366
 11
524.366
 21
312
  0
LINE
  8
0
 10
524.366
 20
312
 11
524.5
 21
311.5
  0
LINE
  8
0
 10
524.5
 20
311.5
 11
524.366
 21
311
  0
LINE
  8
0
 10
524.366
 20
311
 11
524
 21
310.634
  0
LINE
  8
0
 10
524
 20
310.634
 11
523.5
 21
310.5
  0
LINE
  8
0
 10
523.5
 20
310.5
 11
523
 21
310.634
  0
LINE
  8
0
 10
637.5
 20
264
 11
637.5
 21
269
  0
LINE
  8
0
 10
637.5
 20
269
 11
640.5
 21
269
  0
LINE
  8
0
 10
640.5
 20
269
 11
640.5
 21
264
  0
LINE
  8
0
 10
640.5
 20
264
 11
637.5
 21
264
  0
LINE
  8
0
 10
516
 20
264
 11
516
 21
269
  0
LINE
  8
0
 10
516
 20
269
 11
519
 21
269
  0
LINE
  8
0
 10
519
 20
269
 11
519
 21
264
  0
LINE
  8
0
 10
519
 20
264
 11
516
 21
264
  0
LINE
  8
0
 10
523
 20
264.634
 11
522.634
 21
265
  0
LINE
  8
0
 10
522.634
 20
265
 11
522.5
 21
265.5
  0
LINE
  8
0
 10
522.5
 20
265.5
 11
522.634
 21
266
  0
LINE
  8
0
 10
522.634
 20
266
 11
523
 21
266.366
  0
LINE
  8
0
 10
523
 20
266.366
 11
523.5
 21
266.5
  0
LINE
  8
0
 10
523.5
 20
266.5
 11
524
 21
266.366
  0
LINE
  8
0
 10
524
 20
266.366
 11
524.366
 21
266
  0
LINE
  8
0
 10
524.366
 20
266
 11
524.5
 21
265.5
  0
LINE
  8
0
 10
524.5
 20
265.5
 11
524.366
 21
265
  0
LINE
  8
0
 10
524.366
 20
265
 11
524
 21
264.634
  0
LINE
  8
0
 10
524
 20
264.634
 11
523.5
 21
264.5
  0
LINE
  8
0
 10
523.5
 20
264.5
 11
523
 21
264.634
  0
LINE
  8
0
 10
632.5
 20
264.634
 11
632.134
 21
265
  0
LINE
  8
0
 10
632.134
 20
265
 11
632
 21
265.5
  0
LINE
  8
0
 10
632
 20
265.5
 11
632.134
 21
266
  0
LINE
  8
0
 10
632.134
 20
266
 11
632.5
 21
266.366
  0
LINE
  8
0
 10
632.5
 20
266.366
 11
633
 21
266.5
  0
LINE
  8
0
 10
633
 20
266.5
 11
633.5
 21
266.366
  0
LINE
  8
0
 10
633.5
 20
266.366
 11
633.866
 21
266
  0
LINE
  8
0
 10
633.866
 20
266
 11
634
 21
265.5
  0
LINE
  8
0
 10
634
 20
265.5
 11
633.866
 21
265
  0
LINE
  8
0
 10
633.866
 20
265
 11
633.5
 21
264.634
  0
LINE
  8
0
 10
633.5
 20
264.634
 11
633
 21
264.5
  0
LINE
  8
0
 10
633
 20
264.5
 11
632.5
 21
264.634
  0
LINE
  8
0
 10
629.5
 20
258
 11
629.5
 21
261
  0
LINE
  8
0
 10
629.5
 20
261
 11
634.5
 21
261
  0
LINE
  8
0
 10
634.5
 20
261
 11
634.5
 21
258
  0
LINE
  8
0
 10
634.5
 20
258
 11
629.5
 21
258
  0
LINE
  8
0
 10
522
 20
258
 11
522
 21
261
  0
LINE
  8
0
 10
522
 20
261
 11
527
 21
261
  0
LINE
  8
0
 10
527
 20
261
 11
527
 21
258
  0
LINE
  8
0
 10
527
 20
258
 11
522
 21
258
  0
LINE
  8
0
 10
689.3
 20
258
 11
680.85
 21
258
  0
LINE
  8
0
 10
680.85
 20
258
 11
680.85
 21
261
  0
LINE
  8
0
 10
680.85
 20
261
 11
689.3
 21
261
  0
LINE
  8
0
 10
689.3
 20
261
 11
689.3
 21
264
  0
LINE
  8
0
 10
689.3
 20
264
 11
692.3
 21
264
  0
LINE
  8
0
 10
692.3
 20
264
 11
692.3
 21
269
  0
LINE
  8
0
 10
692.3
 20
269
 11
689.3
 21
269
  0
LINE
  8
0
 10
689.3
 20
269
 11
689.3
 21
308
  0
LINE
  8
0
 10
689.3
 20
308
 11
692.3
 21
308
  0
LINE
  8
0
 10
692.3
 20
308
 11
692.3
 21
313
  0
LINE
  8
0
 10
692.3
 20
313
 11
689.3
 21
313
  0
LINE
  8
0
 10
689.3
 20
313
 11
689.3
 21
316
  0
LINE
  8
0
 10
689.3
 20
316
 11
680.85
 21
316
  0
LINE
  8
0
 10
680.85
 20
316
 11
680.85
 21
319
  0
LINE
  8
0
 10
680.85
 20
319
 11
689.3
 21
319
  0
LINE
  8
0
 10
689.3
 20
319
 11
689.3
 21
322
  0
LINE
  8
0
 10
689.3
 20
322
 11
672.4
 21
322
  0
LINE
  8
0
 10
672.4
 20
322
 11
672.4
 21
313
  0
LINE
  8
0
 10
672.4
 20
313
 11
670.9
 21
313
  0
LINE
  8
0
 10
670.9
 20
313
 11
670.9
 21
308
  0
LINE
  8
0
 10
670.9
 20
308
 11
672.4
 21
308
  0
LINE
  8
0
 10
672.4
 20
308
 11
672.4
 21
269
  0
LINE
  8
0
 10
672.4
 20
269
 11
670.9
 21
269
  0
LINE
  8
0
 10
670.9
 20
269
 11
670.9
 21
264
  0
LINE
  8
0
 10
670.9
 20
264
 11
672.4
 21
264
  0
LINE
  8
0
 10
672.4
 20
264
 11
672.4
 21
255
  0
LINE
  8
0
 10
672.4
 20
255
 11
689.3
 21
255
  0
LINE
  8
0
 10
689.3
 20
255
 11
689.3
 21
258
  0
LINE
  8
0
 10
664.9
 20
258
 11
656.45
 21
258
  0
LINE
  8
0
 10
656.45
 20
258
 11
656.45
 21
261
  0
LINE
  8
0
 10
656.45
 20
261
 11
664.9
 21
261
  0
LINE
  8
0
 10
664.9
 20
261
 11
664.9
 21
264
  0
LINE
  8
0
 10
664.9
 20
264
 11
667.9
 21
264
  0
LINE
  8
0
 10
667.9
 20
264
 11
667.9
 21
269
  0
LINE
  8
0
 10
667.9
 20
269
 11
664.9
 21
269
  0
LINE
  8
0
 10
664.9
 20
269
 11
664.9
 21
308
  0
LINE
  8
0
 10
664.9
 20
308
 11
667.9
 21
308
  0
LINE
  8
0
 10
667.9
 20
308
 11
667.9
 21
313
  0
LINE
  8
0
 10
667.9
 20
313
 11
664.9
 21
313
  0
LINE
  8
0
 10
664.9
 20
313
 11
664.9
 21
316
  0
LINE
  8
0
 10
664.9
 20
316
 11
656.45
 21
316
  0
LINE
  8
0
 10
656.45
 20
316
 11
656.45
 21
319
  0
LINE
  8
0
 10
656.45
 20
319
 11
664.9
 21
319
  0
LINE
  8
0
 10
664.9
 20
319
 11
664.9
 21
322
  0
LINE
  8
0
 10
664.9
 20
322
 11
648
 21
322
  0
LINE
  8
0
 10
648
 20
322
 11
648
 21
313
  0
LINE
  8
0
 10
648
 20
313
 11
646.5
 21
313
  0
LINE
  8
0
 10
646.5
 20
313
 11
646.5
 21
308
  0
LINE
  8
0
 10
646.5
 20
308
 11
648
 21
308
  0
LINE
  8
0
 10
648
 20
308
 11
648
 21
297.5
  0
LINE
  8
0
 10
648
 20
297.5
 11
658.3
 21
297.5
  0
LINE
  8
0
 10
658.3
 20
297.5
 11
658.3
 21
279.5
  0
LINE
  8
0
 10
658.3
 20
279.5
 11
648
 21
279.5
  0
LINE
  8
0
 10
648
 20
279.5
 11
648
 21
269
  0
LINE
  8
0
 10
648
 20
269
 11
646.5
 21
269
  0
LINE
  8
0
 10
646.5
 20
269
 11
646.5
 21
264
  0
LINE
  8
0
 10
646.5
 20
264
 11
648
 21
264
  0
LINE
  8
0
 10
648
 20
264
 11
648
 21
255
  0
LINE
  8
0
 10
648
 20
255
 11
664.9
 21
255
  0
LINE
  8
0
 10
664.9
 20
255
 11
664.9
 21
258
  0
LINE
  8
0
 10
372
 20
280.9
 11
496
 21
280.9
  0
LINE
  8
0
 10
496
 20
280.9
 11
496
 21
279.4
  0
LINE
  8
0
 10
496
 20
279.4
 11
501
 21
279.4
  0
LINE
  8
0
 10
501
 20
279.4
 11
501
 21
280.9
  0
LINE
  8
0
 10
501
 20
280.9
 11
510
 21
280.9
  0
LINE
  8
0
 10
510
 20
280.9
 11
510
 21
297.8
  0
LINE
  8
0
 10
510
 20
297.8
 11
507
 21
297.8
  0
LINE
  8
0
 10
507
 20
297.8
 11
507
 21
289.35
  0
LINE
  8
0
 10
507
 20
289.35
 11
504
 21
289.35
  0
LINE
  8
0
 10
504
 20
289.35
 11
504
 21
297.8
  0
LINE
  8
0
 10
504
 20
297.8
 11
501
 21
297.8
  0
LINE
  8
0
 10
501
 20
297.8
 11
501
 21
300.8
  0
LINE
  8
0
 10
501
 20
300.8
 11
496
 21
300.8
  0
LINE
  8
0
 10
496
 20
300.8
 11
496
 21
297.8
  0
LINE
  8
0
 10
496
 20
297.8
 11
372
 21
297.8
  0
LINE
  8
0
 10
372
 20
297.8
 11
372
 21
300.8
  0
LINE
  8
0
 10
372
 20
300.8
 11
367
 21
300.8
  0
LINE
  8
0
 10
367
 20
300.8
 11
367
 21
297.8
  0
LINE
  8
0
 10
367
 20
297.8
 11
364
 21
297.8
  0
LINE
  8
0
 10
364
 20
297.8
 11
364
 21
289.35
  0
LINE
  8
0
 10
364
 20
289.35
 11
361
 21
289.35
  0
LINE
  8
0
 10
361
 20
289.35
 11
361
 21
297.8
  0
LINE
  8
0
 10
361
 20
297.8
 11
358
 21
297.8
  0
LINE
  8
0
 10
358
 20
297.8
 11
358
 21
280.9
  0
LINE
  8
0
 10
358
 20
280.9
 11
367
 21
280.9
  0
LINE
  8
0
 10
367
 20
280.9
 11
367
 21
279.4
  0
LINE
  8
0
 10
367
 20
279.4
 11
372
 21
279.4
  0
LINE
  8
0
 10
372
 20
279.4
 11
372
 21
280.9
  0
LINE
  8
0
 10
14
 20
280.9
 11
185.5
 21
280.9
  0
LINE
  8
0
 10
185.5
 20
280.9
 11
185.5
 21
279.4
  0
LINE
  8
0
 10
185.5
 20
279.4
 11
190.5
 21
279.4
  0
LINE
  8
0
 10
190.5
 20
279.4
 11
190.5
 21
280.9
  0
LINE
  8
0
 10
190.5
 20
280.9
 11
247.5
 21
280.9
  0
LINE
  8
0
 10
247.5
 20
280.9
 11
247.5
 21
279.4
  0
LINE
  8
0
 10
247.5
 20
279.4
 11
252.5
 21
279.4
  0
LINE
  8
0
 10
252.5
 20
279.4
 11
252.5
 21
280.9
  0
LINE
  8
0
 10
252.5
 20
280.9
 11
341
 21
280.9
  0
LINE
  8
0
 10
341
 20
280.9
 11
341
 21
279.4
  0
LINE
  8
0
 10
341
 20
279.4
 11
346
 21
279.4
  0
LINE
  8
0
 10
346
 20
279.4
 11
346
 21
280.9
  0
LINE
  8
0
 10
346
 20
280.9
 11
349
 21
280.9
  0
LINE
  8
0
 10
349
 20
280.9
 11
349
 21
289.35
  0
LINE
  8
0
 10
349
 20
289.35
 11
352
 21
289.35
  0
LINE
  8
0
 10
352
 20
289.35
 11
352
 21
280.9
  0
LINE
  8
0
 10
352
 20
280.9
 11
355
 21
280.9
  0
LINE
  8
0
 10
355
 20
280.9
 11
355
 21
297.8
  0
LINE
  8
0
 10
355
 20
297.8
 11
346
 21
297.8
  0
LINE
  8
0
 10
346
 20
297.8
 11
346
 21
300.8
  0
LINE
  8
0
 10
346
 20
300.8
 11
341
 21
300.8
  0
LINE
  8
0
 10
341
 20
300.8
 11
341
 21
297.8
  0
LINE
  8
0
 10
341
 20
297.8
 11
252.5
 21
297.8
  0
LINE
  8
0
 10
252.5
 20
297.8
 11
252.5
 21
300.8
  0
LINE
  8
0
 10
252.5
 20
300.8
 11
247.5
 21
300.8
  0
LINE
  8
0
 10
247.5
 20
300.8
 11
247.5
 21
297.8
  0
LINE
  8
0
 10
247.5
 20
297.8
 11
190.5
 21
297.8
  0
LINE
  8
0
 10
190.5
 20
297.8
 11
190.5
 21
300.8
  0
LINE
  8
0
 10
190.5
 20
300.8
 11
185.5
 21
300.8
  0
LINE
  8
0
 10
185.5
 20
300.8
 11
185.5
 21
297.8
  0
LINE
  8
0
 10
185.5
 20
297.8
 11
14
 21
297.8
  0
LINE
  8
0
 10
14
 20
297.8
 11
14
 21
300.8
  0
LINE
  8
0
 10
14
 20
300.8
 11
9
 21
300.8
  0
LINE
  8
0
 10
9
 20
300.8
 11
9
 21
297.8
  0
LINE
  8
0
 10
9
 20
297.8
 11
0
 21
297.8
  0
LINE
  8
0
 10
0
 20
297.8
 11
0
 21
280.9
  0
LINE
  8
0
 10
0
 20
280.9
 11
3
 21
280.9
  0
LINE
  8
0
 10
3
 20
280.9
 11
3
 21
289.35
  0
LINE
  8
0
 10
3
 20
289.35
 11
6
 21
289.35
  0
LINE
  8
0
 10
6
 20
289.35
 11
6
 21
280.9
  0
LINE
  8
0
 10
6
 20
280.9
 11
9
 21
280.9
  0
LINE
  8
0
 10
9
 20
280.9
 11
9
 21
279.4
  0
LINE
  8
0
 10
9
 20
279.4
 11
14
 21
279.4
  0
LINE
  8
0
 10
14
 20
279.4
 11
14
 21
280.9
  0
LINE
  8
0
 10
372
 20
256.5
 11
382
 21
256.5
  0
LINE
  8
0
 10
382
 20
256.5
 11
382
 21
266.8
  0
LINE
  8
0
 10
382
 20
266.8
 11
437
 21
266.8
  0
LINE
  8
0
 10
437
 20
266.8
 11
437
 21
256.5
  0
LINE
  8
0
 10
437
 20
256.5
 11
496
 21
256.5
  0
LINE
  8
0
 10
496
 20
256.5
 11
496
 21
255
  0
LINE
  8
0
 10
496
 20
255
 11
501
 21
255
  0
LINE
  8
0
 10
501
 20
255
 11
501
 21
256.5
  0
LINE
  8
0
 10
501
 20
256.5
 11
510
 21
256.5
  0
LINE
  8
0
 10
510
 20
256.5
 11
510
 21
273.4
  0
LINE
  8
0
 10
510
 20
273.4
 11
507
 21
273.4
  0
LINE
  8
0
 10
507
 20
273.4
 11
507
 21
264.95
  0
LINE
  8
0
 10
507
 20
264.95
 11
504
 21
264.95
  0
LINE
  8
0
 10
504
 20
264.95
 11
504
 21
273.4
  0
LINE
  8
0
 10
504
 20
273.4
 11
501
 21
273.4
  0
LINE
  8
0
 10
501
 20
273.4
 11
501
 21
276.4
  0
LINE
  8
0
 10
501
 20
276.4
 11
496
 21
276.4
  0
LINE
  8
0
 10
496
 20
276.4
 11
496
 21
273.4
  0
LINE
  8
0
 10
496
 20
273.4
 11
372
 21
273.4
  0
LINE
  8
0
 10
372
 20
273.4
 11
372
 21
276.4
  0
LINE
  8
0
 10
372
 20
276.4
 11
367
 21
276.4
  0
LINE
  8
0
 10
367
 20
276.4
 11
367
 21
273.4
  0
LINE
  8
0
 10
367
 20
273.4
 11
364
 21
273.4
  0
LINE
  8
0
 10
364
 20
273.4
 11
364
 21
264.95
  0
LINE
  8
0
 10
364
 20
264.95
 11
361
 21
264.95
  0
LINE
  8
0
 10
361
 20
264.95
 11
361
 21
273.4
  0
LINE
  8
0
 10
361
 20
273.4
 11
358
 21
273.4
  0
LINE
  8
0
 10
358
 20
273.4
 11
358
 21
256.5
  0
LINE
  8
0
 10
358
 20
256.5
 11
367
 21
256.5
  0
LINE
  8
0
 10
367
 20
256.5
 11
367
 21
255
  0
LINE
  8
0
 10
367
 20
255
 11
372
 21
255
  0
LINE
  8
0
 10
372
 20
255
 11
372
 21
256.5
  0
LINE
  8
0
 10
14
 20
256.5
 11
185.5
 21
256.5
  0
LINE
  8
0
 10
185.5
 20
256.5
 11
185.5
 21
255
  0
LINE
  8
0
 10
185.5
 20
255
 11
190.5
 21
255
  0
LINE
  8
0
 10
190.5
 20
255
 11
190.5
 21
256.5
  0
LINE
  8
0
 10
190.5
 20
256.5
 11
247.5
 21
256.5
  0
LINE
  8
0
 10
247.5
 20
256.5
 11
247.5
 21
255
  0
LINE
  8
0
 10
247.5
 20
255
 11
252.5
 21
255
  0
LINE
  8
0
 10
252.5
 20
255
 11
252.5
 21
256.5
  0
LINE
  8
0
 10
252.5
 20
256.5
 11
341
 21
256.5
  0
LINE
  8
0
 10
341
 20
256.5
 11
341
 21
255
  0
LINE
  8
0
 10
341
 20
255
 11
346
 21
255
  0
LINE
  8
0
 10
346
 20
255
 11
346
 21
256.5
  0
LINE
  8
0
 10
346
 20
256.5
 11
349
 21
256.5
  0
LINE
  8
0
 10
349
 20
256.5
 11
349
 21
264.95
  0
LINE
  8
0
 10
349
 20
264.95
 11
352
 21
264.95
  0
LINE
  8
0
 10
352
 20
264.95
 11
352
 21
256.5
  0
LINE
  8
0
 10
352
 20
256.5
 11
355
 21
256.5
  0
LINE
  8
0
 10
355
 20
256.5
 11
355
 21
273.4
  0
LINE
  8
0
 10
355
 20
273.4
 11
346
 21
273.4
  0
LINE
  8
0
 10
346
 20
273.4
 11
346
 21
276.4
  0
LINE
  8
0
 10
346
 20
276.4
 11
341
 21
276.4
  0
LINE
  8
0
 10
341
 20
276.4
 11
341
 21
273.4
  0
LINE
  8
0
 10
341
 20
273.4
 11
252.5
 21
273.4
  0
LINE
  8
0
 10
252.5
 20
273.4
 11
252.5
 21
276.4
  0
LINE
  8
0
 10
252.5
 20
276.4
 11
247.5
 21
276.4
  0
LINE
  8
0
 10
247.5
 20
276.4
 11
247.5
 21
273.4
  0
LINE
  8
0
 10
247.5
 20
273.4
 11
190.5
 21
273.4
  0
LINE
  8
0
 10
190.5
 20
273.4
 11
190.5
 21
276.4
  0
LINE
  8
0
 10
190.5
 20
276.4
 11
185.5
 21
276.4
  0
LINE
  8
0
 10
185.5
 20
276.4
 11
185.5
 21
273.4
  0
LINE
  8
0
 10
185.5
 20
273.4
 11
14
 21
273.4
  0
LINE
  8
0
 10
14
 20
273.4
 11
14
 21
276.4
  0
LINE
  8
0
 10
14
 20
276.4
 11
9
 21
276.4
  0
LINE
  8
0
 10
9
 20
276.4
 11
9
 21
273.4
  0
LINE
  8
0
 10
9
 20
273.4
 11
0
 21
273.4
  0
LINE
  8
0
 10
0
 20
273.4
 11
0
 21
256.5
  0
LINE
  8
0
 10
0
 20
256.5
 11
3
 21
256.5
  0
LINE
  8
0
 10
3
 20
256.5
 11
3
 21
264.95
  0
LINE
  8
0
 10
3
 20
264.95
 11
6
 21
264.95
  0
LINE
  8
0
 10
6
 20
264.95
 11
6
 21
256.5
  0
LINE
  8
0
 10
6
 20
256.5
 11
9
 21
256.5
  0
LINE
  8
0
 10
9
 20
256.5
 11
9
 21
255
  0
LINE
  8
0
 10
9
 20
255
 11
14
 21
255
  0
LINE
  8
0
 10
14
 20
255
 11
14
 21
256.5
  0
LINE
  8
0
 10
355
 20
252
 11
0
 21
252
  0
LINE
  8
0
 10
0
 20
252
 11
0
 21
0
  0
LINE
  8
0
 10
0
 20
0
 11
355
 21
0
  0
LINE
  8
0
 10
355
 20
0
 11
355
 21
252
  0
LINE
  8
0
 10
341
 20
146
 11
341
 21
149
  0
LINE
  8
0
 10
341
 20
149
 11
346
 21
149
  0
LINE
  8
0
 10
346
 20
149
 11
346
 21
146
  0
LINE
  8
0
 10
346
 20
146
 11
341
 21
146
  0
LINE
  8
0
 10
9
 20
146
 11
9
 21
149
  0
LINE
  8
0
 10
9
 20
149
 11
14
 21
149
  0
LINE
  8
0
 10
14
 20
149
 11
14
 21
146
  0
LINE
  8
0
 10
14
 20
146
 11
9
 21
146
  0
LINE
  8
0
 10
247.5
 20
146
 11
247.5
 21
149
  0
LINE
  8
0
 10
247.5
 20
149
 11
252.5
 21
149
  0
LINE
  8
0
 10
252.5
 20
149
 11
252.5
 21
146
  0
LINE
  8
0
 10
252.5
 20
146
 11
247.5
 21
146
  0
LINE
  8
0
 10
185.5
 20
146
 11
185.5
 21
149
  0
LINE
  8
0
 10
185.5
 20
149
 11
190.5
 21
149
  0
LINE
  8
0
 10
190.5
 20
149
 11
190.5
 21
146
  0
LINE
  8
0
 10
190.5
 20
146
 11
185.5
 21
146
  0
LINE
  8
0
 10
3
 20
138
 11
3
 21
143
  0
LINE
  8
0
 10
3
 20
143
 11
6
 21
143
  0
LINE
  8
0
 10
6
 20
143
 11
6
 21
138
  0
LINE
  8
0
 10
6
 20
138
 11
3
 21
138
  0
LINE
  8
0
 10
349
 20
138
 11
349
 21
143
  0
LINE
  8
0
 10
349
 20
143
 11
352
 21
143
  0
LINE
  8
0
 10
352
 20
143
 11
352
 21
138
  0
LINE
  8
0
 10
352
 20
138
 11
349
 21
138
  0
LINE
  8
0
 10
187.5
 20
140.634
 11
187.134
 21
141
  0
LINE
  8
0
 10
187.134
 20
141
 11
187
 21
141.5
  0
LINE
  8
0
 10
187
 20
141.5
 11
187.134
 21
142
  0
LINE
  8
0
 10
187.134
 20
142
 11
187.5
 21
142.366
  0
LINE
  8
0
 10
187.5
 20
142.366
 11
188
 21
142.5
  0
LINE
  8
0
 10
188
 20
142.5
 11
188.5
 21
142.366
  0
LINE
  8
0
 10
188.5
 20
142.366
 11
188.866
 21
142
  0
LINE
  8
0
 10
188.866
 20
142
 11
189
 21
141.5
  0
LINE
  8
0
 10
189
 20
141.5
 11
188.866
 21
141
  0
LINE
  8
0
 10
188.866
 20
141
 11
188.5
 21
140.634
  0
LINE
  8
0
 10
188.5
 20
140.634
 11
188
 21
140.5
  0
LINE
  8
0
 10
188
 20
140.5
 11
187.5
 21
140.634
  0
LINE
  8
0
 10
249.5
 20
140.634
 11
249.134
 21
141
  0
LINE
  8
0
 10
249.134
 20
141
 11
249
 21
141.5
  0
LINE
  8
0
 10
249
 20
141.5
 11
249.134
 21
142
  0
LINE
  8
0
 10
249.134
 20
142
 11
249.5
 21
142.366
  0
LINE
  8
0
 10
249.5
 20
142.366
 11
250
 21
142.5
  0
LINE
  8
0
 10
250
 20
142.5
 11
250.5
 21
142.366
  0
LINE
  8
0
 10
250.5
 20
142.366
 11
250.866
 21
142
  0
LINE
  8
0
 10
250.866
 20
142
 11
251
 21
141.5
  0
LINE
  8
0
 10
251
 20
141.5
 11
250.866
 21
141
  0
LINE
  8
0
 10
250.866
 20
141
 11
250.5
 21
140.634
  0
LINE
  8
0
 10
250.5
 20
140.634
 11
250
 21
140.5
  0
LINE
  8
0
 10
250
 20
140.5
 11
249.5
 21
140.634
  0
LINE
  8
0
 10
10
 20
140.634
 11
9.63397
 21
141
  0
LINE
  8
0
 10
9.63397
 20
141
 11
9.5
 21
141.5
  0
LINE
  8
0
 10
9.5
 20
141.5
 11
9.63397
 21
142
  0
LINE
  8
0
 10
9.63397
 20
142
 11
10
 21
142.366
  0
LINE
  8
0
 10
10
 20
142.366
 11
10.5
 21
142.5
  0
LINE
  8
0
 10
10.5
 20
142.5
 11
11
 21
142.366
  0
LINE
  8
0
 10
11
 20
142.366
 11
11.366
 21
142
  0
LINE
  8
0
 10
11.366
 20
142
 11
11.5
 21
141.5
  0
LINE
  8
0
 10
11.5
 20
141.5
 11
11.366
 21
141
  0
LINE
  8
0
 10
11.366
 20
141
 11
11
 21
140.634
  0
LINE
  8
0
 10
11
 20
140.634
 11
10.5
 21
140.5
  0
LINE
  8
0
 10
10.5
 20
140.5
 11
10
 21
140.634
  0
LINE
  8
0
 10
344
 20
140.634
 11
343.634
 21
141
  0
LINE
  8
0
 10
343.634
 20
141
 11
343.5
 21
141.5
  0
LINE
  8
0
 10
343.5
 20
141.5
 11
343.634
 21
142
  0
LINE
  8
0
 10
343.634
 20
142
 11
344
 21
142.366
  0
LINE
  8
0
 10
344
 20
142.366
 11
344.5
 21
142.5
  0
LINE
  8
0
 10
344.5
 20
142.5
 11
345
 21
142.366
  0
LINE
  8
0
 10
345
 20
142.366
 11
345.366
 21
142
  0
LINE
  8
0
 10
345.366
 20
142
 11
345.5
 21
141.5
  0
LINE
  8
0
 10
345.5
 20
141.5
 11
345.366
 21
141
  0
LINE
  8
0
 10
345.366
 20
141
 11
345
 21
140.634
  0
LINE
  8
0
 10
345
 20
140.634
 11
344.5
 21
140.5
  0
LINE
  8
0
 10
344.5
 20
140.5
 11
344
 21
140.634
  0
LINE
  8
0
 10
28.25
 20
108.134
 11
27.884
 21
108.5
  0
LINE
  8
0
 10
27.884
 20
108.5
 11
27.75
 21
109
  0
LINE
  8
0
 10
27.75
 20
109
 11
27.884
 21
109.5
  0
LINE
  8
0
 10
27.884
 20
109.5
 11
28.25
 21
109.866
  0
LINE
  8
0
 10
28.25
 20
109.866
 11
28.75
 21
110
  0
LINE
  8
0
 10
28.75
 20
110
 11
29.25
 21
109.866
  0
LINE
  8
0
 10
29.25
 20
109.866
 11
29.616
 21
109.5
  0
LINE
  8
0
 10
29.616
 20
109.5
 11
29.75
 21
109
  0
LINE
  8
0
 10
29.75
 20
109
 11
29.616
 21
108.5
  0
LINE
  8
0
 10
29.616
 20
108.5
 11
29.25
 21
108.134
  0
LINE
  8
0
 10
29.25
 20
108.134
 11
28.75
 21
108
  0
LINE
  8
0
 10
28.75
 20
108
 11
28.25
 21
108.134
  0
LINE
  8
0
 10
187.5
 20
90.134
 11
187.134
 21
90.5
  0
LINE
  8
0
 10
187.134
 20
90.5
 11
187
 21
91
  0
LINE
  8
0
 10
187
 20
91
 11
187.134
 21
91.5
  0
LINE
  8
0
 10
187.134
 20
91.5
 11
187.5
 21
91.866
  0
LINE
  8
0
 10
187.5
 20
91.866
 11
188
 21
92
  0
LINE
  8
0
 10
188
 20
92
 11
188.5
 21
91.866
  0
LINE
  8
0
 10
188.5
 20
91.866
 11
188.866
 21
91.5
  0
LINE
  8
0
 10
188.866
 20
91.5
 11
189
 21
91
  0
LINE
  8
0
 10
189
 20
91
 11
188.866
 21
90.5
  0
LINE
  8
0
 10
188.866
 20
90.5
 11
188.5
 21
90.134
  0
LINE
  8
0
 10
188.5
 20
90.134
 11
188
 21
90
  0
LINE
  8
0
 10
188
 20
90
 11
187.5
 21
90.134
  0
LINE
  8
0
 10
249.5
 20
90.134
 11
249.134
 21
90.5
  0
LINE
  8
0
 10
249.134
 20
90.5
 11
249
 21
91
  0
LINE
  8
0
 10
249
 20
91
 11
249.134
 21
91.5
  0
LINE
  8
0
 10
249.134
 20
91.5
 11
249.5
 21
91.866
  0
LINE
  8
0
 10
249.5
 20
91.866
 11
250
 21
92
  0
LINE
  8
0
 10
250
 20
92
 11
250.5
 21
91.866
  0
LINE
  8
0
 10
250.5
 20
91.866
 11
250.866
 21
91.5
  0
LINE
  8
0
 10
250.866
 20
91.5
 11
251
 21
91
  0
LINE
  8
0
 10
251
 20
91
 11
250.866
 21
90.5
  0
LINE
  8
0
 10
250.866
 20
90.5
 11
250.5
 21
90.134
  0
LINE
  8
0
 10
250.5
 20
90.134
 11
250
 21
90
  0
LINE
  8
0
 10
250
 20
90
 11
249.5
 21
90.134
  0
LINE
  8
0
 10
23.5
 20
51.134
 11
23.134
 21
51.5
  0
LINE
  8
0
 10
23.134
 20
51.5
 11
23
 21
52
  0
LINE
  8
0
 10
23
 20
52
 11
23.134
 21
52.5
  0
LINE
  8
0
 10
23.134
 20
52.5
 11
23.5
 21
52.866
  0
LINE
  8
0
 10
23.5
 20
52.866
 11
24
 21
53
  0
LINE
  8
0
 10
24
 20
53
 11
24.5
 21
52.866
  0
LINE
  8
0
 10
24.5
 20
52.866
 11
24.866
 21
52.5
  0
LINE
  8
0
 10
24.866
 20
52.5
 11
25
 21
52
  0
LINE
  8
0
 10
25
 20
52
 11
24.866
 21
51.5
  0
LINE
  8
0
 10
24.866
 20
51.5
 11
24.5
 21
51.134
  0
LINE
  8
0
 10
24.5
 20
51.134
 11
24
 21
51
  0
LINE
  8
0
 10
24
 20
51
 11
23.5
 21
51.134
  0
LINE
  8
0
 10
187.5
 20
37.134
 11
187.134
 21
37.5
  0
LINE
  8
0
 10
187.134
 20
37.5
 11
187
 21
38
  0
LINE
  8
0
 10
187
 20
38
 11
187.134
 21
38.5
  0
LINE
  8
0
 10
187.134
 20
38.5
 11
187.5
 21
38.866
  0
LINE
  8
0
 10
187.5
 20
38.866
 11
188
 21
39
  0
LINE
  8
0
 10
188
 20
39
 11
188.5
 21
38.866
  0
LINE
  8
0
 10
188.5
 20
38.866
 11
188.866
 21
38.5
  0
LINE
  8
0
 10
188.866
 20
38.5
 11
189
 21
38
  0
LINE
  8
0
 10
189
 20
38
 11
188.866
 21
37.5
  0
LINE
  8
0
 10
188.866
 20
37.5
 11
188.5
 21
37.134
  0
LINE
  8
0
 10
188.5
 20
37.134
 11
188
 21
37
  0
LINE
  8
0
 10
188
 20
37
 11
187.5
 21
37.134
  0
LINE
  8
0
 10
249.5
 20
37.134
 11
249.134
 21
37.5
  0
LINE
  8
0
 10
249.134
 20
37.5
 11
249
 21
38
  0
LINE
  8
0
 10
249
 20
38
 11
249.134
 21
38.5
  0
LINE
  8
0
 10
249.134
 20
38.5
 11
249.5
 21
38.866
  0
LINE
  8
0
 10
249.5
 20
38.866
 11
250
 21
39
  0
LINE
  8
0
 10
250
 20
39
 11
250.5
 21
38.866
  0
LINE
  8
0
 10
250.5
 20
38.866
 11
250.866
 21
38.5
  0
LINE
  8
0
 10
250.866
 20
38.5
 11
251
 21
38
  0
LINE
  8
0
 10
251
 20
38
 11
250.866
 21
37.5
  0
LINE
  8
0
 10
250.866
 20
37.5
 11
250.5
 21
37.134
  0
LINE
  8
0
 10
250.5
 20
37.134
 11
250
 21
37
  0
LINE
  8
0
 10
250
 20
37
 11
249.5
 21
37.134
  0
LINE
  8
0
 10
42.5
 20
23.134
 11
42.134
 21
23.5
  0
LINE
  8
0
 10
42.134
 20
23.5
 11
42
 21
24
  0
LINE
  8
0
 10
42
 20
24
 11
42.134
 21
24.5
  0
LINE
  8
0
 10
42.134
 20
24.5
 11
42.5
 21
24.866
  0
LINE
  8
0
 10
42.5
 20
24.866
 11
43
 21
25
  0
LINE
  8
0
 10
43
 20
25
 11
43.5
 21
24.866
  0
LINE
  8
0
 10
43.5
 20
24.866
 11
43.866
 21
24.5
  0
LINE
  8
0
 10
43.866
 20
24.5
 11
44
 21
24
  0
LINE
  8
0
 10
44
 20
24
 11
43.866
 21
23.5
  0
LINE
  8
0
 10
43.866
 20
23.5
 11
43.5
 21
23.134
  0
LINE
  8
0
 10
43.5
 20
23.134
 11
43
 21
23
  0
LINE
  8
0
 10
43
 20
23
 11
42.5
 21
23.134
  0
LINE
  8
0
 10
349
 20
9
 11
349
 21
14
  0
LINE
  8
0
 10
349
 20
14
 11
352
 21
14
  0
LINE
  8
0
 10
352
 20
14
 11
352
 21
9
  0
LINE
  8
0
 10
352
 20
9
 11
349
 21
9
  0
LINE
  8
0
 10
3
 20
9
 11
3
 21
14
  0
LINE
  8
0
 10
3
 20
14
 11
6
 21
14
  0
LINE
  8
0
 10
6
 20
14
 11
6
 21
9
  0
LINE
  8
0
 10
6
 20
9
 11
3
 21
9
  0
LINE
  8
0
 10
10
 20
9.63397
 11
9.63397
 21
10
  0
LINE
  8
0
 10
9.63397
 20
10
 11
9.5
 21
10.5
  0
LINE
  8
0
 10
9.5
 20
10.5
 11
9.63397
 21
11
  0
LINE
  8
0
 10
9.63397
 20
11
 11
10
 21
11.366
  0
LINE
  8
0
 10
10
 20
11.366
 11
10.5
 21
11.5
  0
LINE
  8
0
 10
10.5
 20
11.5
 11
11
 21
11.366
  0
LINE
  8
0
 10
11
 20
11.366
 11
11.366
 21
11
  0
LINE
  8
0
 10
11.366
 20
11
 11
11.5
 21
10.5
  0
LINE
  8
0
 10
11.5
 20
10.5
 11
11.366
 21
10
  0
LINE
  8
0
 10
11.366
 20
10
 11
11
 21
9.63397
  0
LINE
  8
0
 10
11
 20
9.63397
 11
10.5
 21
9.5
  0
LINE
  8
0
 10
10.5
 20
9.5
 11
10
 21
9.63397
  0
LINE
  8
0
 10
187.5
 20
9.63397
 11
187.134
 21
10
  0
LINE
  8
0
 10
187.134
 20
10
 11
187
 21
10.5
  0
LINE
  8
0
 10
187
 20
10.5
 11
187.134
 21
11
  0
LINE
  8
0
 10
187.134
 20
11
 11
187.5
 21
11.366
  0
LINE
  8
0
 10
187.5
 20
11.366
 11
188
 21
11.5
  0
LINE
  8
0
 10
188
 20
11.5
 11
188.5
 21
11.366
  0
LINE
  8
0
 10
188.5
 20
11.366
 11
188.866
 21
11
  0
LINE
  8
0
 10
188.866
 20
11
 11
189
 21
10.5
  0
LINE
  8
0
 10
189
 20
10.5
 11
188.866
 21
10
  0
LINE
  8
0
 10
188.866
 20
10
 11
188.5
 21
9.63397
  0
LINE
  8
0
 10
188.5
 20
9.63397
 11
188
 21
9.5
  0
LINE
  8
0
 10
188
 20
9.5
 11
187.5
 21
9.63397
  0
LINE
  8
0
 10
249.5
 20
9.63397
 11
249.134
 21
10
  0
LINE
  8
0
 10
249.134
 20
10
 11
249
 21
10.5
  0
LINE
  8
0
 10
249
 20
10.5
 11
249.134
 21
11
  0
LINE
  8
0
 10
249.134
 20
11
 11
249.5
 21
11.366
  0
LINE
  8
0
 10
249.5
 20
11.366
 11
250
 21
11.5
  0
LINE
  8
0
 10
250
 20
11.5
 11
250.5
 21
11.366
  0
LINE
  8
0
 10
250.5
 20
11.366
 11
250.866
 21
11
  0
LINE
  8
0
 10
250.866
 20
11
 11
251
 21
10.5
  0
LINE
  8
0
 10
251
 20
10.5
 11
250.866
 21
10
  0
LINE
  8
0
 10
250.866
 20
10
 11
250.5
 21
9.63397
  0
LINE
  8
0
 10
250.5
 20
9.63397
 11
250
 21
9.5
  0
LINE
  8
0
 10
250
 20
9.5
 11
249.5
 21
9.63397
  0
LINE
  8
0
 10
344
 20
9.63397
 11
343.634
 21
10
  0
LINE
  8
0
 10
343.634
 20
10
 11
343.5
 21
10.5
  0
LINE
  8
0
 10
343.5
 20
10.5
 11
343.634
 21
11
  0
LINE
  8
0
 10
343.634
 20
11
 11
344
 21
11.366
  0
LINE
  8
0
 10
344
 20
11.366
 11
344.5
 21
11.5
  0
LINE
  8
0
 10
344.5
 20
11.5
 11
345
 21
11.366
  0
LINE
  8
0
 10
345
 20
11.366
 11
345.366
 21
11
  0
LINE
  8
0
 10
345.366
 20
11
 11
345.5
 21
10.5
  0
LINE
  8
0
 10
345.5
 20
10.5
 11
345.366
 21
10
  0
LINE
  8
0
 10
345.366
 20
10
 11
345
 21
9.63397
  0
LINE
  8
0
 10
345
 20
9.63397
 11
344.5
 21
9.5
  0
LINE
  8
0
 10
344.5
 20
9.5
 11
344
 21
9.63397
  0
LINE
  8
0
 10
185.5
 20
3
 11
185.5
 21
6
  0
LINE
  8
0
 10
185.5
 20
6
 11
190.5
 21
6
  0
LINE
  8
0
 10
190.5
 20
6
 11
190.5
 21
3
  0
LINE
  8
0
 10
190.5
 20
3
 11
185.5
 21
3
  0
LINE
  8
0
 10
9
 20
3
 11
9
 21
6
  0
LINE
  8
0
 10
9
 20
6
 11
14
 21
6
  0
LINE
  8
0
 10
14
 20
6
 11
14
 21
3
  0
LINE
  8
0
 10
14
 20
3
 11
9
 21
3
  0
LINE
  8
0
 10
341
 20
3
 11
341
 21
6
  0
LINE
  8
0
 10
341
 20
6
 11
346
 21
6
  0
LINE
  8
0
 10
346
 20
6
 11
346
 21
3
  0
LINE
  8
0
 10
346
 20
3
 11
341
 21
3
  0
LINE
  8
0
 10
247.5
 20
3
 11
247.5
 21
6
  0
LINE
  8
0
 10
247.5
 20
6
 11
252.5
 21
6
  0
LINE
  8
0
 10
252.5
 20
6
 11
252.5
 21
3
  0
LINE
  8
0
 10
252.5
 20
3
 11
247.5
 21
3
  0
LINE
  8
0
 10
541.5
 20
252
 11
358
 21
252
  0
LINE
  8
0
 10
358
 20
252
 11
358
 21
0
  0
LINE
  8
0
 10
358
 20
0
 11
541.5
 21
0
  0
LINE
  8
0
 10
541.5
 20
0
 11
541.5
 21
252
  0
LINE
  8
0
 10
527.5
 20
146
 11
527.5
 21
149
  0
LINE
  8
0
 10
527.5
 20
149
 11
532.5
 21
149
  0
LINE
  8
0
 10
532.5
 20
149
 11
532.5
 21
146
  0
LINE
  8
0
 10
532.5
 20
146
 11
527.5
 21
146
  0
LINE
  8
0
 10
367
 20
146
 11
367
 21
149
  0
LINE
  8
0
 10
367
 20
149
 11
372
 21
149
  0
LINE
  8
0
 10
372
 20
149
 11
372
 21
146
  0
LINE
  8
0
 10
372
 20
146
 11
367
 21
146
  0
LINE
  8
0
 10
361
 20
138
 11
361
 21
143
  0
LINE
  8
0
 10
361
 20
143
 11
364
 21
143
  0
LINE
  8
0
 10
364
 20
143
 11
364
 21
138
  0
LINE
  8
0
 10
364
 20
138
 11
361
 21
138
  0
LINE
  8
0
 10
535.5
 20
138
 11
535.5
 21
143
  0
LINE
  8
0
 10
535.5
 20
143
 11
538.5
 21
143
  0
LINE
  8
0
 10
538.5
 20
143
 11
538.5
 21
138
  0
LINE
  8
0
 10
538.5
 20
138
 11
535.5
 21
138
  0
LINE
  8
0
 10
530.5
 20
140.634
 11
530.134
 21
141
  0
LINE
  8
0
 10
530.134
 20
141
 11
530
 21
141.5
  0
LINE
  8
0
 10
530
 20
141.5
 11
530.134
 21
142
  0
LINE
  8
0
 10
530.134
 20
142
 11
530.5
 21
142.366
  0
LINE
  8
0
 10
530.5
 20
142.366
 11
531
 21
142.5
  0
LINE
  8
0
 10
531
 20
142.5
 11
531.5
 21
142.366
  0
LINE
  8
0
 10
531.5
 20
142.366
 11
531.866
 21
142
  0
LINE
  8
0
 10
531.866
 20
142
 11
532
 21
141.5
  0
LINE
  8
0
 10
532
 20
141.5
 11
531.866
 21
141
  0
LINE
  8
0
 10
531.866
 20
141
 11
531.5
 21
140.634
  0
LINE
  8
0
 10
531.5
 20
140.634
 11
531
 21
140.5
  0
LINE
  8
0
 10
531
 20
140.5
 11
530.5
 21
140.634
  0
LINE
  8
0
 10
368
 20
140.634
 11
367.634
 21
141
  0
LINE
  8
0
 10
367.634
 20
141
 11
367.5
 21
141.5
  0
LINE
  8
0
 10
367.5
 20
141.5
 11
367.634
 21
142
  0
LINE
  8
0
 10
367.634
 20
142
 11
368
 21
142.366
  0
LINE
  8
0
 10
368
 20
142.366
 11
368.5
 21
142.5
  0
LINE
  8
0
 10
368.5
 20
142.5
 11
369
 21
142.366
  0
LINE
  8
0
 10
369
 20
142.366
 11
369.366
 21
142
  0
LINE
  8
0
 10
369.366
 20
142
 11
369.5
 21
141.5
  0
LINE
  8
0
 10
369.5
 20
141.5
 11
369.366
 21
141
  0
LINE
  8
0
 10
369.366
 20
141
 11
369
 21
140.634
  0
LINE
  8
0
 10
369
 20
140.634
 11
368.5
 21
140.5
  0
LINE
  8
0
 10
368.5
 20
140.5
 11
368
 21
140.634
  0
LINE
  8
0
 10
400.625
 20
89.134
 11
400.259
 21
89.5
  0
LINE
  8
0
 10
400.259
 20
89.5
 11
400.125
 21
90
  0
LINE
  8
0
 10
400.125
 20
90
 11
400.259
 21
90.5
  0
LINE
  8
0
 10
400.259
 20
90.5
 11
400.625
 21
90.866
  0
LINE
  8
0
 10
400.625
 20
90.866
 11
401.125
 21
91
  0
LINE
  8
0
 10
401.125
 20
91
 11
401.625
 21
90.866
  0
LINE
  8
0
 10
401.625
 20
90.866
 11
401.991
 21
90.5
  0
LINE
  8
0
 10
401.991
 20
90.5
 11
402.125
 21
90
  0
LINE
  8
0
 10
402.125
 20
90
 11
401.991
 21
89.5
  0
LINE
  8
0
 10
401.991
 20
89.5
 11
401.625
 21
89.134
  0
LINE
  8
0
 10
401.625
 20
89.134
 11
401.125
 21
89
  0
LINE
  8
0
 10
401.125
 20
89
 11
400.625
 21
89.134
  0
LINE
  8
0
 10
517
 20
70.134
 11
516.634
 21
70.5
  0
LINE
  8
0
 10
516.634
 20
70.5
 11
516.5
 21
71
  0
LINE
  8
0
 10
516.5
 20
71
 11
516.634
 21
71.5
  0
LINE
  8
0
 10
516.634
 20
71.5
 11
517
 21
71.866
  0
LINE
  8
0
 10
517
 20
71.866
 11
517.5
 21
72
  0
LINE
  8
0
 10
517.5
 20
72
 11
518
 21
71.866
  0
LINE
  8
0
 10
518
 20
71.866
 11
518.366
 21
71.5
  0
LINE
  8
0
 10
518.366
 20
71.5
 11
518.5
 21
71
  0
LINE
  8
0
 10
518.5
 20
71
 11
518.366
 21
70.5
  0
LINE
  8
0
 10
518.366
 20
70.5
 11
518
 21
70.134
  0
LINE
  8
0
 10
518
 20
70.134
 11
517.5
 21
70
  0
LINE
  8
0
 10
517.5
 20
70
 11
517
 21
70.134
  0
LINE
  8
0
 10
412.5
 20
23.134
 11
412.134
 21
23.5
  0
LINE
  8
0
 10
412.134
 20
23.5
 11
412
 21
24
  0
LINE
  8
0
 10
412
 20
24
 11
412.134
 21
24.5
  0
LINE
  8
0
 10
412.134
 20
24.5
 11
412.5
 21
24.866
  0
LINE
  8
0
 10
412.5
 20
24.866
 11
413
 21
25
  0
LINE
  8
0
 10
413
 20
25
 11
413.5
 21
24.866
  0
LINE
  8
0
 10
413.5
 20
24.866
 11
413.866
 21
24.5
  0
LINE
  8
0
 10
413.866
 20
24.5
 11
414
 21
24
  0
LINE
  8
0
 10
414
 20
24
 11
413.866
 21
23.5
  0
LINE
  8
0
 10
413.866
 20
23.5
 11
413.5
 21
23.134
  0
LINE
  8
0
 10
413.5
 20
23.134
 11
413
 21
23
  0
LINE
  8
0
 10
413
 20
23
 11
412.5
 21
23.134
  0
LINE
  8
0
 10
361
 20
9
 11
361
 21
14
  0
LINE
  8
0
 10
361
 20
14
 11
364
 21
14
  0
LINE
  8
0
 10
364
 20
14
 11
364
 21
9
  0
LINE
  8
0
 10
364
 20
9
 11
361
 21
9
  0
LINE
  8
0
 10
535.5
 20
9
 11
535.5
 21
14
  0
LINE
  8
0
 10
535.5
 20
14
 11
538.5
 21
14
  0
LINE
  8
0
 10
538.5
 20
14
 11
538.5
 21
9
  0
LINE
  8
0
 10
538.5
 20
9
 11
535.5
 21
9
  0
LINE
  8
0
 10
530.5
 20
9.63397
 11
530.134
 21
10
  0
LINE
  8
0
 10
530.134
 20
10
 11
530
 21
10.5
  0
LINE
  8
0
 10
530
 20
10.5
 11
530.134
 21
11
  0
LINE
  8
0
 10
530.134
 20
11
 11
530.5
 21
11.366
  0
LINE
  8
0
 10
530.5
 20
11.366
 11
531
 21
11.5
  0
LINE
  8
0
 10
531
 20
11.5
 11
531.5
 21
11.366
  0
LINE
  8
0
 10
531.5
 20
11.366
 11
531.866
 21
11
  0
LINE
  8
0
 10
531.866
 20
11
 11
532
 21
10.5
  0
LINE
  8
0
 10
532
 20
10.5
 11
531.866
 21
10
  0
LINE
  8
0
 10
531.866
 20
10
 11
531.5
 21
9.63397
  0
LINE
  8
0
 10
531.5
 20
9.63397
 11
531
 21
9.5
  0
LINE
  8
0
 10
531
 20
9.5
 11
530.5
 21
9.63397
  0
LINE
  8
0
 10
368
 20
9.63397
 11
367.634
 21
10
  0
LINE
  8
0
 10
367.634
 20
10
 11
367.5
 21
10.5
  0
LINE
  8
0
 10
367.5
 20
10.5
 11
367.634
 21
11
  0
LINE
  8
0
 10
367.634
 20
11
 11
368
 21
11.366
  0
LINE
  8
0
 10
368
 20
11.366
 11
368.5
 21
11.5
  0
LINE
  8
0
 10
368.5
 20
11.5
 11
369
 21
11.366
  0
LINE
  8
0
 10
369
 20
11.366
 11
369.366
 21
11
  0
LINE
  8
0
 10
369.366
 20
11
 11
369.5
 21
10.5
  0
LINE
  8
0
 10
369.5
 20
10.5
 11
369.366
 21
10
  0
LINE
  8
0
 10
369.366
 20
10
 11
369
 21
9.63397
  0
LINE
  8
0
 10
369
 20
9.63397
 11
368.5
 21
9.5
  0
LINE
  8
0
 10
368.5
 20
9.5
 11
368
 21
9.63397
  0
LINE
  8
0
 10
527.5
 20
3
 11
527.5
 21
6
  0
LINE
  8
0
 10
527.5
 20
6
 11
532.5
 21
6
  0
LINE
  8
0
 10
532.5
 20
6
 11
532.5
 21
3
  0
LINE
  8
0
 10
532.5
 20
3
 11
527.5
 21
3
  0
LINE
  8
0
 10
367
 20
3
 11
367
 21
6
  0
LINE
  8
0
 10
367
 20
6
 11
372
 21
6
  0
LINE
  8
0
 10
372
 20
6
 11
372
 21
3
  0
LINE
  8
0
 10
372
 20
3
 11
367
 21
3
  0
ENDSEC
  0
SECTION
  2
OBJECTS
  0
DICTIONARY
  0
ENDSEC
  0
EOF
