  0
SECTION
  2
BLOCKS
  0
ENDSEC
  0
SECTION
  2
ENTITIES
  0
LINE
  8
0
 10
80
 20
0.0219116
 11
80.4181
 21
0.0219116
  0
LINE
  8
0
 10
80.4181
 20
0.0219116
 11
81.2361
 21
0.19577
  0
LINE
  8
0
 10
81.2361
 20
0.19577
 11
82
 21
0.535889
  0
LINE
  8
0
 10
82
 20
0.535889
 11
82.6765
 21
1.02742
  0
LINE
  8
0
 10
82.6765
 20
1.02742
 11
83.2361
 21
1.64885
  0
LINE
  8
0
 10
83.2361
 20
1.64885
 11
83.6542
 21
2.37305
  0
LINE
  8
0
 10
83.6542
 20
2.37305
 11
83.9126
 21
3.16835
  0
LINE
  8
0
 10
83.9126
 20
3.16835
 11
84
 21
4
  0
LINE
  8
0
 10
84
 20
4
 11
118
 21
4
  0
LINE
  8
0
 10
118
 20
4
 11
118
 21
4.02191
  0
LINE
  8
0
 10
118
 20
4.02191
 11
118.418
 21
4.02191
  0
LINE
  8
0
 10
118.418
 20
4.02191
 11
119.236
 21
4.19577
  0
LINE
  8
0
 10
119.236
 20
4.19577
 11
120
 21
4.53589
  0
LINE
  8
0
 10
120
 20
4.53589
 11
120.677
 21
5.02742
  0
LINE
  8
0
 10
120.677
 20
5.02742
 11
121.236
 21
5.64885
  0
LINE
  8
0
 10
121.236
 20
5.64885
 11
121.654
 21
6.37305
  0
LINE
  8
0
 10
121.654
 20
6.37305
 11
121.913
 21
7.16835
  0
LINE
  8
0
 10
121.913
 20
7.16835
 11
122
 21
8
  0
LINE
  8
0
 10
122
 20
8
 11
122
 21
44.7773
  0
LINE
  8
0
 10
122
 20
44.7773
 11
122.033
 21
45.0892
  0
LINE
  8
0
 10
122.033
 20
45.0892
 11
122.13
 21
45.3874
  0
LINE
  8
0
 10
122.13
 20
45.3874
 11
122.286
 21
45.659
  0
LINE
  8
0
 10
122.286
 20
45.659
 11
122.496
 21
45.892
  0
LINE
  8
0
 10
122.496
 20
45.892
 11
122.75
 21
46.0763
  0
LINE
  8
0
 10
122.75
 20
46.0763
 11
123.036
 21
46.2039
  0
LINE
  8
0
 10
123.036
 20
46.2039
 11
123.343
 21
46.2691
  0
LINE
  8
0
 10
123.343
 20
46.2691
 11
123.5
 21
46.2691
  0
LINE
  8
0
 10
123.5
 20
46.2691
 11
123.5
 21
46.3074
  0
LINE
  8
0
 10
123.5
 20
46.3074
 11
124.075
 21
46.3074
  0
LINE
  8
0
 10
124.075
 20
46.3074
 11
125.2
 21
46.5465
  0
LINE
  8
0
 10
125.2
 20
46.5465
 11
126.25
 21
47.0141
  0
LINE
  8
0
 10
126.25
 20
47.0141
 11
127.18
 21
47.69
  0
LINE
  8
0
 10
127.18
 20
47.69
 11
127.95
 21
48.5445
  0
LINE
  8
0
 10
127.95
 20
48.5445
 11
128.525
 21
49.5402
  0
LINE
  8
0
 10
128.525
 20
49.5402
 11
128.88
 21
50.6338
  0
LINE
  8
0
 10
128.88
 20
50.6338
 11
129
 21
51.7773
  0
LINE
  8
0
 10
129
 20
51.7773
 11
128.88
 21
52.9208
  0
LINE
  8
0
 10
128.88
 20
52.9208
 11
128.826
 21
53.0855
  0
LINE
  8
0
 10
128.826
 20
53.0855
 11
128.845
 21
53.0902
  0
LINE
  8
0
 10
128.845
 20
53.0902
 11
128.831
 21
53.1351
  0
LINE
  8
0
 10
128.831
 20
53.1351
 11
128.798
 21
53.447
  0
LINE
  8
0
 10
128.798
 20
53.447
 11
128.831
 21
53.7588
  0
LINE
  8
0
 10
128.831
 20
53.7588
 11
128.928
 21
54.0571
  0
LINE
  8
0
 10
128.928
 20
54.0571
 11
129.084
 21
54.3286
  0
LINE
  8
0
 10
129.084
 20
54.3286
 11
129.294
 21
54.5617
  0
LINE
  8
0
 10
129.294
 20
54.5617
 11
129.548
 21
54.746
  0
LINE
  8
0
 10
129.548
 20
54.746
 11
129.789
 21
54.8533
  0
LINE
  8
0
 10
129.789
 20
54.8533
 11
129.786
 21
54.8658
  0
LINE
  8
0
 10
129.786
 20
54.8658
 11
157.921
 21
61.7762
  0
LINE
  8
0
 10
157.921
 20
61.7762
 11
157.916
 21
61.7956
  0
LINE
  8
0
 10
157.916
 20
61.7956
 11
158.203
 21
61.8565
  0
LINE
  8
0
 10
158.203
 20
61.8565
 11
158.967
 21
62.1967
  0
LINE
  8
0
 10
158.967
 20
62.1967
 11
159.644
 21
62.6882
  0
LINE
  8
0
 10
159.644
 20
62.6882
 11
160.203
 21
63.3096
  0
LINE
  8
0
 10
160.203
 20
63.3096
 11
160.621
 21
64.0338
  0
LINE
  8
0
 10
160.621
 20
64.0338
 11
160.88
 21
64.8291
  0
LINE
  8
0
 10
160.88
 20
64.8291
 11
160.967
 21
65.6608
  0
LINE
  8
0
 10
160.967
 20
65.6608
 11
160.88
 21
66.4924
  0
LINE
  8
0
 10
160.88
 20
66.4924
 11
160.841
 21
66.6122
  0
LINE
  8
0
 10
160.841
 20
66.6122
 11
160.852
 21
66.6149
  0
LINE
  8
0
 10
160.852
 20
66.6149
 11
151.788
 21
103.518
  0
LINE
  8
0
 10
151.788
 20
103.518
 11
151.775
 21
103.515
  0
LINE
  8
0
 10
151.775
 20
103.515
 11
151.524
 21
104.287
  0
LINE
  8
0
 10
151.524
 20
104.287
 11
151.046
 21
105.115
  0
LINE
  8
0
 10
151.046
 20
105.115
 11
150.407
 21
105.825
  0
LINE
  8
0
 10
150.407
 20
105.825
 11
149.633
 21
106.387
  0
LINE
  8
0
 10
149.633
 20
106.387
 11
148.76
 21
106.776
  0
LINE
  8
0
 10
148.76
 20
106.776
 11
147.825
 21
106.975
  0
LINE
  8
0
 10
147.825
 20
106.975
 11
147.347
 21
106.975
  0
LINE
  8
0
 10
147.347
 20
106.975
 11
147.347
 21
107
  0
LINE
  8
0
 10
147.347
 20
107
 11
111
 21
107
  0
LINE
  8
0
 10
111
 20
107
 11
111
 21
207
  0
LINE
  8
0
 10
111
 20
207
 11
0
 21
207
  0
LINE
  8
0
 10
0
 20
207
 11
0
 21
101.5
  0
LINE
  8
0
 10
0
 20
101.5
 11
0.120178
 21
100.356
  0
LINE
  8
0
 10
0.120178
 20
100.356
 11
0.475494
 21
99.2629
  0
LINE
  8
0
 10
0.475494
 20
99.2629
 11
1.0504
 21
98.2672
  0
LINE
  8
0
 10
1.0504
 20
98.2672
 11
1.81978
 21
97.4127
  0
LINE
  8
0
 10
1.81978
 20
97.4127
 11
2.75
 21
96.7369
  0
LINE
  8
0
 10
2.75
 20
96.7369
 11
3.8004
 21
96.2692
  0
LINE
  8
0
 10
3.8004
 20
96.2692
 11
4.92508
 21
96.0301
  0
LINE
  8
0
 10
4.92508
 20
96.0301
 11
5.5
 21
96.0301
  0
LINE
  8
0
 10
5.5
 20
96.0301
 11
5.5
 21
96
  0
LINE
  8
0
 10
5.5
 20
96
 11
42
 21
96
  0
LINE
  8
0
 10
42
 20
96
 11
42
 21
77
  0
LINE
  8
0
 10
42
 20
77
 11
41.9921
 21
76.7488
  0
LINE
  8
0
 10
41.9921
 20
76.7488
 11
41.9685
 21
76.4987
  0
LINE
  8
0
 10
41.9685
 20
76.4987
 11
41.9291
 21
76.2505
  0
LINE
  8
0
 10
41.9291
 20
76.2505
 11
41.8743
 21
76.0052
  0
LINE
  8
0
 10
41.8743
 20
76.0052
 11
41.8042
 21
75.7639
  0
LINE
  8
0
 10
41.8042
 20
75.7639
 11
41.7191
 21
75.5275
  0
LINE
  8
0
 10
41.7191
 20
75.5275
 11
41.6193
 21
75.2969
  0
LINE
  8
0
 10
41.6193
 20
75.2969
 11
41.5052
 21
75.073
  0
LINE
  8
0
 10
41.5052
 20
75.073
 11
41.3773
 21
74.8567
  0
LINE
  8
0
 10
41.3773
 20
74.8567
 11
41.2361
 21
74.6488
  0
LINE
  8
0
 10
41.2361
 20
74.6488
 11
41.082
 21
74.4503
  0
LINE
  8
0
 10
41.082
 20
74.4503
 11
40.9159
 21
74.2618
  0
LINE
  8
0
 10
40.9159
 20
74.2618
 11
40.7382
 21
74.0841
  0
LINE
  8
0
 10
40.7382
 20
74.0841
 11
40.5497
 21
73.9179
  0
LINE
  8
0
 10
40.5497
 20
73.9179
 11
40.3511
 21
73.7639
  0
LINE
  8
0
 10
40.3511
 20
73.7639
 11
40.1433
 21
73.6227
  0
LINE
  8
0
 10
40.1433
 20
73.6227
 11
39.927
 21
73.4948
  0
LINE
  8
0
 10
39.927
 20
73.4948
 11
39.7031
 21
73.3807
  0
LINE
  8
0
 10
39.7031
 20
73.3807
 11
39.4725
 21
73.2809
  0
LINE
  8
0
 10
39.4725
 20
73.2809
 11
39.2361
 21
73.1958
  0
LINE
  8
0
 10
39.2361
 20
73.1958
 11
38.9948
 21
73.1257
  0
LINE
  8
0
 10
38.9948
 20
73.1257
 11
38.7495
 21
73.0708
  0
LINE
  8
0
 10
38.7495
 20
73.0708
 11
38.5013
 21
73.0315
  0
LINE
  8
0
 10
38.5013
 20
73.0315
 11
38.2512
 21
73.0079
  0
LINE
  8
0
 10
38.2512
 20
73.0079
 11
38
 21
73
  0
LINE
  8
0
 10
38
 20
73
 11
23
 21
73
  0
LINE
  8
0
 10
23
 20
73
 11
23
 21
72.9781
  0
LINE
  8
0
 10
23
 20
72.9781
 11
22.5819
 21
72.9781
  0
LINE
  8
0
 10
22.5819
 20
72.9781
 11
21.7639
 21
72.8042
  0
LINE
  8
0
 10
21.7639
 20
72.8042
 11
21
 21
72.4641
  0
LINE
  8
0
 10
21
 20
72.4641
 11
20.3235
 21
71.9726
  0
LINE
  8
0
 10
20.3235
 20
71.9726
 11
19.7639
 21
71.3511
  0
LINE
  8
0
 10
19.7639
 20
71.3511
 11
19.3458
 21
70.6269
  0
LINE
  8
0
 10
19.3458
 20
70.6269
 11
19.0874
 21
69.8316
  0
LINE
  8
0
 10
19.0874
 20
69.8316
 11
19
 21
69
  0
LINE
  8
0
 10
19
 20
69
 11
19
 21
67.5
  0
LINE
  8
0
 10
19
 20
67.5
 11
18.9921
 21
67.2488
  0
LINE
  8
0
 10
18.9921
 20
67.2488
 11
18.9684
 21
66.9987
  0
LINE
  8
0
 10
18.9684
 20
66.9987
 11
18.9291
 21
66.7505
  0
LINE
  8
0
 10
18.9291
 20
66.7505
 11
18.8743
 21
66.5052
  0
LINE
  8
0
 10
18.8743
 20
66.5052
 11
18.8042
 21
66.2639
  0
LINE
  8
0
 10
18.8042
 20
66.2639
 11
18.7191
 21
66.0275
  0
LINE
  8
0
 10
18.7191
 20
66.0275
 11
18.6193
 21
65.7969
  0
LINE
  8
0
 10
18.6193
 20
65.7969
 11
18.5052
 21
65.573
  0
LINE
  8
0
 10
18.5052
 20
65.573
 11
18.3773
 21
65.3567
  0
LINE
  8
0
 10
18.3773
 20
65.3567
 11
18.2361
 21
65.1488
  0
LINE
  8
0
 10
18.2361
 20
65.1488
 11
18.082
 21
64.9503
  0
LINE
  8
0
 10
18.082
 20
64.9503
 11
17.9159
 21
64.7618
  0
LINE
  8
0
 10
17.9159
 20
64.7618
 11
17.7382
 21
64.5841
  0
LINE
  8
0
 10
17.7382
 20
64.5841
 11
17.5497
 21
64.4179
  0
LINE
  8
0
 10
17.5497
 20
64.4179
 11
17.3511
 21
64.2639
  0
LINE
  8
0
 10
17.3511
 20
64.2639
 11
17.1433
 21
64.1227
  0
LINE
  8
0
 10
17.1433
 20
64.1227
 11
16.927
 21
63.9948
  0
LINE
  8
0
 10
16.927
 20
63.9948
 11
16.7031
 21
63.8807
  0
LINE
  8
0
 10
16.7031
 20
63.8807
 11
16.4725
 21
63.7809
  0
LINE
  8
0
 10
16.4725
 20
63.7809
 11
16.2361
 21
63.6958
  0
LINE
  8
0
 10
16.2361
 20
63.6958
 11
15.9948
 21
63.6257
  0
LINE
  8
0
 10
15.9948
 20
63.6257
 11
15.7495
 21
63.5708
  0
LINE
  8
0
 10
15.7495
 20
63.5708
 11
15.5013
 21
63.5315
  0
LINE
  8
0
 10
15.5013
 20
63.5315
 11
15.2512
 21
63.5079
  0
LINE
  8
0
 10
15.2512
 20
63.5079
 11
15
 21
63.5
  0
LINE
  8
0
 10
15
 20
63.5
 11
4
 21
63.5
  0
LINE
  8
0
 10
4
 20
63.5
 11
4
 21
63.4781
  0
LINE
  8
0
 10
4
 20
63.4781
 11
3.58188
 21
63.4781
  0
LINE
  8
0
 10
3.58188
 20
63.4781
 11
2.76393
 21
63.3042
  0
LINE
  8
0
 10
2.76393
 20
63.3042
 11
2
 21
62.9641
  0
LINE
  8
0
 10
2
 20
62.9641
 11
1.32347
 21
62.4726
  0
LINE
  8
0
 10
1.32347
 20
62.4726
 11
0.763931
 21
61.8511
  0
LINE
  8
0
 10
0.763931
 20
61.8511
 11
0.34581
 21
61.1269
  0
LINE
  8
0
 10
0.34581
 20
61.1269
 11
0.0874023
 21
60.3316
  0
LINE
  8
0
 10
0.0874023
 20
60.3316
 11
0
 21
59.5
  0
LINE
  8
0
 10
0
 20
59.5
 11
0
 21
21.5
  0
LINE
  8
0
 10
0
 20
21.5
 11
0.0874023
 21
20.6684
  0
LINE
  8
0
 10
0.0874023
 20
20.6684
 11
0.34581
 21
19.873
  0
LINE
  8
0
 10
0.34581
 20
19.873
 11
0.763931
 21
19.1488
  0
LINE
  8
0
 10
0.763931
 20
19.1488
 11
1.32347
 21
18.5274
  0
LINE
  8
0
 10
1.32347
 20
18.5274
 11
2
 21
18.0359
  0
LINE
  8
0
 10
2
 20
18.0359
 11
2.76393
 21
17.6958
  0
LINE
  8
0
 10
2.76393
 20
17.6958
 11
3.58188
 21
17.5219
  0
LINE
  8
0
 10
3.58188
 20
17.5219
 11
4
 21
17.5219
  0
LINE
  8
0
 10
4
 20
17.5219
 11
4
 21
17.5
  0
LINE
  8
0
 10
4
 20
17.5
 11
8
 21
17.5
  0
LINE
  8
0
 10
8
 20
17.5
 11
8
 21
17.4781
  0
LINE
  8
0
 10
8
 20
17.4781
 11
8.41811
 21
17.4781
  0
LINE
  8
0
 10
8.41811
 20
17.4781
 11
9.23605
 21
17.3042
  0
LINE
  8
0
 10
9.23605
 20
17.3042
 11
10
 21
16.9641
  0
LINE
  8
0
 10
10
 20
16.9641
 11
10.6765
 21
16.4726
  0
LINE
  8
0
 10
10.6765
 20
16.4726
 11
11.2361
 21
15.8511
  0
LINE
  8
0
 10
11.2361
 20
15.8511
 11
11.6542
 21
15.1269
  0
LINE
  8
0
 10
11.6542
 20
15.1269
 11
11.9126
 21
14.3316
  0
LINE
  8
0
 10
11.9126
 20
14.3316
 11
12.1202
 21
12.3565
  0
LINE
  8
0
 10
12.1202
 20
12.3565
 11
12.4755
 21
11.2629
  0
LINE
  8
0
 10
12.4755
 20
11.2629
 11
13.0504
 21
10.2672
  0
LINE
  8
0
 10
13.0504
 20
10.2672
 11
13.8198
 21
9.41269
  0
LINE
  8
0
 10
13.8198
 20
9.41269
 11
14.75
 21
8.73685
  0
LINE
  8
0
 10
14.75
 20
8.73685
 11
15.8004
 21
8.26918
  0
LINE
  8
0
 10
15.8004
 20
8.26918
 11
16.9251
 21
8.03012
  0
LINE
  8
0
 10
16.9251
 20
8.03012
 11
17.5
 21
8.03012
  0
LINE
  8
0
 10
17.5
 20
8.03012
 11
17.5
 21
8
  0
LINE
  8
0
 10
17.5
 20
8
 11
38
 21
8
  0
LINE
  8
0
 10
38
 20
8
 11
38.0874
 21
7.16835
  0
LINE
  8
0
 10
38.0874
 20
7.16835
 11
38.3458
 21
6.37305
  0
LINE
  8
0
 10
38.3458
 20
6.37305
 11
38.7639
 21
5.64885
  0
LINE
  8
0
 10
38.7639
 20
5.64885
 11
39.3235
 21
5.02742
  0
LINE
  8
0
 10
39.3235
 20
5.02742
 11
40
 21
4.53589
  0
LINE
  8
0
 10
40
 20
4.53589
 11
40.7639
 21
4.19577
  0
LINE
  8
0
 10
40.7639
 20
4.19577
 11
41.5819
 21
4.02191
  0
LINE
  8
0
 10
41.5819
 20
4.02191
 11
42
 21
4.02191
  0
LINE
  8
0
 10
42
 20
4.02191
 11
42
 21
4
  0
LINE
  8
0
 10
42
 20
4
 11
57
 21
4
  0
LINE
  8
0
 10
57
 20
4
 11
57.0874
 21
3.16835
  0
LINE
  8
0
 10
57.0874
 20
3.16835
 11
57.3458
 21
2.37305
  0
LINE
  8
0
 10
57.3458
 20
2.37305
 11
57.7639
 21
1.64885
  0
LINE
  8
0
 10
57.7639
 20
1.64885
 11
58.3235
 21
1.02742
  0
LINE
  8
0
 10
58.3235
 20
1.02742
 11
59
 21
0.535889
  0
LINE
  8
0
 10
59
 20
0.535889
 11
59.7639
 21
0.19577
  0
LINE
  8
0
 10
59.7639
 20
0.19577
 11
60.5819
 21
0.0219116
  0
LINE
  8
0
 10
60.5819
 20
0.0219116
 11
61
 21
0.0219116
  0
LINE
  8
0
 10
61
 20
0.0219116
 11
61
 21
0
  0
LINE
  8
0
 10
61
 20
0
 11
80
 21
0
  0
LINE
  8
0
 10
80
 20
0
 11
80
 21
0.0219116
  0
ENDSEC
  0
SECTION
  2
OBJECTS
  0
DICTIONARY
  0
ENDSEC
  0
EOF
