%TF.GenerationSoftware,KiCad,Pcbnew,(5.1.10)-1*%
%TF.CreationDate,2021-07-03T11:15:49-05:00*%
%TF.ProjectId,LeftHand,4c656674-4861-46e6-942e-6b696361645f,rev?*%
%TF.SameCoordinates,Original*%
%TF.FileFunction,Copper,L2,Bot*%
%TF.FilePolarity,Positive*%
%FSLAX46Y46*%
G04 Gerber Fmt 4.6, Leading zero omitted, Abs format (unit mm)*
G04 Created by KiCad (PCBNEW (5.1.10)-1) date 2021-07-03 11:15:49*
%MOMM*%
%LPD*%
G01*
G04 APERTURE LIST*
%TA.AperFunction,ComponentPad*%
%ADD10C,3.050000*%
%TD*%
%TA.AperFunction,ComponentPad*%
%ADD11C,4.000000*%
%TD*%
%TA.AperFunction,ComponentPad*%
%ADD12C,1.700000*%
%TD*%
%TA.AperFunction,ComponentPad*%
%ADD13C,2.286000*%
%TD*%
%TA.AperFunction,ComponentPad*%
%ADD14C,1.651000*%
%TD*%
%TA.AperFunction,ComponentPad*%
%ADD15C,0.100000*%
%TD*%
%TA.AperFunction,SMDPad,CuDef*%
%ADD16C,0.100000*%
%TD*%
%TA.AperFunction,SMDPad,CuDef*%
%ADD17R,1.000000X1.000000*%
%TD*%
%TA.AperFunction,ComponentPad*%
%ADD18R,1.651000X1.651000*%
%TD*%
%TA.AperFunction,ComponentPad*%
%ADD19C,1.130000*%
%TD*%
%TA.AperFunction,ComponentPad*%
%ADD20R,1.130000X1.130000*%
%TD*%
%TA.AperFunction,ComponentPad*%
%ADD21O,1.000000X2.500000*%
%TD*%
%TA.AperFunction,ComponentPad*%
%ADD22C,1.500000*%
%TD*%
%TA.AperFunction,ViaPad*%
%ADD23C,0.800000*%
%TD*%
%TA.AperFunction,Conductor*%
%ADD24C,0.250000*%
%TD*%
G04 APERTURE END LIST*
D10*
%TO.P,KT2_2,HOLE*%
%TO.N,N/C*%
X147259150Y-76581322D03*
X141562971Y-99772009D03*
D11*
X162059236Y-80216572D03*
X156363057Y-103407259D03*
X151209000Y-89846400D03*
D12*
%TO.P,KT2_2,POST*%
X152401667Y-84990729D03*
X150016333Y-94702071D03*
D13*
%TO.P,KT2_2,1*%
%TO.N,C2*%
X147833506Y-92940547D03*
%TO.P,KT2_2,2*%
%TO.N,Net-(KT2_2-Pad2)*%
X146881513Y-86167969D03*
D14*
%TO.P,KT2_2,3*%
X144045801Y-85471451D03*
%TA.AperFunction,ComponentPad*%
D15*
%TO.P,KT2_2,4*%
%TO.N,R0*%
G36*
X141771305Y-91270810D02*
G01*
X143374648Y-91664629D01*
X142980829Y-93267972D01*
X141377486Y-92874153D01*
X141771305Y-91270810D01*
G37*
%TD.AperFunction*%
%TA.AperFunction,SMDPad,CuDef*%
D16*
%TO.P,KT2_2,5*%
%TO.N,VCC*%
G36*
X158453354Y-88021751D02*
G01*
X159424488Y-88260285D01*
X159185954Y-89231419D01*
X158214820Y-88992885D01*
X158453354Y-88021751D01*
G37*
%TD.AperFunction*%
%TA.AperFunction,SMDPad,CuDef*%
%TO.P,KT2_2,6*%
%TO.N,Net-(KT2_2-Pad6)*%
G36*
X156899539Y-87640097D02*
G01*
X157870673Y-87878631D01*
X157632139Y-88849765D01*
X156661005Y-88611231D01*
X156899539Y-87640097D01*
G37*
%TD.AperFunction*%
%TA.AperFunction,SMDPad,CuDef*%
%TO.P,KT2_2,7*%
%TO.N,Net-(KT2_2-Pad7)*%
G36*
X155345724Y-87258444D02*
G01*
X156316858Y-87496978D01*
X156078324Y-88468112D01*
X155107190Y-88229578D01*
X155345724Y-87258444D01*
G37*
%TD.AperFunction*%
%TA.AperFunction,SMDPad,CuDef*%
%TO.P,KT2_2,8*%
%TO.N,GND*%
G36*
X157022153Y-93848556D02*
G01*
X157993287Y-94087090D01*
X157754753Y-95058224D01*
X156783619Y-94819690D01*
X157022153Y-93848556D01*
G37*
%TD.AperFunction*%
%TA.AperFunction,SMDPad,CuDef*%
%TO.P,KT2_2,9*%
%TO.N,Net-(KT2_1-Pad6)*%
G36*
X155468338Y-93466903D02*
G01*
X156439472Y-93705437D01*
X156200938Y-94676571D01*
X155229804Y-94438037D01*
X155468338Y-93466903D01*
G37*
%TD.AperFunction*%
%TA.AperFunction,SMDPad,CuDef*%
%TO.P,KT2_2,10*%
%TO.N,Net-(KT2_1-Pad7)*%
G36*
X153914523Y-93085249D02*
G01*
X154885657Y-93323783D01*
X154647123Y-94294917D01*
X153675989Y-94056383D01*
X153914523Y-93085249D01*
G37*
%TD.AperFunction*%
%TD*%
D11*
%TO.P,KT2_1,HOLE*%
%TO.N,N/C*%
X121907764Y-94944228D03*
X127603943Y-71753541D03*
D10*
X142404029Y-75388791D03*
X136707850Y-98579478D03*
D11*
X132758000Y-85314400D03*
D12*
%TO.P,KT2_1,POST*%
X133950667Y-80458729D03*
X131565333Y-90170071D03*
D13*
%TO.P,KT2_1,1*%
%TO.N,C2*%
X129382506Y-88408547D03*
%TO.P,KT2_1,2*%
%TO.N,Net-(KT2_1-Pad2)*%
X128430513Y-81635969D03*
D14*
%TO.P,KT2_1,3*%
X131879707Y-67593367D03*
%TA.AperFunction,ComponentPad*%
D15*
%TO.P,KT2_1,4*%
%TO.N,R1*%
G36*
X138150575Y-68283603D02*
G01*
X139753918Y-68677422D01*
X139360099Y-70280765D01*
X137756756Y-69886946D01*
X138150575Y-68283603D01*
G37*
%TD.AperFunction*%
%TA.AperFunction,SMDPad,CuDef*%
D16*
%TO.P,KT2_1,5*%
%TO.N,VCC*%
G36*
X135463523Y-88553249D02*
G01*
X136434657Y-88791783D01*
X136196123Y-89762917D01*
X135224989Y-89524383D01*
X135463523Y-88553249D01*
G37*
%TD.AperFunction*%
%TA.AperFunction,SMDPad,CuDef*%
%TO.P,KT2_1,6*%
%TO.N,Net-(KT2_1-Pad6)*%
G36*
X137017338Y-88934903D02*
G01*
X137988472Y-89173437D01*
X137749938Y-90144571D01*
X136778804Y-89906037D01*
X137017338Y-88934903D01*
G37*
%TD.AperFunction*%
%TA.AperFunction,SMDPad,CuDef*%
%TO.P,KT2_1,7*%
%TO.N,Net-(KT2_1-Pad7)*%
G36*
X138571153Y-89316556D02*
G01*
X139542287Y-89555090D01*
X139303753Y-90526224D01*
X138332619Y-90287690D01*
X138571153Y-89316556D01*
G37*
%TD.AperFunction*%
%TA.AperFunction,SMDPad,CuDef*%
%TO.P,KT2_1,8*%
%TO.N,GND*%
G36*
X136894724Y-82726444D02*
G01*
X137865858Y-82964978D01*
X137627324Y-83936112D01*
X136656190Y-83697578D01*
X136894724Y-82726444D01*
G37*
%TD.AperFunction*%
%TA.AperFunction,SMDPad,CuDef*%
%TO.P,KT2_1,9*%
%TO.N,Net-(KT2_1-Pad9)*%
G36*
X138448539Y-83108097D02*
G01*
X139419673Y-83346631D01*
X139181139Y-84317765D01*
X138210005Y-84079231D01*
X138448539Y-83108097D01*
G37*
%TD.AperFunction*%
%TA.AperFunction,SMDPad,CuDef*%
%TO.P,KT2_1,10*%
%TO.N,Net-(KT2_1-Pad10)*%
G36*
X140002354Y-83489751D02*
G01*
X140973488Y-83728285D01*
X140734954Y-84699419D01*
X139763820Y-84460885D01*
X140002354Y-83489751D01*
G37*
%TD.AperFunction*%
%TD*%
D17*
%TO.P,KA1,10*%
%TO.N,Net-(KA1-Pad10)*%
X43500000Y-44600000D03*
%TO.P,KA1,9*%
%TO.N,Net-(KA1-Pad9)*%
X43500000Y-43000000D03*
%TO.P,KA1,8*%
%TO.N,GND*%
X43500000Y-41400000D03*
%TO.P,KA1,7*%
%TO.N,Net-(KA1-Pad7)*%
X37500000Y-44600000D03*
%TO.P,KA1,6*%
%TO.N,Net-(KA1-Pad6)*%
X37500000Y-43000000D03*
%TO.P,KA1,5*%
%TO.N,VCC*%
X37500000Y-41400000D03*
D18*
%TO.P,KA1,4*%
%TO.N,R6*%
X44960000Y-56500000D03*
D14*
%TO.P,KA1,3*%
%TO.N,Net-(KA1-Pad2)*%
X37960000Y-56500000D03*
D13*
%TO.P,KA1,2*%
X37960000Y-53580000D03*
%TO.P,KA1,1*%
%TO.N,C1*%
X44310000Y-51040000D03*
D12*
%TO.P,KA1,POST*%
%TO.N,N/C*%
X45500000Y-48500000D03*
X35500000Y-48500000D03*
D11*
%TO.P,KA1,HOLE*%
X40500000Y-48500000D03*
%TD*%
%TO.P,KB1,HOLE*%
%TO.N,N/C*%
X116500000Y-63500000D03*
D12*
%TO.P,KB1,POST*%
X111500000Y-63500000D03*
X121500000Y-63500000D03*
D13*
%TO.P,KB1,1*%
%TO.N,C2*%
X120310000Y-66040000D03*
%TO.P,KB1,2*%
%TO.N,Net-(KB1-Pad2)*%
X113960000Y-68580000D03*
D14*
%TO.P,KB1,3*%
X113960000Y-71500000D03*
D18*
%TO.P,KB1,4*%
%TO.N,R2*%
X120960000Y-71500000D03*
D17*
%TO.P,KB1,5*%
%TO.N,VCC*%
X119500000Y-59600000D03*
%TO.P,KB1,6*%
%TO.N,Net-(KB1-Pad6)*%
X119500000Y-58000000D03*
%TO.P,KB1,7*%
%TO.N,Net-(KB1-Pad7)*%
X119500000Y-56400000D03*
%TO.P,KB1,8*%
%TO.N,GND*%
X113500000Y-59600000D03*
%TO.P,KB1,9*%
%TO.N,Net-(KB1-Pad9)*%
X113500000Y-58000000D03*
%TO.P,KB1,10*%
%TO.N,Net-(KB1-Pad10)*%
X113500000Y-56400000D03*
%TD*%
%TO.P,KC1,10*%
%TO.N,Net-(KC1-Pad10)*%
X75500000Y-52400000D03*
%TO.P,KC1,9*%
%TO.N,Net-(KC1-Pad9)*%
X75500000Y-54000000D03*
%TO.P,KC1,8*%
%TO.N,GND*%
X75500000Y-55600000D03*
%TO.P,KC1,7*%
%TO.N,Net-(KC1-Pad7)*%
X81500000Y-52400000D03*
%TO.P,KC1,6*%
%TO.N,Net-(KC1-Pad6)*%
X81500000Y-54000000D03*
%TO.P,KC1,5*%
%TO.N,VCC*%
X81500000Y-55600000D03*
D18*
%TO.P,KC1,4*%
%TO.N,R4*%
X82960000Y-67500000D03*
D14*
%TO.P,KC1,3*%
%TO.N,Net-(KC1-Pad2)*%
X75960000Y-67500000D03*
D13*
%TO.P,KC1,2*%
X75960000Y-64580000D03*
%TO.P,KC1,1*%
%TO.N,C2*%
X82310000Y-62040000D03*
D12*
%TO.P,KC1,POST*%
%TO.N,N/C*%
X83500000Y-59500000D03*
X73500000Y-59500000D03*
D11*
%TO.P,KC1,HOLE*%
X78500000Y-59500000D03*
%TD*%
D17*
%TO.P,KD1,10*%
%TO.N,Net-(KD1-Pad10)*%
X81500000Y-36600000D03*
%TO.P,KD1,9*%
%TO.N,Net-(KD1-Pad9)*%
X81500000Y-35000000D03*
%TO.P,KD1,8*%
%TO.N,GND*%
X81500000Y-33400000D03*
%TO.P,KD1,7*%
%TO.N,Net-(KD1-Pad7)*%
X75500000Y-36600000D03*
%TO.P,KD1,6*%
%TO.N,Net-(KD1-Pad6)*%
X75500000Y-35000000D03*
%TO.P,KD1,5*%
%TO.N,VCC*%
X75500000Y-33400000D03*
D18*
%TO.P,KD1,4*%
%TO.N,R4*%
X82960000Y-48500000D03*
D14*
%TO.P,KD1,3*%
%TO.N,Net-(KD1-Pad2)*%
X75960000Y-48500000D03*
D13*
%TO.P,KD1,2*%
X75960000Y-45580000D03*
%TO.P,KD1,1*%
%TO.N,C1*%
X82310000Y-43040000D03*
D12*
%TO.P,KD1,POST*%
%TO.N,N/C*%
X83500000Y-40500000D03*
X73500000Y-40500000D03*
D11*
%TO.P,KD1,HOLE*%
X78500000Y-40500000D03*
%TD*%
%TO.P,KE1,HOLE*%
%TO.N,N/C*%
X78500000Y-21500000D03*
D12*
%TO.P,KE1,POST*%
X73500000Y-21500000D03*
X83500000Y-21500000D03*
D13*
%TO.P,KE1,1*%
%TO.N,C0*%
X82310000Y-24040000D03*
%TO.P,KE1,2*%
%TO.N,Net-(KE1-Pad2)*%
X75960000Y-26580000D03*
D14*
%TO.P,KE1,3*%
X75960000Y-29500000D03*
D18*
%TO.P,KE1,4*%
%TO.N,R4*%
X82960000Y-29500000D03*
D17*
%TO.P,KE1,5*%
%TO.N,VCC*%
X81500000Y-17600000D03*
%TO.P,KE1,6*%
%TO.N,Net-(KE1-Pad6)*%
X81500000Y-16000000D03*
%TO.P,KE1,7*%
%TO.N,Net-(KE1-Pad7)*%
X81500000Y-14400000D03*
%TO.P,KE1,8*%
%TO.N,GND*%
X75500000Y-17600000D03*
%TO.P,KE1,9*%
%TO.N,Net-(KE1-Pad9)*%
X75500000Y-16000000D03*
%TO.P,KE1,10*%
%TO.N,Net-(KE1-Pad10)*%
X75500000Y-14400000D03*
%TD*%
%TO.P,KESC1,10*%
%TO.N,S0_DL*%
X18500000Y-31900000D03*
%TO.P,KESC1,9*%
%TO.N,CLK_L*%
X18500000Y-33500000D03*
%TO.P,KESC1,8*%
%TO.N,GND*%
X18500000Y-35100000D03*
%TO.P,KESC1,7*%
%TO.N,Net-(KESC1-Pad7)*%
X24500000Y-31900000D03*
%TO.P,KESC1,6*%
%TO.N,Net-(KESC1-Pad6)*%
X24500000Y-33500000D03*
%TO.P,KESC1,5*%
%TO.N,VCC*%
X24500000Y-35100000D03*
D18*
%TO.P,KESC1,4*%
%TO.N,R7*%
X25960000Y-47000000D03*
D14*
%TO.P,KESC1,3*%
%TO.N,Net-(KESC1-Pad2)*%
X18960000Y-47000000D03*
D13*
%TO.P,KESC1,2*%
X18960000Y-44080000D03*
%TO.P,KESC1,1*%
%TO.N,C0*%
X25310000Y-41540000D03*
D12*
%TO.P,KESC1,POST*%
%TO.N,N/C*%
X26500000Y-39000000D03*
X16500000Y-39000000D03*
D11*
%TO.P,KESC1,HOLE*%
X21500000Y-39000000D03*
%TD*%
%TO.P,KF1,HOLE*%
%TO.N,N/C*%
X97500000Y-44500000D03*
D12*
%TO.P,KF1,POST*%
X92500000Y-44500000D03*
X102500000Y-44500000D03*
D13*
%TO.P,KF1,1*%
%TO.N,C1*%
X101310000Y-47040000D03*
%TO.P,KF1,2*%
%TO.N,Net-(KF1-Pad2)*%
X94960000Y-49580000D03*
D14*
%TO.P,KF1,3*%
X94960000Y-52500000D03*
D18*
%TO.P,KF1,4*%
%TO.N,R3*%
X101960000Y-52500000D03*
D17*
%TO.P,KF1,5*%
%TO.N,VCC*%
X94500000Y-37400000D03*
%TO.P,KF1,6*%
%TO.N,Net-(KD1-Pad9)*%
X94500000Y-39000000D03*
%TO.P,KF1,7*%
%TO.N,Net-(KD1-Pad10)*%
X94500000Y-40600000D03*
%TO.P,KF1,8*%
%TO.N,GND*%
X100500000Y-37400000D03*
%TO.P,KF1,9*%
%TO.N,Net-(KF1-Pad9)*%
X100500000Y-39000000D03*
%TO.P,KF1,10*%
%TO.N,Net-(KF1-Pad10)*%
X100500000Y-40600000D03*
%TD*%
%TO.P,KG1,10*%
%TO.N,Net-(KG1-Pad10)*%
X119500000Y-40600000D03*
%TO.P,KG1,9*%
%TO.N,Net-(KG1-Pad9)*%
X119500000Y-39000000D03*
%TO.P,KG1,8*%
%TO.N,GND*%
X119500000Y-37400000D03*
%TO.P,KG1,7*%
%TO.N,Net-(KF1-Pad10)*%
X113500000Y-40600000D03*
%TO.P,KG1,6*%
%TO.N,Net-(KF1-Pad9)*%
X113500000Y-39000000D03*
%TO.P,KG1,5*%
%TO.N,VCC*%
X113500000Y-37400000D03*
D18*
%TO.P,KG1,4*%
%TO.N,R2*%
X120960000Y-52500000D03*
D14*
%TO.P,KG1,3*%
%TO.N,Net-(KG1-Pad2)*%
X113960000Y-52500000D03*
D13*
%TO.P,KG1,2*%
X113960000Y-49580000D03*
%TO.P,KG1,1*%
%TO.N,C1*%
X120310000Y-47040000D03*
D12*
%TO.P,KG1,POST*%
%TO.N,N/C*%
X121500000Y-44500000D03*
X111500000Y-44500000D03*
D11*
%TO.P,KG1,HOLE*%
X116500000Y-44500000D03*
%TD*%
%TO.P,KQ1,HOLE*%
%TO.N,N/C*%
X40500000Y-29500000D03*
D12*
%TO.P,KQ1,POST*%
X35500000Y-29500000D03*
X45500000Y-29500000D03*
D13*
%TO.P,KQ1,1*%
%TO.N,C0*%
X44310000Y-32040000D03*
%TO.P,KQ1,2*%
%TO.N,Net-(KQ1-Pad2)*%
X37960000Y-34580000D03*
D14*
%TO.P,KQ1,3*%
X37960000Y-37500000D03*
D18*
%TO.P,KQ1,4*%
%TO.N,R6*%
X44960000Y-37500000D03*
D17*
%TO.P,KQ1,5*%
%TO.N,VCC*%
X43500000Y-25600000D03*
%TO.P,KQ1,6*%
%TO.N,Net-(KQ1-Pad6)*%
X43500000Y-24000000D03*
%TO.P,KQ1,7*%
%TO.N,Net-(KQ1-Pad7)*%
X43500000Y-22400000D03*
%TO.P,KQ1,8*%
%TO.N,GND*%
X37500000Y-25600000D03*
%TO.P,KQ1,9*%
%TO.N,Net-(KESC1-Pad6)*%
X37500000Y-24000000D03*
%TO.P,KQ1,10*%
%TO.N,Net-(KESC1-Pad7)*%
X37500000Y-22400000D03*
%TD*%
%TO.P,KR1,10*%
%TO.N,Net-(KE1-Pad7)*%
X94500000Y-18400000D03*
%TO.P,KR1,9*%
%TO.N,Net-(KE1-Pad6)*%
X94500000Y-20000000D03*
%TO.P,KR1,8*%
%TO.N,GND*%
X94500000Y-21600000D03*
%TO.P,KR1,7*%
%TO.N,Net-(KR1-Pad7)*%
X100500000Y-18400000D03*
%TO.P,KR1,6*%
%TO.N,Net-(KR1-Pad6)*%
X100500000Y-20000000D03*
%TO.P,KR1,5*%
%TO.N,VCC*%
X100500000Y-21600000D03*
D18*
%TO.P,KR1,4*%
%TO.N,R3*%
X101960000Y-33500000D03*
D14*
%TO.P,KR1,3*%
%TO.N,Net-(KR1-Pad2)*%
X94960000Y-33500000D03*
D13*
%TO.P,KR1,2*%
X94960000Y-30580000D03*
%TO.P,KR1,1*%
%TO.N,C0*%
X101310000Y-28040000D03*
D12*
%TO.P,KR1,POST*%
%TO.N,N/C*%
X102500000Y-25500000D03*
X92500000Y-25500000D03*
D11*
%TO.P,KR1,HOLE*%
X97500000Y-25500000D03*
%TD*%
%TO.P,KS1,HOLE*%
%TO.N,N/C*%
X59500000Y-44500000D03*
D12*
%TO.P,KS1,POST*%
X54500000Y-44500000D03*
X64500000Y-44500000D03*
D13*
%TO.P,KS1,1*%
%TO.N,C1*%
X63310000Y-47040000D03*
%TO.P,KS1,2*%
%TO.N,Net-(KS1-Pad2)*%
X56960000Y-49580000D03*
D14*
%TO.P,KS1,3*%
X56960000Y-52500000D03*
D18*
%TO.P,KS1,4*%
%TO.N,R5*%
X63960000Y-52500000D03*
D17*
%TO.P,KS1,5*%
%TO.N,VCC*%
X56500000Y-37400000D03*
%TO.P,KS1,6*%
%TO.N,Net-(KA1-Pad9)*%
X56500000Y-39000000D03*
%TO.P,KS1,7*%
%TO.N,Net-(KA1-Pad10)*%
X56500000Y-40600000D03*
%TO.P,KS1,8*%
%TO.N,GND*%
X62500000Y-37400000D03*
%TO.P,KS1,9*%
%TO.N,Net-(KD1-Pad6)*%
X62500000Y-39000000D03*
%TO.P,KS1,10*%
%TO.N,Net-(KD1-Pad7)*%
X62500000Y-40600000D03*
%TD*%
D11*
%TO.P,KT1,HOLE*%
%TO.N,N/C*%
X116500000Y-25500000D03*
D12*
%TO.P,KT1,POST*%
X111500000Y-25500000D03*
X121500000Y-25500000D03*
D13*
%TO.P,KT1,1*%
%TO.N,C0*%
X120310000Y-28040000D03*
%TO.P,KT1,2*%
%TO.N,Net-(KT1-Pad2)*%
X113960000Y-30580000D03*
D14*
%TO.P,KT1,3*%
X113960000Y-33500000D03*
D18*
%TO.P,KT1,4*%
%TO.N,R2*%
X120960000Y-33500000D03*
D17*
%TO.P,KT1,5*%
%TO.N,VCC*%
X119500000Y-21600000D03*
%TO.P,KT1,6*%
%TO.N,Net-(KG1-Pad9)*%
X119500000Y-20000000D03*
%TO.P,KT1,7*%
%TO.N,Net-(KG1-Pad10)*%
X119500000Y-18400000D03*
%TO.P,KT1,8*%
%TO.N,GND*%
X113500000Y-21600000D03*
%TO.P,KT1,9*%
%TO.N,Net-(KR1-Pad6)*%
X113500000Y-20000000D03*
%TO.P,KT1,10*%
%TO.N,Net-(KR1-Pad7)*%
X113500000Y-18400000D03*
%TD*%
D11*
%TO.P,KTAB1,HOLE*%
%TO.N,N/C*%
X21500000Y-58000000D03*
D12*
%TO.P,KTAB1,POST*%
X16500000Y-58000000D03*
X26500000Y-58000000D03*
D13*
%TO.P,KTAB1,1*%
%TO.N,C1*%
X25310000Y-60540000D03*
%TO.P,KTAB1,2*%
%TO.N,Net-(KTAB1-Pad2)*%
X18960000Y-63080000D03*
D14*
%TO.P,KTAB1,3*%
X18960000Y-66000000D03*
D18*
%TO.P,KTAB1,4*%
%TO.N,R7*%
X25960000Y-66000000D03*
D17*
%TO.P,KTAB1,5*%
%TO.N,VCC*%
X18500000Y-50900000D03*
%TO.P,KTAB1,6*%
%TO.N,Net-(KTAB1-Pad6)*%
X18500000Y-52500000D03*
%TO.P,KTAB1,7*%
%TO.N,Net-(KTAB1-Pad7)*%
X18500000Y-54100000D03*
%TO.P,KTAB1,8*%
%TO.N,GND*%
X24500000Y-50900000D03*
%TO.P,KTAB1,9*%
%TO.N,Net-(KA1-Pad6)*%
X24500000Y-52500000D03*
%TO.P,KTAB1,10*%
%TO.N,Net-(KA1-Pad7)*%
X24500000Y-54100000D03*
%TD*%
%TO.P,KTG_A1,10*%
%TO.N,Net-(KB1-Pad7)*%
X112500000Y-78600000D03*
%TO.P,KTG_A1,9*%
%TO.N,Net-(KB1-Pad6)*%
X112500000Y-77000000D03*
%TO.P,KTG_A1,8*%
%TO.N,GND*%
X112500000Y-75400000D03*
%TO.P,KTG_A1,7*%
%TO.N,Net-(KTG_A1-Pad7)*%
X106500000Y-78600000D03*
%TO.P,KTG_A1,6*%
%TO.N,Net-(KTG_A1-Pad6)*%
X106500000Y-77000000D03*
%TO.P,KTG_A1,5*%
%TO.N,VCC*%
X106500000Y-75400000D03*
D18*
%TO.P,KTG_A1,4*%
%TO.N,R2*%
X113960000Y-90500000D03*
D14*
%TO.P,KTG_A1,3*%
%TO.N,Net-(KTG_A1-Pad2)*%
X106960000Y-90500000D03*
D13*
%TO.P,KTG_A1,2*%
X106960000Y-87580000D03*
%TO.P,KTG_A1,1*%
%TO.N,C3*%
X113310000Y-85040000D03*
D12*
%TO.P,KTG_A1,POST*%
%TO.N,N/C*%
X114500000Y-82500000D03*
X104500000Y-82500000D03*
D11*
%TO.P,KTG_A1,HOLE*%
X109500000Y-82500000D03*
%TD*%
%TO.P,KTG_B1,HOLE*%
%TO.N,N/C*%
X90500000Y-82500000D03*
D12*
%TO.P,KTG_B1,POST*%
X85500000Y-82500000D03*
X95500000Y-82500000D03*
D13*
%TO.P,KTG_B1,1*%
%TO.N,C3*%
X94310000Y-85040000D03*
%TO.P,KTG_B1,2*%
%TO.N,Net-(KTG_B1-Pad2)*%
X87960000Y-87580000D03*
D14*
%TO.P,KTG_B1,3*%
X87960000Y-90500000D03*
D18*
%TO.P,KTG_B1,4*%
%TO.N,R3*%
X94960000Y-90500000D03*
D17*
%TO.P,KTG_B1,5*%
%TO.N,VCC*%
X87500000Y-75400000D03*
%TO.P,KTG_B1,6*%
%TO.N,Net-(KTG_B1-Pad6)*%
X87500000Y-77000000D03*
%TO.P,KTG_B1,7*%
%TO.N,Net-(KTG_B1-Pad7)*%
X87500000Y-78600000D03*
%TO.P,KTG_B1,8*%
%TO.N,GND*%
X93500000Y-75400000D03*
%TO.P,KTG_B1,9*%
%TO.N,Net-(KTG_A1-Pad6)*%
X93500000Y-77000000D03*
%TO.P,KTG_B1,10*%
%TO.N,Net-(KTG_A1-Pad7)*%
X93500000Y-78600000D03*
%TD*%
%TO.P,KTG_C1,10*%
%TO.N,Net-(KTG_C1-Pad10)*%
X106500000Y-94400000D03*
%TO.P,KTG_C1,9*%
%TO.N,Net-(KTG_C1-Pad9)*%
X106500000Y-96000000D03*
%TO.P,KTG_C1,8*%
%TO.N,GND*%
X106500000Y-97600000D03*
%TO.P,KTG_C1,7*%
%TO.N,Net-(KT2_1-Pad10)*%
X112500000Y-94400000D03*
%TO.P,KTG_C1,6*%
%TO.N,Net-(KT2_1-Pad9)*%
X112500000Y-96000000D03*
%TO.P,KTG_C1,5*%
%TO.N,VCC*%
X112500000Y-97600000D03*
D18*
%TO.P,KTG_C1,4*%
%TO.N,R1*%
X113960000Y-109500000D03*
D14*
%TO.P,KTG_C1,3*%
%TO.N,Net-(KTG_C1-Pad2)*%
X106960000Y-109500000D03*
D13*
%TO.P,KTG_C1,2*%
X106960000Y-106580000D03*
%TO.P,KTG_C1,1*%
%TO.N,C3*%
X113310000Y-104040000D03*
D12*
%TO.P,KTG_C1,POST*%
%TO.N,N/C*%
X114500000Y-101500000D03*
X104500000Y-101500000D03*
D11*
%TO.P,KTG_C1,HOLE*%
X109500000Y-101500000D03*
%TD*%
%TO.P,KTG_D1,HOLE*%
%TO.N,N/C*%
X90500000Y-101500000D03*
D12*
%TO.P,KTG_D1,POST*%
X85500000Y-101500000D03*
X95500000Y-101500000D03*
D13*
%TO.P,KTG_D1,1*%
%TO.N,C3*%
X94310000Y-104040000D03*
%TO.P,KTG_D1,2*%
%TO.N,Net-(KTG_D1-Pad2)*%
X87960000Y-106580000D03*
D14*
%TO.P,KTG_D1,3*%
X87960000Y-109500000D03*
D18*
%TO.P,KTG_D1,4*%
%TO.N,R0*%
X94960000Y-109500000D03*
D17*
%TO.P,KTG_D1,5*%
%TO.N,VCC*%
X93500000Y-97600000D03*
%TO.P,KTG_D1,6*%
%TO.N,Net-(KTG_C1-Pad9)*%
X93500000Y-96000000D03*
%TO.P,KTG_D1,7*%
%TO.N,Net-(KTG_C1-Pad10)*%
X93500000Y-94400000D03*
%TO.P,KTG_D1,8*%
%TO.N,GND*%
X87500000Y-97600000D03*
%TO.P,KTG_D1,9*%
%TO.N,Net-(KTG_B1-Pad6)*%
X87500000Y-96000000D03*
%TO.P,KTG_D1,10*%
%TO.N,Net-(KTG_B1-Pad7)*%
X87500000Y-94400000D03*
%TD*%
%TO.P,KV1,10*%
%TO.N,Net-(KC1-Pad7)*%
X94500000Y-56400000D03*
%TO.P,KV1,9*%
%TO.N,Net-(KC1-Pad6)*%
X94500000Y-58000000D03*
%TO.P,KV1,8*%
%TO.N,GND*%
X94500000Y-59600000D03*
%TO.P,KV1,7*%
%TO.N,Net-(KB1-Pad10)*%
X100500000Y-56400000D03*
%TO.P,KV1,6*%
%TO.N,Net-(KB1-Pad9)*%
X100500000Y-58000000D03*
%TO.P,KV1,5*%
%TO.N,VCC*%
X100500000Y-59600000D03*
D18*
%TO.P,KV1,4*%
%TO.N,R3*%
X101960000Y-71500000D03*
D14*
%TO.P,KV1,3*%
%TO.N,Net-(KV1-Pad2)*%
X94960000Y-71500000D03*
D13*
%TO.P,KV1,2*%
X94960000Y-68580000D03*
%TO.P,KV1,1*%
%TO.N,C2*%
X101310000Y-66040000D03*
D12*
%TO.P,KV1,POST*%
%TO.N,N/C*%
X102500000Y-63500000D03*
X92500000Y-63500000D03*
D11*
%TO.P,KV1,HOLE*%
X97500000Y-63500000D03*
%TD*%
D17*
%TO.P,KW1,10*%
%TO.N,Net-(KQ1-Pad7)*%
X56500000Y-18400000D03*
%TO.P,KW1,9*%
%TO.N,Net-(KQ1-Pad6)*%
X56500000Y-20000000D03*
%TO.P,KW1,8*%
%TO.N,GND*%
X56500000Y-21600000D03*
%TO.P,KW1,7*%
%TO.N,Net-(KE1-Pad10)*%
X62500000Y-18400000D03*
%TO.P,KW1,6*%
%TO.N,Net-(KE1-Pad9)*%
X62500000Y-20000000D03*
%TO.P,KW1,5*%
%TO.N,VCC*%
X62500000Y-21600000D03*
D18*
%TO.P,KW1,4*%
%TO.N,R5*%
X63960000Y-33500000D03*
D14*
%TO.P,KW1,3*%
%TO.N,Net-(KW1-Pad2)*%
X56960000Y-33500000D03*
D13*
%TO.P,KW1,2*%
X56960000Y-30580000D03*
%TO.P,KW1,1*%
%TO.N,C0*%
X63310000Y-28040000D03*
D12*
%TO.P,KW1,POST*%
%TO.N,N/C*%
X64500000Y-25500000D03*
X54500000Y-25500000D03*
D11*
%TO.P,KW1,HOLE*%
X59500000Y-25500000D03*
%TD*%
%TO.P,KX1,HOLE*%
%TO.N,N/C*%
X59500000Y-63500000D03*
D12*
%TO.P,KX1,POST*%
X54500000Y-63500000D03*
X64500000Y-63500000D03*
D13*
%TO.P,KX1,1*%
%TO.N,C2*%
X63310000Y-66040000D03*
%TO.P,KX1,2*%
%TO.N,Net-(KX1-Pad2)*%
X56960000Y-68580000D03*
D14*
%TO.P,KX1,3*%
X56960000Y-71500000D03*
D18*
%TO.P,KX1,4*%
%TO.N,R5*%
X63960000Y-71500000D03*
D17*
%TO.P,KX1,5*%
%TO.N,VCC*%
X62500000Y-59600000D03*
%TO.P,KX1,6*%
%TO.N,Net-(KC1-Pad9)*%
X62500000Y-58000000D03*
%TO.P,KX1,7*%
%TO.N,Net-(KC1-Pad10)*%
X62500000Y-56400000D03*
%TO.P,KX1,8*%
%TO.N,GND*%
X56500000Y-59600000D03*
%TO.P,KX1,9*%
%TO.N,Net-(KX1-Pad9)*%
X56500000Y-58000000D03*
%TO.P,KX1,10*%
%TO.N,Net-(KX1-Pad10)*%
X56500000Y-56400000D03*
%TD*%
%TO.P,KZ1,10*%
%TO.N,Net-(KTAB1-Pad7)*%
X37500000Y-60400000D03*
%TO.P,KZ1,9*%
%TO.N,Net-(KTAB1-Pad6)*%
X37500000Y-62000000D03*
%TO.P,KZ1,8*%
%TO.N,GND*%
X37500000Y-63600000D03*
%TO.P,KZ1,7*%
%TO.N,Net-(KX1-Pad10)*%
X43500000Y-60400000D03*
%TO.P,KZ1,6*%
%TO.N,Net-(KX1-Pad9)*%
X43500000Y-62000000D03*
%TO.P,KZ1,5*%
%TO.N,VCC*%
X43500000Y-63600000D03*
D18*
%TO.P,KZ1,4*%
%TO.N,R6*%
X44960000Y-75500000D03*
D14*
%TO.P,KZ1,3*%
%TO.N,Net-(KZ1-Pad2)*%
X37960000Y-75500000D03*
D13*
%TO.P,KZ1,2*%
X37960000Y-72580000D03*
%TO.P,KZ1,1*%
%TO.N,C2*%
X44310000Y-70040000D03*
D12*
%TO.P,KZ1,POST*%
%TO.N,N/C*%
X45500000Y-67500000D03*
X35500000Y-67500000D03*
D11*
%TO.P,KZ1,HOLE*%
X40500000Y-67500000D03*
%TD*%
D19*
%TO.P,R0,1*%
%TO.N,C0*%
X76500000Y-101000000D03*
%TO.P,R0,2*%
%TO.N,VCC*%
X76500000Y-109000000D03*
%TD*%
%TO.P,R1,2*%
%TO.N,VCC*%
X79000000Y-109000000D03*
%TO.P,R1,1*%
%TO.N,C1*%
X79000000Y-101000000D03*
%TD*%
%TO.P,R2,1*%
%TO.N,C2*%
X76500000Y-98500000D03*
%TO.P,R2,2*%
%TO.N,VCC*%
X76500000Y-90500000D03*
%TD*%
%TO.P,R3,2*%
%TO.N,VCC*%
X79000000Y-90500000D03*
%TO.P,R3,1*%
%TO.N,C3*%
X79000000Y-98500000D03*
%TD*%
%TO.P,UDEMUX1,16*%
%TO.N,VCC*%
X57110000Y-77530000D03*
%TO.P,UDEMUX1,15*%
%TO.N,R0*%
X59650000Y-77530000D03*
%TO.P,UDEMUX1,14*%
%TO.N,R1*%
X62190000Y-77530000D03*
%TO.P,UDEMUX1,13*%
%TO.N,R2*%
X64730000Y-77530000D03*
%TO.P,UDEMUX1,12*%
%TO.N,R3*%
X67270000Y-77530000D03*
%TO.P,UDEMUX1,11*%
%TO.N,R4*%
X69810000Y-77530000D03*
%TO.P,UDEMUX1,10*%
%TO.N,R5*%
X72350000Y-77530000D03*
%TO.P,UDEMUX1,9*%
%TO.N,R6*%
X74890000Y-77530000D03*
%TO.P,UDEMUX1,8*%
%TO.N,GND*%
X74890000Y-85470000D03*
%TO.P,UDEMUX1,7*%
%TO.N,R7*%
X72350000Y-85470000D03*
%TO.P,UDEMUX1,6*%
%TO.N,VCC*%
X69810000Y-85470000D03*
%TO.P,UDEMUX1,5*%
%TO.N,GND*%
X67270000Y-85470000D03*
%TO.P,UDEMUX1,4*%
X64730000Y-85470000D03*
%TO.P,UDEMUX1,3*%
%TO.N,S2*%
X62190000Y-85470000D03*
%TO.P,UDEMUX1,2*%
%TO.N,S1*%
X59650000Y-85470000D03*
D20*
%TO.P,UDEMUX1,1*%
%TO.N,S0_DL*%
X57110000Y-85470000D03*
%TD*%
D21*
%TO.P,UDINN9,HOLE*%
%TO.N,N/C*%
X54850000Y-98000000D03*
D22*
%TO.P,UDINN9,2*%
%TO.N,RX*%
X58200000Y-97500000D03*
%TO.P,UDINN9,1*%
%TO.N,S0_DL*%
X58200000Y-99500000D03*
%TO.P,UDINN9,3*%
%TO.N,VCC*%
X58200000Y-102000000D03*
%TO.P,UDINN9,6*%
%TO.N,GND*%
X58200000Y-94000000D03*
%TO.P,UDINN9,9*%
%TO.N,CLK_L*%
X61000000Y-94000000D03*
%TO.P,UDINN9,8*%
%TO.N,CLK_C*%
X61000000Y-96000000D03*
%TO.P,UDINN9,5*%
%TO.N,SH_LD*%
X61000000Y-98000000D03*
%TO.P,UDINN9,4*%
%TO.N,S2*%
X61000000Y-100000000D03*
%TO.P,UDINN9,7*%
%TO.N,S1*%
X61000000Y-102000000D03*
%TD*%
D20*
%TO.P,UREG1,1*%
%TO.N,SH_LD*%
X65030000Y-91110000D03*
D19*
%TO.P,UREG1,2*%
%TO.N,CLK_C*%
X65030000Y-93650000D03*
%TO.P,UREG1,3*%
%TO.N,C3*%
X65030000Y-96190000D03*
%TO.P,UREG1,4*%
%TO.N,C2*%
X65030000Y-98730000D03*
%TO.P,UREG1,5*%
%TO.N,C1*%
X65030000Y-101270000D03*
%TO.P,UREG1,6*%
%TO.N,C0*%
X65030000Y-103810000D03*
%TO.P,UREG1,7*%
%TO.N,Net-(UREG1-Pad7)*%
X65030000Y-106350000D03*
%TO.P,UREG1,8*%
%TO.N,GND*%
X65030000Y-108890000D03*
%TO.P,UREG1,9*%
%TO.N,RX*%
X72970000Y-108890000D03*
%TO.P,UREG1,10*%
%TO.N,GND*%
X72970000Y-106350000D03*
%TO.P,UREG1,11*%
X72970000Y-103810000D03*
%TO.P,UREG1,12*%
X72970000Y-101270000D03*
%TO.P,UREG1,13*%
X72970000Y-98730000D03*
%TO.P,UREG1,14*%
X72970000Y-96190000D03*
%TO.P,UREG1,15*%
X72970000Y-93650000D03*
%TO.P,UREG1,16*%
%TO.N,VCC*%
X72970000Y-91110000D03*
%TD*%
D23*
%TO.N,GND*%
X58500000Y-87500000D03*
X70000000Y-58875000D03*
X95000000Y-75500000D03*
X92500000Y-59500000D03*
X74500000Y-73500000D03*
X93000000Y-70500000D03*
X70500000Y-20875000D03*
X56500000Y-23500000D03*
X37500000Y-27500000D03*
X16500000Y-35000000D03*
X87000000Y-21500000D03*
X102500000Y-21500000D03*
X83000000Y-33500000D03*
X102000000Y-37500000D03*
X90500000Y-35000000D03*
X110000000Y-35500000D03*
X43000000Y-39875000D03*
X27500000Y-49000000D03*
X30000000Y-63000000D03*
X49500000Y-62875000D03*
X49000000Y-65000000D03*
X109500000Y-59500000D03*
X114500000Y-75000000D03*
X138000000Y-79500000D03*
X135000000Y-82500000D03*
X135000000Y-82500000D03*
X103500000Y-91500000D03*
X103500000Y-97500000D03*
X85000000Y-98000000D03*
X95000000Y-99500000D03*
X62500000Y-36000000D03*
%TO.N,VCC*%
X71500000Y-102000000D03*
X69500000Y-83854999D03*
X57000000Y-83500000D03*
X136000000Y-94000000D03*
X150500000Y-86500000D03*
X75000000Y-61500000D03*
X108000000Y-73000000D03*
X104500000Y-62000000D03*
X99000000Y-97500000D03*
X99000000Y-76000000D03*
X125000000Y-76275000D03*
X125500000Y-85000000D03*
X104500000Y-37500000D03*
X104500000Y-25500000D03*
%TO.N,C1*%
X73000000Y-44500000D03*
%TO.N,C2*%
X129500000Y-95000000D03*
X76500000Y-70000000D03*
X123500000Y-88000000D03*
%TO.N,R2*%
X122500000Y-90500000D03*
X82500000Y-79000000D03*
X82500000Y-92500000D03*
%TO.N,Net-(KB1-Pad6)*%
X123000000Y-58000000D03*
X123000000Y-67500000D03*
X116000000Y-68000000D03*
X116000000Y-77000000D03*
%TO.N,Net-(KB1-Pad7)*%
X124000000Y-56500000D03*
X123500000Y-68500000D03*
X116725000Y-69000000D03*
X116500000Y-78000000D03*
%TO.N,R4*%
X70000000Y-72000000D03*
%TO.N,C0*%
X81500000Y-102000000D03*
X85500000Y-30000000D03*
%TO.N,S0_DL*%
X52500000Y-38000000D03*
X13000000Y-42000000D03*
X13000000Y-32000000D03*
%TO.N,CLK_L*%
X51500000Y-92500000D03*
X51500000Y-34500000D03*
X33000000Y-37000000D03*
X31500000Y-35500000D03*
X14500000Y-36500000D03*
X14500000Y-34000000D03*
%TO.N,R7*%
X71000000Y-74000000D03*
%TO.N,R3*%
X102500000Y-90000000D03*
%TO.N,Net-(KG1-Pad10)*%
X123500000Y-18500000D03*
X123500000Y-40500000D03*
%TO.N,Net-(KG1-Pad9)*%
X123000000Y-20000000D03*
X123000000Y-39000000D03*
%TO.N,R5*%
X64000000Y-76225000D03*
%TO.N,Net-(KT2_1-Pad10)*%
X117500000Y-94000000D03*
X118000000Y-77000000D03*
%TO.N,Net-(KT2_1-Pad9)*%
X118500000Y-96000000D03*
X119000000Y-78000000D03*
%TO.N,Net-(KT2_1-Pad7)*%
X139000000Y-97500000D03*
X154500000Y-97500000D03*
%TO.N,Net-(KT2_1-Pad6)*%
X137500000Y-96000000D03*
X155500000Y-96500000D03*
%TO.N,R1*%
X117500000Y-70000000D03*
X62000000Y-82275000D03*
X115000000Y-80000000D03*
%TO.N,R0*%
X97500000Y-99000000D03*
X133000000Y-93500000D03*
X59500000Y-83000000D03*
X97500000Y-87000000D03*
%TO.N,Net-(KTAB1-Pad6)*%
X17000000Y-52500000D03*
X17500000Y-61000000D03*
%TO.N,Net-(KTAB1-Pad7)*%
X28500000Y-55500000D03*
X28500000Y-60500000D03*
%TO.N,Net-(KTG_B1-Pad6)*%
X83500000Y-77000000D03*
X83500000Y-96000000D03*
%TO.N,Net-(KTG_B1-Pad7)*%
X84225000Y-79000000D03*
X84500000Y-94500000D03*
%TO.N,RX*%
X56500000Y-110375000D03*
%TO.N,SH_LD*%
X62000000Y-91500000D03*
%TD*%
D24*
%TO.N,Net-(KA1-Pad10)*%
X47500000Y-40600000D02*
X43500000Y-44600000D01*
X56500000Y-40600000D02*
X47500000Y-40600000D01*
%TO.N,Net-(KA1-Pad9)*%
X55949479Y-39550521D02*
X56500000Y-39000000D01*
X47913069Y-39550521D02*
X55949479Y-39550521D01*
X44463590Y-43000000D02*
X47913069Y-39550521D01*
X43500000Y-43000000D02*
X44463590Y-43000000D01*
%TO.N,GND*%
X70430000Y-108890000D02*
X72970000Y-106350000D01*
X65030000Y-108890000D02*
X70430000Y-108890000D01*
X68160001Y-84579999D02*
X67270000Y-85470000D01*
X73999999Y-84579999D02*
X68160001Y-84579999D01*
X74890000Y-85470000D02*
X73999999Y-84579999D01*
X67270000Y-85470000D02*
X64730000Y-85470000D01*
X62700000Y-87500000D02*
X58500000Y-87500000D01*
X64730000Y-85470000D02*
X62700000Y-87500000D01*
X75024588Y-55600000D02*
X75500000Y-55600000D01*
X71749588Y-58875000D02*
X75024588Y-55600000D01*
X70000000Y-58875000D02*
X71749588Y-58875000D01*
X94900000Y-75400000D02*
X95000000Y-75500000D01*
X93500000Y-75400000D02*
X94900000Y-75400000D01*
X94400000Y-59500000D02*
X94500000Y-59600000D01*
X92500000Y-59500000D02*
X94400000Y-59500000D01*
X88290588Y-70500000D02*
X93000000Y-70500000D01*
X85290588Y-73500000D02*
X88290588Y-70500000D01*
X74500000Y-73500000D02*
X85290588Y-73500000D01*
X72225000Y-20875000D02*
X75500000Y-17600000D01*
X70500000Y-20875000D02*
X72225000Y-20875000D01*
X56500000Y-21600000D02*
X56500000Y-23500000D01*
X37500000Y-25600000D02*
X37500000Y-27500000D01*
X16600000Y-35100000D02*
X16500000Y-35000000D01*
X18500000Y-35100000D02*
X16600000Y-35100000D01*
X87100000Y-21600000D02*
X87000000Y-21500000D01*
X94500000Y-21600000D02*
X87100000Y-21600000D01*
X102600000Y-21600000D02*
X102500000Y-21500000D01*
X113500000Y-21600000D02*
X102600000Y-21600000D01*
X82900000Y-33400000D02*
X83000000Y-33500000D01*
X81500000Y-33400000D02*
X82900000Y-33400000D01*
X101900000Y-37400000D02*
X102000000Y-37500000D01*
X100500000Y-37400000D02*
X101900000Y-37400000D01*
X84500000Y-35000000D02*
X83000000Y-33500000D01*
X90500000Y-35000000D02*
X84500000Y-35000000D01*
X118494988Y-35500000D02*
X110000000Y-35500000D01*
X119500000Y-36505012D02*
X118494988Y-35500000D01*
X119500000Y-37400000D02*
X119500000Y-36505012D01*
X43500000Y-40375000D02*
X43000000Y-39875000D01*
X43500000Y-41400000D02*
X43500000Y-40375000D01*
X25600000Y-50900000D02*
X27500000Y-49000000D01*
X24500000Y-50900000D02*
X25600000Y-50900000D01*
X30600000Y-63600000D02*
X30000000Y-63000000D01*
X37500000Y-63600000D02*
X30600000Y-63600000D01*
X52276408Y-62875000D02*
X49500000Y-62875000D01*
X55551408Y-59600000D02*
X52276408Y-62875000D01*
X56500000Y-59600000D02*
X55551408Y-59600000D01*
X37500000Y-64494988D02*
X37500000Y-63600000D01*
X38005012Y-65000000D02*
X37500000Y-64494988D01*
X49000000Y-65000000D02*
X38005012Y-65000000D01*
X109600000Y-59600000D02*
X109500000Y-59500000D01*
X113500000Y-59600000D02*
X109600000Y-59600000D01*
X114100000Y-75400000D02*
X114500000Y-75000000D01*
X112500000Y-75400000D02*
X114100000Y-75400000D01*
X142895300Y-84395300D02*
X138000000Y-79500000D01*
X142895300Y-86023692D02*
X142895300Y-84395300D01*
X144598042Y-86621952D02*
X143493560Y-86621952D01*
X153774999Y-95798909D02*
X144598042Y-86621952D01*
X153774999Y-97848001D02*
X153774999Y-95798909D01*
X154151999Y-98225001D02*
X153774999Y-97848001D01*
X154848001Y-98225001D02*
X154151999Y-98225001D01*
X157388453Y-95684549D02*
X154848001Y-98225001D01*
X143493560Y-86621952D02*
X142895300Y-86023692D01*
X157388453Y-94453390D02*
X157388453Y-95684549D01*
X135914885Y-82500000D02*
X135000000Y-82500000D01*
X136746163Y-83331278D02*
X135914885Y-82500000D01*
X137261024Y-83331278D02*
X136746163Y-83331278D01*
X111474641Y-89048001D02*
X105951999Y-89048001D01*
X105951999Y-89048001D02*
X103500000Y-91500000D01*
X117418672Y-83103970D02*
X111474641Y-89048001D01*
X129135154Y-83103970D02*
X117418672Y-83103970D01*
X129739124Y-82500000D02*
X129135154Y-83103970D01*
X135000000Y-82500000D02*
X129739124Y-82500000D01*
X106400000Y-97500000D02*
X106500000Y-97600000D01*
X103500000Y-97500000D02*
X106400000Y-97500000D01*
X85400000Y-97600000D02*
X85000000Y-98000000D01*
X87500000Y-97600000D02*
X85400000Y-97600000D01*
X102725001Y-98274999D02*
X103500000Y-97500000D01*
X96225001Y-98274999D02*
X102725001Y-98274999D01*
X95000000Y-99500000D02*
X96225001Y-98274999D01*
X62500000Y-37400000D02*
X62500000Y-36000000D01*
%TO.N,Net-(KA1-Pad7)*%
X28894988Y-54100000D02*
X24500000Y-54100000D01*
X32850010Y-50144978D02*
X28894988Y-54100000D01*
X32850010Y-49249990D02*
X32850010Y-50144978D01*
X37500000Y-44600000D02*
X32850010Y-49249990D01*
%TO.N,Net-(KA1-Pad6)*%
X33005012Y-43000000D02*
X37500000Y-43000000D01*
X29149990Y-46855022D02*
X33005012Y-43000000D01*
X29149990Y-50144978D02*
X29149990Y-46855022D01*
X26794968Y-52500000D02*
X29149990Y-50144978D01*
X24500000Y-52500000D02*
X26794968Y-52500000D01*
%TO.N,VCC*%
X75890000Y-91110000D02*
X76500000Y-90500000D01*
X72970000Y-91110000D02*
X75890000Y-91110000D01*
X76500000Y-90500000D02*
X79000000Y-90500000D01*
X76500000Y-109000000D02*
X79000000Y-109000000D01*
X64602799Y-102160001D02*
X71339999Y-102160001D01*
X71339999Y-102160001D02*
X71500000Y-102000000D01*
X63687799Y-103075001D02*
X64602799Y-102160001D01*
X59275001Y-103075001D02*
X63687799Y-103075001D01*
X58200000Y-102000000D02*
X59275001Y-103075001D01*
X57354999Y-83854999D02*
X57000000Y-83500000D01*
X69500000Y-83854999D02*
X57354999Y-83854999D01*
X43500000Y-26494988D02*
X43500000Y-25600000D01*
X43144978Y-26850010D02*
X43500000Y-26494988D01*
X38174999Y-28383999D02*
X39708988Y-26850010D01*
X38174999Y-28564003D02*
X38174999Y-28383999D01*
X31964003Y-34774999D02*
X38174999Y-28564003D01*
X39708988Y-26850010D02*
X43144978Y-26850010D01*
X24825001Y-34774999D02*
X31964003Y-34774999D01*
X24500000Y-35100000D02*
X24825001Y-34774999D01*
X62500000Y-22494988D02*
X62500000Y-21600000D01*
X62144978Y-22850010D02*
X62500000Y-22494988D01*
X57174999Y-24383999D02*
X58708988Y-22850010D01*
X57174999Y-26325001D02*
X57174999Y-24383999D01*
X58708988Y-22850010D02*
X62144978Y-22850010D01*
X56824999Y-26675001D02*
X57174999Y-26325001D01*
X44575001Y-26675001D02*
X56824999Y-26675001D01*
X43500000Y-25600000D02*
X44575001Y-26675001D01*
X81144978Y-18850010D02*
X81500000Y-18494988D01*
X77708988Y-18850010D02*
X81144978Y-18850010D01*
X76174999Y-20383999D02*
X77708988Y-18850010D01*
X81500000Y-18494988D02*
X81500000Y-17600000D01*
X76174999Y-20564003D02*
X76174999Y-20383999D01*
X74064001Y-22675001D02*
X76174999Y-20564003D01*
X72735999Y-22675001D02*
X74064001Y-22675001D01*
X71660998Y-21600000D02*
X72735999Y-22675001D01*
X62500000Y-21600000D02*
X71660998Y-21600000D01*
X100500000Y-22494988D02*
X100500000Y-21600000D01*
X86750010Y-22850010D02*
X100144978Y-22850010D01*
X100144978Y-22850010D02*
X100500000Y-22494988D01*
X81500000Y-17600000D02*
X86750010Y-22850010D01*
X119500000Y-22494988D02*
X119500000Y-21600000D01*
X118819989Y-23174999D02*
X119500000Y-22494988D01*
X102074999Y-23174999D02*
X118819989Y-23174999D01*
X100500000Y-21600000D02*
X102074999Y-23174999D01*
X33968602Y-41400000D02*
X37500000Y-41400000D01*
X18855022Y-49649990D02*
X25718612Y-49649990D01*
X25718612Y-49649990D02*
X33968602Y-41400000D01*
X18500000Y-50005012D02*
X18855022Y-49649990D01*
X18500000Y-50900000D02*
X18500000Y-50005012D01*
X54799489Y-39100511D02*
X56500000Y-37400000D01*
X37649990Y-40355022D02*
X38904501Y-39100511D01*
X37649990Y-41350010D02*
X37649990Y-40355022D01*
X38904501Y-39100511D02*
X54799489Y-39100511D01*
X37600000Y-41400000D02*
X37649990Y-41350010D01*
X37500000Y-41400000D02*
X37600000Y-41400000D01*
X67463590Y-33400000D02*
X75500000Y-33400000D01*
X66213089Y-34650501D02*
X67463590Y-33400000D01*
X58354511Y-34650501D02*
X66213089Y-34650501D01*
X56500000Y-36505012D02*
X58354511Y-34650501D01*
X56500000Y-37400000D02*
X56500000Y-36505012D01*
X89249990Y-32149990D02*
X94500000Y-37400000D01*
X75855022Y-32149990D02*
X89249990Y-32149990D01*
X75500000Y-32505012D02*
X75855022Y-32149990D01*
X75500000Y-33400000D02*
X75500000Y-32505012D01*
X94855022Y-36149990D02*
X104655002Y-36149990D01*
X94500000Y-36505012D02*
X94855022Y-36149990D01*
X104655002Y-36149990D02*
X105905012Y-37400000D01*
X94500000Y-37400000D02*
X94500000Y-36505012D01*
X62500000Y-60500000D02*
X62500000Y-59600000D01*
X62149990Y-60850010D02*
X62500000Y-60500000D01*
X55410988Y-60850010D02*
X62149990Y-60850010D01*
X52660998Y-63600000D02*
X55410988Y-60850010D01*
X43500000Y-63600000D02*
X52660998Y-63600000D01*
X81500000Y-56494988D02*
X81500000Y-55600000D01*
X81144978Y-56850010D02*
X81500000Y-56494988D01*
X74410988Y-56850010D02*
X81144978Y-56850010D01*
X71660998Y-59600000D02*
X74410988Y-56850010D01*
X100500000Y-60494988D02*
X100500000Y-59600000D01*
X100144978Y-60850010D02*
X100500000Y-60494988D01*
X86750010Y-60850010D02*
X100144978Y-60850010D01*
X81500000Y-55600000D02*
X86750010Y-60850010D01*
X119500000Y-60494988D02*
X119500000Y-59600000D01*
X119144978Y-60850010D02*
X119500000Y-60494988D01*
X101750010Y-60850010D02*
X119144978Y-60850010D01*
X105249990Y-74149990D02*
X106500000Y-75400000D01*
X87500000Y-74505012D02*
X87855022Y-74149990D01*
X87500000Y-75400000D02*
X87500000Y-74505012D01*
X132274999Y-93298003D02*
X132274999Y-92712907D01*
X132274999Y-92712907D02*
X135829823Y-89158083D01*
X127973002Y-97600000D02*
X132274999Y-93298003D01*
X112500000Y-97600000D02*
X127973002Y-97600000D01*
X135829823Y-93829823D02*
X136000000Y-94000000D01*
X135829823Y-89158083D02*
X135829823Y-93829823D01*
X158819654Y-88111724D02*
X158819654Y-88626585D01*
X157207930Y-86500000D02*
X158819654Y-88111724D01*
X150500000Y-86500000D02*
X157207930Y-86500000D01*
X73500000Y-61500000D02*
X71600000Y-59600000D01*
X75000000Y-61500000D02*
X73500000Y-61500000D01*
X71600000Y-59600000D02*
X71660998Y-59600000D01*
X62500000Y-59600000D02*
X71600000Y-59600000D01*
X106500000Y-74500000D02*
X108000000Y-73000000D01*
X106500000Y-75400000D02*
X106500000Y-74500000D01*
X102900000Y-62000000D02*
X101700000Y-60800000D01*
X104500000Y-62000000D02*
X102900000Y-62000000D01*
X101700000Y-60800000D02*
X101750010Y-60850010D01*
X100500000Y-59600000D02*
X101700000Y-60800000D01*
X98900000Y-97600000D02*
X99000000Y-97500000D01*
X93500000Y-97600000D02*
X98900000Y-97600000D01*
X99000000Y-76000000D02*
X97149990Y-74149990D01*
X97149990Y-74149990D02*
X105249990Y-74149990D01*
X87855022Y-74149990D02*
X97149990Y-74149990D01*
X118855022Y-76350010D02*
X124924990Y-76350010D01*
X115505012Y-73000000D02*
X118855022Y-76350010D01*
X124924990Y-76350010D02*
X125000000Y-76275000D01*
X108000000Y-73000000D02*
X115505012Y-73000000D01*
X133160681Y-89158083D02*
X135829823Y-89158083D01*
X129002598Y-85000000D02*
X133160681Y-89158083D01*
X125500000Y-85000000D02*
X129002598Y-85000000D01*
X106000000Y-37500000D02*
X106100000Y-37400000D01*
X104500000Y-37500000D02*
X106000000Y-37500000D01*
X106100000Y-37400000D02*
X113500000Y-37400000D01*
X105905012Y-37400000D02*
X106100000Y-37400000D01*
X102174999Y-23174999D02*
X102074999Y-23174999D01*
X104500000Y-25500000D02*
X102174999Y-23174999D01*
%TO.N,R6*%
X72860000Y-75500000D02*
X44960000Y-75500000D01*
X74890000Y-77530000D02*
X72860000Y-75500000D01*
%TO.N,C1*%
X78109999Y-100109999D02*
X79000000Y-101000000D01*
X66190001Y-100109999D02*
X78109999Y-100109999D01*
X65030000Y-101270000D02*
X66190001Y-100109999D01*
X120310000Y-47040000D02*
X101310000Y-47040000D01*
X86310000Y-47040000D02*
X82310000Y-43040000D01*
X101310000Y-47040000D02*
X86310000Y-47040000D01*
X63699002Y-47040000D02*
X63310000Y-47040000D01*
X67699002Y-43040000D02*
X63699002Y-47040000D01*
X44699002Y-51040000D02*
X44310000Y-51040000D01*
X48699002Y-47040000D02*
X44699002Y-51040000D01*
X63310000Y-47040000D02*
X48699002Y-47040000D01*
X44310000Y-51040000D02*
X35460000Y-51040000D01*
X25960000Y-60540000D02*
X25310000Y-60540000D01*
X35460000Y-51040000D02*
X25960000Y-60540000D01*
X73000000Y-43580000D02*
X72460000Y-43040000D01*
X73000000Y-44500000D02*
X73000000Y-43580000D01*
X72460000Y-43040000D02*
X67699002Y-43040000D01*
X82310000Y-43040000D02*
X72460000Y-43040000D01*
%TO.N,C2*%
X75379999Y-99620001D02*
X76500000Y-98500000D01*
X65920001Y-99620001D02*
X75379999Y-99620001D01*
X65030000Y-98730000D02*
X65920001Y-99620001D01*
X57327358Y-66040000D02*
X63310000Y-66040000D01*
X53327358Y-70040000D02*
X57327358Y-66040000D01*
X44310000Y-70040000D02*
X53327358Y-70040000D01*
X76327358Y-62040000D02*
X82310000Y-62040000D01*
X72327358Y-66040000D02*
X76327358Y-62040000D01*
X82310000Y-62040000D02*
X87540000Y-62040000D01*
X91540000Y-66040000D02*
X101310000Y-66040000D01*
X87540000Y-62040000D02*
X91540000Y-66040000D01*
X101310000Y-66040000D02*
X120310000Y-66040000D01*
X129382506Y-94882506D02*
X129500000Y-95000000D01*
X129382506Y-88408547D02*
X129382506Y-94882506D01*
X76500000Y-70000000D02*
X72500000Y-66000000D01*
X72500000Y-66000000D02*
X72460000Y-66040000D01*
X72460000Y-66040000D02*
X71460000Y-66040000D01*
X71460000Y-66040000D02*
X72327358Y-66040000D01*
X63310000Y-66040000D02*
X71460000Y-66040000D01*
X128973959Y-88000000D02*
X129382506Y-88408547D01*
X123500000Y-88000000D02*
X128973959Y-88000000D01*
%TO.N,R2*%
X122500000Y-90500000D02*
X113960000Y-90500000D01*
X66200000Y-79000000D02*
X82500000Y-79000000D01*
X64730000Y-77530000D02*
X66200000Y-79000000D01*
X111960000Y-92500000D02*
X113960000Y-90500000D01*
X82500000Y-92500000D02*
X111960000Y-92500000D01*
%TO.N,Net-(KB1-Pad6)*%
X119500000Y-58000000D02*
X123000000Y-58000000D01*
X122500000Y-68000000D02*
X116000000Y-68000000D01*
X123000000Y-67500000D02*
X122500000Y-68000000D01*
X116000000Y-77000000D02*
X112500000Y-77000000D01*
%TO.N,Net-(KB1-Pad7)*%
X123900000Y-56400000D02*
X124000000Y-56500000D01*
X119500000Y-56400000D02*
X123900000Y-56400000D01*
X123000000Y-69000000D02*
X116725000Y-69000000D01*
X123500000Y-68500000D02*
X123000000Y-69000000D01*
X115900000Y-78600000D02*
X112500000Y-78600000D01*
X116500000Y-78000000D02*
X115900000Y-78600000D01*
%TO.N,Net-(KB1-Pad9)*%
X100500000Y-58000000D02*
X113500000Y-58000000D01*
%TO.N,Net-(KB1-Pad10)*%
X100500000Y-56400000D02*
X113500000Y-56400000D01*
%TO.N,Net-(KC1-Pad10)*%
X71500000Y-56400000D02*
X75500000Y-52400000D01*
X62500000Y-56400000D02*
X71500000Y-56400000D01*
%TO.N,Net-(KC1-Pad9)*%
X71500000Y-58000000D02*
X75500000Y-54000000D01*
X62500000Y-58000000D02*
X71500000Y-58000000D01*
%TO.N,Net-(KC1-Pad7)*%
X90500000Y-52400000D02*
X94500000Y-56400000D01*
X81500000Y-52400000D02*
X90500000Y-52400000D01*
%TO.N,Net-(KC1-Pad6)*%
X90500000Y-54000000D02*
X94500000Y-58000000D01*
X81500000Y-54000000D02*
X90500000Y-54000000D01*
%TO.N,R4*%
X78460000Y-72000000D02*
X82960000Y-67500000D01*
X70000000Y-72000000D02*
X78460000Y-72000000D01*
%TO.N,Net-(KD1-Pad10)*%
X85500000Y-40600000D02*
X81500000Y-36600000D01*
X94500000Y-40600000D02*
X85500000Y-40600000D01*
%TO.N,Net-(KD1-Pad9)*%
X85500000Y-39000000D02*
X81500000Y-35000000D01*
X94500000Y-39000000D02*
X85500000Y-39000000D01*
%TO.N,Net-(KD1-Pad7)*%
X66500000Y-36600000D02*
X62500000Y-40600000D01*
X75500000Y-36600000D02*
X66500000Y-36600000D01*
%TO.N,Net-(KD1-Pad6)*%
X66500000Y-35000000D02*
X62500000Y-39000000D01*
X75500000Y-35000000D02*
X66500000Y-35000000D01*
%TO.N,C0*%
X74580001Y-102919999D02*
X76500000Y-101000000D01*
X65920001Y-102919999D02*
X74580001Y-102919999D01*
X65030000Y-103810000D02*
X65920001Y-102919999D01*
X36426446Y-32040000D02*
X44310000Y-32040000D01*
X26926446Y-41540000D02*
X36426446Y-32040000D01*
X25310000Y-41540000D02*
X26926446Y-41540000D01*
X57327358Y-28040000D02*
X63310000Y-28040000D01*
X53327358Y-32040000D02*
X57327358Y-28040000D01*
X44310000Y-32040000D02*
X53327358Y-32040000D01*
X76327358Y-24040000D02*
X82310000Y-24040000D01*
X72327358Y-28040000D02*
X76327358Y-24040000D01*
X63310000Y-28040000D02*
X72327358Y-28040000D01*
X82310000Y-24040000D02*
X85540000Y-24040000D01*
X89540000Y-28040000D02*
X101310000Y-28040000D01*
X101310000Y-28040000D02*
X120310000Y-28040000D01*
X77500000Y-102000000D02*
X81500000Y-102000000D01*
X76500000Y-101000000D02*
X77500000Y-102000000D01*
X87500000Y-30000000D02*
X89500000Y-28000000D01*
X85500000Y-30000000D02*
X87500000Y-30000000D01*
X89500000Y-28000000D02*
X89540000Y-28040000D01*
X85540000Y-24040000D02*
X89500000Y-28000000D01*
%TO.N,Net-(KE1-Pad6)*%
X86463590Y-20000000D02*
X94500000Y-20000000D01*
X82463590Y-16000000D02*
X86463590Y-20000000D01*
X81500000Y-16000000D02*
X82463590Y-16000000D01*
%TO.N,Net-(KE1-Pad7)*%
X85500000Y-18400000D02*
X94500000Y-18400000D01*
X81500000Y-14400000D02*
X85500000Y-18400000D01*
%TO.N,Net-(KE1-Pad9)*%
X71500000Y-20000000D02*
X75500000Y-16000000D01*
X62500000Y-20000000D02*
X71500000Y-20000000D01*
%TO.N,Net-(KE1-Pad10)*%
X71500000Y-18400000D02*
X75500000Y-14400000D01*
X62500000Y-18400000D02*
X71500000Y-18400000D01*
%TO.N,S0_DL*%
X23597358Y-42000000D02*
X13000000Y-42000000D01*
X26094855Y-43008001D02*
X24605359Y-43008001D01*
X24605359Y-43008001D02*
X23597358Y-42000000D01*
X46045501Y-38650501D02*
X30452355Y-38650501D01*
X30452355Y-38650501D02*
X26094855Y-43008001D01*
X46696002Y-38000000D02*
X46045501Y-38650501D01*
X52500000Y-38000000D02*
X46696002Y-38000000D01*
X18400000Y-32000000D02*
X18500000Y-31900000D01*
X13000000Y-32000000D02*
X18400000Y-32000000D01*
%TO.N,CLK_L*%
X59500000Y-92500000D02*
X51500000Y-92500000D01*
X61000000Y-94000000D02*
X59500000Y-92500000D01*
X36888001Y-33111999D02*
X33000000Y-37000000D01*
X38664641Y-33111999D02*
X36888001Y-33111999D01*
X40052642Y-34500000D02*
X38664641Y-33111999D01*
X51500000Y-34500000D02*
X40052642Y-34500000D01*
X30500000Y-36500000D02*
X14500000Y-36500000D01*
X31500000Y-35500000D02*
X30500000Y-36500000D01*
X18000000Y-34000000D02*
X18500000Y-33500000D01*
X14500000Y-34000000D02*
X18000000Y-34000000D01*
%TO.N,Net-(KESC1-Pad7)*%
X36674999Y-24319989D02*
X36674999Y-23225001D01*
X36674999Y-23225001D02*
X37500000Y-22400000D01*
X29094988Y-31900000D02*
X36674999Y-24319989D01*
X24500000Y-31900000D02*
X29094988Y-31900000D01*
%TO.N,Net-(KESC1-Pad6)*%
X37500000Y-24131398D02*
X37500000Y-24000000D01*
X28131398Y-33500000D02*
X37500000Y-24131398D01*
X24500000Y-33500000D02*
X28131398Y-33500000D01*
%TO.N,R7*%
X29994988Y-66000000D02*
X25960000Y-66000000D01*
X36227643Y-68675001D02*
X32669989Y-68675001D01*
X32669989Y-68675001D02*
X29994988Y-66000000D01*
X41552642Y-74000000D02*
X36227643Y-68675001D01*
X71000000Y-74000000D02*
X41552642Y-74000000D01*
%TO.N,R3*%
X102000000Y-90500000D02*
X102500000Y-90000000D01*
X94960000Y-90500000D02*
X102000000Y-90500000D01*
X86776497Y-72650501D02*
X100809499Y-72650501D01*
X100809499Y-72650501D02*
X101960000Y-71500000D01*
X81006997Y-78420001D02*
X86776497Y-72650501D01*
X68160001Y-78420001D02*
X81006997Y-78420001D01*
X67270000Y-77530000D02*
X68160001Y-78420001D01*
%TO.N,Net-(KF1-Pad9)*%
X113500000Y-39000000D02*
X100500000Y-39000000D01*
%TO.N,Net-(KF1-Pad10)*%
X113500000Y-40600000D02*
X100500000Y-40600000D01*
%TO.N,Net-(KG1-Pad10)*%
X123400000Y-18400000D02*
X123500000Y-18500000D01*
X119500000Y-18400000D02*
X123400000Y-18400000D01*
X119600000Y-40500000D02*
X119500000Y-40600000D01*
X123500000Y-40500000D02*
X119600000Y-40500000D01*
%TO.N,Net-(KG1-Pad9)*%
X119500000Y-20000000D02*
X123000000Y-20000000D01*
X123000000Y-39000000D02*
X119500000Y-39000000D01*
%TO.N,Net-(KQ1-Pad6)*%
X52500000Y-24000000D02*
X56500000Y-20000000D01*
X43500000Y-24000000D02*
X52500000Y-24000000D01*
%TO.N,Net-(KQ1-Pad7)*%
X52094988Y-18400000D02*
X56500000Y-18400000D01*
X48094988Y-22400000D02*
X52094988Y-18400000D01*
X43500000Y-22400000D02*
X48094988Y-22400000D01*
%TO.N,Net-(KR1-Pad7)*%
X100500000Y-18400000D02*
X113500000Y-18400000D01*
%TO.N,Net-(KR1-Pad6)*%
X100500000Y-20000000D02*
X113500000Y-20000000D01*
%TO.N,R5*%
X71045000Y-76225000D02*
X64000000Y-76225000D01*
X72350000Y-77530000D02*
X71045000Y-76225000D01*
%TO.N,Net-(KT2_1-Pad10)*%
X117100000Y-94400000D02*
X117500000Y-94000000D01*
X112500000Y-94400000D02*
X117100000Y-94400000D01*
X140368654Y-83579724D02*
X140368654Y-84094585D01*
X133788930Y-77000000D02*
X140368654Y-83579724D01*
X118000000Y-77000000D02*
X133788930Y-77000000D01*
%TO.N,Net-(KT2_1-Pad9)*%
X112500000Y-96000000D02*
X118500000Y-96000000D01*
X138814839Y-83198070D02*
X138814839Y-83712931D01*
X133616769Y-78000000D02*
X138814839Y-83198070D01*
X119000000Y-78000000D02*
X133616769Y-78000000D01*
%TO.N,Net-(KT2_1-Pad7)*%
X138937453Y-97437453D02*
X139000000Y-97500000D01*
X138937453Y-89921390D02*
X138937453Y-97437453D01*
X154500000Y-93909260D02*
X154280823Y-93690083D01*
X154500000Y-97500000D02*
X154500000Y-93909260D01*
%TO.N,Net-(KT2_1-Pad6)*%
X137383638Y-95883638D02*
X137500000Y-96000000D01*
X137383638Y-89539737D02*
X137383638Y-95883638D01*
X155500000Y-94406375D02*
X155834638Y-94071737D01*
X155500000Y-96500000D02*
X155500000Y-94406375D01*
%TO.N,R1*%
X126634298Y-69282184D02*
X138755337Y-69282184D01*
X125916482Y-70000000D02*
X126634298Y-69282184D01*
X117500000Y-70000000D02*
X125916482Y-70000000D01*
X114825001Y-80174999D02*
X115000000Y-80000000D01*
X64100001Y-80174999D02*
X114825001Y-80174999D01*
X62000000Y-82275000D02*
X64100001Y-80174999D01*
%TO.N,R0*%
X127500000Y-99000000D02*
X133000000Y-93500000D01*
X97500000Y-99000000D02*
X127500000Y-99000000D01*
X89552642Y-87000000D02*
X97500000Y-87000000D01*
X88664641Y-86111999D02*
X89552642Y-87000000D01*
X87255359Y-86111999D02*
X88664641Y-86111999D01*
X84143360Y-83000000D02*
X87255359Y-86111999D01*
X59500000Y-83000000D02*
X84143360Y-83000000D01*
%TO.N,Net-(KTAB1-Pad6)*%
X18500000Y-52500000D02*
X17000000Y-52500000D01*
X37491999Y-62008001D02*
X37500000Y-62000000D01*
X20060643Y-62008001D02*
X37491999Y-62008001D01*
X19052642Y-61000000D02*
X20060643Y-62008001D01*
X17500000Y-61000000D02*
X19052642Y-61000000D01*
%TO.N,Net-(KTAB1-Pad7)*%
X19005012Y-55500000D02*
X28500000Y-55500000D01*
X18500000Y-54994988D02*
X19005012Y-55500000D01*
X18500000Y-54100000D02*
X18500000Y-54994988D01*
X37400000Y-60500000D02*
X37500000Y-60400000D01*
X28500000Y-60500000D02*
X37400000Y-60500000D01*
%TO.N,Net-(KTG_A1-Pad7)*%
X106500000Y-78600000D02*
X93500000Y-78600000D01*
%TO.N,Net-(KTG_A1-Pad6)*%
X106500000Y-77000000D02*
X93500000Y-77000000D01*
%TO.N,C3*%
X77580001Y-97080001D02*
X79000000Y-98500000D01*
X65920001Y-97080001D02*
X77580001Y-97080001D01*
X65030000Y-96190000D02*
X65920001Y-97080001D01*
X113310000Y-85040000D02*
X94310000Y-85040000D01*
X113310000Y-104040000D02*
X94310000Y-104040000D01*
X94310000Y-101868998D02*
X94310000Y-104040000D01*
X79674999Y-99174999D02*
X91616001Y-99174999D01*
X91616001Y-99174999D02*
X94310000Y-101868998D01*
X79000000Y-98500000D02*
X79674999Y-99174999D01*
%TO.N,Net-(KTG_B1-Pad6)*%
X87500000Y-77000000D02*
X83500000Y-77000000D01*
X83500000Y-96000000D02*
X87500000Y-96000000D01*
%TO.N,Net-(KTG_B1-Pad7)*%
X84625000Y-78600000D02*
X84225000Y-79000000D01*
X87500000Y-78600000D02*
X84625000Y-78600000D01*
X87400000Y-94500000D02*
X87500000Y-94400000D01*
X84500000Y-94500000D02*
X87400000Y-94500000D01*
%TO.N,Net-(KTG_C1-Pad10)*%
X106500000Y-94400000D02*
X93500000Y-94400000D01*
%TO.N,Net-(KTG_C1-Pad9)*%
X106500000Y-96000000D02*
X93500000Y-96000000D01*
%TO.N,Net-(KX1-Pad9)*%
X56500000Y-58014998D02*
X56500000Y-58000000D01*
X52514998Y-62000000D02*
X56500000Y-58014998D01*
X43500000Y-62000000D02*
X52514998Y-62000000D01*
%TO.N,Net-(KX1-Pad10)*%
X52500000Y-60400000D02*
X56500000Y-56400000D01*
X43500000Y-60400000D02*
X52500000Y-60400000D01*
%TO.N,RX*%
X71485000Y-110375000D02*
X56500000Y-110375000D01*
X72970000Y-108890000D02*
X71485000Y-110375000D01*
%TO.N,CLK_C*%
X62680000Y-96000000D02*
X65030000Y-93650000D01*
X61000000Y-96000000D02*
X62680000Y-96000000D01*
%TO.N,SH_LD*%
X64640000Y-91500000D02*
X65030000Y-91110000D01*
X62000000Y-91500000D02*
X64640000Y-91500000D01*
%TD*%
M02*
