M48
; DRILL file {KiCad (5.1.10)-1} date 08/16/21 22:09:38
; FORMAT={-:-/ absolute / inch / decimal}
; #@! TF.CreationDate,2021-08-16T22:09:38-05:00
; #@! TF.GenerationSoftware,Kicad,Pcbnew,(5.1.10)-1
FMAT,2
INCH
T1C0.0157
T2C0.0394
T3C0.0945
%
G90
G05
T1
X1.3391Y-1.4769
X1.3676Y-1.3189
T2
X1.1102Y-1.2402
X1.1102Y-1.378
X1.1102Y-1.4567
X1.1102Y-1.5551
X1.2205Y-1.2402
X1.2205Y-1.3189
X1.2205Y-1.3976
X1.2205Y-1.4764
X1.2205Y-1.5551
X1.511Y-0.8374
X1.511Y-0.9374
X1.511Y-1.0374
X1.511Y-1.1374
X1.511Y-1.2374
X1.511Y-1.3374
X1.511Y-1.4374
X1.511Y-1.5374
X1.511Y-1.6374
X1.511Y-1.7374
X1.511Y-1.8374
X1.511Y-1.9374
X2.111Y-0.8374
X2.111Y-0.9374
X2.111Y-1.0374
X2.111Y-1.1374
X2.111Y-1.2374
X2.111Y-1.3374
X2.111Y-1.4374
X2.111Y-1.5374
X2.111Y-1.6374
X2.111Y-1.7374
X2.111Y-1.8374
X2.111Y-1.9374
X2.4016Y-1.2402
X2.4016Y-1.3189
X2.4016Y-1.3976
X2.4016Y-1.4764
X2.4016Y-1.5551
X2.5118Y-1.2402
X2.5118Y-1.3386
X2.5118Y-1.4173
X2.5118Y-1.5551
T3
X0.9055Y-0.9055
X0.9055Y-1.8898
X2.7165Y-0.9055
X2.7165Y-1.8898
T2
G00X0.9783Y-1.3681
M15
G01X0.9783Y-1.4272
M16
G05
G00X2.6437Y-1.4272
M15
G01X2.6437Y-1.3681
M16
G05
T0
M30
