M48
; DRILL file {KiCad (5.1.10)-1} date 06/29/21 07:09:58
; FORMAT={-:-/ absolute / inch / decimal}
; #@! TF.CreationDate,2021-06-29T07:09:58-05:00
; #@! TF.GenerationSoftware,Kicad,Pcbnew,(5.1.10)-1
FMAT,2
INCH
T1C0.0157
T2C0.0307
T3C0.0390
T4C0.0394
T5C0.0591
T6C0.0669
T7C0.1201
T8C0.1575
%
G90
G05
T1
X2.3819Y-2.815
X2.9134Y-2.6969
X2.9134Y-2.7953
X3.1693Y-2.6378
X3.2283Y-2.7756
X3.3071Y-3.3858
X3.4449Y-2.8543
X3.5433Y-2.6181
X3.6024Y-0.6496
X3.6417Y-0.315
X3.6417Y-1.063
X3.6811Y-0.374
X3.6811Y-1.0039
X3.7008Y-2.5591
X3.7402Y-0.2559
X3.7598Y-1.9291
X3.8189Y-1.9291
X3.937Y-2.6181
X4.0157Y-2.5
X4.0354Y-1.6535
X4.0551Y-1.2008
X4.2126Y-0.2559
X4.2126Y-1.4567
X4.2126Y-1.752
X4.2701Y-1.3795
X4.311Y-1.752
X4.3701Y-1.122
X4.3701Y-2.9921
X4.5079Y-3.248
X4.5276Y-3.4252
X4.5276Y-3.6614
X4.5472Y-2.5984
X4.5472Y-2.9921
X4.5885Y-3.4035
X4.626Y-3.2677
X4.6654Y-2.7953
X4.7441Y-1.6732
X4.7441Y-2.4213
X4.7441Y-2.6181
X4.7638Y-2.9331
X4.9016Y-0.2559
X5.0197Y-1.1024
X5.0197Y-1.752
X5.0197Y-2.2835
X5.1181Y-3.7205
X5.1772Y-3.248
X5.2077Y-2.6969
X5.2362Y-2.5591
X5.2362Y-3.3268
X5.2362Y-3.5039
X5.2756Y-2.5
X5.2756Y-3.3661
X5.315Y-2.6181
X5.315Y-3.1299
X5.315Y-3.189
X5.6496Y-0.1181
X5.7087Y-3.1299
X5.7087Y-3.7598
X5.7874Y-1.5945
X5.7874Y-3.189
X5.8071Y-3.6614
X5.8465Y-2.3031
X5.9252Y-1.122
X6.0236Y-3.0315
X6.378Y-0.2559
X6.378Y-1.752
X6.4567Y-2.0866
X6.4961Y-0.6102
X6.5246Y-0.9449
X6.5748Y-1.752
X6.6535Y-1.2402
X7.0472Y-1.8307
X7.1457Y-0.4331
X7.2047Y-2.1063
X7.2638Y-0.3543
X7.3622Y-1.9094
X7.4016Y-0.7283
X7.4016Y-1.6535
X7.9134Y-0.7874
X7.9134Y-0.9055
X7.9331Y-1.2402
X7.9331Y-1.5945
X7.9331Y-1.9685
X7.9724Y-1.5354
X7.9724Y-2.0669
T2
X5.4134Y-3.0906
X5.4134Y-3.4055
X5.4134Y-3.5039
X5.4134Y-3.8189
X5.5118Y-3.0906
X5.5118Y-3.4055
X5.5118Y-3.5039
X5.5118Y-3.8189
X5.5752Y-2.5799
X5.5752Y-2.8925
X5.6508Y-3.1146
X5.6508Y-3.2146
X5.6508Y-3.3146
X5.6508Y-3.4146
X5.6508Y-3.5146
X5.6508Y-3.6146
X5.6508Y-3.7146
X5.6508Y-3.8146
X5.6752Y-2.5799
X5.6752Y-2.8925
X5.7752Y-2.5799
X5.7752Y-2.8925
X5.8752Y-2.5799
X5.8752Y-2.8925
X5.9634Y-3.1146
X5.9634Y-3.2146
X5.9634Y-3.3146
X5.9634Y-3.4146
X5.9634Y-3.5146
X5.9634Y-3.6146
X5.9634Y-3.7146
X5.9634Y-3.8146
X5.9752Y-2.5799
X5.9752Y-2.8925
X6.0752Y-2.5799
X6.0752Y-2.8925
X6.1752Y-2.5799
X6.1752Y-2.8925
X6.2752Y-2.5799
X6.2752Y-2.8925
T3
X2.8345Y-2.8192
X2.9002Y-3.0868
X3.3801Y-3.5551
X3.6508Y-3.4887
X3.837Y-0.8465
X3.837Y-1.5945
X3.837Y-2.3425
X4.1126Y-0.8465
X4.1126Y-1.5945
X4.1126Y-2.3425
X4.1126Y-3.0906
X4.1126Y-3.8386
X4.3882Y-3.0906
X4.3882Y-3.8386
X4.585Y-0.8465
X4.585Y-1.5945
X4.585Y-2.3425
X4.8606Y-0.8465
X4.8606Y-1.5945
X4.8606Y-2.3425
X4.8606Y-3.0906
X4.8606Y-3.8386
X5.1362Y-3.0906
X5.1362Y-3.8386
X5.3331Y-0.689
X5.3331Y-1.437
X5.3331Y-2.185
X5.6087Y-0.689
X5.6087Y-1.437
X5.6087Y-2.185
X6.0811Y-0.8465
X6.0811Y-1.5945
X6.0811Y-2.3425
X6.3567Y-0.8465
X6.3567Y-1.5945
X6.3567Y-2.3425
X6.8291Y-1.0039
X6.8291Y-1.752
X6.8291Y-2.5
X7.1047Y-1.0039
X7.1047Y-1.752
X7.1047Y-2.5
X7.5772Y-1.378
X7.5772Y-2.126
X7.8528Y-1.378
X7.8528Y-2.126
T4
X6.122Y-3.2283
X6.122Y-3.3071
X6.122Y-3.3858
X6.122Y-3.4646
X6.122Y-3.5433
X6.2323Y-3.2283
X6.2323Y-3.3268
X6.2323Y-3.4055
X6.2323Y-3.5433
T5
X2.6318Y-2.8953
X2.7886Y-3.1142
X3.3583Y-2.7169
X3.515Y-2.9358
X3.837Y-0.7315
X3.837Y-1.4795
X3.837Y-2.2276
X4.087Y-0.6315
X4.087Y-1.3795
X4.087Y-2.1276
X4.1126Y-2.9756
X4.1126Y-3.7236
X4.3626Y-2.8756
X4.3626Y-3.6236
X4.585Y-0.7315
X4.585Y-1.4795
X4.585Y-2.2276
X4.835Y-0.6315
X4.835Y-1.3795
X4.835Y-2.1276
X4.8606Y-2.9756
X4.8606Y-3.7236
X5.1106Y-2.8756
X5.1106Y-3.6236
X5.3331Y-0.574
X5.3331Y-1.322
X5.3331Y-2.0701
X5.5831Y-0.474
X5.5831Y-1.222
X5.5831Y-1.9701
X6.0811Y-0.7315
X6.0811Y-1.4795
X6.0811Y-2.2276
X6.3311Y-0.6315
X6.3311Y-1.3795
X6.3311Y-2.1276
X6.8291Y-0.889
X6.8291Y-1.637
X6.8291Y-2.385
X7.0791Y-0.789
X7.0791Y-1.537
X7.0791Y-2.285
X7.5772Y-1.263
X7.5772Y-2.011
X7.8272Y-1.163
X7.8272Y-1.911
T6
X2.5235Y-2.8737
X2.6175Y-3.256
X3.25Y-2.6952
X3.3439Y-3.0776
X3.7402Y-0.5315
X3.7402Y-1.2795
X3.7402Y-2.0276
X4.0157Y-2.7756
X4.0157Y-3.5236
X4.1339Y-0.5315
X4.1339Y-1.2795
X4.1339Y-2.0276
X4.4094Y-2.7756
X4.4094Y-3.5236
X4.4882Y-0.5315
X4.4882Y-1.2795
X4.4882Y-2.0276
X4.7638Y-2.7756
X4.7638Y-3.5236
X4.8819Y-0.5315
X4.8819Y-1.2795
X4.8819Y-2.0276
X5.1575Y-2.7756
X5.1575Y-3.5236
X5.2362Y-0.374
X5.2362Y-1.122
X5.2362Y-1.8701
X5.6299Y-0.374
X5.6299Y-1.122
X5.6299Y-1.8701
X5.9843Y-0.5315
X5.9843Y-1.2795
X5.9843Y-2.0276
X6.378Y-0.5315
X6.378Y-1.2795
X6.378Y-2.0276
X6.7323Y-0.689
X6.7323Y-1.437
X6.7323Y-2.185
X7.126Y-0.689
X7.126Y-1.437
X7.126Y-2.185
X7.4803Y-1.063
X7.4803Y-1.811
X7.874Y-1.063
X7.874Y-1.811
T7
X2.726Y-2.5426
X2.9172Y-2.4956
X2.9503Y-3.4556
X3.1414Y-3.4086
T8
X2.1433Y-2.6857
X2.3676Y-3.5987
X2.5705Y-3.0648
X3.2969Y-2.8864
X3.4999Y-2.3525
X3.7241Y-3.2655
X3.937Y-0.5315
X3.937Y-1.2795
X3.937Y-2.0276
X4.2126Y-2.7756
X4.2126Y-3.5236
X4.685Y-0.5315
X4.685Y-1.2795
X4.685Y-2.0276
X4.9606Y-2.7756
X4.9606Y-3.5236
X5.4331Y-0.374
X5.4331Y-1.122
X5.4331Y-1.8701
X6.1811Y-0.5315
X6.1811Y-1.2795
X6.1811Y-2.0276
X6.9291Y-0.689
X6.9291Y-1.437
X6.9291Y-2.185
X7.6772Y-1.063
X7.6772Y-1.811
T4
G00X6.3642Y-3.4154
M15
G01X6.3642Y-3.3563
M16
G05
T0
M30
