M48
;DRILL file {Pcbnew (2013-07-07 BZR 4022)-stable} date 11/2/2014 12:02:27 AM
;FORMAT={-:-/ absolute / inch / decimal}
FMAT,2
INCH,TZ
T1C0.025
T2C0.039
T3C0.040
T4C0.059
T5C0.157
%
G90
G05
M72
T1
X1.2598Y-3.1496
X1.2992Y-2.3228
X1.2992Y-3.9764
X1.2992Y-4.6457
X1.2992Y-4.8031
X1.3386Y-2.2441
X1.378Y-3.9764
X1.378Y-4.6457
X1.378Y-4.8031
X1.4173Y-2.5591
X1.4173Y-3.2283
X1.5354Y-2.3622
X2.0079Y-2.9134
X2.1654Y-2.4409
X2.2441Y-3.4646
X2.2441Y-3.9764
X2.5197Y-3.7402
X2.5197Y-4.0157
X2.6378Y-4.3307
X2.6378Y-4.4094
X2.6378Y-4.4882
X2.6772Y-4.0157
X2.7559Y-4.4882
X2.9134Y-4.0157
X3.2677Y-4.8819
X3.7795Y-5.1181
X3.8976Y-4.3307
X4.0945Y-1.5354
X6.3386Y-1.4173
X6.5748Y-1.4567
X6.7323Y-2.0866
X6.7717Y-3.2283
X6.811Y-6.378
X6.811Y-6.4567
X6.8504Y-1.4961
X6.8504Y-2.3228
X6.8898Y-6.378
X6.8898Y-6.5354
X6.9291Y-1.6535
X6.9291Y-2.126
X6.9291Y-5.4331
X6.9685Y-1.5354
X6.9685Y-2.2441
X6.9685Y-3.937
X7.0472Y-1.3386
X7.3622Y-1.8504
X7.3622Y-6.1811
X7.3622Y-6.4173
X7.4016Y-6.1024
X7.4016Y-6.2992
T2
X1.5004Y-1.7504
X1.5004Y-2.0504
X1.5004Y-2.8528
X1.5004Y-3.1528
X1.5988Y-5.8449
X1.5988Y-6.1449
X1.6535Y-2.2004
X1.6535Y-3.3028
X1.6972Y-3.6008
X1.6972Y-3.9008
X1.752Y-6.2949
X1.8004Y-2.0504
X1.8004Y-3.1528
X1.8504Y-4.0508
X1.8988Y-6.1449
X1.9004Y-2.0504
X1.9004Y-3.1528
X1.9728Y-5.0969
X1.9728Y-5.3969
X1.9972Y-3.9008
X1.9988Y-6.1449
X2.0472Y-2.2004
X2.0472Y-3.3028
X2.0972Y-3.9008
X2.126Y-5.5469
X2.1457Y-6.2949
X2.2441Y-4.0508
X2.2484Y-2.8528
X2.2484Y-3.1528
X2.2728Y-5.3969
X2.3728Y-5.3969
X2.4016Y-3.3028
X2.5197Y-5.5469
X2.5437Y-5.8449
X2.5437Y-6.1449
X2.5484Y-3.1528
X2.6421Y-3.6008
X2.6421Y-3.9008
X2.6484Y-3.1528
X2.6969Y-6.2949
X2.7953Y-3.3028
X2.7953Y-4.0508
X2.839Y-4.3488
X2.839Y-4.6488
X2.8437Y-6.1449
X2.9421Y-3.9008
X2.9437Y-6.1449
X2.9921Y-4.7988
X2.9965Y-1.7504
X2.9965Y-2.0504
X2.9965Y-2.8528
X2.9965Y-3.1528
X3.0421Y-3.9008
X3.0906Y-6.2949
X3.139Y-4.6488
X3.1496Y-2.2004
X3.1496Y-3.3028
X3.189Y-4.0508
X3.1933Y-5.0969
X3.1933Y-5.3969
X3.239Y-4.6488
X3.2965Y-2.0504
X3.2965Y-3.1528
X3.3465Y-5.5469
X3.3858Y-4.7988
X3.3902Y-3.6008
X3.3902Y-3.9008
X3.3965Y-2.0504
X3.3965Y-3.1528
X3.4886Y-5.8449
X3.4886Y-6.1449
X3.4933Y-5.3969
X3.5433Y-2.2004
X3.5433Y-3.3028
X3.5433Y-4.0508
X3.587Y-4.3488
X3.587Y-4.6488
X3.5933Y-5.3969
X3.6417Y-6.2949
X3.6902Y-3.9008
X3.7402Y-4.7988
X3.7402Y-5.5469
X3.7445Y-1.7504
X3.7445Y-2.0504
X3.7445Y-2.8528
X3.7445Y-3.1528
X3.7886Y-6.1449
X3.7902Y-3.9008
X3.887Y-4.6488
X3.8886Y-6.1449
X3.8976Y-2.2004
X3.8976Y-3.3028
X3.937Y-4.0508
X3.9413Y-5.0969
X3.9413Y-5.3969
X3.987Y-4.6488
X4.0354Y-6.2949
X4.0445Y-2.0504
X4.0445Y-3.1528
X4.0945Y-5.5469
X4.1339Y-4.7988
X4.1382Y-3.6008
X4.1382Y-3.9008
X4.1445Y-2.0504
X4.1445Y-3.1528
X4.2413Y-5.3969
X4.2913Y-2.2004
X4.2913Y-3.3028
X4.2913Y-4.0508
X4.335Y-4.3488
X4.335Y-4.6488
X4.3413Y-5.3969
X4.4382Y-3.9008
X4.4882Y-4.7988
X4.4882Y-5.5469
X4.4925Y-1.7504
X4.4925Y-2.0504
X4.4925Y-2.8528
X4.4925Y-3.1528
X4.5382Y-3.9008
X4.635Y-4.6488
X4.6457Y-2.2004
X4.6457Y-3.3028
X4.685Y-4.0508
X4.6894Y-5.0969
X4.6894Y-5.3969
X4.735Y-4.6488
X4.7925Y-2.0504
X4.7925Y-3.1528
X4.8425Y-5.5469
X4.8819Y-4.7988
X4.8862Y-3.6008
X4.8862Y-3.9008
X4.8925Y-2.0504
X4.8925Y-3.1528
X4.9894Y-5.3969
X5.0394Y-2.2004
X5.0394Y-3.3028
X5.0394Y-4.0508
X5.0831Y-4.3488
X5.0831Y-4.6488
X5.0894Y-5.3969
X5.1862Y-3.9008
X5.2362Y-4.7988
X5.2362Y-5.5469
X5.2406Y-1.7504
X5.2406Y-2.0504
X5.2406Y-2.8528
X5.2406Y-3.1528
X5.2862Y-3.9008
X5.3831Y-4.6488
X5.3937Y-2.2004
X5.3937Y-3.3028
X5.4331Y-4.0508
X5.4374Y-5.0969
X5.4374Y-5.3969
X5.4831Y-4.6488
X5.5406Y-2.0504
X5.5406Y-3.1528
X5.5906Y-5.5469
X5.6299Y-4.7988
X5.6343Y-3.6008
X5.6343Y-3.9008
X5.6406Y-2.0504
X5.6406Y-3.1528
X5.7374Y-5.3969
X5.7874Y-2.2004
X5.7874Y-3.3028
X5.7874Y-4.0508
X5.8311Y-4.3488
X5.8311Y-4.6488
X5.8374Y-5.3969
X5.9343Y-3.9008
X5.9843Y-4.7988
X5.9843Y-5.5469
X5.9886Y-1.7504
X5.9886Y-2.0504
X5.9886Y-2.8528
X5.9886Y-3.1528
X5.9886Y-5.8449
X5.9886Y-6.1449
X6.0343Y-3.9008
X6.1311Y-4.6488
X6.1417Y-2.2004
X6.1417Y-3.3028
X6.1417Y-6.2949
X6.1811Y-4.0508
X6.1854Y-5.0969
X6.1854Y-5.3969
X6.2311Y-4.6488
X6.2886Y-2.0504
X6.2886Y-3.1528
X6.2886Y-6.1449
X6.3386Y-5.5469
X6.378Y-4.7988
X6.3886Y-2.0504
X6.3886Y-3.1528
X6.3886Y-6.1449
X6.4854Y-5.3969
X6.5354Y-2.2004
X6.5354Y-3.3028
X6.5354Y-6.2949
X6.5854Y-5.3969
X6.7323Y-5.5469
T3
X1.576Y-4.1488
X1.576Y-4.7488
X1.676Y-4.1488
X1.676Y-4.7488
X1.776Y-4.1488
X1.776Y-4.7488
X1.876Y-4.1488
X1.876Y-4.7488
X1.976Y-4.1488
X1.976Y-4.7488
X2.076Y-4.1488
X2.076Y-4.7488
X2.176Y-4.1488
X2.176Y-4.7488
X2.276Y-4.1488
X2.276Y-4.7488
X2.376Y-4.1488
X2.376Y-4.7488
X2.476Y-4.1488
X2.476Y-4.7488
X2.576Y-4.1488
X2.576Y-4.7488
X2.676Y-4.1488
X2.676Y-4.2488
X2.676Y-4.7488
X7.1744Y-1.4551
X7.1744Y-1.5551
X7.1744Y-1.6551
X7.1744Y-2.0441
X7.1744Y-2.1441
X7.1744Y-2.2441
X7.1744Y-2.3441
X7.1744Y-2.4441
X7.1744Y-2.8315
X7.1744Y-2.9315
X7.1744Y-3.0315
X7.1744Y-3.1315
X7.1744Y-3.2315
X7.2744Y-1.4551
X7.2744Y-1.5551
X7.2744Y-1.6551
X7.2744Y-2.0441
X7.2744Y-2.1441
X7.2744Y-2.2441
X7.2744Y-2.3441
X7.2744Y-2.4441
X7.2744Y-2.8315
X7.2744Y-2.9315
X7.2744Y-3.0315
X7.2744Y-3.1315
X7.2744Y-3.2315
T4
X1.7004Y-1.7504
X1.7004Y-2.8528
X1.7988Y-5.8449
X1.8972Y-3.6008
X1.9504Y-1.6504
X1.9504Y-2.7528
X2.0488Y-5.7449
X2.1472Y-3.5008
X2.1728Y-5.0969
X2.4228Y-4.9969
X2.4484Y-2.8528
X2.6984Y-2.7528
X2.7437Y-5.8449
X2.8421Y-3.6008
X2.9937Y-5.7449
X3.039Y-4.3488
X3.0921Y-3.5008
X3.1965Y-1.7504
X3.1965Y-2.8528
X3.289Y-4.2488
X3.3933Y-5.0969
X3.4465Y-1.6504
X3.4465Y-2.7528
X3.5902Y-3.6008
X3.6433Y-4.9969
X3.6886Y-5.8449
X3.787Y-4.3488
X3.8402Y-3.5008
X3.9386Y-5.7449
X3.9445Y-1.7504
X3.9445Y-2.8528
X4.037Y-4.2488
X4.1413Y-5.0969
X4.1945Y-1.6504
X4.1945Y-2.7528
X4.3382Y-3.6008
X4.3913Y-4.9969
X4.535Y-4.3488
X4.5882Y-3.5008
X4.6925Y-1.7504
X4.6925Y-2.8528
X4.785Y-4.2488
X4.8894Y-5.0969
X4.9425Y-1.6504
X4.9425Y-2.7528
X5.0862Y-3.6008
X5.1394Y-4.9969
X5.2831Y-4.3488
X5.3362Y-3.5008
X5.4406Y-1.7504
X5.4406Y-2.8528
X5.5331Y-4.2488
X5.6374Y-5.0969
X5.6906Y-1.6504
X5.6906Y-2.7528
X5.8343Y-3.6008
X5.8874Y-4.9969
X6.0311Y-4.3488
X6.0843Y-3.5008
X6.1886Y-1.7504
X6.1886Y-2.8528
X6.1886Y-5.8449
X6.2811Y-4.2488
X6.3854Y-5.0969
X6.4386Y-1.6504
X6.4386Y-2.7528
X6.4386Y-5.7449
X6.6354Y-4.9969
T5
X1.8504Y-1.8504
X1.8504Y-2.9528
X1.9488Y-5.9449
X2.0472Y-3.7008
X2.3228Y-5.1969
X2.5984Y-2.9528
X2.8937Y-5.9449
X2.9921Y-3.7008
X3.189Y-4.4488
X3.3465Y-1.8504
X3.3465Y-2.9528
X3.5433Y-5.1969
X3.7402Y-3.7008
X3.8386Y-5.9449
X3.937Y-4.4488
X4.0945Y-1.8504
X4.0945Y-2.9528
X4.2913Y-5.1969
X4.4882Y-3.7008
X4.685Y-4.4488
X4.8425Y-1.8504
X4.8425Y-2.9528
X5.0394Y-5.1969
X5.2362Y-3.7008
X5.4331Y-4.4488
X5.5906Y-1.8504
X5.5906Y-2.9528
X5.7874Y-5.1969
X5.9843Y-3.7008
X6.1811Y-4.4488
X6.3386Y-1.8504
X6.3386Y-2.9528
X6.3386Y-5.9449
X6.5354Y-5.1969
T0
M30
