G04 (created by PCBNEW (2013-07-07 BZR 4022)-stable) date 11/2/2014 12:02:25 AM*
%MOIN*%
G04 Gerber Fmt 3.4, Leading zero omitted, Abs format*
%FSLAX34Y34*%
G01*
G70*
G90*
G04 APERTURE LIST*
%ADD10C,0.00590551*%
%ADD11C,0.012*%
%ADD12C,0.008*%
G04 APERTURE END LIST*
G54D10*
G54D11*
X71244Y-24940D02*
X71244Y-19940D01*
X71244Y-19940D02*
X73244Y-19940D01*
X73244Y-19940D02*
X73244Y-24940D01*
X73244Y-24940D02*
X71244Y-24940D01*
G54D12*
X73244Y-14051D02*
X73244Y-17051D01*
X71244Y-17051D02*
X71244Y-14051D01*
X71244Y-14051D02*
X73244Y-14051D01*
X73244Y-17051D02*
X71244Y-17051D01*
G54D11*
X71244Y-32814D02*
X71244Y-27814D01*
X71244Y-27814D02*
X73244Y-27814D01*
X73244Y-27814D02*
X73244Y-32814D01*
X73244Y-32814D02*
X71244Y-32814D01*
G54D10*
X15157Y-40944D02*
X27362Y-40944D01*
X27362Y-40944D02*
X27362Y-48031D01*
X27362Y-48031D02*
X15157Y-48031D01*
X15157Y-48031D02*
X15157Y-40944D01*
G54D12*
X53244Y-45916D02*
X53330Y-45940D01*
X53473Y-45940D01*
X53530Y-45916D01*
X53559Y-45892D01*
X53587Y-45845D01*
X53587Y-45797D01*
X53559Y-45750D01*
X53530Y-45726D01*
X53473Y-45702D01*
X53359Y-45678D01*
X53302Y-45654D01*
X53273Y-45631D01*
X53244Y-45583D01*
X53244Y-45535D01*
X53273Y-45488D01*
X53302Y-45464D01*
X53359Y-45440D01*
X53502Y-45440D01*
X53587Y-45464D01*
X53787Y-45440D02*
X53930Y-45940D01*
X54044Y-45583D01*
X54159Y-45940D01*
X54302Y-45440D01*
X54502Y-45488D02*
X54530Y-45464D01*
X54587Y-45440D01*
X54730Y-45440D01*
X54787Y-45464D01*
X54816Y-45488D01*
X54844Y-45535D01*
X54844Y-45583D01*
X54816Y-45654D01*
X54473Y-45940D01*
X54844Y-45940D01*
X55044Y-45440D02*
X55444Y-45440D01*
X55187Y-45940D01*
X39859Y-30956D02*
X39944Y-30979D01*
X40087Y-30979D01*
X40144Y-30956D01*
X40173Y-30932D01*
X40202Y-30884D01*
X40202Y-30837D01*
X40173Y-30789D01*
X40144Y-30765D01*
X40087Y-30741D01*
X39973Y-30718D01*
X39916Y-30694D01*
X39887Y-30670D01*
X39859Y-30622D01*
X39859Y-30575D01*
X39887Y-30527D01*
X39916Y-30503D01*
X39973Y-30479D01*
X40116Y-30479D01*
X40202Y-30503D01*
X40402Y-30479D02*
X40544Y-30979D01*
X40659Y-30622D01*
X40773Y-30979D01*
X40916Y-30479D01*
X41459Y-30979D02*
X41116Y-30979D01*
X41287Y-30979D02*
X41287Y-30479D01*
X41230Y-30551D01*
X41173Y-30598D01*
X41116Y-30622D01*
X41744Y-30979D02*
X41859Y-30979D01*
X41916Y-30956D01*
X41944Y-30932D01*
X42002Y-30860D01*
X42030Y-30765D01*
X42030Y-30575D01*
X42002Y-30527D01*
X41973Y-30503D01*
X41916Y-30479D01*
X41802Y-30479D01*
X41744Y-30503D01*
X41716Y-30527D01*
X41687Y-30575D01*
X41687Y-30694D01*
X41716Y-30741D01*
X41744Y-30765D01*
X41802Y-30789D01*
X41916Y-30789D01*
X41973Y-30765D01*
X42002Y-30741D01*
X42030Y-30694D01*
X43796Y-38436D02*
X43881Y-38460D01*
X44024Y-38460D01*
X44081Y-38436D01*
X44110Y-38412D01*
X44139Y-38365D01*
X44139Y-38317D01*
X44110Y-38269D01*
X44081Y-38245D01*
X44024Y-38222D01*
X43910Y-38198D01*
X43853Y-38174D01*
X43824Y-38150D01*
X43796Y-38103D01*
X43796Y-38055D01*
X43824Y-38007D01*
X43853Y-37984D01*
X43910Y-37960D01*
X44053Y-37960D01*
X44139Y-37984D01*
X44339Y-37960D02*
X44481Y-38460D01*
X44596Y-38103D01*
X44710Y-38460D01*
X44853Y-37960D01*
X45053Y-38007D02*
X45081Y-37984D01*
X45139Y-37960D01*
X45281Y-37960D01*
X45339Y-37984D01*
X45367Y-38007D01*
X45396Y-38055D01*
X45396Y-38103D01*
X45367Y-38174D01*
X45024Y-38460D01*
X45396Y-38460D01*
X45767Y-37960D02*
X45824Y-37960D01*
X45881Y-37984D01*
X45910Y-38007D01*
X45939Y-38055D01*
X45967Y-38150D01*
X45967Y-38269D01*
X45939Y-38365D01*
X45910Y-38412D01*
X45881Y-38436D01*
X45824Y-38460D01*
X45767Y-38460D01*
X45710Y-38436D01*
X45681Y-38412D01*
X45653Y-38365D01*
X45624Y-38269D01*
X45624Y-38150D01*
X45653Y-38055D01*
X45681Y-38007D01*
X45710Y-37984D01*
X45767Y-37960D01*
X45764Y-45916D02*
X45850Y-45940D01*
X45993Y-45940D01*
X46050Y-45916D01*
X46078Y-45892D01*
X46107Y-45845D01*
X46107Y-45797D01*
X46078Y-45750D01*
X46050Y-45726D01*
X45993Y-45702D01*
X45878Y-45678D01*
X45821Y-45654D01*
X45793Y-45631D01*
X45764Y-45583D01*
X45764Y-45535D01*
X45793Y-45488D01*
X45821Y-45464D01*
X45878Y-45440D01*
X46021Y-45440D01*
X46107Y-45464D01*
X46307Y-45440D02*
X46450Y-45940D01*
X46564Y-45583D01*
X46678Y-45940D01*
X46821Y-45440D01*
X47021Y-45488D02*
X47050Y-45464D01*
X47107Y-45440D01*
X47250Y-45440D01*
X47307Y-45464D01*
X47336Y-45488D01*
X47364Y-45535D01*
X47364Y-45583D01*
X47336Y-45654D01*
X46993Y-45940D01*
X47364Y-45940D01*
X47936Y-45940D02*
X47593Y-45940D01*
X47764Y-45940D02*
X47764Y-45440D01*
X47707Y-45511D01*
X47650Y-45559D01*
X47593Y-45583D01*
X49307Y-53397D02*
X49393Y-53420D01*
X49536Y-53420D01*
X49593Y-53397D01*
X49622Y-53373D01*
X49650Y-53325D01*
X49650Y-53278D01*
X49622Y-53230D01*
X49593Y-53206D01*
X49536Y-53182D01*
X49422Y-53158D01*
X49365Y-53135D01*
X49336Y-53111D01*
X49307Y-53063D01*
X49307Y-53016D01*
X49336Y-52968D01*
X49365Y-52944D01*
X49422Y-52920D01*
X49565Y-52920D01*
X49650Y-52944D01*
X49850Y-52920D02*
X49993Y-53420D01*
X50107Y-53063D01*
X50222Y-53420D01*
X50365Y-52920D01*
X50565Y-52968D02*
X50593Y-52944D01*
X50650Y-52920D01*
X50793Y-52920D01*
X50850Y-52944D01*
X50879Y-52968D01*
X50907Y-53016D01*
X50907Y-53063D01*
X50879Y-53135D01*
X50536Y-53420D01*
X50907Y-53420D01*
X51136Y-52968D02*
X51165Y-52944D01*
X51222Y-52920D01*
X51365Y-52920D01*
X51422Y-52944D01*
X51450Y-52968D01*
X51479Y-53016D01*
X51479Y-53063D01*
X51450Y-53135D01*
X51107Y-53420D01*
X51479Y-53420D01*
X62300Y-60877D02*
X62385Y-60901D01*
X62528Y-60901D01*
X62585Y-60877D01*
X62614Y-60853D01*
X62642Y-60805D01*
X62642Y-60758D01*
X62614Y-60710D01*
X62585Y-60686D01*
X62528Y-60663D01*
X62414Y-60639D01*
X62357Y-60615D01*
X62328Y-60591D01*
X62300Y-60544D01*
X62300Y-60496D01*
X62328Y-60448D01*
X62357Y-60425D01*
X62414Y-60401D01*
X62557Y-60401D01*
X62642Y-60425D01*
X62842Y-60401D02*
X62985Y-60901D01*
X63100Y-60544D01*
X63214Y-60901D01*
X63357Y-60401D01*
X63557Y-60448D02*
X63585Y-60425D01*
X63642Y-60401D01*
X63785Y-60401D01*
X63842Y-60425D01*
X63871Y-60448D01*
X63900Y-60496D01*
X63900Y-60544D01*
X63871Y-60615D01*
X63528Y-60901D01*
X63900Y-60901D01*
X64100Y-60401D02*
X64471Y-60401D01*
X64271Y-60591D01*
X64357Y-60591D01*
X64414Y-60615D01*
X64442Y-60639D01*
X64471Y-60686D01*
X64471Y-60805D01*
X64442Y-60853D01*
X64414Y-60877D01*
X64357Y-60901D01*
X64185Y-60901D01*
X64128Y-60877D01*
X64100Y-60853D01*
X54819Y-19932D02*
X54905Y-19956D01*
X55048Y-19956D01*
X55105Y-19932D01*
X55134Y-19908D01*
X55162Y-19861D01*
X55162Y-19813D01*
X55134Y-19765D01*
X55105Y-19742D01*
X55048Y-19718D01*
X54934Y-19694D01*
X54876Y-19670D01*
X54848Y-19646D01*
X54819Y-19599D01*
X54819Y-19551D01*
X54848Y-19503D01*
X54876Y-19480D01*
X54934Y-19456D01*
X55076Y-19456D01*
X55162Y-19480D01*
X55362Y-19456D02*
X55505Y-19956D01*
X55619Y-19599D01*
X55734Y-19956D01*
X55876Y-19456D01*
X56076Y-19503D02*
X56105Y-19480D01*
X56162Y-19456D01*
X56305Y-19456D01*
X56362Y-19480D01*
X56391Y-19503D01*
X56419Y-19551D01*
X56419Y-19599D01*
X56391Y-19670D01*
X56048Y-19956D01*
X56419Y-19956D01*
X56934Y-19622D02*
X56934Y-19956D01*
X56791Y-19432D02*
X56648Y-19789D01*
X57019Y-19789D01*
X47339Y-30956D02*
X47425Y-30979D01*
X47568Y-30979D01*
X47625Y-30956D01*
X47653Y-30932D01*
X47682Y-30884D01*
X47682Y-30837D01*
X47653Y-30789D01*
X47625Y-30765D01*
X47568Y-30741D01*
X47453Y-30718D01*
X47396Y-30694D01*
X47368Y-30670D01*
X47339Y-30622D01*
X47339Y-30575D01*
X47368Y-30527D01*
X47396Y-30503D01*
X47453Y-30479D01*
X47596Y-30479D01*
X47682Y-30503D01*
X47882Y-30479D02*
X48025Y-30979D01*
X48139Y-30622D01*
X48253Y-30979D01*
X48396Y-30479D01*
X48596Y-30527D02*
X48625Y-30503D01*
X48682Y-30479D01*
X48825Y-30479D01*
X48882Y-30503D01*
X48910Y-30527D01*
X48939Y-30575D01*
X48939Y-30622D01*
X48910Y-30694D01*
X48568Y-30979D01*
X48939Y-30979D01*
X49482Y-30479D02*
X49196Y-30479D01*
X49168Y-30718D01*
X49196Y-30694D01*
X49253Y-30670D01*
X49396Y-30670D01*
X49453Y-30694D01*
X49482Y-30718D01*
X49510Y-30765D01*
X49510Y-30884D01*
X49482Y-30932D01*
X49453Y-30956D01*
X49396Y-30979D01*
X49253Y-30979D01*
X49196Y-30956D01*
X49168Y-30932D01*
X51276Y-38436D02*
X51362Y-38460D01*
X51505Y-38460D01*
X51562Y-38436D01*
X51590Y-38412D01*
X51619Y-38365D01*
X51619Y-38317D01*
X51590Y-38269D01*
X51562Y-38245D01*
X51505Y-38222D01*
X51390Y-38198D01*
X51333Y-38174D01*
X51305Y-38150D01*
X51276Y-38103D01*
X51276Y-38055D01*
X51305Y-38007D01*
X51333Y-37984D01*
X51390Y-37960D01*
X51533Y-37960D01*
X51619Y-37984D01*
X51819Y-37960D02*
X51962Y-38460D01*
X52076Y-38103D01*
X52190Y-38460D01*
X52333Y-37960D01*
X52533Y-38007D02*
X52562Y-37984D01*
X52619Y-37960D01*
X52762Y-37960D01*
X52819Y-37984D01*
X52847Y-38007D01*
X52876Y-38055D01*
X52876Y-38103D01*
X52847Y-38174D01*
X52505Y-38460D01*
X52876Y-38460D01*
X53390Y-37960D02*
X53276Y-37960D01*
X53219Y-37984D01*
X53190Y-38007D01*
X53133Y-38079D01*
X53105Y-38174D01*
X53105Y-38365D01*
X53133Y-38412D01*
X53162Y-38436D01*
X53219Y-38460D01*
X53333Y-38460D01*
X53390Y-38436D01*
X53419Y-38412D01*
X53447Y-38365D01*
X53447Y-38245D01*
X53419Y-38198D01*
X53390Y-38174D01*
X53333Y-38150D01*
X53219Y-38150D01*
X53162Y-38174D01*
X53133Y-38198D01*
X53105Y-38245D01*
X17703Y-19932D02*
X17789Y-19956D01*
X17932Y-19956D01*
X17989Y-19932D01*
X18018Y-19908D01*
X18046Y-19861D01*
X18046Y-19813D01*
X18018Y-19765D01*
X17989Y-19742D01*
X17932Y-19718D01*
X17818Y-19694D01*
X17761Y-19670D01*
X17732Y-19646D01*
X17703Y-19599D01*
X17703Y-19551D01*
X17732Y-19503D01*
X17761Y-19480D01*
X17818Y-19456D01*
X17961Y-19456D01*
X18046Y-19480D01*
X18246Y-19456D02*
X18389Y-19956D01*
X18503Y-19599D01*
X18618Y-19956D01*
X18761Y-19456D01*
X19303Y-19956D02*
X18961Y-19956D01*
X19132Y-19956D02*
X19132Y-19456D01*
X19075Y-19527D01*
X19018Y-19575D01*
X18961Y-19599D01*
X56788Y-53397D02*
X56874Y-53420D01*
X57016Y-53420D01*
X57074Y-53397D01*
X57102Y-53373D01*
X57131Y-53325D01*
X57131Y-53278D01*
X57102Y-53230D01*
X57074Y-53206D01*
X57016Y-53182D01*
X56902Y-53158D01*
X56845Y-53135D01*
X56816Y-53111D01*
X56788Y-53063D01*
X56788Y-53016D01*
X56816Y-52968D01*
X56845Y-52944D01*
X56902Y-52920D01*
X57045Y-52920D01*
X57131Y-52944D01*
X57331Y-52920D02*
X57474Y-53420D01*
X57588Y-53063D01*
X57702Y-53420D01*
X57845Y-52920D01*
X58045Y-52968D02*
X58074Y-52944D01*
X58131Y-52920D01*
X58274Y-52920D01*
X58331Y-52944D01*
X58359Y-52968D01*
X58388Y-53016D01*
X58388Y-53063D01*
X58359Y-53135D01*
X58016Y-53420D01*
X58388Y-53420D01*
X58731Y-53135D02*
X58674Y-53111D01*
X58645Y-53087D01*
X58616Y-53039D01*
X58616Y-53016D01*
X58645Y-52968D01*
X58674Y-52944D01*
X58731Y-52920D01*
X58845Y-52920D01*
X58902Y-52944D01*
X58931Y-52968D01*
X58959Y-53016D01*
X58959Y-53039D01*
X58931Y-53087D01*
X58902Y-53111D01*
X58845Y-53135D01*
X58731Y-53135D01*
X58674Y-53158D01*
X58645Y-53182D01*
X58616Y-53230D01*
X58616Y-53325D01*
X58645Y-53373D01*
X58674Y-53397D01*
X58731Y-53420D01*
X58845Y-53420D01*
X58902Y-53397D01*
X58931Y-53373D01*
X58959Y-53325D01*
X58959Y-53230D01*
X58931Y-53182D01*
X58902Y-53158D01*
X58845Y-53135D01*
X62300Y-19932D02*
X62385Y-19956D01*
X62528Y-19956D01*
X62585Y-19932D01*
X62614Y-19908D01*
X62642Y-19861D01*
X62642Y-19813D01*
X62614Y-19765D01*
X62585Y-19742D01*
X62528Y-19718D01*
X62414Y-19694D01*
X62357Y-19670D01*
X62328Y-19646D01*
X62300Y-19599D01*
X62300Y-19551D01*
X62328Y-19503D01*
X62357Y-19480D01*
X62414Y-19456D01*
X62557Y-19456D01*
X62642Y-19480D01*
X62842Y-19456D02*
X62985Y-19956D01*
X63100Y-19599D01*
X63214Y-19956D01*
X63357Y-19456D01*
X63557Y-19503D02*
X63585Y-19480D01*
X63642Y-19456D01*
X63785Y-19456D01*
X63842Y-19480D01*
X63871Y-19503D01*
X63900Y-19551D01*
X63900Y-19599D01*
X63871Y-19670D01*
X63528Y-19956D01*
X63900Y-19956D01*
X64185Y-19956D02*
X64300Y-19956D01*
X64357Y-19932D01*
X64385Y-19908D01*
X64442Y-19837D01*
X64471Y-19742D01*
X64471Y-19551D01*
X64442Y-19503D01*
X64414Y-19480D01*
X64357Y-19456D01*
X64242Y-19456D01*
X64185Y-19480D01*
X64157Y-19503D01*
X64128Y-19551D01*
X64128Y-19670D01*
X64157Y-19718D01*
X64185Y-19742D01*
X64242Y-19765D01*
X64357Y-19765D01*
X64414Y-19742D01*
X64442Y-19718D01*
X64471Y-19670D01*
X54819Y-30956D02*
X54905Y-30979D01*
X55048Y-30979D01*
X55105Y-30956D01*
X55134Y-30932D01*
X55162Y-30884D01*
X55162Y-30837D01*
X55134Y-30789D01*
X55105Y-30765D01*
X55048Y-30741D01*
X54934Y-30718D01*
X54876Y-30694D01*
X54848Y-30670D01*
X54819Y-30622D01*
X54819Y-30575D01*
X54848Y-30527D01*
X54876Y-30503D01*
X54934Y-30479D01*
X55076Y-30479D01*
X55162Y-30503D01*
X55362Y-30479D02*
X55505Y-30979D01*
X55619Y-30622D01*
X55734Y-30979D01*
X55876Y-30479D01*
X56048Y-30479D02*
X56419Y-30479D01*
X56219Y-30670D01*
X56305Y-30670D01*
X56362Y-30694D01*
X56391Y-30718D01*
X56419Y-30765D01*
X56419Y-30884D01*
X56391Y-30932D01*
X56362Y-30956D01*
X56305Y-30979D01*
X56134Y-30979D01*
X56076Y-30956D01*
X56048Y-30932D01*
X56791Y-30479D02*
X56848Y-30479D01*
X56905Y-30503D01*
X56934Y-30527D01*
X56962Y-30575D01*
X56991Y-30670D01*
X56991Y-30789D01*
X56962Y-30884D01*
X56934Y-30932D01*
X56905Y-30956D01*
X56848Y-30979D01*
X56791Y-30979D01*
X56734Y-30956D01*
X56705Y-30932D01*
X56676Y-30884D01*
X56648Y-30789D01*
X56648Y-30670D01*
X56676Y-30575D01*
X56705Y-30527D01*
X56734Y-30503D01*
X56791Y-30479D01*
X58756Y-38436D02*
X58842Y-38460D01*
X58985Y-38460D01*
X59042Y-38436D01*
X59071Y-38412D01*
X59099Y-38365D01*
X59099Y-38317D01*
X59071Y-38269D01*
X59042Y-38245D01*
X58985Y-38222D01*
X58871Y-38198D01*
X58813Y-38174D01*
X58785Y-38150D01*
X58756Y-38103D01*
X58756Y-38055D01*
X58785Y-38007D01*
X58813Y-37984D01*
X58871Y-37960D01*
X59013Y-37960D01*
X59099Y-37984D01*
X59299Y-37960D02*
X59442Y-38460D01*
X59556Y-38103D01*
X59671Y-38460D01*
X59813Y-37960D01*
X59985Y-37960D02*
X60356Y-37960D01*
X60156Y-38150D01*
X60242Y-38150D01*
X60299Y-38174D01*
X60328Y-38198D01*
X60356Y-38245D01*
X60356Y-38365D01*
X60328Y-38412D01*
X60299Y-38436D01*
X60242Y-38460D01*
X60071Y-38460D01*
X60013Y-38436D01*
X59985Y-38412D01*
X60928Y-38460D02*
X60585Y-38460D01*
X60756Y-38460D02*
X60756Y-37960D01*
X60699Y-38031D01*
X60642Y-38079D01*
X60585Y-38103D01*
X60725Y-45916D02*
X60811Y-45940D01*
X60953Y-45940D01*
X61011Y-45916D01*
X61039Y-45892D01*
X61068Y-45845D01*
X61068Y-45797D01*
X61039Y-45750D01*
X61011Y-45726D01*
X60953Y-45702D01*
X60839Y-45678D01*
X60782Y-45654D01*
X60753Y-45631D01*
X60725Y-45583D01*
X60725Y-45535D01*
X60753Y-45488D01*
X60782Y-45464D01*
X60839Y-45440D01*
X60982Y-45440D01*
X61068Y-45464D01*
X61268Y-45440D02*
X61411Y-45940D01*
X61525Y-45583D01*
X61639Y-45940D01*
X61782Y-45440D01*
X61953Y-45440D02*
X62325Y-45440D01*
X62125Y-45631D01*
X62211Y-45631D01*
X62268Y-45654D01*
X62296Y-45678D01*
X62325Y-45726D01*
X62325Y-45845D01*
X62296Y-45892D01*
X62268Y-45916D01*
X62211Y-45940D01*
X62039Y-45940D01*
X61982Y-45916D01*
X61953Y-45892D01*
X62553Y-45488D02*
X62582Y-45464D01*
X62639Y-45440D01*
X62782Y-45440D01*
X62839Y-45464D01*
X62868Y-45488D01*
X62896Y-45535D01*
X62896Y-45583D01*
X62868Y-45654D01*
X62525Y-45940D01*
X62896Y-45940D01*
X64268Y-53397D02*
X64354Y-53420D01*
X64497Y-53420D01*
X64554Y-53397D01*
X64582Y-53373D01*
X64611Y-53325D01*
X64611Y-53278D01*
X64582Y-53230D01*
X64554Y-53206D01*
X64497Y-53182D01*
X64382Y-53158D01*
X64325Y-53135D01*
X64297Y-53111D01*
X64268Y-53063D01*
X64268Y-53016D01*
X64297Y-52968D01*
X64325Y-52944D01*
X64382Y-52920D01*
X64525Y-52920D01*
X64611Y-52944D01*
X64811Y-52920D02*
X64954Y-53420D01*
X65068Y-53063D01*
X65182Y-53420D01*
X65325Y-52920D01*
X65497Y-52920D02*
X65868Y-52920D01*
X65668Y-53111D01*
X65754Y-53111D01*
X65811Y-53135D01*
X65840Y-53158D01*
X65868Y-53206D01*
X65868Y-53325D01*
X65840Y-53373D01*
X65811Y-53397D01*
X65754Y-53420D01*
X65582Y-53420D01*
X65525Y-53397D01*
X65497Y-53373D01*
X66068Y-52920D02*
X66440Y-52920D01*
X66240Y-53111D01*
X66325Y-53111D01*
X66382Y-53135D01*
X66411Y-53158D01*
X66440Y-53206D01*
X66440Y-53325D01*
X66411Y-53373D01*
X66382Y-53397D01*
X66325Y-53420D01*
X66154Y-53420D01*
X66097Y-53397D01*
X66068Y-53373D01*
X62300Y-30956D02*
X62385Y-30979D01*
X62528Y-30979D01*
X62585Y-30956D01*
X62614Y-30932D01*
X62642Y-30884D01*
X62642Y-30837D01*
X62614Y-30789D01*
X62585Y-30765D01*
X62528Y-30741D01*
X62414Y-30718D01*
X62357Y-30694D01*
X62328Y-30670D01*
X62300Y-30622D01*
X62300Y-30575D01*
X62328Y-30527D01*
X62357Y-30503D01*
X62414Y-30479D01*
X62557Y-30479D01*
X62642Y-30503D01*
X62842Y-30479D02*
X62985Y-30979D01*
X63100Y-30622D01*
X63214Y-30979D01*
X63357Y-30479D01*
X63528Y-30479D02*
X63900Y-30479D01*
X63700Y-30670D01*
X63785Y-30670D01*
X63842Y-30694D01*
X63871Y-30718D01*
X63900Y-30765D01*
X63900Y-30884D01*
X63871Y-30932D01*
X63842Y-30956D01*
X63785Y-30979D01*
X63614Y-30979D01*
X63557Y-30956D01*
X63528Y-30932D01*
X64414Y-30646D02*
X64414Y-30979D01*
X64271Y-30456D02*
X64128Y-30813D01*
X64500Y-30813D01*
X47339Y-19932D02*
X47425Y-19956D01*
X47568Y-19956D01*
X47625Y-19932D01*
X47653Y-19908D01*
X47682Y-19861D01*
X47682Y-19813D01*
X47653Y-19765D01*
X47625Y-19742D01*
X47568Y-19718D01*
X47453Y-19694D01*
X47396Y-19670D01*
X47368Y-19646D01*
X47339Y-19599D01*
X47339Y-19551D01*
X47368Y-19503D01*
X47396Y-19480D01*
X47453Y-19456D01*
X47596Y-19456D01*
X47682Y-19480D01*
X47882Y-19456D02*
X48025Y-19956D01*
X48139Y-19599D01*
X48253Y-19956D01*
X48396Y-19456D01*
X48939Y-19956D02*
X48596Y-19956D01*
X48768Y-19956D02*
X48768Y-19456D01*
X48710Y-19527D01*
X48653Y-19575D01*
X48596Y-19599D01*
X49282Y-19670D02*
X49225Y-19646D01*
X49196Y-19622D01*
X49168Y-19575D01*
X49168Y-19551D01*
X49196Y-19503D01*
X49225Y-19480D01*
X49282Y-19456D01*
X49396Y-19456D01*
X49453Y-19480D01*
X49482Y-19503D01*
X49510Y-19551D01*
X49510Y-19575D01*
X49482Y-19622D01*
X49453Y-19646D01*
X49396Y-19670D01*
X49282Y-19670D01*
X49225Y-19694D01*
X49196Y-19718D01*
X49168Y-19765D01*
X49168Y-19861D01*
X49196Y-19908D01*
X49225Y-19932D01*
X49282Y-19956D01*
X49396Y-19956D01*
X49453Y-19932D01*
X49482Y-19908D01*
X49510Y-19861D01*
X49510Y-19765D01*
X49482Y-19718D01*
X49453Y-19694D01*
X49396Y-19670D01*
X17703Y-30956D02*
X17789Y-30979D01*
X17932Y-30979D01*
X17989Y-30956D01*
X18018Y-30932D01*
X18046Y-30884D01*
X18046Y-30837D01*
X18018Y-30789D01*
X17989Y-30765D01*
X17932Y-30741D01*
X17818Y-30718D01*
X17761Y-30694D01*
X17732Y-30670D01*
X17703Y-30622D01*
X17703Y-30575D01*
X17732Y-30527D01*
X17761Y-30503D01*
X17818Y-30479D01*
X17961Y-30479D01*
X18046Y-30503D01*
X18246Y-30479D02*
X18389Y-30979D01*
X18503Y-30622D01*
X18618Y-30979D01*
X18761Y-30479D01*
X18961Y-30527D02*
X18989Y-30503D01*
X19046Y-30479D01*
X19189Y-30479D01*
X19246Y-30503D01*
X19275Y-30527D01*
X19303Y-30575D01*
X19303Y-30622D01*
X19275Y-30694D01*
X18932Y-30979D01*
X19303Y-30979D01*
X19672Y-38436D02*
X19758Y-38460D01*
X19901Y-38460D01*
X19958Y-38436D01*
X19986Y-38412D01*
X20015Y-38365D01*
X20015Y-38317D01*
X19986Y-38269D01*
X19958Y-38245D01*
X19901Y-38222D01*
X19786Y-38198D01*
X19729Y-38174D01*
X19701Y-38150D01*
X19672Y-38103D01*
X19672Y-38055D01*
X19701Y-38007D01*
X19729Y-37984D01*
X19786Y-37960D01*
X19929Y-37960D01*
X20015Y-37984D01*
X20215Y-37960D02*
X20358Y-38460D01*
X20472Y-38103D01*
X20586Y-38460D01*
X20729Y-37960D01*
X20901Y-37960D02*
X21272Y-37960D01*
X21072Y-38150D01*
X21158Y-38150D01*
X21215Y-38174D01*
X21243Y-38198D01*
X21272Y-38245D01*
X21272Y-38365D01*
X21243Y-38412D01*
X21215Y-38436D01*
X21158Y-38460D01*
X20986Y-38460D01*
X20929Y-38436D01*
X20901Y-38412D01*
X22428Y-53397D02*
X22514Y-53420D01*
X22656Y-53420D01*
X22714Y-53397D01*
X22742Y-53373D01*
X22771Y-53325D01*
X22771Y-53278D01*
X22742Y-53230D01*
X22714Y-53206D01*
X22656Y-53182D01*
X22542Y-53158D01*
X22485Y-53135D01*
X22456Y-53111D01*
X22428Y-53063D01*
X22428Y-53016D01*
X22456Y-52968D01*
X22485Y-52944D01*
X22542Y-52920D01*
X22685Y-52920D01*
X22771Y-52944D01*
X22971Y-52920D02*
X23114Y-53420D01*
X23228Y-53063D01*
X23342Y-53420D01*
X23485Y-52920D01*
X23971Y-53087D02*
X23971Y-53420D01*
X23828Y-52897D02*
X23685Y-53254D01*
X24056Y-53254D01*
X18688Y-60877D02*
X18773Y-60901D01*
X18916Y-60901D01*
X18973Y-60877D01*
X19002Y-60853D01*
X19031Y-60805D01*
X19031Y-60758D01*
X19002Y-60710D01*
X18973Y-60686D01*
X18916Y-60663D01*
X18802Y-60639D01*
X18745Y-60615D01*
X18716Y-60591D01*
X18688Y-60544D01*
X18688Y-60496D01*
X18716Y-60448D01*
X18745Y-60425D01*
X18802Y-60401D01*
X18945Y-60401D01*
X19031Y-60425D01*
X19231Y-60401D02*
X19373Y-60901D01*
X19488Y-60544D01*
X19602Y-60901D01*
X19745Y-60401D01*
X20259Y-60401D02*
X19973Y-60401D01*
X19945Y-60639D01*
X19973Y-60615D01*
X20031Y-60591D01*
X20173Y-60591D01*
X20231Y-60615D01*
X20259Y-60639D01*
X20288Y-60686D01*
X20288Y-60805D01*
X20259Y-60853D01*
X20231Y-60877D01*
X20173Y-60901D01*
X20031Y-60901D01*
X19973Y-60877D01*
X19945Y-60853D01*
X32664Y-19932D02*
X32750Y-19956D01*
X32893Y-19956D01*
X32950Y-19932D01*
X32978Y-19908D01*
X33007Y-19861D01*
X33007Y-19813D01*
X32978Y-19765D01*
X32950Y-19742D01*
X32893Y-19718D01*
X32778Y-19694D01*
X32721Y-19670D01*
X32693Y-19646D01*
X32664Y-19599D01*
X32664Y-19551D01*
X32693Y-19503D01*
X32721Y-19480D01*
X32778Y-19456D01*
X32921Y-19456D01*
X33007Y-19480D01*
X33207Y-19456D02*
X33350Y-19956D01*
X33464Y-19599D01*
X33578Y-19956D01*
X33721Y-19456D01*
X34207Y-19456D02*
X34093Y-19456D01*
X34035Y-19480D01*
X34007Y-19503D01*
X33950Y-19575D01*
X33921Y-19670D01*
X33921Y-19861D01*
X33950Y-19908D01*
X33978Y-19932D01*
X34035Y-19956D01*
X34150Y-19956D01*
X34207Y-19932D01*
X34235Y-19908D01*
X34264Y-19861D01*
X34264Y-19742D01*
X34235Y-19694D01*
X34207Y-19670D01*
X34150Y-19646D01*
X34035Y-19646D01*
X33978Y-19670D01*
X33950Y-19694D01*
X33921Y-19742D01*
X25184Y-30956D02*
X25269Y-30979D01*
X25412Y-30979D01*
X25469Y-30956D01*
X25498Y-30932D01*
X25527Y-30884D01*
X25527Y-30837D01*
X25498Y-30789D01*
X25469Y-30765D01*
X25412Y-30741D01*
X25298Y-30718D01*
X25241Y-30694D01*
X25212Y-30670D01*
X25184Y-30622D01*
X25184Y-30575D01*
X25212Y-30527D01*
X25241Y-30503D01*
X25298Y-30479D01*
X25441Y-30479D01*
X25527Y-30503D01*
X25727Y-30479D02*
X25869Y-30979D01*
X25984Y-30622D01*
X26098Y-30979D01*
X26241Y-30479D01*
X26412Y-30479D02*
X26812Y-30479D01*
X26555Y-30979D01*
X29121Y-38436D02*
X29206Y-38460D01*
X29349Y-38460D01*
X29406Y-38436D01*
X29435Y-38412D01*
X29464Y-38365D01*
X29464Y-38317D01*
X29435Y-38269D01*
X29406Y-38245D01*
X29349Y-38222D01*
X29235Y-38198D01*
X29178Y-38174D01*
X29149Y-38150D01*
X29121Y-38103D01*
X29121Y-38055D01*
X29149Y-38007D01*
X29178Y-37984D01*
X29235Y-37960D01*
X29378Y-37960D01*
X29464Y-37984D01*
X29664Y-37960D02*
X29806Y-38460D01*
X29921Y-38103D01*
X30035Y-38460D01*
X30178Y-37960D01*
X30492Y-38174D02*
X30435Y-38150D01*
X30406Y-38126D01*
X30378Y-38079D01*
X30378Y-38055D01*
X30406Y-38007D01*
X30435Y-37984D01*
X30492Y-37960D01*
X30606Y-37960D01*
X30664Y-37984D01*
X30692Y-38007D01*
X30721Y-38055D01*
X30721Y-38079D01*
X30692Y-38126D01*
X30664Y-38150D01*
X30606Y-38174D01*
X30492Y-38174D01*
X30435Y-38198D01*
X30406Y-38222D01*
X30378Y-38269D01*
X30378Y-38365D01*
X30406Y-38412D01*
X30435Y-38436D01*
X30492Y-38460D01*
X30606Y-38460D01*
X30664Y-38436D01*
X30692Y-38412D01*
X30721Y-38365D01*
X30721Y-38269D01*
X30692Y-38222D01*
X30664Y-38198D01*
X30606Y-38174D01*
X31089Y-45916D02*
X31175Y-45940D01*
X31318Y-45940D01*
X31375Y-45916D01*
X31404Y-45892D01*
X31432Y-45845D01*
X31432Y-45797D01*
X31404Y-45750D01*
X31375Y-45726D01*
X31318Y-45702D01*
X31204Y-45678D01*
X31146Y-45654D01*
X31118Y-45631D01*
X31089Y-45583D01*
X31089Y-45535D01*
X31118Y-45488D01*
X31146Y-45464D01*
X31204Y-45440D01*
X31346Y-45440D01*
X31432Y-45464D01*
X31632Y-45440D02*
X31775Y-45940D01*
X31889Y-45583D01*
X32004Y-45940D01*
X32146Y-45440D01*
X32404Y-45940D02*
X32518Y-45940D01*
X32575Y-45916D01*
X32604Y-45892D01*
X32661Y-45821D01*
X32689Y-45726D01*
X32689Y-45535D01*
X32661Y-45488D01*
X32632Y-45464D01*
X32575Y-45440D01*
X32461Y-45440D01*
X32404Y-45464D01*
X32375Y-45488D01*
X32346Y-45535D01*
X32346Y-45654D01*
X32375Y-45702D01*
X32404Y-45726D01*
X32461Y-45750D01*
X32575Y-45750D01*
X32632Y-45726D01*
X32661Y-45702D01*
X32689Y-45654D01*
X34347Y-53397D02*
X34433Y-53420D01*
X34575Y-53420D01*
X34633Y-53397D01*
X34661Y-53373D01*
X34690Y-53325D01*
X34690Y-53278D01*
X34661Y-53230D01*
X34633Y-53206D01*
X34575Y-53182D01*
X34461Y-53158D01*
X34404Y-53135D01*
X34375Y-53111D01*
X34347Y-53063D01*
X34347Y-53016D01*
X34375Y-52968D01*
X34404Y-52944D01*
X34461Y-52920D01*
X34604Y-52920D01*
X34690Y-52944D01*
X34890Y-52920D02*
X35033Y-53420D01*
X35147Y-53063D01*
X35261Y-53420D01*
X35404Y-52920D01*
X35947Y-53420D02*
X35604Y-53420D01*
X35775Y-53420D02*
X35775Y-52920D01*
X35718Y-52992D01*
X35661Y-53039D01*
X35604Y-53063D01*
X36318Y-52920D02*
X36375Y-52920D01*
X36433Y-52944D01*
X36461Y-52968D01*
X36490Y-53016D01*
X36518Y-53111D01*
X36518Y-53230D01*
X36490Y-53325D01*
X36461Y-53373D01*
X36433Y-53397D01*
X36375Y-53420D01*
X36318Y-53420D01*
X36261Y-53397D01*
X36233Y-53373D01*
X36204Y-53325D01*
X36175Y-53230D01*
X36175Y-53111D01*
X36204Y-53016D01*
X36233Y-52968D01*
X36261Y-52944D01*
X36318Y-52920D01*
X27851Y-60877D02*
X27937Y-60901D01*
X28079Y-60901D01*
X28137Y-60877D01*
X28165Y-60853D01*
X28194Y-60805D01*
X28194Y-60758D01*
X28165Y-60710D01*
X28137Y-60686D01*
X28079Y-60663D01*
X27965Y-60639D01*
X27908Y-60615D01*
X27879Y-60591D01*
X27851Y-60544D01*
X27851Y-60496D01*
X27879Y-60448D01*
X27908Y-60425D01*
X27965Y-60401D01*
X28108Y-60401D01*
X28194Y-60425D01*
X28394Y-60401D02*
X28537Y-60901D01*
X28651Y-60544D01*
X28765Y-60901D01*
X28908Y-60401D01*
X29451Y-60901D02*
X29108Y-60901D01*
X29279Y-60901D02*
X29279Y-60401D01*
X29222Y-60472D01*
X29165Y-60520D01*
X29108Y-60544D01*
X30022Y-60901D02*
X29679Y-60901D01*
X29851Y-60901D02*
X29851Y-60401D01*
X29794Y-60472D01*
X29737Y-60520D01*
X29679Y-60544D01*
X39859Y-19932D02*
X39944Y-19956D01*
X40087Y-19956D01*
X40144Y-19932D01*
X40173Y-19908D01*
X40202Y-19861D01*
X40202Y-19813D01*
X40173Y-19765D01*
X40144Y-19742D01*
X40087Y-19718D01*
X39973Y-19694D01*
X39916Y-19670D01*
X39887Y-19646D01*
X39859Y-19599D01*
X39859Y-19551D01*
X39887Y-19503D01*
X39916Y-19480D01*
X39973Y-19456D01*
X40116Y-19456D01*
X40202Y-19480D01*
X40402Y-19456D02*
X40544Y-19956D01*
X40659Y-19599D01*
X40773Y-19956D01*
X40916Y-19456D01*
X41459Y-19956D02*
X41116Y-19956D01*
X41287Y-19956D02*
X41287Y-19456D01*
X41230Y-19527D01*
X41173Y-19575D01*
X41116Y-19599D01*
X41687Y-19503D02*
X41716Y-19480D01*
X41773Y-19456D01*
X41916Y-19456D01*
X41973Y-19480D01*
X42002Y-19503D01*
X42030Y-19551D01*
X42030Y-19599D01*
X42002Y-19670D01*
X41659Y-19956D01*
X42030Y-19956D01*
X32378Y-30956D02*
X32464Y-30979D01*
X32607Y-30979D01*
X32664Y-30956D01*
X32693Y-30932D01*
X32721Y-30884D01*
X32721Y-30837D01*
X32693Y-30789D01*
X32664Y-30765D01*
X32607Y-30741D01*
X32493Y-30718D01*
X32435Y-30694D01*
X32407Y-30670D01*
X32378Y-30622D01*
X32378Y-30575D01*
X32407Y-30527D01*
X32435Y-30503D01*
X32493Y-30479D01*
X32635Y-30479D01*
X32721Y-30503D01*
X32921Y-30479D02*
X33064Y-30979D01*
X33178Y-30622D01*
X33293Y-30979D01*
X33435Y-30479D01*
X33978Y-30979D02*
X33635Y-30979D01*
X33807Y-30979D02*
X33807Y-30479D01*
X33750Y-30551D01*
X33693Y-30598D01*
X33635Y-30622D01*
X34178Y-30479D02*
X34550Y-30479D01*
X34350Y-30670D01*
X34435Y-30670D01*
X34493Y-30694D01*
X34521Y-30718D01*
X34550Y-30765D01*
X34550Y-30884D01*
X34521Y-30932D01*
X34493Y-30956D01*
X34435Y-30979D01*
X34264Y-30979D01*
X34207Y-30956D01*
X34178Y-30932D01*
X36315Y-38436D02*
X36401Y-38460D01*
X36544Y-38460D01*
X36601Y-38436D01*
X36630Y-38412D01*
X36658Y-38365D01*
X36658Y-38317D01*
X36630Y-38269D01*
X36601Y-38245D01*
X36544Y-38222D01*
X36430Y-38198D01*
X36373Y-38174D01*
X36344Y-38150D01*
X36315Y-38103D01*
X36315Y-38055D01*
X36344Y-38007D01*
X36373Y-37984D01*
X36430Y-37960D01*
X36573Y-37960D01*
X36658Y-37984D01*
X36858Y-37960D02*
X37001Y-38460D01*
X37115Y-38103D01*
X37230Y-38460D01*
X37373Y-37960D01*
X37915Y-38460D02*
X37573Y-38460D01*
X37744Y-38460D02*
X37744Y-37960D01*
X37687Y-38031D01*
X37630Y-38079D01*
X37573Y-38103D01*
X38430Y-38126D02*
X38430Y-38460D01*
X38287Y-37936D02*
X38144Y-38293D01*
X38515Y-38293D01*
X38284Y-45916D02*
X38370Y-45940D01*
X38512Y-45940D01*
X38570Y-45916D01*
X38598Y-45892D01*
X38627Y-45845D01*
X38627Y-45797D01*
X38598Y-45750D01*
X38570Y-45726D01*
X38512Y-45702D01*
X38398Y-45678D01*
X38341Y-45654D01*
X38312Y-45631D01*
X38284Y-45583D01*
X38284Y-45535D01*
X38312Y-45488D01*
X38341Y-45464D01*
X38398Y-45440D01*
X38541Y-45440D01*
X38627Y-45464D01*
X38827Y-45440D02*
X38970Y-45940D01*
X39084Y-45583D01*
X39198Y-45940D01*
X39341Y-45440D01*
X39884Y-45940D02*
X39541Y-45940D01*
X39712Y-45940D02*
X39712Y-45440D01*
X39655Y-45511D01*
X39598Y-45559D01*
X39541Y-45583D01*
X40427Y-45440D02*
X40141Y-45440D01*
X40112Y-45678D01*
X40141Y-45654D01*
X40198Y-45631D01*
X40341Y-45631D01*
X40398Y-45654D01*
X40427Y-45678D01*
X40455Y-45726D01*
X40455Y-45845D01*
X40427Y-45892D01*
X40398Y-45916D01*
X40341Y-45940D01*
X40198Y-45940D01*
X40141Y-45916D01*
X40112Y-45892D01*
X41827Y-53397D02*
X41913Y-53420D01*
X42056Y-53420D01*
X42113Y-53397D01*
X42141Y-53373D01*
X42170Y-53325D01*
X42170Y-53278D01*
X42141Y-53230D01*
X42113Y-53206D01*
X42056Y-53182D01*
X41941Y-53158D01*
X41884Y-53135D01*
X41856Y-53111D01*
X41827Y-53063D01*
X41827Y-53016D01*
X41856Y-52968D01*
X41884Y-52944D01*
X41941Y-52920D01*
X42084Y-52920D01*
X42170Y-52944D01*
X42370Y-52920D02*
X42513Y-53420D01*
X42627Y-53063D01*
X42741Y-53420D01*
X42884Y-52920D01*
X43427Y-53420D02*
X43084Y-53420D01*
X43256Y-53420D02*
X43256Y-52920D01*
X43199Y-52992D01*
X43141Y-53039D01*
X43084Y-53063D01*
X43941Y-52920D02*
X43827Y-52920D01*
X43770Y-52944D01*
X43741Y-52968D01*
X43684Y-53039D01*
X43656Y-53135D01*
X43656Y-53325D01*
X43684Y-53373D01*
X43713Y-53397D01*
X43770Y-53420D01*
X43884Y-53420D01*
X43941Y-53397D01*
X43970Y-53373D01*
X43999Y-53325D01*
X43999Y-53206D01*
X43970Y-53158D01*
X43941Y-53135D01*
X43884Y-53111D01*
X43770Y-53111D01*
X43713Y-53135D01*
X43684Y-53158D01*
X43656Y-53206D01*
X37300Y-60877D02*
X37385Y-60901D01*
X37528Y-60901D01*
X37585Y-60877D01*
X37614Y-60853D01*
X37642Y-60805D01*
X37642Y-60758D01*
X37614Y-60710D01*
X37585Y-60686D01*
X37528Y-60663D01*
X37414Y-60639D01*
X37357Y-60615D01*
X37328Y-60591D01*
X37300Y-60544D01*
X37300Y-60496D01*
X37328Y-60448D01*
X37357Y-60425D01*
X37414Y-60401D01*
X37557Y-60401D01*
X37642Y-60425D01*
X37842Y-60401D02*
X37985Y-60901D01*
X38100Y-60544D01*
X38214Y-60901D01*
X38357Y-60401D01*
X38900Y-60901D02*
X38557Y-60901D01*
X38728Y-60901D02*
X38728Y-60401D01*
X38671Y-60472D01*
X38614Y-60520D01*
X38557Y-60544D01*
X39100Y-60401D02*
X39500Y-60401D01*
X39242Y-60901D01*
X70905Y-22486D02*
X70505Y-22486D01*
X70505Y-22333D01*
X70525Y-22295D01*
X70544Y-22276D01*
X70582Y-22257D01*
X70639Y-22257D01*
X70677Y-22276D01*
X70696Y-22295D01*
X70715Y-22333D01*
X70715Y-22486D01*
X70544Y-22105D02*
X70525Y-22086D01*
X70505Y-22048D01*
X70505Y-21952D01*
X70525Y-21914D01*
X70544Y-21895D01*
X70582Y-21876D01*
X70620Y-21876D01*
X70677Y-21895D01*
X70905Y-22124D01*
X70905Y-21876D01*
X70905Y-15846D02*
X70505Y-15846D01*
X70505Y-15694D01*
X70525Y-15655D01*
X70544Y-15636D01*
X70582Y-15617D01*
X70639Y-15617D01*
X70677Y-15636D01*
X70696Y-15655D01*
X70715Y-15694D01*
X70715Y-15846D01*
X70905Y-15236D02*
X70905Y-15465D01*
X70905Y-15351D02*
X70505Y-15351D01*
X70563Y-15389D01*
X70601Y-15427D01*
X70620Y-15465D01*
X70905Y-30360D02*
X70505Y-30360D01*
X70505Y-30207D01*
X70525Y-30169D01*
X70544Y-30150D01*
X70582Y-30131D01*
X70639Y-30131D01*
X70677Y-30150D01*
X70696Y-30169D01*
X70715Y-30207D01*
X70715Y-30360D01*
X70505Y-29998D02*
X70505Y-29750D01*
X70658Y-29884D01*
X70658Y-29826D01*
X70677Y-29788D01*
X70696Y-29769D01*
X70734Y-29750D01*
X70829Y-29750D01*
X70867Y-29769D01*
X70886Y-29788D01*
X70905Y-29826D01*
X70905Y-29941D01*
X70886Y-29979D01*
X70867Y-29998D01*
G54D10*
X20959Y-44253D02*
X21184Y-44253D01*
X21072Y-44647D02*
X21072Y-44253D01*
X21522Y-44647D02*
X21297Y-44647D01*
X21409Y-44647D02*
X21409Y-44253D01*
X21372Y-44310D01*
X21334Y-44347D01*
X21297Y-44366D01*
X19853Y-44253D02*
X20078Y-44253D01*
X19966Y-44647D02*
X19966Y-44253D01*
X20209Y-44441D02*
X20341Y-44441D01*
X20397Y-44647D02*
X20209Y-44647D01*
X20209Y-44253D01*
X20397Y-44253D01*
X20566Y-44441D02*
X20697Y-44441D01*
X20753Y-44647D02*
X20566Y-44647D01*
X20566Y-44253D01*
X20753Y-44253D01*
X20922Y-44647D02*
X20922Y-44253D01*
X21147Y-44647D01*
X21147Y-44253D01*
X21316Y-44628D02*
X21372Y-44647D01*
X21466Y-44647D01*
X21503Y-44628D01*
X21522Y-44610D01*
X21541Y-44572D01*
X21541Y-44535D01*
X21522Y-44497D01*
X21503Y-44478D01*
X21466Y-44460D01*
X21391Y-44441D01*
X21353Y-44422D01*
X21334Y-44403D01*
X21316Y-44366D01*
X21316Y-44328D01*
X21334Y-44291D01*
X21353Y-44272D01*
X21391Y-44253D01*
X21484Y-44253D01*
X21541Y-44272D01*
X21784Y-44460D02*
X21784Y-44647D01*
X21653Y-44253D02*
X21784Y-44460D01*
X21916Y-44253D01*
X22028Y-44291D02*
X22047Y-44272D01*
X22084Y-44253D01*
X22178Y-44253D01*
X22215Y-44272D01*
X22234Y-44291D01*
X22253Y-44328D01*
X22253Y-44366D01*
X22234Y-44422D01*
X22009Y-44647D01*
X22253Y-44647D01*
X22497Y-44253D02*
X22534Y-44253D01*
X22572Y-44272D01*
X22590Y-44291D01*
X22609Y-44328D01*
X22628Y-44403D01*
X22628Y-44497D01*
X22609Y-44572D01*
X22590Y-44610D01*
X22572Y-44628D01*
X22534Y-44647D01*
X22497Y-44647D01*
X22459Y-44628D01*
X22440Y-44610D01*
X22422Y-44572D01*
X22403Y-44497D01*
X22403Y-44403D01*
X22422Y-44328D01*
X22440Y-44291D01*
X22459Y-44272D01*
X22497Y-44253D01*
M02*
