G04 (created by PCBNEW (2013-07-07 BZR 4022)-stable) date 11/2/2014 12:02:25 AM*
%MOIN*%
G04 Gerber Fmt 3.4, Leading zero omitted, Abs format*
%FSLAX34Y34*%
G01*
G70*
G90*
G04 APERTURE LIST*
%ADD10C,0.00590551*%
%ADD11C,0.09*%
%ADD12C,0.157*%
%ADD13C,0.065*%
%ADD14R,0.065X0.065*%
%ADD15R,0.06X0.06*%
%ADD16C,0.06*%
%ADD17C,0.035*%
%ADD18C,0.01*%
G04 APERTURE END LIST*
G54D10*
G54D11*
X55330Y-42488D03*
X52830Y-43488D03*
G54D12*
X54330Y-44488D03*
G54D13*
X50830Y-43488D03*
G54D14*
X50830Y-46488D03*
G54D13*
X53830Y-46488D03*
G54D14*
X54830Y-46488D03*
X52362Y-47988D03*
G54D13*
X56299Y-47988D03*
G54D11*
X41944Y-27527D03*
X39444Y-28527D03*
G54D12*
X40944Y-29527D03*
G54D13*
X37444Y-28527D03*
G54D14*
X37444Y-31527D03*
G54D13*
X40444Y-31527D03*
G54D14*
X41444Y-31527D03*
X38976Y-33027D03*
G54D13*
X42913Y-33027D03*
G54D11*
X45881Y-35007D03*
X43381Y-36007D03*
G54D12*
X44881Y-37007D03*
G54D13*
X41381Y-36007D03*
G54D14*
X41381Y-39007D03*
G54D13*
X44381Y-39007D03*
G54D14*
X45381Y-39007D03*
X42913Y-40507D03*
G54D13*
X46850Y-40507D03*
G54D11*
X47850Y-42488D03*
X45350Y-43488D03*
G54D12*
X46850Y-44488D03*
G54D13*
X43350Y-43488D03*
G54D14*
X43350Y-46488D03*
G54D13*
X46350Y-46488D03*
G54D14*
X47350Y-46488D03*
X44881Y-47988D03*
G54D13*
X48818Y-47988D03*
G54D11*
X51393Y-49968D03*
X48893Y-50968D03*
G54D12*
X50393Y-51968D03*
G54D13*
X46893Y-50968D03*
G54D14*
X46893Y-53968D03*
G54D13*
X49893Y-53968D03*
G54D14*
X50893Y-53968D03*
X48425Y-55468D03*
G54D13*
X52362Y-55468D03*
G54D11*
X64385Y-57448D03*
X61885Y-58448D03*
G54D12*
X63385Y-59448D03*
G54D13*
X59885Y-58448D03*
G54D14*
X59885Y-61448D03*
G54D13*
X62885Y-61448D03*
G54D14*
X63885Y-61448D03*
X61417Y-62948D03*
G54D13*
X65354Y-62948D03*
G54D11*
X56905Y-16503D03*
X54405Y-17503D03*
G54D12*
X55905Y-18503D03*
G54D13*
X52405Y-17503D03*
G54D14*
X52405Y-20503D03*
G54D13*
X55405Y-20503D03*
G54D14*
X56405Y-20503D03*
X53937Y-22003D03*
G54D13*
X57874Y-22003D03*
G54D11*
X49425Y-27527D03*
X46925Y-28527D03*
G54D12*
X48425Y-29527D03*
G54D13*
X44925Y-28527D03*
G54D14*
X44925Y-31527D03*
G54D13*
X47925Y-31527D03*
G54D14*
X48925Y-31527D03*
X46456Y-33027D03*
G54D13*
X50393Y-33027D03*
G54D11*
X53362Y-35007D03*
X50862Y-36007D03*
G54D12*
X52362Y-37007D03*
G54D13*
X48862Y-36007D03*
G54D14*
X48862Y-39007D03*
G54D13*
X51862Y-39007D03*
G54D14*
X52862Y-39007D03*
X50393Y-40507D03*
G54D13*
X54330Y-40507D03*
G54D11*
X19503Y-16503D03*
X17003Y-17503D03*
G54D12*
X18503Y-18503D03*
G54D13*
X15003Y-17503D03*
G54D14*
X15003Y-20503D03*
G54D13*
X18003Y-20503D03*
G54D14*
X19003Y-20503D03*
X16535Y-22003D03*
G54D13*
X20472Y-22003D03*
G54D11*
X58874Y-49968D03*
X56374Y-50968D03*
G54D12*
X57874Y-51968D03*
G54D13*
X54374Y-50968D03*
G54D14*
X54374Y-53968D03*
G54D13*
X57374Y-53968D03*
G54D14*
X58374Y-53968D03*
X55905Y-55468D03*
G54D13*
X59842Y-55468D03*
G54D11*
X64385Y-16503D03*
X61885Y-17503D03*
G54D12*
X63385Y-18503D03*
G54D13*
X59885Y-17503D03*
G54D14*
X59885Y-20503D03*
G54D13*
X62885Y-20503D03*
G54D14*
X63885Y-20503D03*
X61417Y-22003D03*
G54D13*
X65354Y-22003D03*
G54D11*
X56905Y-27527D03*
X54405Y-28527D03*
G54D12*
X55905Y-29527D03*
G54D13*
X52405Y-28527D03*
G54D14*
X52405Y-31527D03*
G54D13*
X55405Y-31527D03*
G54D14*
X56405Y-31527D03*
X53937Y-33027D03*
G54D13*
X57874Y-33027D03*
G54D11*
X60842Y-35007D03*
X58342Y-36007D03*
G54D12*
X59842Y-37007D03*
G54D13*
X56342Y-36007D03*
G54D14*
X56342Y-39007D03*
G54D13*
X59342Y-39007D03*
G54D14*
X60342Y-39007D03*
X57874Y-40507D03*
G54D13*
X61811Y-40507D03*
G54D11*
X62811Y-42488D03*
X60311Y-43488D03*
G54D12*
X61811Y-44488D03*
G54D13*
X58311Y-43488D03*
G54D14*
X58311Y-46488D03*
G54D13*
X61311Y-46488D03*
G54D14*
X62311Y-46488D03*
X59842Y-47988D03*
G54D13*
X63779Y-47988D03*
G54D11*
X66354Y-49968D03*
X63854Y-50968D03*
G54D12*
X65354Y-51968D03*
G54D13*
X61854Y-50968D03*
G54D14*
X61854Y-53968D03*
G54D13*
X64854Y-53968D03*
G54D14*
X65854Y-53968D03*
X63385Y-55468D03*
G54D13*
X67322Y-55468D03*
G54D11*
X64385Y-27527D03*
X61885Y-28527D03*
G54D12*
X63385Y-29527D03*
G54D13*
X59885Y-28527D03*
G54D14*
X59885Y-31527D03*
G54D13*
X62885Y-31527D03*
G54D14*
X63885Y-31527D03*
X61417Y-33027D03*
G54D13*
X65354Y-33027D03*
G54D11*
X49425Y-16503D03*
X46925Y-17503D03*
G54D12*
X48425Y-18503D03*
G54D13*
X44925Y-17503D03*
G54D14*
X44925Y-20503D03*
G54D13*
X47925Y-20503D03*
G54D14*
X48925Y-20503D03*
X46456Y-22003D03*
G54D13*
X50393Y-22003D03*
G54D11*
X19503Y-27527D03*
X17003Y-28527D03*
G54D12*
X18503Y-29527D03*
G54D13*
X15003Y-28527D03*
G54D14*
X15003Y-31527D03*
G54D13*
X18003Y-31527D03*
G54D14*
X19003Y-31527D03*
X16535Y-33027D03*
G54D13*
X20472Y-33027D03*
G54D11*
X21472Y-35007D03*
X18972Y-36007D03*
G54D12*
X20472Y-37007D03*
G54D13*
X16972Y-36007D03*
G54D14*
X16972Y-39007D03*
G54D13*
X19972Y-39007D03*
G54D14*
X20972Y-39007D03*
X18503Y-40507D03*
G54D13*
X22440Y-40507D03*
G54D11*
X24228Y-49968D03*
X21728Y-50968D03*
G54D12*
X23228Y-51968D03*
G54D13*
X19728Y-50968D03*
G54D14*
X19728Y-53968D03*
G54D13*
X22728Y-53968D03*
G54D14*
X23728Y-53968D03*
X21259Y-55468D03*
G54D13*
X25196Y-55468D03*
G54D11*
X20488Y-57448D03*
X17988Y-58448D03*
G54D12*
X19488Y-59448D03*
G54D13*
X15988Y-58448D03*
G54D14*
X15988Y-61448D03*
G54D13*
X18988Y-61448D03*
G54D14*
X19988Y-61448D03*
X17519Y-62948D03*
G54D13*
X21456Y-62948D03*
G54D11*
X34464Y-16503D03*
X31964Y-17503D03*
G54D12*
X33464Y-18503D03*
G54D13*
X29964Y-17503D03*
G54D14*
X29964Y-20503D03*
G54D13*
X32964Y-20503D03*
G54D14*
X33964Y-20503D03*
X31496Y-22003D03*
G54D13*
X35433Y-22003D03*
G54D11*
X26984Y-27527D03*
X24484Y-28527D03*
G54D12*
X25984Y-29527D03*
G54D13*
X22484Y-28527D03*
G54D14*
X22484Y-31527D03*
G54D13*
X25484Y-31527D03*
G54D14*
X26484Y-31527D03*
X24015Y-33027D03*
G54D13*
X27952Y-33027D03*
G54D11*
X30921Y-35007D03*
X28421Y-36007D03*
G54D12*
X29921Y-37007D03*
G54D13*
X26421Y-36007D03*
G54D14*
X26421Y-39007D03*
G54D13*
X29421Y-39007D03*
G54D14*
X30421Y-39007D03*
X27952Y-40507D03*
G54D13*
X31889Y-40507D03*
G54D11*
X32889Y-42488D03*
X30389Y-43488D03*
G54D12*
X31889Y-44488D03*
G54D13*
X28389Y-43488D03*
G54D14*
X28389Y-46488D03*
G54D13*
X31389Y-46488D03*
G54D14*
X32389Y-46488D03*
X29921Y-47988D03*
G54D13*
X33858Y-47988D03*
G54D11*
X36433Y-49968D03*
X33933Y-50968D03*
G54D12*
X35433Y-51968D03*
G54D13*
X31933Y-50968D03*
G54D14*
X31933Y-53968D03*
G54D13*
X34933Y-53968D03*
G54D14*
X35933Y-53968D03*
X33464Y-55468D03*
G54D13*
X37401Y-55468D03*
G54D11*
X29937Y-57448D03*
X27437Y-58448D03*
G54D12*
X28937Y-59448D03*
G54D13*
X25437Y-58448D03*
G54D14*
X25437Y-61448D03*
G54D13*
X28437Y-61448D03*
G54D14*
X29437Y-61448D03*
X26968Y-62948D03*
G54D13*
X30905Y-62948D03*
G54D11*
X41944Y-16503D03*
X39444Y-17503D03*
G54D12*
X40944Y-18503D03*
G54D13*
X37444Y-17503D03*
G54D14*
X37444Y-20503D03*
G54D13*
X40444Y-20503D03*
G54D14*
X41444Y-20503D03*
X38976Y-22003D03*
G54D13*
X42913Y-22003D03*
G54D11*
X34464Y-27527D03*
X31964Y-28527D03*
G54D12*
X33464Y-29527D03*
G54D13*
X29964Y-28527D03*
G54D14*
X29964Y-31527D03*
G54D13*
X32964Y-31527D03*
G54D14*
X33964Y-31527D03*
X31496Y-33027D03*
G54D13*
X35433Y-33027D03*
G54D11*
X38401Y-35007D03*
X35901Y-36007D03*
G54D12*
X37401Y-37007D03*
G54D13*
X33901Y-36007D03*
G54D14*
X33901Y-39007D03*
G54D13*
X36901Y-39007D03*
G54D14*
X37901Y-39007D03*
X35433Y-40507D03*
G54D13*
X39370Y-40507D03*
G54D11*
X40370Y-42488D03*
X37870Y-43488D03*
G54D12*
X39370Y-44488D03*
G54D13*
X35870Y-43488D03*
G54D14*
X35870Y-46488D03*
G54D13*
X38870Y-46488D03*
G54D14*
X39870Y-46488D03*
X37401Y-47988D03*
G54D13*
X41338Y-47988D03*
G54D11*
X43913Y-49968D03*
X41413Y-50968D03*
G54D12*
X42913Y-51968D03*
G54D13*
X39413Y-50968D03*
G54D14*
X39413Y-53968D03*
G54D13*
X42413Y-53968D03*
G54D14*
X43413Y-53968D03*
X40944Y-55468D03*
G54D13*
X44881Y-55468D03*
G54D11*
X39385Y-57448D03*
X36885Y-58448D03*
G54D12*
X38385Y-59448D03*
G54D13*
X34885Y-58448D03*
G54D14*
X34885Y-61448D03*
G54D13*
X37885Y-61448D03*
G54D14*
X38885Y-61448D03*
X36417Y-62948D03*
G54D13*
X40354Y-62948D03*
G54D15*
X72744Y-24440D03*
G54D16*
X71744Y-24440D03*
X72744Y-23440D03*
X71744Y-23440D03*
X72744Y-22440D03*
X71744Y-22440D03*
X72744Y-21440D03*
X71744Y-21440D03*
X72744Y-20440D03*
X71744Y-20440D03*
G54D15*
X72744Y-16551D03*
G54D16*
X71744Y-16551D03*
X72744Y-15551D03*
X71744Y-15551D03*
X72744Y-14551D03*
X71744Y-14551D03*
G54D15*
X72744Y-32314D03*
G54D16*
X71744Y-32314D03*
X72744Y-31314D03*
X71744Y-31314D03*
X72744Y-30314D03*
X71744Y-30314D03*
X72744Y-29314D03*
X71744Y-29314D03*
X72744Y-28314D03*
X71744Y-28314D03*
X16759Y-47488D03*
X15759Y-41488D03*
X21759Y-47488D03*
X21759Y-41488D03*
X20759Y-41488D03*
X19759Y-41488D03*
X18759Y-41488D03*
X17759Y-41488D03*
X16759Y-41488D03*
X22759Y-41488D03*
X23759Y-41488D03*
X24759Y-41488D03*
X25759Y-41488D03*
X26759Y-41488D03*
X20759Y-47488D03*
X19759Y-47488D03*
X18759Y-47488D03*
X17759Y-47488D03*
X15759Y-47488D03*
X22759Y-47488D03*
X23759Y-47488D03*
X24759Y-47488D03*
X25759Y-47488D03*
X26759Y-47488D03*
X26759Y-42488D03*
G54D17*
X69291Y-54330D03*
X22440Y-39763D03*
X20078Y-29133D03*
X15354Y-23622D03*
X14173Y-32283D03*
X14173Y-25590D03*
X70472Y-13385D03*
X12992Y-23228D03*
X12992Y-39763D03*
X40944Y-15354D03*
X13385Y-22440D03*
X68897Y-63779D03*
X68897Y-65354D03*
X73622Y-61811D03*
X73622Y-64173D03*
X63385Y-14173D03*
X74015Y-61023D03*
X74015Y-62992D03*
X68110Y-63779D03*
X68110Y-64566D03*
X26771Y-40157D03*
X25196Y-40157D03*
X25196Y-37401D03*
X22440Y-34645D03*
X21653Y-24409D03*
X67716Y-32283D03*
X67322Y-20866D03*
X12992Y-46456D03*
X12992Y-48031D03*
X69291Y-21259D03*
X69291Y-16535D03*
X12598Y-31496D03*
X13779Y-48031D03*
X13779Y-46456D03*
X73622Y-18503D03*
X65748Y-14566D03*
X26377Y-43307D03*
X68503Y-23228D03*
X68503Y-14960D03*
X13779Y-39763D03*
X69685Y-39370D03*
X29133Y-40157D03*
X38976Y-43307D03*
X37795Y-51181D03*
X32677Y-48818D03*
X26377Y-44881D03*
X27559Y-44881D03*
X69685Y-22440D03*
X69685Y-15354D03*
X26377Y-44094D03*
G54D18*
X58311Y-46488D02*
X58311Y-47681D01*
X73622Y-32192D02*
X72744Y-31314D01*
X73622Y-44881D02*
X73622Y-32192D01*
X71259Y-47244D02*
X73622Y-44881D01*
X63385Y-47244D02*
X71259Y-47244D01*
X61811Y-48818D02*
X63385Y-47244D01*
X59448Y-48818D02*
X61811Y-48818D01*
X58311Y-47681D02*
X59448Y-48818D01*
X50830Y-46488D02*
X50830Y-47681D01*
X56267Y-46488D02*
X58311Y-46488D01*
X53937Y-48818D02*
X56267Y-46488D01*
X51968Y-48818D02*
X53937Y-48818D01*
X50830Y-47681D02*
X51968Y-48818D01*
X43350Y-46488D02*
X43350Y-47681D01*
X48787Y-46488D02*
X50830Y-46488D01*
X46456Y-48818D02*
X48787Y-46488D01*
X44488Y-48818D02*
X46456Y-48818D01*
X43350Y-47681D02*
X44488Y-48818D01*
X35870Y-46488D02*
X35870Y-47681D01*
X41700Y-46488D02*
X43350Y-46488D01*
X39370Y-48818D02*
X41700Y-46488D01*
X37007Y-48818D02*
X39370Y-48818D01*
X35870Y-47681D02*
X37007Y-48818D01*
X28389Y-46488D02*
X28389Y-47681D01*
X34220Y-46488D02*
X35870Y-46488D01*
X31889Y-48818D02*
X34220Y-46488D01*
X29527Y-48818D02*
X31889Y-48818D01*
X28389Y-47681D02*
X29527Y-48818D01*
X33464Y-55468D02*
X33464Y-55437D01*
X33464Y-55437D02*
X34933Y-53968D01*
X25437Y-58448D02*
X27437Y-58448D01*
X39413Y-50968D02*
X41413Y-50968D01*
X40944Y-55468D02*
X40944Y-55437D01*
X40944Y-55437D02*
X42413Y-53968D01*
X34885Y-58448D02*
X36885Y-58448D01*
X36417Y-62948D02*
X36417Y-62917D01*
X36417Y-62917D02*
X37885Y-61448D01*
X53937Y-33027D02*
X53937Y-32996D01*
X53937Y-32996D02*
X55405Y-31527D01*
X56342Y-36007D02*
X58342Y-36007D01*
X57874Y-40507D02*
X57874Y-40476D01*
X57874Y-40476D02*
X59342Y-39007D01*
X58311Y-43488D02*
X60311Y-43488D01*
X21759Y-47488D02*
X21759Y-49106D01*
X16807Y-60629D02*
X15988Y-61448D01*
X20472Y-60629D02*
X16807Y-60629D01*
X20866Y-60236D02*
X20472Y-60629D01*
X20866Y-59055D02*
X20866Y-60236D01*
X18897Y-57086D02*
X20866Y-59055D01*
X18897Y-50787D02*
X18897Y-57086D01*
X19685Y-50000D02*
X18897Y-50787D01*
X20866Y-50000D02*
X19685Y-50000D01*
X21759Y-49106D02*
X20866Y-50000D01*
X34885Y-61448D02*
X34885Y-62444D01*
X40913Y-61448D02*
X59885Y-61448D01*
X38582Y-63779D02*
X40913Y-61448D01*
X36220Y-63779D02*
X38582Y-63779D01*
X34885Y-62444D02*
X36220Y-63779D01*
X25437Y-61448D02*
X25437Y-62444D01*
X31464Y-61448D02*
X34885Y-61448D01*
X29133Y-63779D02*
X31464Y-61448D01*
X26771Y-63779D02*
X29133Y-63779D01*
X25437Y-62444D02*
X26771Y-63779D01*
X15988Y-61448D02*
X15988Y-62838D01*
X21622Y-61448D02*
X25437Y-61448D01*
X19291Y-63779D02*
X21622Y-61448D01*
X16929Y-63779D02*
X19291Y-63779D01*
X15988Y-62838D02*
X16929Y-63779D01*
X59842Y-47988D02*
X59842Y-47956D01*
X59842Y-47956D02*
X61311Y-46488D01*
X59885Y-28527D02*
X61885Y-28527D01*
X61417Y-33027D02*
X61417Y-32996D01*
X61417Y-32996D02*
X62885Y-31527D01*
X19728Y-50968D02*
X21728Y-50968D01*
X21259Y-55468D02*
X21259Y-55437D01*
X21259Y-55437D02*
X22728Y-53968D01*
X54374Y-50968D02*
X56374Y-50968D01*
X46893Y-50968D02*
X48893Y-50968D01*
X48425Y-55468D02*
X48425Y-55437D01*
X48425Y-55437D02*
X49893Y-53968D01*
X59885Y-58448D02*
X61885Y-58448D01*
X61417Y-62948D02*
X61417Y-62917D01*
X61417Y-62917D02*
X62885Y-61448D01*
X61854Y-53968D02*
X61854Y-55161D01*
X67322Y-54330D02*
X69291Y-54330D01*
X65354Y-56299D02*
X67322Y-54330D01*
X62992Y-56299D02*
X65354Y-56299D01*
X61854Y-55161D02*
X62992Y-56299D01*
X54374Y-53968D02*
X54374Y-55161D01*
X60204Y-53968D02*
X61854Y-53968D01*
X57874Y-56299D02*
X60204Y-53968D01*
X55511Y-56299D02*
X57874Y-56299D01*
X54374Y-55161D02*
X55511Y-56299D01*
X46893Y-53968D02*
X46893Y-55161D01*
X52724Y-53968D02*
X54374Y-53968D01*
X50393Y-56299D02*
X52724Y-53968D01*
X48031Y-56299D02*
X50393Y-56299D01*
X46893Y-55161D02*
X48031Y-56299D01*
X39413Y-53968D02*
X39413Y-55161D01*
X45244Y-53968D02*
X46893Y-53968D01*
X42913Y-56299D02*
X45244Y-53968D01*
X40551Y-56299D02*
X42913Y-56299D01*
X39413Y-55161D02*
X40551Y-56299D01*
X31933Y-53968D02*
X31933Y-55161D01*
X38157Y-53968D02*
X39413Y-53968D01*
X35826Y-56299D02*
X38157Y-53968D01*
X33070Y-56299D02*
X35826Y-56299D01*
X31933Y-55161D02*
X33070Y-56299D01*
X19728Y-53968D02*
X19728Y-55161D01*
X25952Y-53968D02*
X31933Y-53968D01*
X23622Y-56299D02*
X25952Y-53968D01*
X20866Y-56299D02*
X23622Y-56299D01*
X19728Y-55161D02*
X20866Y-56299D01*
X55905Y-55468D02*
X55905Y-55437D01*
X55905Y-55437D02*
X57374Y-53968D01*
X61854Y-50968D02*
X63854Y-50968D01*
X63385Y-55468D02*
X63385Y-55437D01*
X63385Y-55437D02*
X64854Y-53968D01*
X64385Y-27527D02*
X64141Y-27527D01*
X19759Y-40476D02*
X19759Y-41488D01*
X20472Y-39763D02*
X19759Y-40476D01*
X22440Y-39763D02*
X20472Y-39763D01*
X22834Y-26377D02*
X20078Y-29133D01*
X62992Y-26377D02*
X22834Y-26377D01*
X64141Y-27527D02*
X62992Y-26377D01*
X64385Y-27527D02*
X73259Y-27527D01*
X74409Y-23106D02*
X72744Y-21440D01*
X74409Y-26377D02*
X74409Y-23106D01*
X73259Y-27527D02*
X74409Y-26377D01*
X71200Y-18897D02*
X72744Y-20440D01*
X70078Y-18897D02*
X71200Y-18897D01*
X65748Y-23228D02*
X70078Y-18897D01*
X64960Y-23228D02*
X65748Y-23228D01*
X64566Y-23622D02*
X64960Y-23228D01*
X15354Y-23622D02*
X64566Y-23622D01*
X71744Y-20440D02*
X68929Y-20440D01*
X18748Y-41488D02*
X18759Y-41488D01*
X17716Y-42519D02*
X18748Y-41488D01*
X14960Y-42519D02*
X17716Y-42519D01*
X12598Y-40157D02*
X14960Y-42519D01*
X12598Y-33858D02*
X12598Y-40157D01*
X14173Y-32283D02*
X12598Y-33858D01*
X15748Y-24015D02*
X14173Y-25590D01*
X65354Y-24015D02*
X15748Y-24015D01*
X68929Y-20440D02*
X65354Y-24015D01*
X16759Y-41488D02*
X16759Y-41507D01*
X43307Y-13385D02*
X70472Y-13385D01*
X41732Y-14960D02*
X43307Y-13385D01*
X14960Y-14960D02*
X41732Y-14960D01*
X12992Y-16929D02*
X14960Y-14960D01*
X12992Y-23228D02*
X12992Y-16929D01*
X15354Y-42125D02*
X12992Y-39763D01*
X16141Y-42125D02*
X15354Y-42125D01*
X16759Y-41507D02*
X16141Y-42125D01*
X15354Y-15354D02*
X40944Y-15354D01*
X13385Y-17322D02*
X15354Y-15354D01*
X13385Y-22440D02*
X13385Y-17322D01*
X68897Y-65354D02*
X68897Y-63779D01*
X73622Y-64173D02*
X73622Y-61811D01*
X58374Y-53968D02*
X59417Y-53968D01*
X65035Y-53149D02*
X65854Y-53968D01*
X60236Y-53149D02*
X65035Y-53149D01*
X59417Y-53968D02*
X60236Y-53149D01*
X50893Y-53968D02*
X51937Y-53968D01*
X57555Y-53149D02*
X58374Y-53968D01*
X52755Y-53149D02*
X57555Y-53149D01*
X51937Y-53968D02*
X52755Y-53149D01*
X43413Y-53968D02*
X44850Y-53968D01*
X50074Y-53149D02*
X50893Y-53968D01*
X45669Y-53149D02*
X50074Y-53149D01*
X44850Y-53968D02*
X45669Y-53149D01*
X35933Y-53968D02*
X37370Y-53968D01*
X42594Y-53149D02*
X43413Y-53968D01*
X38188Y-53149D02*
X42594Y-53149D01*
X37370Y-53968D02*
X38188Y-53149D01*
X23728Y-53968D02*
X25559Y-53968D01*
X35114Y-53149D02*
X35933Y-53968D01*
X26377Y-53149D02*
X35114Y-53149D01*
X25559Y-53968D02*
X26377Y-53149D01*
X73622Y-14673D02*
X72744Y-15551D01*
X73622Y-14173D02*
X73622Y-14673D01*
X73228Y-13779D02*
X73622Y-14173D01*
X63779Y-13779D02*
X73228Y-13779D01*
X63385Y-14173D02*
X63779Y-13779D01*
X56405Y-31527D02*
X57842Y-31527D01*
X63066Y-30708D02*
X63885Y-31527D01*
X58661Y-30708D02*
X63066Y-30708D01*
X57842Y-31527D02*
X58661Y-30708D01*
X48925Y-31527D02*
X49574Y-31527D01*
X55586Y-30708D02*
X56405Y-31527D01*
X50393Y-30708D02*
X55586Y-30708D01*
X49574Y-31527D02*
X50393Y-30708D01*
X41444Y-31527D02*
X42488Y-31527D01*
X48106Y-30708D02*
X48925Y-31527D01*
X43307Y-30708D02*
X48106Y-30708D01*
X42488Y-31527D02*
X43307Y-30708D01*
X33964Y-31527D02*
X35401Y-31527D01*
X40625Y-30708D02*
X41444Y-31527D01*
X36220Y-30708D02*
X40625Y-30708D01*
X35401Y-31527D02*
X36220Y-30708D01*
X26484Y-31527D02*
X27921Y-31527D01*
X33145Y-30708D02*
X33964Y-31527D01*
X28740Y-30708D02*
X33145Y-30708D01*
X27921Y-31527D02*
X28740Y-30708D01*
X19003Y-31527D02*
X20047Y-31527D01*
X25665Y-30708D02*
X26484Y-31527D01*
X20866Y-30708D02*
X25665Y-30708D01*
X20047Y-31527D02*
X20866Y-30708D01*
X19003Y-31527D02*
X18929Y-31527D01*
X12204Y-47244D02*
X15759Y-47488D01*
X12204Y-32677D02*
X12204Y-47244D01*
X12204Y-30708D02*
X12204Y-32677D01*
X18110Y-30708D02*
X12204Y-30708D01*
X18929Y-31527D02*
X18110Y-30708D01*
X20972Y-39007D02*
X25228Y-39007D01*
X29602Y-38188D02*
X30421Y-39007D01*
X29133Y-38188D02*
X29602Y-38188D01*
X27559Y-39763D02*
X29133Y-38188D01*
X25984Y-39763D02*
X27559Y-39763D01*
X25228Y-39007D02*
X25984Y-39763D01*
X38885Y-61448D02*
X40125Y-61448D01*
X40125Y-61448D02*
X40944Y-60629D01*
X40944Y-60629D02*
X63066Y-60629D01*
X63066Y-60629D02*
X63885Y-61448D01*
X29437Y-61448D02*
X30677Y-61448D01*
X30677Y-61448D02*
X31496Y-60629D01*
X31496Y-60629D02*
X38066Y-60629D01*
X38066Y-60629D02*
X38885Y-61448D01*
X19988Y-61448D02*
X20834Y-61448D01*
X28618Y-60629D02*
X29437Y-61448D01*
X21653Y-60629D02*
X28618Y-60629D01*
X20834Y-61448D02*
X21653Y-60629D01*
X54830Y-46488D02*
X55480Y-46488D01*
X61492Y-45669D02*
X62311Y-46488D01*
X56299Y-45669D02*
X61492Y-45669D01*
X55480Y-46488D02*
X56299Y-45669D01*
X47350Y-46488D02*
X48000Y-46488D01*
X48000Y-46488D02*
X48818Y-45669D01*
X48818Y-45669D02*
X54011Y-45669D01*
X54011Y-45669D02*
X54830Y-46488D01*
X39870Y-46488D02*
X40913Y-46488D01*
X40913Y-46488D02*
X41732Y-45669D01*
X41732Y-45669D02*
X46531Y-45669D01*
X46531Y-45669D02*
X47350Y-46488D01*
X32389Y-46488D02*
X33433Y-46488D01*
X39051Y-45669D02*
X39870Y-46488D01*
X34251Y-45669D02*
X39051Y-45669D01*
X33433Y-46488D02*
X34251Y-45669D01*
X52862Y-39007D02*
X53511Y-39007D01*
X59523Y-38188D02*
X60342Y-39007D01*
X54330Y-38188D02*
X59523Y-38188D01*
X53511Y-39007D02*
X54330Y-38188D01*
X45381Y-39007D02*
X46425Y-39007D01*
X46425Y-39007D02*
X47244Y-38188D01*
X47244Y-38188D02*
X52043Y-38188D01*
X52043Y-38188D02*
X52862Y-39007D01*
X37901Y-39007D02*
X38944Y-39007D01*
X38944Y-39007D02*
X39763Y-38188D01*
X39763Y-38188D02*
X44562Y-38188D01*
X44562Y-38188D02*
X45381Y-39007D01*
X30421Y-39007D02*
X31464Y-39007D01*
X37082Y-38188D02*
X37901Y-39007D01*
X32283Y-38188D02*
X37082Y-38188D01*
X31464Y-39007D02*
X32283Y-38188D01*
X56405Y-20503D02*
X57448Y-20503D01*
X63066Y-19685D02*
X63885Y-20503D01*
X58267Y-19685D02*
X63066Y-19685D01*
X57448Y-20503D02*
X58267Y-19685D01*
X48925Y-20503D02*
X49968Y-20503D01*
X49968Y-20503D02*
X50787Y-19685D01*
X50787Y-19685D02*
X55586Y-19685D01*
X55586Y-19685D02*
X56405Y-20503D01*
X41444Y-20503D02*
X42094Y-20503D01*
X42094Y-20503D02*
X42913Y-19685D01*
X42913Y-19685D02*
X48106Y-19685D01*
X48106Y-19685D02*
X48925Y-20503D01*
X33964Y-20503D02*
X35401Y-20503D01*
X40625Y-19685D02*
X41444Y-20503D01*
X36220Y-19685D02*
X40625Y-19685D01*
X35401Y-20503D02*
X36220Y-19685D01*
X19003Y-20503D02*
X20047Y-20503D01*
X33145Y-19685D02*
X33964Y-20503D01*
X20866Y-19685D02*
X33145Y-19685D01*
X20047Y-20503D02*
X20866Y-19685D01*
X74015Y-62992D02*
X74015Y-61023D01*
X68110Y-64566D02*
X68110Y-63779D01*
X71744Y-24440D02*
X21685Y-24440D01*
X25196Y-40157D02*
X26771Y-40157D01*
X22440Y-34645D02*
X25196Y-37401D01*
X21685Y-24440D02*
X21653Y-24409D01*
X59885Y-20503D02*
X59885Y-21696D01*
X67748Y-32314D02*
X71744Y-32314D01*
X67716Y-32283D02*
X67748Y-32314D01*
X65354Y-20866D02*
X67322Y-20866D01*
X63385Y-22834D02*
X65354Y-20866D01*
X61023Y-22834D02*
X63385Y-22834D01*
X59885Y-21696D02*
X61023Y-22834D01*
X52405Y-20503D02*
X52405Y-21696D01*
X58236Y-20503D02*
X59885Y-20503D01*
X55905Y-22834D02*
X58236Y-20503D01*
X53543Y-22834D02*
X55905Y-22834D01*
X52405Y-21696D02*
X53543Y-22834D01*
X44925Y-20503D02*
X44925Y-21696D01*
X50755Y-20503D02*
X52405Y-20503D01*
X48425Y-22834D02*
X50755Y-20503D01*
X46062Y-22834D02*
X48425Y-22834D01*
X44925Y-21696D02*
X46062Y-22834D01*
X37444Y-20503D02*
X37444Y-22090D01*
X42881Y-20503D02*
X44925Y-20503D01*
X40551Y-22834D02*
X42881Y-20503D01*
X38188Y-22834D02*
X40551Y-22834D01*
X37444Y-22090D02*
X38188Y-22834D01*
X29964Y-20503D02*
X29964Y-21696D01*
X35795Y-20503D02*
X37444Y-20503D01*
X33464Y-22834D02*
X35795Y-20503D01*
X31102Y-22834D02*
X33464Y-22834D01*
X29964Y-21696D02*
X31102Y-22834D01*
X15003Y-20503D02*
X15003Y-21696D01*
X20834Y-20503D02*
X29964Y-20503D01*
X18503Y-22834D02*
X20834Y-20503D01*
X16141Y-22834D02*
X18503Y-22834D01*
X15003Y-21696D02*
X16141Y-22834D01*
X13385Y-61417D02*
X16929Y-64960D01*
X20716Y-41488D02*
X19291Y-42913D01*
X19291Y-42913D02*
X14173Y-42913D01*
X14173Y-42913D02*
X12992Y-44094D01*
X12992Y-44094D02*
X12992Y-46456D01*
X12992Y-48031D02*
X12992Y-50000D01*
X12992Y-50000D02*
X13385Y-50393D01*
X13385Y-50393D02*
X13385Y-61417D01*
X20759Y-41488D02*
X20716Y-41488D01*
X70716Y-54330D02*
X66354Y-49968D01*
X70866Y-54330D02*
X70716Y-54330D01*
X66929Y-58267D02*
X70866Y-54330D01*
X66929Y-63385D02*
X66929Y-58267D01*
X65354Y-64960D02*
X66929Y-63385D01*
X16929Y-64960D02*
X65354Y-64960D01*
X64385Y-16503D02*
X69259Y-16503D01*
X69472Y-21440D02*
X71744Y-21440D01*
X69291Y-21259D02*
X69472Y-21440D01*
X69259Y-16503D02*
X69291Y-16535D01*
X15003Y-31527D02*
X12629Y-31527D01*
X12629Y-31527D02*
X12598Y-31496D01*
X59885Y-31527D02*
X59885Y-32720D01*
X72744Y-33161D02*
X72744Y-32314D01*
X71653Y-34251D02*
X72744Y-33161D01*
X66141Y-34251D02*
X71653Y-34251D01*
X66141Y-32677D02*
X66141Y-34251D01*
X65748Y-32283D02*
X66141Y-32677D01*
X64960Y-32283D02*
X65748Y-32283D01*
X63385Y-33858D02*
X64960Y-32283D01*
X61023Y-33858D02*
X63385Y-33858D01*
X59885Y-32720D02*
X61023Y-33858D01*
X52405Y-31527D02*
X52405Y-32720D01*
X58236Y-31527D02*
X59885Y-31527D01*
X55905Y-33858D02*
X58236Y-31527D01*
X53543Y-33858D02*
X55905Y-33858D01*
X52405Y-32720D02*
X53543Y-33858D01*
X44925Y-31527D02*
X44925Y-32720D01*
X50362Y-31527D02*
X52405Y-31527D01*
X48031Y-33858D02*
X50362Y-31527D01*
X46062Y-33858D02*
X48031Y-33858D01*
X44925Y-32720D02*
X46062Y-33858D01*
X37444Y-31527D02*
X37444Y-32720D01*
X43275Y-31527D02*
X44925Y-31527D01*
X40944Y-33858D02*
X43275Y-31527D01*
X38582Y-33858D02*
X40944Y-33858D01*
X37444Y-32720D02*
X38582Y-33858D01*
X29964Y-31527D02*
X29964Y-32720D01*
X35795Y-31527D02*
X37444Y-31527D01*
X33464Y-33858D02*
X35795Y-31527D01*
X31102Y-33858D02*
X33464Y-33858D01*
X29964Y-32720D02*
X31102Y-33858D01*
X22484Y-31527D02*
X22484Y-32720D01*
X28314Y-31527D02*
X29964Y-31527D01*
X25984Y-33858D02*
X28314Y-31527D01*
X23622Y-33858D02*
X25984Y-33858D01*
X22484Y-32720D02*
X23622Y-33858D01*
X15003Y-31527D02*
X15003Y-32720D01*
X20834Y-31527D02*
X22484Y-31527D01*
X18503Y-33858D02*
X20834Y-31527D01*
X16141Y-33858D02*
X18503Y-33858D01*
X15003Y-32720D02*
X16141Y-33858D01*
X21759Y-41488D02*
X21503Y-41488D01*
X58905Y-50000D02*
X58874Y-49968D01*
X65354Y-50000D02*
X58905Y-50000D01*
X66535Y-51181D02*
X65354Y-50000D01*
X66929Y-51181D02*
X66535Y-51181D01*
X70078Y-54330D02*
X66929Y-51181D01*
X66535Y-57874D02*
X70078Y-54330D01*
X66535Y-62992D02*
X66535Y-57874D01*
X64960Y-64566D02*
X66535Y-62992D01*
X17322Y-64566D02*
X64960Y-64566D01*
X14173Y-61417D02*
X17322Y-64566D01*
X14173Y-48425D02*
X14173Y-61417D01*
X13779Y-48031D02*
X14173Y-48425D01*
X16535Y-43700D02*
X13779Y-46456D01*
X19291Y-43700D02*
X16535Y-43700D01*
X21503Y-41488D02*
X19291Y-43700D01*
X56905Y-16503D02*
X63023Y-16503D01*
X72440Y-18503D02*
X73622Y-18503D01*
X70078Y-16141D02*
X72440Y-18503D01*
X65354Y-16141D02*
X70078Y-16141D01*
X64960Y-15748D02*
X65354Y-16141D01*
X63779Y-15748D02*
X64960Y-15748D01*
X63023Y-16503D02*
X63779Y-15748D01*
X71062Y-15551D02*
X71744Y-15551D01*
X70078Y-14566D02*
X71062Y-15551D01*
X65748Y-14566D02*
X70078Y-14566D01*
X22440Y-40507D02*
X26728Y-40507D01*
X31059Y-41338D02*
X31889Y-40507D01*
X27559Y-41338D02*
X31059Y-41338D01*
X26728Y-40507D02*
X27559Y-41338D01*
X21456Y-62948D02*
X21610Y-62948D01*
X29681Y-64173D02*
X30905Y-62948D01*
X22834Y-64173D02*
X29681Y-64173D01*
X21610Y-62948D02*
X22834Y-64173D01*
X30905Y-62948D02*
X31452Y-62948D01*
X39129Y-64173D02*
X40354Y-62948D01*
X32677Y-64173D02*
X39129Y-64173D01*
X31452Y-62948D02*
X32677Y-64173D01*
X40354Y-62948D02*
X40507Y-62948D01*
X64129Y-64173D02*
X65354Y-62948D01*
X41732Y-64173D02*
X64129Y-64173D01*
X40507Y-62948D02*
X41732Y-64173D01*
X25196Y-55468D02*
X25196Y-55511D01*
X36177Y-56692D02*
X37401Y-55468D01*
X26377Y-56692D02*
X36177Y-56692D01*
X25196Y-55511D02*
X26377Y-56692D01*
X37401Y-55468D02*
X37401Y-55511D01*
X43657Y-56692D02*
X44881Y-55468D01*
X38582Y-56692D02*
X43657Y-56692D01*
X37401Y-55511D02*
X38582Y-56692D01*
X44881Y-55468D02*
X44881Y-55511D01*
X51137Y-56692D02*
X52362Y-55468D01*
X46062Y-56692D02*
X51137Y-56692D01*
X44881Y-55511D02*
X46062Y-56692D01*
X52362Y-55468D02*
X52362Y-55511D01*
X58618Y-56692D02*
X59842Y-55468D01*
X53543Y-56692D02*
X58618Y-56692D01*
X52362Y-55511D02*
X53543Y-56692D01*
X59842Y-55468D02*
X59842Y-55511D01*
X59842Y-55511D02*
X61023Y-56692D01*
X61023Y-56692D02*
X66098Y-56692D01*
X66098Y-56692D02*
X67322Y-55468D01*
X33858Y-47988D02*
X33858Y-48031D01*
X40114Y-49212D02*
X41338Y-47988D01*
X35039Y-49212D02*
X40114Y-49212D01*
X33858Y-48031D02*
X35039Y-49212D01*
X41338Y-47988D02*
X41338Y-48031D01*
X47594Y-49212D02*
X48818Y-47988D01*
X42519Y-49212D02*
X47594Y-49212D01*
X41338Y-48031D02*
X42519Y-49212D01*
X48818Y-47988D02*
X48818Y-48031D01*
X55074Y-49212D02*
X56299Y-47988D01*
X50000Y-49212D02*
X55074Y-49212D01*
X48818Y-48031D02*
X50000Y-49212D01*
X56299Y-47988D02*
X56299Y-48031D01*
X56299Y-48031D02*
X57480Y-49212D01*
X57480Y-49212D02*
X62555Y-49212D01*
X62555Y-49212D02*
X63779Y-47988D01*
X31889Y-40507D02*
X31889Y-40551D01*
X38145Y-41732D02*
X39370Y-40507D01*
X33070Y-41732D02*
X38145Y-41732D01*
X31889Y-40551D02*
X33070Y-41732D01*
X39370Y-40507D02*
X39370Y-40551D01*
X45625Y-41732D02*
X46850Y-40507D01*
X40551Y-41732D02*
X45625Y-41732D01*
X39370Y-40551D02*
X40551Y-41732D01*
X46850Y-40507D02*
X46850Y-40551D01*
X53106Y-41732D02*
X54330Y-40507D01*
X48031Y-41732D02*
X53106Y-41732D01*
X46850Y-40551D02*
X48031Y-41732D01*
X54330Y-40507D02*
X54330Y-40551D01*
X54330Y-40551D02*
X55511Y-41732D01*
X55511Y-41732D02*
X60586Y-41732D01*
X60586Y-41732D02*
X61811Y-40507D01*
X57874Y-33027D02*
X57874Y-33070D01*
X57874Y-33070D02*
X59055Y-34251D01*
X59055Y-34251D02*
X64129Y-34251D01*
X64129Y-34251D02*
X65354Y-33027D01*
X50393Y-33027D02*
X50393Y-33070D01*
X50393Y-33070D02*
X51574Y-34251D01*
X51574Y-34251D02*
X56649Y-34251D01*
X56649Y-34251D02*
X57874Y-33027D01*
X42913Y-33027D02*
X42913Y-33070D01*
X49169Y-34251D02*
X50393Y-33027D01*
X44094Y-34251D02*
X49169Y-34251D01*
X42913Y-33070D02*
X44094Y-34251D01*
X35433Y-33027D02*
X35433Y-33070D01*
X41688Y-34251D02*
X42913Y-33027D01*
X36614Y-34251D02*
X41688Y-34251D01*
X35433Y-33070D02*
X36614Y-34251D01*
X27952Y-33027D02*
X27952Y-33070D01*
X34208Y-34251D02*
X35433Y-33027D01*
X29133Y-34251D02*
X34208Y-34251D01*
X27952Y-33070D02*
X29133Y-34251D01*
X20472Y-33027D02*
X20472Y-33070D01*
X26728Y-34251D02*
X27952Y-33027D01*
X21653Y-34251D02*
X26728Y-34251D01*
X20472Y-33070D02*
X21653Y-34251D01*
X20472Y-22003D02*
X20472Y-22047D01*
X34208Y-23228D02*
X35433Y-22003D01*
X21653Y-23228D02*
X34208Y-23228D01*
X20472Y-22047D02*
X21653Y-23228D01*
X35433Y-22003D02*
X35433Y-22047D01*
X41688Y-23228D02*
X42913Y-22003D01*
X36614Y-23228D02*
X41688Y-23228D01*
X35433Y-22047D02*
X36614Y-23228D01*
X42913Y-22003D02*
X42913Y-22047D01*
X49169Y-23228D02*
X50393Y-22003D01*
X44094Y-23228D02*
X49169Y-23228D01*
X42913Y-22047D02*
X44094Y-23228D01*
X50393Y-22003D02*
X50393Y-22047D01*
X50393Y-22047D02*
X51574Y-23228D01*
X51574Y-23228D02*
X56649Y-23228D01*
X56649Y-23228D02*
X57874Y-22003D01*
X57874Y-22003D02*
X57874Y-22047D01*
X57874Y-22047D02*
X59055Y-23228D01*
X59055Y-23228D02*
X64129Y-23228D01*
X64129Y-23228D02*
X65354Y-22003D01*
X32889Y-42488D02*
X27590Y-42488D01*
X26771Y-43307D02*
X26377Y-43307D01*
X27590Y-42488D02*
X26771Y-43307D01*
X34464Y-16503D02*
X40582Y-16503D01*
X68716Y-23440D02*
X71744Y-23440D01*
X68503Y-23228D02*
X68716Y-23440D01*
X42125Y-14960D02*
X68503Y-14960D01*
X40582Y-16503D02*
X42125Y-14960D01*
X16972Y-39007D02*
X14535Y-39007D01*
X14535Y-39007D02*
X13779Y-39763D01*
X56342Y-39007D02*
X56342Y-40200D01*
X61811Y-39370D02*
X69685Y-39370D01*
X59842Y-41338D02*
X61811Y-39370D01*
X57480Y-41338D02*
X59842Y-41338D01*
X56342Y-40200D02*
X57480Y-41338D01*
X33539Y-39370D02*
X33901Y-39007D01*
X31496Y-39370D02*
X33539Y-39370D01*
X30708Y-40157D02*
X31496Y-39370D01*
X30314Y-40157D02*
X30708Y-40157D01*
X29133Y-40157D02*
X30314Y-40157D01*
X16972Y-39007D02*
X17291Y-39007D01*
X25602Y-38188D02*
X26421Y-39007D01*
X18110Y-38188D02*
X25602Y-38188D01*
X17291Y-39007D02*
X18110Y-38188D01*
X48862Y-39007D02*
X48862Y-40200D01*
X54692Y-39007D02*
X56342Y-39007D01*
X52362Y-41338D02*
X54692Y-39007D01*
X50000Y-41338D02*
X52362Y-41338D01*
X48862Y-40200D02*
X50000Y-41338D01*
X41381Y-39007D02*
X41381Y-40200D01*
X47212Y-39007D02*
X48862Y-39007D01*
X44881Y-41338D02*
X47212Y-39007D01*
X42519Y-41338D02*
X44881Y-41338D01*
X41381Y-40200D02*
X42519Y-41338D01*
X33901Y-39007D02*
X33901Y-40200D01*
X33901Y-40200D02*
X35039Y-41338D01*
X35039Y-41338D02*
X37401Y-41338D01*
X37401Y-41338D02*
X39732Y-39007D01*
X39732Y-39007D02*
X41381Y-39007D01*
X19503Y-27527D02*
X19503Y-27346D01*
X71594Y-25590D02*
X72744Y-24440D01*
X21259Y-25590D02*
X71594Y-25590D01*
X19503Y-27346D02*
X21259Y-25590D01*
X24228Y-49968D02*
X25622Y-49968D01*
X25759Y-45051D02*
X25759Y-41488D01*
X27559Y-46850D02*
X25759Y-45051D01*
X27559Y-48031D02*
X27559Y-46850D01*
X25622Y-49968D02*
X27559Y-48031D01*
X41763Y-42488D02*
X40944Y-43307D01*
X40944Y-43307D02*
X38976Y-43307D01*
X37795Y-51181D02*
X36614Y-51181D01*
X36614Y-51181D02*
X35039Y-49606D01*
X35039Y-49606D02*
X33464Y-49606D01*
X33464Y-49606D02*
X32677Y-48818D01*
X47850Y-42488D02*
X41763Y-42488D01*
X27559Y-44881D02*
X26377Y-44881D01*
X49425Y-16503D02*
X50425Y-16503D01*
X69685Y-22440D02*
X71744Y-22440D01*
X51574Y-15354D02*
X69685Y-15354D01*
X50425Y-16503D02*
X51574Y-15354D01*
X29527Y-44094D02*
X27559Y-44094D01*
X34677Y-42488D02*
X33464Y-43700D01*
X33464Y-43700D02*
X33464Y-45275D01*
X33464Y-45275D02*
X33070Y-45669D01*
X33070Y-45669D02*
X31102Y-45669D01*
X31102Y-45669D02*
X29527Y-44094D01*
X40370Y-42488D02*
X34677Y-42488D01*
X27559Y-44094D02*
X26377Y-44094D01*
X41381Y-36007D02*
X43381Y-36007D01*
X46456Y-22003D02*
X46456Y-21972D01*
X46456Y-21972D02*
X47925Y-20503D01*
X37444Y-28527D02*
X39444Y-28527D01*
X38976Y-33027D02*
X38976Y-32996D01*
X38976Y-32996D02*
X40444Y-31527D01*
X42913Y-40507D02*
X42913Y-40476D01*
X42913Y-40476D02*
X44381Y-39007D01*
X43350Y-43488D02*
X45350Y-43488D01*
X44881Y-47988D02*
X44881Y-47956D01*
X44881Y-47956D02*
X46350Y-46488D01*
X26968Y-62948D02*
X26968Y-62917D01*
X26968Y-62917D02*
X28437Y-61448D01*
X35870Y-43488D02*
X37870Y-43488D01*
X37401Y-47988D02*
X37401Y-47956D01*
X37401Y-47956D02*
X38870Y-46488D01*
X44925Y-17503D02*
X46925Y-17503D01*
X46456Y-33027D02*
X46456Y-32996D01*
X46456Y-32996D02*
X47925Y-31527D01*
X48862Y-36007D02*
X50862Y-36007D01*
X50393Y-40507D02*
X50393Y-40476D01*
X50393Y-40476D02*
X51862Y-39007D01*
X52362Y-47988D02*
X52362Y-47956D01*
X52362Y-47956D02*
X53830Y-46488D01*
X52405Y-17503D02*
X54405Y-17503D01*
X53937Y-22003D02*
X53937Y-21972D01*
X53937Y-21972D02*
X55405Y-20503D01*
X44925Y-28527D02*
X46925Y-28527D01*
X15988Y-58448D02*
X17988Y-58448D01*
X29964Y-17503D02*
X31964Y-17503D01*
X31496Y-22003D02*
X31496Y-21972D01*
X31496Y-21972D02*
X32964Y-20503D01*
X24015Y-33027D02*
X24015Y-32996D01*
X24015Y-32996D02*
X25484Y-31527D01*
X15003Y-17503D02*
X17003Y-17503D01*
X16535Y-22003D02*
X16535Y-21972D01*
X16535Y-21972D02*
X18003Y-20503D01*
X15003Y-28527D02*
X17003Y-28527D01*
X16535Y-33027D02*
X16535Y-32996D01*
X16535Y-32996D02*
X18003Y-31527D01*
X16972Y-36007D02*
X18972Y-36007D01*
X18503Y-40507D02*
X18503Y-40476D01*
X18503Y-40476D02*
X19972Y-39007D01*
X29964Y-28527D02*
X31964Y-28527D01*
X17519Y-62948D02*
X17519Y-62917D01*
X17519Y-62917D02*
X18988Y-61448D01*
X37444Y-17503D02*
X39444Y-17503D01*
X38976Y-22003D02*
X38976Y-21972D01*
X38976Y-21972D02*
X40444Y-20503D01*
X31496Y-33027D02*
X31496Y-32996D01*
X31496Y-32996D02*
X32964Y-31527D01*
X33901Y-36007D02*
X35901Y-36007D01*
X35433Y-40507D02*
X35433Y-40476D01*
X35433Y-40476D02*
X36901Y-39007D01*
X26421Y-36007D02*
X28421Y-36007D01*
X27952Y-40507D02*
X27952Y-40476D01*
X27952Y-40476D02*
X29421Y-39007D01*
X28389Y-43488D02*
X30389Y-43488D01*
X29921Y-47988D02*
X29921Y-47956D01*
X29921Y-47956D02*
X31389Y-46488D01*
X22484Y-28527D02*
X24484Y-28527D01*
X31933Y-50968D02*
X33933Y-50968D01*
X50830Y-43488D02*
X52830Y-43488D01*
X59885Y-17503D02*
X61885Y-17503D01*
X61417Y-22003D02*
X61417Y-21972D01*
X61417Y-21972D02*
X62885Y-20503D01*
X52405Y-28527D02*
X54405Y-28527D01*
M02*
