  0
SECTION
  2
BLOCKS
  0
ENDSEC
  0
SECTION
  2
ENTITIES
  0
LINE
  8
0
 10
59
 20
70.6
 11
61
 21
70.6
  0
LINE
  8
0
 10
61
 20
70.6
 11
61
 21
78.6
  0
LINE
  8
0
 10
61
 20
78.6
 11
76
 21
78.6
  0
LINE
  8
0
 10
76
 20
78.6
 11
76
 21
70.6
  0
LINE
  8
0
 10
76
 20
70.6
 11
78
 21
70.6
  0
LINE
  8
0
 10
78
 20
70.6
 11
78
 21
67.6
  0
LINE
  8
0
 10
78
 20
67.6
 11
83
 21
67.6
  0
LINE
  8
0
 10
83
 20
67.6
 11
83
 21
70.6
  0
LINE
  8
0
 10
83
 20
70.6
 11
91
 21
70.6
  0
LINE
  8
0
 10
91
 20
70.6
 11
91
 21
85.2
  0
LINE
  8
0
 10
91
 20
85.2
 11
88
 21
85.2
  0
LINE
  8
0
 10
88
 20
85.2
 11
88
 21
77.9
  0
LINE
  8
0
 10
88
 20
77.9
 11
85
 21
77.9
  0
LINE
  8
0
 10
85
 20
77.9
 11
85
 21
85.2
  0
LINE
  8
0
 10
85
 20
85.2
 11
83
 21
85.2
  0
LINE
  8
0
 10
83
 20
85.2
 11
83
 21
88.2
  0
LINE
  8
0
 10
83
 20
88.2
 11
78
 21
88.2
  0
LINE
  8
0
 10
78
 20
88.2
 11
78
 21
85.2
  0
LINE
  8
0
 10
78
 20
85.2
 11
59
 21
85.2
  0
LINE
  8
0
 10
59
 20
85.2
 11
59
 21
88.2
  0
LINE
  8
0
 10
59
 20
88.2
 11
54
 21
88.2
  0
LINE
  8
0
 10
54
 20
88.2
 11
54
 21
85.2
  0
LINE
  8
0
 10
54
 20
85.2
 11
52
 21
85.2
  0
LINE
  8
0
 10
52
 20
85.2
 11
52
 21
77.9
  0
LINE
  8
0
 10
52
 20
77.9
 11
49
 21
77.9
  0
LINE
  8
0
 10
49
 20
77.9
 11
49
 21
85.2
  0
LINE
  8
0
 10
49
 20
85.2
 11
46
 21
85.2
  0
LINE
  8
0
 10
46
 20
85.2
 11
46
 21
70.6
  0
LINE
  8
0
 10
46
 20
70.6
 11
54
 21
70.6
  0
LINE
  8
0
 10
54
 20
70.6
 11
54
 21
67.6
  0
LINE
  8
0
 10
54
 20
67.6
 11
59
 21
67.6
  0
LINE
  8
0
 10
59
 20
67.6
 11
59
 21
70.6
  0
LINE
  8
0
 10
13
 20
70.6
 11
15
 21
70.6
  0
LINE
  8
0
 10
15
 20
70.6
 11
15
 21
78.6
  0
LINE
  8
0
 10
15
 20
78.6
 11
30
 21
78.6
  0
LINE
  8
0
 10
30
 20
78.6
 11
30
 21
70.6
  0
LINE
  8
0
 10
30
 20
70.6
 11
32
 21
70.6
  0
LINE
  8
0
 10
32
 20
70.6
 11
32
 21
67.6
  0
LINE
  8
0
 10
32
 20
67.6
 11
37
 21
67.6
  0
LINE
  8
0
 10
37
 20
67.6
 11
37
 21
70.6
  0
LINE
  8
0
 10
37
 20
70.6
 11
45
 21
70.6
  0
LINE
  8
0
 10
45
 20
70.6
 11
45
 21
85.2
  0
LINE
  8
0
 10
45
 20
85.2
 11
42
 21
85.2
  0
LINE
  8
0
 10
42
 20
85.2
 11
42
 21
77.9
  0
LINE
  8
0
 10
42
 20
77.9
 11
39
 21
77.9
  0
LINE
  8
0
 10
39
 20
77.9
 11
39
 21
85.2
  0
LINE
  8
0
 10
39
 20
85.2
 11
37
 21
85.2
  0
LINE
  8
0
 10
37
 20
85.2
 11
37
 21
88.2
  0
LINE
  8
0
 10
37
 20
88.2
 11
32
 21
88.2
  0
LINE
  8
0
 10
32
 20
88.2
 11
32
 21
85.2
  0
LINE
  8
0
 10
32
 20
85.2
 11
13
 21
85.2
  0
LINE
  8
0
 10
13
 20
85.2
 11
13
 21
88.2
  0
LINE
  8
0
 10
13
 20
88.2
 11
8
 21
88.2
  0
LINE
  8
0
 10
8
 20
88.2
 11
8
 21
85.2
  0
LINE
  8
0
 10
8
 20
85.2
 11
6
 21
85.2
  0
LINE
  8
0
 10
6
 20
85.2
 11
6
 21
77.9
  0
LINE
  8
0
 10
6
 20
77.9
 11
3
 21
77.9
  0
LINE
  8
0
 10
3
 20
77.9
 11
3
 21
85.2
  0
LINE
  8
0
 10
3
 20
85.2
 11
0
 21
85.2
  0
LINE
  8
0
 10
0
 20
85.2
 11
0
 21
70.6
  0
LINE
  8
0
 10
0
 20
70.6
 11
8
 21
70.6
  0
LINE
  8
0
 10
8
 20
70.6
 11
8
 21
67.6
  0
LINE
  8
0
 10
8
 20
67.6
 11
13
 21
67.6
  0
LINE
  8
0
 10
13
 20
67.6
 11
13
 21
70.6
  0
LINE
  8
0
 10
108
 20
79.2
 11
109
 21
79.2
  0
LINE
  8
0
 10
109
 20
79.2
 11
109
 21
83.6
  0
LINE
  8
0
 10
109
 20
83.6
 11
108
 21
83.6
  0
LINE
  8
0
 10
108
 20
83.6
 11
108
 21
86.6
  0
LINE
  8
0
 10
108
 20
86.6
 11
105
 21
86.6
  0
LINE
  8
0
 10
105
 20
86.6
 11
105
 21
83.6
  0
LINE
  8
0
 10
105
 20
83.6
 11
104
 21
83.6
  0
LINE
  8
0
 10
104
 20
83.6
 11
104
 21
79.2
  0
LINE
  8
0
 10
104
 20
79.2
 11
105
 21
79.2
  0
LINE
  8
0
 10
105
 20
79.2
 11
105
 21
77.6
  0
LINE
  8
0
 10
105
 20
77.6
 11
108
 21
77.6
  0
LINE
  8
0
 10
108
 20
77.6
 11
108
 21
79.2
  0
LINE
  8
0
 10
114
 20
79.2
 11
115
 21
79.2
  0
LINE
  8
0
 10
115
 20
79.2
 11
115
 21
83.6
  0
LINE
  8
0
 10
115
 20
83.6
 11
114
 21
83.6
  0
LINE
  8
0
 10
114
 20
83.6
 11
114
 21
86.6
  0
LINE
  8
0
 10
114
 20
86.6
 11
111
 21
86.6
  0
LINE
  8
0
 10
111
 20
86.6
 11
111
 21
83.6
  0
LINE
  8
0
 10
111
 20
83.6
 11
110
 21
83.6
  0
LINE
  8
0
 10
110
 20
83.6
 11
110
 21
79.2
  0
LINE
  8
0
 10
110
 20
79.2
 11
111
 21
79.2
  0
LINE
  8
0
 10
111
 20
79.2
 11
111
 21
77.6
  0
LINE
  8
0
 10
111
 20
77.6
 11
114
 21
77.6
  0
LINE
  8
0
 10
114
 20
77.6
 11
114
 21
79.2
  0
LINE
  8
0
 10
96
 20
79.2
 11
97
 21
79.2
  0
LINE
  8
0
 10
97
 20
79.2
 11
97
 21
83.6
  0
LINE
  8
0
 10
97
 20
83.6
 11
96
 21
83.6
  0
LINE
  8
0
 10
96
 20
83.6
 11
96
 21
86.6
  0
LINE
  8
0
 10
96
 20
86.6
 11
93
 21
86.6
  0
LINE
  8
0
 10
93
 20
86.6
 11
93
 21
83.6
  0
LINE
  8
0
 10
93
 20
83.6
 11
92
 21
83.6
  0
LINE
  8
0
 10
92
 20
83.6
 11
92
 21
79.2
  0
LINE
  8
0
 10
92
 20
79.2
 11
93
 21
79.2
  0
LINE
  8
0
 10
93
 20
79.2
 11
93
 21
77.6
  0
LINE
  8
0
 10
93
 20
77.6
 11
96
 21
77.6
  0
LINE
  8
0
 10
96
 20
77.6
 11
96
 21
79.2
  0
LINE
  8
0
 10
102
 20
79.2
 11
103
 21
79.2
  0
LINE
  8
0
 10
103
 20
79.2
 11
103
 21
83.6
  0
LINE
  8
0
 10
103
 20
83.6
 11
102
 21
83.6
  0
LINE
  8
0
 10
102
 20
83.6
 11
102
 21
86.6
  0
LINE
  8
0
 10
102
 20
86.6
 11
99
 21
86.6
  0
LINE
  8
0
 10
99
 20
86.6
 11
99
 21
83.6
  0
LINE
  8
0
 10
99
 20
83.6
 11
98
 21
83.6
  0
LINE
  8
0
 10
98
 20
83.6
 11
98
 21
79.2
  0
LINE
  8
0
 10
98
 20
79.2
 11
99
 21
79.2
  0
LINE
  8
0
 10
99
 20
79.2
 11
99
 21
77.6
  0
LINE
  8
0
 10
99
 20
77.6
 11
102
 21
77.6
  0
LINE
  8
0
 10
102
 20
77.6
 11
102
 21
79.2
  0
LINE
  8
0
 10
108
 20
69.2
 11
109
 21
69.2
  0
LINE
  8
0
 10
109
 20
69.2
 11
109
 21
73.6
  0
LINE
  8
0
 10
109
 20
73.6
 11
108
 21
73.6
  0
LINE
  8
0
 10
108
 20
73.6
 11
108
 21
76.6
  0
LINE
  8
0
 10
108
 20
76.6
 11
105
 21
76.6
  0
LINE
  8
0
 10
105
 20
76.6
 11
105
 21
73.6
  0
LINE
  8
0
 10
105
 20
73.6
 11
104
 21
73.6
  0
LINE
  8
0
 10
104
 20
73.6
 11
104
 21
69.2
  0
LINE
  8
0
 10
104
 20
69.2
 11
105
 21
69.2
  0
LINE
  8
0
 10
105
 20
69.2
 11
105
 21
67.6
  0
LINE
  8
0
 10
105
 20
67.6
 11
108
 21
67.6
  0
LINE
  8
0
 10
108
 20
67.6
 11
108
 21
69.2
  0
LINE
  8
0
 10
102
 20
69.2
 11
103
 21
69.2
  0
LINE
  8
0
 10
103
 20
69.2
 11
103
 21
73.6
  0
LINE
  8
0
 10
103
 20
73.6
 11
102
 21
73.6
  0
LINE
  8
0
 10
102
 20
73.6
 11
102
 21
76.6
  0
LINE
  8
0
 10
102
 20
76.6
 11
99
 21
76.6
  0
LINE
  8
0
 10
99
 20
76.6
 11
99
 21
73.6
  0
LINE
  8
0
 10
99
 20
73.6
 11
98
 21
73.6
  0
LINE
  8
0
 10
98
 20
73.6
 11
98
 21
69.2
  0
LINE
  8
0
 10
98
 20
69.2
 11
99
 21
69.2
  0
LINE
  8
0
 10
99
 20
69.2
 11
99
 21
67.6
  0
LINE
  8
0
 10
99
 20
67.6
 11
102
 21
67.6
  0
LINE
  8
0
 10
102
 20
67.6
 11
102
 21
69.2
  0
LINE
  8
0
 10
114
 20
69.2
 11
115
 21
69.2
  0
LINE
  8
0
 10
115
 20
69.2
 11
115
 21
73.6
  0
LINE
  8
0
 10
115
 20
73.6
 11
114
 21
73.6
  0
LINE
  8
0
 10
114
 20
73.6
 11
114
 21
76.6
  0
LINE
  8
0
 10
114
 20
76.6
 11
111
 21
76.6
  0
LINE
  8
0
 10
111
 20
76.6
 11
111
 21
73.6
  0
LINE
  8
0
 10
111
 20
73.6
 11
110
 21
73.6
  0
LINE
  8
0
 10
110
 20
73.6
 11
110
 21
69.2
  0
LINE
  8
0
 10
110
 20
69.2
 11
111
 21
69.2
  0
LINE
  8
0
 10
111
 20
69.2
 11
111
 21
67.6
  0
LINE
  8
0
 10
111
 20
67.6
 11
114
 21
67.6
  0
LINE
  8
0
 10
114
 20
67.6
 11
114
 21
69.2
  0
LINE
  8
0
 10
96
 20
69.2
 11
97
 21
69.2
  0
LINE
  8
0
 10
97
 20
69.2
 11
97
 21
73.6
  0
LINE
  8
0
 10
97
 20
73.6
 11
96
 21
73.6
  0
LINE
  8
0
 10
96
 20
73.6
 11
96
 21
76.6
  0
LINE
  8
0
 10
96
 20
76.6
 11
93
 21
76.6
  0
LINE
  8
0
 10
93
 20
76.6
 11
93
 21
73.6
  0
LINE
  8
0
 10
93
 20
73.6
 11
92
 21
73.6
  0
LINE
  8
0
 10
92
 20
73.6
 11
92
 21
69.2
  0
LINE
  8
0
 10
92
 20
69.2
 11
93
 21
69.2
  0
LINE
  8
0
 10
93
 20
69.2
 11
93
 21
67.6
  0
LINE
  8
0
 10
93
 20
67.6
 11
96
 21
67.6
  0
LINE
  8
0
 10
96
 20
67.6
 11
96
 21
69.2
  0
LINE
  8
0
 10
80
 20
49
 11
91
 21
49
  0
LINE
  8
0
 10
91
 20
49
 11
91
 21
57
  0
LINE
  8
0
 10
91
 20
57
 11
109
 21
57
  0
LINE
  8
0
 10
109
 20
57
 11
109
 21
49
  0
LINE
  8
0
 10
109
 20
49
 11
120
 21
49
  0
LINE
  8
0
 10
120
 20
49
 11
120
 21
46
  0
LINE
  8
0
 10
120
 20
46
 11
125
 21
46
  0
LINE
  8
0
 10
125
 20
46
 11
125
 21
49
  0
LINE
  8
0
 10
125
 20
49
 11
127
 21
49
  0
LINE
  8
0
 10
127
 20
49
 11
127
 21
56.3
  0
LINE
  8
0
 10
127
 20
56.3
 11
130
 21
56.3
  0
LINE
  8
0
 10
130
 20
56.3
 11
130
 21
49
  0
LINE
  8
0
 10
130
 20
49
 11
133
 21
49
  0
LINE
  8
0
 10
133
 20
49
 11
133
 21
63.6
  0
LINE
  8
0
 10
133
 20
63.6
 11
125
 21
63.6
  0
LINE
  8
0
 10
125
 20
63.6
 11
125
 21
66.6
  0
LINE
  8
0
 10
125
 20
66.6
 11
120
 21
66.6
  0
LINE
  8
0
 10
120
 20
66.6
 11
120
 21
63.6
  0
LINE
  8
0
 10
120
 20
63.6
 11
80
 21
63.6
  0
LINE
  8
0
 10
80
 20
63.6
 11
80
 21
66.6
  0
LINE
  8
0
 10
80
 20
66.6
 11
75
 21
66.6
  0
LINE
  8
0
 10
75
 20
66.6
 11
75
 21
63.6
  0
LINE
  8
0
 10
75
 20
63.6
 11
67
 21
63.6
  0
LINE
  8
0
 10
67
 20
63.6
 11
67
 21
49
  0
LINE
  8
0
 10
67
 20
49
 11
70
 21
49
  0
LINE
  8
0
 10
70
 20
49
 11
70
 21
56.3
  0
LINE
  8
0
 10
70
 20
56.3
 11
73
 21
56.3
  0
LINE
  8
0
 10
73
 20
56.3
 11
73
 21
49
  0
LINE
  8
0
 10
73
 20
49
 11
75
 21
49
  0
LINE
  8
0
 10
75
 20
49
 11
75
 21
46
  0
LINE
  8
0
 10
75
 20
46
 11
80
 21
46
  0
LINE
  8
0
 10
80
 20
46
 11
80
 21
49
  0
LINE
  8
0
 10
13
 20
49
 11
53
 21
49
  0
LINE
  8
0
 10
53
 20
49
 11
53
 21
46
  0
LINE
  8
0
 10
53
 20
46
 11
58
 21
46
  0
LINE
  8
0
 10
58
 20
46
 11
58
 21
49
  0
LINE
  8
0
 10
58
 20
49
 11
60
 21
49
  0
LINE
  8
0
 10
60
 20
49
 11
60
 21
56.3
  0
LINE
  8
0
 10
60
 20
56.3
 11
63
 21
56.3
  0
LINE
  8
0
 10
63
 20
56.3
 11
63
 21
49
  0
LINE
  8
0
 10
63
 20
49
 11
66
 21
49
  0
LINE
  8
0
 10
66
 20
49
 11
66
 21
63.6
  0
LINE
  8
0
 10
66
 20
63.6
 11
58
 21
63.6
  0
LINE
  8
0
 10
58
 20
63.6
 11
58
 21
66.6
  0
LINE
  8
0
 10
58
 20
66.6
 11
53
 21
66.6
  0
LINE
  8
0
 10
53
 20
66.6
 11
53
 21
63.6
  0
LINE
  8
0
 10
53
 20
63.6
 11
13
 21
63.6
  0
LINE
  8
0
 10
13
 20
63.6
 11
13
 21
66.6
  0
LINE
  8
0
 10
13
 20
66.6
 11
8
 21
66.6
  0
LINE
  8
0
 10
8
 20
66.6
 11
8
 21
63.6
  0
LINE
  8
0
 10
8
 20
63.6
 11
0
 21
63.6
  0
LINE
  8
0
 10
0
 20
63.6
 11
0
 21
49
  0
LINE
  8
0
 10
0
 20
49
 11
3
 21
49
  0
LINE
  8
0
 10
3
 20
49
 11
3
 21
56.3
  0
LINE
  8
0
 10
3
 20
56.3
 11
6
 21
56.3
  0
LINE
  8
0
 10
6
 20
56.3
 11
6
 21
49
  0
LINE
  8
0
 10
6
 20
49
 11
8
 21
49
  0
LINE
  8
0
 10
8
 20
49
 11
8
 21
46
  0
LINE
  8
0
 10
8
 20
46
 11
13
 21
46
  0
LINE
  8
0
 10
13
 20
46
 11
13
 21
49
  0
LINE
  8
0
 10
66
 20
45
 11
0
 21
45
  0
LINE
  8
0
 10
0
 20
45
 11
0
 21
0
  0
LINE
  8
0
 10
0
 20
0
 11
66
 21
0
  0
LINE
  8
0
 10
66
 20
0
 11
66
 21
45
  0
LINE
  8
0
 10
53
 20
39
 11
53
 21
42
  0
LINE
  8
0
 10
53
 20
42
 11
58
 21
42
  0
LINE
  8
0
 10
58
 20
42
 11
58
 21
39
  0
LINE
  8
0
 10
58
 20
39
 11
53
 21
39
  0
LINE
  8
0
 10
8
 20
39
 11
8
 21
42
  0
LINE
  8
0
 10
8
 20
42
 11
13
 21
42
  0
LINE
  8
0
 10
13
 20
42
 11
13
 21
39
  0
LINE
  8
0
 10
13
 20
39
 11
8
 21
39
  0
LINE
  8
0
 10
3
 20
32
 11
3
 21
37
  0
LINE
  8
0
 10
3
 20
37
 11
6
 21
37
  0
LINE
  8
0
 10
6
 20
37
 11
6
 21
32
  0
LINE
  8
0
 10
6
 20
32
 11
3
 21
32
  0
LINE
  8
0
 10
60
 20
32
 11
60
 21
37
  0
LINE
  8
0
 10
60
 20
37
 11
63
 21
37
  0
LINE
  8
0
 10
63
 20
37
 11
63
 21
32
  0
LINE
  8
0
 10
63
 20
32
 11
60
 21
32
  0
LINE
  8
0
 10
55.8746
 20
33.8066
 11
55.6292
 21
33.8587
  0
LINE
  8
0
 10
55.6292
 20
33.8587
 11
55.4
 21
33.9608
  0
LINE
  8
0
 10
55.4
 20
33.9608
 11
55.197
 21
34.1082
  0
LINE
  8
0
 10
55.197
 20
34.1082
 11
55.0292
 21
34.2946
  0
LINE
  8
0
 10
55.0292
 20
34.2946
 11
54.9037
 21
34.5119
  0
LINE
  8
0
 10
54.9037
 20
34.5119
 11
54.8262
 21
34.7505
  0
LINE
  8
0
 10
54.8262
 20
34.7505
 11
54.8
 21
35
  0
LINE
  8
0
 10
54.8
 20
35
 11
54.8262
 21
35.2495
  0
LINE
  8
0
 10
54.8262
 20
35.2495
 11
54.9037
 21
35.4881
  0
LINE
  8
0
 10
54.9037
 20
35.4881
 11
55.0292
 21
35.7053
  0
LINE
  8
0
 10
55.0292
 20
35.7053
 11
55.197
 21
35.8918
  0
LINE
  8
0
 10
55.197
 20
35.8918
 11
55.4
 21
36.0392
  0
LINE
  8
0
 10
55.4
 20
36.0392
 11
55.6292
 21
36.1413
  0
LINE
  8
0
 10
55.6292
 20
36.1413
 11
55.8746
 21
36.1934
  0
LINE
  8
0
 10
55.8746
 20
36.1934
 11
56.1254
 21
36.1934
  0
LINE
  8
0
 10
56.1254
 20
36.1934
 11
56.3708
 21
36.1413
  0
LINE
  8
0
 10
56.3708
 20
36.1413
 11
56.6
 21
36.0392
  0
LINE
  8
0
 10
56.6
 20
36.0392
 11
56.8029
 21
35.8918
  0
LINE
  8
0
 10
56.8029
 20
35.8918
 11
56.9708
 21
35.7053
  0
LINE
  8
0
 10
56.9708
 20
35.7053
 11
57.0963
 21
35.4881
  0
LINE
  8
0
 10
57.0963
 20
35.4881
 11
57.1738
 21
35.2495
  0
LINE
  8
0
 10
57.1738
 20
35.2495
 11
57.2
 21
35
  0
LINE
  8
0
 10
57.2
 20
35
 11
57.1738
 21
34.7505
  0
LINE
  8
0
 10
57.1738
 20
34.7505
 11
57.0963
 21
34.5119
  0
LINE
  8
0
 10
57.0963
 20
34.5119
 11
56.9708
 21
34.2946
  0
LINE
  8
0
 10
56.9708
 20
34.2946
 11
56.8029
 21
34.1082
  0
LINE
  8
0
 10
56.8029
 20
34.1082
 11
56.6
 21
33.9608
  0
LINE
  8
0
 10
56.6
 20
33.9608
 11
56.3708
 21
33.8587
  0
LINE
  8
0
 10
56.3708
 20
33.8587
 11
56.1254
 21
33.8066
  0
LINE
  8
0
 10
56.1254
 20
33.8066
 11
55.8746
 21
33.8066
  0
LINE
  8
0
 10
9.87456
 20
33.8066
 11
9.62917
 21
33.8587
  0
LINE
  8
0
 10
9.62917
 20
33.8587
 11
9.39999
 21
33.9608
  0
LINE
  8
0
 10
9.39999
 20
33.9608
 11
9.19704
 21
34.1082
  0
LINE
  8
0
 10
9.19704
 20
34.1082
 11
9.02917
 21
34.2946
  0
LINE
  8
0
 10
9.02917
 20
34.2946
 11
8.90373
 21
34.5119
  0
LINE
  8
0
 10
8.90373
 20
34.5119
 11
8.82622
 21
34.7505
  0
LINE
  8
0
 10
8.82622
 20
34.7505
 11
8.79999
 21
35
  0
LINE
  8
0
 10
8.79999
 20
35
 11
8.82622
 21
35.2495
  0
LINE
  8
0
 10
8.82622
 20
35.2495
 11
8.90373
 21
35.4881
  0
LINE
  8
0
 10
8.90373
 20
35.4881
 11
9.02917
 21
35.7053
  0
LINE
  8
0
 10
9.02917
 20
35.7053
 11
9.19704
 21
35.8918
  0
LINE
  8
0
 10
9.19704
 20
35.8918
 11
9.39999
 21
36.0392
  0
LINE
  8
0
 10
9.39999
 20
36.0392
 11
9.62917
 21
36.1413
  0
LINE
  8
0
 10
9.62917
 20
36.1413
 11
9.87456
 21
36.1934
  0
LINE
  8
0
 10
9.87456
 20
36.1934
 11
10.1254
 21
36.1934
  0
LINE
  8
0
 10
10.1254
 20
36.1934
 11
10.3708
 21
36.1413
  0
LINE
  8
0
 10
10.3708
 20
36.1413
 11
10.6
 21
36.0392
  0
LINE
  8
0
 10
10.6
 20
36.0392
 11
10.8029
 21
35.8918
  0
LINE
  8
0
 10
10.8029
 20
35.8918
 11
10.9708
 21
35.7053
  0
LINE
  8
0
 10
10.9708
 20
35.7053
 11
11.0963
 21
35.4881
  0
LINE
  8
0
 10
11.0963
 20
35.4881
 11
11.1738
 21
35.2495
  0
LINE
  8
0
 10
11.1738
 20
35.2495
 11
11.2
 21
35
  0
LINE
  8
0
 10
11.2
 20
35
 11
11.1738
 21
34.7505
  0
LINE
  8
0
 10
11.1738
 20
34.7505
 11
11.0963
 21
34.5119
  0
LINE
  8
0
 10
11.0963
 20
34.5119
 11
10.9708
 21
34.2946
  0
LINE
  8
0
 10
10.9708
 20
34.2946
 11
10.8029
 21
34.1082
  0
LINE
  8
0
 10
10.8029
 20
34.1082
 11
10.6
 21
33.9608
  0
LINE
  8
0
 10
10.6
 20
33.9608
 11
10.3708
 21
33.8587
  0
LINE
  8
0
 10
10.3708
 20
33.8587
 11
10.1254
 21
33.8066
  0
LINE
  8
0
 10
10.1254
 20
33.8066
 11
9.87456
 21
33.8066
  0
LINE
  8
0
 10
60
 20
8
 11
60
 21
13
  0
LINE
  8
0
 10
60
 20
13
 11
63
 21
13
  0
LINE
  8
0
 10
63
 20
13
 11
63
 21
8
  0
LINE
  8
0
 10
63
 20
8
 11
60
 21
8
  0
LINE
  8
0
 10
3
 20
8
 11
3
 21
13
  0
LINE
  8
0
 10
3
 20
13
 11
6
 21
13
  0
LINE
  8
0
 10
6
 20
13
 11
6
 21
8
  0
LINE
  8
0
 10
6
 20
8
 11
3
 21
8
  0
LINE
  8
0
 10
9.87456
 20
8.80656
 11
9.62917
 21
8.85872
  0
LINE
  8
0
 10
9.62917
 20
8.85872
 11
9.39999
 21
8.96075
  0
LINE
  8
0
 10
9.39999
 20
8.96075
 11
9.19704
 21
9.10822
  0
LINE
  8
0
 10
9.19704
 20
9.10822
 11
9.02917
 21
9.29465
  0
LINE
  8
0
 10
9.02917
 20
9.29465
 11
8.90373
 21
9.5119
  0
LINE
  8
0
 10
8.90373
 20
9.5119
 11
8.82622
 21
9.7505
  0
LINE
  8
0
 10
8.82622
 20
9.7505
 11
8.79999
 21
10
  0
LINE
  8
0
 10
8.79999
 20
10
 11
8.82622
 21
10.2495
  0
LINE
  8
0
 10
8.82622
 20
10.2495
 11
8.90373
 21
10.4881
  0
LINE
  8
0
 10
8.90373
 20
10.4881
 11
9.02917
 21
10.7053
  0
LINE
  8
0
 10
9.02917
 20
10.7053
 11
9.19704
 21
10.8918
  0
LINE
  8
0
 10
9.19704
 20
10.8918
 11
9.39999
 21
11.0392
  0
LINE
  8
0
 10
9.39999
 20
11.0392
 11
9.62917
 21
11.1413
  0
LINE
  8
0
 10
9.62917
 20
11.1413
 11
9.87456
 21
11.1934
  0
LINE
  8
0
 10
9.87456
 20
11.1934
 11
10.1254
 21
11.1934
  0
LINE
  8
0
 10
10.1254
 20
11.1934
 11
10.3708
 21
11.1413
  0
LINE
  8
0
 10
10.3708
 20
11.1413
 11
10.6
 21
11.0392
  0
LINE
  8
0
 10
10.6
 20
11.0392
 11
10.8029
 21
10.8918
  0
LINE
  8
0
 10
10.8029
 20
10.8918
 11
10.9708
 21
10.7053
  0
LINE
  8
0
 10
10.9708
 20
10.7053
 11
11.0963
 21
10.4881
  0
LINE
  8
0
 10
11.0963
 20
10.4881
 11
11.1738
 21
10.2495
  0
LINE
  8
0
 10
11.1738
 20
10.2495
 11
11.2
 21
10
  0
LINE
  8
0
 10
11.2
 20
10
 11
11.1738
 21
9.7505
  0
LINE
  8
0
 10
11.1738
 20
9.7505
 11
11.0963
 21
9.5119
  0
LINE
  8
0
 10
11.0963
 20
9.5119
 11
10.9708
 21
9.29465
  0
LINE
  8
0
 10
10.9708
 20
9.29465
 11
10.8029
 21
9.10822
  0
LINE
  8
0
 10
10.8029
 20
9.10822
 11
10.6
 21
8.96075
  0
LINE
  8
0
 10
10.6
 20
8.96075
 11
10.3708
 21
8.85872
  0
LINE
  8
0
 10
10.3708
 20
8.85872
 11
10.1254
 21
8.80656
  0
LINE
  8
0
 10
10.1254
 20
8.80656
 11
9.87456
 21
8.80656
  0
LINE
  8
0
 10
55.8746
 20
8.80656
 11
55.6292
 21
8.85872
  0
LINE
  8
0
 10
55.6292
 20
8.85872
 11
55.4
 21
8.96075
  0
LINE
  8
0
 10
55.4
 20
8.96075
 11
55.197
 21
9.10822
  0
LINE
  8
0
 10
55.197
 20
9.10822
 11
55.0292
 21
9.29465
  0
LINE
  8
0
 10
55.0292
 20
9.29465
 11
54.9037
 21
9.5119
  0
LINE
  8
0
 10
54.9037
 20
9.5119
 11
54.8262
 21
9.7505
  0
LINE
  8
0
 10
54.8262
 20
9.7505
 11
54.8
 21
10
  0
LINE
  8
0
 10
54.8
 20
10
 11
54.8262
 21
10.2495
  0
LINE
  8
0
 10
54.8262
 20
10.2495
 11
54.9037
 21
10.4881
  0
LINE
  8
0
 10
54.9037
 20
10.4881
 11
55.0292
 21
10.7053
  0
LINE
  8
0
 10
55.0292
 20
10.7053
 11
55.197
 21
10.8918
  0
LINE
  8
0
 10
55.197
 20
10.8918
 11
55.4
 21
11.0392
  0
LINE
  8
0
 10
55.4
 20
11.0392
 11
55.6292
 21
11.1413
  0
LINE
  8
0
 10
55.6292
 20
11.1413
 11
55.8746
 21
11.1934
  0
LINE
  8
0
 10
55.8746
 20
11.1934
 11
56.1254
 21
11.1934
  0
LINE
  8
0
 10
56.1254
 20
11.1934
 11
56.3708
 21
11.1413
  0
LINE
  8
0
 10
56.3708
 20
11.1413
 11
56.6
 21
11.0392
  0
LINE
  8
0
 10
56.6
 20
11.0392
 11
56.8029
 21
10.8918
  0
LINE
  8
0
 10
56.8029
 20
10.8918
 11
56.9708
 21
10.7053
  0
LINE
  8
0
 10
56.9708
 20
10.7053
 11
57.0963
 21
10.4881
  0
LINE
  8
0
 10
57.0963
 20
10.4881
 11
57.1738
 21
10.2495
  0
LINE
  8
0
 10
57.1738
 20
10.2495
 11
57.2
 21
10
  0
LINE
  8
0
 10
57.2
 20
10
 11
57.1738
 21
9.7505
  0
LINE
  8
0
 10
57.1738
 20
9.7505
 11
57.0963
 21
9.5119
  0
LINE
  8
0
 10
57.0963
 20
9.5119
 11
56.9708
 21
9.29465
  0
LINE
  8
0
 10
56.9708
 20
9.29465
 11
56.8029
 21
9.10822
  0
LINE
  8
0
 10
56.8029
 20
9.10822
 11
56.6
 21
8.96075
  0
LINE
  8
0
 10
56.6
 20
8.96075
 11
56.3708
 21
8.85872
  0
LINE
  8
0
 10
56.3708
 20
8.85872
 11
56.1254
 21
8.80656
  0
LINE
  8
0
 10
56.1254
 20
8.80656
 11
55.8746
 21
8.80656
  0
LINE
  8
0
 10
53
 20
3
 11
53
 21
6
  0
LINE
  8
0
 10
53
 20
6
 11
58
 21
6
  0
LINE
  8
0
 10
58
 20
6
 11
58
 21
3
  0
LINE
  8
0
 10
58
 20
3
 11
53
 21
3
  0
LINE
  8
0
 10
8
 20
3
 11
8
 21
6
  0
LINE
  8
0
 10
8
 20
6
 11
13
 21
6
  0
LINE
  8
0
 10
13
 20
6
 11
13
 21
3
  0
LINE
  8
0
 10
13
 20
3
 11
8
 21
3
  0
LINE
  8
0
 10
133
 20
15
 11
120.2
 21
15
  0
LINE
  8
0
 10
120.2
 20
15
 11
120.2
 21
30
  0
LINE
  8
0
 10
120.2
 20
30
 11
133
 21
30
  0
LINE
  8
0
 10
133
 20
30
 11
133
 21
45
  0
LINE
  8
0
 10
133
 20
45
 11
67
 21
45
  0
LINE
  8
0
 10
67
 20
45
 11
67
 21
30
  0
LINE
  8
0
 10
67
 20
30
 11
79.8
 21
30
  0
LINE
  8
0
 10
79.8
 20
30
 11
79.8
 21
15
  0
LINE
  8
0
 10
79.8
 20
15
 11
67
 21
15
  0
LINE
  8
0
 10
67
 20
15
 11
67
 21
0
  0
LINE
  8
0
 10
67
 20
0
 11
133
 21
0
  0
LINE
  8
0
 10
133
 20
0
 11
133
 21
15
  0
LINE
  8
0
 10
120
 20
39
 11
120
 21
42
  0
LINE
  8
0
 10
120
 20
42
 11
125
 21
42
  0
LINE
  8
0
 10
125
 20
42
 11
125
 21
39
  0
LINE
  8
0
 10
125
 20
39
 11
120
 21
39
  0
LINE
  8
0
 10
75
 20
39
 11
75
 21
42
  0
LINE
  8
0
 10
75
 20
42
 11
80
 21
42
  0
LINE
  8
0
 10
80
 20
42
 11
80
 21
39
  0
LINE
  8
0
 10
80
 20
39
 11
75
 21
39
  0
LINE
  8
0
 10
127
 20
32
 11
127
 21
37
  0
LINE
  8
0
 10
127
 20
37
 11
130
 21
37
  0
LINE
  8
0
 10
130
 20
37
 11
130
 21
32
  0
LINE
  8
0
 10
130
 20
32
 11
127
 21
32
  0
LINE
  8
0
 10
70
 20
32
 11
70
 21
37
  0
LINE
  8
0
 10
70
 20
37
 11
73
 21
37
  0
LINE
  8
0
 10
73
 20
37
 11
73
 21
32
  0
LINE
  8
0
 10
73
 20
32
 11
70
 21
32
  0
LINE
  8
0
 10
122.875
 20
33.8066
 11
122.629
 21
33.8587
  0
LINE
  8
0
 10
122.629
 20
33.8587
 11
122.4
 21
33.9608
  0
LINE
  8
0
 10
122.4
 20
33.9608
 11
122.197
 21
34.1082
  0
LINE
  8
0
 10
122.197
 20
34.1082
 11
122.029
 21
34.2946
  0
LINE
  8
0
 10
122.029
 20
34.2946
 11
121.904
 21
34.5119
  0
LINE
  8
0
 10
121.904
 20
34.5119
 11
121.826
 21
34.7505
  0
LINE
  8
0
 10
121.826
 20
34.7505
 11
121.8
 21
35
  0
LINE
  8
0
 10
121.8
 20
35
 11
121.826
 21
35.2495
  0
LINE
  8
0
 10
121.826
 20
35.2495
 11
121.904
 21
35.4881
  0
LINE
  8
0
 10
121.904
 20
35.4881
 11
122.029
 21
35.7053
  0
LINE
  8
0
 10
122.029
 20
35.7053
 11
122.197
 21
35.8918
  0
LINE
  8
0
 10
122.197
 20
35.8918
 11
122.4
 21
36.0392
  0
LINE
  8
0
 10
122.4
 20
36.0392
 11
122.629
 21
36.1413
  0
LINE
  8
0
 10
122.629
 20
36.1413
 11
122.875
 21
36.1934
  0
LINE
  8
0
 10
122.875
 20
36.1934
 11
123.125
 21
36.1934
  0
LINE
  8
0
 10
123.125
 20
36.1934
 11
123.371
 21
36.1413
  0
LINE
  8
0
 10
123.371
 20
36.1413
 11
123.6
 21
36.0392
  0
LINE
  8
0
 10
123.6
 20
36.0392
 11
123.803
 21
35.8918
  0
LINE
  8
0
 10
123.803
 20
35.8918
 11
123.971
 21
35.7053
  0
LINE
  8
0
 10
123.971
 20
35.7053
 11
124.096
 21
35.4881
  0
LINE
  8
0
 10
124.096
 20
35.4881
 11
124.174
 21
35.2495
  0
LINE
  8
0
 10
124.174
 20
35.2495
 11
124.2
 21
35
  0
LINE
  8
0
 10
124.2
 20
35
 11
124.174
 21
34.7505
  0
LINE
  8
0
 10
124.174
 20
34.7505
 11
124.096
 21
34.5119
  0
LINE
  8
0
 10
124.096
 20
34.5119
 11
123.971
 21
34.2946
  0
LINE
  8
0
 10
123.971
 20
34.2946
 11
123.803
 21
34.1082
  0
LINE
  8
0
 10
123.803
 20
34.1082
 11
123.6
 21
33.9608
  0
LINE
  8
0
 10
123.6
 20
33.9608
 11
123.371
 21
33.8587
  0
LINE
  8
0
 10
123.371
 20
33.8587
 11
123.125
 21
33.8066
  0
LINE
  8
0
 10
123.125
 20
33.8066
 11
122.875
 21
33.8066
  0
LINE
  8
0
 10
76.8746
 20
33.8066
 11
76.6292
 21
33.8587
  0
LINE
  8
0
 10
76.6292
 20
33.8587
 11
76.4
 21
33.9608
  0
LINE
  8
0
 10
76.4
 20
33.9608
 11
76.197
 21
34.1082
  0
LINE
  8
0
 10
76.197
 20
34.1082
 11
76.0292
 21
34.2946
  0
LINE
  8
0
 10
76.0292
 20
34.2946
 11
75.9037
 21
34.5119
  0
LINE
  8
0
 10
75.9037
 20
34.5119
 11
75.8262
 21
34.7505
  0
LINE
  8
0
 10
75.8262
 20
34.7505
 11
75.8
 21
35
  0
LINE
  8
0
 10
75.8
 20
35
 11
75.8262
 21
35.2495
  0
LINE
  8
0
 10
75.8262
 20
35.2495
 11
75.9037
 21
35.4881
  0
LINE
  8
0
 10
75.9037
 20
35.4881
 11
76.0292
 21
35.7053
  0
LINE
  8
0
 10
76.0292
 20
35.7053
 11
76.197
 21
35.8918
  0
LINE
  8
0
 10
76.197
 20
35.8918
 11
76.4
 21
36.0392
  0
LINE
  8
0
 10
76.4
 20
36.0392
 11
76.6292
 21
36.1413
  0
LINE
  8
0
 10
76.6292
 20
36.1413
 11
76.8746
 21
36.1934
  0
LINE
  8
0
 10
76.8746
 20
36.1934
 11
77.1254
 21
36.1934
  0
LINE
  8
0
 10
77.1254
 20
36.1934
 11
77.3708
 21
36.1413
  0
LINE
  8
0
 10
77.3708
 20
36.1413
 11
77.6
 21
36.0392
  0
LINE
  8
0
 10
77.6
 20
36.0392
 11
77.8029
 21
35.8918
  0
LINE
  8
0
 10
77.8029
 20
35.8918
 11
77.9708
 21
35.7053
  0
LINE
  8
0
 10
77.9708
 20
35.7053
 11
78.0963
 21
35.4881
  0
LINE
  8
0
 10
78.0963
 20
35.4881
 11
78.1738
 21
35.2495
  0
LINE
  8
0
 10
78.1738
 20
35.2495
 11
78.2
 21
35
  0
LINE
  8
0
 10
78.2
 20
35
 11
78.1738
 21
34.7505
  0
LINE
  8
0
 10
78.1738
 20
34.7505
 11
78.0963
 21
34.5119
  0
LINE
  8
0
 10
78.0963
 20
34.5119
 11
77.9708
 21
34.2946
  0
LINE
  8
0
 10
77.9708
 20
34.2946
 11
77.8029
 21
34.1082
  0
LINE
  8
0
 10
77.8029
 20
34.1082
 11
77.6
 21
33.9608
  0
LINE
  8
0
 10
77.6
 20
33.9608
 11
77.3708
 21
33.8587
  0
LINE
  8
0
 10
77.3708
 20
33.8587
 11
77.1254
 21
33.8066
  0
LINE
  8
0
 10
77.1254
 20
33.8066
 11
76.8746
 21
33.8066
  0
LINE
  8
0
 10
99.8432
 20
31.7182
 11
99.5365
 21
31.7834
  0
LINE
  8
0
 10
99.5365
 20
31.7834
 11
99.25
 21
31.9109
  0
LINE
  8
0
 10
99.25
 20
31.9109
 11
98.9963
 21
32.0953
  0
LINE
  8
0
 10
98.9963
 20
32.0953
 11
98.7865
 21
32.3283
  0
LINE
  8
0
 10
98.7865
 20
32.3283
 11
98.6297
 21
32.5999
  0
LINE
  8
0
 10
98.6297
 20
32.5999
 11
98.5328
 21
32.8981
  0
LINE
  8
0
 10
98.5328
 20
32.8981
 11
98.5
 21
33.21
  0
LINE
  8
0
 10
98.5
 20
33.21
 11
98.5328
 21
33.5219
  0
LINE
  8
0
 10
98.5328
 20
33.5219
 11
98.6297
 21
33.8201
  0
LINE
  8
0
 10
98.6297
 20
33.8201
 11
98.7865
 21
34.0917
  0
LINE
  8
0
 10
98.7865
 20
34.0917
 11
98.9963
 21
34.3247
  0
LINE
  8
0
 10
98.9963
 20
34.3247
 11
99.25
 21
34.509
  0
LINE
  8
0
 10
99.25
 20
34.509
 11
99.5365
 21
34.6366
  0
LINE
  8
0
 10
99.5365
 20
34.6366
 11
99.8432
 21
34.7018
  0
LINE
  8
0
 10
99.8432
 20
34.7018
 11
100.157
 21
34.7018
  0
LINE
  8
0
 10
100.157
 20
34.7018
 11
100.464
 21
34.6366
  0
LINE
  8
0
 10
100.464
 20
34.6366
 11
100.75
 21
34.509
  0
LINE
  8
0
 10
100.75
 20
34.509
 11
101.004
 21
34.3247
  0
LINE
  8
0
 10
101.004
 20
34.3247
 11
101.214
 21
34.0917
  0
LINE
  8
0
 10
101.214
 20
34.0917
 11
101.37
 21
33.8201
  0
LINE
  8
0
 10
101.37
 20
33.8201
 11
101.467
 21
33.5219
  0
LINE
  8
0
 10
101.467
 20
33.5219
 11
101.5
 21
33.21
  0
LINE
  8
0
 10
101.5
 20
33.21
 11
101.467
 21
32.8981
  0
LINE
  8
0
 10
101.467
 20
32.8981
 11
101.37
 21
32.5999
  0
LINE
  8
0
 10
101.37
 20
32.5999
 11
101.214
 21
32.3283
  0
LINE
  8
0
 10
101.214
 20
32.3283
 11
101.004
 21
32.0953
  0
LINE
  8
0
 10
101.004
 20
32.0953
 11
100.75
 21
31.9109
  0
LINE
  8
0
 10
100.75
 20
31.9109
 11
100.464
 21
31.7834
  0
LINE
  8
0
 10
100.464
 20
31.7834
 11
100.157
 21
31.7182
  0
LINE
  8
0
 10
100.157
 20
31.7182
 11
99.8432
 21
31.7182
  0
LINE
  8
0
 10
127
 20
8
 11
127
 21
13
  0
LINE
  8
0
 10
127
 20
13
 11
130
 21
13
  0
LINE
  8
0
 10
130
 20
13
 11
130
 21
8
  0
LINE
  8
0
 10
130
 20
8
 11
127
 21
8
  0
LINE
  8
0
 10
70
 20
8
 11
70
 21
13
  0
LINE
  8
0
 10
70
 20
13
 11
73
 21
13
  0
LINE
  8
0
 10
73
 20
13
 11
73
 21
8
  0
LINE
  8
0
 10
73
 20
8
 11
70
 21
8
  0
LINE
  8
0
 10
122.875
 20
8.80656
 11
122.629
 21
8.85872
  0
LINE
  8
0
 10
122.629
 20
8.85872
 11
122.4
 21
8.96075
  0
LINE
  8
0
 10
122.4
 20
8.96075
 11
122.197
 21
9.10822
  0
LINE
  8
0
 10
122.197
 20
9.10822
 11
122.029
 21
9.29465
  0
LINE
  8
0
 10
122.029
 20
9.29465
 11
121.904
 21
9.5119
  0
LINE
  8
0
 10
121.904
 20
9.5119
 11
121.826
 21
9.7505
  0
LINE
  8
0
 10
121.826
 20
9.7505
 11
121.8
 21
10
  0
LINE
  8
0
 10
121.8
 20
10
 11
121.826
 21
10.2495
  0
LINE
  8
0
 10
121.826
 20
10.2495
 11
121.904
 21
10.4881
  0
LINE
  8
0
 10
121.904
 20
10.4881
 11
122.029
 21
10.7053
  0
LINE
  8
0
 10
122.029
 20
10.7053
 11
122.197
 21
10.8918
  0
LINE
  8
0
 10
122.197
 20
10.8918
 11
122.4
 21
11.0392
  0
LINE
  8
0
 10
122.4
 20
11.0392
 11
122.629
 21
11.1413
  0
LINE
  8
0
 10
122.629
 20
11.1413
 11
122.875
 21
11.1934
  0
LINE
  8
0
 10
122.875
 20
11.1934
 11
123.125
 21
11.1934
  0
LINE
  8
0
 10
123.125
 20
11.1934
 11
123.371
 21
11.1413
  0
LINE
  8
0
 10
123.371
 20
11.1413
 11
123.6
 21
11.0392
  0
LINE
  8
0
 10
123.6
 20
11.0392
 11
123.803
 21
10.8918
  0
LINE
  8
0
 10
123.803
 20
10.8918
 11
123.971
 21
10.7053
  0
LINE
  8
0
 10
123.971
 20
10.7053
 11
124.096
 21
10.4881
  0
LINE
  8
0
 10
124.096
 20
10.4881
 11
124.174
 21
10.2495
  0
LINE
  8
0
 10
124.174
 20
10.2495
 11
124.2
 21
10
  0
LINE
  8
0
 10
124.2
 20
10
 11
124.174
 21
9.7505
  0
LINE
  8
0
 10
124.174
 20
9.7505
 11
124.096
 21
9.5119
  0
LINE
  8
0
 10
124.096
 20
9.5119
 11
123.971
 21
9.29465
  0
LINE
  8
0
 10
123.971
 20
9.29465
 11
123.803
 21
9.10822
  0
LINE
  8
0
 10
123.803
 20
9.10822
 11
123.6
 21
8.96075
  0
LINE
  8
0
 10
123.6
 20
8.96075
 11
123.371
 21
8.85872
  0
LINE
  8
0
 10
123.371
 20
8.85872
 11
123.125
 21
8.80656
  0
LINE
  8
0
 10
123.125
 20
8.80656
 11
122.875
 21
8.80656
  0
LINE
  8
0
 10
76.8746
 20
8.80656
 11
76.6292
 21
8.85872
  0
LINE
  8
0
 10
76.6292
 20
8.85872
 11
76.4
 21
8.96075
  0
LINE
  8
0
 10
76.4
 20
8.96075
 11
76.197
 21
9.10822
  0
LINE
  8
0
 10
76.197
 20
9.10822
 11
76.0292
 21
9.29465
  0
LINE
  8
0
 10
76.0292
 20
9.29465
 11
75.9037
 21
9.5119
  0
LINE
  8
0
 10
75.9037
 20
9.5119
 11
75.8262
 21
9.7505
  0
LINE
  8
0
 10
75.8262
 20
9.7505
 11
75.8
 21
10
  0
LINE
  8
0
 10
75.8
 20
10
 11
75.8262
 21
10.2495
  0
LINE
  8
0
 10
75.8262
 20
10.2495
 11
75.9037
 21
10.4881
  0
LINE
  8
0
 10
75.9037
 20
10.4881
 11
76.0292
 21
10.7053
  0
LINE
  8
0
 10
76.0292
 20
10.7053
 11
76.197
 21
10.8918
  0
LINE
  8
0
 10
76.197
 20
10.8918
 11
76.4
 21
11.0392
  0
LINE
  8
0
 10
76.4
 20
11.0392
 11
76.6292
 21
11.1413
  0
LINE
  8
0
 10
76.6292
 20
11.1413
 11
76.8746
 21
11.1934
  0
LINE
  8
0
 10
76.8746
 20
11.1934
 11
77.1254
 21
11.1934
  0
LINE
  8
0
 10
77.1254
 20
11.1934
 11
77.3708
 21
11.1413
  0
LINE
  8
0
 10
77.3708
 20
11.1413
 11
77.6
 21
11.0392
  0
LINE
  8
0
 10
77.6
 20
11.0392
 11
77.8029
 21
10.8918
  0
LINE
  8
0
 10
77.8029
 20
10.8918
 11
77.9708
 21
10.7053
  0
LINE
  8
0
 10
77.9708
 20
10.7053
 11
78.0963
 21
10.4881
  0
LINE
  8
0
 10
78.0963
 20
10.4881
 11
78.1738
 21
10.2495
  0
LINE
  8
0
 10
78.1738
 20
10.2495
 11
78.2
 21
10
  0
LINE
  8
0
 10
78.2
 20
10
 11
78.1738
 21
9.7505
  0
LINE
  8
0
 10
78.1738
 20
9.7505
 11
78.0963
 21
9.5119
  0
LINE
  8
0
 10
78.0963
 20
9.5119
 11
77.9708
 21
9.29465
  0
LINE
  8
0
 10
77.9708
 20
9.29465
 11
77.8029
 21
9.10822
  0
LINE
  8
0
 10
77.8029
 20
9.10822
 11
77.6
 21
8.96075
  0
LINE
  8
0
 10
77.6
 20
8.96075
 11
77.3708
 21
8.85872
  0
LINE
  8
0
 10
77.3708
 20
8.85872
 11
77.1254
 21
8.80656
  0
LINE
  8
0
 10
77.1254
 20
8.80656
 11
76.8746
 21
8.80656
  0
LINE
  8
0
 10
120
 20
3
 11
120
 21
6
  0
LINE
  8
0
 10
120
 20
6
 11
125
 21
6
  0
LINE
  8
0
 10
125
 20
6
 11
125
 21
3
  0
LINE
  8
0
 10
125
 20
3
 11
120
 21
3
  0
LINE
  8
0
 10
75
 20
3
 11
75
 21
6
  0
LINE
  8
0
 10
75
 20
6
 11
80
 21
6
  0
LINE
  8
0
 10
80
 20
6
 11
80
 21
3
  0
LINE
  8
0
 10
80
 20
3
 11
75
 21
3
  0
ENDSEC
  0
SECTION
  2
OBJECTS
  0
DICTIONARY
  0
ENDSEC
  0
EOF
