  0
SECTION
  2
BLOCKS
  0
ENDSEC
  0
SECTION
  2
ENTITIES
  0
LINE
  8
0
 10
80
 20
0.0219116
 11
80.4181
 21
0.0219116
  0
LINE
  8
0
 10
80.4181
 20
0.0219116
 11
81.2361
 21
0.19577
  0
LINE
  8
0
 10
81.2361
 20
0.19577
 11
82
 21
0.535889
  0
LINE
  8
0
 10
82
 20
0.535889
 11
82.6765
 21
1.02742
  0
LINE
  8
0
 10
82.6765
 20
1.02742
 11
83.2361
 21
1.64885
  0
LINE
  8
0
 10
83.2361
 20
1.64885
 11
83.6542
 21
2.37305
  0
LINE
  8
0
 10
83.6542
 20
2.37305
 11
83.9126
 21
3.16835
  0
LINE
  8
0
 10
83.9126
 20
3.16835
 11
84
 21
4
  0
LINE
  8
0
 10
84
 20
4
 11
118
 21
4
  0
LINE
  8
0
 10
118
 20
4
 11
118
 21
4.02191
  0
LINE
  8
0
 10
118
 20
4.02191
 11
118.418
 21
4.02191
  0
LINE
  8
0
 10
118.418
 20
4.02191
 11
119.236
 21
4.19577
  0
LINE
  8
0
 10
119.236
 20
4.19577
 11
120
 21
4.53589
  0
LINE
  8
0
 10
120
 20
4.53589
 11
120.677
 21
5.02742
  0
LINE
  8
0
 10
120.677
 20
5.02742
 11
121.236
 21
5.64885
  0
LINE
  8
0
 10
121.236
 20
5.64885
 11
121.654
 21
6.37305
  0
LINE
  8
0
 10
121.654
 20
6.37305
 11
121.913
 21
7.16835
  0
LINE
  8
0
 10
121.913
 20
7.16835
 11
122
 21
8
  0
LINE
  8
0
 10
122
 20
8
 11
122
 21
42.9932
  0
LINE
  8
0
 10
122
 20
42.9932
 11
122.055
 21
43.513
  0
LINE
  8
0
 10
122.055
 20
43.513
 11
122.216
 21
44.01
  0
LINE
  8
0
 10
122.216
 20
44.01
 11
122.477
 21
44.4626
  0
LINE
  8
0
 10
122.477
 20
44.4626
 11
122.827
 21
44.851
  0
LINE
  8
0
 10
122.827
 20
44.851
 11
123.25
 21
45.1582
  0
LINE
  8
0
 10
123.25
 20
45.1582
 11
123.727
 21
45.3708
  0
LINE
  8
0
 10
123.727
 20
45.3708
 11
124.239
 21
45.4795
  0
LINE
  8
0
 10
124.239
 20
45.4795
 11
124.5
 21
45.4795
  0
LINE
  8
0
 10
124.5
 20
45.4795
 11
124.5
 21
45.5233
  0
LINE
  8
0
 10
124.5
 20
45.5233
 11
125.075
 21
45.5233
  0
LINE
  8
0
 10
125.075
 20
45.5233
 11
126.2
 21
45.7624
  0
LINE
  8
0
 10
126.2
 20
45.7624
 11
127.25
 21
46.23
  0
LINE
  8
0
 10
127.25
 20
46.23
 11
128.18
 21
46.9059
  0
LINE
  8
0
 10
128.18
 20
46.9059
 11
128.95
 21
47.7604
  0
LINE
  8
0
 10
128.95
 20
47.7604
 11
129.525
 21
48.7561
  0
LINE
  8
0
 10
129.525
 20
48.7561
 11
129.88
 21
49.8497
  0
LINE
  8
0
 10
129.88
 20
49.8497
 11
130
 21
50.9932
  0
LINE
  8
0
 10
130
 20
50.9932
 11
129.88
 21
52.1367
  0
LINE
  8
0
 10
129.88
 20
52.1367
 11
129.826
 21
52.3014
  0
LINE
  8
0
 10
129.826
 20
52.3014
 11
129.848
 21
52.3067
  0
LINE
  8
0
 10
129.848
 20
52.3067
 11
129.824
 21
52.3816
  0
LINE
  8
0
 10
129.824
 20
52.3816
 11
129.769
 21
52.9014
  0
LINE
  8
0
 10
129.769
 20
52.9014
 11
129.824
 21
53.4212
  0
LINE
  8
0
 10
129.824
 20
53.4212
 11
129.985
 21
53.9182
  0
LINE
  8
0
 10
129.985
 20
53.9182
 11
130.247
 21
54.3708
  0
LINE
  8
0
 10
130.247
 20
54.3708
 11
130.596
 21
54.7592
  0
LINE
  8
0
 10
130.596
 20
54.7592
 11
131.019
 21
55.0664
  0
LINE
  8
0
 10
131.019
 20
55.0664
 11
131.497
 21
55.279
  0
LINE
  8
0
 10
131.497
 20
55.279
 11
131.676
 21
55.3171
  0
LINE
  8
0
 10
131.676
 20
55.3171
 11
131.673
 21
55.3292
  0
LINE
  8
0
 10
131.673
 20
55.3292
 11
157.921
 21
61.7762
  0
LINE
  8
0
 10
157.921
 20
61.7762
 11
157.916
 21
61.7956
  0
LINE
  8
0
 10
157.916
 20
61.7956
 11
158.203
 21
61.8565
  0
LINE
  8
0
 10
158.203
 20
61.8565
 11
158.967
 21
62.1967
  0
LINE
  8
0
 10
158.967
 20
62.1967
 11
159.644
 21
62.6882
  0
LINE
  8
0
 10
159.644
 20
62.6882
 11
160.203
 21
63.3096
  0
LINE
  8
0
 10
160.203
 20
63.3096
 11
160.621
 21
64.0338
  0
LINE
  8
0
 10
160.621
 20
64.0338
 11
160.88
 21
64.8291
  0
LINE
  8
0
 10
160.88
 20
64.8291
 11
160.967
 21
65.6608
  0
LINE
  8
0
 10
160.967
 20
65.6608
 11
160.88
 21
66.4924
  0
LINE
  8
0
 10
160.88
 20
66.4924
 11
160.841
 21
66.6122
  0
LINE
  8
0
 10
160.841
 20
66.6122
 11
160.852
 21
66.6149
  0
LINE
  8
0
 10
160.852
 20
66.6149
 11
151.788
 21
103.518
  0
LINE
  8
0
 10
151.788
 20
103.518
 11
151.775
 21
103.515
  0
LINE
  8
0
 10
151.775
 20
103.515
 11
151.524
 21
104.287
  0
LINE
  8
0
 10
151.524
 20
104.287
 11
151.046
 21
105.115
  0
LINE
  8
0
 10
151.046
 20
105.115
 11
150.407
 21
105.825
  0
LINE
  8
0
 10
150.407
 20
105.825
 11
149.633
 21
106.387
  0
LINE
  8
0
 10
149.633
 20
106.387
 11
148.76
 21
106.776
  0
LINE
  8
0
 10
148.76
 20
106.776
 11
147.825
 21
106.975
  0
LINE
  8
0
 10
147.825
 20
106.975
 11
147.347
 21
106.975
  0
LINE
  8
0
 10
147.347
 20
106.975
 11
147.347
 21
107
  0
LINE
  8
0
 10
147.347
 20
107
 11
0
 21
107
  0
LINE
  8
0
 10
0
 20
107
 11
0
 21
101.5
  0
LINE
  8
0
 10
0
 20
101.5
 11
0.120178
 21
100.356
  0
LINE
  8
0
 10
0.120178
 20
100.356
 11
0.475494
 21
99.2629
  0
LINE
  8
0
 10
0.475494
 20
99.2629
 11
1.0504
 21
98.2672
  0
LINE
  8
0
 10
1.0504
 20
98.2672
 11
1.81978
 21
97.4127
  0
LINE
  8
0
 10
1.81978
 20
97.4127
 11
2.75
 21
96.7369
  0
LINE
  8
0
 10
2.75
 20
96.7369
 11
3.8004
 21
96.2692
  0
LINE
  8
0
 10
3.8004
 20
96.2692
 11
4.92508
 21
96.0301
  0
LINE
  8
0
 10
4.92508
 20
96.0301
 11
5.5
 21
96.0301
  0
LINE
  8
0
 10
5.5
 20
96.0301
 11
5.5
 21
96
  0
LINE
  8
0
 10
5.5
 20
96
 11
54.8
 21
96
  0
LINE
  8
0
 10
54.8
 20
96
 11
54.8
 21
81
  0
LINE
  8
0
 10
54.8
 20
81
 11
38
 21
81
  0
LINE
  8
0
 10
38
 20
81
 11
38
 21
77
  0
LINE
  8
0
 10
38
 20
77
 11
37.9126
 21
76.1684
  0
LINE
  8
0
 10
37.9126
 20
76.1684
 11
37.6542
 21
75.373
  0
LINE
  8
0
 10
37.6542
 20
75.373
 11
37.2361
 21
74.6488
  0
LINE
  8
0
 10
37.2361
 20
74.6488
 11
36.6765
 21
74.0274
  0
LINE
  8
0
 10
36.6765
 20
74.0274
 11
36
 21
73.5359
  0
LINE
  8
0
 10
36
 20
73.5359
 11
35.2361
 21
73.1958
  0
LINE
  8
0
 10
35.2361
 20
73.1958
 11
34.4181
 21
73.0219
  0
LINE
  8
0
 10
34.4181
 20
73.0219
 11
34
 21
73.0219
  0
LINE
  8
0
 10
34
 20
73.0219
 11
34
 21
73
  0
LINE
  8
0
 10
34
 20
73
 11
23
 21
73
  0
LINE
  8
0
 10
23
 20
73
 11
23
 21
72.9781
  0
LINE
  8
0
 10
23
 20
72.9781
 11
22.5819
 21
72.9781
  0
LINE
  8
0
 10
22.5819
 20
72.9781
 11
21.7639
 21
72.8042
  0
LINE
  8
0
 10
21.7639
 20
72.8042
 11
21
 21
72.4641
  0
LINE
  8
0
 10
21
 20
72.4641
 11
20.3235
 21
71.9726
  0
LINE
  8
0
 10
20.3235
 20
71.9726
 11
19.7639
 21
71.3511
  0
LINE
  8
0
 10
19.7639
 20
71.3511
 11
19.3458
 21
70.6269
  0
LINE
  8
0
 10
19.3458
 20
70.6269
 11
19.0874
 21
69.8316
  0
LINE
  8
0
 10
19.0874
 20
69.8316
 11
19
 21
69
  0
LINE
  8
0
 10
19
 20
69
 11
19
 21
67.5
  0
LINE
  8
0
 10
19
 20
67.5
 11
18.9126
 21
66.6684
  0
LINE
  8
0
 10
18.9126
 20
66.6684
 11
18.6542
 21
65.873
  0
LINE
  8
0
 10
18.6542
 20
65.873
 11
18.2361
 21
65.1488
  0
LINE
  8
0
 10
18.2361
 20
65.1488
 11
17.6765
 21
64.5274
  0
LINE
  8
0
 10
17.6765
 20
64.5274
 11
17
 21
64.0359
  0
LINE
  8
0
 10
17
 20
64.0359
 11
16.2361
 21
63.6958
  0
LINE
  8
0
 10
16.2361
 20
63.6958
 11
15.4181
 21
63.5219
  0
LINE
  8
0
 10
15.4181
 20
63.5219
 11
15
 21
63.5219
  0
LINE
  8
0
 10
15
 20
63.5219
 11
15
 21
63.5
  0
LINE
  8
0
 10
15
 20
63.5
 11
4
 21
63.5
  0
LINE
  8
0
 10
4
 20
63.5
 11
4
 21
63.4781
  0
LINE
  8
0
 10
4
 20
63.4781
 11
3.58188
 21
63.4781
  0
LINE
  8
0
 10
3.58188
 20
63.4781
 11
2.76393
 21
63.3042
  0
LINE
  8
0
 10
2.76393
 20
63.3042
 11
2
 21
62.9641
  0
LINE
  8
0
 10
2
 20
62.9641
 11
1.32347
 21
62.4726
  0
LINE
  8
0
 10
1.32347
 20
62.4726
 11
0.763931
 21
61.8511
  0
LINE
  8
0
 10
0.763931
 20
61.8511
 11
0.34581
 21
61.1269
  0
LINE
  8
0
 10
0.34581
 20
61.1269
 11
0.0874023
 21
60.3316
  0
LINE
  8
0
 10
0.0874023
 20
60.3316
 11
0
 21
59.5
  0
LINE
  8
0
 10
0
 20
59.5
 11
0
 21
21.5
  0
LINE
  8
0
 10
0
 20
21.5
 11
0.0874023
 21
20.6684
  0
LINE
  8
0
 10
0.0874023
 20
20.6684
 11
0.34581
 21
19.873
  0
LINE
  8
0
 10
0.34581
 20
19.873
 11
0.763931
 21
19.1488
  0
LINE
  8
0
 10
0.763931
 20
19.1488
 11
1.32347
 21
18.5274
  0
LINE
  8
0
 10
1.32347
 20
18.5274
 11
2
 21
18.0359
  0
LINE
  8
0
 10
2
 20
18.0359
 11
2.76393
 21
17.6958
  0
LINE
  8
0
 10
2.76393
 20
17.6958
 11
3.58188
 21
17.5219
  0
LINE
  8
0
 10
3.58188
 20
17.5219
 11
4
 21
17.5219
  0
LINE
  8
0
 10
4
 20
17.5219
 11
4
 21
17.5
  0
LINE
  8
0
 10
4
 20
17.5
 11
7
 21
17.5
  0
LINE
  8
0
 10
7
 20
17.5
 11
7
 21
17.4781
  0
LINE
  8
0
 10
7
 20
17.4781
 11
7.41811
 21
17.4781
  0
LINE
  8
0
 10
7.41811
 20
17.4781
 11
8.23605
 21
17.3042
  0
LINE
  8
0
 10
8.23605
 20
17.3042
 11
9
 21
16.9641
  0
LINE
  8
0
 10
9
 20
16.9641
 11
9.67651
 21
16.4726
  0
LINE
  8
0
 10
9.67651
 20
16.4726
 11
10.2361
 21
15.8511
  0
LINE
  8
0
 10
10.2361
 20
15.8511
 11
10.6542
 21
15.1269
  0
LINE
  8
0
 10
10.6542
 20
15.1269
 11
10.9126
 21
14.3316
  0
LINE
  8
0
 10
10.9126
 20
14.3316
 11
11.1202
 21
12.3565
  0
LINE
  8
0
 10
11.1202
 20
12.3565
 11
11.4755
 21
11.2629
  0
LINE
  8
0
 10
11.4755
 20
11.2629
 11
12.0504
 21
10.2672
  0
LINE
  8
0
 10
12.0504
 20
10.2672
 11
12.8198
 21
9.41269
  0
LINE
  8
0
 10
12.8198
 20
9.41269
 11
13.75
 21
8.73685
  0
LINE
  8
0
 10
13.75
 20
8.73685
 11
14.8004
 21
8.26918
  0
LINE
  8
0
 10
14.8004
 20
8.26918
 11
15.9251
 21
8.03012
  0
LINE
  8
0
 10
15.9251
 20
8.03012
 11
16.5
 21
8.03012
  0
LINE
  8
0
 10
16.5
 20
8.03012
 11
16.5
 21
8
  0
LINE
  8
0
 10
16.5
 20
8
 11
38
 21
8
  0
LINE
  8
0
 10
38
 20
8
 11
38.0874
 21
7.16835
  0
LINE
  8
0
 10
38.0874
 20
7.16835
 11
38.3458
 21
6.37305
  0
LINE
  8
0
 10
38.3458
 20
6.37305
 11
38.7639
 21
5.64885
  0
LINE
  8
0
 10
38.7639
 20
5.64885
 11
39.3235
 21
5.02742
  0
LINE
  8
0
 10
39.3235
 20
5.02742
 11
40
 21
4.53589
  0
LINE
  8
0
 10
40
 20
4.53589
 11
40.7639
 21
4.19577
  0
LINE
  8
0
 10
40.7639
 20
4.19577
 11
41.5819
 21
4.02191
  0
LINE
  8
0
 10
41.5819
 20
4.02191
 11
42
 21
4.02191
  0
LINE
  8
0
 10
42
 20
4.02191
 11
42
 21
4
  0
LINE
  8
0
 10
42
 20
4
 11
57
 21
4
  0
LINE
  8
0
 10
57
 20
4
 11
57.0874
 21
3.16835
  0
LINE
  8
0
 10
57.0874
 20
3.16835
 11
57.3458
 21
2.37305
  0
LINE
  8
0
 10
57.3458
 20
2.37305
 11
57.7639
 21
1.64885
  0
LINE
  8
0
 10
57.7639
 20
1.64885
 11
58.3235
 21
1.02742
  0
LINE
  8
0
 10
58.3235
 20
1.02742
 11
59
 21
0.535889
  0
LINE
  8
0
 10
59
 20
0.535889
 11
59.7639
 21
0.19577
  0
LINE
  8
0
 10
59.7639
 20
0.19577
 11
60.5819
 21
0.0219116
  0
LINE
  8
0
 10
60.5819
 20
0.0219116
 11
61
 21
0.0219116
  0
LINE
  8
0
 10
61
 20
0.0219116
 11
61
 21
0
  0
LINE
  8
0
 10
61
 20
0
 11
80
 21
0
  0
LINE
  8
0
 10
80
 20
0
 11
80
 21
0.0219116
  0
LINE
  8
0
 10
115.479
 20
98
 11
113.459
 21
101.5
  0
LINE
  8
0
 10
113.459
 20
101.5
 11
115.479
 21
105
  0
LINE
  8
0
 10
115.479
 20
105
 11
119.521
 21
105
  0
LINE
  8
0
 10
119.521
 20
105
 11
121.541
 21
101.5
  0
LINE
  8
0
 10
121.541
 20
101.5
 11
119.521
 21
98
  0
LINE
  8
0
 10
119.521
 20
98
 11
115.479
 21
98
  0
LINE
  8
0
 10
3.47926
 20
98
 11
1.45854
 21
101.5
  0
LINE
  8
0
 10
1.45854
 20
101.5
 11
3.47926
 21
105
  0
LINE
  8
0
 10
3.47926
 20
105
 11
7.52072
 21
105
  0
LINE
  8
0
 10
7.52072
 20
105
 11
9.54144
 21
101.5
  0
LINE
  8
0
 10
9.54144
 20
101.5
 11
7.52072
 21
98
  0
LINE
  8
0
 10
7.52072
 20
98
 11
3.47926
 21
98
  0
LINE
  8
0
 10
60
 20
3
 11
60
 21
7
  0
LINE
  8
0
 10
60
 20
7
 11
41
 21
7
  0
LINE
  8
0
 10
41
 20
7
 11
41
 21
11
  0
LINE
  8
0
 10
41
 20
11
 11
22
 21
11
  0
LINE
  8
0
 10
22
 20
11
 11
22
 21
20.5
  0
LINE
  8
0
 10
22
 20
20.5
 11
3
 21
20.5
  0
LINE
  8
0
 10
3
 20
20.5
 11
3
 21
60.5
  0
LINE
  8
0
 10
3
 20
60.5
 11
22
 21
60.5
  0
LINE
  8
0
 10
22
 20
60.5
 11
22
 21
70
  0
LINE
  8
0
 10
22
 20
70
 11
43
 21
70
  0
LINE
  8
0
 10
43
 20
70
 11
43
 21
66
  0
LINE
  8
0
 10
43
 20
66
 11
62
 21
66
  0
LINE
  8
0
 10
62
 20
66
 11
62
 21
62
  0
LINE
  8
0
 10
62
 20
62
 11
79
 21
62
  0
LINE
  8
0
 10
79
 20
62
 11
79
 21
64
  0
LINE
  8
0
 10
79
 20
64
 11
72
 21
64
  0
LINE
  8
0
 10
72
 20
64
 11
72
 21
104
  0
LINE
  8
0
 10
72
 20
104
 11
112
 21
104
  0
LINE
  8
0
 10
112
 20
104
 11
112
 21
94.7753
  0
LINE
  8
0
 10
112
 20
94.7753
 11
148.636
 21
103.774
  0
LINE
  8
0
 10
148.636
 20
103.774
 11
158.177
 21
64.9281
  0
LINE
  8
0
 10
158.177
 20
64.9281
 11
119
 21
55.3058
  0
LINE
  8
0
 10
119
 20
55.3058
 11
119
 21
7
  0
LINE
  8
0
 10
119
 20
7
 11
81
 21
7
  0
LINE
  8
0
 10
81
 20
7
 11
81
 21
3
  0
LINE
  8
0
 10
81
 20
3
 11
60
 21
3
  0
LINE
  8
0
 10
122.479
 20
47.4932
 11
120.459
 21
50.9932
  0
LINE
  8
0
 10
120.459
 20
50.9932
 11
122.479
 21
54.4932
  0
LINE
  8
0
 10
122.479
 20
54.4932
 11
126.521
 21
54.4932
  0
LINE
  8
0
 10
126.521
 20
54.4932
 11
128.541
 21
50.9932
  0
LINE
  8
0
 10
128.541
 20
50.9932
 11
126.521
 21
47.4932
  0
LINE
  8
0
 10
126.521
 20
47.4932
 11
122.479
 21
47.4932
  0
LINE
  8
0
 10
14.4793
 20
10
 11
12.4585
 21
13.5
  0
LINE
  8
0
 10
12.4585
 20
13.5
 11
14.4793
 21
17
  0
LINE
  8
0
 10
14.4793
 20
17
 11
18.5207
 21
17
  0
LINE
  8
0
 10
18.5207
 20
17
 11
20.5414
 21
13.5
  0
LINE
  8
0
 10
20.5414
 20
13.5
 11
18.5207
 21
10
  0
LINE
  8
0
 10
18.5207
 20
10
 11
14.4793
 21
10
  0
ENDSEC
  0
SECTION
  2
OBJECTS
  0
DICTIONARY
  0
ENDSEC
  0
EOF
