  0
SECTION
  2
BLOCKS
  0
ENDSEC
  0
SECTION
  2
ENTITIES
  0
LINE
  8
0
 10
80
 20
0.0219116
 11
80.4181
 21
0.0219116
  0
LINE
  8
0
 10
80.4181
 20
0.0219116
 11
81.2361
 21
0.19577
  0
LINE
  8
0
 10
81.2361
 20
0.19577
 11
82
 21
0.535889
  0
LINE
  8
0
 10
82
 20
0.535889
 11
82.6765
 21
1.02742
  0
LINE
  8
0
 10
82.6765
 20
1.02742
 11
83.2361
 21
1.64885
  0
LINE
  8
0
 10
83.2361
 20
1.64885
 11
83.6542
 21
2.37305
  0
LINE
  8
0
 10
83.6542
 20
2.37305
 11
83.9126
 21
3.16835
  0
LINE
  8
0
 10
83.9126
 20
3.16835
 11
84
 21
4
  0
LINE
  8
0
 10
84
 20
4
 11
118
 21
4
  0
LINE
  8
0
 10
118
 20
4
 11
118
 21
4.02191
  0
LINE
  8
0
 10
118
 20
4.02191
 11
118.418
 21
4.02191
  0
LINE
  8
0
 10
118.418
 20
4.02191
 11
119.236
 21
4.19577
  0
LINE
  8
0
 10
119.236
 20
4.19577
 11
120
 21
4.53589
  0
LINE
  8
0
 10
120
 20
4.53589
 11
120.677
 21
5.02742
  0
LINE
  8
0
 10
120.677
 20
5.02742
 11
121.236
 21
5.64885
  0
LINE
  8
0
 10
121.236
 20
5.64885
 11
121.654
 21
6.37305
  0
LINE
  8
0
 10
121.654
 20
6.37305
 11
121.913
 21
7.16835
  0
LINE
  8
0
 10
121.913
 20
7.16835
 11
122
 21
8
  0
LINE
  8
0
 10
122
 20
8
 11
122
 21
42.9932
  0
LINE
  8
0
 10
122
 20
42.9932
 11
122.055
 21
43.513
  0
LINE
  8
0
 10
122.055
 20
43.513
 11
122.216
 21
44.01
  0
LINE
  8
0
 10
122.216
 20
44.01
 11
122.477
 21
44.4626
  0
LINE
  8
0
 10
122.477
 20
44.4626
 11
122.827
 21
44.851
  0
LINE
  8
0
 10
122.827
 20
44.851
 11
123.25
 21
45.1582
  0
LINE
  8
0
 10
123.25
 20
45.1582
 11
123.727
 21
45.3708
  0
LINE
  8
0
 10
123.727
 20
45.3708
 11
124.239
 21
45.4795
  0
LINE
  8
0
 10
124.239
 20
45.4795
 11
124.5
 21
45.4795
  0
LINE
  8
0
 10
124.5
 20
45.4795
 11
124.5
 21
45.5233
  0
LINE
  8
0
 10
124.5
 20
45.5233
 11
125.075
 21
45.5233
  0
LINE
  8
0
 10
125.075
 20
45.5233
 11
126.2
 21
45.7624
  0
LINE
  8
0
 10
126.2
 20
45.7624
 11
127.25
 21
46.23
  0
LINE
  8
0
 10
127.25
 20
46.23
 11
128.18
 21
46.9059
  0
LINE
  8
0
 10
128.18
 20
46.9059
 11
128.95
 21
47.7604
  0
LINE
  8
0
 10
128.95
 20
47.7604
 11
129.525
 21
48.7561
  0
LINE
  8
0
 10
129.525
 20
48.7561
 11
129.88
 21
49.8497
  0
LINE
  8
0
 10
129.88
 20
49.8497
 11
130
 21
50.9932
  0
LINE
  8
0
 10
130
 20
50.9932
 11
129.88
 21
52.1367
  0
LINE
  8
0
 10
129.88
 20
52.1367
 11
129.826
 21
52.3014
  0
LINE
  8
0
 10
129.826
 20
52.3014
 11
129.848
 21
52.3067
  0
LINE
  8
0
 10
129.848
 20
52.3067
 11
129.824
 21
52.3816
  0
LINE
  8
0
 10
129.824
 20
52.3816
 11
129.769
 21
52.9014
  0
LINE
  8
0
 10
129.769
 20
52.9014
 11
129.824
 21
53.4212
  0
LINE
  8
0
 10
129.824
 20
53.4212
 11
129.985
 21
53.9182
  0
LINE
  8
0
 10
129.985
 20
53.9182
 11
130.247
 21
54.3708
  0
LINE
  8
0
 10
130.247
 20
54.3708
 11
130.596
 21
54.7592
  0
LINE
  8
0
 10
130.596
 20
54.7592
 11
131.019
 21
55.0664
  0
LINE
  8
0
 10
131.019
 20
55.0664
 11
131.497
 21
55.279
  0
LINE
  8
0
 10
131.497
 20
55.279
 11
131.676
 21
55.3171
  0
LINE
  8
0
 10
131.676
 20
55.3171
 11
131.673
 21
55.3292
  0
LINE
  8
0
 10
131.673
 20
55.3292
 11
157.921
 21
61.7762
  0
LINE
  8
0
 10
157.921
 20
61.7762
 11
157.916
 21
61.7956
  0
LINE
  8
0
 10
157.916
 20
61.7956
 11
158.203
 21
61.8565
  0
LINE
  8
0
 10
158.203
 20
61.8565
 11
158.967
 21
62.1967
  0
LINE
  8
0
 10
158.967
 20
62.1967
 11
159.644
 21
62.6882
  0
LINE
  8
0
 10
159.644
 20
62.6882
 11
160.203
 21
63.3096
  0
LINE
  8
0
 10
160.203
 20
63.3096
 11
160.621
 21
64.0338
  0
LINE
  8
0
 10
160.621
 20
64.0338
 11
160.88
 21
64.8291
  0
LINE
  8
0
 10
160.88
 20
64.8291
 11
160.967
 21
65.6608
  0
LINE
  8
0
 10
160.967
 20
65.6608
 11
160.88
 21
66.4924
  0
LINE
  8
0
 10
160.88
 20
66.4924
 11
160.841
 21
66.6122
  0
LINE
  8
0
 10
160.841
 20
66.6122
 11
160.852
 21
66.6149
  0
LINE
  8
0
 10
160.852
 20
66.6149
 11
151.788
 21
103.518
  0
LINE
  8
0
 10
151.788
 20
103.518
 11
151.775
 21
103.515
  0
LINE
  8
0
 10
151.775
 20
103.515
 11
151.524
 21
104.287
  0
LINE
  8
0
 10
151.524
 20
104.287
 11
151.046
 21
105.115
  0
LINE
  8
0
 10
151.046
 20
105.115
 11
150.407
 21
105.825
  0
LINE
  8
0
 10
150.407
 20
105.825
 11
149.633
 21
106.387
  0
LINE
  8
0
 10
149.633
 20
106.387
 11
148.76
 21
106.776
  0
LINE
  8
0
 10
148.76
 20
106.776
 11
147.825
 21
106.975
  0
LINE
  8
0
 10
147.825
 20
106.975
 11
147.347
 21
106.975
  0
LINE
  8
0
 10
147.347
 20
106.975
 11
147.347
 21
107
  0
LINE
  8
0
 10
147.347
 20
107
 11
0
 21
107
  0
LINE
  8
0
 10
0
 20
107
 11
0
 21
101.5
  0
LINE
  8
0
 10
0
 20
101.5
 11
0.120178
 21
100.356
  0
LINE
  8
0
 10
0.120178
 20
100.356
 11
0.475494
 21
99.2629
  0
LINE
  8
0
 10
0.475494
 20
99.2629
 11
1.0504
 21
98.2672
  0
LINE
  8
0
 10
1.0504
 20
98.2672
 11
1.81978
 21
97.4127
  0
LINE
  8
0
 10
1.81978
 20
97.4127
 11
2.75
 21
96.7369
  0
LINE
  8
0
 10
2.75
 20
96.7369
 11
3.8004
 21
96.2692
  0
LINE
  8
0
 10
3.8004
 20
96.2692
 11
4.92508
 21
96.0301
  0
LINE
  8
0
 10
4.92508
 20
96.0301
 11
5.5
 21
96.0301
  0
LINE
  8
0
 10
5.5
 20
96.0301
 11
5.5
 21
96
  0
LINE
  8
0
 10
5.5
 20
96
 11
54.8
 21
96
  0
LINE
  8
0
 10
54.8
 20
96
 11
54.8
 21
81
  0
LINE
  8
0
 10
54.8
 20
81
 11
38
 21
81
  0
LINE
  8
0
 10
38
 20
81
 11
38
 21
77
  0
LINE
  8
0
 10
38
 20
77
 11
37.9126
 21
76.1684
  0
LINE
  8
0
 10
37.9126
 20
76.1684
 11
37.6542
 21
75.373
  0
LINE
  8
0
 10
37.6542
 20
75.373
 11
37.2361
 21
74.6488
  0
LINE
  8
0
 10
37.2361
 20
74.6488
 11
36.6765
 21
74.0274
  0
LINE
  8
0
 10
36.6765
 20
74.0274
 11
36
 21
73.5359
  0
LINE
  8
0
 10
36
 20
73.5359
 11
35.2361
 21
73.1958
  0
LINE
  8
0
 10
35.2361
 20
73.1958
 11
34.4181
 21
73.0219
  0
LINE
  8
0
 10
34.4181
 20
73.0219
 11
34
 21
73.0219
  0
LINE
  8
0
 10
34
 20
73.0219
 11
34
 21
73
  0
LINE
  8
0
 10
34
 20
73
 11
23
 21
73
  0
LINE
  8
0
 10
23
 20
73
 11
23
 21
72.9781
  0
LINE
  8
0
 10
23
 20
72.9781
 11
22.5819
 21
72.9781
  0
LINE
  8
0
 10
22.5819
 20
72.9781
 11
21.7639
 21
72.8042
  0
LINE
  8
0
 10
21.7639
 20
72.8042
 11
21
 21
72.4641
  0
LINE
  8
0
 10
21
 20
72.4641
 11
20.3235
 21
71.9726
  0
LINE
  8
0
 10
20.3235
 20
71.9726
 11
19.7639
 21
71.3511
  0
LINE
  8
0
 10
19.7639
 20
71.3511
 11
19.3458
 21
70.6269
  0
LINE
  8
0
 10
19.3458
 20
70.6269
 11
19.0874
 21
69.8316
  0
LINE
  8
0
 10
19.0874
 20
69.8316
 11
19
 21
69
  0
LINE
  8
0
 10
19
 20
69
 11
19
 21
67.5
  0
LINE
  8
0
 10
19
 20
67.5
 11
18.9126
 21
66.6684
  0
LINE
  8
0
 10
18.9126
 20
66.6684
 11
18.6542
 21
65.873
  0
LINE
  8
0
 10
18.6542
 20
65.873
 11
18.2361
 21
65.1488
  0
LINE
  8
0
 10
18.2361
 20
65.1488
 11
17.6765
 21
64.5274
  0
LINE
  8
0
 10
17.6765
 20
64.5274
 11
17
 21
64.0359
  0
LINE
  8
0
 10
17
 20
64.0359
 11
16.2361
 21
63.6958
  0
LINE
  8
0
 10
16.2361
 20
63.6958
 11
15.4181
 21
63.5219
  0
LINE
  8
0
 10
15.4181
 20
63.5219
 11
15
 21
63.5219
  0
LINE
  8
0
 10
15
 20
63.5219
 11
15
 21
63.5
  0
LINE
  8
0
 10
15
 20
63.5
 11
4
 21
63.5
  0
LINE
  8
0
 10
4
 20
63.5
 11
4
 21
63.4781
  0
LINE
  8
0
 10
4
 20
63.4781
 11
3.58188
 21
63.4781
  0
LINE
  8
0
 10
3.58188
 20
63.4781
 11
2.76393
 21
63.3042
  0
LINE
  8
0
 10
2.76393
 20
63.3042
 11
2
 21
62.9641
  0
LINE
  8
0
 10
2
 20
62.9641
 11
1.32347
 21
62.4726
  0
LINE
  8
0
 10
1.32347
 20
62.4726
 11
0.763931
 21
61.8511
  0
LINE
  8
0
 10
0.763931
 20
61.8511
 11
0.34581
 21
61.1269
  0
LINE
  8
0
 10
0.34581
 20
61.1269
 11
0.0874023
 21
60.3316
  0
LINE
  8
0
 10
0.0874023
 20
60.3316
 11
0
 21
59.5
  0
LINE
  8
0
 10
0
 20
59.5
 11
0
 21
21.5
  0
LINE
  8
0
 10
0
 20
21.5
 11
0.0874023
 21
20.6684
  0
LINE
  8
0
 10
0.0874023
 20
20.6684
 11
0.34581
 21
19.873
  0
LINE
  8
0
 10
0.34581
 20
19.873
 11
0.763931
 21
19.1488
  0
LINE
  8
0
 10
0.763931
 20
19.1488
 11
1.32347
 21
18.5274
  0
LINE
  8
0
 10
1.32347
 20
18.5274
 11
2
 21
18.0359
  0
LINE
  8
0
 10
2
 20
18.0359
 11
2.76393
 21
17.6958
  0
LINE
  8
0
 10
2.76393
 20
17.6958
 11
3.58188
 21
17.5219
  0
LINE
  8
0
 10
3.58188
 20
17.5219
 11
4
 21
17.5219
  0
LINE
  8
0
 10
4
 20
17.5219
 11
4
 21
17.5
  0
LINE
  8
0
 10
4
 20
17.5
 11
7
 21
17.5
  0
LINE
  8
0
 10
7
 20
17.5
 11
7
 21
17.4781
  0
LINE
  8
0
 10
7
 20
17.4781
 11
7.41811
 21
17.4781
  0
LINE
  8
0
 10
7.41811
 20
17.4781
 11
8.23605
 21
17.3042
  0
LINE
  8
0
 10
8.23605
 20
17.3042
 11
9
 21
16.9641
  0
LINE
  8
0
 10
9
 20
16.9641
 11
9.67651
 21
16.4726
  0
LINE
  8
0
 10
9.67651
 20
16.4726
 11
10.2361
 21
15.8511
  0
LINE
  8
0
 10
10.2361
 20
15.8511
 11
10.6542
 21
15.1269
  0
LINE
  8
0
 10
10.6542
 20
15.1269
 11
10.9126
 21
14.3316
  0
LINE
  8
0
 10
10.9126
 20
14.3316
 11
11.1202
 21
12.3565
  0
LINE
  8
0
 10
11.1202
 20
12.3565
 11
11.4755
 21
11.2629
  0
LINE
  8
0
 10
11.4755
 20
11.2629
 11
12.0504
 21
10.2672
  0
LINE
  8
0
 10
12.0504
 20
10.2672
 11
12.8198
 21
9.41269
  0
LINE
  8
0
 10
12.8198
 20
9.41269
 11
13.75
 21
8.73685
  0
LINE
  8
0
 10
13.75
 20
8.73685
 11
14.8004
 21
8.26918
  0
LINE
  8
0
 10
14.8004
 20
8.26918
 11
15.9251
 21
8.03012
  0
LINE
  8
0
 10
15.9251
 20
8.03012
 11
16.5
 21
8.03012
  0
LINE
  8
0
 10
16.5
 20
8.03012
 11
16.5
 21
8
  0
LINE
  8
0
 10
16.5
 20
8
 11
38
 21
8
  0
LINE
  8
0
 10
38
 20
8
 11
38.0874
 21
7.16835
  0
LINE
  8
0
 10
38.0874
 20
7.16835
 11
38.3458
 21
6.37305
  0
LINE
  8
0
 10
38.3458
 20
6.37305
 11
38.7639
 21
5.64885
  0
LINE
  8
0
 10
38.7639
 20
5.64885
 11
39.3235
 21
5.02742
  0
LINE
  8
0
 10
39.3235
 20
5.02742
 11
40
 21
4.53589
  0
LINE
  8
0
 10
40
 20
4.53589
 11
40.7639
 21
4.19577
  0
LINE
  8
0
 10
40.7639
 20
4.19577
 11
41.5819
 21
4.02191
  0
LINE
  8
0
 10
41.5819
 20
4.02191
 11
42
 21
4.02191
  0
LINE
  8
0
 10
42
 20
4.02191
 11
42
 21
4
  0
LINE
  8
0
 10
42
 20
4
 11
57
 21
4
  0
LINE
  8
0
 10
57
 20
4
 11
57.0874
 21
3.16835
  0
LINE
  8
0
 10
57.0874
 20
3.16835
 11
57.3458
 21
2.37305
  0
LINE
  8
0
 10
57.3458
 20
2.37305
 11
57.7639
 21
1.64885
  0
LINE
  8
0
 10
57.7639
 20
1.64885
 11
58.3235
 21
1.02742
  0
LINE
  8
0
 10
58.3235
 20
1.02742
 11
59
 21
0.535889
  0
LINE
  8
0
 10
59
 20
0.535889
 11
59.7639
 21
0.19577
  0
LINE
  8
0
 10
59.7639
 20
0.19577
 11
60.5819
 21
0.0219116
  0
LINE
  8
0
 10
60.5819
 20
0.0219116
 11
61
 21
0.0219116
  0
LINE
  8
0
 10
61
 20
0.0219116
 11
61
 21
0
  0
LINE
  8
0
 10
61
 20
0
 11
80
 21
0
  0
LINE
  8
0
 10
80
 20
0
 11
80
 21
0.0219116
  0
LINE
  8
0
 10
115.479
 20
98
 11
113.459
 21
101.5
  0
LINE
  8
0
 10
113.459
 20
101.5
 11
115.479
 21
105
  0
LINE
  8
0
 10
115.479
 20
105
 11
119.521
 21
105
  0
LINE
  8
0
 10
119.521
 20
105
 11
121.541
 21
101.5
  0
LINE
  8
0
 10
121.541
 20
101.5
 11
119.521
 21
98
  0
LINE
  8
0
 10
119.521
 20
98
 11
115.479
 21
98
  0
LINE
  8
0
 10
3.47926
 20
98
 11
1.45854
 21
101.5
  0
LINE
  8
0
 10
1.45854
 20
101.5
 11
3.47926
 21
105
  0
LINE
  8
0
 10
3.47926
 20
105
 11
7.52072
 21
105
  0
LINE
  8
0
 10
7.52072
 20
105
 11
9.54144
 21
101.5
  0
LINE
  8
0
 10
9.54144
 20
101.5
 11
7.52072
 21
98
  0
LINE
  8
0
 10
7.52072
 20
98
 11
3.47926
 21
98
  0
LINE
  8
0
 10
94.5
 20
86.5
 11
94.5
 21
100.5
  0
LINE
  8
0
 10
94.5
 20
100.5
 11
108.5
 21
100.5
  0
LINE
  8
0
 10
108.5
 20
100.5
 11
108.5
 21
86.5
  0
LINE
  8
0
 10
108.5
 20
86.5
 11
94.5
 21
86.5
  0
LINE
  8
0
 10
75.5
 20
86.5
 11
75.5
 21
100.5
  0
LINE
  8
0
 10
75.5
 20
100.5
 11
89.5
 21
100.5
  0
LINE
  8
0
 10
89.5
 20
100.5
 11
89.5
 21
86.5
  0
LINE
  8
0
 10
89.5
 20
86.5
 11
75.5
 21
86.5
  0
LINE
  8
0
 10
140.012
 20
67.1957
 11
138.885
 21
66.9191
  0
LINE
  8
0
 10
138.885
 20
66.9191
 11
138.158
 21
69.881
  0
LINE
  8
0
 10
138.158
 20
69.881
 11
139.284
 21
70.1577
  0
LINE
  8
0
 10
139.284
 20
70.1577
 11
138.855
 21
71.9058
  0
LINE
  8
0
 10
138.855
 20
71.9058
 11
139.622
 21
72.0942
  0
LINE
  8
0
 10
139.622
 20
72.0942
 11
139.237
 21
73.6626
  0
LINE
  8
0
 10
139.237
 20
73.6626
 11
138.081
 21
73.3787
  0
LINE
  8
0
 10
138.081
 20
73.3787
 11
134.742
 21
86.9746
  0
LINE
  8
0
 10
134.742
 20
86.9746
 11
135.897
 21
87.2585
  0
LINE
  8
0
 10
135.897
 20
87.2585
 11
135.512
 21
88.8269
  0
LINE
  8
0
 10
135.512
 20
88.8269
 11
134.745
 21
88.6384
  0
LINE
  8
0
 10
134.745
 20
88.6384
 11
134.316
 21
90.3865
  0
LINE
  8
0
 10
134.316
 20
90.3865
 11
133.189
 21
90.1098
  0
LINE
  8
0
 10
133.189
 20
90.1098
 11
132.462
 21
93.0718
  0
LINE
  8
0
 10
132.462
 20
93.0718
 11
133.588
 21
93.3484
  0
LINE
  8
0
 10
133.588
 20
93.3484
 11
133.159
 21
95.0965
  0
LINE
  8
0
 10
133.159
 20
95.0965
 11
139.073
 21
96.5491
  0
LINE
  8
0
 10
139.073
 20
96.5491
 11
138.86
 21
97.4183
  0
LINE
  8
0
 10
138.86
 20
97.4183
 11
141.579
 21
98.0862
  0
LINE
  8
0
 10
141.579
 20
98.0862
 11
141.792
 21
97.217
  0
LINE
  8
0
 10
141.792
 20
97.217
 11
145.104
 21
98.0303
  0
LINE
  8
0
 10
145.104
 20
98.0303
 11
146.69
 21
91.5723
  0
LINE
  8
0
 10
146.69
 20
91.5723
 11
145.903
 21
91.3791
  0
LINE
  8
0
 10
145.903
 20
91.3791
 11
146.289
 21
89.8107
  0
LINE
  8
0
 10
146.289
 20
89.8107
 11
148.338
 21
90.314
  0
LINE
  8
0
 10
148.338
 20
90.314
 11
151.677
 21
76.7181
  0
LINE
  8
0
 10
151.677
 20
76.7181
 11
149.628
 21
76.2148
  0
LINE
  8
0
 10
149.628
 20
76.2148
 11
150.013
 21
74.6464
  0
LINE
  8
0
 10
150.013
 20
74.6464
 11
150.8
 21
74.8396
  0
LINE
  8
0
 10
150.8
 20
74.8396
 11
152.386
 21
68.3815
  0
LINE
  8
0
 10
152.386
 20
68.3815
 11
149.074
 21
67.5682
  0
LINE
  8
0
 10
149.074
 20
67.5682
 11
149.288
 21
66.699
  0
LINE
  8
0
 10
149.288
 20
66.699
 11
146.569
 21
66.0311
  0
LINE
  8
0
 10
146.569
 20
66.0311
 11
146.355
 21
66.9003
  0
LINE
  8
0
 10
146.355
 20
66.9003
 11
140.441
 21
65.4477
  0
LINE
  8
0
 10
140.441
 20
65.4477
 11
140.012
 21
67.1957
  0
LINE
  8
0
 10
121.56
 20
62.6638
 11
120.433
 21
62.3871
  0
LINE
  8
0
 10
120.433
 20
62.3871
 11
119.706
 21
65.349
  0
LINE
  8
0
 10
119.706
 20
65.349
 11
120.833
 21
65.6257
  0
LINE
  8
0
 10
120.833
 20
65.6257
 11
120.403
 21
67.3738
  0
LINE
  8
0
 10
120.403
 20
67.3738
 11
121.17
 21
67.5622
  0
LINE
  8
0
 10
121.17
 20
67.5622
 11
120.785
 21
69.1306
  0
LINE
  8
0
 10
120.785
 20
69.1306
 11
119.629
 21
68.8468
  0
LINE
  8
0
 10
119.629
 20
68.8468
 11
116.29
 21
82.4427
  0
LINE
  8
0
 10
116.29
 20
82.4427
 11
117.446
 21
82.7265
  0
LINE
  8
0
 10
117.446
 20
82.7265
 11
117.061
 21
84.2949
  0
LINE
  8
0
 10
117.061
 20
84.2949
 11
116.293
 21
84.1065
  0
LINE
  8
0
 10
116.293
 20
84.1065
 11
115.864
 21
85.8545
  0
LINE
  8
0
 10
115.864
 20
85.8545
 11
114.738
 21
85.5778
  0
LINE
  8
0
 10
114.738
 20
85.5778
 11
114.01
 21
88.5398
  0
LINE
  8
0
 10
114.01
 20
88.5398
 11
115.137
 21
88.8165
  0
LINE
  8
0
 10
115.137
 20
88.8165
 11
114.707
 21
90.5645
  0
LINE
  8
0
 10
114.707
 20
90.5645
 11
120.621
 21
92.0171
  0
LINE
  8
0
 10
120.621
 20
92.0171
 11
120.408
 21
92.8863
  0
LINE
  8
0
 10
120.408
 20
92.8863
 11
123.127
 21
93.5542
  0
LINE
  8
0
 10
123.127
 20
93.5542
 11
123.341
 21
92.685
  0
LINE
  8
0
 10
123.341
 20
92.685
 11
126.652
 21
93.4984
  0
LINE
  8
0
 10
126.652
 20
93.4984
 11
128.238
 21
87.0403
  0
LINE
  8
0
 10
128.238
 20
87.0403
 11
127.452
 21
86.8471
  0
LINE
  8
0
 10
127.452
 20
86.8471
 11
127.837
 21
85.2787
  0
LINE
  8
0
 10
127.837
 20
85.2787
 11
129.886
 21
85.782
  0
LINE
  8
0
 10
129.886
 20
85.782
 11
133.225
 21
72.1861
  0
LINE
  8
0
 10
133.225
 20
72.1861
 11
131.176
 21
71.6828
  0
LINE
  8
0
 10
131.176
 20
71.6828
 11
131.562
 21
70.1144
  0
LINE
  8
0
 10
131.562
 20
70.1144
 11
132.348
 21
70.3076
  0
LINE
  8
0
 10
132.348
 20
70.3076
 11
133.934
 21
63.8496
  0
LINE
  8
0
 10
133.934
 20
63.8496
 11
130.623
 21
63.0362
  0
LINE
  8
0
 10
130.623
 20
63.0362
 11
130.836
 21
62.167
  0
LINE
  8
0
 10
130.836
 20
62.167
 11
128.117
 21
61.4992
  0
LINE
  8
0
 10
128.117
 20
61.4992
 11
127.904
 21
62.3683
  0
LINE
  8
0
 10
127.904
 20
62.3683
 11
121.989
 21
60.9157
  0
LINE
  8
0
 10
121.989
 20
60.9157
 11
121.56
 21
62.6638
  0
LINE
  8
0
 10
75.5
 20
67.5
 11
75.5
 21
81.5
  0
LINE
  8
0
 10
75.5
 20
81.5
 11
89.5
 21
81.5
  0
LINE
  8
0
 10
89.5
 20
81.5
 11
89.5
 21
67.5
  0
LINE
  8
0
 10
89.5
 20
67.5
 11
75.5
 21
67.5
  0
LINE
  8
0
 10
94.5
 20
67.5
 11
94.5
 21
81.5
  0
LINE
  8
0
 10
94.5
 20
81.5
 11
108.5
 21
81.5
  0
LINE
  8
0
 10
108.5
 20
81.5
 11
108.5
 21
67.5
  0
LINE
  8
0
 10
108.5
 20
67.5
 11
94.5
 21
67.5
  0
LINE
  8
0
 10
25.5
 20
52.5
 11
25.5
 21
66.5
  0
LINE
  8
0
 10
25.5
 20
66.5
 11
39.5
 21
66.5
  0
LINE
  8
0
 10
39.5
 20
66.5
 11
39.5
 21
52.5
  0
LINE
  8
0
 10
39.5
 20
52.5
 11
25.5
 21
52.5
  0
LINE
  8
0
 10
82.5
 20
48.5
 11
82.5
 21
62.5
  0
LINE
  8
0
 10
82.5
 20
62.5
 11
96.5
 21
62.5
  0
LINE
  8
0
 10
96.5
 20
62.5
 11
96.5
 21
48.5
  0
LINE
  8
0
 10
96.5
 20
48.5
 11
82.5
 21
48.5
  0
LINE
  8
0
 10
101.5
 20
48.5
 11
101.5
 21
62.5
  0
LINE
  8
0
 10
101.5
 20
62.5
 11
115.5
 21
62.5
  0
LINE
  8
0
 10
115.5
 20
62.5
 11
115.5
 21
48.5
  0
LINE
  8
0
 10
115.5
 20
48.5
 11
101.5
 21
48.5
  0
LINE
  8
0
 10
44.5
 20
48.5
 11
44.5
 21
62.5
  0
LINE
  8
0
 10
44.5
 20
62.5
 11
58.5
 21
62.5
  0
LINE
  8
0
 10
58.5
 20
62.5
 11
58.5
 21
48.5
  0
LINE
  8
0
 10
58.5
 20
48.5
 11
44.5
 21
48.5
  0
LINE
  8
0
 10
63.5
 20
44.5
 11
63.5
 21
58.5
  0
LINE
  8
0
 10
63.5
 20
58.5
 11
77.5
 21
58.5
  0
LINE
  8
0
 10
77.5
 20
58.5
 11
77.5
 21
44.5
  0
LINE
  8
0
 10
77.5
 20
44.5
 11
63.5
 21
44.5
  0
LINE
  8
0
 10
6.5
 20
43
 11
6.5
 21
57
  0
LINE
  8
0
 10
6.5
 20
57
 11
20.5
 21
57
  0
LINE
  8
0
 10
20.5
 20
57
 11
20.5
 21
43
  0
LINE
  8
0
 10
20.5
 20
43
 11
6.5
 21
43
  0
LINE
  8
0
 10
122.479
 20
47.4932
 11
120.459
 21
50.9932
  0
LINE
  8
0
 10
120.459
 20
50.9932
 11
122.479
 21
54.4932
  0
LINE
  8
0
 10
122.479
 20
54.4932
 11
126.521
 21
54.4932
  0
LINE
  8
0
 10
126.521
 20
54.4932
 11
128.541
 21
50.9932
  0
LINE
  8
0
 10
128.541
 20
50.9932
 11
126.521
 21
47.4932
  0
LINE
  8
0
 10
126.521
 20
47.4932
 11
122.479
 21
47.4932
  0
LINE
  8
0
 10
25.5
 20
33.5
 11
25.5
 21
47.5
  0
LINE
  8
0
 10
25.5
 20
47.5
 11
39.5
 21
47.5
  0
LINE
  8
0
 10
39.5
 20
47.5
 11
39.5
 21
33.5
  0
LINE
  8
0
 10
39.5
 20
33.5
 11
25.5
 21
33.5
  0
LINE
  8
0
 10
101.5
 20
29.5
 11
101.5
 21
43.5
  0
LINE
  8
0
 10
101.5
 20
43.5
 11
115.5
 21
43.5
  0
LINE
  8
0
 10
115.5
 20
43.5
 11
115.5
 21
29.5
  0
LINE
  8
0
 10
115.5
 20
29.5
 11
101.5
 21
29.5
  0
LINE
  8
0
 10
44.5
 20
29.5
 11
44.5
 21
43.5
  0
LINE
  8
0
 10
44.5
 20
43.5
 11
58.5
 21
43.5
  0
LINE
  8
0
 10
58.5
 20
43.5
 11
58.5
 21
29.5
  0
LINE
  8
0
 10
58.5
 20
29.5
 11
44.5
 21
29.5
  0
LINE
  8
0
 10
82.5
 20
29.5
 11
82.5
 21
43.5
  0
LINE
  8
0
 10
82.5
 20
43.5
 11
96.5
 21
43.5
  0
LINE
  8
0
 10
96.5
 20
43.5
 11
96.5
 21
29.5
  0
LINE
  8
0
 10
96.5
 20
29.5
 11
82.5
 21
29.5
  0
LINE
  8
0
 10
63.5
 20
25.5
 11
63.5
 21
39.5
  0
LINE
  8
0
 10
63.5
 20
39.5
 11
77.5
 21
39.5
  0
LINE
  8
0
 10
77.5
 20
39.5
 11
77.5
 21
25.5
  0
LINE
  8
0
 10
77.5
 20
25.5
 11
63.5
 21
25.5
  0
LINE
  8
0
 10
6.5
 20
24
 11
6.5
 21
38
  0
LINE
  8
0
 10
6.5
 20
38
 11
20.5
 21
38
  0
LINE
  8
0
 10
20.5
 20
38
 11
20.5
 21
24
  0
LINE
  8
0
 10
20.5
 20
24
 11
6.5
 21
24
  0
LINE
  8
0
 10
25.5
 20
14.5
 11
25.5
 21
28.5
  0
LINE
  8
0
 10
25.5
 20
28.5
 11
39.5
 21
28.5
  0
LINE
  8
0
 10
39.5
 20
28.5
 11
39.5
 21
14.5
  0
LINE
  8
0
 10
39.5
 20
14.5
 11
25.5
 21
14.5
  0
LINE
  8
0
 10
44.5
 20
10.5
 11
44.5
 21
24.5
  0
LINE
  8
0
 10
44.5
 20
24.5
 11
58.5
 21
24.5
  0
LINE
  8
0
 10
58.5
 20
24.5
 11
58.5
 21
10.5
  0
LINE
  8
0
 10
58.5
 20
10.5
 11
44.5
 21
10.5
  0
LINE
  8
0
 10
101.5
 20
10.5
 11
101.5
 21
24.5
  0
LINE
  8
0
 10
101.5
 20
24.5
 11
115.5
 21
24.5
  0
LINE
  8
0
 10
115.5
 20
24.5
 11
115.5
 21
10.5
  0
LINE
  8
0
 10
115.5
 20
10.5
 11
101.5
 21
10.5
  0
LINE
  8
0
 10
82.5
 20
10.5
 11
82.5
 21
24.5
  0
LINE
  8
0
 10
82.5
 20
24.5
 11
96.5
 21
24.5
  0
LINE
  8
0
 10
96.5
 20
24.5
 11
96.5
 21
10.5
  0
LINE
  8
0
 10
96.5
 20
10.5
 11
82.5
 21
10.5
  0
LINE
  8
0
 10
63.5
 20
6.5
 11
63.5
 21
20.5
  0
LINE
  8
0
 10
63.5
 20
20.5
 11
77.5
 21
20.5
  0
LINE
  8
0
 10
77.5
 20
20.5
 11
77.5
 21
6.5
  0
LINE
  8
0
 10
77.5
 20
6.5
 11
63.5
 21
6.5
  0
LINE
  8
0
 10
14.4793
 20
10
 11
12.4585
 21
13.5
  0
LINE
  8
0
 10
12.4585
 20
13.5
 11
14.4793
 21
17
  0
LINE
  8
0
 10
14.4793
 20
17
 11
18.5207
 21
17
  0
LINE
  8
0
 10
18.5207
 20
17
 11
20.5414
 21
13.5
  0
LINE
  8
0
 10
20.5414
 20
13.5
 11
18.5207
 21
10
  0
LINE
  8
0
 10
18.5207
 20
10
 11
14.4793
 21
10
  0
ENDSEC
  0
SECTION
  2
OBJECTS
  0
DICTIONARY
  0
ENDSEC
  0
EOF
