  0
SECTION
  2
BLOCKS
  0
ENDSEC
  0
SECTION
  2
ENTITIES
  0
LINE
  8
0
 10
80.2512
 20
0.00788879
 11
80.5013
 21
0.0315399
  0
LINE
  8
0
 10
80.5013
 20
0.0315399
 11
80.7495
 21
0.0708466
  0
LINE
  8
0
 10
80.7495
 20
0.0708466
 11
80.9948
 21
0.125656
  0
LINE
  8
0
 10
80.9948
 20
0.125656
 11
81.2361
 21
0.19577
  0
LINE
  8
0
 10
81.2361
 20
0.19577
 11
81.4725
 21
0.280884
  0
LINE
  8
0
 10
81.4725
 20
0.280884
 11
81.7031
 21
0.380692
  0
LINE
  8
0
 10
81.7031
 20
0.380692
 11
81.927
 21
0.494766
  0
LINE
  8
0
 10
81.927
 20
0.494766
 11
82.1433
 21
0.622681
  0
LINE
  8
0
 10
82.1433
 20
0.622681
 11
82.3511
 21
0.763931
  0
LINE
  8
0
 10
82.3511
 20
0.763931
 11
82.5497
 21
0.917938
  0
LINE
  8
0
 10
82.5497
 20
0.917938
 11
82.7382
 21
1.08412
  0
LINE
  8
0
 10
82.7382
 20
1.08412
 11
82.9159
 21
1.26181
  0
LINE
  8
0
 10
82.9159
 20
1.26181
 11
83.082
 21
1.4503
  0
LINE
  8
0
 10
83.082
 20
1.4503
 11
83.2361
 21
1.64885
  0
LINE
  8
0
 10
83.2361
 20
1.64885
 11
83.3773
 21
1.85669
  0
LINE
  8
0
 10
83.3773
 20
1.85669
 11
83.5052
 21
2.07298
  0
LINE
  8
0
 10
83.5052
 20
2.07298
 11
83.6193
 21
2.29688
  0
LINE
  8
0
 10
83.6193
 20
2.29688
 11
83.7191
 21
2.5275
  0
LINE
  8
0
 10
83.7191
 20
2.5275
 11
83.8042
 21
2.76393
  0
LINE
  8
0
 10
83.8042
 20
2.76393
 11
83.8743
 21
3.00523
  0
LINE
  8
0
 10
83.8743
 20
3.00523
 11
83.9291
 21
3.25047
  0
LINE
  8
0
 10
83.9291
 20
3.25047
 11
83.9685
 21
3.49866
  0
LINE
  8
0
 10
83.9685
 20
3.49866
 11
83.9921
 21
3.74883
  0
LINE
  8
0
 10
83.9921
 20
3.74883
 11
84
 21
4
  0
LINE
  8
0
 10
84
 20
4
 11
118
 21
4
  0
LINE
  8
0
 10
118
 20
4
 11
118.251
 21
4.00789
  0
LINE
  8
0
 10
118.251
 20
4.00789
 11
118.501
 21
4.03154
  0
LINE
  8
0
 10
118.501
 20
4.03154
 11
118.75
 21
4.07085
  0
LINE
  8
0
 10
118.75
 20
4.07085
 11
118.995
 21
4.12566
  0
LINE
  8
0
 10
118.995
 20
4.12566
 11
119.236
 21
4.19577
  0
LINE
  8
0
 10
119.236
 20
4.19577
 11
119.472
 21
4.28088
  0
LINE
  8
0
 10
119.472
 20
4.28088
 11
119.703
 21
4.38069
  0
LINE
  8
0
 10
119.703
 20
4.38069
 11
119.927
 21
4.49477
  0
LINE
  8
0
 10
119.927
 20
4.49477
 11
120.143
 21
4.62268
  0
LINE
  8
0
 10
120.143
 20
4.62268
 11
120.351
 21
4.76393
  0
LINE
  8
0
 10
120.351
 20
4.76393
 11
120.55
 21
4.91794
  0
LINE
  8
0
 10
120.55
 20
4.91794
 11
120.738
 21
5.08412
  0
LINE
  8
0
 10
120.738
 20
5.08412
 11
120.916
 21
5.26181
  0
LINE
  8
0
 10
120.916
 20
5.26181
 11
121.082
 21
5.4503
  0
LINE
  8
0
 10
121.082
 20
5.4503
 11
121.236
 21
5.64885
  0
LINE
  8
0
 10
121.236
 20
5.64885
 11
121.377
 21
5.85669
  0
LINE
  8
0
 10
121.377
 20
5.85669
 11
121.505
 21
6.07298
  0
LINE
  8
0
 10
121.505
 20
6.07298
 11
121.619
 21
6.29688
  0
LINE
  8
0
 10
121.619
 20
6.29688
 11
121.719
 21
6.5275
  0
LINE
  8
0
 10
121.719
 20
6.5275
 11
121.804
 21
6.76393
  0
LINE
  8
0
 10
121.804
 20
6.76393
 11
121.874
 21
7.00523
  0
LINE
  8
0
 10
121.874
 20
7.00523
 11
121.929
 21
7.25047
  0
LINE
  8
0
 10
121.929
 20
7.25047
 11
121.968
 21
7.49866
  0
LINE
  8
0
 10
121.968
 20
7.49866
 11
121.992
 21
7.74883
  0
LINE
  8
0
 10
121.992
 20
7.74883
 11
122
 21
8
  0
LINE
  8
0
 10
122
 20
8
 11
122
 21
40.2091
  0
LINE
  8
0
 10
122
 20
40.2091
 11
122.007
 21
40.4288
  0
LINE
  8
0
 10
122.007
 20
40.4288
 11
122.028
 21
40.6477
  0
LINE
  8
0
 10
122.028
 20
40.6477
 11
122.062
 21
40.8649
  0
LINE
  8
0
 10
122.062
 20
40.8649
 11
122.11
 21
41.0795
  0
LINE
  8
0
 10
122.11
 20
41.0795
 11
122.171
 21
41.2906
  0
LINE
  8
0
 10
122.171
 20
41.2906
 11
122.246
 21
41.4975
  0
LINE
  8
0
 10
122.246
 20
41.4975
 11
122.333
 21
41.6993
  0
LINE
  8
0
 10
122.333
 20
41.6993
 11
122.433
 21
41.8952
  0
LINE
  8
0
 10
122.433
 20
41.8952
 11
122.545
 21
42.0845
  0
LINE
  8
0
 10
122.545
 20
42.0845
 11
122.668
 21
42.2663
  0
LINE
  8
0
 10
122.668
 20
42.2663
 11
122.803
 21
42.4401
  0
LINE
  8
0
 10
122.803
 20
42.4401
 11
122.949
 21
42.605
  0
LINE
  8
0
 10
122.949
 20
42.605
 11
123.104
 21
42.7605
  0
LINE
  8
0
 10
123.104
 20
42.7605
 11
123.269
 21
42.9059
  0
LINE
  8
0
 10
123.269
 20
42.9059
 11
123.443
 21
43.0406
  0
LINE
  8
0
 10
123.443
 20
43.0406
 11
123.625
 21
43.1642
  0
LINE
  8
0
 10
123.625
 20
43.1642
 11
123.814
 21
43.2761
  0
LINE
  8
0
 10
123.814
 20
43.2761
 11
124.01
 21
43.376
  0
LINE
  8
0
 10
124.01
 20
43.376
 11
124.212
 21
43.4633
  0
LINE
  8
0
 10
124.212
 20
43.4633
 11
124.418
 21
43.5378
  0
LINE
  8
0
 10
124.418
 20
43.5378
 11
124.63
 21
43.5991
  0
LINE
  8
0
 10
124.63
 20
43.5991
 11
124.844
 21
43.6471
  0
LINE
  8
0
 10
124.844
 20
43.6471
 11
125.061
 21
43.6815
  0
LINE
  8
0
 10
125.061
 20
43.6815
 11
125.28
 21
43.7022
  0
LINE
  8
0
 10
125.28
 20
43.7022
 11
125.908
 21
43.7219
  0
LINE
  8
0
 10
125.908
 20
43.7219
 11
126.315
 21
43.7603
  0
LINE
  8
0
 10
126.315
 20
43.7603
 11
126.718
 21
43.8242
  0
LINE
  8
0
 10
126.718
 20
43.8242
 11
127.116
 21
43.9133
  0
LINE
  8
0
 10
127.116
 20
43.9133
 11
127.509
 21
44.0272
  0
LINE
  8
0
 10
127.509
 20
44.0272
 11
127.893
 21
44.1655
  0
LINE
  8
0
 10
127.893
 20
44.1655
 11
128.268
 21
44.3277
  0
LINE
  8
0
 10
128.268
 20
44.3277
 11
128.631
 21
44.5131
  0
LINE
  8
0
 10
128.631
 20
44.5131
 11
128.983
 21
44.7209
  0
LINE
  8
0
 10
128.983
 20
44.7209
 11
129.321
 21
44.9505
  0
LINE
  8
0
 10
129.321
 20
44.9505
 11
129.643
 21
45.2007
  0
LINE
  8
0
 10
129.643
 20
45.2007
 11
129.95
 21
45.4708
  0
LINE
  8
0
 10
129.95
 20
45.4708
 11
130.238
 21
45.7595
  0
LINE
  8
0
 10
130.238
 20
45.7595
 11
130.508
 21
46.0658
  0
LINE
  8
0
 10
130.508
 20
46.0658
 11
130.759
 21
46.3885
  0
LINE
  8
0
 10
130.759
 20
46.3885
 11
130.988
 21
46.7262
  0
LINE
  8
0
 10
130.988
 20
46.7262
 11
131.196
 21
47.0777
  0
LINE
  8
0
 10
131.196
 20
47.0777
 11
131.381
 21
47.4415
  0
LINE
  8
0
 10
131.381
 20
47.4415
 11
131.544
 21
47.8163
  0
LINE
  8
0
 10
131.544
 20
47.8163
 11
131.682
 21
48.2005
  0
LINE
  8
0
 10
131.682
 20
48.2005
 11
131.796
 21
48.5926
  0
LINE
  8
0
 10
131.796
 20
48.5926
 11
131.885
 21
48.9911
  0
LINE
  8
0
 10
131.885
 20
48.9911
 11
131.949
 21
49.3944
  0
LINE
  8
0
 10
131.949
 20
49.3944
 11
131.987
 21
49.8009
  0
LINE
  8
0
 10
131.987
 20
49.8009
 11
132
 21
50.2091
  0
LINE
  8
0
 10
132
 20
50.2091
 11
131.987
 21
50.6172
  0
LINE
  8
0
 10
131.987
 20
50.6172
 11
131.949
 21
51.0237
  0
LINE
  8
0
 10
131.949
 20
51.0237
 11
131.885
 21
51.427
  0
LINE
  8
0
 10
131.885
 20
51.427
 11
131.811
 21
51.7591
  0
LINE
  8
0
 10
131.811
 20
51.7591
 11
131.813
 21
51.7597
  0
LINE
  8
0
 10
131.813
 20
51.7597
 11
131.773
 21
51.9385
  0
LINE
  8
0
 10
131.773
 20
51.9385
 11
131.739
 21
52.1557
  0
LINE
  8
0
 10
131.739
 20
52.1557
 11
131.718
 21
52.3746
  0
LINE
  8
0
 10
131.718
 20
52.3746
 11
131.711
 21
52.5943
  0
LINE
  8
0
 10
131.711
 20
52.5943
 11
131.718
 21
52.8141
  0
LINE
  8
0
 10
131.718
 20
52.8141
 11
131.739
 21
53.033
  0
LINE
  8
0
 10
131.739
 20
53.033
 11
131.773
 21
53.2502
  0
LINE
  8
0
 10
131.773
 20
53.2502
 11
131.821
 21
53.4647
  0
LINE
  8
0
 10
131.821
 20
53.4647
 11
131.883
 21
53.6759
  0
LINE
  8
0
 10
131.883
 20
53.6759
 11
131.957
 21
53.8828
  0
LINE
  8
0
 10
131.957
 20
53.8828
 11
132.044
 21
54.0845
  0
LINE
  8
0
 10
132.044
 20
54.0845
 11
132.144
 21
54.2805
  0
LINE
  8
0
 10
132.144
 20
54.2805
 11
132.256
 21
54.4697
  0
LINE
  8
0
 10
132.256
 20
54.4697
 11
132.38
 21
54.6516
  0
LINE
  8
0
 10
132.38
 20
54.6516
 11
132.515
 21
54.8253
  0
LINE
  8
0
 10
132.515
 20
54.8253
 11
132.66
 21
54.9902
  0
LINE
  8
0
 10
132.66
 20
54.9902
 11
132.815
 21
55.1457
  0
LINE
  8
0
 10
132.815
 20
55.1457
 11
132.98
 21
55.2911
  0
LINE
  8
0
 10
132.98
 20
55.2911
 11
133.154
 21
55.4259
  0
LINE
  8
0
 10
133.154
 20
55.4259
 11
133.336
 21
55.5495
  0
LINE
  8
0
 10
133.336
 20
55.5495
 11
133.525
 21
55.6614
  0
LINE
  8
0
 10
133.525
 20
55.6614
 11
133.721
 21
55.7612
  0
LINE
  8
0
 10
133.721
 20
55.7612
 11
133.923
 21
55.8485
  0
LINE
  8
0
 10
133.923
 20
55.8485
 11
134.13
 21
55.923
  0
LINE
  8
0
 10
134.13
 20
55.923
 11
134.341
 21
55.9844
  0
LINE
  8
0
 10
134.341
 20
55.9844
 11
134.377
 21
55.9924
  0
LINE
  8
0
 10
134.377
 20
55.9924
 11
134.377
 21
55.9933
  0
LINE
  8
0
 10
134.377
 20
55.9933
 11
160.835
 21
62.4918
  0
LINE
  8
0
 10
160.835
 20
62.4918
 11
160.834
 21
62.4928
  0
LINE
  8
0
 10
160.834
 20
62.4928
 11
160.875
 21
62.502
  0
LINE
  8
0
 10
160.875
 20
62.502
 11
161.117
 21
62.5721
  0
LINE
  8
0
 10
161.117
 20
62.5721
 11
161.353
 21
62.6572
  0
LINE
  8
0
 10
161.353
 20
62.6572
 11
161.584
 21
62.757
  0
LINE
  8
0
 10
161.584
 20
62.757
 11
161.808
 21
62.8711
  0
LINE
  8
0
 10
161.808
 20
62.8711
 11
162.024
 21
62.999
  0
LINE
  8
0
 10
162.024
 20
62.999
 11
162.232
 21
63.1403
  0
LINE
  8
0
 10
162.232
 20
63.1403
 11
162.43
 21
63.2943
  0
LINE
  8
0
 10
162.43
 20
63.2943
 11
162.619
 21
63.4604
  0
LINE
  8
0
 10
162.619
 20
63.4604
 11
162.796
 21
63.6381
  0
LINE
  8
0
 10
162.796
 20
63.6381
 11
162.963
 21
63.8266
  0
LINE
  8
0
 10
162.963
 20
63.8266
 11
163.117
 21
64.0252
  0
LINE
  8
0
 10
163.117
 20
64.0252
 11
163.258
 21
64.233
  0
LINE
  8
0
 10
163.258
 20
64.233
 11
163.386
 21
64.4493
  0
LINE
  8
0
 10
163.386
 20
64.4493
 11
163.5
 21
64.6732
  0
LINE
  8
0
 10
163.5
 20
64.6732
 11
163.6
 21
64.9038
  0
LINE
  8
0
 10
163.6
 20
64.9038
 11
163.685
 21
65.1403
  0
LINE
  8
0
 10
163.685
 20
65.1403
 11
163.755
 21
65.3816
  0
LINE
  8
0
 10
163.755
 20
65.3816
 11
163.81
 21
65.6268
  0
LINE
  8
0
 10
163.81
 20
65.6268
 11
163.849
 21
65.875
  0
LINE
  8
0
 10
163.849
 20
65.875
 11
163.873
 21
66.1252
  0
LINE
  8
0
 10
163.873
 20
66.1252
 11
163.881
 21
66.3763
  0
LINE
  8
0
 10
163.881
 20
66.3763
 11
163.873
 21
66.6275
  0
LINE
  8
0
 10
163.873
 20
66.6275
 11
163.849
 21
66.8777
  0
LINE
  8
0
 10
163.849
 20
66.8777
 11
163.81
 21
67.1259
  0
LINE
  8
0
 10
163.81
 20
67.1259
 11
163.764
 21
67.3302
  0
LINE
  8
0
 10
163.764
 20
67.3302
 11
163.765
 21
67.3304
  0
LINE
  8
0
 10
163.765
 20
67.3304
 11
154.701
 21
104.234
  0
LINE
  8
0
 10
154.701
 20
104.234
 11
154.699
 21
104.233
  0
LINE
  8
0
 10
154.699
 20
104.233
 11
154.682
 21
104.311
  0
LINE
  8
0
 10
154.682
 20
104.311
 11
154.549
 21
104.767
  0
LINE
  8
0
 10
154.549
 20
104.767
 11
154.388
 21
105.215
  0
LINE
  8
0
 10
154.388
 20
105.215
 11
154.199
 21
105.652
  0
LINE
  8
0
 10
154.199
 20
105.652
 11
153.983
 21
106.076
  0
LINE
  8
0
 10
153.983
 20
106.076
 11
153.741
 21
106.485
  0
LINE
  8
0
 10
153.741
 20
106.485
 11
153.473
 21
106.878
  0
LINE
  8
0
 10
153.473
 20
106.878
 11
153.182
 21
107.254
  0
LINE
  8
0
 10
153.182
 20
107.254
 11
152.867
 21
107.611
  0
LINE
  8
0
 10
152.867
 20
107.611
 11
152.531
 21
107.948
  0
LINE
  8
0
 10
152.531
 20
107.948
 11
152.174
 21
108.262
  0
LINE
  8
0
 10
152.174
 20
108.262
 11
151.798
 21
108.554
  0
LINE
  8
0
 10
151.798
 20
108.554
 11
151.405
 21
108.821
  0
LINE
  8
0
 10
151.405
 20
108.821
 11
150.995
 21
109.063
  0
LINE
  8
0
 10
150.995
 20
109.063
 11
150.571
 21
109.279
  0
LINE
  8
0
 10
150.571
 20
109.279
 11
150.135
 21
109.468
  0
LINE
  8
0
 10
150.135
 20
109.468
 11
149.687
 21
109.629
  0
LINE
  8
0
 10
149.687
 20
109.629
 11
149.23
 21
109.762
  0
LINE
  8
0
 10
149.23
 20
109.762
 11
148.766
 21
109.866
  0
LINE
  8
0
 10
148.766
 20
109.866
 11
148.296
 21
109.94
  0
LINE
  8
0
 10
148.296
 20
109.94
 11
147.823
 21
109.985
  0
LINE
  8
0
 10
147.823
 20
109.985
 11
147.347
 21
110
  0
LINE
  8
0
 10
147.347
 20
110
 11
0
 21
110
  0
LINE
  8
0
 10
0
 20
110
 11
0
 21
103.5
  0
LINE
  8
0
 10
0
 20
103.5
 11
0.0128174
 21
103.092
  0
LINE
  8
0
 10
0.0128174
 20
103.092
 11
0.0512543
 21
102.685
  0
LINE
  8
0
 10
0.0512543
 20
102.685
 11
0.115128
 21
102.282
  0
LINE
  8
0
 10
0.115128
 20
102.282
 11
0.204208
 21
101.884
  0
LINE
  8
0
 10
0.204208
 20
101.884
 11
0.31813
 21
101.491
  0
LINE
  8
0
 10
0.31813
 20
101.491
 11
0.456451
 21
101.107
  0
LINE
  8
0
 10
0.456451
 20
101.107
 11
0.618622
 21
100.732
  0
LINE
  8
0
 10
0.618622
 20
100.732
 11
0.804001
 21
100.369
  0
LINE
  8
0
 10
0.804001
 20
100.369
 11
1.01186
 21
100.017
  0
LINE
  8
0
 10
1.01186
 20
100.017
 11
1.24138
 21
99.6794
  0
LINE
  8
0
 10
1.24138
 20
99.6794
 11
1.49165
 21
99.3567
  0
LINE
  8
0
 10
1.49165
 20
99.3567
 11
1.7617
 21
99.0504
  0
LINE
  8
0
 10
1.7617
 20
99.0504
 11
2.05043
 21
98.7617
  0
LINE
  8
0
 10
2.05043
 20
98.7617
 11
2.35674
 21
98.4917
  0
LINE
  8
0
 10
2.35674
 20
98.4917
 11
2.67938
 21
98.2414
  0
LINE
  8
0
 10
2.67938
 20
98.2414
 11
3.01712
 21
98.0119
  0
LINE
  8
0
 10
3.01712
 20
98.0119
 11
3.36859
 21
97.804
  0
LINE
  8
0
 10
3.36859
 20
97.804
 11
3.73242
 21
97.6186
  0
LINE
  8
0
 10
3.73242
 20
97.6186
 11
4.10718
 21
97.4565
  0
LINE
  8
0
 10
4.10718
 20
97.4565
 11
4.49138
 21
97.3181
  0
LINE
  8
0
 10
4.49138
 20
97.3181
 11
4.88351
 21
97.2042
  0
LINE
  8
0
 10
4.88351
 20
97.2042
 11
5.28201
 21
97.1151
  0
LINE
  8
0
 10
5.28201
 20
97.1151
 11
5.68533
 21
97.0513
  0
LINE
  8
0
 10
5.68533
 20
97.0513
 11
6.09186
 21
97.0128
  0
LINE
  8
0
 10
6.09186
 20
97.0128
 11
6.5
 21
97
  0
LINE
  8
0
 10
6.5
 20
97
 11
41
 21
97
  0
LINE
  8
0
 10
41
 20
97
 11
41
 21
104
  0
LINE
  8
0
 10
41
 20
104
 11
112
 21
104
  0
LINE
  8
0
 10
112
 20
104
 11
112
 21
94.7753
  0
LINE
  8
0
 10
112
 20
94.7753
 11
151.549
 21
104.489
  0
LINE
  8
0
 10
151.549
 20
104.489
 11
161.09
 21
65.6437
  0
LINE
  8
0
 10
161.09
 20
65.6437
 11
119
 21
55.3058
  0
LINE
  8
0
 10
119
 20
55.3058
 11
119
 21
7
  0
LINE
  8
0
 10
119
 20
7
 11
81
 21
7
  0
LINE
  8
0
 10
81
 20
7
 11
81
 21
3
  0
LINE
  8
0
 10
81
 20
3
 11
60
 21
3
  0
LINE
  8
0
 10
60
 20
3
 11
60
 21
7
  0
LINE
  8
0
 10
60
 20
7
 11
41
 21
7
  0
LINE
  8
0
 10
41
 20
7
 11
41
 21
11
  0
LINE
  8
0
 10
41
 20
11
 11
22
 21
11
  0
LINE
  8
0
 10
22
 20
11
 11
22
 21
20.5
  0
LINE
  8
0
 10
22
 20
20.5
 11
3
 21
20.5
  0
LINE
  8
0
 10
3
 20
20.5
 11
3
 21
60.5
  0
LINE
  8
0
 10
3
 20
60.5
 11
22
 21
60.5
  0
LINE
  8
0
 10
22
 20
60.5
 11
22
 21
70
  0
LINE
  8
0
 10
22
 20
70
 11
41
 21
70
  0
LINE
  8
0
 10
41
 20
70
 11
41
 21
82
  0
LINE
  8
0
 10
41
 20
82
 11
38
 21
82
  0
LINE
  8
0
 10
38
 20
82
 11
38
 21
77
  0
LINE
  8
0
 10
38
 20
77
 11
37.9921
 21
76.7488
  0
LINE
  8
0
 10
37.9921
 20
76.7488
 11
37.9685
 21
76.4987
  0
LINE
  8
0
 10
37.9685
 20
76.4987
 11
37.9291
 21
76.2505
  0
LINE
  8
0
 10
37.9291
 20
76.2505
 11
37.8743
 21
76.0052
  0
LINE
  8
0
 10
37.8743
 20
76.0052
 11
37.8042
 21
75.7639
  0
LINE
  8
0
 10
37.8042
 20
75.7639
 11
37.7191
 21
75.5275
  0
LINE
  8
0
 10
37.7191
 20
75.5275
 11
37.6193
 21
75.2969
  0
LINE
  8
0
 10
37.6193
 20
75.2969
 11
37.5052
 21
75.073
  0
LINE
  8
0
 10
37.5052
 20
75.073
 11
37.3773
 21
74.8567
  0
LINE
  8
0
 10
37.3773
 20
74.8567
 11
37.2361
 21
74.6488
  0
LINE
  8
0
 10
37.2361
 20
74.6488
 11
37.082
 21
74.4503
  0
LINE
  8
0
 10
37.082
 20
74.4503
 11
36.9159
 21
74.2618
  0
LINE
  8
0
 10
36.9159
 20
74.2618
 11
36.7382
 21
74.0841
  0
LINE
  8
0
 10
36.7382
 20
74.0841
 11
36.5497
 21
73.9179
  0
LINE
  8
0
 10
36.5497
 20
73.9179
 11
36.3511
 21
73.7639
  0
LINE
  8
0
 10
36.3511
 20
73.7639
 11
36.1433
 21
73.6227
  0
LINE
  8
0
 10
36.1433
 20
73.6227
 11
35.927
 21
73.4948
  0
LINE
  8
0
 10
35.927
 20
73.4948
 11
35.7031
 21
73.3807
  0
LINE
  8
0
 10
35.7031
 20
73.3807
 11
35.4725
 21
73.2809
  0
LINE
  8
0
 10
35.4725
 20
73.2809
 11
35.2361
 21
73.1958
  0
LINE
  8
0
 10
35.2361
 20
73.1958
 11
34.9948
 21
73.1257
  0
LINE
  8
0
 10
34.9948
 20
73.1257
 11
34.7495
 21
73.0708
  0
LINE
  8
0
 10
34.7495
 20
73.0708
 11
34.5013
 21
73.0315
  0
LINE
  8
0
 10
34.5013
 20
73.0315
 11
34.2512
 21
73.0079
  0
LINE
  8
0
 10
34.2512
 20
73.0079
 11
34
 21
73
  0
LINE
  8
0
 10
34
 20
73
 11
23
 21
73
  0
LINE
  8
0
 10
23
 20
73
 11
22.7488
 21
72.9921
  0
LINE
  8
0
 10
22.7488
 20
72.9921
 11
22.4987
 21
72.9685
  0
LINE
  8
0
 10
22.4987
 20
72.9685
 11
22.2505
 21
72.9291
  0
LINE
  8
0
 10
22.2505
 20
72.9291
 11
22.0052
 21
72.8743
  0
LINE
  8
0
 10
22.0052
 20
72.8743
 11
21.7639
 21
72.8042
  0
LINE
  8
0
 10
21.7639
 20
72.8042
 11
21.5275
 21
72.7191
  0
LINE
  8
0
 10
21.5275
 20
72.7191
 11
21.2969
 21
72.6193
  0
LINE
  8
0
 10
21.2969
 20
72.6193
 11
21.073
 21
72.5052
  0
LINE
  8
0
 10
21.073
 20
72.5052
 11
20.8567
 21
72.3773
  0
LINE
  8
0
 10
20.8567
 20
72.3773
 11
20.6488
 21
72.2361
  0
LINE
  8
0
 10
20.6488
 20
72.2361
 11
20.4503
 21
72.082
  0
LINE
  8
0
 10
20.4503
 20
72.082
 11
20.2618
 21
71.9159
  0
LINE
  8
0
 10
20.2618
 20
71.9159
 11
20.0841
 21
71.7382
  0
LINE
  8
0
 10
20.0841
 20
71.7382
 11
19.9179
 21
71.5497
  0
LINE
  8
0
 10
19.9179
 20
71.5497
 11
19.7639
 21
71.3511
  0
LINE
  8
0
 10
19.7639
 20
71.3511
 11
19.6227
 21
71.1433
  0
LINE
  8
0
 10
19.6227
 20
71.1433
 11
19.4948
 21
70.927
  0
LINE
  8
0
 10
19.4948
 20
70.927
 11
19.3807
 21
70.7031
  0
LINE
  8
0
 10
19.3807
 20
70.7031
 11
19.2809
 21
70.4725
  0
LINE
  8
0
 10
19.2809
 20
70.4725
 11
19.1958
 21
70.2361
  0
LINE
  8
0
 10
19.1958
 20
70.2361
 11
19.1257
 21
69.9948
  0
LINE
  8
0
 10
19.1257
 20
69.9948
 11
19.0708
 21
69.7495
  0
LINE
  8
0
 10
19.0708
 20
69.7495
 11
19.0315
 21
69.5013
  0
LINE
  8
0
 10
19.0315
 20
69.5013
 11
19.0079
 21
69.2512
  0
LINE
  8
0
 10
19.0079
 20
69.2512
 11
19
 21
69
  0
LINE
  8
0
 10
19
 20
69
 11
19
 21
67.5
  0
LINE
  8
0
 10
19
 20
67.5
 11
18.9921
 21
67.2488
  0
LINE
  8
0
 10
18.9921
 20
67.2488
 11
18.9684
 21
66.9987
  0
LINE
  8
0
 10
18.9684
 20
66.9987
 11
18.9291
 21
66.7505
  0
LINE
  8
0
 10
18.9291
 20
66.7505
 11
18.8743
 21
66.5052
  0
LINE
  8
0
 10
18.8743
 20
66.5052
 11
18.8042
 21
66.2639
  0
LINE
  8
0
 10
18.8042
 20
66.2639
 11
18.7191
 21
66.0275
  0
LINE
  8
0
 10
18.7191
 20
66.0275
 11
18.6193
 21
65.7969
  0
LINE
  8
0
 10
18.6193
 20
65.7969
 11
18.5052
 21
65.573
  0
LINE
  8
0
 10
18.5052
 20
65.573
 11
18.3773
 21
65.3567
  0
LINE
  8
0
 10
18.3773
 20
65.3567
 11
18.2361
 21
65.1488
  0
LINE
  8
0
 10
18.2361
 20
65.1488
 11
18.082
 21
64.9503
  0
LINE
  8
0
 10
18.082
 20
64.9503
 11
17.9159
 21
64.7618
  0
LINE
  8
0
 10
17.9159
 20
64.7618
 11
17.7382
 21
64.5841
  0
LINE
  8
0
 10
17.7382
 20
64.5841
 11
17.5497
 21
64.4179
  0
LINE
  8
0
 10
17.5497
 20
64.4179
 11
17.3511
 21
64.2639
  0
LINE
  8
0
 10
17.3511
 20
64.2639
 11
17.1433
 21
64.1227
  0
LINE
  8
0
 10
17.1433
 20
64.1227
 11
16.927
 21
63.9948
  0
LINE
  8
0
 10
16.927
 20
63.9948
 11
16.7031
 21
63.8807
  0
LINE
  8
0
 10
16.7031
 20
63.8807
 11
16.4725
 21
63.7809
  0
LINE
  8
0
 10
16.4725
 20
63.7809
 11
16.2361
 21
63.6958
  0
LINE
  8
0
 10
16.2361
 20
63.6958
 11
15.9948
 21
63.6257
  0
LINE
  8
0
 10
15.9948
 20
63.6257
 11
15.7495
 21
63.5708
  0
LINE
  8
0
 10
15.7495
 20
63.5708
 11
15.5013
 21
63.5315
  0
LINE
  8
0
 10
15.5013
 20
63.5315
 11
15.2512
 21
63.5079
  0
LINE
  8
0
 10
15.2512
 20
63.5079
 11
15
 21
63.5
  0
LINE
  8
0
 10
15
 20
63.5
 11
4
 21
63.5
  0
LINE
  8
0
 10
4
 20
63.5
 11
3.74883
 21
63.4921
  0
LINE
  8
0
 10
3.74883
 20
63.4921
 11
3.49866
 21
63.4685
  0
LINE
  8
0
 10
3.49866
 20
63.4685
 11
3.25047
 21
63.4291
  0
LINE
  8
0
 10
3.25047
 20
63.4291
 11
3.00523
 21
63.3743
  0
LINE
  8
0
 10
3.00523
 20
63.3743
 11
2.76393
 21
63.3042
  0
LINE
  8
0
 10
2.76393
 20
63.3042
 11
2.5275
 21
63.2191
  0
LINE
  8
0
 10
2.5275
 20
63.2191
 11
2.29688
 21
63.1193
  0
LINE
  8
0
 10
2.29688
 20
63.1193
 11
2.07298
 21
63.0052
  0
LINE
  8
0
 10
2.07298
 20
63.0052
 11
1.85669
 21
62.8773
  0
LINE
  8
0
 10
1.85669
 20
62.8773
 11
1.64885
 21
62.7361
  0
LINE
  8
0
 10
1.64885
 20
62.7361
 11
1.4503
 21
62.582
  0
LINE
  8
0
 10
1.4503
 20
62.582
 11
1.26181
 21
62.4159
  0
LINE
  8
0
 10
1.26181
 20
62.4159
 11
1.08412
 21
62.2382
  0
LINE
  8
0
 10
1.08412
 20
62.2382
 11
0.917938
 21
62.0497
  0
LINE
  8
0
 10
0.917938
 20
62.0497
 11
0.763931
 21
61.8511
  0
LINE
  8
0
 10
0.763931
 20
61.8511
 11
0.622681
 21
61.6433
  0
LINE
  8
0
 10
0.622681
 20
61.6433
 11
0.494766
 21
61.427
  0
LINE
  8
0
 10
0.494766
 20
61.427
 11
0.380692
 21
61.2031
  0
LINE
  8
0
 10
0.380692
 20
61.2031
 11
0.280884
 21
60.9725
  0
LINE
  8
0
 10
0.280884
 20
60.9725
 11
0.19577
 21
60.7361
  0
LINE
  8
0
 10
0.19577
 20
60.7361
 11
0.125656
 21
60.4948
  0
LINE
  8
0
 10
0.125656
 20
60.4948
 11
0.0708466
 21
60.2495
  0
LINE
  8
0
 10
0.0708466
 20
60.2495
 11
0.0315399
 21
60.0013
  0
LINE
  8
0
 10
0.0315399
 20
60.0013
 11
0.00788879
 21
59.7512
  0
LINE
  8
0
 10
0.00788879
 20
59.7512
 11
0
 21
59.5
  0
LINE
  8
0
 10
0
 20
59.5
 11
0
 21
21.5
  0
LINE
  8
0
 10
0
 20
21.5
 11
0.00788879
 21
21.2488
  0
LINE
  8
0
 10
0.00788879
 20
21.2488
 11
0.0315399
 21
20.9987
  0
LINE
  8
0
 10
0.0315399
 20
20.9987
 11
0.0708466
 21
20.7505
  0
LINE
  8
0
 10
0.0708466
 20
20.7505
 11
0.125656
 21
20.5052
  0
LINE
  8
0
 10
0.125656
 20
20.5052
 11
0.19577
 21
20.2639
  0
LINE
  8
0
 10
0.19577
 20
20.2639
 11
0.280884
 21
20.0275
  0
LINE
  8
0
 10
0.280884
 20
20.0275
 11
0.380692
 21
19.7969
  0
LINE
  8
0
 10
0.380692
 20
19.7969
 11
0.494766
 21
19.573
  0
LINE
  8
0
 10
0.494766
 20
19.573
 11
0.622681
 21
19.3567
  0
LINE
  8
0
 10
0.622681
 20
19.3567
 11
0.763931
 21
19.1488
  0
LINE
  8
0
 10
0.763931
 20
19.1488
 11
0.917938
 21
18.9503
  0
LINE
  8
0
 10
0.917938
 20
18.9503
 11
1.08412
 21
18.7618
  0
LINE
  8
0
 10
1.08412
 20
18.7618
 11
1.26181
 21
18.5841
  0
LINE
  8
0
 10
1.26181
 20
18.5841
 11
1.4503
 21
18.4179
  0
LINE
  8
0
 10
1.4503
 20
18.4179
 11
1.64885
 21
18.2639
  0
LINE
  8
0
 10
1.64885
 20
18.2639
 11
1.85669
 21
18.1227
  0
LINE
  8
0
 10
1.85669
 20
18.1227
 11
2.07298
 21
17.9948
  0
LINE
  8
0
 10
2.07298
 20
17.9948
 11
2.29688
 21
17.8807
  0
LINE
  8
0
 10
2.29688
 20
17.8807
 11
2.5275
 21
17.7809
  0
LINE
  8
0
 10
2.5275
 20
17.7809
 11
2.76393
 21
17.6958
  0
LINE
  8
0
 10
2.76393
 20
17.6958
 11
3.00523
 21
17.6257
  0
LINE
  8
0
 10
3.00523
 20
17.6257
 11
3.25047
 21
17.5708
  0
LINE
  8
0
 10
3.25047
 20
17.5708
 11
3.49866
 21
17.5315
  0
LINE
  8
0
 10
3.49866
 20
17.5315
 11
3.74883
 21
17.5079
  0
LINE
  8
0
 10
3.74883
 20
17.5079
 11
4
 21
17.5
  0
LINE
  8
0
 10
4
 20
17.5
 11
6
 21
17.5
  0
LINE
  8
0
 10
6
 20
17.5
 11
6.18837
 21
17.4941
  0
LINE
  8
0
 10
6.18837
 20
17.4941
 11
6.37599
 21
17.4763
  0
LINE
  8
0
 10
6.37599
 20
17.4763
 11
6.56213
 21
17.4469
  0
LINE
  8
0
 10
6.56213
 20
17.4469
 11
6.74606
 21
17.4057
  0
LINE
  8
0
 10
6.74606
 20
17.4057
 11
6.92705
 21
17.3532
  0
LINE
  8
0
 10
6.92705
 20
17.3532
 11
7.10437
 21
17.2893
  0
LINE
  8
0
 10
7.10437
 20
17.2893
 11
7.27733
 21
17.2145
  0
LINE
  8
0
 10
7.27733
 20
17.2145
 11
7.44525
 21
17.1289
  0
LINE
  8
0
 10
7.44525
 20
17.1289
 11
7.60747
 21
17.033
  0
LINE
  8
0
 10
7.60747
 20
17.033
 11
7.76335
 21
16.927
  0
LINE
  8
0
 10
7.76335
 20
16.927
 11
7.91226
 21
16.8115
  0
LINE
  8
0
 10
7.91226
 20
16.8115
 11
8.05363
 21
16.6869
  0
LINE
  8
0
 10
8.05363
 20
16.6869
 11
8.1869
 21
16.5536
  0
LINE
  8
0
 10
8.1869
 20
16.5536
 11
8.31154
 21
16.4123
  0
LINE
  8
0
 10
8.31154
 20
16.4123
 11
8.42705
 21
16.2634
  0
LINE
  8
0
 10
8.42705
 20
16.2634
 11
8.53297
 21
16.1075
  0
LINE
  8
0
 10
8.53297
 20
16.1075
 11
8.62891
 21
15.9453
  0
LINE
  8
0
 10
8.62891
 20
15.9453
 11
8.71448
 21
15.7773
  0
LINE
  8
0
 10
8.71448
 20
15.7773
 11
8.78932
 21
15.6044
  0
LINE
  8
0
 10
8.78932
 20
15.6044
 11
8.85316
 21
15.427
  0
LINE
  8
0
 10
8.85316
 20
15.427
 11
8.90575
 21
15.2461
  0
LINE
  8
0
 10
8.90575
 20
15.2461
 11
8.94685
 21
15.0621
  0
LINE
  8
0
 10
8.94685
 20
15.0621
 11
8.97633
 21
14.876
  0
LINE
  8
0
 10
8.97633
 20
14.876
 11
8.99408
 21
14.6884
  0
LINE
  8
0
 10
8.99408
 20
14.6884
 11
9.01282
 21
14.0919
  0
LINE
  8
0
 10
9.01282
 20
14.0919
 11
9.05125
 21
13.6853
  0
LINE
  8
0
 10
9.05125
 20
13.6853
 11
9.11513
 21
13.282
  0
LINE
  8
0
 10
9.11513
 20
13.282
 11
9.20421
 21
12.8835
  0
LINE
  8
0
 10
9.20421
 20
12.8835
 11
9.31813
 21
12.4914
  0
LINE
  8
0
 10
9.31813
 20
12.4914
 11
9.45645
 21
12.1072
  0
LINE
  8
0
 10
9.45645
 20
12.1072
 11
9.61862
 21
11.7324
  0
LINE
  8
0
 10
9.61862
 20
11.7324
 11
9.804
 21
11.3686
  0
LINE
  8
0
 10
9.804
 20
11.3686
 11
10.0119
 21
11.0171
  0
LINE
  8
0
 10
10.0119
 20
11.0171
 11
10.2414
 21
10.6794
  0
LINE
  8
0
 10
10.2414
 20
10.6794
 11
10.4917
 21
10.3567
  0
LINE
  8
0
 10
10.4917
 20
10.3567
 11
10.7617
 21
10.0504
  0
LINE
  8
0
 10
10.7617
 20
10.0504
 11
11.0504
 21
9.7617
  0
LINE
  8
0
 10
11.0504
 20
9.7617
 11
11.3567
 21
9.49165
  0
LINE
  8
0
 10
11.3567
 20
9.49165
 11
11.6794
 21
9.24138
  0
LINE
  8
0
 10
11.6794
 20
9.24138
 11
12.0171
 21
9.01186
  0
LINE
  8
0
 10
12.0171
 20
9.01186
 11
12.3686
 21
8.804
  0
LINE
  8
0
 10
12.3686
 20
8.804
 11
12.7324
 21
8.61862
  0
LINE
  8
0
 10
12.7324
 20
8.61862
 11
13.1072
 21
8.45645
  0
LINE
  8
0
 10
13.1072
 20
8.45645
 11
13.4914
 21
8.31813
  0
LINE
  8
0
 10
13.4914
 20
8.31813
 11
13.8835
 21
8.20421
  0
LINE
  8
0
 10
13.8835
 20
8.20421
 11
14.282
 21
8.11513
  0
LINE
  8
0
 10
14.282
 20
8.11513
 11
14.6853
 21
8.05125
  0
LINE
  8
0
 10
14.6853
 20
8.05125
 11
15.0919
 21
8.01282
  0
LINE
  8
0
 10
15.0919
 20
8.01282
 11
15.5
 21
8
  0
LINE
  8
0
 10
15.5
 20
8
 11
38
 21
8
  0
LINE
  8
0
 10
38
 20
8
 11
38.0079
 21
7.74883
  0
LINE
  8
0
 10
38.0079
 20
7.74883
 11
38.0315
 21
7.49866
  0
LINE
  8
0
 10
38.0315
 20
7.49866
 11
38.0708
 21
7.25047
  0
LINE
  8
0
 10
38.0708
 20
7.25047
 11
38.1257
 21
7.00523
  0
LINE
  8
0
 10
38.1257
 20
7.00523
 11
38.1958
 21
6.76393
  0
LINE
  8
0
 10
38.1958
 20
6.76393
 11
38.2809
 21
6.5275
  0
LINE
  8
0
 10
38.2809
 20
6.5275
 11
38.3807
 21
6.29688
  0
LINE
  8
0
 10
38.3807
 20
6.29688
 11
38.4948
 21
6.07298
  0
LINE
  8
0
 10
38.4948
 20
6.07298
 11
38.6227
 21
5.85669
  0
LINE
  8
0
 10
38.6227
 20
5.85669
 11
38.7639
 21
5.64885
  0
LINE
  8
0
 10
38.7639
 20
5.64885
 11
38.9179
 21
5.4503
  0
LINE
  8
0
 10
38.9179
 20
5.4503
 11
39.0841
 21
5.26181
  0
LINE
  8
0
 10
39.0841
 20
5.26181
 11
39.2618
 21
5.08412
  0
LINE
  8
0
 10
39.2618
 20
5.08412
 11
39.4503
 21
4.91794
  0
LINE
  8
0
 10
39.4503
 20
4.91794
 11
39.6488
 21
4.76393
  0
LINE
  8
0
 10
39.6488
 20
4.76393
 11
39.8567
 21
4.62268
  0
LINE
  8
0
 10
39.8567
 20
4.62268
 11
40.073
 21
4.49477
  0
LINE
  8
0
 10
40.073
 20
4.49477
 11
40.2969
 21
4.38069
  0
LINE
  8
0
 10
40.2969
 20
4.38069
 11
40.5275
 21
4.28088
  0
LINE
  8
0
 10
40.5275
 20
4.28088
 11
40.7639
 21
4.19577
  0
LINE
  8
0
 10
40.7639
 20
4.19577
 11
41.0052
 21
4.12566
  0
LINE
  8
0
 10
41.0052
 20
4.12566
 11
41.2505
 21
4.07085
  0
LINE
  8
0
 10
41.2505
 20
4.07085
 11
41.4987
 21
4.03154
  0
LINE
  8
0
 10
41.4987
 20
4.03154
 11
41.7488
 21
4.00789
  0
LINE
  8
0
 10
41.7488
 20
4.00789
 11
42
 21
4
  0
LINE
  8
0
 10
42
 20
4
 11
57
 21
4
  0
LINE
  8
0
 10
57
 20
4
 11
57.0079
 21
3.74883
  0
LINE
  8
0
 10
57.0079
 20
3.74883
 11
57.0315
 21
3.49866
  0
LINE
  8
0
 10
57.0315
 20
3.49866
 11
57.0708
 21
3.25047
  0
LINE
  8
0
 10
57.0708
 20
3.25047
 11
57.1257
 21
3.00523
  0
LINE
  8
0
 10
57.1257
 20
3.00523
 11
57.1958
 21
2.76393
  0
LINE
  8
0
 10
57.1958
 20
2.76393
 11
57.2809
 21
2.5275
  0
LINE
  8
0
 10
57.2809
 20
2.5275
 11
57.3807
 21
2.29688
  0
LINE
  8
0
 10
57.3807
 20
2.29688
 11
57.4948
 21
2.07298
  0
LINE
  8
0
 10
57.4948
 20
2.07298
 11
57.6227
 21
1.85669
  0
LINE
  8
0
 10
57.6227
 20
1.85669
 11
57.7639
 21
1.64885
  0
LINE
  8
0
 10
57.7639
 20
1.64885
 11
57.9179
 21
1.4503
  0
LINE
  8
0
 10
57.9179
 20
1.4503
 11
58.0841
 21
1.26181
  0
LINE
  8
0
 10
58.0841
 20
1.26181
 11
58.2618
 21
1.08412
  0
LINE
  8
0
 10
58.2618
 20
1.08412
 11
58.4503
 21
0.917938
  0
LINE
  8
0
 10
58.4503
 20
0.917938
 11
58.6488
 21
0.763931
  0
LINE
  8
0
 10
58.6488
 20
0.763931
 11
58.8567
 21
0.622681
  0
LINE
  8
0
 10
58.8567
 20
0.622681
 11
59.073
 21
0.494766
  0
LINE
  8
0
 10
59.073
 20
0.494766
 11
59.2969
 21
0.380692
  0
LINE
  8
0
 10
59.2969
 20
0.380692
 11
59.5275
 21
0.280884
  0
LINE
  8
0
 10
59.5275
 20
0.280884
 11
59.7639
 21
0.19577
  0
LINE
  8
0
 10
59.7639
 20
0.19577
 11
60.0052
 21
0.125656
  0
LINE
  8
0
 10
60.0052
 20
0.125656
 11
60.2505
 21
0.0708466
  0
LINE
  8
0
 10
60.2505
 20
0.0708466
 11
60.4987
 21
0.0315399
  0
LINE
  8
0
 10
60.4987
 20
0.0315399
 11
60.7488
 21
0.00788879
  0
LINE
  8
0
 10
60.7488
 20
0.00788879
 11
61
 21
0
  0
LINE
  8
0
 10
61
 20
0
 11
80
 21
0
  0
LINE
  8
0
 10
80
 20
0
 11
80.2512
 21
0.00788879
  0
LINE
  8
0
 10
116.624
 20
100.25
 11
114.747
 21
103.5
  0
LINE
  8
0
 10
114.747
 20
103.5
 11
116.624
 21
106.75
  0
LINE
  8
0
 10
116.624
 20
106.75
 11
120.376
 21
106.75
  0
LINE
  8
0
 10
120.376
 20
106.75
 11
122.253
 21
103.5
  0
LINE
  8
0
 10
122.253
 20
103.5
 11
120.376
 21
100.25
  0
LINE
  8
0
 10
120.376
 20
100.25
 11
116.624
 21
100.25
  0
LINE
  8
0
 10
4.62361
 20
100.25
 11
2.74722
 21
103.5
  0
LINE
  8
0
 10
2.74722
 20
103.5
 11
4.62361
 21
106.75
  0
LINE
  8
0
 10
4.62361
 20
106.75
 11
8.37637
 21
106.75
  0
LINE
  8
0
 10
8.37637
 20
106.75
 11
10.2528
 21
103.5
  0
LINE
  8
0
 10
10.2528
 20
103.5
 11
8.37637
 21
100.25
  0
LINE
  8
0
 10
8.37637
 20
100.25
 11
4.62361
 21
100.25
  0
LINE
  8
0
 10
123.624
 20
46.9591
 11
121.747
 21
50.2091
  0
LINE
  8
0
 10
121.747
 20
50.2091
 11
123.624
 21
53.4591
  0
LINE
  8
0
 10
123.624
 20
53.4591
 11
127.376
 21
53.4591
  0
LINE
  8
0
 10
127.376
 20
53.4591
 11
129.253
 21
50.2091
  0
LINE
  8
0
 10
129.253
 20
50.2091
 11
127.376
 21
46.9591
  0
LINE
  8
0
 10
127.376
 20
46.9591
 11
123.624
 21
46.9591
  0
LINE
  8
0
 10
13.6236
 20
11.25
 11
11.7472
 21
14.5
  0
LINE
  8
0
 10
11.7472
 20
14.5
 11
13.6236
 21
17.75
  0
LINE
  8
0
 10
13.6236
 20
17.75
 11
17.3764
 21
17.75
  0
LINE
  8
0
 10
17.3764
 20
17.75
 11
19.2528
 21
14.5
  0
LINE
  8
0
 10
19.2528
 20
14.5
 11
17.3764
 21
11.25
  0
LINE
  8
0
 10
17.3764
 20
11.25
 11
13.6236
 21
11.25
  0
ENDSEC
  0
SECTION
  2
OBJECTS
  0
DICTIONARY
  0
ENDSEC
  0
EOF
