M48
;DRILL file {KiCad 4.0.7} date 12/13/17 15:10:59
;FORMAT={3:3/ absolute / metric / suppress leading zeros}
FMAT,2
METRIC,TZ
T1C0.635
T2C0.991
T3C1.016
T4C1.499
T5C2.400
T6C3.048
T7C3.050
T8C3.988
T9C4.000
%
G90
G05
M71
T1
X9000Y-37000
X10500Y-23500
X10500Y-52000
X10500Y-71000
X10500Y-90000
X10500Y-109000
X13000Y-37000
X13500Y-69000
X25500Y-16000
X26000Y-39000
X28000Y-146500
X30500Y-14500
X30500Y-76500
X31000Y-69000
X38000Y-106000
X38500Y-115000
X51500Y-13500
X51500Y-40000
X55000Y-77000
X66500Y-38000
X67000Y-141500
X69000Y-19000
X70500Y-47500
X71000Y-15000
X71000Y-100000
X72000Y-23920
X73000Y-13000
X73500Y-147500
X74000Y-129000
X76000Y-4000
X77500Y-15000
X78000Y-18500
X79000Y-3000
X80000Y-16000
X81500Y-1500
X81500Y-16000
X84500Y-1000
X86000Y-37000
X87000Y-12500
X88500Y-16000
X90000Y-34000
X91500Y-15000
X91500Y-36000
X92500Y-23000
X94000Y-18000
X94000Y-31500
X94500Y-37000
X95500Y-145500
X97000Y-16000
X100945Y-17055
X103500Y-16000
X104000Y-39000
X105000Y-14000
X109500Y-16000
X109500Y-19500
X109500Y-84000
X110000Y-145500
X110500Y-85500
X111000Y-15000
X111000Y-50000
X111500Y-126500
X112000Y-14000
X112000Y-39000
X128500Y-38000
X132500Y-37000
X135000Y-22500
X135500Y-37000
X152500Y-140000
X177000Y-51500
X177500Y-86000
X179500Y-84500
X180000Y-69500
X181460Y-38000
X195000Y-37000
X221500Y-128000
X224500Y-128000
X238500Y-9000
X245500Y-146000
X257500Y-8000
X276000Y-7000
X295500Y-6000
X316000Y-13000
T2
X12000Y-20110
X12000Y-48110
X12000Y-67110
X12000Y-86110
X12000Y-105110
X12000Y-124110
X15730Y-23920
X15730Y-51920
X15730Y-70920
X15730Y-89920
X15730Y-108920
X15730Y-127920
X18270Y-23920
X18270Y-51920
X18270Y-70920
X18270Y-89920
X18270Y-108920
X18270Y-127920
X22000Y-20110
X22000Y-48110
X22000Y-67110
X22000Y-86110
X22000Y-105110
X22000Y-124110
X25890Y-23920
X25890Y-31540
X25890Y-51920
X25890Y-59540
X25890Y-70920
X25890Y-78540
X25890Y-89920
X25890Y-97540
X25890Y-108920
X25890Y-116540
X25890Y-127920
X25890Y-135540
X32110Y-80500
X32110Y-90500
X32110Y-118500
X32110Y-128500
X35920Y-84230
X35920Y-86770
X35920Y-103500
X35920Y-122230
X35920Y-124770
X35920Y-141500
X36000Y-20110
X36000Y-48110
X39730Y-23920
X39730Y-51920
X42270Y-23920
X42270Y-51920
X43540Y-103500
X43540Y-141500
X46000Y-20110
X46000Y-48110
X49890Y-23920
X49890Y-31540
X49890Y-51920
X49890Y-59540
X55000Y-20110
X55000Y-48110
X55000Y-67110
X55000Y-86110
X55000Y-105110
X55000Y-124110
X58730Y-23920
X58730Y-51920
X58730Y-70920
X58730Y-89920
X58730Y-108920
X58730Y-127920
X61270Y-23920
X61270Y-51920
X61270Y-70920
X61270Y-89920
X61270Y-108920
X61270Y-127920
X65000Y-20110
X65000Y-48110
X65000Y-67110
X65000Y-86110
X65000Y-105110
X65000Y-124110
X68890Y-23920
X68890Y-31540
X68890Y-51920
X68890Y-59540
X68890Y-70920
X68890Y-78540
X68890Y-89920
X68890Y-97540
X68890Y-108920
X68890Y-116540
X68890Y-127920
X68890Y-135540
X74000Y-20110
X74000Y-48110
X74000Y-67110
X74000Y-86110
X74000Y-105110
X77730Y-23920
X77730Y-51920
X77730Y-70920
X77730Y-89920
X77730Y-108920
X80270Y-23920
X80270Y-51920
X80270Y-70920
X80270Y-89920
X80270Y-108920
X83500Y-124110
X84000Y-20110
X84000Y-48110
X84000Y-67110
X84000Y-86110
X84000Y-105110
X87230Y-127920
X87890Y-23920
X87890Y-31540
X87890Y-51920
X87890Y-59540
X87890Y-70920
X87890Y-78540
X87890Y-89920
X87890Y-97540
X87890Y-108920
X87890Y-116540
X89770Y-127920
X93000Y-20110
X93000Y-48110
X93000Y-67110
X93000Y-86110
X93000Y-105110
X93500Y-124110
X96730Y-23920
X96730Y-51920
X96730Y-70920
X96730Y-89920
X96730Y-108920
X99270Y-23920
X99270Y-51920
X99270Y-70920
X99270Y-89920
X99270Y-108920
X103000Y-20110
X103000Y-48110
X103000Y-67110
X103000Y-86110
X103000Y-105110
X106500Y-127920
X106500Y-135540
X106890Y-23920
X106890Y-31540
X106890Y-51920
X106890Y-59540
X106890Y-70920
X106890Y-78540
X106890Y-89920
X106890Y-97540
X106890Y-108920
X106890Y-116540
X117000Y-20110
X117000Y-48110
X117000Y-67110
X117000Y-124110
X120730Y-23920
X120730Y-51920
X120730Y-70920
X120730Y-127920
X123270Y-23920
X123270Y-51920
X123270Y-70920
X123270Y-127920
X127000Y-20110
X127000Y-48110
X127000Y-67110
X127000Y-124110
X130890Y-23920
X130890Y-31540
X130890Y-51920
X130890Y-59540
X130890Y-70920
X130890Y-78540
X130890Y-127920
X130890Y-135540
X136000Y-20110
X136000Y-48110
X136000Y-67110
X136000Y-105110
X136000Y-124110
X139730Y-23920
X139730Y-51920
X139730Y-70920
X139730Y-108920
X139730Y-127920
X142270Y-23920
X142270Y-51920
X142270Y-70920
X142270Y-108920
X142270Y-127920
X146000Y-20110
X146000Y-48110
X146000Y-67110
X146000Y-105110
X146000Y-124110
X149890Y-23920
X149890Y-31540
X149890Y-51920
X149890Y-59540
X149890Y-70920
X149890Y-78540
X149890Y-108920
X149890Y-116540
X149890Y-127920
X149890Y-135540
X155000Y-20110
X155000Y-48110
X155000Y-67110
X155000Y-124110
X158730Y-23920
X158730Y-51920
X158730Y-70920
X158730Y-127920
X161270Y-23920
X161270Y-51920
X161270Y-70920
X161270Y-127920
X165000Y-20110
X165000Y-48110
X165000Y-67110
X165000Y-124110
X168890Y-23920
X168890Y-31540
X168890Y-51920
X168890Y-59540
X168890Y-70920
X168890Y-78540
X168890Y-127920
X168890Y-135540
X177875Y-108920
X177875Y-116540
X179000Y-20110
X179000Y-48110
X181375Y-141890
X182730Y-23920
X182730Y-51920
X183750Y-67110
X185105Y-127920
X185270Y-23920
X185270Y-51920
X186125Y-86110
X187480Y-70920
X187645Y-127920
X189000Y-20110
X189000Y-48110
X189855Y-89920
X190020Y-70920
X190875Y-105110
X191375Y-141890
X192395Y-89920
X192890Y-23920
X192890Y-31540
X192890Y-51920
X192890Y-59540
X193750Y-67110
X194605Y-108920
X195265Y-127920
X195265Y-135540
X196125Y-86110
X197145Y-108920
X197640Y-70920
X197640Y-78540
X198000Y-48110
X200015Y-89920
X200015Y-97540
X200875Y-105110
X201730Y-51920
X204270Y-51920
X205125Y-141890
X207500Y-67110
X208000Y-48110
X208855Y-127920
X211230Y-70920
X211395Y-127920
X211890Y-51920
X211890Y-59540
X212250Y-86110
X213770Y-70920
X215125Y-141890
X215980Y-89920
X217000Y-20110
X217000Y-48110
X217500Y-67110
X218520Y-89920
X219015Y-127920
X219015Y-135540
X220730Y-23920
X220730Y-51920
X221390Y-70920
X221390Y-78540
X221750Y-105110
X222250Y-86110
X223270Y-23920
X223270Y-51920
X225480Y-108920
X226140Y-89920
X226140Y-97540
X226500Y-67110
X227000Y-20110
X227000Y-48110
X228020Y-108920
X228875Y-124110
X230230Y-70920
X230890Y-23920
X230890Y-31540
X230890Y-51920
X230890Y-59540
X231250Y-86110
X231750Y-105110
X232605Y-127920
X232770Y-70920
X234980Y-89920
X235145Y-127920
X235640Y-108920
X235640Y-116540
X236000Y-20110
X236000Y-48110
X236500Y-67110
X237520Y-89920
X238875Y-124110
X239730Y-23920
X239730Y-51920
X240390Y-70920
X240390Y-78540
X240750Y-105110
X241250Y-86110
X242270Y-23920
X242270Y-51920
X242765Y-127920
X242765Y-135540
X244480Y-108920
X245140Y-89920
X245140Y-97540
X245500Y-67110
X246000Y-20110
X246000Y-48110
X247020Y-108920
X249230Y-70920
X249890Y-23920
X249890Y-31540
X249890Y-51920
X249890Y-59540
X250250Y-86110
X250750Y-105110
X251770Y-70920
X253980Y-89920
X254640Y-108920
X254640Y-116540
X255000Y-20110
X255000Y-48110
X255000Y-124110
X255500Y-67110
X256520Y-89920
X258730Y-23920
X258730Y-51920
X258730Y-127920
X259390Y-70920
X259390Y-78540
X259750Y-105110
X260250Y-86110
X261270Y-23920
X261270Y-51920
X261270Y-127920
X263480Y-108920
X264140Y-89920
X264140Y-97540
X264500Y-67110
X265000Y-20110
X265000Y-48110
X265000Y-124110
X266020Y-108920
X268230Y-70920
X268890Y-23920
X268890Y-31540
X268890Y-51920
X268890Y-59540
X268890Y-127920
X268890Y-135540
X269250Y-86110
X269750Y-105110
X270770Y-70920
X272980Y-89920
X273640Y-108920
X273640Y-116540
X274000Y-20110
X274000Y-48110
X274500Y-67110
X275520Y-89920
X277625Y-127920
X277625Y-135540
X277730Y-23920
X277730Y-51920
X278390Y-70920
X278390Y-78540
X278750Y-105110
X279250Y-86110
X280270Y-23920
X280270Y-51920
X282480Y-108920
X283140Y-89920
X283140Y-97540
X283500Y-67110
X284000Y-20110
X284000Y-48110
X285020Y-108920
X287230Y-70920
X287890Y-23920
X287890Y-31540
X287890Y-51920
X287890Y-59540
X288250Y-86110
X288750Y-105110
X289770Y-70920
X290625Y-124110
X291980Y-89920
X292640Y-108920
X292640Y-116540
X293000Y-20110
X293000Y-48110
X293500Y-67110
X294355Y-127920
X294520Y-89920
X296730Y-23920
X296730Y-51920
X296895Y-127920
X297390Y-70920
X297390Y-78540
X297750Y-105110
X298250Y-86110
X299270Y-23920
X299270Y-51920
X300625Y-124110
X301480Y-108920
X302140Y-89920
X302140Y-97540
X303000Y-20110
X303000Y-48110
X304020Y-108920
X306890Y-23920
X306890Y-31540
X306890Y-51920
X306890Y-59540
X307750Y-105110
X311640Y-108920
X311640Y-116540
X312000Y-67110
X314375Y-86110
X315730Y-70920
X316750Y-48110
X318105Y-89920
X318270Y-70920
X319125Y-105110
X320480Y-51920
X320645Y-89920
X321500Y-20110
X321500Y-124110
X322000Y-67110
X322855Y-108920
X323020Y-51920
X324375Y-86110
X325230Y-23920
X325230Y-127920
X325395Y-108920
X326750Y-48110
X327770Y-23920
X327770Y-127920
X328265Y-89920
X328265Y-97540
X329125Y-105110
X330640Y-51920
X330640Y-59540
X331500Y-20110
X331500Y-124110
X333015Y-108920
X333015Y-116540
X335000Y-70920
X335000Y-78540
X335390Y-23920
X335390Y-31540
X335390Y-127920
X335390Y-135540
T3
X71863Y-8897
X73260Y-6103
X74657Y-8897
X76054Y-6103
X77451Y-8897
X78848Y-6103
X80245Y-8897
X81515Y-6103
X83039Y-8897
X84309Y-6103
X85706Y-8897
X87103Y-6103
X88500Y-8897
X89897Y-6103
X91294Y-8897
X92691Y-6103
X94088Y-8897
X95358Y-6103
X96882Y-8897
X98152Y-6103
X99549Y-8897
X100946Y-6103
X102343Y-8897
X103740Y-6103
X105137Y-8897
T4
X14460Y-34080
X14460Y-62080
X14460Y-81080
X14460Y-100080
X14460Y-119080
X14460Y-138080
X20810Y-31540
X20810Y-59540
X20810Y-78540
X20810Y-97540
X20810Y-116540
X20810Y-135540
X38460Y-34080
X38460Y-62080
X43540Y-81690
X43540Y-119690
X44810Y-31540
X44810Y-59540
X46080Y-88040
X46080Y-126040
X57460Y-34080
X57460Y-62080
X57460Y-81080
X57460Y-100080
X57460Y-119080
X57460Y-138080
X63810Y-31540
X63810Y-59540
X63810Y-78540
X63810Y-97540
X63810Y-116540
X63810Y-135540
X76460Y-34080
X76460Y-62080
X76460Y-81080
X76460Y-100080
X76460Y-119080
X82810Y-31540
X82810Y-59540
X82810Y-78540
X82810Y-97540
X82810Y-116540
X85960Y-138080
X92310Y-135540
X95460Y-34080
X95460Y-62080
X95460Y-81080
X95460Y-100080
X95460Y-119080
X101810Y-31540
X101810Y-59540
X101810Y-78540
X101810Y-97540
X101810Y-116540
X119460Y-34080
X119460Y-62080
X119460Y-81080
X119460Y-138080
X125810Y-31540
X125810Y-59540
X125810Y-78540
X125810Y-135540
X138460Y-34080
X138460Y-62080
X138460Y-81080
X138460Y-119080
X138460Y-138080
X144810Y-31540
X144810Y-59540
X144810Y-78540
X144810Y-116540
X144810Y-135540
X157460Y-34080
X157460Y-62080
X157460Y-81080
X157460Y-138080
X163810Y-31540
X163810Y-59540
X163810Y-78540
X163810Y-135540
X181460Y-34080
X181460Y-62080
X183835Y-138080
X186210Y-81080
X187810Y-31540
X187810Y-59540
X188585Y-100080
X190185Y-135540
X192560Y-78540
X193335Y-119080
X194935Y-97540
X199685Y-116540
X200460Y-62080
X206810Y-59540
X207585Y-138080
X209960Y-81080
X213935Y-135540
X214710Y-100080
X216310Y-78540
X219460Y-34080
X219460Y-62080
X221060Y-97540
X224210Y-119080
X225810Y-31540
X225810Y-59540
X228960Y-81080
X230560Y-116540
X231335Y-138080
X233710Y-100080
X235310Y-78540
X237685Y-135540
X238460Y-34080
X238460Y-62080
X240060Y-97540
X243210Y-119080
X244810Y-31540
X244810Y-59540
X247960Y-81080
X249560Y-116540
X252710Y-100080
X254310Y-78540
X257460Y-34080
X257460Y-62080
X257460Y-138080
X259060Y-97540
X262210Y-119080
X263810Y-31540
X263810Y-59540
X263810Y-135540
X266960Y-81080
X268560Y-116540
X271710Y-100080
X273310Y-78540
X276460Y-34080
X276460Y-62080
X278060Y-97540
X281210Y-119080
X282810Y-31540
X282810Y-59540
X285960Y-81080
X287560Y-116540
X290710Y-100080
X292310Y-78540
X293085Y-138080
X295460Y-34080
X295460Y-62080
X297060Y-97540
X299435Y-135540
X300210Y-119080
X301810Y-31540
X301810Y-59540
X306560Y-116540
X314460Y-81080
X316835Y-100080
X319210Y-62080
X320810Y-78540
X321585Y-119080
X323185Y-97540
X323960Y-34080
X323960Y-138080
X325560Y-59540
X327935Y-116540
X330310Y-31540
X330310Y-135540
T5
X3500Y-3500
X3500Y-146500
X172000Y-3500
X172000Y-95000
X172000Y-146500
X340000Y-3500
X340000Y-146500
T6
X65005Y-7500
X111995Y-7500
T7
X34000Y-73600
X34000Y-97400
X34000Y-111600
X34000Y-135400
X76600Y-126000
X100400Y-126000
X183975Y-107000
X207775Y-107000
X283725Y-126000
X305100Y-69000
X307525Y-126000
X328900Y-69000
T8
X17000Y-29000
X17000Y-57000
X17000Y-76000
X17000Y-95000
X17000Y-114000
X17000Y-133000
X41000Y-29000
X41000Y-57000
X41000Y-85500
X41000Y-123500
X60000Y-29000
X60000Y-57000
X60000Y-76000
X60000Y-95000
X60000Y-114000
X60000Y-133000
X79000Y-29000
X79000Y-57000
X79000Y-76000
X79000Y-95000
X79000Y-114000
X88500Y-133000
X98000Y-29000
X98000Y-57000
X98000Y-76000
X98000Y-95000
X98000Y-114000
X122000Y-29000
X122000Y-57000
X122000Y-76000
X122000Y-133000
X141000Y-29000
X141000Y-57000
X141000Y-76000
X141000Y-114000
X141000Y-133000
X160000Y-29000
X160000Y-57000
X160000Y-76000
X160000Y-133000
X184000Y-29000
X184000Y-57000
X186375Y-133000
X188750Y-76000
X191125Y-95000
X195875Y-114000
X203000Y-57000
X210125Y-133000
X212500Y-76000
X217250Y-95000
X222000Y-29000
X222000Y-57000
X226750Y-114000
X231500Y-76000
X233875Y-133000
X236250Y-95000
X241000Y-29000
X241000Y-57000
X245750Y-114000
X250500Y-76000
X255250Y-95000
X260000Y-29000
X260000Y-57000
X260000Y-133000
X264750Y-114000
X269500Y-76000
X274250Y-95000
X279000Y-29000
X279000Y-57000
X283750Y-114000
X288500Y-76000
X293250Y-95000
X295625Y-133000
X298000Y-29000
X298000Y-57000
X302750Y-114000
X317000Y-76000
X319375Y-95000
X321750Y-57000
X324125Y-114000
X326500Y-29000
X326500Y-133000
T9
X49240Y-73600
X49240Y-97400
X49240Y-111600
X49240Y-135400
X76600Y-141240
X100400Y-141240
X183975Y-122240
X207775Y-122240
X283725Y-141240
X305100Y-84240
X307525Y-141240
X328900Y-84240
T0
M30
