G04 #@! TF.FileFunction,Copper,L1,Top,Signal*
%FSLAX46Y46*%
G04 Gerber Fmt 4.6, Leading zero omitted, Abs format (unit mm)*
G04 Created by KiCad (PCBNEW 4.0.7) date 12/13/17 15:10:49*
%MOMM*%
%LPD*%
G01*
G04 APERTURE LIST*
%ADD10C,0.100000*%
%ADD11C,2.286000*%
%ADD12C,3.987800*%
%ADD13C,1.651000*%
%ADD14R,1.651000X1.651000*%
%ADD15C,3.810000*%
%ADD16R,1.524000X1.524000*%
%ADD17C,1.524000*%
%ADD18C,2.400000*%
%ADD19C,4.000000*%
%ADD20C,3.050000*%
%ADD21C,0.889000*%
%ADD22C,0.254000*%
G04 APERTURE END LIST*
D10*
D11*
X257460000Y-62080000D03*
X263810000Y-59540000D03*
D12*
X260000000Y-57000000D03*
D13*
X268890000Y-59540000D03*
D14*
X268890000Y-51920000D03*
D13*
X261270000Y-51920000D03*
D14*
X258730000Y-51920000D03*
X265000000Y-48110000D03*
D13*
X255000000Y-48110000D03*
D11*
X285960000Y-81080000D03*
X292310000Y-78540000D03*
D12*
X288500000Y-76000000D03*
D13*
X297390000Y-78540000D03*
D14*
X297390000Y-70920000D03*
D13*
X289770000Y-70920000D03*
D14*
X287230000Y-70920000D03*
X293500000Y-67110000D03*
D13*
X283500000Y-67110000D03*
D11*
X266960000Y-81080000D03*
X273310000Y-78540000D03*
D12*
X269500000Y-76000000D03*
D13*
X278390000Y-78540000D03*
D14*
X278390000Y-70920000D03*
D13*
X270770000Y-70920000D03*
D14*
X268230000Y-70920000D03*
X274500000Y-67110000D03*
D13*
X264500000Y-67110000D03*
D11*
X247960000Y-81080000D03*
X254310000Y-78540000D03*
D12*
X250500000Y-76000000D03*
D13*
X259390000Y-78540000D03*
D14*
X259390000Y-70920000D03*
D13*
X251770000Y-70920000D03*
D14*
X249230000Y-70920000D03*
X255500000Y-67110000D03*
D13*
X245500000Y-67110000D03*
D11*
X228960000Y-81080000D03*
X235310000Y-78540000D03*
D12*
X231500000Y-76000000D03*
D13*
X240390000Y-78540000D03*
D14*
X240390000Y-70920000D03*
D13*
X232770000Y-70920000D03*
D14*
X230230000Y-70920000D03*
X236500000Y-67110000D03*
D13*
X226500000Y-67110000D03*
D11*
X209960000Y-81080000D03*
X216310000Y-78540000D03*
D12*
X212500000Y-76000000D03*
D13*
X221390000Y-78540000D03*
D14*
X221390000Y-70920000D03*
D13*
X213770000Y-70920000D03*
D14*
X211230000Y-70920000D03*
X217500000Y-67110000D03*
D13*
X207500000Y-67110000D03*
D11*
X186210000Y-81080000D03*
X192560000Y-78540000D03*
D12*
X188750000Y-76000000D03*
D13*
X197640000Y-78540000D03*
D14*
X197640000Y-70920000D03*
D13*
X190020000Y-70920000D03*
D14*
X187480000Y-70920000D03*
X193750000Y-67110000D03*
D13*
X183750000Y-67110000D03*
D11*
X319210000Y-62080000D03*
X325560000Y-59540000D03*
D12*
X321750000Y-57000000D03*
D13*
X330640000Y-59540000D03*
D14*
X330640000Y-51920000D03*
D13*
X323020000Y-51920000D03*
D14*
X320480000Y-51920000D03*
X326750000Y-48110000D03*
D13*
X316750000Y-48110000D03*
D11*
X295460000Y-62080000D03*
X301810000Y-59540000D03*
D12*
X298000000Y-57000000D03*
D13*
X306890000Y-59540000D03*
D14*
X306890000Y-51920000D03*
D13*
X299270000Y-51920000D03*
D14*
X296730000Y-51920000D03*
X303000000Y-48110000D03*
D13*
X293000000Y-48110000D03*
D11*
X276460000Y-62080000D03*
X282810000Y-59540000D03*
D12*
X279000000Y-57000000D03*
D13*
X287890000Y-59540000D03*
D14*
X287890000Y-51920000D03*
D13*
X280270000Y-51920000D03*
D14*
X277730000Y-51920000D03*
X284000000Y-48110000D03*
D13*
X274000000Y-48110000D03*
D11*
X188585000Y-100080000D03*
X194935000Y-97540000D03*
D12*
X191125000Y-95000000D03*
D13*
X200015000Y-97540000D03*
D14*
X200015000Y-89920000D03*
D13*
X192395000Y-89920000D03*
D14*
X189855000Y-89920000D03*
X196125000Y-86110000D03*
D13*
X186125000Y-86110000D03*
D11*
X238460000Y-62080000D03*
X244810000Y-59540000D03*
D12*
X241000000Y-57000000D03*
D13*
X249890000Y-59540000D03*
D14*
X249890000Y-51920000D03*
D13*
X242270000Y-51920000D03*
D14*
X239730000Y-51920000D03*
X246000000Y-48110000D03*
D13*
X236000000Y-48110000D03*
D11*
X219460000Y-62080000D03*
X225810000Y-59540000D03*
D12*
X222000000Y-57000000D03*
D13*
X230890000Y-59540000D03*
D14*
X230890000Y-51920000D03*
D13*
X223270000Y-51920000D03*
D14*
X220730000Y-51920000D03*
X227000000Y-48110000D03*
D13*
X217000000Y-48110000D03*
D11*
X200460000Y-62080000D03*
X206810000Y-59540000D03*
D12*
X203000000Y-57000000D03*
D13*
X211890000Y-59540000D03*
D14*
X211890000Y-51920000D03*
D13*
X204270000Y-51920000D03*
D14*
X201730000Y-51920000D03*
X208000000Y-48110000D03*
D13*
X198000000Y-48110000D03*
D11*
X181460000Y-62080000D03*
X187810000Y-59540000D03*
D12*
X184000000Y-57000000D03*
D13*
X192890000Y-59540000D03*
D14*
X192890000Y-51920000D03*
D13*
X185270000Y-51920000D03*
D14*
X182730000Y-51920000D03*
X189000000Y-48110000D03*
D13*
X179000000Y-48110000D03*
D11*
X323960000Y-34080000D03*
X330310000Y-31540000D03*
D12*
X326500000Y-29000000D03*
D13*
X335390000Y-31540000D03*
D14*
X335390000Y-23920000D03*
D13*
X327770000Y-23920000D03*
D14*
X325230000Y-23920000D03*
X331500000Y-20110000D03*
D13*
X321500000Y-20110000D03*
D11*
X295460000Y-34080000D03*
X301810000Y-31540000D03*
D12*
X298000000Y-29000000D03*
D13*
X306890000Y-31540000D03*
D14*
X306890000Y-23920000D03*
D13*
X299270000Y-23920000D03*
D14*
X296730000Y-23920000D03*
X303000000Y-20110000D03*
D13*
X293000000Y-20110000D03*
D11*
X276460000Y-34080000D03*
X282810000Y-31540000D03*
D12*
X279000000Y-29000000D03*
D13*
X287890000Y-31540000D03*
D14*
X287890000Y-23920000D03*
D13*
X280270000Y-23920000D03*
D14*
X277730000Y-23920000D03*
X284000000Y-20110000D03*
D13*
X274000000Y-20110000D03*
D11*
X257460000Y-34080000D03*
X263810000Y-31540000D03*
D12*
X260000000Y-29000000D03*
D13*
X268890000Y-31540000D03*
D14*
X268890000Y-23920000D03*
D13*
X261270000Y-23920000D03*
D14*
X258730000Y-23920000D03*
X265000000Y-20110000D03*
D13*
X255000000Y-20110000D03*
D11*
X238460000Y-34080000D03*
X244810000Y-31540000D03*
D12*
X241000000Y-29000000D03*
D13*
X249890000Y-31540000D03*
D14*
X249890000Y-23920000D03*
D13*
X242270000Y-23920000D03*
D14*
X239730000Y-23920000D03*
X246000000Y-20110000D03*
D13*
X236000000Y-20110000D03*
D11*
X262210000Y-119080000D03*
X268560000Y-116540000D03*
D12*
X264750000Y-114000000D03*
D13*
X273640000Y-116540000D03*
D14*
X273640000Y-108920000D03*
D13*
X266020000Y-108920000D03*
D14*
X263480000Y-108920000D03*
X269750000Y-105110000D03*
D13*
X259750000Y-105110000D03*
D11*
X323960000Y-138080000D03*
X330310000Y-135540000D03*
D12*
X326500000Y-133000000D03*
D13*
X335390000Y-135540000D03*
D14*
X335390000Y-127920000D03*
D13*
X327770000Y-127920000D03*
D14*
X325230000Y-127920000D03*
X331500000Y-124110000D03*
D13*
X321500000Y-124110000D03*
D11*
X257460000Y-138080000D03*
X263810000Y-135540000D03*
D12*
X260000000Y-133000000D03*
D13*
X268890000Y-135540000D03*
D14*
X268890000Y-127920000D03*
D13*
X261270000Y-127920000D03*
D14*
X258730000Y-127920000D03*
X265000000Y-124110000D03*
D13*
X255000000Y-124110000D03*
D11*
X231335000Y-138080000D03*
X237685000Y-135540000D03*
D12*
X233875000Y-133000000D03*
D13*
X242765000Y-135540000D03*
D14*
X242765000Y-127920000D03*
D13*
X235145000Y-127920000D03*
D14*
X232605000Y-127920000D03*
X238875000Y-124110000D03*
D13*
X228875000Y-124110000D03*
D11*
X321585000Y-119080000D03*
X327935000Y-116540000D03*
D12*
X324125000Y-114000000D03*
D13*
X333015000Y-116540000D03*
D14*
X333015000Y-108920000D03*
D13*
X325395000Y-108920000D03*
D14*
X322855000Y-108920000D03*
X329125000Y-105110000D03*
D13*
X319125000Y-105110000D03*
D11*
X300210000Y-119080000D03*
X306560000Y-116540000D03*
D12*
X302750000Y-114000000D03*
D13*
X311640000Y-116540000D03*
D14*
X311640000Y-108920000D03*
D13*
X304020000Y-108920000D03*
D14*
X301480000Y-108920000D03*
X307750000Y-105110000D03*
D13*
X297750000Y-105110000D03*
D11*
X281210000Y-119080000D03*
X287560000Y-116540000D03*
D12*
X283750000Y-114000000D03*
D13*
X292640000Y-116540000D03*
D14*
X292640000Y-108920000D03*
D13*
X285020000Y-108920000D03*
D14*
X282480000Y-108920000D03*
X288750000Y-105110000D03*
D13*
X278750000Y-105110000D03*
D11*
X219460000Y-34080000D03*
X225810000Y-31540000D03*
D12*
X222000000Y-29000000D03*
D13*
X230890000Y-31540000D03*
D14*
X230890000Y-23920000D03*
D13*
X223270000Y-23920000D03*
D14*
X220730000Y-23920000D03*
X227000000Y-20110000D03*
D13*
X217000000Y-20110000D03*
D11*
X243210000Y-119080000D03*
X249560000Y-116540000D03*
D12*
X245750000Y-114000000D03*
D13*
X254640000Y-116540000D03*
D14*
X254640000Y-108920000D03*
D13*
X247020000Y-108920000D03*
D14*
X244480000Y-108920000D03*
X250750000Y-105110000D03*
D13*
X240750000Y-105110000D03*
D11*
X224210000Y-119080000D03*
X230560000Y-116540000D03*
D12*
X226750000Y-114000000D03*
D13*
X235640000Y-116540000D03*
D14*
X235640000Y-108920000D03*
D13*
X228020000Y-108920000D03*
D14*
X225480000Y-108920000D03*
X231750000Y-105110000D03*
D13*
X221750000Y-105110000D03*
D11*
X316835000Y-100080000D03*
X323185000Y-97540000D03*
D12*
X319375000Y-95000000D03*
D13*
X328265000Y-97540000D03*
D14*
X328265000Y-89920000D03*
D13*
X320645000Y-89920000D03*
D14*
X318105000Y-89920000D03*
X324375000Y-86110000D03*
D13*
X314375000Y-86110000D03*
D11*
X290710000Y-100080000D03*
X297060000Y-97540000D03*
D12*
X293250000Y-95000000D03*
D13*
X302140000Y-97540000D03*
D14*
X302140000Y-89920000D03*
D13*
X294520000Y-89920000D03*
D14*
X291980000Y-89920000D03*
X298250000Y-86110000D03*
D13*
X288250000Y-86110000D03*
D11*
X271710000Y-100080000D03*
X278060000Y-97540000D03*
D12*
X274250000Y-95000000D03*
D13*
X283140000Y-97540000D03*
D14*
X283140000Y-89920000D03*
D13*
X275520000Y-89920000D03*
D14*
X272980000Y-89920000D03*
X279250000Y-86110000D03*
D13*
X269250000Y-86110000D03*
D11*
X252710000Y-100080000D03*
X259060000Y-97540000D03*
D12*
X255250000Y-95000000D03*
D13*
X264140000Y-97540000D03*
D14*
X264140000Y-89920000D03*
D13*
X256520000Y-89920000D03*
D14*
X253980000Y-89920000D03*
X260250000Y-86110000D03*
D13*
X250250000Y-86110000D03*
D11*
X233710000Y-100080000D03*
X240060000Y-97540000D03*
D12*
X236250000Y-95000000D03*
D13*
X245140000Y-97540000D03*
D14*
X245140000Y-89920000D03*
D13*
X237520000Y-89920000D03*
D14*
X234980000Y-89920000D03*
X241250000Y-86110000D03*
D13*
X231250000Y-86110000D03*
D11*
X214710000Y-100080000D03*
X221060000Y-97540000D03*
D12*
X217250000Y-95000000D03*
D13*
X226140000Y-97540000D03*
D14*
X226140000Y-89920000D03*
D13*
X218520000Y-89920000D03*
D14*
X215980000Y-89920000D03*
X222250000Y-86110000D03*
D13*
X212250000Y-86110000D03*
D11*
X38460000Y-62080000D03*
X44810000Y-59540000D03*
D12*
X41000000Y-57000000D03*
D13*
X49890000Y-59540000D03*
D14*
X49890000Y-51920000D03*
D13*
X42270000Y-51920000D03*
D14*
X39730000Y-51920000D03*
X46000000Y-48110000D03*
D13*
X36000000Y-48110000D03*
D11*
X95460000Y-100080000D03*
X101810000Y-97540000D03*
D12*
X98000000Y-95000000D03*
D13*
X106890000Y-97540000D03*
D14*
X106890000Y-89920000D03*
D13*
X99270000Y-89920000D03*
D14*
X96730000Y-89920000D03*
X103000000Y-86110000D03*
D13*
X93000000Y-86110000D03*
D11*
X76460000Y-100080000D03*
X82810000Y-97540000D03*
D12*
X79000000Y-95000000D03*
D13*
X87890000Y-97540000D03*
D14*
X87890000Y-89920000D03*
D13*
X80270000Y-89920000D03*
D14*
X77730000Y-89920000D03*
X84000000Y-86110000D03*
D13*
X74000000Y-86110000D03*
D11*
X57460000Y-100080000D03*
X63810000Y-97540000D03*
D12*
X60000000Y-95000000D03*
D13*
X68890000Y-97540000D03*
D14*
X68890000Y-89920000D03*
D13*
X61270000Y-89920000D03*
D14*
X58730000Y-89920000D03*
X65000000Y-86110000D03*
D13*
X55000000Y-86110000D03*
D11*
X95460000Y-81080000D03*
X101810000Y-78540000D03*
D12*
X98000000Y-76000000D03*
D13*
X106890000Y-78540000D03*
D14*
X106890000Y-70920000D03*
D13*
X99270000Y-70920000D03*
D14*
X96730000Y-70920000D03*
X103000000Y-67110000D03*
D13*
X93000000Y-67110000D03*
D11*
X76460000Y-81080000D03*
X82810000Y-78540000D03*
D12*
X79000000Y-76000000D03*
D13*
X87890000Y-78540000D03*
D14*
X87890000Y-70920000D03*
D13*
X80270000Y-70920000D03*
D14*
X77730000Y-70920000D03*
X84000000Y-67110000D03*
D13*
X74000000Y-67110000D03*
D11*
X57460000Y-81080000D03*
X63810000Y-78540000D03*
D12*
X60000000Y-76000000D03*
D13*
X68890000Y-78540000D03*
D14*
X68890000Y-70920000D03*
D13*
X61270000Y-70920000D03*
D14*
X58730000Y-70920000D03*
X65000000Y-67110000D03*
D13*
X55000000Y-67110000D03*
D11*
X95460000Y-62080000D03*
X101810000Y-59540000D03*
D12*
X98000000Y-57000000D03*
D13*
X106890000Y-59540000D03*
D14*
X106890000Y-51920000D03*
D13*
X99270000Y-51920000D03*
D14*
X96730000Y-51920000D03*
X103000000Y-48110000D03*
D13*
X93000000Y-48110000D03*
D11*
X76460000Y-62080000D03*
X82810000Y-59540000D03*
D12*
X79000000Y-57000000D03*
D13*
X87890000Y-59540000D03*
D14*
X87890000Y-51920000D03*
D13*
X80270000Y-51920000D03*
D14*
X77730000Y-51920000D03*
X84000000Y-48110000D03*
D13*
X74000000Y-48110000D03*
D11*
X57460000Y-62080000D03*
X63810000Y-59540000D03*
D12*
X60000000Y-57000000D03*
D13*
X68890000Y-59540000D03*
D14*
X68890000Y-51920000D03*
D13*
X61270000Y-51920000D03*
D14*
X58730000Y-51920000D03*
X65000000Y-48110000D03*
D13*
X55000000Y-48110000D03*
D11*
X95460000Y-34080000D03*
X101810000Y-31540000D03*
D12*
X98000000Y-29000000D03*
D13*
X106890000Y-31540000D03*
D14*
X106890000Y-23920000D03*
D13*
X99270000Y-23920000D03*
D14*
X96730000Y-23920000D03*
X103000000Y-20110000D03*
D13*
X93000000Y-20110000D03*
D11*
X76460000Y-34080000D03*
X82810000Y-31540000D03*
D12*
X79000000Y-29000000D03*
D13*
X87890000Y-31540000D03*
D14*
X87890000Y-23920000D03*
D13*
X80270000Y-23920000D03*
D14*
X77730000Y-23920000D03*
X84000000Y-20110000D03*
D13*
X74000000Y-20110000D03*
D11*
X57460000Y-34080000D03*
X63810000Y-31540000D03*
D12*
X60000000Y-29000000D03*
D13*
X68890000Y-31540000D03*
D14*
X68890000Y-23920000D03*
D13*
X61270000Y-23920000D03*
D14*
X58730000Y-23920000D03*
X65000000Y-20110000D03*
D13*
X55000000Y-20110000D03*
D11*
X38460000Y-34080000D03*
X44810000Y-31540000D03*
D12*
X41000000Y-29000000D03*
D13*
X49890000Y-31540000D03*
D14*
X49890000Y-23920000D03*
D13*
X42270000Y-23920000D03*
D14*
X39730000Y-23920000D03*
X46000000Y-20110000D03*
D13*
X36000000Y-20110000D03*
D11*
X14460000Y-138080000D03*
X20810000Y-135540000D03*
D12*
X17000000Y-133000000D03*
D13*
X25890000Y-135540000D03*
D14*
X25890000Y-127920000D03*
D13*
X18270000Y-127920000D03*
D14*
X15730000Y-127920000D03*
X22000000Y-124110000D03*
D13*
X12000000Y-124110000D03*
D11*
X14460000Y-119080000D03*
X20810000Y-116540000D03*
D12*
X17000000Y-114000000D03*
D13*
X25890000Y-116540000D03*
D14*
X25890000Y-108920000D03*
D13*
X18270000Y-108920000D03*
D14*
X15730000Y-108920000D03*
X22000000Y-105110000D03*
D13*
X12000000Y-105110000D03*
D11*
X14460000Y-100080000D03*
X20810000Y-97540000D03*
D12*
X17000000Y-95000000D03*
D13*
X25890000Y-97540000D03*
D14*
X25890000Y-89920000D03*
D13*
X18270000Y-89920000D03*
D14*
X15730000Y-89920000D03*
X22000000Y-86110000D03*
D13*
X12000000Y-86110000D03*
D11*
X14460000Y-81080000D03*
X20810000Y-78540000D03*
D12*
X17000000Y-76000000D03*
D13*
X25890000Y-78540000D03*
D14*
X25890000Y-70920000D03*
D13*
X18270000Y-70920000D03*
D14*
X15730000Y-70920000D03*
X22000000Y-67110000D03*
D13*
X12000000Y-67110000D03*
D11*
X14460000Y-62080000D03*
X20810000Y-59540000D03*
D12*
X17000000Y-57000000D03*
D13*
X25890000Y-59540000D03*
D14*
X25890000Y-51920000D03*
D13*
X18270000Y-51920000D03*
D14*
X15730000Y-51920000D03*
X22000000Y-48110000D03*
D13*
X12000000Y-48110000D03*
D11*
X119460000Y-62080000D03*
X125810000Y-59540000D03*
D12*
X122000000Y-57000000D03*
D13*
X130890000Y-59540000D03*
D14*
X130890000Y-51920000D03*
D13*
X123270000Y-51920000D03*
D14*
X120730000Y-51920000D03*
X127000000Y-48110000D03*
D13*
X117000000Y-48110000D03*
D11*
X181460000Y-34080000D03*
X187810000Y-31540000D03*
D12*
X184000000Y-29000000D03*
D13*
X192890000Y-31540000D03*
D14*
X192890000Y-23920000D03*
D13*
X185270000Y-23920000D03*
D14*
X182730000Y-23920000D03*
X189000000Y-20110000D03*
D13*
X179000000Y-20110000D03*
D11*
X157460000Y-138080000D03*
X163810000Y-135540000D03*
D12*
X160000000Y-133000000D03*
D13*
X168890000Y-135540000D03*
D14*
X168890000Y-127920000D03*
D13*
X161270000Y-127920000D03*
D14*
X158730000Y-127920000D03*
X165000000Y-124110000D03*
D13*
X155000000Y-124110000D03*
D11*
X138460000Y-138080000D03*
X144810000Y-135540000D03*
D12*
X141000000Y-133000000D03*
D13*
X149890000Y-135540000D03*
D14*
X149890000Y-127920000D03*
D13*
X142270000Y-127920000D03*
D14*
X139730000Y-127920000D03*
X146000000Y-124110000D03*
D13*
X136000000Y-124110000D03*
D11*
X119460000Y-138080000D03*
X125810000Y-135540000D03*
D12*
X122000000Y-133000000D03*
D13*
X130890000Y-135540000D03*
D14*
X130890000Y-127920000D03*
D13*
X123270000Y-127920000D03*
D14*
X120730000Y-127920000D03*
X127000000Y-124110000D03*
D13*
X117000000Y-124110000D03*
D11*
X138460000Y-119080000D03*
X144810000Y-116540000D03*
D12*
X141000000Y-114000000D03*
D13*
X149890000Y-116540000D03*
D14*
X149890000Y-108920000D03*
D13*
X142270000Y-108920000D03*
D14*
X139730000Y-108920000D03*
X146000000Y-105110000D03*
D13*
X136000000Y-105110000D03*
D11*
X157460000Y-81080000D03*
X163810000Y-78540000D03*
D12*
X160000000Y-76000000D03*
D13*
X168890000Y-78540000D03*
D14*
X168890000Y-70920000D03*
D13*
X161270000Y-70920000D03*
D14*
X158730000Y-70920000D03*
X165000000Y-67110000D03*
D13*
X155000000Y-67110000D03*
D11*
X138460000Y-81080000D03*
X144810000Y-78540000D03*
D12*
X141000000Y-76000000D03*
D13*
X149890000Y-78540000D03*
D14*
X149890000Y-70920000D03*
D13*
X142270000Y-70920000D03*
D14*
X139730000Y-70920000D03*
X146000000Y-67110000D03*
D13*
X136000000Y-67110000D03*
D11*
X119460000Y-81080000D03*
X125810000Y-78540000D03*
D12*
X122000000Y-76000000D03*
D13*
X130890000Y-78540000D03*
D14*
X130890000Y-70920000D03*
D13*
X123270000Y-70920000D03*
D14*
X120730000Y-70920000D03*
X127000000Y-67110000D03*
D13*
X117000000Y-67110000D03*
D11*
X157460000Y-62080000D03*
X163810000Y-59540000D03*
D12*
X160000000Y-57000000D03*
D13*
X168890000Y-59540000D03*
D14*
X168890000Y-51920000D03*
D13*
X161270000Y-51920000D03*
D14*
X158730000Y-51920000D03*
X165000000Y-48110000D03*
D13*
X155000000Y-48110000D03*
D11*
X138460000Y-62080000D03*
X144810000Y-59540000D03*
D12*
X141000000Y-57000000D03*
D13*
X149890000Y-59540000D03*
D14*
X149890000Y-51920000D03*
D13*
X142270000Y-51920000D03*
D14*
X139730000Y-51920000D03*
X146000000Y-48110000D03*
D13*
X136000000Y-48110000D03*
D11*
X14460000Y-34080000D03*
X20810000Y-31540000D03*
D12*
X17000000Y-29000000D03*
D13*
X25890000Y-31540000D03*
D14*
X25890000Y-23920000D03*
D13*
X18270000Y-23920000D03*
D14*
X15730000Y-23920000D03*
X22000000Y-20110000D03*
D13*
X12000000Y-20110000D03*
D11*
X157460000Y-34080000D03*
X163810000Y-31540000D03*
D12*
X160000000Y-29000000D03*
D13*
X168890000Y-31540000D03*
D14*
X168890000Y-23920000D03*
D13*
X161270000Y-23920000D03*
D14*
X158730000Y-23920000D03*
X165000000Y-20110000D03*
D13*
X155000000Y-20110000D03*
D11*
X138460000Y-34080000D03*
X144810000Y-31540000D03*
D12*
X141000000Y-29000000D03*
D13*
X149890000Y-31540000D03*
D14*
X149890000Y-23920000D03*
D13*
X142270000Y-23920000D03*
D14*
X139730000Y-23920000D03*
X146000000Y-20110000D03*
D13*
X136000000Y-20110000D03*
D11*
X119460000Y-34080000D03*
X125810000Y-31540000D03*
D12*
X122000000Y-29000000D03*
D13*
X130890000Y-31540000D03*
D14*
X130890000Y-23920000D03*
D13*
X123270000Y-23920000D03*
D14*
X120730000Y-23920000D03*
X127000000Y-20110000D03*
D13*
X117000000Y-20110000D03*
D11*
X57460000Y-138080000D03*
X63810000Y-135540000D03*
D12*
X60000000Y-133000000D03*
D13*
X68890000Y-135540000D03*
D14*
X68890000Y-127920000D03*
D13*
X61270000Y-127920000D03*
D14*
X58730000Y-127920000D03*
X65000000Y-124110000D03*
D13*
X55000000Y-124110000D03*
D11*
X95460000Y-119080000D03*
X101810000Y-116540000D03*
D12*
X98000000Y-114000000D03*
D13*
X106890000Y-116540000D03*
D14*
X106890000Y-108920000D03*
D13*
X99270000Y-108920000D03*
D14*
X96730000Y-108920000D03*
X103000000Y-105110000D03*
D13*
X93000000Y-105110000D03*
D11*
X76460000Y-119080000D03*
X82810000Y-116540000D03*
D12*
X79000000Y-114000000D03*
D13*
X87890000Y-116540000D03*
D14*
X87890000Y-108920000D03*
D13*
X80270000Y-108920000D03*
D14*
X77730000Y-108920000D03*
X84000000Y-105110000D03*
D13*
X74000000Y-105110000D03*
D11*
X57460000Y-119080000D03*
X63810000Y-116540000D03*
D12*
X60000000Y-114000000D03*
D13*
X68890000Y-116540000D03*
D14*
X68890000Y-108920000D03*
D13*
X61270000Y-108920000D03*
D14*
X58730000Y-108920000D03*
X65000000Y-105110000D03*
D13*
X55000000Y-105110000D03*
D15*
X111995000Y-7500000D03*
X65005000Y-7500000D03*
D16*
X71863000Y-8897000D03*
D17*
X74657000Y-8897000D03*
X77451000Y-8897000D03*
X80245000Y-8897000D03*
X83039000Y-8897000D03*
X85706000Y-8897000D03*
X88500000Y-8897000D03*
X91294000Y-8897000D03*
X94088000Y-8897000D03*
X96882000Y-8897000D03*
X99549000Y-8897000D03*
X102343000Y-8897000D03*
X105137000Y-8897000D03*
X73260000Y-6103000D03*
X76054000Y-6103000D03*
X78848000Y-6103000D03*
X81515000Y-6103000D03*
X84309000Y-6103000D03*
X87103000Y-6103000D03*
X89897000Y-6103000D03*
X92691000Y-6103000D03*
X95358000Y-6103000D03*
X98152000Y-6103000D03*
X100946000Y-6103000D03*
X103740000Y-6103000D03*
D18*
X3500000Y-3500000D03*
X340000000Y-3500000D03*
X172000000Y-3500000D03*
X3500000Y-146500000D03*
X172000000Y-146500000D03*
X340000000Y-146500000D03*
X172000000Y-95000000D03*
D11*
X46080000Y-88040000D03*
X43540000Y-81690000D03*
D12*
X41000000Y-85500000D03*
D13*
X43540000Y-103500000D03*
D14*
X35920000Y-103500000D03*
D13*
X35920000Y-84230000D03*
D14*
X35920000Y-86770000D03*
X32110000Y-80500000D03*
D13*
X32110000Y-90500000D03*
D19*
X49240000Y-73600000D03*
D20*
X34000000Y-73600000D03*
D19*
X49240000Y-97400000D03*
D20*
X34000000Y-97400000D03*
D11*
X46080000Y-126040000D03*
X43540000Y-119690000D03*
D12*
X41000000Y-123500000D03*
D13*
X43540000Y-141500000D03*
D14*
X35920000Y-141500000D03*
D13*
X35920000Y-122230000D03*
D14*
X35920000Y-124770000D03*
X32110000Y-118500000D03*
D13*
X32110000Y-128500000D03*
D19*
X49240000Y-111600000D03*
D20*
X34000000Y-111600000D03*
D19*
X49240000Y-135400000D03*
D20*
X34000000Y-135400000D03*
D11*
X85960000Y-138080000D03*
X92310000Y-135540000D03*
D12*
X88500000Y-133000000D03*
D13*
X106500000Y-135540000D03*
D14*
X106500000Y-127920000D03*
D13*
X89770000Y-127920000D03*
D14*
X87230000Y-127920000D03*
X93500000Y-124110000D03*
D13*
X83500000Y-124110000D03*
D19*
X100400000Y-141240000D03*
D20*
X100400000Y-126000000D03*
D19*
X76600000Y-141240000D03*
D20*
X76600000Y-126000000D03*
D11*
X193335000Y-119080000D03*
X199685000Y-116540000D03*
D12*
X195875000Y-114000000D03*
D13*
X177875000Y-116540000D03*
D14*
X177875000Y-108920000D03*
D13*
X197145000Y-108920000D03*
D14*
X194605000Y-108920000D03*
X200875000Y-105110000D03*
D13*
X190875000Y-105110000D03*
D19*
X207775000Y-122240000D03*
D20*
X207775000Y-107000000D03*
D19*
X183975000Y-122240000D03*
D20*
X183975000Y-107000000D03*
D11*
X314460000Y-81080000D03*
X320810000Y-78540000D03*
D12*
X317000000Y-76000000D03*
D13*
X335000000Y-78540000D03*
D14*
X335000000Y-70920000D03*
D13*
X318270000Y-70920000D03*
D14*
X315730000Y-70920000D03*
X322000000Y-67110000D03*
D13*
X312000000Y-67110000D03*
D19*
X328900000Y-84240000D03*
D20*
X328900000Y-69000000D03*
D19*
X305100000Y-84240000D03*
D20*
X305100000Y-69000000D03*
D11*
X293085000Y-138080000D03*
X299435000Y-135540000D03*
D12*
X295625000Y-133000000D03*
D13*
X277625000Y-135540000D03*
D14*
X277625000Y-127920000D03*
D13*
X296895000Y-127920000D03*
D14*
X294355000Y-127920000D03*
X300625000Y-124110000D03*
D13*
X290625000Y-124110000D03*
D19*
X307525000Y-141240000D03*
D20*
X307525000Y-126000000D03*
D19*
X283725000Y-141240000D03*
D20*
X283725000Y-126000000D03*
D11*
X183835000Y-138080000D03*
X190185000Y-135540000D03*
D12*
X186375000Y-133000000D03*
D13*
X195265000Y-135540000D03*
D14*
X195265000Y-127920000D03*
D13*
X187645000Y-127920000D03*
D14*
X185105000Y-127920000D03*
X191375000Y-141890000D03*
D13*
X181375000Y-141890000D03*
D11*
X207585000Y-138080000D03*
X213935000Y-135540000D03*
D12*
X210125000Y-133000000D03*
D13*
X219015000Y-135540000D03*
D14*
X219015000Y-127920000D03*
D13*
X211395000Y-127920000D03*
D14*
X208855000Y-127920000D03*
X215125000Y-141890000D03*
D13*
X205125000Y-141890000D03*
D21*
X181460000Y-38000000D03*
X105000000Y-14000000D03*
X112000000Y-14000000D03*
X112000000Y-39000000D03*
X73000000Y-13000000D03*
X51500000Y-13500000D03*
X51500000Y-40000000D03*
X111500000Y-126500000D03*
X295500000Y-6000000D03*
X84500000Y-1000000D03*
X257500000Y-8000000D03*
X79000000Y-3000000D03*
X94000000Y-31500000D03*
X38000000Y-106000000D03*
X38500000Y-115000000D03*
X316000000Y-13000000D03*
X87000000Y-12500000D03*
X91500000Y-36000000D03*
X13500000Y-69000000D03*
X95500000Y-145500000D03*
X276000000Y-7000000D03*
X81500000Y-1500000D03*
X238500000Y-9000000D03*
X76000000Y-4000000D03*
X90000000Y-34000000D03*
X128500000Y-38000000D03*
X66500000Y-38000000D03*
X69000000Y-19000000D03*
X78000000Y-18500000D03*
X81500000Y-16000000D03*
X88500000Y-16000000D03*
X111000000Y-50000000D03*
X111000000Y-15000000D03*
X91500000Y-15000000D03*
X132500000Y-37000000D03*
X94500000Y-37000000D03*
X92500000Y-23000000D03*
X94000000Y-18000000D03*
X67000000Y-141500000D03*
X74000000Y-129000000D03*
X73500000Y-147500000D03*
X9000000Y-37000000D03*
X13000000Y-37000000D03*
X86000000Y-37000000D03*
X110000000Y-145500000D03*
X245500000Y-146000000D03*
X221500000Y-128000000D03*
X224500000Y-128000000D03*
X31000000Y-69000000D03*
X30500000Y-14500000D03*
X97000000Y-16000000D03*
X26000000Y-39000000D03*
X104000000Y-39000000D03*
X28000000Y-146500000D03*
X152500000Y-140000000D03*
X109500000Y-19500000D03*
X109500000Y-16000000D03*
X103500000Y-16000000D03*
X10500000Y-71000000D03*
X10500000Y-90000000D03*
X10500000Y-109000000D03*
X10500000Y-52000000D03*
X10500000Y-23500000D03*
X195000000Y-37000000D03*
X135500000Y-37000000D03*
X135000000Y-22500000D03*
X72000000Y-23920000D03*
X70500000Y-47500000D03*
X177000000Y-51500000D03*
X177500000Y-86000000D03*
X110500000Y-85500000D03*
X100945000Y-17055000D03*
X77500000Y-15000000D03*
X71000000Y-15000000D03*
X180000000Y-69500000D03*
X179500000Y-84500000D03*
X109500000Y-84000000D03*
X71000000Y-100000000D03*
X30500000Y-76500000D03*
X55000000Y-77000000D03*
X80000000Y-16000000D03*
X25500000Y-16000000D03*
D22*
X105137000Y-8897000D02*
X105137000Y-13863000D01*
X105000000Y-14000000D02*
X105137000Y-13863000D01*
X112000000Y-39000000D02*
X112000000Y-14000000D01*
X181460000Y-62080000D02*
X181080000Y-62080000D01*
X181460000Y-49040000D02*
X181460000Y-38000000D01*
X181460000Y-38000000D02*
X181460000Y-34080000D01*
X179000000Y-51500000D02*
X181460000Y-49040000D01*
X179000000Y-60000000D02*
X179000000Y-51500000D01*
X181080000Y-62080000D02*
X179000000Y-60000000D01*
X186210000Y-81080000D02*
X185580000Y-81080000D01*
X181460000Y-76960000D02*
X181460000Y-62080000D01*
X185580000Y-81080000D02*
X181460000Y-76960000D01*
X188585000Y-100080000D02*
X188580000Y-100080000D01*
X188500000Y-83370000D02*
X186210000Y-81080000D01*
X188500000Y-87500000D02*
X188500000Y-83370000D01*
X186000000Y-90000000D02*
X188500000Y-87500000D01*
X186000000Y-97500000D02*
X186000000Y-90000000D01*
X188580000Y-100080000D02*
X186000000Y-97500000D01*
X193335000Y-119080000D02*
X191580000Y-119080000D01*
X188585000Y-116085000D02*
X188585000Y-100080000D01*
X191580000Y-119080000D02*
X188585000Y-116085000D01*
X183835000Y-138080000D02*
X196920000Y-138080000D01*
X199000000Y-124745000D02*
X193335000Y-119080000D01*
X199000000Y-136000000D02*
X199000000Y-124745000D01*
X196920000Y-138080000D02*
X199000000Y-136000000D01*
X73260000Y-12740000D02*
X73260000Y-6103000D01*
X73000000Y-13000000D02*
X73260000Y-12740000D01*
X51500000Y-40000000D02*
X51500000Y-13500000D01*
X200460000Y-62080000D02*
X200080000Y-62080000D01*
X215920000Y-34080000D02*
X219460000Y-34080000D01*
X198000000Y-52000000D02*
X215920000Y-34080000D01*
X198000000Y-60000000D02*
X198000000Y-52000000D01*
X200080000Y-62080000D02*
X198000000Y-60000000D01*
X209960000Y-81080000D02*
X208080000Y-81080000D01*
X200460000Y-73460000D02*
X200460000Y-62080000D01*
X208080000Y-81080000D02*
X200460000Y-73460000D01*
X214710000Y-100080000D02*
X214080000Y-100080000D01*
X209960000Y-95960000D02*
X209960000Y-81080000D01*
X214080000Y-100080000D02*
X209960000Y-95960000D01*
X214710000Y-100080000D02*
X214710000Y-117500000D01*
X214710000Y-117500000D02*
X215000000Y-117500000D01*
X207585000Y-138080000D02*
X207585000Y-137585000D01*
X222630000Y-117500000D02*
X224210000Y-119080000D01*
X207500000Y-117500000D02*
X215000000Y-117500000D01*
X215000000Y-117500000D02*
X222630000Y-117500000D01*
X203000000Y-122000000D02*
X207500000Y-117500000D01*
X203000000Y-133000000D02*
X203000000Y-122000000D01*
X207585000Y-137585000D02*
X203000000Y-133000000D01*
X102343000Y-8897000D02*
X102343000Y-17343000D01*
X111500000Y-58000000D02*
X111500000Y-126500000D01*
X110000000Y-56500000D02*
X111500000Y-58000000D01*
X110000000Y-23000000D02*
X110000000Y-56500000D01*
X105000000Y-18000000D02*
X110000000Y-23000000D01*
X103000000Y-18000000D02*
X105000000Y-18000000D01*
X102343000Y-17343000D02*
X103000000Y-18000000D01*
X84309000Y-6103000D02*
X84309000Y-1191000D01*
X294000000Y-32620000D02*
X295460000Y-34080000D01*
X294000000Y-23000000D02*
X294000000Y-32620000D01*
X295500000Y-21500000D02*
X294000000Y-23000000D01*
X295500000Y-6000000D02*
X295500000Y-21500000D01*
X84309000Y-1191000D02*
X84500000Y-1000000D01*
X276460000Y-62080000D02*
X276460000Y-61960000D01*
X292420000Y-34080000D02*
X295460000Y-34080000D01*
X273500000Y-53000000D02*
X292420000Y-34080000D01*
X273500000Y-59000000D02*
X273500000Y-53000000D01*
X276460000Y-61960000D02*
X273500000Y-59000000D01*
X285960000Y-81080000D02*
X285080000Y-81080000D01*
X280500000Y-66120000D02*
X276460000Y-62080000D01*
X280500000Y-76500000D02*
X280500000Y-66120000D01*
X285080000Y-81080000D02*
X280500000Y-76500000D01*
X290710000Y-100080000D02*
X290710000Y-99710000D01*
X285960000Y-94960000D02*
X285960000Y-81080000D01*
X290710000Y-99710000D02*
X285960000Y-94960000D01*
X300210000Y-119080000D02*
X300210000Y-118210000D01*
X295000000Y-104370000D02*
X290710000Y-100080000D01*
X295000000Y-113000000D02*
X295000000Y-104370000D01*
X300210000Y-118210000D02*
X295000000Y-113000000D01*
X323960000Y-138080000D02*
X323960000Y-135960000D01*
X307080000Y-119080000D02*
X300210000Y-119080000D01*
X323960000Y-135960000D02*
X307080000Y-119080000D01*
X78848000Y-6103000D02*
X78848000Y-3152000D01*
X256000000Y-32620000D02*
X257460000Y-34080000D01*
X256000000Y-22500000D02*
X256000000Y-32620000D01*
X257500000Y-21000000D02*
X256000000Y-22500000D01*
X257500000Y-8000000D02*
X257500000Y-21000000D01*
X78848000Y-3152000D02*
X79000000Y-3000000D01*
X238460000Y-62080000D02*
X237580000Y-62080000D01*
X253420000Y-34080000D02*
X257460000Y-34080000D01*
X236000000Y-51500000D02*
X253420000Y-34080000D01*
X236000000Y-60500000D02*
X236000000Y-51500000D01*
X237580000Y-62080000D02*
X236000000Y-60500000D01*
X247960000Y-81080000D02*
X247960000Y-80960000D01*
X243000000Y-66620000D02*
X238460000Y-62080000D01*
X243000000Y-76000000D02*
X243000000Y-66620000D01*
X247960000Y-80960000D02*
X243000000Y-76000000D01*
X252710000Y-100080000D02*
X251080000Y-100080000D01*
X247960000Y-96960000D02*
X247960000Y-81080000D01*
X251080000Y-100080000D02*
X247960000Y-96960000D01*
X262210000Y-119080000D02*
X262210000Y-118710000D01*
X257000000Y-104370000D02*
X252710000Y-100080000D01*
X257000000Y-113500000D02*
X257000000Y-104370000D01*
X262210000Y-118710000D02*
X257000000Y-113500000D01*
X257460000Y-138080000D02*
X257460000Y-137460000D01*
X255000000Y-126290000D02*
X262210000Y-119080000D01*
X255000000Y-135000000D02*
X255000000Y-126290000D01*
X257460000Y-137460000D02*
X255000000Y-135000000D01*
X95358000Y-6103000D02*
X95358000Y-20858000D01*
X94000000Y-22216000D02*
X94000000Y-31500000D01*
X95358000Y-20858000D02*
X94000000Y-22216000D01*
X38000000Y-114500000D02*
X38000000Y-106000000D01*
X38500000Y-115000000D02*
X38000000Y-114500000D01*
X138460000Y-62080000D02*
X138460000Y-60960000D01*
X138460000Y-49040000D02*
X138460000Y-34080000D01*
X137000000Y-50500000D02*
X138460000Y-49040000D01*
X137000000Y-59500000D02*
X137000000Y-50500000D01*
X138460000Y-60960000D02*
X137000000Y-59500000D01*
X76460000Y-62080000D02*
X76460000Y-60460000D01*
X76460000Y-49040000D02*
X76460000Y-34080000D01*
X75500000Y-50000000D02*
X76460000Y-49040000D01*
X75500000Y-59500000D02*
X75500000Y-50000000D01*
X76460000Y-60460000D02*
X75500000Y-59500000D01*
X138460000Y-62080000D02*
X138460000Y-67960000D01*
X137000000Y-79620000D02*
X138460000Y-81080000D01*
X137000000Y-69420000D02*
X137000000Y-79620000D01*
X138460000Y-67960000D02*
X137000000Y-69420000D01*
X76460000Y-81080000D02*
X76460000Y-80960000D01*
X76460000Y-68040000D02*
X76460000Y-62080000D01*
X75000000Y-69500000D02*
X76460000Y-68040000D01*
X75000000Y-79500000D02*
X75000000Y-69500000D01*
X76460000Y-80960000D02*
X75000000Y-79500000D01*
X76460000Y-100080000D02*
X76460000Y-99460000D01*
X76460000Y-87540000D02*
X76460000Y-81080000D01*
X75000000Y-89000000D02*
X76460000Y-87540000D01*
X75000000Y-98000000D02*
X75000000Y-89000000D01*
X76460000Y-99460000D02*
X75000000Y-98000000D01*
X76460000Y-119080000D02*
X76080000Y-119080000D01*
X76460000Y-106040000D02*
X76460000Y-100080000D01*
X74500000Y-108000000D02*
X76460000Y-106040000D01*
X74500000Y-117500000D02*
X74500000Y-108000000D01*
X76080000Y-119080000D02*
X74500000Y-117500000D01*
X85960000Y-138080000D02*
X85580000Y-138080000D01*
X80500000Y-123120000D02*
X76460000Y-119080000D01*
X80500000Y-133000000D02*
X80500000Y-123120000D01*
X85580000Y-138080000D02*
X80500000Y-133000000D01*
X138460000Y-119080000D02*
X138460000Y-117960000D01*
X138460000Y-106040000D02*
X138460000Y-81080000D01*
X137000000Y-107500000D02*
X138460000Y-106040000D01*
X137000000Y-116500000D02*
X137000000Y-107500000D01*
X138460000Y-117960000D02*
X137000000Y-116500000D01*
X138460000Y-138080000D02*
X138460000Y-135960000D01*
X138460000Y-135960000D02*
X137000000Y-134500000D01*
X137000000Y-134500000D02*
X137000000Y-127000000D01*
X137000000Y-127000000D02*
X138460000Y-125540000D01*
X138460000Y-125540000D02*
X138460000Y-119080000D01*
X87103000Y-6103000D02*
X87103000Y-12397000D01*
X319000000Y-29120000D02*
X323960000Y-34080000D01*
X319000000Y-16000000D02*
X319000000Y-29120000D01*
X316000000Y-13000000D02*
X319000000Y-16000000D01*
X87103000Y-12397000D02*
X87000000Y-12500000D01*
X319210000Y-62080000D02*
X319210000Y-61710000D01*
X323960000Y-45540000D02*
X323960000Y-34080000D01*
X317000000Y-52500000D02*
X323960000Y-45540000D01*
X317000000Y-59500000D02*
X317000000Y-52500000D01*
X319210000Y-61710000D02*
X317000000Y-59500000D01*
X312020000Y-83520000D02*
X312020000Y-70020000D01*
X319210000Y-62830000D02*
X319210000Y-62080000D01*
X312020000Y-70020000D02*
X319210000Y-62830000D01*
X316835000Y-100080000D02*
X316835000Y-99835000D01*
X312000000Y-83540000D02*
X312020000Y-83520000D01*
X312020000Y-83520000D02*
X314460000Y-81080000D01*
X312000000Y-95000000D02*
X312000000Y-83540000D01*
X316835000Y-99835000D02*
X312000000Y-95000000D01*
X321585000Y-119080000D02*
X320580000Y-119080000D01*
X316835000Y-115335000D02*
X316835000Y-100080000D01*
X320580000Y-119080000D02*
X316835000Y-115335000D01*
X92691000Y-6103000D02*
X92691000Y-17809000D01*
X91500000Y-21500000D02*
X91500000Y-36000000D01*
X91500000Y-19000000D02*
X91500000Y-21500000D01*
X92691000Y-17809000D02*
X91500000Y-19000000D01*
X57460000Y-119080000D02*
X57460000Y-124960000D01*
X55500000Y-136120000D02*
X57460000Y-138080000D01*
X55500000Y-126920000D02*
X55500000Y-136120000D01*
X57460000Y-124960000D02*
X55500000Y-126920000D01*
X57460000Y-100080000D02*
X57460000Y-106040000D01*
X55500000Y-117120000D02*
X57460000Y-119080000D01*
X55500000Y-108000000D02*
X55500000Y-117120000D01*
X57460000Y-106040000D02*
X55500000Y-108000000D01*
X57460000Y-100080000D02*
X57080000Y-100080000D01*
X57460000Y-87040000D02*
X57460000Y-81080000D01*
X56000000Y-88500000D02*
X57460000Y-87040000D01*
X56000000Y-99000000D02*
X56000000Y-88500000D01*
X57080000Y-100080000D02*
X56000000Y-99000000D01*
X119460000Y-62080000D02*
X119460000Y-68460000D01*
X118000000Y-79620000D02*
X119460000Y-81080000D01*
X118000000Y-69920000D02*
X118000000Y-79620000D01*
X119460000Y-68460000D02*
X118000000Y-69920000D01*
X119460000Y-34080000D02*
X119460000Y-49460000D01*
X118000000Y-60620000D02*
X119460000Y-62080000D01*
X118000000Y-50920000D02*
X118000000Y-60620000D01*
X119460000Y-49460000D02*
X118000000Y-50920000D01*
X14460000Y-62080000D02*
X14460000Y-68040000D01*
X14460000Y-68040000D02*
X13500000Y-69000000D01*
X98152000Y-6103000D02*
X98152000Y-19848000D01*
X95000000Y-33620000D02*
X95460000Y-34080000D01*
X95000000Y-23000000D02*
X95000000Y-33620000D01*
X98152000Y-19848000D02*
X95000000Y-23000000D01*
X157460000Y-62080000D02*
X157460000Y-59960000D01*
X157460000Y-49040000D02*
X157460000Y-34080000D01*
X156000000Y-50500000D02*
X157460000Y-49040000D01*
X156000000Y-58500000D02*
X156000000Y-50500000D01*
X157460000Y-59960000D02*
X156000000Y-58500000D01*
X95460000Y-119080000D02*
X95460000Y-145460000D01*
X95460000Y-145460000D02*
X95500000Y-145500000D01*
X14460000Y-119080000D02*
X14460000Y-124460000D01*
X14460000Y-124460000D02*
X13500000Y-125420000D01*
X13500000Y-125420000D02*
X13500000Y-137120000D01*
X13500000Y-137120000D02*
X14460000Y-138080000D01*
X95460000Y-62080000D02*
X95460000Y-60460000D01*
X95460000Y-60460000D02*
X94000000Y-59000000D01*
X94000000Y-59000000D02*
X94000000Y-50000000D01*
X94000000Y-50000000D02*
X95460000Y-48540000D01*
X95460000Y-48540000D02*
X95460000Y-34080000D01*
X95460000Y-81080000D02*
X95460000Y-79960000D01*
X95460000Y-67540000D02*
X95460000Y-62080000D01*
X94000000Y-69000000D02*
X95460000Y-67540000D01*
X94000000Y-78500000D02*
X94000000Y-69000000D01*
X95460000Y-79960000D02*
X94000000Y-78500000D01*
X95460000Y-100080000D02*
X95460000Y-98460000D01*
X95460000Y-87040000D02*
X95460000Y-81080000D01*
X94000000Y-88500000D02*
X95460000Y-87040000D01*
X94000000Y-97000000D02*
X94000000Y-88500000D01*
X95460000Y-98460000D02*
X94000000Y-97000000D01*
X95460000Y-119080000D02*
X95460000Y-118960000D01*
X95460000Y-106040000D02*
X95460000Y-100080000D01*
X94000000Y-107500000D02*
X95460000Y-106040000D01*
X94000000Y-117500000D02*
X94000000Y-107500000D01*
X95460000Y-118960000D02*
X94000000Y-117500000D01*
X157460000Y-81080000D02*
X157460000Y-125540000D01*
X156000000Y-136620000D02*
X157460000Y-138080000D01*
X156000000Y-127000000D02*
X156000000Y-136620000D01*
X157460000Y-125540000D02*
X156000000Y-127000000D01*
X157460000Y-62080000D02*
X157460000Y-68460000D01*
X156000000Y-79620000D02*
X157460000Y-81080000D01*
X156000000Y-69920000D02*
X156000000Y-79620000D01*
X157460000Y-68460000D02*
X156000000Y-69920000D01*
X81515000Y-6103000D02*
X81515000Y-1515000D01*
X275000000Y-32620000D02*
X276460000Y-34080000D01*
X275000000Y-23000000D02*
X275000000Y-32620000D01*
X276500000Y-21500000D02*
X275000000Y-23000000D01*
X276500000Y-7500000D02*
X276500000Y-21500000D01*
X276000000Y-7000000D02*
X276500000Y-7500000D01*
X81515000Y-1515000D02*
X81500000Y-1500000D01*
X257460000Y-62080000D02*
X256580000Y-62080000D01*
X272420000Y-34080000D02*
X276460000Y-34080000D01*
X255000000Y-51500000D02*
X272420000Y-34080000D01*
X255000000Y-60500000D02*
X255000000Y-51500000D01*
X256580000Y-62080000D02*
X255000000Y-60500000D01*
X266960000Y-81080000D02*
X266960000Y-80960000D01*
X262000000Y-66620000D02*
X257460000Y-62080000D01*
X262000000Y-76000000D02*
X262000000Y-66620000D01*
X266960000Y-80960000D02*
X262000000Y-76000000D01*
X271710000Y-100080000D02*
X271080000Y-100080000D01*
X266960000Y-95960000D02*
X266960000Y-81080000D01*
X271080000Y-100080000D02*
X266960000Y-95960000D01*
X281210000Y-119080000D02*
X281080000Y-119080000D01*
X276000000Y-104370000D02*
X271710000Y-100080000D01*
X276000000Y-114000000D02*
X276000000Y-104370000D01*
X281080000Y-119080000D02*
X276000000Y-114000000D01*
X293085000Y-138080000D02*
X287580000Y-138080000D01*
X281210000Y-131710000D02*
X281210000Y-119080000D01*
X287580000Y-138080000D02*
X281210000Y-131710000D01*
X76054000Y-6103000D02*
X76054000Y-4054000D01*
X238460000Y-32460000D02*
X238460000Y-34080000D01*
X237000000Y-31000000D02*
X238460000Y-32460000D01*
X237000000Y-23000000D02*
X237000000Y-31000000D01*
X238500000Y-21500000D02*
X237000000Y-23000000D01*
X238500000Y-9000000D02*
X238500000Y-21500000D01*
X76054000Y-4054000D02*
X76000000Y-4000000D01*
X219460000Y-62080000D02*
X219460000Y-61960000D01*
X234920000Y-34080000D02*
X238460000Y-34080000D01*
X217000000Y-52000000D02*
X234920000Y-34080000D01*
X217000000Y-59500000D02*
X217000000Y-52000000D01*
X219460000Y-61960000D02*
X217000000Y-59500000D01*
X228960000Y-81080000D02*
X228080000Y-81080000D01*
X224000000Y-66620000D02*
X219460000Y-62080000D01*
X224000000Y-77000000D02*
X224000000Y-66620000D01*
X228080000Y-81080000D02*
X224000000Y-77000000D01*
X233710000Y-100080000D02*
X233710000Y-99210000D01*
X228960000Y-94460000D02*
X228960000Y-81080000D01*
X233710000Y-99210000D02*
X228960000Y-94460000D01*
X243210000Y-119080000D02*
X243210000Y-118210000D01*
X238000000Y-104370000D02*
X233710000Y-100080000D01*
X238000000Y-113000000D02*
X238000000Y-104370000D01*
X243210000Y-118210000D02*
X238000000Y-113000000D01*
X231335000Y-138080000D02*
X231335000Y-137335000D01*
X237920000Y-119080000D02*
X243210000Y-119080000D01*
X228500000Y-128500000D02*
X237920000Y-119080000D01*
X228500000Y-134500000D02*
X228500000Y-128500000D01*
X231335000Y-137335000D02*
X228500000Y-134500000D01*
X89897000Y-6103000D02*
X89897000Y-33897000D01*
X89897000Y-33897000D02*
X90000000Y-34000000D01*
X46080000Y-88040000D02*
X46080000Y-126040000D01*
X38460000Y-62080000D02*
X38460000Y-60460000D01*
X38460000Y-48540000D02*
X38460000Y-34080000D01*
X37000000Y-50000000D02*
X38460000Y-48540000D01*
X37000000Y-59000000D02*
X37000000Y-50000000D01*
X38460000Y-60460000D02*
X37000000Y-59000000D01*
X46080000Y-88040000D02*
X46080000Y-69700000D01*
X46080000Y-69700000D02*
X38460000Y-62080000D01*
X88500000Y-8897000D02*
X88500000Y-16000000D01*
X130890000Y-25110000D02*
X130890000Y-23920000D01*
X128500000Y-27500000D02*
X130890000Y-25110000D01*
X128500000Y-38000000D02*
X128500000Y-27500000D01*
X66500000Y-21500000D02*
X66500000Y-38000000D01*
X69000000Y-19000000D02*
X66500000Y-21500000D01*
X80500000Y-18500000D02*
X78000000Y-18500000D01*
X81500000Y-17500000D02*
X80500000Y-18500000D01*
X81500000Y-16000000D02*
X81500000Y-17500000D01*
X91294000Y-8897000D02*
X91294000Y-14794000D01*
X111000000Y-15000000D02*
X111000000Y-50000000D01*
X91294000Y-14794000D02*
X91500000Y-15000000D01*
X94088000Y-8897000D02*
X94088000Y-17912000D01*
X133000000Y-68810000D02*
X130890000Y-70920000D01*
X133000000Y-37500000D02*
X133000000Y-68810000D01*
X132500000Y-37000000D02*
X133000000Y-37500000D01*
X94500000Y-36500000D02*
X94500000Y-37000000D01*
X92500000Y-34500000D02*
X94500000Y-36500000D01*
X92500000Y-23000000D02*
X92500000Y-34500000D01*
X94088000Y-17912000D02*
X94000000Y-18000000D01*
X83039000Y-8897000D02*
X83039000Y-17961000D01*
X89500000Y-107310000D02*
X87890000Y-108920000D01*
X89500000Y-50000000D02*
X89500000Y-107310000D01*
X85000000Y-45500000D02*
X89500000Y-50000000D01*
X85000000Y-25500000D02*
X85000000Y-45500000D01*
X82000000Y-22500000D02*
X85000000Y-25500000D01*
X82000000Y-19000000D02*
X82000000Y-22500000D01*
X83039000Y-17961000D02*
X82000000Y-19000000D01*
X68890000Y-108920000D02*
X68890000Y-112390000D01*
X71000000Y-137500000D02*
X67000000Y-141500000D01*
X71000000Y-114500000D02*
X71000000Y-137500000D01*
X68890000Y-112390000D02*
X71000000Y-114500000D01*
X85706000Y-8897000D02*
X85706000Y-17794000D01*
X74000000Y-147000000D02*
X74000000Y-129000000D01*
X73500000Y-147500000D02*
X74000000Y-147000000D01*
X13000000Y-37000000D02*
X9000000Y-37000000D01*
X86000000Y-37500000D02*
X86000000Y-37000000D01*
X86000000Y-18088000D02*
X86000000Y-37500000D01*
X85706000Y-17794000D02*
X86000000Y-18088000D01*
X242765000Y-127920000D02*
X242765000Y-130765000D01*
X109500000Y-130920000D02*
X106500000Y-127920000D01*
X109500000Y-145000000D02*
X109500000Y-130920000D01*
X110000000Y-145500000D02*
X109500000Y-145000000D01*
X245500000Y-133500000D02*
X245500000Y-146000000D01*
X242765000Y-130765000D02*
X245500000Y-133500000D01*
X224500000Y-128000000D02*
X221500000Y-128000000D01*
X96882000Y-8897000D02*
X96882000Y-15882000D01*
X31000000Y-15000000D02*
X31000000Y-69000000D01*
X30500000Y-14500000D02*
X31000000Y-15000000D01*
X96882000Y-15882000D02*
X97000000Y-16000000D01*
X27985000Y-92015000D02*
X27985000Y-73015000D01*
X27985000Y-73015000D02*
X25890000Y-70920000D01*
X25890000Y-108920000D02*
X25890000Y-101110000D01*
X28000000Y-92030000D02*
X27985000Y-92015000D01*
X27985000Y-92015000D02*
X25890000Y-89920000D01*
X28000000Y-99000000D02*
X28000000Y-92030000D01*
X25890000Y-101110000D02*
X28000000Y-99000000D01*
X99549000Y-8897000D02*
X99549000Y-21049000D01*
X25890000Y-39110000D02*
X25890000Y-51920000D01*
X26000000Y-39000000D02*
X25890000Y-39110000D01*
X104000000Y-25500000D02*
X104000000Y-39000000D01*
X99549000Y-21049000D02*
X104000000Y-25500000D01*
X25890000Y-127920000D02*
X25890000Y-124610000D01*
X29000000Y-55030000D02*
X25890000Y-51920000D01*
X29000000Y-121500000D02*
X29000000Y-55030000D01*
X25890000Y-124610000D02*
X29000000Y-121500000D01*
X149890000Y-108920000D02*
X149890000Y-113390000D01*
X26420000Y-127920000D02*
X25890000Y-127920000D01*
X28000000Y-129500000D02*
X26420000Y-127920000D01*
X28000000Y-146500000D02*
X28000000Y-129500000D01*
X152500000Y-116000000D02*
X152500000Y-140000000D01*
X149890000Y-113390000D02*
X152500000Y-116000000D01*
X109500000Y-19500000D02*
X109500000Y-16000000D01*
X103740000Y-15760000D02*
X103740000Y-6103000D01*
X103500000Y-16000000D02*
X103740000Y-15760000D01*
X15730000Y-70920000D02*
X10580000Y-70920000D01*
X10580000Y-70920000D02*
X10500000Y-71000000D01*
X15730000Y-89920000D02*
X10580000Y-89920000D01*
X10580000Y-89920000D02*
X10500000Y-90000000D01*
X15730000Y-108920000D02*
X10580000Y-108920000D01*
X10580000Y-108920000D02*
X10500000Y-109000000D01*
X15730000Y-23920000D02*
X10920000Y-23920000D01*
X10580000Y-51920000D02*
X15730000Y-51920000D01*
X10500000Y-52000000D02*
X10580000Y-51920000D01*
X10920000Y-23920000D02*
X10500000Y-23500000D01*
X192890000Y-24390000D02*
X192890000Y-23920000D01*
X195000000Y-26500000D02*
X192890000Y-24390000D01*
X195000000Y-37000000D02*
X195000000Y-26500000D01*
X135500000Y-23000000D02*
X135500000Y-37000000D01*
X135000000Y-22500000D02*
X135500000Y-23000000D01*
X71863000Y-8897000D02*
X71863000Y-23783000D01*
X71863000Y-23783000D02*
X72000000Y-23920000D01*
X74657000Y-8897000D02*
X74657000Y-17657000D01*
X73500000Y-44500000D02*
X70500000Y-47500000D01*
X73500000Y-24000000D02*
X73500000Y-44500000D01*
X76000000Y-21500000D02*
X73500000Y-24000000D01*
X76000000Y-19000000D02*
X76000000Y-21500000D01*
X74657000Y-17657000D02*
X76000000Y-19000000D01*
X106890000Y-51920000D02*
X106890000Y-54890000D01*
X177000000Y-85500000D02*
X177000000Y-51500000D01*
X177500000Y-86000000D02*
X177000000Y-85500000D01*
X110500000Y-58500000D02*
X110500000Y-85500000D01*
X106890000Y-54890000D02*
X110500000Y-58500000D01*
X100946000Y-17054000D02*
X100946000Y-6103000D01*
X100945000Y-17055000D02*
X100946000Y-17054000D01*
X68890000Y-70920000D02*
X68890000Y-64610000D01*
X77451000Y-14951000D02*
X77451000Y-8897000D01*
X77500000Y-15000000D02*
X77451000Y-14951000D01*
X71000000Y-32500000D02*
X71000000Y-15000000D01*
X68500000Y-35000000D02*
X71000000Y-32500000D01*
X68500000Y-48500000D02*
X68500000Y-35000000D01*
X71500000Y-51500000D02*
X68500000Y-48500000D01*
X71500000Y-62000000D02*
X71500000Y-51500000D01*
X68890000Y-64610000D02*
X71500000Y-62000000D01*
X106890000Y-70920000D02*
X106890000Y-74390000D01*
X180000000Y-84000000D02*
X180000000Y-69500000D01*
X179500000Y-84500000D02*
X180000000Y-84000000D01*
X109500000Y-77000000D02*
X109500000Y-84000000D01*
X106890000Y-74390000D02*
X109500000Y-77000000D01*
X68890000Y-71890000D02*
X68890000Y-70920000D01*
X71000000Y-74000000D02*
X68890000Y-71890000D01*
X71000000Y-100000000D02*
X71000000Y-74000000D01*
X68890000Y-89920000D02*
X68890000Y-85890000D01*
X30000000Y-28030000D02*
X25890000Y-23920000D01*
X30000000Y-76000000D02*
X30000000Y-28030000D01*
X30500000Y-76500000D02*
X30000000Y-76000000D01*
X56500000Y-77000000D02*
X55000000Y-77000000D01*
X61500000Y-82000000D02*
X56500000Y-77000000D01*
X65000000Y-82000000D02*
X61500000Y-82000000D01*
X68890000Y-85890000D02*
X65000000Y-82000000D01*
X80245000Y-8897000D02*
X80245000Y-15755000D01*
X80245000Y-15755000D02*
X80000000Y-16000000D01*
X25500000Y-16000000D02*
X25890000Y-16390000D01*
X25890000Y-16390000D02*
X25890000Y-23920000D01*
M02*
