G04 #@! TF.FileFunction,Copper,L1,Top,Signal*
%FSLAX46Y46*%
G04 Gerber Fmt 4.6, Leading zero omitted, Abs format (unit mm)*
G04 Created by KiCad (PCBNEW 4.0.7) date 01/13/18 22:59:49*
%MOMM*%
%LPD*%
G01*
G04 APERTURE LIST*
%ADD10C,0.100000*%
%ADD11C,3.810000*%
%ADD12R,1.524000X1.524000*%
%ADD13C,1.524000*%
%ADD14C,2.286000*%
%ADD15C,3.987800*%
%ADD16C,1.651000*%
%ADD17R,1.651000X1.651000*%
%ADD18C,4.000000*%
%ADD19C,3.050000*%
%ADD20C,2.400000*%
%ADD21C,0.600000*%
%ADD22C,0.250000*%
G04 APERTURE END LIST*
D10*
D11*
X7500000Y-21005000D03*
X7500000Y-67995000D03*
D12*
X8897000Y-61137000D03*
D13*
X8897000Y-58343000D03*
X8897000Y-55549000D03*
X8897000Y-52755000D03*
X8897000Y-49961000D03*
X8897000Y-47294000D03*
X8897000Y-44500000D03*
X8897000Y-41706000D03*
X8897000Y-38912000D03*
X8897000Y-36118000D03*
X8897000Y-33451000D03*
X8897000Y-30657000D03*
X8897000Y-27863000D03*
X6103000Y-59740000D03*
X6103000Y-56946000D03*
X6103000Y-54152000D03*
X6103000Y-51485000D03*
X6103000Y-48691000D03*
X6103000Y-45897000D03*
X6103000Y-43103000D03*
X6103000Y-40309000D03*
X6103000Y-37642000D03*
X6103000Y-34848000D03*
X6103000Y-32054000D03*
X6103000Y-29260000D03*
D14*
X26460000Y-22080000D03*
X32810000Y-19540000D03*
D15*
X29000000Y-17000000D03*
D16*
X37890000Y-19540000D03*
D17*
X37890000Y-11920000D03*
D16*
X30270000Y-11920000D03*
D17*
X27730000Y-11920000D03*
X34000000Y-8110000D03*
D16*
X24000000Y-8110000D03*
D14*
X64460000Y-22080000D03*
X70810000Y-19540000D03*
D15*
X67000000Y-17000000D03*
D16*
X75890000Y-19540000D03*
D17*
X75890000Y-11920000D03*
D16*
X68270000Y-11920000D03*
D17*
X65730000Y-11920000D03*
X72000000Y-8110000D03*
D16*
X62000000Y-8110000D03*
D14*
X83460000Y-22080000D03*
X89810000Y-19540000D03*
D15*
X86000000Y-17000000D03*
D16*
X94890000Y-19540000D03*
D17*
X94890000Y-11920000D03*
D16*
X87270000Y-11920000D03*
D17*
X84730000Y-11920000D03*
X91000000Y-8110000D03*
D16*
X81000000Y-8110000D03*
D14*
X102460000Y-22080000D03*
X108810000Y-19540000D03*
D15*
X105000000Y-17000000D03*
D16*
X113890000Y-19540000D03*
D17*
X113890000Y-11920000D03*
D16*
X106270000Y-11920000D03*
D17*
X103730000Y-11920000D03*
X110000000Y-8110000D03*
D16*
X100000000Y-8110000D03*
D14*
X121460000Y-22080000D03*
X127810000Y-19540000D03*
D15*
X124000000Y-17000000D03*
D16*
X132890000Y-19540000D03*
D17*
X132890000Y-11920000D03*
D16*
X125270000Y-11920000D03*
D17*
X122730000Y-11920000D03*
X129000000Y-8110000D03*
D16*
X119000000Y-8110000D03*
D14*
X140460000Y-22080000D03*
X146810000Y-19540000D03*
D15*
X143000000Y-17000000D03*
D16*
X151890000Y-19540000D03*
D17*
X151890000Y-11920000D03*
D16*
X144270000Y-11920000D03*
D17*
X141730000Y-11920000D03*
X148000000Y-8110000D03*
D16*
X138000000Y-8110000D03*
D14*
X45460000Y-50080000D03*
X51810000Y-47540000D03*
D15*
X48000000Y-45000000D03*
D16*
X56890000Y-47540000D03*
D17*
X56890000Y-39920000D03*
D16*
X49270000Y-39920000D03*
D17*
X46730000Y-39920000D03*
X53000000Y-36110000D03*
D16*
X43000000Y-36110000D03*
D14*
X64460000Y-50080000D03*
X70810000Y-47540000D03*
D15*
X67000000Y-45000000D03*
D16*
X75890000Y-47540000D03*
D17*
X75890000Y-39920000D03*
D16*
X68270000Y-39920000D03*
D17*
X65730000Y-39920000D03*
X72000000Y-36110000D03*
D16*
X62000000Y-36110000D03*
D14*
X83460000Y-50080000D03*
X89810000Y-47540000D03*
D15*
X86000000Y-45000000D03*
D16*
X94890000Y-47540000D03*
D17*
X94890000Y-39920000D03*
D16*
X87270000Y-39920000D03*
D17*
X84730000Y-39920000D03*
X91000000Y-36110000D03*
D16*
X81000000Y-36110000D03*
D14*
X102460000Y-50080000D03*
X108810000Y-47540000D03*
D15*
X105000000Y-45000000D03*
D16*
X113890000Y-47540000D03*
D17*
X113890000Y-39920000D03*
D16*
X106270000Y-39920000D03*
D17*
X103730000Y-39920000D03*
X110000000Y-36110000D03*
D16*
X100000000Y-36110000D03*
D14*
X121460000Y-50080000D03*
X127810000Y-47540000D03*
D15*
X124000000Y-45000000D03*
D16*
X132890000Y-47540000D03*
D17*
X132890000Y-39920000D03*
D16*
X125270000Y-39920000D03*
D17*
X122730000Y-39920000D03*
X129000000Y-36110000D03*
D16*
X119000000Y-36110000D03*
D14*
X140460000Y-50080000D03*
X146810000Y-47540000D03*
D15*
X143000000Y-45000000D03*
D16*
X151890000Y-47540000D03*
D17*
X151890000Y-39920000D03*
D16*
X144270000Y-39920000D03*
D17*
X141730000Y-39920000D03*
X148000000Y-36110000D03*
D16*
X138000000Y-36110000D03*
D14*
X59710000Y-88080000D03*
X66060000Y-85540000D03*
D15*
X62250000Y-83000000D03*
D16*
X71140000Y-85540000D03*
D17*
X71140000Y-77920000D03*
D16*
X63520000Y-77920000D03*
D17*
X60980000Y-77920000D03*
X67250000Y-74110000D03*
D16*
X57250000Y-74110000D03*
D14*
X145210000Y-107080000D03*
X151560000Y-104540000D03*
D15*
X147750000Y-102000000D03*
D16*
X156640000Y-104540000D03*
D17*
X156640000Y-96920000D03*
D16*
X149020000Y-96920000D03*
D17*
X146480000Y-96920000D03*
X152750000Y-93110000D03*
D16*
X142750000Y-93110000D03*
D14*
X107210000Y-107080000D03*
X113560000Y-104540000D03*
D15*
X109750000Y-102000000D03*
D16*
X118640000Y-104540000D03*
D17*
X118640000Y-96920000D03*
D16*
X111020000Y-96920000D03*
D17*
X108480000Y-96920000D03*
X114750000Y-93110000D03*
D16*
X104750000Y-93110000D03*
D14*
X97710000Y-88080000D03*
X104060000Y-85540000D03*
D15*
X100250000Y-83000000D03*
D16*
X109140000Y-85540000D03*
D17*
X109140000Y-77920000D03*
D16*
X101520000Y-77920000D03*
D17*
X98980000Y-77920000D03*
X105250000Y-74110000D03*
D16*
X95250000Y-74110000D03*
D14*
X92960000Y-69080000D03*
X99310000Y-66540000D03*
D15*
X95500000Y-64000000D03*
D16*
X104390000Y-66540000D03*
D17*
X104390000Y-58920000D03*
D16*
X96770000Y-58920000D03*
D17*
X94230000Y-58920000D03*
X100500000Y-55110000D03*
D16*
X90500000Y-55110000D03*
D14*
X116710000Y-88080000D03*
X123060000Y-85540000D03*
D15*
X119250000Y-83000000D03*
D16*
X128140000Y-85540000D03*
D17*
X128140000Y-77920000D03*
D16*
X120520000Y-77920000D03*
D17*
X117980000Y-77920000D03*
X124250000Y-74110000D03*
D16*
X114250000Y-74110000D03*
D14*
X135710000Y-88080000D03*
X142060000Y-85540000D03*
D15*
X138250000Y-83000000D03*
D16*
X147140000Y-85540000D03*
D17*
X147140000Y-77920000D03*
D16*
X139520000Y-77920000D03*
D17*
X136980000Y-77920000D03*
X143250000Y-74110000D03*
D16*
X133250000Y-74110000D03*
D14*
X54960000Y-69080000D03*
X61310000Y-66540000D03*
D15*
X57500000Y-64000000D03*
D16*
X66390000Y-66540000D03*
D17*
X66390000Y-58920000D03*
D16*
X58770000Y-58920000D03*
D17*
X56230000Y-58920000D03*
X62500000Y-55110000D03*
D16*
X52500000Y-55110000D03*
D14*
X111960000Y-69080000D03*
X118310000Y-66540000D03*
D15*
X114500000Y-64000000D03*
D16*
X123390000Y-66540000D03*
D17*
X123390000Y-58920000D03*
D16*
X115770000Y-58920000D03*
D17*
X113230000Y-58920000D03*
X119500000Y-55110000D03*
D16*
X109500000Y-55110000D03*
D14*
X78710000Y-88080000D03*
X85060000Y-85540000D03*
D15*
X81250000Y-83000000D03*
D16*
X90140000Y-85540000D03*
D17*
X90140000Y-77920000D03*
D16*
X82520000Y-77920000D03*
D17*
X79980000Y-77920000D03*
X86250000Y-74110000D03*
D16*
X76250000Y-74110000D03*
D14*
X130960000Y-69080000D03*
X137310000Y-66540000D03*
D15*
X133500000Y-64000000D03*
D16*
X142390000Y-66540000D03*
D17*
X142390000Y-58920000D03*
D16*
X134770000Y-58920000D03*
D17*
X132230000Y-58920000D03*
X138500000Y-55110000D03*
D16*
X128500000Y-55110000D03*
D14*
X126210000Y-107080000D03*
X132560000Y-104540000D03*
D15*
X128750000Y-102000000D03*
D16*
X137640000Y-104540000D03*
D17*
X137640000Y-96920000D03*
D16*
X130020000Y-96920000D03*
D17*
X127480000Y-96920000D03*
X133750000Y-93110000D03*
D16*
X123750000Y-93110000D03*
D14*
X73960000Y-69080000D03*
X80310000Y-66540000D03*
D15*
X76500000Y-64000000D03*
D16*
X85390000Y-66540000D03*
D17*
X85390000Y-58920000D03*
D16*
X77770000Y-58920000D03*
D17*
X75230000Y-58920000D03*
X81500000Y-55110000D03*
D16*
X71500000Y-55110000D03*
D14*
X88210000Y-107080000D03*
X94560000Y-104540000D03*
D15*
X90750000Y-102000000D03*
D16*
X99640000Y-104540000D03*
D17*
X99640000Y-96920000D03*
D16*
X92020000Y-96920000D03*
D17*
X89480000Y-96920000D03*
X95750000Y-93110000D03*
D16*
X85750000Y-93110000D03*
D14*
X69210000Y-107080000D03*
X75560000Y-104540000D03*
D15*
X71750000Y-102000000D03*
D16*
X80640000Y-104540000D03*
D17*
X80640000Y-96920000D03*
D16*
X73020000Y-96920000D03*
D17*
X70480000Y-96920000D03*
X76750000Y-93110000D03*
D16*
X66750000Y-93110000D03*
D14*
X76335000Y-126080000D03*
X82685000Y-123540000D03*
D15*
X78875000Y-121000000D03*
D16*
X87765000Y-123540000D03*
D17*
X87765000Y-115920000D03*
D16*
X80145000Y-115920000D03*
D17*
X77605000Y-115920000D03*
X83875000Y-112110000D03*
D16*
X73875000Y-112110000D03*
D14*
X28835000Y-126080000D03*
X35185000Y-123540000D03*
D15*
X31375000Y-121000000D03*
D16*
X40265000Y-123540000D03*
D17*
X40265000Y-115920000D03*
D16*
X32645000Y-115920000D03*
D17*
X30105000Y-115920000D03*
X36375000Y-129890000D03*
D16*
X26375000Y-129890000D03*
D14*
X102460000Y-126080000D03*
X108810000Y-123540000D03*
D15*
X105000000Y-121000000D03*
D16*
X113890000Y-123540000D03*
D17*
X113890000Y-115920000D03*
D16*
X106270000Y-115920000D03*
D17*
X103730000Y-115920000D03*
X110000000Y-112110000D03*
D16*
X100000000Y-112110000D03*
D14*
X38335000Y-107080000D03*
X44685000Y-104540000D03*
D15*
X40875000Y-102000000D03*
D16*
X22875000Y-104540000D03*
D17*
X22875000Y-96920000D03*
D16*
X42145000Y-96920000D03*
D17*
X39605000Y-96920000D03*
X45875000Y-93110000D03*
D16*
X35875000Y-93110000D03*
D18*
X52775000Y-110240000D03*
D19*
X52775000Y-95000000D03*
D18*
X28975000Y-110240000D03*
D19*
X28975000Y-95000000D03*
D14*
X138085000Y-126080000D03*
X144435000Y-123540000D03*
D15*
X140625000Y-121000000D03*
D16*
X122625000Y-123540000D03*
D17*
X122625000Y-115920000D03*
D16*
X141895000Y-115920000D03*
D17*
X139355000Y-115920000D03*
X145625000Y-112110000D03*
D16*
X135625000Y-112110000D03*
D18*
X152525000Y-129240000D03*
D19*
X152525000Y-114000000D03*
D18*
X128725000Y-129240000D03*
D19*
X128725000Y-114000000D03*
D14*
X52585000Y-126080000D03*
X58935000Y-123540000D03*
D15*
X55125000Y-121000000D03*
D16*
X64015000Y-123540000D03*
D17*
X64015000Y-115920000D03*
D16*
X56395000Y-115920000D03*
D17*
X53855000Y-115920000D03*
X60125000Y-129890000D03*
D16*
X50125000Y-129890000D03*
D14*
X31210000Y-69080000D03*
X37560000Y-66540000D03*
D15*
X33750000Y-64000000D03*
D16*
X42640000Y-66540000D03*
D17*
X42640000Y-58920000D03*
D16*
X35020000Y-58920000D03*
D17*
X32480000Y-58920000D03*
X38750000Y-55110000D03*
D16*
X28750000Y-55110000D03*
D14*
X26460000Y-50080000D03*
X32810000Y-47540000D03*
D15*
X29000000Y-45000000D03*
D16*
X37890000Y-47540000D03*
D17*
X37890000Y-39920000D03*
D16*
X30270000Y-39920000D03*
D17*
X27730000Y-39920000D03*
X34000000Y-36110000D03*
D16*
X24000000Y-36110000D03*
D20*
X3500000Y-3500000D03*
X166000000Y-134500000D03*
X3500000Y-134500000D03*
X166000000Y-3500000D03*
X152500000Y-64000000D03*
X48000000Y-17000000D03*
X36125000Y-83000000D03*
D21*
X19000000Y-61500000D03*
X35000000Y-50000000D03*
X16250000Y-63000000D03*
X15750000Y-55750000D03*
X25000000Y-79500000D03*
X24500000Y-53000000D03*
X23000000Y-50250000D03*
X21000000Y-113750000D03*
X20500000Y-47750000D03*
X71500000Y-118250000D03*
X32250000Y-54750000D03*
X17500000Y-57000000D03*
X18000000Y-26500000D03*
X16250000Y-54000000D03*
X16250000Y-31000000D03*
X28750000Y-30000000D03*
X28250000Y-34750000D03*
X13500000Y-38500000D03*
X13750000Y-51500000D03*
X116000000Y-3750000D03*
X14750000Y-7500000D03*
X15000000Y-48750000D03*
X37250000Y-32000000D03*
X37000000Y-37000000D03*
X22000000Y-40000000D03*
X21000000Y-32000000D03*
X66250000Y-118250000D03*
X69750000Y-118250000D03*
D22*
X8897000Y-61137000D02*
X18637000Y-61137000D01*
X18637000Y-61137000D02*
X19000000Y-61500000D01*
X132890000Y-11920000D02*
X134420000Y-11920000D01*
X150060000Y-13750000D02*
X151890000Y-11920000D01*
X136250000Y-13750000D02*
X150060000Y-13750000D01*
X134420000Y-11920000D02*
X136250000Y-13750000D01*
X113890000Y-11920000D02*
X114920000Y-11920000D01*
X131060000Y-13750000D02*
X132890000Y-11920000D01*
X116750000Y-13750000D02*
X131060000Y-13750000D01*
X114920000Y-11920000D02*
X116750000Y-13750000D01*
X94890000Y-11920000D02*
X96170000Y-11920000D01*
X111810000Y-14000000D02*
X113890000Y-11920000D01*
X98250000Y-14000000D02*
X111810000Y-14000000D01*
X96170000Y-11920000D02*
X98250000Y-14000000D01*
X75890000Y-11920000D02*
X75890000Y-12390000D01*
X75890000Y-12390000D02*
X77250000Y-13750000D01*
X93060000Y-13750000D02*
X94890000Y-11920000D01*
X77250000Y-13750000D02*
X93060000Y-13750000D01*
X37890000Y-11920000D02*
X39920000Y-11920000D01*
X74060000Y-13750000D02*
X75890000Y-11920000D01*
X41750000Y-13750000D02*
X74060000Y-13750000D01*
X39920000Y-11920000D02*
X41750000Y-13750000D01*
X8897000Y-58343000D02*
X21657000Y-58343000D01*
X30000000Y-50000000D02*
X35000000Y-50000000D01*
X21657000Y-58343000D02*
X30000000Y-50000000D01*
X132890000Y-39920000D02*
X134420000Y-39920000D01*
X150060000Y-41750000D02*
X151890000Y-39920000D01*
X136250000Y-41750000D02*
X150060000Y-41750000D01*
X134420000Y-39920000D02*
X136250000Y-41750000D01*
X113890000Y-39920000D02*
X115420000Y-39920000D01*
X131060000Y-41750000D02*
X132890000Y-39920000D01*
X117250000Y-41750000D02*
X131060000Y-41750000D01*
X115420000Y-39920000D02*
X117250000Y-41750000D01*
X94890000Y-39920000D02*
X96420000Y-39920000D01*
X112060000Y-41750000D02*
X113890000Y-39920000D01*
X98250000Y-41750000D02*
X112060000Y-41750000D01*
X96420000Y-39920000D02*
X98250000Y-41750000D01*
X75890000Y-39920000D02*
X77670000Y-39920000D01*
X92810000Y-42000000D02*
X94890000Y-39920000D01*
X79750000Y-42000000D02*
X92810000Y-42000000D01*
X77670000Y-39920000D02*
X79750000Y-42000000D01*
X56890000Y-39920000D02*
X57920000Y-39920000D01*
X73810000Y-42000000D02*
X75890000Y-39920000D01*
X60000000Y-42000000D02*
X73810000Y-42000000D01*
X57920000Y-39920000D02*
X60000000Y-42000000D01*
X37890000Y-39920000D02*
X39920000Y-39920000D01*
X55060000Y-41750000D02*
X56890000Y-39920000D01*
X41750000Y-41750000D02*
X55060000Y-41750000D01*
X39920000Y-39920000D02*
X41750000Y-41750000D01*
X8897000Y-55549000D02*
X15549000Y-55549000D01*
X40810000Y-60750000D02*
X42640000Y-58920000D01*
X31000000Y-60750000D02*
X40810000Y-60750000D01*
X29500000Y-62250000D02*
X31000000Y-60750000D01*
X17000000Y-62250000D02*
X29500000Y-62250000D01*
X16250000Y-63000000D02*
X17000000Y-62250000D01*
X15549000Y-55549000D02*
X15750000Y-55750000D01*
X123390000Y-58920000D02*
X124670000Y-58920000D01*
X140560000Y-60750000D02*
X142390000Y-58920000D01*
X126500000Y-60750000D02*
X140560000Y-60750000D01*
X124670000Y-58920000D02*
X126500000Y-60750000D01*
X104390000Y-58920000D02*
X105420000Y-58920000D01*
X121310000Y-61000000D02*
X123390000Y-58920000D01*
X107500000Y-61000000D02*
X121310000Y-61000000D01*
X105420000Y-58920000D02*
X107500000Y-61000000D01*
X85390000Y-58920000D02*
X86420000Y-58920000D01*
X102560000Y-60750000D02*
X104390000Y-58920000D01*
X88250000Y-60750000D02*
X102560000Y-60750000D01*
X86420000Y-58920000D02*
X88250000Y-60750000D01*
X66390000Y-58920000D02*
X67670000Y-58920000D01*
X83560000Y-60750000D02*
X85390000Y-58920000D01*
X69500000Y-60750000D02*
X83560000Y-60750000D01*
X67670000Y-58920000D02*
X69500000Y-60750000D01*
X42640000Y-58920000D02*
X44670000Y-58920000D01*
X64560000Y-60750000D02*
X66390000Y-58920000D01*
X46500000Y-60750000D02*
X64560000Y-60750000D01*
X44670000Y-58920000D02*
X46500000Y-60750000D01*
X8897000Y-52755000D02*
X24255000Y-52755000D01*
X69060000Y-80000000D02*
X71140000Y-77920000D01*
X25500000Y-80000000D02*
X69060000Y-80000000D01*
X25000000Y-79500000D02*
X25500000Y-80000000D01*
X24255000Y-52755000D02*
X24500000Y-53000000D01*
X128140000Y-77920000D02*
X130170000Y-77920000D01*
X145310000Y-79750000D02*
X147140000Y-77920000D01*
X132000000Y-79750000D02*
X145310000Y-79750000D01*
X130170000Y-77920000D02*
X132000000Y-79750000D01*
X109140000Y-77920000D02*
X110670000Y-77920000D01*
X126060000Y-80000000D02*
X128140000Y-77920000D01*
X112750000Y-80000000D02*
X126060000Y-80000000D01*
X110670000Y-77920000D02*
X112750000Y-80000000D01*
X90140000Y-77920000D02*
X90920000Y-77920000D01*
X90920000Y-77920000D02*
X92750000Y-79750000D01*
X107310000Y-79750000D02*
X109140000Y-77920000D01*
X92750000Y-79750000D02*
X107310000Y-79750000D01*
X71140000Y-77920000D02*
X71670000Y-77920000D01*
X71670000Y-77920000D02*
X73500000Y-79750000D01*
X73500000Y-79750000D02*
X88310000Y-79750000D01*
X88310000Y-79750000D02*
X90140000Y-77920000D01*
X8897000Y-49961000D02*
X22711000Y-49961000D01*
X22711000Y-49961000D02*
X23000000Y-50250000D01*
X22875000Y-96920000D02*
X24170000Y-96920000D01*
X77830000Y-96920000D02*
X80640000Y-96920000D01*
X76000000Y-98750000D02*
X77830000Y-96920000D01*
X26000000Y-98750000D02*
X76000000Y-98750000D01*
X24170000Y-96920000D02*
X26000000Y-98750000D01*
X137640000Y-96920000D02*
X137920000Y-96920000D01*
X137920000Y-96920000D02*
X140000000Y-99000000D01*
X154560000Y-99000000D02*
X156640000Y-96920000D01*
X140000000Y-99000000D02*
X154560000Y-99000000D01*
X118640000Y-96920000D02*
X119670000Y-96920000D01*
X135810000Y-98750000D02*
X137640000Y-96920000D01*
X121500000Y-98750000D02*
X135810000Y-98750000D01*
X119670000Y-96920000D02*
X121500000Y-98750000D01*
X99640000Y-96920000D02*
X100170000Y-96920000D01*
X100170000Y-96920000D02*
X102000000Y-98750000D01*
X116810000Y-98750000D02*
X118640000Y-96920000D01*
X102000000Y-98750000D02*
X116810000Y-98750000D01*
X80640000Y-96920000D02*
X81670000Y-96920000D01*
X97810000Y-98750000D02*
X99640000Y-96920000D01*
X83500000Y-98750000D02*
X97810000Y-98750000D01*
X81670000Y-96920000D02*
X83500000Y-98750000D01*
X8897000Y-47294000D02*
X20044000Y-47294000D01*
X37595000Y-113250000D02*
X40265000Y-115920000D01*
X21500000Y-113250000D02*
X37595000Y-113250000D01*
X21000000Y-113750000D02*
X21500000Y-113250000D01*
X20044000Y-47294000D02*
X20500000Y-47750000D01*
X40265000Y-115920000D02*
X48330000Y-115920000D01*
X61595000Y-113500000D02*
X64015000Y-115920000D01*
X50750000Y-113500000D02*
X61595000Y-113500000D01*
X48330000Y-115920000D02*
X50750000Y-113500000D01*
X87765000Y-115920000D02*
X87765000Y-116485000D01*
X87765000Y-116485000D02*
X86000000Y-118250000D01*
X86000000Y-118250000D02*
X71500000Y-118250000D01*
X113890000Y-115920000D02*
X122625000Y-115920000D01*
X87765000Y-115920000D02*
X87765000Y-116265000D01*
X87765000Y-116265000D02*
X89250000Y-117750000D01*
X89250000Y-117750000D02*
X112060000Y-117750000D01*
X112060000Y-117750000D02*
X113890000Y-115920000D01*
X8897000Y-27863000D02*
X20677000Y-27863000D01*
X20677000Y-27863000D02*
X26460000Y-22080000D01*
X6103000Y-59740000D02*
X27260000Y-59740000D01*
X27260000Y-59740000D02*
X32250000Y-54750000D01*
X64460000Y-22080000D02*
X29830000Y-22080000D01*
X17446000Y-56946000D02*
X6103000Y-56946000D01*
X17500000Y-57000000D02*
X17446000Y-56946000D01*
X25000000Y-19500000D02*
X18000000Y-26500000D01*
X27250000Y-19500000D02*
X25000000Y-19500000D01*
X29830000Y-22080000D02*
X27250000Y-19500000D01*
X83460000Y-22080000D02*
X68920000Y-22080000D01*
X16098000Y-54152000D02*
X6103000Y-54152000D01*
X16250000Y-54000000D02*
X16098000Y-54152000D01*
X18500000Y-31000000D02*
X16250000Y-31000000D01*
X21000000Y-33500000D02*
X18500000Y-31000000D01*
X22000000Y-33500000D02*
X21000000Y-33500000D01*
X29000000Y-26500000D02*
X22000000Y-33500000D01*
X64500000Y-26500000D02*
X29000000Y-26500000D01*
X68920000Y-22080000D02*
X64500000Y-26500000D01*
X6103000Y-51485000D02*
X13735000Y-51485000D01*
X94790000Y-29750000D02*
X102460000Y-22080000D01*
X29000000Y-29750000D02*
X94790000Y-29750000D01*
X28750000Y-30000000D02*
X29000000Y-29750000D01*
X24750000Y-38250000D02*
X28250000Y-34750000D01*
X13750000Y-38250000D02*
X24750000Y-38250000D01*
X13500000Y-38500000D02*
X13750000Y-38250000D01*
X13735000Y-51485000D02*
X13750000Y-51500000D01*
X6103000Y-48691000D02*
X14941000Y-48691000D01*
X18500000Y-3750000D02*
X116000000Y-3750000D01*
X14750000Y-7500000D02*
X18500000Y-3750000D01*
X14941000Y-48691000D02*
X15000000Y-48750000D01*
X6103000Y-45897000D02*
X23103000Y-45897000D01*
X131290000Y-31250000D02*
X140460000Y-22080000D01*
X38000000Y-31250000D02*
X131290000Y-31250000D01*
X37250000Y-32000000D02*
X38000000Y-31250000D01*
X37000000Y-37500000D02*
X37000000Y-37000000D01*
X32500000Y-42000000D02*
X37000000Y-37500000D01*
X27000000Y-42000000D02*
X32500000Y-42000000D01*
X23103000Y-45897000D02*
X27000000Y-42000000D01*
X6103000Y-32054000D02*
X17946000Y-32054000D01*
X22002000Y-36110000D02*
X24000000Y-36110000D01*
X17946000Y-32054000D02*
X22002000Y-36110000D01*
X119000000Y-8110000D02*
X119000000Y-7750000D01*
X119000000Y-7750000D02*
X122250000Y-4500000D01*
X134390000Y-4500000D02*
X138000000Y-8110000D01*
X122250000Y-4500000D02*
X134390000Y-4500000D01*
X100000000Y-8110000D02*
X100000000Y-8000000D01*
X100000000Y-8000000D02*
X103250000Y-4750000D01*
X115640000Y-4750000D02*
X119000000Y-8110000D01*
X103250000Y-4750000D02*
X115640000Y-4750000D01*
X81000000Y-8110000D02*
X81000000Y-7250000D01*
X96890000Y-5000000D02*
X100000000Y-8110000D01*
X83250000Y-5000000D02*
X96890000Y-5000000D01*
X81000000Y-7250000D02*
X83250000Y-5000000D01*
X62000000Y-8110000D02*
X62000000Y-7500000D01*
X62000000Y-7500000D02*
X64500000Y-5000000D01*
X77890000Y-5000000D02*
X81000000Y-8110000D01*
X64500000Y-5000000D02*
X77890000Y-5000000D01*
X24000000Y-8110000D02*
X24140000Y-8110000D01*
X24140000Y-8110000D02*
X27000000Y-5250000D01*
X27000000Y-5250000D02*
X59140000Y-5250000D01*
X59140000Y-5250000D02*
X62000000Y-8110000D01*
X119000000Y-36110000D02*
X119140000Y-36110000D01*
X119140000Y-36110000D02*
X122000000Y-33250000D01*
X122000000Y-33250000D02*
X135140000Y-33250000D01*
X135140000Y-33250000D02*
X138000000Y-36110000D01*
X100000000Y-36110000D02*
X100000000Y-36000000D01*
X100000000Y-36000000D02*
X102750000Y-33250000D01*
X116140000Y-33250000D02*
X119000000Y-36110000D01*
X102750000Y-33250000D02*
X116140000Y-33250000D01*
X81000000Y-36110000D02*
X81140000Y-36110000D01*
X81140000Y-36110000D02*
X84250000Y-33000000D01*
X96890000Y-33000000D02*
X100000000Y-36110000D01*
X84250000Y-33000000D02*
X96890000Y-33000000D01*
X62000000Y-36110000D02*
X62000000Y-35500000D01*
X62000000Y-35500000D02*
X64250000Y-33250000D01*
X78140000Y-33250000D02*
X81000000Y-36110000D01*
X64250000Y-33250000D02*
X78140000Y-33250000D01*
X43000000Y-36110000D02*
X43000000Y-35250000D01*
X59140000Y-33250000D02*
X62000000Y-36110000D01*
X45000000Y-33250000D02*
X59140000Y-33250000D01*
X43000000Y-35250000D02*
X45000000Y-33250000D01*
X24000000Y-36110000D02*
X24000000Y-36000000D01*
X24000000Y-36000000D02*
X26750000Y-33250000D01*
X26750000Y-33250000D02*
X40140000Y-33250000D01*
X40140000Y-33250000D02*
X43000000Y-36110000D01*
X109500000Y-55110000D02*
X109500000Y-54250000D01*
X109500000Y-54250000D02*
X111250000Y-52500000D01*
X111250000Y-52500000D02*
X125890000Y-52500000D01*
X125890000Y-52500000D02*
X128500000Y-55110000D01*
X90500000Y-55110000D02*
X90500000Y-54750000D01*
X90500000Y-54750000D02*
X92750000Y-52500000D01*
X106890000Y-52500000D02*
X109500000Y-55110000D01*
X92750000Y-52500000D02*
X106890000Y-52500000D01*
X71500000Y-55110000D02*
X71500000Y-54500000D01*
X71500000Y-54500000D02*
X73500000Y-52500000D01*
X87890000Y-52500000D02*
X90500000Y-55110000D01*
X73500000Y-52500000D02*
X87890000Y-52500000D01*
X52500000Y-55110000D02*
X52500000Y-54500000D01*
X52500000Y-54500000D02*
X54500000Y-52500000D01*
X68890000Y-52500000D02*
X71500000Y-55110000D01*
X54500000Y-52500000D02*
X68890000Y-52500000D01*
X28750000Y-55110000D02*
X29890000Y-55110000D01*
X49890000Y-52500000D02*
X52500000Y-55110000D01*
X32500000Y-52500000D02*
X49890000Y-52500000D01*
X29890000Y-55110000D02*
X32500000Y-52500000D01*
X114250000Y-74110000D02*
X114250000Y-73500000D01*
X114250000Y-73500000D02*
X116500000Y-71250000D01*
X130390000Y-71250000D02*
X133250000Y-74110000D01*
X116500000Y-71250000D02*
X130390000Y-71250000D01*
X95250000Y-74110000D02*
X95640000Y-74110000D01*
X95640000Y-74110000D02*
X98250000Y-71500000D01*
X111640000Y-71500000D02*
X114250000Y-74110000D01*
X98250000Y-71500000D02*
X111640000Y-71500000D01*
X76250000Y-74110000D02*
X77640000Y-74110000D01*
X92390000Y-71250000D02*
X95250000Y-74110000D01*
X80500000Y-71250000D02*
X92390000Y-71250000D01*
X77640000Y-74110000D02*
X80500000Y-71250000D01*
X57250000Y-74110000D02*
X57640000Y-74110000D01*
X57640000Y-74110000D02*
X60500000Y-71250000D01*
X60500000Y-71250000D02*
X73390000Y-71250000D01*
X73390000Y-71250000D02*
X76250000Y-74110000D01*
X123750000Y-93110000D02*
X123750000Y-92750000D01*
X123750000Y-92750000D02*
X126000000Y-90500000D01*
X126000000Y-90500000D02*
X140140000Y-90500000D01*
X140140000Y-90500000D02*
X142750000Y-93110000D01*
X104750000Y-93110000D02*
X104750000Y-92750000D01*
X104750000Y-92750000D02*
X107000000Y-90500000D01*
X121140000Y-90500000D02*
X123750000Y-93110000D01*
X107000000Y-90500000D02*
X121140000Y-90500000D01*
X85750000Y-93110000D02*
X85750000Y-92000000D01*
X102140000Y-90500000D02*
X104750000Y-93110000D01*
X87250000Y-90500000D02*
X102140000Y-90500000D01*
X85750000Y-92000000D02*
X87250000Y-90500000D01*
X66750000Y-93110000D02*
X67390000Y-93110000D01*
X67390000Y-93110000D02*
X70000000Y-90500000D01*
X83140000Y-90500000D02*
X85750000Y-93110000D01*
X70000000Y-90500000D02*
X83140000Y-90500000D01*
X35875000Y-93110000D02*
X36640000Y-93110000D01*
X36640000Y-93110000D02*
X39000000Y-90750000D01*
X39000000Y-90750000D02*
X64390000Y-90750000D01*
X64390000Y-90750000D02*
X66750000Y-93110000D01*
X100000000Y-112110000D02*
X100640000Y-112110000D01*
X100640000Y-112110000D02*
X103000000Y-109750000D01*
X103000000Y-109750000D02*
X131750000Y-109750000D01*
X131750000Y-109750000D02*
X134110000Y-112110000D01*
X134110000Y-112110000D02*
X135625000Y-112110000D01*
X73875000Y-112110000D02*
X74140000Y-112110000D01*
X74140000Y-112110000D02*
X76250000Y-110000000D01*
X89860000Y-112110000D02*
X100000000Y-112110000D01*
X87750000Y-110000000D02*
X89860000Y-112110000D01*
X76250000Y-110000000D02*
X87750000Y-110000000D01*
X50125000Y-129890000D02*
X50125000Y-130625000D01*
X50125000Y-130625000D02*
X51750000Y-132250000D01*
X68750000Y-117235000D02*
X73875000Y-112110000D01*
X68750000Y-126250000D02*
X68750000Y-117235000D01*
X62750000Y-132250000D02*
X68750000Y-126250000D01*
X51750000Y-132250000D02*
X62750000Y-132250000D01*
X26375000Y-129890000D02*
X26640000Y-129890000D01*
X26640000Y-129890000D02*
X29000000Y-132250000D01*
X29000000Y-132250000D02*
X47765000Y-132250000D01*
X47765000Y-132250000D02*
X50125000Y-129890000D01*
X6103000Y-29260000D02*
X18260000Y-29260000D01*
X22080000Y-39920000D02*
X27730000Y-39920000D01*
X22000000Y-40000000D02*
X22080000Y-39920000D01*
X18260000Y-29260000D02*
X21000000Y-32000000D01*
X30105000Y-115920000D02*
X30105000Y-117105000D01*
X52025000Y-117750000D02*
X53855000Y-115920000D01*
X30750000Y-117750000D02*
X52025000Y-117750000D01*
X30105000Y-117105000D02*
X30750000Y-117750000D01*
X156250000Y-84750000D02*
X156250000Y-91500000D01*
X139355000Y-113145000D02*
X139355000Y-115920000D01*
X142500000Y-110000000D02*
X139355000Y-113145000D01*
X155500000Y-110000000D02*
X142500000Y-110000000D01*
X160500000Y-105000000D02*
X155500000Y-110000000D01*
X160500000Y-95750000D02*
X160500000Y-105000000D01*
X156250000Y-91500000D02*
X160500000Y-95750000D01*
X156250000Y-66000000D02*
X156250000Y-84750000D01*
X156250000Y-84750000D02*
X156250000Y-85000000D01*
X146480000Y-94770000D02*
X146480000Y-96920000D01*
X156250000Y-85000000D02*
X146480000Y-94770000D01*
X156250000Y-47750000D02*
X156250000Y-66000000D01*
X156250000Y-66000000D02*
X156250000Y-66500000D01*
X136980000Y-75770000D02*
X136980000Y-77920000D01*
X141250000Y-71500000D02*
X136980000Y-75770000D01*
X151250000Y-71500000D02*
X141250000Y-71500000D01*
X156250000Y-66500000D02*
X151250000Y-71500000D01*
X156250000Y-22000000D02*
X156250000Y-47750000D01*
X156250000Y-47750000D02*
X156250000Y-48000000D01*
X132230000Y-56770000D02*
X132230000Y-58920000D01*
X136250000Y-52750000D02*
X132230000Y-56770000D01*
X151500000Y-52750000D02*
X136250000Y-52750000D01*
X156250000Y-48000000D02*
X151500000Y-52750000D01*
X141730000Y-11920000D02*
X141730000Y-9020000D01*
X141730000Y-36520000D02*
X141730000Y-39920000D01*
X156250000Y-22000000D02*
X141730000Y-36520000D01*
X156250000Y-10000000D02*
X156250000Y-22000000D01*
X151250000Y-5000000D02*
X156250000Y-10000000D01*
X145750000Y-5000000D02*
X151250000Y-5000000D01*
X141730000Y-9020000D02*
X145750000Y-5000000D01*
X53855000Y-115920000D02*
X53855000Y-116355000D01*
X53855000Y-116355000D02*
X55750000Y-118250000D01*
X55750000Y-118250000D02*
X66250000Y-118250000D01*
X69750000Y-118250000D02*
X72250000Y-115750000D01*
X72250000Y-115750000D02*
X77435000Y-115750000D01*
X77435000Y-115750000D02*
X77605000Y-115920000D01*
X77605000Y-115920000D02*
X77605000Y-114645000D01*
X91670000Y-115920000D02*
X103730000Y-115920000D01*
X86250000Y-110500000D02*
X91670000Y-115920000D01*
X81750000Y-110500000D02*
X86250000Y-110500000D01*
X77605000Y-114645000D02*
X81750000Y-110500000D01*
X103730000Y-115920000D02*
X103730000Y-114770000D01*
X103730000Y-114770000D02*
X108000000Y-110500000D01*
X108000000Y-110500000D02*
X130000000Y-110500000D01*
X130000000Y-110500000D02*
X135420000Y-115920000D01*
X135420000Y-115920000D02*
X139355000Y-115920000D01*
X127480000Y-96920000D02*
X127480000Y-95020000D01*
X127480000Y-95020000D02*
X131250000Y-91250000D01*
X131250000Y-91250000D02*
X136250000Y-91250000D01*
X136250000Y-91250000D02*
X141920000Y-96920000D01*
X141920000Y-96920000D02*
X146480000Y-96920000D01*
X108480000Y-96920000D02*
X108480000Y-95270000D01*
X123420000Y-96920000D02*
X127480000Y-96920000D01*
X117750000Y-91250000D02*
X123420000Y-96920000D01*
X112500000Y-91250000D02*
X117750000Y-91250000D01*
X108480000Y-95270000D02*
X112500000Y-91250000D01*
X89480000Y-96920000D02*
X89480000Y-95020000D01*
X104420000Y-96920000D02*
X108480000Y-96920000D01*
X99000000Y-91500000D02*
X104420000Y-96920000D01*
X93000000Y-91500000D02*
X99000000Y-91500000D01*
X89480000Y-95020000D02*
X93000000Y-91500000D01*
X70480000Y-96920000D02*
X70480000Y-95270000D01*
X84920000Y-96920000D02*
X89480000Y-96920000D01*
X79250000Y-91250000D02*
X84920000Y-96920000D01*
X74500000Y-91250000D02*
X79250000Y-91250000D01*
X70480000Y-95270000D02*
X74500000Y-91250000D01*
X39605000Y-96920000D02*
X39605000Y-95095002D01*
X60420000Y-96920000D02*
X70480000Y-96920000D01*
X55000000Y-91500000D02*
X60420000Y-96920000D01*
X43200002Y-91500000D02*
X55000000Y-91500000D01*
X39605000Y-95095002D02*
X43200002Y-91500000D01*
X117980000Y-77920000D02*
X117980000Y-75770000D01*
X117980000Y-75770000D02*
X121750000Y-72000000D01*
X121750000Y-72000000D02*
X126750000Y-72000000D01*
X126750000Y-72000000D02*
X132670000Y-77920000D01*
X132670000Y-77920000D02*
X136980000Y-77920000D01*
X98980000Y-77920000D02*
X98980000Y-76270000D01*
X113170000Y-77920000D02*
X117980000Y-77920000D01*
X107500000Y-72250000D02*
X113170000Y-77920000D01*
X103000000Y-72250000D02*
X107500000Y-72250000D01*
X98980000Y-76270000D02*
X103000000Y-72250000D01*
X79980000Y-77920000D02*
X79980000Y-76520000D01*
X94670000Y-77920000D02*
X98980000Y-77920000D01*
X88750000Y-72000000D02*
X94670000Y-77920000D01*
X84500000Y-72000000D02*
X88750000Y-72000000D01*
X79980000Y-76520000D02*
X84500000Y-72000000D01*
X60980000Y-77920000D02*
X60980000Y-76270000D01*
X75420000Y-77920000D02*
X79980000Y-77920000D01*
X69750000Y-72250000D02*
X75420000Y-77920000D01*
X65000000Y-72250000D02*
X69750000Y-72250000D01*
X60980000Y-76270000D02*
X65000000Y-72250000D01*
X113230000Y-58920000D02*
X113230000Y-56520000D01*
X113230000Y-56520000D02*
X116500000Y-53250000D01*
X116500000Y-53250000D02*
X122500000Y-53250000D01*
X122500000Y-53250000D02*
X128170000Y-58920000D01*
X128170000Y-58920000D02*
X132230000Y-58920000D01*
X94230000Y-58920000D02*
X94230000Y-56270000D01*
X109170000Y-58920000D02*
X113230000Y-58920000D01*
X103500000Y-53250000D02*
X109170000Y-58920000D01*
X97250000Y-53250000D02*
X103500000Y-53250000D01*
X94230000Y-56270000D02*
X97250000Y-53250000D01*
X75230000Y-58920000D02*
X75230000Y-56770000D01*
X90420000Y-58920000D02*
X94230000Y-58920000D01*
X84750000Y-53250000D02*
X90420000Y-58920000D01*
X78750000Y-53250000D02*
X84750000Y-53250000D01*
X75230000Y-56770000D02*
X78750000Y-53250000D01*
X56230000Y-58920000D02*
X56230000Y-57020000D01*
X70920000Y-58920000D02*
X75230000Y-58920000D01*
X65250000Y-53250000D02*
X70920000Y-58920000D01*
X60000000Y-53250000D02*
X65250000Y-53250000D01*
X56230000Y-57020000D02*
X60000000Y-53250000D01*
X32480000Y-58920000D02*
X32480000Y-57270000D01*
X47420000Y-58920000D02*
X56230000Y-58920000D01*
X41750000Y-53250000D02*
X47420000Y-58920000D01*
X36500000Y-53250000D02*
X41750000Y-53250000D01*
X32480000Y-57270000D02*
X36500000Y-53250000D01*
X122730000Y-39920000D02*
X122730000Y-37520000D01*
X122730000Y-37520000D02*
X126000000Y-34250000D01*
X126000000Y-34250000D02*
X131500000Y-34250000D01*
X131500000Y-34250000D02*
X137170000Y-39920000D01*
X137170000Y-39920000D02*
X141730000Y-39920000D01*
X103730000Y-39920000D02*
X103730000Y-37520000D01*
X118420000Y-39920000D02*
X122730000Y-39920000D01*
X112750000Y-34250000D02*
X118420000Y-39920000D01*
X107000000Y-34250000D02*
X112750000Y-34250000D01*
X103730000Y-37520000D02*
X107000000Y-34250000D01*
X84730000Y-39920000D02*
X84730000Y-37520000D01*
X99420000Y-39920000D02*
X103730000Y-39920000D01*
X93750000Y-34250000D02*
X99420000Y-39920000D01*
X88000000Y-34250000D02*
X93750000Y-34250000D01*
X84730000Y-37520000D02*
X88000000Y-34250000D01*
X65730000Y-39920000D02*
X65730000Y-37770000D01*
X80670000Y-39920000D02*
X84730000Y-39920000D01*
X75000000Y-34250000D02*
X80670000Y-39920000D01*
X69250000Y-34250000D02*
X75000000Y-34250000D01*
X65730000Y-37770000D02*
X69250000Y-34250000D01*
X46730000Y-39920000D02*
X46730000Y-37270000D01*
X61920000Y-39920000D02*
X65730000Y-39920000D01*
X56250000Y-34250000D02*
X61920000Y-39920000D01*
X49750000Y-34250000D02*
X56250000Y-34250000D01*
X46730000Y-37270000D02*
X49750000Y-34250000D01*
X27730000Y-39920000D02*
X27730000Y-37770000D01*
X42420000Y-39920000D02*
X46730000Y-39920000D01*
X36750000Y-34250000D02*
X42420000Y-39920000D01*
X31250000Y-34250000D02*
X36750000Y-34250000D01*
X27730000Y-37770000D02*
X31250000Y-34250000D01*
X122730000Y-11920000D02*
X122730000Y-9020000D01*
X137670000Y-11920000D02*
X141730000Y-11920000D01*
X131750000Y-6000000D02*
X137670000Y-11920000D01*
X125750000Y-6000000D02*
X131750000Y-6000000D01*
X122730000Y-9020000D02*
X125750000Y-6000000D01*
X103730000Y-11920000D02*
X103730000Y-9770000D01*
X119170000Y-11920000D02*
X122730000Y-11920000D01*
X113250000Y-6000000D02*
X119170000Y-11920000D01*
X107500000Y-6000000D02*
X113250000Y-6000000D01*
X103730000Y-9770000D02*
X107500000Y-6000000D01*
X84730000Y-11920000D02*
X84730000Y-9270000D01*
X99420000Y-11920000D02*
X103730000Y-11920000D01*
X93750000Y-6250000D02*
X99420000Y-11920000D01*
X87750000Y-6250000D02*
X93750000Y-6250000D01*
X84730000Y-9270000D02*
X87750000Y-6250000D01*
X65730000Y-11920000D02*
X65730000Y-9770000D01*
X80170000Y-11920000D02*
X84730000Y-11920000D01*
X74250000Y-6000000D02*
X80170000Y-11920000D01*
X69500000Y-6000000D02*
X74250000Y-6000000D01*
X65730000Y-9770000D02*
X69500000Y-6000000D01*
X27730000Y-11920000D02*
X27730000Y-10520000D01*
X44170000Y-11920000D02*
X65730000Y-11920000D01*
X38500000Y-6250000D02*
X44170000Y-11920000D01*
X32000000Y-6250000D02*
X38500000Y-6250000D01*
X27730000Y-10520000D02*
X32000000Y-6250000D01*
X32810000Y-19540000D02*
X37890000Y-19540000D01*
X30270000Y-11920000D02*
X30270000Y-11840000D01*
X30270000Y-11840000D02*
X34000000Y-8110000D01*
X70810000Y-19540000D02*
X75890000Y-19540000D01*
X68270000Y-11920000D02*
X68270000Y-11840000D01*
X68270000Y-11840000D02*
X72000000Y-8110000D01*
X89810000Y-19540000D02*
X94890000Y-19540000D01*
X87270000Y-11920000D02*
X87270000Y-11840000D01*
X87270000Y-11840000D02*
X91000000Y-8110000D01*
X108810000Y-19540000D02*
X113890000Y-19540000D01*
X106270000Y-11920000D02*
X106270000Y-11840000D01*
X106270000Y-11840000D02*
X110000000Y-8110000D01*
X127810000Y-19540000D02*
X132890000Y-19540000D01*
X125270000Y-11920000D02*
X125270000Y-11840000D01*
X125270000Y-11840000D02*
X129000000Y-8110000D01*
X146810000Y-19540000D02*
X151890000Y-19540000D01*
X144270000Y-11920000D02*
X144270000Y-11840000D01*
X144270000Y-11840000D02*
X148000000Y-8110000D01*
X51810000Y-47540000D02*
X56890000Y-47540000D01*
X49270000Y-39920000D02*
X49270000Y-39840000D01*
X49270000Y-39840000D02*
X53000000Y-36110000D01*
X70810000Y-47540000D02*
X75890000Y-47540000D01*
X68270000Y-39920000D02*
X68270000Y-39840000D01*
X68270000Y-39840000D02*
X72000000Y-36110000D01*
X89810000Y-47540000D02*
X94890000Y-47540000D01*
X87270000Y-39920000D02*
X87270000Y-39840000D01*
X87270000Y-39840000D02*
X91000000Y-36110000D01*
X108810000Y-47540000D02*
X113890000Y-47540000D01*
X106270000Y-39920000D02*
X106270000Y-39840000D01*
X106270000Y-39840000D02*
X110000000Y-36110000D01*
X127810000Y-47540000D02*
X132890000Y-47540000D01*
X125270000Y-39920000D02*
X125270000Y-39840000D01*
X125270000Y-39840000D02*
X129000000Y-36110000D01*
X146810000Y-47540000D02*
X151890000Y-47540000D01*
X144270000Y-39920000D02*
X144270000Y-39840000D01*
X144270000Y-39840000D02*
X148000000Y-36110000D01*
X66060000Y-85540000D02*
X71140000Y-85540000D01*
X63520000Y-77920000D02*
X63520000Y-77840000D01*
X63520000Y-77840000D02*
X67250000Y-74110000D01*
X151560000Y-104540000D02*
X156640000Y-104540000D01*
X149020000Y-96920000D02*
X149020000Y-96840000D01*
X149020000Y-96840000D02*
X152750000Y-93110000D01*
X113560000Y-104540000D02*
X118640000Y-104540000D01*
X111020000Y-96920000D02*
X111020000Y-96840000D01*
X111020000Y-96840000D02*
X114750000Y-93110000D01*
X104060000Y-85540000D02*
X109140000Y-85540000D01*
X101520000Y-77920000D02*
X101520000Y-77840000D01*
X101520000Y-77840000D02*
X105250000Y-74110000D01*
X99310000Y-66540000D02*
X104390000Y-66540000D01*
X96770000Y-58920000D02*
X96770000Y-58840000D01*
X96770000Y-58840000D02*
X100500000Y-55110000D01*
X123060000Y-85540000D02*
X128140000Y-85540000D01*
X120520000Y-77920000D02*
X120520000Y-77840000D01*
X120520000Y-77840000D02*
X124250000Y-74110000D01*
X142060000Y-85540000D02*
X147140000Y-85540000D01*
X139520000Y-77920000D02*
X139520000Y-77840000D01*
X139520000Y-77840000D02*
X143250000Y-74110000D01*
X61310000Y-66540000D02*
X66390000Y-66540000D01*
X58770000Y-58920000D02*
X58770000Y-58840000D01*
X58770000Y-58840000D02*
X62500000Y-55110000D01*
X118310000Y-66540000D02*
X123390000Y-66540000D01*
X115770000Y-58920000D02*
X115770000Y-58840000D01*
X115770000Y-58840000D02*
X119500000Y-55110000D01*
X85060000Y-85540000D02*
X90140000Y-85540000D01*
X82520000Y-77920000D02*
X82520000Y-77840000D01*
X82520000Y-77840000D02*
X86250000Y-74110000D01*
X137310000Y-66540000D02*
X142390000Y-66540000D01*
X134770000Y-58920000D02*
X134770000Y-58840000D01*
X134770000Y-58840000D02*
X138500000Y-55110000D01*
X132560000Y-104540000D02*
X137640000Y-104540000D01*
X130020000Y-96920000D02*
X130020000Y-96840000D01*
X130020000Y-96840000D02*
X133750000Y-93110000D01*
X80310000Y-66540000D02*
X85390000Y-66540000D01*
X77770000Y-58920000D02*
X77770000Y-58840000D01*
X77770000Y-58840000D02*
X81500000Y-55110000D01*
X94560000Y-104540000D02*
X99640000Y-104540000D01*
X92020000Y-96920000D02*
X92020000Y-96840000D01*
X92020000Y-96840000D02*
X95750000Y-93110000D01*
X75560000Y-104540000D02*
X80640000Y-104540000D01*
X73020000Y-96920000D02*
X73020000Y-96840000D01*
X73020000Y-96840000D02*
X76750000Y-93110000D01*
X82685000Y-123540000D02*
X87765000Y-123540000D01*
X80145000Y-115920000D02*
X80145000Y-115840000D01*
X80145000Y-115840000D02*
X83875000Y-112110000D01*
X35185000Y-123540000D02*
X40265000Y-123540000D01*
X108810000Y-123540000D02*
X113890000Y-123540000D01*
X106270000Y-115920000D02*
X106270000Y-115840000D01*
X106270000Y-115840000D02*
X110000000Y-112110000D01*
X44685000Y-104540000D02*
X22875000Y-104540000D01*
X42145000Y-96920000D02*
X42145000Y-96840000D01*
X42145000Y-96840000D02*
X45875000Y-93110000D01*
X144435000Y-123540000D02*
X122625000Y-123540000D01*
X141895000Y-115920000D02*
X141895000Y-115840000D01*
X141895000Y-115840000D02*
X145625000Y-112110000D01*
X58935000Y-123540000D02*
X64015000Y-123540000D01*
X37560000Y-66540000D02*
X42640000Y-66540000D01*
X35020000Y-58920000D02*
X35020000Y-58840000D01*
X35020000Y-58840000D02*
X38750000Y-55110000D01*
X32810000Y-47540000D02*
X37890000Y-47540000D01*
X30270000Y-39920000D02*
X30270000Y-39840000D01*
X30270000Y-39840000D02*
X34000000Y-36110000D01*
M02*
