M48
;DRILL file {KiCad 4.0.7} date 01/13/18 22:59:00
;FORMAT={3:3/ absolute / metric / suppress leading zeros}
FMAT,2
METRIC,TZ
T1C0.400
T2C0.991
T3C1.016
T4C1.499
T5C2.400
T6C3.048
T7C3.050
T8C3.988
T9C4.000
%
G90
G05
M71
T1
X13500Y-38500
X13750Y-51500
X14750Y-7500
X15000Y-48750
X15750Y-55750
X16250Y-31000
X16250Y-54000
X16250Y-63000
X17500Y-57000
X18000Y-26500
X19000Y-61500
X20500Y-47750
X21000Y-32000
X21000Y-113750
X22000Y-40000
X23000Y-50250
X24500Y-53000
X25000Y-79500
X28250Y-34750
X28750Y-30000
X32250Y-54750
X35000Y-50000
X37000Y-37000
X37250Y-32000
X66250Y-118250
X69750Y-118250
X71500Y-118250
X116000Y-3750
T2
X22875Y-96920
X22875Y-104540
X24000Y-8110
X24000Y-36110
X26375Y-129890
X27730Y-11920
X27730Y-39920
X28750Y-55110
X30105Y-115920
X30270Y-11920
X30270Y-39920
X32480Y-58920
X32645Y-115920
X34000Y-8110
X34000Y-36110
X35020Y-58920
X35875Y-93110
X36375Y-129890
X37890Y-11920
X37890Y-19540
X37890Y-39920
X37890Y-47540
X38750Y-55110
X39605Y-96920
X40265Y-115920
X40265Y-123540
X42145Y-96920
X42640Y-58920
X42640Y-66540
X43000Y-36110
X45875Y-93110
X46730Y-39920
X49270Y-39920
X50125Y-129890
X52500Y-55110
X53000Y-36110
X53855Y-115920
X56230Y-58920
X56395Y-115920
X56890Y-39920
X56890Y-47540
X57250Y-74110
X58770Y-58920
X60125Y-129890
X60980Y-77920
X62000Y-8110
X62000Y-36110
X62500Y-55110
X63520Y-77920
X64015Y-115920
X64015Y-123540
X65730Y-11920
X65730Y-39920
X66390Y-58920
X66390Y-66540
X66750Y-93110
X67250Y-74110
X68270Y-11920
X68270Y-39920
X70480Y-96920
X71140Y-77920
X71140Y-85540
X71500Y-55110
X72000Y-8110
X72000Y-36110
X73020Y-96920
X73875Y-112110
X75230Y-58920
X75890Y-11920
X75890Y-19540
X75890Y-39920
X75890Y-47540
X76250Y-74110
X76750Y-93110
X77605Y-115920
X77770Y-58920
X79980Y-77920
X80145Y-115920
X80640Y-96920
X80640Y-104540
X81000Y-8110
X81000Y-36110
X81500Y-55110
X82520Y-77920
X83875Y-112110
X84730Y-11920
X84730Y-39920
X85390Y-58920
X85390Y-66540
X85750Y-93110
X86250Y-74110
X87270Y-11920
X87270Y-39920
X87765Y-115920
X87765Y-123540
X89480Y-96920
X90140Y-77920
X90140Y-85540
X90500Y-55110
X91000Y-8110
X91000Y-36110
X92020Y-96920
X94230Y-58920
X94890Y-11920
X94890Y-19540
X94890Y-39920
X94890Y-47540
X95250Y-74110
X95750Y-93110
X96770Y-58920
X98980Y-77920
X99640Y-96920
X99640Y-104540
X100000Y-8110
X100000Y-36110
X100000Y-112110
X100500Y-55110
X101520Y-77920
X103730Y-11920
X103730Y-39920
X103730Y-115920
X104390Y-58920
X104390Y-66540
X104750Y-93110
X105250Y-74110
X106270Y-11920
X106270Y-39920
X106270Y-115920
X108480Y-96920
X109140Y-77920
X109140Y-85540
X109500Y-55110
X110000Y-8110
X110000Y-36110
X110000Y-112110
X111020Y-96920
X113230Y-58920
X113890Y-11920
X113890Y-19540
X113890Y-39920
X113890Y-47540
X113890Y-115920
X113890Y-123540
X114250Y-74110
X114750Y-93110
X115770Y-58920
X117980Y-77920
X118640Y-96920
X118640Y-104540
X119000Y-8110
X119000Y-36110
X119500Y-55110
X120520Y-77920
X122625Y-115920
X122625Y-123540
X122730Y-11920
X122730Y-39920
X123390Y-58920
X123390Y-66540
X123750Y-93110
X124250Y-74110
X125270Y-11920
X125270Y-39920
X127480Y-96920
X128140Y-77920
X128140Y-85540
X128500Y-55110
X129000Y-8110
X129000Y-36110
X130020Y-96920
X132230Y-58920
X132890Y-11920
X132890Y-19540
X132890Y-39920
X132890Y-47540
X133250Y-74110
X133750Y-93110
X134770Y-58920
X135625Y-112110
X136980Y-77920
X137640Y-96920
X137640Y-104540
X138000Y-8110
X138000Y-36110
X138500Y-55110
X139355Y-115920
X139520Y-77920
X141730Y-11920
X141730Y-39920
X141895Y-115920
X142390Y-58920
X142390Y-66540
X142750Y-93110
X143250Y-74110
X144270Y-11920
X144270Y-39920
X145625Y-112110
X146480Y-96920
X147140Y-77920
X147140Y-85540
X148000Y-8110
X148000Y-36110
X149020Y-96920
X151890Y-11920
X151890Y-19540
X151890Y-39920
X151890Y-47540
X152750Y-93110
X156640Y-96920
X156640Y-104540
T3
X6103Y-29260
X6103Y-32054
X6103Y-34848
X6103Y-37642
X6103Y-40309
X6103Y-43103
X6103Y-45897
X6103Y-48691
X6103Y-51485
X6103Y-54152
X6103Y-56946
X6103Y-59740
X8897Y-27863
X8897Y-30657
X8897Y-33451
X8897Y-36118
X8897Y-38912
X8897Y-41706
X8897Y-44500
X8897Y-47294
X8897Y-49961
X8897Y-52755
X8897Y-55549
X8897Y-58343
X8897Y-61137
T4
X26460Y-22080
X26460Y-50080
X28835Y-126080
X31210Y-69080
X32810Y-19540
X32810Y-47540
X35185Y-123540
X37560Y-66540
X38335Y-107080
X44685Y-104540
X45460Y-50080
X51810Y-47540
X52585Y-126080
X54960Y-69080
X58935Y-123540
X59710Y-88080
X61310Y-66540
X64460Y-22080
X64460Y-50080
X66060Y-85540
X69210Y-107080
X70810Y-19540
X70810Y-47540
X73960Y-69080
X75560Y-104540
X76335Y-126080
X78710Y-88080
X80310Y-66540
X82685Y-123540
X83460Y-22080
X83460Y-50080
X85060Y-85540
X88210Y-107080
X89810Y-19540
X89810Y-47540
X92960Y-69080
X94560Y-104540
X97710Y-88080
X99310Y-66540
X102460Y-22080
X102460Y-50080
X102460Y-126080
X104060Y-85540
X107210Y-107080
X108810Y-19540
X108810Y-47540
X108810Y-123540
X111960Y-69080
X113560Y-104540
X116710Y-88080
X118310Y-66540
X121460Y-22080
X121460Y-50080
X123060Y-85540
X126210Y-107080
X127810Y-19540
X127810Y-47540
X130960Y-69080
X132560Y-104540
X135710Y-88080
X137310Y-66540
X138085Y-126080
X140460Y-22080
X140460Y-50080
X142060Y-85540
X144435Y-123540
X145210Y-107080
X146810Y-19540
X146810Y-47540
X151560Y-104540
T5
X3500Y-3500
X3500Y-134500
X36125Y-83000
X48000Y-17000
X152500Y-64000
X166000Y-3500
X166000Y-134500
T6
X7500Y-21005
X7500Y-67995
T7
X28975Y-95000
X52775Y-95000
X128725Y-114000
X152525Y-114000
T8
X29000Y-17000
X29000Y-45000
X31375Y-121000
X33750Y-64000
X40875Y-102000
X48000Y-45000
X55125Y-121000
X57500Y-64000
X62250Y-83000
X67000Y-17000
X67000Y-45000
X71750Y-102000
X76500Y-64000
X78875Y-121000
X81250Y-83000
X86000Y-17000
X86000Y-45000
X90750Y-102000
X95500Y-64000
X100250Y-83000
X105000Y-17000
X105000Y-45000
X105000Y-121000
X109750Y-102000
X114500Y-64000
X119250Y-83000
X124000Y-17000
X124000Y-45000
X128750Y-102000
X133500Y-64000
X138250Y-83000
X140625Y-121000
X143000Y-17000
X143000Y-45000
X147750Y-102000
T9
X28975Y-110240
X52775Y-110240
X128725Y-129240
X152525Y-129240
T0
M30
