G04 #@! TF.FileFunction,Copper,L2,Bot,Signal*
%FSLAX46Y46*%
G04 Gerber Fmt 4.6, Leading zero omitted, Abs format (unit mm)*
G04 Created by KiCad (PCBNEW 4.0.7) date 01/13/18 22:59:49*
%MOMM*%
%LPD*%
G01*
G04 APERTURE LIST*
%ADD10C,0.100000*%
%ADD11C,3.810000*%
%ADD12R,1.524000X1.524000*%
%ADD13C,1.524000*%
%ADD14C,2.286000*%
%ADD15C,3.987800*%
%ADD16C,1.651000*%
%ADD17R,1.651000X1.651000*%
%ADD18C,4.000000*%
%ADD19C,3.050000*%
%ADD20C,2.400000*%
%ADD21C,0.600000*%
%ADD22C,0.250000*%
G04 APERTURE END LIST*
D10*
D11*
X7500000Y-21005000D03*
X7500000Y-67995000D03*
D12*
X8897000Y-61137000D03*
D13*
X8897000Y-58343000D03*
X8897000Y-55549000D03*
X8897000Y-52755000D03*
X8897000Y-49961000D03*
X8897000Y-47294000D03*
X8897000Y-44500000D03*
X8897000Y-41706000D03*
X8897000Y-38912000D03*
X8897000Y-36118000D03*
X8897000Y-33451000D03*
X8897000Y-30657000D03*
X8897000Y-27863000D03*
X6103000Y-59740000D03*
X6103000Y-56946000D03*
X6103000Y-54152000D03*
X6103000Y-51485000D03*
X6103000Y-48691000D03*
X6103000Y-45897000D03*
X6103000Y-43103000D03*
X6103000Y-40309000D03*
X6103000Y-37642000D03*
X6103000Y-34848000D03*
X6103000Y-32054000D03*
X6103000Y-29260000D03*
D14*
X26460000Y-22080000D03*
X32810000Y-19540000D03*
D15*
X29000000Y-17000000D03*
D16*
X37890000Y-19540000D03*
D17*
X37890000Y-11920000D03*
D16*
X30270000Y-11920000D03*
D17*
X27730000Y-11920000D03*
X34000000Y-8110000D03*
D16*
X24000000Y-8110000D03*
D14*
X64460000Y-22080000D03*
X70810000Y-19540000D03*
D15*
X67000000Y-17000000D03*
D16*
X75890000Y-19540000D03*
D17*
X75890000Y-11920000D03*
D16*
X68270000Y-11920000D03*
D17*
X65730000Y-11920000D03*
X72000000Y-8110000D03*
D16*
X62000000Y-8110000D03*
D14*
X83460000Y-22080000D03*
X89810000Y-19540000D03*
D15*
X86000000Y-17000000D03*
D16*
X94890000Y-19540000D03*
D17*
X94890000Y-11920000D03*
D16*
X87270000Y-11920000D03*
D17*
X84730000Y-11920000D03*
X91000000Y-8110000D03*
D16*
X81000000Y-8110000D03*
D14*
X102460000Y-22080000D03*
X108810000Y-19540000D03*
D15*
X105000000Y-17000000D03*
D16*
X113890000Y-19540000D03*
D17*
X113890000Y-11920000D03*
D16*
X106270000Y-11920000D03*
D17*
X103730000Y-11920000D03*
X110000000Y-8110000D03*
D16*
X100000000Y-8110000D03*
D14*
X121460000Y-22080000D03*
X127810000Y-19540000D03*
D15*
X124000000Y-17000000D03*
D16*
X132890000Y-19540000D03*
D17*
X132890000Y-11920000D03*
D16*
X125270000Y-11920000D03*
D17*
X122730000Y-11920000D03*
X129000000Y-8110000D03*
D16*
X119000000Y-8110000D03*
D14*
X140460000Y-22080000D03*
X146810000Y-19540000D03*
D15*
X143000000Y-17000000D03*
D16*
X151890000Y-19540000D03*
D17*
X151890000Y-11920000D03*
D16*
X144270000Y-11920000D03*
D17*
X141730000Y-11920000D03*
X148000000Y-8110000D03*
D16*
X138000000Y-8110000D03*
D14*
X45460000Y-50080000D03*
X51810000Y-47540000D03*
D15*
X48000000Y-45000000D03*
D16*
X56890000Y-47540000D03*
D17*
X56890000Y-39920000D03*
D16*
X49270000Y-39920000D03*
D17*
X46730000Y-39920000D03*
X53000000Y-36110000D03*
D16*
X43000000Y-36110000D03*
D14*
X64460000Y-50080000D03*
X70810000Y-47540000D03*
D15*
X67000000Y-45000000D03*
D16*
X75890000Y-47540000D03*
D17*
X75890000Y-39920000D03*
D16*
X68270000Y-39920000D03*
D17*
X65730000Y-39920000D03*
X72000000Y-36110000D03*
D16*
X62000000Y-36110000D03*
D14*
X83460000Y-50080000D03*
X89810000Y-47540000D03*
D15*
X86000000Y-45000000D03*
D16*
X94890000Y-47540000D03*
D17*
X94890000Y-39920000D03*
D16*
X87270000Y-39920000D03*
D17*
X84730000Y-39920000D03*
X91000000Y-36110000D03*
D16*
X81000000Y-36110000D03*
D14*
X102460000Y-50080000D03*
X108810000Y-47540000D03*
D15*
X105000000Y-45000000D03*
D16*
X113890000Y-47540000D03*
D17*
X113890000Y-39920000D03*
D16*
X106270000Y-39920000D03*
D17*
X103730000Y-39920000D03*
X110000000Y-36110000D03*
D16*
X100000000Y-36110000D03*
D14*
X121460000Y-50080000D03*
X127810000Y-47540000D03*
D15*
X124000000Y-45000000D03*
D16*
X132890000Y-47540000D03*
D17*
X132890000Y-39920000D03*
D16*
X125270000Y-39920000D03*
D17*
X122730000Y-39920000D03*
X129000000Y-36110000D03*
D16*
X119000000Y-36110000D03*
D14*
X140460000Y-50080000D03*
X146810000Y-47540000D03*
D15*
X143000000Y-45000000D03*
D16*
X151890000Y-47540000D03*
D17*
X151890000Y-39920000D03*
D16*
X144270000Y-39920000D03*
D17*
X141730000Y-39920000D03*
X148000000Y-36110000D03*
D16*
X138000000Y-36110000D03*
D14*
X59710000Y-88080000D03*
X66060000Y-85540000D03*
D15*
X62250000Y-83000000D03*
D16*
X71140000Y-85540000D03*
D17*
X71140000Y-77920000D03*
D16*
X63520000Y-77920000D03*
D17*
X60980000Y-77920000D03*
X67250000Y-74110000D03*
D16*
X57250000Y-74110000D03*
D14*
X145210000Y-107080000D03*
X151560000Y-104540000D03*
D15*
X147750000Y-102000000D03*
D16*
X156640000Y-104540000D03*
D17*
X156640000Y-96920000D03*
D16*
X149020000Y-96920000D03*
D17*
X146480000Y-96920000D03*
X152750000Y-93110000D03*
D16*
X142750000Y-93110000D03*
D14*
X107210000Y-107080000D03*
X113560000Y-104540000D03*
D15*
X109750000Y-102000000D03*
D16*
X118640000Y-104540000D03*
D17*
X118640000Y-96920000D03*
D16*
X111020000Y-96920000D03*
D17*
X108480000Y-96920000D03*
X114750000Y-93110000D03*
D16*
X104750000Y-93110000D03*
D14*
X97710000Y-88080000D03*
X104060000Y-85540000D03*
D15*
X100250000Y-83000000D03*
D16*
X109140000Y-85540000D03*
D17*
X109140000Y-77920000D03*
D16*
X101520000Y-77920000D03*
D17*
X98980000Y-77920000D03*
X105250000Y-74110000D03*
D16*
X95250000Y-74110000D03*
D14*
X92960000Y-69080000D03*
X99310000Y-66540000D03*
D15*
X95500000Y-64000000D03*
D16*
X104390000Y-66540000D03*
D17*
X104390000Y-58920000D03*
D16*
X96770000Y-58920000D03*
D17*
X94230000Y-58920000D03*
X100500000Y-55110000D03*
D16*
X90500000Y-55110000D03*
D14*
X116710000Y-88080000D03*
X123060000Y-85540000D03*
D15*
X119250000Y-83000000D03*
D16*
X128140000Y-85540000D03*
D17*
X128140000Y-77920000D03*
D16*
X120520000Y-77920000D03*
D17*
X117980000Y-77920000D03*
X124250000Y-74110000D03*
D16*
X114250000Y-74110000D03*
D14*
X135710000Y-88080000D03*
X142060000Y-85540000D03*
D15*
X138250000Y-83000000D03*
D16*
X147140000Y-85540000D03*
D17*
X147140000Y-77920000D03*
D16*
X139520000Y-77920000D03*
D17*
X136980000Y-77920000D03*
X143250000Y-74110000D03*
D16*
X133250000Y-74110000D03*
D14*
X54960000Y-69080000D03*
X61310000Y-66540000D03*
D15*
X57500000Y-64000000D03*
D16*
X66390000Y-66540000D03*
D17*
X66390000Y-58920000D03*
D16*
X58770000Y-58920000D03*
D17*
X56230000Y-58920000D03*
X62500000Y-55110000D03*
D16*
X52500000Y-55110000D03*
D14*
X111960000Y-69080000D03*
X118310000Y-66540000D03*
D15*
X114500000Y-64000000D03*
D16*
X123390000Y-66540000D03*
D17*
X123390000Y-58920000D03*
D16*
X115770000Y-58920000D03*
D17*
X113230000Y-58920000D03*
X119500000Y-55110000D03*
D16*
X109500000Y-55110000D03*
D14*
X78710000Y-88080000D03*
X85060000Y-85540000D03*
D15*
X81250000Y-83000000D03*
D16*
X90140000Y-85540000D03*
D17*
X90140000Y-77920000D03*
D16*
X82520000Y-77920000D03*
D17*
X79980000Y-77920000D03*
X86250000Y-74110000D03*
D16*
X76250000Y-74110000D03*
D14*
X130960000Y-69080000D03*
X137310000Y-66540000D03*
D15*
X133500000Y-64000000D03*
D16*
X142390000Y-66540000D03*
D17*
X142390000Y-58920000D03*
D16*
X134770000Y-58920000D03*
D17*
X132230000Y-58920000D03*
X138500000Y-55110000D03*
D16*
X128500000Y-55110000D03*
D14*
X126210000Y-107080000D03*
X132560000Y-104540000D03*
D15*
X128750000Y-102000000D03*
D16*
X137640000Y-104540000D03*
D17*
X137640000Y-96920000D03*
D16*
X130020000Y-96920000D03*
D17*
X127480000Y-96920000D03*
X133750000Y-93110000D03*
D16*
X123750000Y-93110000D03*
D14*
X73960000Y-69080000D03*
X80310000Y-66540000D03*
D15*
X76500000Y-64000000D03*
D16*
X85390000Y-66540000D03*
D17*
X85390000Y-58920000D03*
D16*
X77770000Y-58920000D03*
D17*
X75230000Y-58920000D03*
X81500000Y-55110000D03*
D16*
X71500000Y-55110000D03*
D14*
X88210000Y-107080000D03*
X94560000Y-104540000D03*
D15*
X90750000Y-102000000D03*
D16*
X99640000Y-104540000D03*
D17*
X99640000Y-96920000D03*
D16*
X92020000Y-96920000D03*
D17*
X89480000Y-96920000D03*
X95750000Y-93110000D03*
D16*
X85750000Y-93110000D03*
D14*
X69210000Y-107080000D03*
X75560000Y-104540000D03*
D15*
X71750000Y-102000000D03*
D16*
X80640000Y-104540000D03*
D17*
X80640000Y-96920000D03*
D16*
X73020000Y-96920000D03*
D17*
X70480000Y-96920000D03*
X76750000Y-93110000D03*
D16*
X66750000Y-93110000D03*
D14*
X76335000Y-126080000D03*
X82685000Y-123540000D03*
D15*
X78875000Y-121000000D03*
D16*
X87765000Y-123540000D03*
D17*
X87765000Y-115920000D03*
D16*
X80145000Y-115920000D03*
D17*
X77605000Y-115920000D03*
X83875000Y-112110000D03*
D16*
X73875000Y-112110000D03*
D14*
X28835000Y-126080000D03*
X35185000Y-123540000D03*
D15*
X31375000Y-121000000D03*
D16*
X40265000Y-123540000D03*
D17*
X40265000Y-115920000D03*
D16*
X32645000Y-115920000D03*
D17*
X30105000Y-115920000D03*
X36375000Y-129890000D03*
D16*
X26375000Y-129890000D03*
D14*
X102460000Y-126080000D03*
X108810000Y-123540000D03*
D15*
X105000000Y-121000000D03*
D16*
X113890000Y-123540000D03*
D17*
X113890000Y-115920000D03*
D16*
X106270000Y-115920000D03*
D17*
X103730000Y-115920000D03*
X110000000Y-112110000D03*
D16*
X100000000Y-112110000D03*
D14*
X38335000Y-107080000D03*
X44685000Y-104540000D03*
D15*
X40875000Y-102000000D03*
D16*
X22875000Y-104540000D03*
D17*
X22875000Y-96920000D03*
D16*
X42145000Y-96920000D03*
D17*
X39605000Y-96920000D03*
X45875000Y-93110000D03*
D16*
X35875000Y-93110000D03*
D18*
X52775000Y-110240000D03*
D19*
X52775000Y-95000000D03*
D18*
X28975000Y-110240000D03*
D19*
X28975000Y-95000000D03*
D14*
X138085000Y-126080000D03*
X144435000Y-123540000D03*
D15*
X140625000Y-121000000D03*
D16*
X122625000Y-123540000D03*
D17*
X122625000Y-115920000D03*
D16*
X141895000Y-115920000D03*
D17*
X139355000Y-115920000D03*
X145625000Y-112110000D03*
D16*
X135625000Y-112110000D03*
D18*
X152525000Y-129240000D03*
D19*
X152525000Y-114000000D03*
D18*
X128725000Y-129240000D03*
D19*
X128725000Y-114000000D03*
D14*
X52585000Y-126080000D03*
X58935000Y-123540000D03*
D15*
X55125000Y-121000000D03*
D16*
X64015000Y-123540000D03*
D17*
X64015000Y-115920000D03*
D16*
X56395000Y-115920000D03*
D17*
X53855000Y-115920000D03*
X60125000Y-129890000D03*
D16*
X50125000Y-129890000D03*
D14*
X31210000Y-69080000D03*
X37560000Y-66540000D03*
D15*
X33750000Y-64000000D03*
D16*
X42640000Y-66540000D03*
D17*
X42640000Y-58920000D03*
D16*
X35020000Y-58920000D03*
D17*
X32480000Y-58920000D03*
X38750000Y-55110000D03*
D16*
X28750000Y-55110000D03*
D14*
X26460000Y-50080000D03*
X32810000Y-47540000D03*
D15*
X29000000Y-45000000D03*
D16*
X37890000Y-47540000D03*
D17*
X37890000Y-39920000D03*
D16*
X30270000Y-39920000D03*
D17*
X27730000Y-39920000D03*
X34000000Y-36110000D03*
D16*
X24000000Y-36110000D03*
D20*
X3500000Y-3500000D03*
X166000000Y-134500000D03*
X3500000Y-134500000D03*
X166000000Y-3500000D03*
X152500000Y-64000000D03*
X48000000Y-17000000D03*
X36125000Y-83000000D03*
D21*
X19000000Y-61500000D03*
X35000000Y-50000000D03*
X16250000Y-63000000D03*
X15750000Y-55750000D03*
X25000000Y-79500000D03*
X24500000Y-53000000D03*
X23000000Y-50250000D03*
X21000000Y-113750000D03*
X20500000Y-47750000D03*
X71500000Y-118250000D03*
X32250000Y-54750000D03*
X17500000Y-57000000D03*
X18000000Y-26500000D03*
X16250000Y-54000000D03*
X16250000Y-31000000D03*
X28750000Y-30000000D03*
X28250000Y-34750000D03*
X13500000Y-38500000D03*
X13750000Y-51500000D03*
X116000000Y-3750000D03*
X14750000Y-7500000D03*
X15000000Y-48750000D03*
X37250000Y-32000000D03*
X37000000Y-37000000D03*
X22000000Y-40000000D03*
X21000000Y-32000000D03*
X66250000Y-118250000D03*
X69750000Y-118250000D03*
D22*
X36060000Y-13750000D02*
X37890000Y-11920000D01*
X25250000Y-13750000D02*
X36060000Y-13750000D01*
X19750000Y-19250000D02*
X25250000Y-13750000D01*
X19750000Y-26000000D02*
X19750000Y-19250000D01*
X19000000Y-26750000D02*
X19750000Y-26000000D01*
X19000000Y-61500000D02*
X19000000Y-26750000D01*
X35500000Y-42310000D02*
X37890000Y-39920000D01*
X35500000Y-49500000D02*
X35500000Y-42310000D01*
X35000000Y-50000000D02*
X35500000Y-49500000D01*
X16250000Y-56250000D02*
X16250000Y-63000000D01*
X15750000Y-55750000D02*
X16250000Y-56250000D01*
X25000000Y-53500000D02*
X25000000Y-79500000D01*
X24500000Y-53000000D02*
X25000000Y-53500000D01*
X22875000Y-50375000D02*
X22875000Y-96920000D01*
X23000000Y-50250000D02*
X22875000Y-50375000D01*
X21000000Y-48250000D02*
X21000000Y-113750000D01*
X20500000Y-47750000D02*
X21000000Y-48250000D01*
X69170000Y-115920000D02*
X64015000Y-115920000D01*
X71500000Y-118250000D02*
X69170000Y-115920000D01*
X31210000Y-69080000D02*
X31210000Y-92460000D01*
X33750000Y-102495000D02*
X38335000Y-107080000D01*
X33750000Y-95000000D02*
X33750000Y-102495000D01*
X31210000Y-92460000D02*
X33750000Y-95000000D01*
X38335000Y-107080000D02*
X38170000Y-107080000D01*
X38170000Y-107080000D02*
X31500000Y-113750000D01*
X31500000Y-113750000D02*
X29000000Y-113750000D01*
X29000000Y-113750000D02*
X27000000Y-115750000D01*
X27000000Y-115750000D02*
X27000000Y-124245000D01*
X27000000Y-124245000D02*
X28835000Y-126080000D01*
X26460000Y-50080000D02*
X26460000Y-60460000D01*
X29750000Y-67250000D02*
X31210000Y-68710000D01*
X29750000Y-63750000D02*
X29750000Y-67250000D01*
X26460000Y-60460000D02*
X29750000Y-63750000D01*
X31210000Y-68710000D02*
X31210000Y-69080000D01*
X26460000Y-22080000D02*
X26460000Y-37040000D01*
X25250000Y-48870000D02*
X26460000Y-50080000D01*
X25250000Y-38250000D02*
X25250000Y-48870000D01*
X26460000Y-37040000D02*
X25250000Y-38250000D01*
X36920000Y-50080000D02*
X45460000Y-50080000D01*
X32250000Y-54750000D02*
X36920000Y-50080000D01*
X69210000Y-107080000D02*
X64920000Y-107080000D01*
X50750000Y-124245000D02*
X52585000Y-126080000D01*
X50750000Y-115250000D02*
X50750000Y-124245000D01*
X52000000Y-114000000D02*
X50750000Y-115250000D01*
X58000000Y-114000000D02*
X52000000Y-114000000D01*
X64920000Y-107080000D02*
X58000000Y-114000000D01*
X59710000Y-88080000D02*
X59710000Y-97580000D01*
X59710000Y-97580000D02*
X69210000Y-107080000D01*
X54960000Y-69080000D02*
X54960000Y-83330000D01*
X54960000Y-83330000D02*
X59710000Y-88080000D01*
X45460000Y-50080000D02*
X45460000Y-54710000D01*
X53000000Y-67120000D02*
X54960000Y-69080000D01*
X53000000Y-62250000D02*
X53000000Y-67120000D01*
X45460000Y-54710000D02*
X53000000Y-62250000D01*
X17500000Y-27000000D02*
X17500000Y-57000000D01*
X18000000Y-26500000D02*
X17500000Y-27000000D01*
X88210000Y-107080000D02*
X82920000Y-107080000D01*
X74500000Y-124245000D02*
X76335000Y-126080000D01*
X74500000Y-115500000D02*
X74500000Y-124245000D01*
X82920000Y-107080000D02*
X74500000Y-115500000D01*
X78710000Y-88080000D02*
X78710000Y-90460000D01*
X85000000Y-103870000D02*
X88210000Y-107080000D01*
X85000000Y-96750000D02*
X85000000Y-103870000D01*
X78710000Y-90460000D02*
X85000000Y-96750000D01*
X73960000Y-69080000D02*
X73960000Y-83330000D01*
X73960000Y-83330000D02*
X78710000Y-88080000D01*
X64460000Y-50080000D02*
X64460000Y-52210000D01*
X71000000Y-66120000D02*
X73960000Y-69080000D01*
X71000000Y-58750000D02*
X71000000Y-66120000D01*
X64460000Y-52210000D02*
X71000000Y-58750000D01*
X64460000Y-22080000D02*
X64460000Y-37540000D01*
X63500000Y-49120000D02*
X64460000Y-50080000D01*
X63500000Y-38500000D02*
X63500000Y-49120000D01*
X64460000Y-37540000D02*
X63500000Y-38500000D01*
X16250000Y-31000000D02*
X16250000Y-54000000D01*
X107210000Y-107080000D02*
X107210000Y-108790000D01*
X101000000Y-124620000D02*
X102460000Y-126080000D01*
X101000000Y-115000000D02*
X101000000Y-124620000D01*
X107210000Y-108790000D02*
X101000000Y-115000000D01*
X97710000Y-88080000D02*
X97710000Y-90460000D01*
X104000000Y-103870000D02*
X107210000Y-107080000D01*
X104000000Y-96750000D02*
X104000000Y-103870000D01*
X97710000Y-90460000D02*
X104000000Y-96750000D01*
X92960000Y-69080000D02*
X92960000Y-83330000D01*
X92960000Y-83330000D02*
X97710000Y-88080000D01*
X83460000Y-50080000D02*
X83460000Y-52710000D01*
X89750000Y-65870000D02*
X92960000Y-69080000D01*
X89750000Y-59000000D02*
X89750000Y-65870000D01*
X83460000Y-52710000D02*
X89750000Y-59000000D01*
X83460000Y-22080000D02*
X83460000Y-37540000D01*
X82500000Y-49120000D02*
X83460000Y-50080000D01*
X82500000Y-38500000D02*
X82500000Y-49120000D01*
X83460000Y-37540000D02*
X82500000Y-38500000D01*
X28750000Y-34250000D02*
X28750000Y-30000000D01*
X28250000Y-34750000D02*
X28750000Y-34250000D01*
X13500000Y-51250000D02*
X13500000Y-38500000D01*
X13750000Y-51500000D02*
X13500000Y-51250000D01*
X102460000Y-50080000D02*
X102460000Y-52210000D01*
X108750000Y-65870000D02*
X111960000Y-69080000D01*
X108750000Y-58500000D02*
X108750000Y-65870000D01*
X102460000Y-52210000D02*
X108750000Y-58500000D01*
X111960000Y-69080000D02*
X111960000Y-77460000D01*
X111960000Y-77460000D02*
X115250000Y-80750000D01*
X115250000Y-80750000D02*
X115250000Y-86620000D01*
X115250000Y-86620000D02*
X116710000Y-88080000D01*
X116710000Y-88080000D02*
X116710000Y-90460000D01*
X123750000Y-104620000D02*
X126210000Y-107080000D01*
X123750000Y-97500000D02*
X123750000Y-104620000D01*
X116710000Y-90460000D02*
X123750000Y-97500000D01*
X126210000Y-107080000D02*
X126210000Y-107210000D01*
X126210000Y-107210000D02*
X134500000Y-115500000D01*
X134500000Y-115500000D02*
X134500000Y-122495000D01*
X134500000Y-122495000D02*
X138085000Y-126080000D01*
X102460000Y-22080000D02*
X102460000Y-37290000D01*
X101250000Y-48870000D02*
X102460000Y-50080000D01*
X101250000Y-38500000D02*
X101250000Y-48870000D01*
X102460000Y-37290000D02*
X101250000Y-38500000D01*
X116750000Y-17370000D02*
X121460000Y-22080000D01*
X116750000Y-4500000D02*
X116750000Y-17370000D01*
X116000000Y-3750000D02*
X116750000Y-4500000D01*
X14750000Y-48500000D02*
X14750000Y-7500000D01*
X15000000Y-48750000D02*
X14750000Y-48500000D01*
X135710000Y-88080000D02*
X135710000Y-90460000D01*
X142750000Y-104620000D02*
X145210000Y-107080000D01*
X142750000Y-97500000D02*
X142750000Y-104620000D01*
X135710000Y-90460000D02*
X142750000Y-97500000D01*
X130960000Y-69080000D02*
X130960000Y-83330000D01*
X130960000Y-83330000D02*
X135710000Y-88080000D01*
X121460000Y-50080000D02*
X121460000Y-52960000D01*
X129750000Y-67870000D02*
X130960000Y-69080000D01*
X129750000Y-61250000D02*
X129750000Y-67870000D01*
X121460000Y-52960000D02*
X129750000Y-61250000D01*
X121460000Y-22080000D02*
X121460000Y-36790000D01*
X120750000Y-37500000D02*
X120750000Y-49370000D01*
X121460000Y-36790000D02*
X120750000Y-37500000D01*
X120750000Y-49370000D02*
X121460000Y-50080000D01*
X37250000Y-36750000D02*
X37250000Y-32000000D01*
X37000000Y-37000000D02*
X37250000Y-36750000D01*
X140460000Y-22080000D02*
X140460000Y-37540000D01*
X139500000Y-49120000D02*
X140460000Y-50080000D01*
X139500000Y-38500000D02*
X139500000Y-49120000D01*
X140460000Y-37540000D02*
X139500000Y-38500000D01*
X150000000Y-87250000D02*
X151250000Y-87250000D01*
X137485000Y-110250000D02*
X135625000Y-112110000D01*
X154750000Y-110250000D02*
X137485000Y-110250000D01*
X159750000Y-105250000D02*
X154750000Y-110250000D01*
X159750000Y-95750000D02*
X159750000Y-105250000D01*
X151250000Y-87250000D02*
X159750000Y-95750000D01*
X144750000Y-67500000D02*
X144750000Y-70000000D01*
X144390000Y-93110000D02*
X142750000Y-93110000D01*
X150000000Y-87500000D02*
X144390000Y-93110000D01*
X150000000Y-75250000D02*
X150000000Y-87250000D01*
X150000000Y-87250000D02*
X150000000Y-87500000D01*
X144750000Y-70000000D02*
X150000000Y-75250000D01*
X138000000Y-45250000D02*
X138000000Y-51000000D01*
X138390000Y-74110000D02*
X133250000Y-74110000D01*
X144750000Y-67750000D02*
X138390000Y-74110000D01*
X144750000Y-57500000D02*
X144750000Y-67500000D01*
X144750000Y-67500000D02*
X144750000Y-67750000D01*
X142000000Y-54750000D02*
X144750000Y-57500000D01*
X141750000Y-54750000D02*
X142000000Y-54750000D01*
X138000000Y-51000000D02*
X141750000Y-54750000D01*
X138000000Y-36110000D02*
X138000000Y-45250000D01*
X138000000Y-45250000D02*
X138000000Y-45610000D01*
X138000000Y-45610000D02*
X128500000Y-55110000D01*
X138000000Y-8110000D02*
X138000000Y-36110000D01*
X22000000Y-33000000D02*
X22000000Y-40000000D01*
X21000000Y-32000000D02*
X22000000Y-33000000D01*
X66250000Y-118250000D02*
X69750000Y-118250000D01*
X32645000Y-115920000D02*
X34420000Y-115920000D01*
X37500000Y-128765000D02*
X36375000Y-129890000D01*
X37500000Y-119000000D02*
X37500000Y-128765000D01*
X34420000Y-115920000D02*
X37500000Y-119000000D01*
X56395000Y-115920000D02*
X57170000Y-115920000D01*
X57170000Y-115920000D02*
X61250000Y-120000000D01*
X61250000Y-120000000D02*
X61250000Y-128765000D01*
X61250000Y-128765000D02*
X60125000Y-129890000D01*
M02*
