%TF.GenerationSoftware,KiCad,Pcbnew,(5.1.10)-1*%
%TF.CreationDate,2021-06-29T07:08:46-05:00*%
%TF.ProjectId,Mini,4d696e69-2e6b-4696-9361-645f70636258,rev?*%
%TF.SameCoordinates,Original*%
%TF.FileFunction,Soldermask,Bot*%
%TF.FilePolarity,Negative*%
%FSLAX46Y46*%
G04 Gerber Fmt 4.6, Leading zero omitted, Abs format (unit mm)*
G04 Created by KiCad (PCBNEW (5.1.10)-1) date 2021-06-29 07:08:46*
%MOMM*%
%LPD*%
G01*
G04 APERTURE LIST*
%ADD10C,3.050000*%
%ADD11C,4.000000*%
%ADD12C,1.700000*%
%ADD13C,2.286000*%
%ADD14C,1.651000*%
%ADD15C,0.100000*%
%ADD16R,1.651000X1.651000*%
%ADD17R,1.000000X1.000000*%
%ADD18C,1.130000*%
%ADD19C,1.500000*%
%ADD20O,1.000000X2.500000*%
%ADD21R,1.130000X1.130000*%
G04 APERTURE END LIST*
D10*
%TO.C,KT2_2*%
X74936629Y-87772009D03*
X69240450Y-64581322D03*
D11*
X60136543Y-91407259D03*
X54440364Y-68216572D03*
X65290600Y-77846400D03*
D12*
X66483267Y-82702071D03*
X64097933Y-72990729D03*
D13*
X66848469Y-73540503D03*
X70829837Y-79101331D03*
D14*
X73665549Y-78404813D03*
D15*
G36*
X72994396Y-72211635D02*
G01*
X71391053Y-72605454D01*
X70997234Y-71002111D01*
X72600577Y-70608292D01*
X72994396Y-72211635D01*
G37*
G36*
X59715981Y-82819690D02*
G01*
X58744847Y-83058224D01*
X58506313Y-82087090D01*
X59477447Y-81848556D01*
X59715981Y-82819690D01*
G37*
G36*
X61269796Y-82438037D02*
G01*
X60298662Y-82676571D01*
X60060128Y-81705437D01*
X61031262Y-81466903D01*
X61269796Y-82438037D01*
G37*
G36*
X62823611Y-82056383D02*
G01*
X61852477Y-82294917D01*
X61613943Y-81323783D01*
X62585077Y-81085249D01*
X62823611Y-82056383D01*
G37*
G36*
X58284780Y-76992885D02*
G01*
X57313646Y-77231419D01*
X57075112Y-76260285D01*
X58046246Y-76021751D01*
X58284780Y-76992885D01*
G37*
G36*
X59838595Y-76611231D02*
G01*
X58867461Y-76849765D01*
X58628927Y-75878631D01*
X59600061Y-75640097D01*
X59838595Y-76611231D01*
G37*
G36*
X61392410Y-76229578D02*
G01*
X60421276Y-76468112D01*
X60182742Y-75496978D01*
X61153876Y-75258444D01*
X61392410Y-76229578D01*
G37*
%TD*%
D11*
%TO.C,KT2_1*%
X88896257Y-59753541D03*
X94592436Y-82944228D03*
D10*
X79792350Y-86579478D03*
X74096171Y-63388791D03*
D11*
X83742200Y-73314400D03*
D12*
X84934867Y-78170071D03*
X82549533Y-68458729D03*
D13*
X85300069Y-69008503D03*
X89281437Y-74569331D03*
D14*
X92730631Y-88611933D03*
D15*
G36*
X86853581Y-90905512D02*
G01*
X85250238Y-91299331D01*
X84856419Y-89695988D01*
X86459762Y-89302169D01*
X86853581Y-90905512D01*
G37*
G36*
X79844010Y-71697578D02*
G01*
X78872876Y-71936112D01*
X78634342Y-70964978D01*
X79605476Y-70726444D01*
X79844010Y-71697578D01*
G37*
G36*
X78290195Y-72079231D02*
G01*
X77319061Y-72317765D01*
X77080527Y-71346631D01*
X78051661Y-71108097D01*
X78290195Y-72079231D01*
G37*
G36*
X76736380Y-72460885D02*
G01*
X75765246Y-72699419D01*
X75526712Y-71728285D01*
X76497846Y-71489751D01*
X76736380Y-72460885D01*
G37*
G36*
X81275211Y-77524383D02*
G01*
X80304077Y-77762917D01*
X80065543Y-76791783D01*
X81036677Y-76553249D01*
X81275211Y-77524383D01*
G37*
G36*
X79721396Y-77906037D02*
G01*
X78750262Y-78144571D01*
X78511728Y-77173437D01*
X79482862Y-76934903D01*
X79721396Y-77906037D01*
G37*
G36*
X78167581Y-78287690D02*
G01*
X77196447Y-78526224D01*
X76957913Y-77555090D01*
X77929047Y-77316556D01*
X78167581Y-78287690D01*
G37*
%TD*%
D11*
%TO.C,KBACK1*%
X195000000Y-27000000D03*
D12*
X190000000Y-27000000D03*
X200000000Y-27000000D03*
D13*
X198810000Y-29540000D03*
X192460000Y-32080000D03*
D14*
X192460000Y-35000000D03*
D16*
X199460000Y-35000000D03*
D17*
X192000000Y-19900000D03*
X192000000Y-21500000D03*
X192000000Y-23100000D03*
X198000000Y-19900000D03*
X198000000Y-21500000D03*
X198000000Y-23100000D03*
%TD*%
D11*
%TO.C,KCOMMA1*%
X138000000Y-47500000D03*
D12*
X133000000Y-47500000D03*
X143000000Y-47500000D03*
D13*
X141810000Y-50040000D03*
X135460000Y-52580000D03*
D14*
X135460000Y-55500000D03*
D16*
X142460000Y-55500000D03*
D17*
X135000000Y-40400000D03*
X135000000Y-42000000D03*
X135000000Y-43600000D03*
X141000000Y-40400000D03*
X141000000Y-42000000D03*
X141000000Y-43600000D03*
%TD*%
D11*
%TO.C,KENTER1*%
X195000000Y-46000000D03*
D12*
X190000000Y-46000000D03*
X200000000Y-46000000D03*
D13*
X198810000Y-48540000D03*
X192460000Y-51080000D03*
D14*
X192460000Y-54000000D03*
D16*
X199460000Y-54000000D03*
D17*
X198000000Y-42100000D03*
X198000000Y-40500000D03*
X198000000Y-38900000D03*
X192000000Y-42100000D03*
X192000000Y-40500000D03*
X192000000Y-38900000D03*
%TD*%
D11*
%TO.C,KFSLASH1*%
X176000000Y-55500000D03*
D12*
X171000000Y-55500000D03*
X181000000Y-55500000D03*
D13*
X179810000Y-58040000D03*
X173460000Y-60580000D03*
D14*
X173460000Y-63500000D03*
D16*
X180460000Y-63500000D03*
D17*
X173000000Y-48400000D03*
X173000000Y-50000000D03*
X173000000Y-51600000D03*
X179000000Y-48400000D03*
X179000000Y-50000000D03*
X179000000Y-51600000D03*
%TD*%
D11*
%TO.C,KH1*%
X100000000Y-32500000D03*
D12*
X95000000Y-32500000D03*
X105000000Y-32500000D03*
D13*
X103810000Y-35040000D03*
X97460000Y-37580000D03*
D14*
X97460000Y-40500000D03*
D16*
X104460000Y-40500000D03*
D17*
X103000000Y-28600000D03*
X103000000Y-27000000D03*
X103000000Y-25400000D03*
X97000000Y-28600000D03*
X97000000Y-27000000D03*
X97000000Y-25400000D03*
%TD*%
D11*
%TO.C,KI1*%
X138000000Y-9500000D03*
D12*
X133000000Y-9500000D03*
X143000000Y-9500000D03*
D13*
X141810000Y-12040000D03*
X135460000Y-14580000D03*
D14*
X135460000Y-17500000D03*
D16*
X142460000Y-17500000D03*
D17*
X135000000Y-2400000D03*
X135000000Y-4000000D03*
X135000000Y-5600000D03*
X141000000Y-2400000D03*
X141000000Y-4000000D03*
X141000000Y-5600000D03*
%TD*%
D11*
%TO.C,KJ1*%
X119000000Y-32500000D03*
D12*
X114000000Y-32500000D03*
X124000000Y-32500000D03*
D13*
X122810000Y-35040000D03*
X116460000Y-37580000D03*
D14*
X116460000Y-40500000D03*
D16*
X123460000Y-40500000D03*
D17*
X122000000Y-28600000D03*
X122000000Y-27000000D03*
X122000000Y-25400000D03*
X116000000Y-28600000D03*
X116000000Y-27000000D03*
X116000000Y-25400000D03*
%TD*%
D11*
%TO.C,KK1*%
X138000000Y-28500000D03*
D12*
X133000000Y-28500000D03*
X143000000Y-28500000D03*
D13*
X141810000Y-31040000D03*
X135460000Y-33580000D03*
D14*
X135460000Y-36500000D03*
D16*
X142460000Y-36500000D03*
D17*
X141000000Y-24600000D03*
X141000000Y-23000000D03*
X141000000Y-21400000D03*
X135000000Y-24600000D03*
X135000000Y-23000000D03*
X135000000Y-21400000D03*
%TD*%
D11*
%TO.C,KL1*%
X157000000Y-32500000D03*
D12*
X152000000Y-32500000D03*
X162000000Y-32500000D03*
D13*
X160810000Y-35040000D03*
X154460000Y-37580000D03*
D14*
X154460000Y-40500000D03*
D16*
X161460000Y-40500000D03*
D17*
X160000000Y-28600000D03*
X160000000Y-27000000D03*
X160000000Y-25400000D03*
X154000000Y-28600000D03*
X154000000Y-27000000D03*
X154000000Y-25400000D03*
%TD*%
D11*
%TO.C,KM1*%
X119000000Y-51500000D03*
D12*
X114000000Y-51500000D03*
X124000000Y-51500000D03*
D13*
X122810000Y-54040000D03*
X116460000Y-56580000D03*
D14*
X116460000Y-59500000D03*
D16*
X123460000Y-59500000D03*
D17*
X116000000Y-44400000D03*
X116000000Y-46000000D03*
X116000000Y-47600000D03*
X122000000Y-44400000D03*
X122000000Y-46000000D03*
X122000000Y-47600000D03*
%TD*%
D11*
%TO.C,KN1*%
X100000000Y-51500000D03*
D12*
X95000000Y-51500000D03*
X105000000Y-51500000D03*
D13*
X103810000Y-54040000D03*
X97460000Y-56580000D03*
D14*
X97460000Y-59500000D03*
D16*
X104460000Y-59500000D03*
D17*
X97000000Y-44400000D03*
X97000000Y-46000000D03*
X97000000Y-47600000D03*
X103000000Y-44400000D03*
X103000000Y-46000000D03*
X103000000Y-47600000D03*
%TD*%
D11*
%TO.C,KO1*%
X157000000Y-13500000D03*
D12*
X152000000Y-13500000D03*
X162000000Y-13500000D03*
D13*
X160810000Y-16040000D03*
X154460000Y-18580000D03*
D14*
X154460000Y-21500000D03*
D16*
X161460000Y-21500000D03*
D17*
X154000000Y-6400000D03*
X154000000Y-8000000D03*
X154000000Y-9600000D03*
X160000000Y-6400000D03*
X160000000Y-8000000D03*
X160000000Y-9600000D03*
%TD*%
D11*
%TO.C,KP1*%
X176000000Y-17500000D03*
D12*
X171000000Y-17500000D03*
X181000000Y-17500000D03*
D13*
X179810000Y-20040000D03*
X173460000Y-22580000D03*
D14*
X173460000Y-25500000D03*
D16*
X180460000Y-25500000D03*
D17*
X173000000Y-10400000D03*
X173000000Y-12000000D03*
X173000000Y-13600000D03*
X179000000Y-10400000D03*
X179000000Y-12000000D03*
X179000000Y-13600000D03*
%TD*%
D11*
%TO.C,KPERIOD1*%
X157000000Y-51500000D03*
D12*
X152000000Y-51500000D03*
X162000000Y-51500000D03*
D13*
X160810000Y-54040000D03*
X154460000Y-56580000D03*
D14*
X154460000Y-59500000D03*
D16*
X161460000Y-59500000D03*
D17*
X154000000Y-44400000D03*
X154000000Y-46000000D03*
X154000000Y-47600000D03*
X160000000Y-44400000D03*
X160000000Y-46000000D03*
X160000000Y-47600000D03*
%TD*%
D11*
%TO.C,KCOLON1*%
X176000000Y-36500000D03*
D12*
X171000000Y-36500000D03*
X181000000Y-36500000D03*
D13*
X179810000Y-39040000D03*
X173460000Y-41580000D03*
D14*
X173460000Y-44500000D03*
D16*
X180460000Y-44500000D03*
D17*
X179000000Y-32600000D03*
X179000000Y-31000000D03*
X179000000Y-29400000D03*
X173000000Y-32600000D03*
X173000000Y-31000000D03*
X173000000Y-29400000D03*
%TD*%
D11*
%TO.C,KTG_A1*%
X107000000Y-70500000D03*
D12*
X102000000Y-70500000D03*
X112000000Y-70500000D03*
D13*
X110810000Y-73040000D03*
X104460000Y-75580000D03*
D14*
X104460000Y-78500000D03*
D16*
X111460000Y-78500000D03*
D17*
X110000000Y-66600000D03*
X110000000Y-65000000D03*
X110000000Y-63400000D03*
X104000000Y-66600000D03*
X104000000Y-65000000D03*
X104000000Y-63400000D03*
%TD*%
D11*
%TO.C,KTG_B1*%
X126000000Y-70500000D03*
D12*
X121000000Y-70500000D03*
X131000000Y-70500000D03*
D13*
X129810000Y-73040000D03*
X123460000Y-75580000D03*
D14*
X123460000Y-78500000D03*
D16*
X130460000Y-78500000D03*
D17*
X129000000Y-66600000D03*
X129000000Y-65000000D03*
X129000000Y-63400000D03*
X123000000Y-66600000D03*
X123000000Y-65000000D03*
X123000000Y-63400000D03*
%TD*%
D11*
%TO.C,KTG_C1*%
X107000000Y-89500000D03*
D12*
X102000000Y-89500000D03*
X112000000Y-89500000D03*
D13*
X110810000Y-92040000D03*
X104460000Y-94580000D03*
D14*
X104460000Y-97500000D03*
D16*
X111460000Y-97500000D03*
D17*
X104000000Y-82400000D03*
X104000000Y-84000000D03*
X104000000Y-85600000D03*
X110000000Y-82400000D03*
X110000000Y-84000000D03*
X110000000Y-85600000D03*
%TD*%
D11*
%TO.C,KTG_D1*%
X126000000Y-89500000D03*
D12*
X121000000Y-89500000D03*
X131000000Y-89500000D03*
D13*
X129810000Y-92040000D03*
X123460000Y-94580000D03*
D14*
X123460000Y-97500000D03*
D16*
X130460000Y-97500000D03*
D17*
X123000000Y-82400000D03*
X123000000Y-84000000D03*
X123000000Y-85600000D03*
X129000000Y-82400000D03*
X129000000Y-84000000D03*
X129000000Y-85600000D03*
%TD*%
D11*
%TO.C,KU1*%
X119000000Y-13500000D03*
D12*
X114000000Y-13500000D03*
X124000000Y-13500000D03*
D13*
X122810000Y-16040000D03*
X116460000Y-18580000D03*
D14*
X116460000Y-21500000D03*
D16*
X123460000Y-21500000D03*
D17*
X116000000Y-6400000D03*
X116000000Y-8000000D03*
X116000000Y-9600000D03*
X122000000Y-6400000D03*
X122000000Y-8000000D03*
X122000000Y-9600000D03*
%TD*%
D11*
%TO.C,KY1*%
X100000000Y-13500000D03*
D12*
X95000000Y-13500000D03*
X105000000Y-13500000D03*
D13*
X103810000Y-16040000D03*
X97460000Y-18580000D03*
D14*
X97460000Y-21500000D03*
D16*
X104460000Y-21500000D03*
D17*
X97000000Y-6400000D03*
X97000000Y-8000000D03*
X97000000Y-9600000D03*
X103000000Y-6400000D03*
X103000000Y-8000000D03*
X103000000Y-9600000D03*
%TD*%
D18*
%TO.C,R0*%
X137500000Y-89000000D03*
X137500000Y-97000000D03*
%TD*%
%TO.C,R1*%
X140000000Y-97000000D03*
X140000000Y-89000000D03*
%TD*%
%TO.C,R2*%
X140000000Y-78500000D03*
X140000000Y-86500000D03*
%TD*%
%TO.C,R3*%
X137500000Y-78500000D03*
X137500000Y-86500000D03*
%TD*%
D19*
%TO.C,UD9*%
X155500000Y-82000000D03*
X155500000Y-84000000D03*
X155500000Y-86000000D03*
X155500000Y-88000000D03*
X155500000Y-90000000D03*
X158300000Y-90000000D03*
X158300000Y-82000000D03*
X158300000Y-84500000D03*
X158300000Y-86500000D03*
D20*
X161650000Y-86000000D03*
%TD*%
D18*
%TO.C,UDEMUX1*%
X141610000Y-65530000D03*
X144150000Y-65530000D03*
X146690000Y-65530000D03*
X149230000Y-65530000D03*
X151770000Y-65530000D03*
X154310000Y-65530000D03*
X156850000Y-65530000D03*
X159390000Y-65530000D03*
X159390000Y-73470000D03*
X156850000Y-73470000D03*
X154310000Y-73470000D03*
X151770000Y-73470000D03*
X149230000Y-73470000D03*
X146690000Y-73470000D03*
X144150000Y-73470000D03*
D21*
X141610000Y-73470000D03*
%TD*%
D18*
%TO.C,UREG1*%
X151470000Y-79110000D03*
X151470000Y-81650000D03*
X151470000Y-84190000D03*
X151470000Y-86730000D03*
X151470000Y-89270000D03*
X151470000Y-91810000D03*
X151470000Y-94350000D03*
X151470000Y-96890000D03*
X143530000Y-96890000D03*
X143530000Y-94350000D03*
X143530000Y-91810000D03*
X143530000Y-89270000D03*
X143530000Y-86730000D03*
X143530000Y-84190000D03*
X143530000Y-81650000D03*
D21*
X143530000Y-79110000D03*
%TD*%
M02*
