%TF.GenerationSoftware,KiCad,Pcbnew,(5.1.10)-1*%
%TF.CreationDate,2021-06-29T07:08:46-05:00*%
%TF.ProjectId,Mini,4d696e69-2e6b-4696-9361-645f70636258,rev?*%
%TF.SameCoordinates,Original*%
%TF.FileFunction,Profile,NP*%
%FSLAX46Y46*%
G04 Gerber Fmt 4.6, Leading zero omitted, Abs format (unit mm)*
G04 Created by KiCad (PCBNEW (5.1.10)-1) date 2021-06-29 07:08:46*
%MOMM*%
%LPD*%
G01*
G04 APERTURE LIST*
%TA.AperFunction,Profile*%
%ADD10C,0.050000*%
%TD*%
G04 APERTURE END LIST*
D10*
X56925200Y-77326700D02*
X58117900Y-82182400D01*
X58117900Y-82182400D02*
X62973500Y-80989800D01*
X61780900Y-76134100D02*
X62973500Y-80989800D01*
X56925200Y-77326700D02*
X61780900Y-76134100D01*
X75376800Y-72794700D02*
X80232500Y-71602100D01*
X75376800Y-72794700D02*
X76569500Y-77650400D01*
X76569500Y-77650400D02*
X81425100Y-76457800D01*
X80232500Y-71602100D02*
X81425100Y-76457800D01*
X109500000Y-81500000D02*
X104500000Y-81500000D01*
X109500000Y-86500000D02*
X109500000Y-81500000D01*
X104500000Y-86500000D02*
X109500000Y-86500000D01*
X104500000Y-81500000D02*
X104500000Y-86500000D01*
X128500000Y-81500000D02*
X123500000Y-81500000D01*
X128500000Y-86500000D02*
X128500000Y-81500000D01*
X123500000Y-86500000D02*
X128500000Y-86500000D01*
X123500000Y-81500000D02*
X123500000Y-86500000D01*
X109500000Y-62500000D02*
X104500000Y-62500000D01*
X109500000Y-67500000D02*
X109500000Y-62500000D01*
X104500000Y-67500000D02*
X109500000Y-67500000D01*
X104500000Y-62500000D02*
X104500000Y-67500000D01*
X128500000Y-62500000D02*
X123500000Y-62500000D01*
X128500000Y-67500000D02*
X128500000Y-62500000D01*
X123500000Y-67500000D02*
X128500000Y-67500000D01*
X123500000Y-62500000D02*
X123500000Y-67500000D01*
X178500000Y-47500000D02*
X173500000Y-47500000D01*
X178500000Y-52500000D02*
X178500000Y-47500000D01*
X173500000Y-52500000D02*
X178500000Y-52500000D01*
X173500000Y-47500000D02*
X173500000Y-52500000D01*
X159500000Y-43500000D02*
X154500000Y-43500000D01*
X159500000Y-48500000D02*
X159500000Y-43500000D01*
X154500000Y-48500000D02*
X159500000Y-48500000D01*
X154500000Y-43500000D02*
X154500000Y-48500000D01*
X140500000Y-39500000D02*
X135500000Y-39500000D01*
X140500000Y-44500000D02*
X140500000Y-39500000D01*
X135500000Y-44500000D02*
X140500000Y-44500000D01*
X135500000Y-39500000D02*
X135500000Y-44500000D01*
X121500000Y-43500000D02*
X116500000Y-43500000D01*
X121500000Y-48500000D02*
X121500000Y-43500000D01*
X116500000Y-48500000D02*
X121500000Y-48500000D01*
X116500000Y-43500000D02*
X116500000Y-48500000D01*
X102500000Y-43500000D02*
X97500000Y-43500000D01*
X102500000Y-48500000D02*
X102500000Y-43500000D01*
X97500000Y-48500000D02*
X102500000Y-48500000D01*
X97500000Y-43500000D02*
X97500000Y-48500000D01*
X102500000Y-24500000D02*
X97500000Y-24500000D01*
X102500000Y-29500000D02*
X102500000Y-24500000D01*
X97500000Y-29500000D02*
X102500000Y-29500000D01*
X97500000Y-24500000D02*
X97500000Y-29500000D01*
X121500000Y-24500000D02*
X116500000Y-24500000D01*
X121500000Y-29500000D02*
X121500000Y-24500000D01*
X116500000Y-29500000D02*
X121500000Y-29500000D01*
X116500000Y-24500000D02*
X116500000Y-29500000D01*
X140500000Y-20500000D02*
X135500000Y-20500000D01*
X140500000Y-25500000D02*
X140500000Y-20500000D01*
X135500000Y-25500000D02*
X140500000Y-25500000D01*
X135500000Y-20500000D02*
X135500000Y-25500000D01*
X159500000Y-24500000D02*
X154500000Y-24500000D01*
X159500000Y-29500000D02*
X159500000Y-24500000D01*
X154500000Y-29500000D02*
X159500000Y-29500000D01*
X154500000Y-24500000D02*
X154500000Y-29500000D01*
X178500000Y-28500000D02*
X173500000Y-28500000D01*
X178500000Y-33500000D02*
X178500000Y-28500000D01*
X173500000Y-33500000D02*
X178500000Y-33500000D01*
X173500000Y-28500000D02*
X173500000Y-33500000D01*
X197500000Y-38000000D02*
X192500000Y-38000000D01*
X197500000Y-43000000D02*
X197500000Y-38000000D01*
X192500000Y-43000000D02*
X197500000Y-43000000D01*
X192500000Y-38000000D02*
X192500000Y-43000000D01*
X197500000Y-19000000D02*
X192500000Y-19000000D01*
X197500000Y-24000000D02*
X197500000Y-19000000D01*
X192500000Y-24000000D02*
X197500000Y-24000000D01*
X192500000Y-19000000D02*
X192500000Y-24000000D01*
X178500000Y-9500000D02*
X173500000Y-9500000D01*
X178500000Y-14500000D02*
X178500000Y-9500000D01*
X173500000Y-14500000D02*
X178500000Y-14500000D01*
X173500000Y-9500000D02*
X173500000Y-14500000D01*
X159500000Y-5500000D02*
X154500000Y-5500000D01*
X159500000Y-10500000D02*
X159500000Y-5500000D01*
X154500000Y-10500000D02*
X159500000Y-10500000D01*
X154500000Y-5500000D02*
X154500000Y-10500000D01*
X140500000Y-1500000D02*
X135500000Y-1500000D01*
X140500000Y-6500000D02*
X140500000Y-1500000D01*
X135500000Y-6500000D02*
X140500000Y-6500000D01*
X135500000Y-1500000D02*
X135500000Y-6500000D01*
X121500000Y-5500000D02*
X116500000Y-5500000D01*
X121500000Y-10500000D02*
X121500000Y-5500000D01*
X116500000Y-10500000D02*
X121500000Y-10500000D01*
X116500000Y-5500000D02*
X116500000Y-10500000D01*
X102500000Y-5500000D02*
X97500000Y-5500000D01*
X102500000Y-10500000D02*
X102500000Y-5500000D01*
X97500000Y-10500000D02*
X102500000Y-10500000D01*
X97500000Y-5500000D02*
X97500000Y-10500000D01*
X184500000Y-38000000D02*
X187500000Y-38000000D01*
X184500000Y-35000000D02*
X184500000Y-38000000D01*
X187500000Y-35000000D02*
X184500000Y-35000000D01*
X187500000Y-38000000D02*
X187500000Y-35000000D01*
X111000000Y-21500000D02*
X108000000Y-21500000D01*
X111000000Y-24500000D02*
X111000000Y-21500000D01*
X108000000Y-24500000D02*
X111000000Y-24500000D01*
X108000000Y-21500000D02*
X108000000Y-24500000D01*
X94500000Y-61000000D02*
X97500000Y-61000000D01*
X94500000Y-64000000D02*
X94500000Y-61000000D01*
X97500000Y-64000000D02*
X94500000Y-64000000D01*
X97500000Y-61000000D02*
X97500000Y-64000000D01*
X160500000Y-96000000D02*
X163500000Y-96000000D01*
X160500000Y-93000000D02*
X160500000Y-96000000D01*
X163500000Y-93000000D02*
X160500000Y-93000000D01*
X163500000Y-96000000D02*
X163500000Y-93000000D01*
X90500000Y-4000000D02*
X90500000Y-52089900D01*
X48619500Y-62376300D02*
X90500000Y-52089900D01*
X48619500Y-62376300D02*
X57683400Y-99279500D01*
X57683400Y-99279500D02*
X97500000Y-89500000D01*
X97500000Y-89500000D02*
X97500000Y-99000000D01*
X97500000Y-99000000D02*
X166500000Y-99000000D01*
X166500000Y-65000000D02*
X166500000Y-99000000D01*
X166500000Y-65000000D02*
X185500000Y-65000000D01*
X185500000Y-55500000D02*
X185500000Y-65000000D01*
X185500000Y-55500000D02*
X204500000Y-55500000D01*
X204500000Y-17500000D02*
X204500000Y-55500000D01*
X185500000Y-17500000D02*
X204500000Y-17500000D01*
X185500000Y-8000000D02*
X185500000Y-17500000D01*
X166500000Y-8000000D02*
X185500000Y-8000000D01*
X166500000Y-4000000D02*
X166500000Y-8000000D01*
X147500000Y-4000000D02*
X166500000Y-4000000D01*
X147500000Y0D02*
X147500000Y-4000000D01*
X128500000Y0D02*
X147500000Y0D01*
X128500000Y0D02*
X128500000Y-4000000D01*
X90500000Y-4000000D02*
X128500000Y-4000000D01*
M02*
