%TF.GenerationSoftware,KiCad,Pcbnew,(5.1.10)-1*%
%TF.CreationDate,2021-08-19T22:28:45-05:00*%
%TF.ProjectId,LeftHand,4c656674-4861-46e6-942e-6b696361645f,rev?*%
%TF.SameCoordinates,Original*%
%TF.FileFunction,Legend,Bot*%
%TF.FilePolarity,Positive*%
%FSLAX46Y46*%
G04 Gerber Fmt 4.6, Leading zero omitted, Abs format (unit mm)*
G04 Created by KiCad (PCBNEW (5.1.10)-1) date 2021-08-19 22:28:45*
%MOMM*%
%LPD*%
G01*
G04 APERTURE LIST*
%ADD10C,0.120000*%
G04 APERTURE END LIST*
D10*
%TO.C,KX1*%
X57500000Y-54500000D02*
X56500000Y-54500000D01*
X56500000Y-54500000D02*
X56500000Y-55500000D01*
X56500000Y-55500000D02*
X57500000Y-54500000D01*
%TO.C,KT2_2*%
X153338823Y-93458706D02*
X152606222Y-92249038D01*
X152367689Y-93220172D02*
X153338823Y-93458706D01*
X152606222Y-92249038D02*
X152367689Y-93220172D01*
%TO.C,KT2_1*%
X141975275Y-85518933D02*
X142213809Y-84547798D01*
X142213809Y-84547798D02*
X141242675Y-84309265D01*
X141242675Y-84309265D02*
X141975275Y-85518933D01*
%TO.C,KA1*%
X43500000Y-45570000D02*
X42500000Y-46570000D01*
X43500000Y-46570000D02*
X43500000Y-45570000D01*
X42500000Y-46570000D02*
X43500000Y-46570000D01*
%TO.C,KB1*%
X114500000Y-54500000D02*
X113500000Y-54500000D01*
X113500000Y-54500000D02*
X113500000Y-55500000D01*
X113500000Y-55500000D02*
X114500000Y-54500000D01*
%TO.C,KC1*%
X76500000Y-50500000D02*
X75500000Y-50500000D01*
X75500000Y-50500000D02*
X75500000Y-51500000D01*
X75500000Y-51500000D02*
X76500000Y-50500000D01*
%TO.C,KD1*%
X81500000Y-37570000D02*
X80500000Y-38570000D01*
X81500000Y-38570000D02*
X81500000Y-37570000D01*
X80500000Y-38570000D02*
X81500000Y-38570000D01*
%TO.C,KE1*%
X76500000Y-12500000D02*
X75500000Y-12500000D01*
X75500000Y-12500000D02*
X75500000Y-13500000D01*
X75500000Y-13500000D02*
X76500000Y-12500000D01*
%TO.C,KESC1*%
X19500000Y-30000000D02*
X18500000Y-30000000D01*
X18500000Y-30000000D02*
X18500000Y-31000000D01*
X18500000Y-31000000D02*
X19500000Y-30000000D01*
%TO.C,KF1*%
X100500000Y-41570000D02*
X99500000Y-42570000D01*
X100500000Y-42570000D02*
X100500000Y-41570000D01*
X99500000Y-42570000D02*
X100500000Y-42570000D01*
%TO.C,KG1*%
X119500000Y-41570000D02*
X118500000Y-42570000D01*
X119500000Y-42570000D02*
X119500000Y-41570000D01*
X118500000Y-42570000D02*
X119500000Y-42570000D01*
%TO.C,KQ1*%
X38500000Y-20500000D02*
X37500000Y-20500000D01*
X37500000Y-20500000D02*
X37500000Y-21500000D01*
X37500000Y-21500000D02*
X38500000Y-20500000D01*
%TO.C,KR1*%
X95500000Y-16500000D02*
X94500000Y-16500000D01*
X94500000Y-16500000D02*
X94500000Y-17500000D01*
X94500000Y-17500000D02*
X95500000Y-16500000D01*
%TO.C,KS1*%
X62500000Y-41570000D02*
X61500000Y-42570000D01*
X62500000Y-42570000D02*
X62500000Y-41570000D01*
X61500000Y-42570000D02*
X62500000Y-42570000D01*
%TO.C,KT1*%
X114500000Y-16500000D02*
X113500000Y-16500000D01*
X113500000Y-16500000D02*
X113500000Y-17500000D01*
X113500000Y-17500000D02*
X114500000Y-16500000D01*
%TO.C,KTAB1*%
X24500000Y-55070000D02*
X23500000Y-56070000D01*
X24500000Y-56070000D02*
X24500000Y-55070000D01*
X23500000Y-56070000D02*
X24500000Y-56070000D01*
%TO.C,KTG_A1*%
X112500000Y-79570000D02*
X111500000Y-80570000D01*
X112500000Y-80570000D02*
X112500000Y-79570000D01*
X111500000Y-80570000D02*
X112500000Y-80570000D01*
%TO.C,KTG_B1*%
X93500000Y-79570000D02*
X92500000Y-80570000D01*
X93500000Y-80570000D02*
X93500000Y-79570000D01*
X92500000Y-80570000D02*
X93500000Y-80570000D01*
%TO.C,KTG_C1*%
X107500000Y-92500000D02*
X106500000Y-92500000D01*
X106500000Y-92500000D02*
X106500000Y-93500000D01*
X106500000Y-93500000D02*
X107500000Y-92500000D01*
%TO.C,KTG_D1*%
X88500000Y-92500000D02*
X87500000Y-92500000D01*
X87500000Y-92500000D02*
X87500000Y-93500000D01*
X87500000Y-93500000D02*
X88500000Y-92500000D01*
%TO.C,KV1*%
X95500000Y-54500000D02*
X94500000Y-54500000D01*
X94500000Y-54500000D02*
X94500000Y-55500000D01*
X94500000Y-55500000D02*
X95500000Y-54500000D01*
%TO.C,KW1*%
X57500000Y-16500000D02*
X56500000Y-16500000D01*
X56500000Y-16500000D02*
X56500000Y-17500000D01*
X56500000Y-17500000D02*
X57500000Y-16500000D01*
%TO.C,KZ1*%
X38500000Y-58500000D02*
X37500000Y-58500000D01*
X37500000Y-58500000D02*
X37500000Y-59500000D01*
X37500000Y-59500000D02*
X38500000Y-58500000D01*
%TD*%
M02*
