M48
; DRILL file {KiCad (5.1.10)-1} date 08/19/21 22:28:49
; FORMAT={-:-/ absolute / inch / decimal}
; #@! TF.CreationDate,2021-08-19T22:28:49-05:00
; #@! TF.GenerationSoftware,Kicad,Pcbnew,(5.1.10)-1
FMAT,2
INCH
T1C0.0157
T2C0.0307
T3C0.0390
T4C0.0394
T5C0.0591
T6C0.0669
T7C0.1201
T8C0.1575
%
G90
G05
T1
X0.5118Y-1.2598
X0.5118Y-1.6535
X0.5709Y-1.3386
X0.5709Y-1.437
X0.6496Y-1.378
X0.6693Y-2.0669
X0.689Y-2.4016
X1.0827Y-1.9291
X1.122Y-2.185
X1.122Y-2.3819
X1.1811Y-2.4803
X1.2402Y-1.3976
X1.2992Y-1.4567
X1.4764Y-1.0827
X1.5748Y-1.4567
X1.5748Y-1.5551
X1.7126Y-1.5551
X1.9291Y-2.5591
X1.9488Y-2.4754
X2.0276Y-1.3583
X2.0276Y-3.6417
X2.0669Y-1.4961
X2.2244Y-0.9252
X2.2441Y-3.2874
X2.3031Y-3.4449
X2.3425Y-3.2677
X2.4409Y-3.2392
X2.4409Y-3.6024
X2.4803Y-1.4173
X2.5197Y-3.001
X2.7362Y-3.3014
X2.7559Y-2.3179
X2.7559Y-2.8346
X2.7756Y-0.8219
X2.7953Y-2.9134
X2.815Y-4.0157
X2.874Y-1.752
X2.9331Y-2.8937
X2.9528Y-2.4213
X3.0118Y-2.7559
X3.2087Y-4.0157
X3.248Y-3.1102
X3.248Y-3.6417
X3.2677Y-1.3189
X3.2874Y-3.0315
X3.2874Y-3.7795
X3.3159Y-3.1102
X3.3268Y-3.7205
X3.3465Y-3.8583
X3.3661Y-1.1811
X3.4252Y-0.8465
X3.563Y-1.378
X3.6417Y-2.3425
X3.6614Y-2.7756
X3.7402Y-2.9724
X3.7402Y-3.9173
X3.8386Y-3.4252
X3.8386Y-3.8976
X3.8976Y-2.9921
X3.8976Y-3.8386
X4.0157Y-1.4764
X4.0354Y-0.8465
X4.0354Y-3.5433
X4.0748Y-3.6024
X4.0748Y-3.8386
X4.1142Y-1.0039
X4.1142Y-1.4764
X4.1142Y-2.4409
X4.252Y-2.874
X4.311Y-2.3425
X4.3307Y-1.3976
X4.5079Y-2.9528
X4.5276Y-3.1496
X4.5669Y-2.6772
X4.5669Y-3.0315
X4.5866Y-3.0709
X4.5955Y-2.7165
X4.626Y-2.7559
X4.626Y-3.7008
X4.6457Y-3.0315
X4.6654Y-3.7795
X4.685Y-3.0709
X4.8228Y-3.563
X4.8425Y-0.7874
X4.8425Y-1.5354
X4.8425Y-2.2835
X4.8425Y-2.6575
X4.8622Y-0.7283
X4.8622Y-1.5945
X4.8622Y-2.6969
X4.8622Y-3.4646
X4.8819Y-2.2244
X4.9213Y-3.003
X4.9409Y-3.3465
X5.0984Y-3.7402
X5.2362Y-3.6811
X5.315Y-3.248
X5.315Y-3.248
X5.3543Y-3.7008
X5.4134Y-3.7795
X5.4331Y-3.1299
X5.4724Y-3.8386
X5.9252Y-3.4055
X6.0827Y-3.8386
X6.122Y-3.7992
T2
X2.2484Y-3.0524
X2.2484Y-3.365
X2.3484Y-3.0524
X2.3484Y-3.365
X2.4484Y-3.0524
X2.4484Y-3.365
X2.5484Y-3.0524
X2.5484Y-3.365
X2.5602Y-3.587
X2.5602Y-3.687
X2.5602Y-3.787
X2.5602Y-3.887
X2.5602Y-3.987
X2.5602Y-4.087
X2.5602Y-4.187
X2.5602Y-4.287
X2.6484Y-3.0524
X2.6484Y-3.365
X2.7484Y-3.0524
X2.7484Y-3.365
X2.8484Y-3.0524
X2.8484Y-3.365
X2.8728Y-3.587
X2.8728Y-3.687
X2.8728Y-3.787
X2.8728Y-3.887
X2.8728Y-3.987
X2.8728Y-4.087
X2.8728Y-4.187
X2.8728Y-4.287
X2.9484Y-3.0524
X2.9484Y-3.365
X3.0118Y-3.563
X3.0118Y-3.878
X3.0118Y-3.9764
X3.0118Y-4.2913
X3.1102Y-3.563
X3.1102Y-3.878
X3.1102Y-3.9764
X3.1102Y-4.2913
T3
X0.7465Y-1.8504
X0.7465Y-2.5984
X1.022Y-1.8504
X1.022Y-2.5984
X1.4945Y-1.4764
X1.4945Y-2.2244
X1.4945Y-2.9724
X1.7701Y-1.4764
X1.7701Y-2.2244
X1.7701Y-2.9724
X2.2425Y-1.3189
X2.2425Y-2.0669
X2.2425Y-2.815
X2.5181Y-1.3189
X2.5181Y-2.0669
X2.5181Y-2.815
X2.9906Y-1.1614
X2.9906Y-1.9094
X2.9906Y-2.6575
X3.2661Y-1.1614
X3.2661Y-1.9094
X3.2661Y-2.6575
X3.463Y-3.563
X3.463Y-4.311
X3.7386Y-1.3189
X3.7386Y-2.0669
X3.7386Y-2.815
X3.7386Y-3.563
X3.7386Y-4.311
X4.0142Y-1.3189
X4.0142Y-2.0669
X4.0142Y-2.815
X4.211Y-3.563
X4.211Y-4.311
X4.4866Y-1.3189
X4.4866Y-2.0669
X4.4866Y-2.815
X4.4866Y-3.563
X4.4866Y-4.311
X4.7622Y-1.3189
X4.7622Y-2.0669
X4.7622Y-2.815
X5.1921Y-2.6612
X5.4628Y-2.7276
X5.6054Y-3.6327
X5.6711Y-3.365
T4
X2.2913Y-3.6811
X2.2913Y-3.8189
X2.2913Y-3.8976
X2.2913Y-3.9961
X2.4016Y-3.6811
X2.4016Y-3.7598
X2.4016Y-3.8386
X2.4016Y-3.9173
X2.4016Y-3.9961
T5
X0.7465Y-1.7354
X0.7465Y-2.4835
X0.9965Y-1.6354
X0.9965Y-2.3835
X1.4945Y-1.3614
X1.4945Y-2.1094
X1.4945Y-2.8575
X1.7445Y-1.2614
X1.7445Y-2.0094
X1.7445Y-2.7575
X2.2425Y-1.2039
X2.2425Y-1.952
X2.2425Y-2.7
X2.4925Y-1.1039
X2.4925Y-1.852
X2.4925Y-2.6
X2.9906Y-1.0465
X2.9906Y-1.7945
X2.9906Y-2.5425
X3.2406Y-0.9465
X3.2406Y-1.6945
X3.2406Y-2.4425
X3.463Y-3.448
X3.463Y-4.1961
X3.713Y-3.348
X3.713Y-4.0961
X3.7386Y-1.2039
X3.7386Y-1.952
X3.7386Y-2.7
X3.9886Y-1.1039
X3.9886Y-1.852
X3.9886Y-2.6
X4.211Y-3.448
X4.211Y-4.1961
X4.461Y-3.348
X4.461Y-4.0961
X4.4866Y-1.2039
X4.4866Y-1.952
X4.4866Y-2.7
X4.7366Y-1.1039
X4.7366Y-1.852
X4.7366Y-2.6
X5.0563Y-3.214
X5.0938Y-3.4807
X5.7827Y-3.3924
X5.8202Y-3.6591
T6
X0.6496Y-1.5354
X0.6496Y-2.2835
X1.0433Y-1.5354
X1.0433Y-2.2835
X1.3976Y-1.1614
X1.3976Y-1.9094
X1.3976Y-2.6575
X1.7913Y-1.1614
X1.7913Y-1.9094
X1.7913Y-2.6575
X2.1457Y-1.0039
X2.1457Y-1.752
X2.1457Y-2.5
X2.5394Y-1.0039
X2.5394Y-1.752
X2.5394Y-2.5
X2.8937Y-0.8465
X2.8937Y-1.5945
X2.8937Y-2.3425
X3.2874Y-0.8465
X3.2874Y-1.5945
X3.2874Y-2.3425
X3.3661Y-3.248
X3.3661Y-3.9961
X3.6417Y-1.0039
X3.6417Y-1.752
X3.6417Y-2.5
X3.7598Y-3.248
X3.7598Y-3.9961
X4.0354Y-1.0039
X4.0354Y-1.752
X4.0354Y-2.5
X4.1142Y-3.248
X4.1142Y-3.9961
X4.3898Y-1.0039
X4.3898Y-1.752
X4.3898Y-2.5
X4.5079Y-3.248
X4.5079Y-3.9961
X4.7835Y-1.0039
X4.7835Y-1.752
X4.7835Y-2.5
X5.1797Y-3.55
X5.2736Y-3.1677
X5.9062Y-3.7284
X6.0001Y-3.3461
T7
X5.3822Y-3.8811
X5.5733Y-3.928
X5.6065Y-2.9681
X5.7976Y-3.015
T8
X0.8465Y-1.5354
X0.8465Y-2.2835
X1.5945Y-1.1614
X1.5945Y-1.9094
X1.5945Y-2.6575
X2.3425Y-1.0039
X2.3425Y-1.752
X2.3425Y-2.5
X3.0906Y-0.8465
X3.0906Y-1.5945
X3.0906Y-2.3425
X3.563Y-3.248
X3.563Y-3.9961
X3.8386Y-1.0039
X3.8386Y-1.752
X3.8386Y-2.5
X4.311Y-3.248
X4.311Y-3.9961
X4.5866Y-1.0039
X4.5866Y-1.752
X4.5866Y-2.5
X4.7995Y-3.738
X5.0238Y-2.8249
X5.2267Y-3.3588
X5.9531Y-3.5373
X6.156Y-4.0712
X6.3803Y-3.1581
T4
G00X2.1594Y-3.8091
M15
G01X2.1594Y-3.8681
M16
G05
T0
M30
