%TF.GenerationSoftware,KiCad,Pcbnew,(5.1.10)-1*%
%TF.CreationDate,2021-08-19T22:28:45-05:00*%
%TF.ProjectId,LeftHand,4c656674-4861-46e6-942e-6b696361645f,rev?*%
%TF.SameCoordinates,Original*%
%TF.FileFunction,Profile,NP*%
%FSLAX46Y46*%
G04 Gerber Fmt 4.6, Leading zero omitted, Abs format (unit mm)*
G04 Created by KiCad (PCBNEW (5.1.10)-1) date 2021-08-19 22:28:45*
%MOMM*%
%LPD*%
G01*
G04 APERTURE LIST*
%TA.AperFunction,Profile*%
%ADD10C,0.050000*%
%TD*%
G04 APERTURE END LIST*
D10*
X118800000Y-76000000D02*
X118800000Y-73000000D01*
X122200000Y-76000000D02*
X118800000Y-76000000D01*
X122200000Y-73000000D02*
X122200000Y-76000000D01*
X118800000Y-73000000D02*
X122200000Y-73000000D01*
X105300000Y-33500000D02*
X108700000Y-33500000D01*
X105300000Y-36500000D02*
X105300000Y-33500000D01*
X108700000Y-36500000D02*
X105300000Y-36500000D01*
X108700000Y-33500000D02*
X108700000Y-36500000D01*
X32700000Y-50000000D02*
X32700000Y-47000000D01*
X29300000Y-50000000D02*
X32700000Y-50000000D01*
X29300000Y-47000000D02*
X29300000Y-50000000D01*
X32700000Y-47000000D02*
X29300000Y-47000000D01*
X56200000Y-105000000D02*
X52800000Y-105000000D01*
X56200000Y-108000000D02*
X56200000Y-105000000D01*
X52800000Y-108000000D02*
X56200000Y-108000000D01*
X52800000Y-105000000D02*
X52800000Y-108000000D01*
X69000000Y-12000000D02*
X69000000Y-16000000D01*
X50000000Y-16000000D02*
X69000000Y-16000000D01*
X50000000Y-16000000D02*
X50000000Y-20000000D01*
X31000000Y-20000000D02*
X50000000Y-20000000D01*
X31000000Y-20000000D02*
X31000000Y-29500000D01*
X12000000Y-29500000D02*
X31000000Y-29500000D01*
X12000000Y-29500000D02*
X12000000Y-67500000D01*
X12000000Y-67500000D02*
X31000000Y-67500000D01*
X31000000Y-67500000D02*
X31000000Y-77000000D01*
X31000000Y-77000000D02*
X50000000Y-77000000D01*
X50000000Y-77000000D02*
X50000000Y-111000000D01*
X50000000Y-111000000D02*
X119000000Y-111000000D01*
X119000000Y-101500000D02*
X119000000Y-111000000D01*
X119000000Y-101500000D02*
X158817000Y-111280000D01*
X167881000Y-74376300D02*
X158817000Y-111280000D01*
X126000000Y-64089900D02*
X167881000Y-74376300D01*
X126000000Y-16000000D02*
X126000000Y-64089900D01*
X88000000Y-16000000D02*
X126000000Y-16000000D01*
X88000000Y-12000000D02*
X88000000Y-16000000D01*
X69000000Y-12000000D02*
X88000000Y-12000000D01*
%TO.C,KX1*%
X56825000Y-60500000D02*
X56825000Y-55500000D01*
X62175000Y-60500000D02*
X56825000Y-60500000D01*
X62175000Y-55500000D02*
X62175000Y-60500000D01*
X56825000Y-55500000D02*
X62175000Y-55500000D01*
%TO.C,KT2_2*%
X154760480Y-87964216D02*
X159616151Y-89156883D01*
X153484326Y-93159785D02*
X154760480Y-87964216D01*
X158339997Y-94352452D02*
X153484326Y-93159785D01*
X159616151Y-89156883D02*
X158339997Y-94352452D01*
%TO.C,KT2_1*%
X136309480Y-83432216D02*
X141165151Y-84624883D01*
X135033326Y-88627785D02*
X136309480Y-83432216D01*
X139888997Y-89820452D02*
X135033326Y-88627785D01*
X141165151Y-84624883D02*
X139888997Y-89820452D01*
%TO.C,KA1*%
X37825000Y-45500000D02*
X37825000Y-40500000D01*
X43175000Y-45500000D02*
X37825000Y-45500000D01*
X43175000Y-40500000D02*
X43175000Y-45500000D01*
X37825000Y-40500000D02*
X43175000Y-40500000D01*
%TO.C,KB1*%
X113825000Y-60500000D02*
X113825000Y-55500000D01*
X119175000Y-60500000D02*
X113825000Y-60500000D01*
X119175000Y-55500000D02*
X119175000Y-60500000D01*
X113825000Y-55500000D02*
X119175000Y-55500000D01*
%TO.C,KC1*%
X75825000Y-56500000D02*
X75825000Y-51500000D01*
X81175000Y-56500000D02*
X75825000Y-56500000D01*
X81175000Y-51500000D02*
X81175000Y-56500000D01*
X75825000Y-51500000D02*
X81175000Y-51500000D01*
%TO.C,KD1*%
X75825000Y-37500000D02*
X75825000Y-32500000D01*
X81175000Y-37500000D02*
X75825000Y-37500000D01*
X81175000Y-32500000D02*
X81175000Y-37500000D01*
X75825000Y-32500000D02*
X81175000Y-32500000D01*
%TO.C,KE1*%
X75825000Y-18500000D02*
X75825000Y-13500000D01*
X81175000Y-18500000D02*
X75825000Y-18500000D01*
X81175000Y-13500000D02*
X81175000Y-18500000D01*
X75825000Y-13500000D02*
X81175000Y-13500000D01*
%TO.C,KESC1*%
X18825000Y-36000000D02*
X18825000Y-31000000D01*
X24175000Y-36000000D02*
X18825000Y-36000000D01*
X24175000Y-31000000D02*
X24175000Y-36000000D01*
X18825000Y-31000000D02*
X24175000Y-31000000D01*
%TO.C,KF1*%
X94825000Y-41500000D02*
X94825000Y-36500000D01*
X100175000Y-41500000D02*
X94825000Y-41500000D01*
X100175000Y-36500000D02*
X100175000Y-41500000D01*
X94825000Y-36500000D02*
X100175000Y-36500000D01*
%TO.C,KG1*%
X113825000Y-41500000D02*
X113825000Y-36500000D01*
X119175000Y-41500000D02*
X113825000Y-41500000D01*
X119175000Y-36500000D02*
X119175000Y-41500000D01*
X113825000Y-36500000D02*
X119175000Y-36500000D01*
%TO.C,KQ1*%
X37825000Y-26500000D02*
X37825000Y-21500000D01*
X43175000Y-26500000D02*
X37825000Y-26500000D01*
X43175000Y-21500000D02*
X43175000Y-26500000D01*
X37825000Y-21500000D02*
X43175000Y-21500000D01*
%TO.C,KR1*%
X94825000Y-22500000D02*
X94825000Y-17500000D01*
X100175000Y-22500000D02*
X94825000Y-22500000D01*
X100175000Y-17500000D02*
X100175000Y-22500000D01*
X94825000Y-17500000D02*
X100175000Y-17500000D01*
%TO.C,KS1*%
X56825000Y-41500000D02*
X56825000Y-36500000D01*
X62175000Y-41500000D02*
X56825000Y-41500000D01*
X62175000Y-36500000D02*
X62175000Y-41500000D01*
X56825000Y-36500000D02*
X62175000Y-36500000D01*
%TO.C,KT1*%
X113825000Y-22500000D02*
X113825000Y-17500000D01*
X119175000Y-22500000D02*
X113825000Y-22500000D01*
X119175000Y-17500000D02*
X119175000Y-22500000D01*
X113825000Y-17500000D02*
X119175000Y-17500000D01*
%TO.C,KTAB1*%
X18825000Y-55000000D02*
X18825000Y-50000000D01*
X24175000Y-55000000D02*
X18825000Y-55000000D01*
X24175000Y-50000000D02*
X24175000Y-55000000D01*
X18825000Y-50000000D02*
X24175000Y-50000000D01*
%TO.C,KTG_A1*%
X106825000Y-79500000D02*
X106825000Y-74500000D01*
X112175000Y-79500000D02*
X106825000Y-79500000D01*
X112175000Y-74500000D02*
X112175000Y-79500000D01*
X106825000Y-74500000D02*
X112175000Y-74500000D01*
%TO.C,KTG_B1*%
X87825000Y-79500000D02*
X87825000Y-74500000D01*
X93175000Y-79500000D02*
X87825000Y-79500000D01*
X93175000Y-74500000D02*
X93175000Y-79500000D01*
X87825000Y-74500000D02*
X93175000Y-74500000D01*
%TO.C,KTG_C1*%
X106825000Y-98500000D02*
X106825000Y-93500000D01*
X112175000Y-98500000D02*
X106825000Y-98500000D01*
X112175000Y-93500000D02*
X112175000Y-98500000D01*
X106825000Y-93500000D02*
X112175000Y-93500000D01*
%TO.C,KTG_D1*%
X87825000Y-98500000D02*
X87825000Y-93500000D01*
X93175000Y-98500000D02*
X87825000Y-98500000D01*
X93175000Y-93500000D02*
X93175000Y-98500000D01*
X87825000Y-93500000D02*
X93175000Y-93500000D01*
%TO.C,KV1*%
X94825000Y-60500000D02*
X94825000Y-55500000D01*
X100175000Y-60500000D02*
X94825000Y-60500000D01*
X100175000Y-55500000D02*
X100175000Y-60500000D01*
X94825000Y-55500000D02*
X100175000Y-55500000D01*
%TO.C,KW1*%
X56825000Y-22500000D02*
X56825000Y-17500000D01*
X62175000Y-22500000D02*
X56825000Y-22500000D01*
X62175000Y-17500000D02*
X62175000Y-22500000D01*
X56825000Y-17500000D02*
X62175000Y-17500000D01*
%TO.C,KZ1*%
X37825000Y-64500000D02*
X37825000Y-59500000D01*
X43175000Y-64500000D02*
X37825000Y-64500000D01*
X43175000Y-59500000D02*
X43175000Y-64500000D01*
X37825000Y-59500000D02*
X43175000Y-59500000D01*
%TD*%
M02*
