G04 (created by PCBNEW (2013-07-07 BZR 4022)-stable) date 10/28/2014 2:01:09 AM*
%MOIN*%
G04 Gerber Fmt 3.4, Leading zero omitted, Abs format*
%FSLAX34Y34*%
G01*
G70*
G90*
G04 APERTURE LIST*
%ADD10C,0.00590551*%
%ADD11C,0.09*%
%ADD12C,0.157*%
%ADD13C,0.065*%
%ADD14R,0.065X0.065*%
%ADD15R,0.06X0.06*%
%ADD16C,0.06*%
%ADD17C,0.035*%
%ADD18C,0.01*%
G04 APERTURE END LIST*
G54D10*
G54D11*
X22259Y-16110D03*
X19759Y-17110D03*
G54D12*
X21259Y-18110D03*
G54D13*
X17759Y-17110D03*
G54D14*
X17759Y-20110D03*
G54D13*
X20759Y-20110D03*
G54D14*
X21759Y-20110D03*
X19291Y-21610D03*
G54D13*
X23228Y-21610D03*
G54D11*
X61629Y-57055D03*
X59129Y-58055D03*
G54D12*
X60629Y-59055D03*
G54D13*
X57129Y-58055D03*
G54D14*
X57129Y-61055D03*
G54D13*
X60129Y-61055D03*
G54D14*
X61129Y-61055D03*
X58661Y-62555D03*
G54D13*
X62598Y-62555D03*
G54D11*
X50409Y-57055D03*
X47909Y-58055D03*
G54D12*
X49409Y-59055D03*
G54D13*
X45909Y-58055D03*
G54D14*
X45909Y-61055D03*
G54D13*
X48909Y-61055D03*
G54D14*
X49909Y-61055D03*
X47440Y-62555D03*
G54D13*
X51377Y-62555D03*
G54D11*
X69110Y-53314D03*
X66610Y-54314D03*
G54D12*
X68110Y-55314D03*
G54D13*
X64610Y-54314D03*
G54D14*
X64610Y-57314D03*
G54D13*
X67610Y-57314D03*
G54D14*
X68610Y-57314D03*
X66141Y-58814D03*
G54D13*
X70078Y-58814D03*
G54D11*
X61629Y-49574D03*
X59129Y-50574D03*
G54D12*
X60629Y-51574D03*
G54D13*
X57129Y-50574D03*
G54D14*
X57129Y-53574D03*
G54D13*
X60129Y-53574D03*
G54D14*
X61129Y-53574D03*
X58661Y-55074D03*
G54D13*
X62598Y-55074D03*
G54D11*
X54149Y-49574D03*
X51649Y-50574D03*
G54D12*
X53149Y-51574D03*
G54D13*
X49649Y-50574D03*
G54D14*
X49649Y-53574D03*
G54D13*
X52649Y-53574D03*
G54D14*
X53649Y-53574D03*
X51181Y-55074D03*
G54D13*
X55118Y-55074D03*
G54D11*
X46669Y-49574D03*
X44169Y-50574D03*
G54D12*
X45669Y-51574D03*
G54D13*
X42169Y-50574D03*
G54D14*
X42169Y-53574D03*
G54D13*
X45169Y-53574D03*
G54D14*
X46169Y-53574D03*
X43700Y-55074D03*
G54D13*
X47637Y-55074D03*
G54D11*
X69110Y-38354D03*
X66610Y-39354D03*
G54D12*
X68110Y-40354D03*
G54D13*
X64610Y-39354D03*
G54D14*
X64610Y-42354D03*
G54D13*
X67610Y-42354D03*
G54D14*
X68610Y-42354D03*
X66141Y-43854D03*
G54D13*
X70078Y-43854D03*
G54D11*
X69110Y-27133D03*
X66610Y-28133D03*
G54D12*
X68110Y-29133D03*
G54D13*
X64610Y-28133D03*
G54D14*
X64610Y-31133D03*
G54D13*
X67610Y-31133D03*
G54D14*
X68610Y-31133D03*
X66141Y-32633D03*
G54D13*
X70078Y-32633D03*
G54D11*
X61629Y-42094D03*
X59129Y-43094D03*
G54D12*
X60629Y-44094D03*
G54D13*
X57129Y-43094D03*
G54D14*
X57129Y-46094D03*
G54D13*
X60129Y-46094D03*
G54D14*
X61129Y-46094D03*
X58661Y-47594D03*
G54D13*
X62598Y-47594D03*
G54D11*
X54149Y-42094D03*
X51649Y-43094D03*
G54D12*
X53149Y-44094D03*
G54D13*
X49649Y-43094D03*
G54D14*
X49649Y-46094D03*
G54D13*
X52649Y-46094D03*
G54D14*
X53649Y-46094D03*
X51181Y-47594D03*
G54D13*
X55118Y-47594D03*
G54D11*
X46669Y-42094D03*
X44169Y-43094D03*
G54D12*
X45669Y-44094D03*
G54D13*
X42169Y-43094D03*
G54D14*
X42169Y-46094D03*
G54D13*
X45169Y-46094D03*
G54D14*
X46169Y-46094D03*
X43700Y-47594D03*
G54D13*
X47637Y-47594D03*
G54D11*
X61629Y-34614D03*
X59129Y-35614D03*
G54D12*
X60629Y-36614D03*
G54D13*
X57129Y-35614D03*
G54D14*
X57129Y-38614D03*
G54D13*
X60129Y-38614D03*
G54D14*
X61129Y-38614D03*
X58661Y-40114D03*
G54D13*
X62598Y-40114D03*
G54D11*
X54149Y-34614D03*
X51649Y-35614D03*
G54D12*
X53149Y-36614D03*
G54D13*
X49649Y-35614D03*
G54D14*
X49649Y-38614D03*
G54D13*
X52649Y-38614D03*
G54D14*
X53649Y-38614D03*
X51181Y-40114D03*
G54D13*
X55118Y-40114D03*
G54D11*
X46669Y-34614D03*
X44169Y-35614D03*
G54D12*
X45669Y-36614D03*
G54D13*
X42169Y-35614D03*
G54D14*
X42169Y-38614D03*
G54D13*
X45169Y-38614D03*
G54D14*
X46169Y-38614D03*
X43700Y-40114D03*
G54D13*
X47637Y-40114D03*
G54D11*
X61629Y-27133D03*
X59129Y-28133D03*
G54D12*
X60629Y-29133D03*
G54D13*
X57129Y-28133D03*
G54D14*
X57129Y-31133D03*
G54D13*
X60129Y-31133D03*
G54D14*
X61129Y-31133D03*
X58661Y-32633D03*
G54D13*
X62598Y-32633D03*
G54D11*
X29740Y-16110D03*
X27240Y-17110D03*
G54D12*
X28740Y-18110D03*
G54D13*
X25240Y-17110D03*
G54D14*
X25240Y-20110D03*
G54D13*
X28240Y-20110D03*
G54D14*
X29240Y-20110D03*
X26771Y-21610D03*
G54D13*
X30708Y-21610D03*
G54D11*
X37220Y-16110D03*
X34720Y-17110D03*
G54D12*
X36220Y-18110D03*
G54D13*
X32720Y-17110D03*
G54D14*
X32720Y-20110D03*
G54D13*
X35720Y-20110D03*
G54D14*
X36720Y-20110D03*
X34251Y-21610D03*
G54D13*
X38188Y-21610D03*
G54D11*
X22259Y-27133D03*
X19759Y-28133D03*
G54D12*
X21259Y-29133D03*
G54D13*
X17759Y-28133D03*
G54D14*
X17759Y-31133D03*
G54D13*
X20759Y-31133D03*
G54D14*
X21759Y-31133D03*
X19291Y-32633D03*
G54D13*
X23228Y-32633D03*
G54D11*
X29740Y-27133D03*
X27240Y-28133D03*
G54D12*
X28740Y-29133D03*
G54D13*
X25240Y-28133D03*
G54D14*
X25240Y-31133D03*
G54D13*
X28240Y-31133D03*
G54D14*
X29240Y-31133D03*
X26771Y-32633D03*
G54D13*
X30708Y-32633D03*
G54D11*
X37220Y-27133D03*
X34720Y-28133D03*
G54D12*
X36220Y-29133D03*
G54D13*
X32720Y-28133D03*
G54D14*
X32720Y-31133D03*
G54D13*
X35720Y-31133D03*
G54D14*
X36720Y-31133D03*
X34251Y-32633D03*
G54D13*
X38188Y-32633D03*
G54D11*
X22259Y-34614D03*
X19759Y-35614D03*
G54D12*
X21259Y-36614D03*
G54D13*
X17759Y-35614D03*
G54D14*
X17759Y-38614D03*
G54D13*
X20759Y-38614D03*
G54D14*
X21759Y-38614D03*
X19291Y-40114D03*
G54D13*
X23228Y-40114D03*
G54D11*
X29740Y-34614D03*
X27240Y-35614D03*
G54D12*
X28740Y-36614D03*
G54D13*
X25240Y-35614D03*
G54D14*
X25240Y-38614D03*
G54D13*
X28240Y-38614D03*
G54D14*
X29240Y-38614D03*
X26771Y-40114D03*
G54D13*
X30708Y-40114D03*
G54D11*
X37220Y-34614D03*
X34720Y-35614D03*
G54D12*
X36220Y-36614D03*
G54D13*
X32720Y-35614D03*
G54D14*
X32720Y-38614D03*
G54D13*
X35720Y-38614D03*
G54D14*
X36720Y-38614D03*
X34251Y-40114D03*
G54D13*
X38188Y-40114D03*
G54D11*
X29740Y-49574D03*
X27240Y-50574D03*
G54D12*
X28740Y-51574D03*
G54D13*
X25240Y-50574D03*
G54D14*
X25240Y-53574D03*
G54D13*
X28240Y-53574D03*
G54D14*
X29240Y-53574D03*
X26771Y-55074D03*
G54D13*
X30708Y-55074D03*
G54D11*
X22259Y-57055D03*
X19759Y-58055D03*
G54D12*
X21259Y-59055D03*
G54D13*
X17759Y-58055D03*
G54D14*
X17759Y-61055D03*
G54D13*
X20759Y-61055D03*
G54D14*
X21759Y-61055D03*
X19291Y-62555D03*
G54D13*
X23228Y-62555D03*
G54D11*
X29740Y-57055D03*
X27240Y-58055D03*
G54D12*
X28740Y-59055D03*
G54D13*
X25240Y-58055D03*
G54D14*
X25240Y-61055D03*
G54D13*
X28240Y-61055D03*
G54D14*
X29240Y-61055D03*
X26771Y-62555D03*
G54D13*
X30708Y-62555D03*
G54D11*
X37220Y-57055D03*
X34720Y-58055D03*
G54D12*
X36220Y-59055D03*
G54D13*
X32720Y-58055D03*
G54D14*
X32720Y-61055D03*
G54D13*
X35720Y-61055D03*
G54D14*
X36720Y-61055D03*
X34251Y-62555D03*
G54D13*
X38188Y-62555D03*
G54D11*
X46669Y-27133D03*
X44169Y-28133D03*
G54D12*
X45669Y-29133D03*
G54D13*
X42169Y-28133D03*
G54D14*
X42169Y-31133D03*
G54D13*
X45169Y-31133D03*
G54D14*
X46169Y-31133D03*
X43700Y-32633D03*
G54D13*
X47637Y-32633D03*
G54D11*
X54149Y-27133D03*
X51649Y-28133D03*
G54D12*
X53149Y-29133D03*
G54D13*
X49649Y-28133D03*
G54D14*
X49649Y-31133D03*
G54D13*
X52649Y-31133D03*
G54D14*
X53649Y-31133D03*
X51181Y-32633D03*
G54D13*
X55118Y-32633D03*
G54D15*
X62173Y-14476D03*
G54D16*
X62173Y-13476D03*
X63173Y-14476D03*
X63173Y-13476D03*
X64173Y-14476D03*
X64173Y-13476D03*
X65173Y-14476D03*
X65173Y-13476D03*
X66173Y-14476D03*
X66173Y-13476D03*
G54D15*
X70062Y-14476D03*
G54D16*
X70062Y-13476D03*
X71062Y-14476D03*
X71062Y-13476D03*
X72062Y-14476D03*
X72062Y-13476D03*
G54D17*
X43307Y-24803D03*
X68110Y-22047D03*
X68110Y-19685D03*
X48425Y-14566D03*
X45275Y-14566D03*
X33464Y-24409D03*
X42125Y-24409D03*
X31496Y-23622D03*
X63385Y-28346D03*
X56299Y-27165D03*
X48031Y-15354D03*
X42519Y-14173D03*
G54D18*
X70062Y-14476D02*
X70062Y-19024D01*
X55299Y-25984D02*
X54149Y-27133D01*
X63102Y-25984D02*
X55299Y-25984D01*
X70062Y-19024D02*
X63102Y-25984D01*
X54149Y-34614D02*
X54149Y-32070D01*
X54724Y-27708D02*
X54149Y-27133D01*
X54724Y-31496D02*
X54724Y-27708D01*
X54149Y-32070D02*
X54724Y-31496D01*
X54149Y-42094D02*
X54149Y-39551D01*
X54724Y-35188D02*
X54149Y-34614D01*
X54724Y-38976D02*
X54724Y-35188D01*
X54149Y-39551D02*
X54724Y-38976D01*
X54149Y-49574D02*
X54149Y-47031D01*
X55118Y-43062D02*
X54149Y-42094D01*
X55118Y-46062D02*
X55118Y-43062D01*
X54149Y-47031D02*
X55118Y-46062D01*
X22259Y-27133D02*
X22259Y-21047D01*
X22259Y-21047D02*
X22834Y-20472D01*
X22834Y-20472D02*
X22834Y-16685D01*
X22834Y-16685D02*
X22259Y-16110D01*
X22259Y-34614D02*
X22259Y-32070D01*
X22259Y-32070D02*
X22834Y-31496D01*
X22834Y-31496D02*
X22834Y-27708D01*
X22834Y-27708D02*
X22259Y-27133D01*
X22259Y-57055D02*
X22259Y-39551D01*
X22834Y-35188D02*
X22259Y-34614D01*
X22834Y-38976D02*
X22834Y-35188D01*
X22259Y-39551D02*
X22834Y-38976D01*
X66173Y-14476D02*
X66173Y-14535D01*
X49212Y-18897D02*
X43307Y-24803D01*
X61811Y-18897D02*
X49212Y-18897D01*
X66173Y-14535D02*
X61811Y-18897D01*
X70062Y-13476D02*
X69594Y-13476D01*
X48212Y-25590D02*
X46669Y-27133D01*
X62992Y-25590D02*
X48212Y-25590D01*
X69291Y-19291D02*
X62992Y-25590D01*
X69291Y-13779D02*
X69291Y-19291D01*
X69594Y-13476D02*
X69291Y-13779D01*
X46669Y-34614D02*
X46669Y-32070D01*
X47244Y-27708D02*
X46669Y-27133D01*
X47244Y-31496D02*
X47244Y-27708D01*
X46669Y-32070D02*
X47244Y-31496D01*
X46669Y-42094D02*
X46669Y-39551D01*
X47244Y-35188D02*
X46669Y-34614D01*
X47244Y-38976D02*
X47244Y-35188D01*
X46669Y-39551D02*
X47244Y-38976D01*
X46669Y-49574D02*
X46669Y-47031D01*
X46818Y-42094D02*
X46669Y-42094D01*
X47637Y-42913D02*
X46818Y-42094D01*
X47637Y-46062D02*
X47637Y-42913D01*
X46669Y-47031D02*
X47637Y-46062D01*
X50409Y-57055D02*
X50409Y-55921D01*
X47637Y-50543D02*
X46669Y-49574D01*
X47637Y-53149D02*
X47637Y-50543D01*
X50409Y-55921D02*
X47637Y-53149D01*
X69110Y-27133D02*
X69110Y-20259D01*
X71062Y-18307D02*
X71062Y-14476D01*
X69110Y-20259D02*
X71062Y-18307D01*
X69110Y-38354D02*
X69110Y-31677D01*
X69685Y-27708D02*
X69110Y-27133D01*
X69685Y-31102D02*
X69685Y-27708D01*
X69110Y-31677D02*
X69685Y-31102D01*
X69110Y-53314D02*
X69110Y-43488D01*
X69685Y-38929D02*
X69110Y-38354D01*
X69685Y-42913D02*
X69685Y-38929D01*
X69110Y-43488D02*
X69685Y-42913D01*
X37220Y-27133D02*
X37220Y-21047D01*
X37795Y-16685D02*
X37220Y-16110D01*
X37795Y-20472D02*
X37795Y-16685D01*
X37220Y-21047D02*
X37795Y-20472D01*
X37220Y-34614D02*
X37220Y-32070D01*
X37795Y-27708D02*
X37220Y-27133D01*
X37795Y-31496D02*
X37795Y-27708D01*
X37220Y-32070D02*
X37795Y-31496D01*
X37220Y-57055D02*
X37220Y-39551D01*
X37220Y-39551D02*
X37795Y-38976D01*
X37795Y-38976D02*
X37795Y-35188D01*
X37795Y-35188D02*
X37220Y-34614D01*
X29240Y-61055D02*
X29240Y-60917D01*
X28740Y-54074D02*
X29240Y-53574D01*
X28740Y-57480D02*
X28740Y-54074D01*
X29921Y-58661D02*
X28740Y-57480D01*
X29921Y-60236D02*
X29921Y-58661D01*
X29240Y-60917D02*
X29921Y-60236D01*
X21759Y-31133D02*
X21759Y-30602D01*
X21259Y-20610D02*
X21759Y-20110D01*
X21259Y-27559D02*
X21259Y-20610D01*
X22440Y-28740D02*
X21259Y-27559D01*
X22440Y-29921D02*
X22440Y-28740D01*
X21759Y-30602D02*
X22440Y-29921D01*
X46169Y-38614D02*
X46169Y-37688D01*
X45669Y-31633D02*
X46169Y-31133D01*
X45669Y-35039D02*
X45669Y-31633D01*
X46850Y-36220D02*
X45669Y-35039D01*
X46850Y-37007D02*
X46850Y-36220D01*
X46169Y-37688D02*
X46850Y-37007D01*
X46169Y-46094D02*
X46169Y-45562D01*
X46169Y-45562D02*
X46850Y-44881D01*
X46850Y-44881D02*
X46850Y-43700D01*
X46850Y-43700D02*
X45669Y-42519D01*
X45669Y-42519D02*
X45669Y-39114D01*
X45669Y-39114D02*
X46169Y-38614D01*
X61129Y-53574D02*
X61129Y-53043D01*
X60629Y-46594D02*
X61129Y-46094D01*
X60629Y-49606D02*
X60629Y-46594D01*
X61811Y-50787D02*
X60629Y-49606D01*
X61811Y-52362D02*
X61811Y-50787D01*
X61129Y-53043D02*
X61811Y-52362D01*
X71062Y-13476D02*
X71062Y-13188D01*
X63023Y-27133D02*
X61629Y-27133D01*
X68110Y-22047D02*
X63023Y-27133D01*
X68110Y-14173D02*
X68110Y-19685D01*
X69685Y-12598D02*
X68110Y-14173D01*
X70472Y-12598D02*
X69685Y-12598D01*
X71062Y-13188D02*
X70472Y-12598D01*
X61629Y-34614D02*
X61629Y-32070D01*
X62598Y-28102D02*
X61629Y-27133D01*
X62598Y-31102D02*
X62598Y-28102D01*
X61629Y-32070D02*
X62598Y-31102D01*
X61629Y-42094D02*
X61629Y-39551D01*
X62204Y-35188D02*
X61629Y-34614D01*
X62204Y-38976D02*
X62204Y-35188D01*
X61629Y-39551D02*
X62204Y-38976D01*
X61629Y-49574D02*
X61629Y-47031D01*
X62598Y-43062D02*
X61629Y-42094D01*
X62598Y-46062D02*
X62598Y-43062D01*
X61629Y-47031D02*
X62598Y-46062D01*
X61629Y-57055D02*
X61629Y-54905D01*
X62598Y-50543D02*
X61629Y-49574D01*
X62598Y-53937D02*
X62598Y-50543D01*
X61629Y-54905D02*
X62598Y-53937D01*
X29740Y-27133D02*
X29740Y-21047D01*
X30314Y-16685D02*
X29740Y-16110D01*
X30314Y-20472D02*
X30314Y-16685D01*
X29740Y-21047D02*
X30314Y-20472D01*
X29740Y-34614D02*
X29740Y-32070D01*
X29740Y-32070D02*
X30314Y-31496D01*
X30314Y-31496D02*
X30314Y-27708D01*
X30314Y-27708D02*
X29740Y-27133D01*
X29740Y-49574D02*
X29740Y-39551D01*
X29740Y-39551D02*
X30314Y-38976D01*
X30314Y-38976D02*
X30314Y-35188D01*
X30314Y-35188D02*
X29740Y-34614D01*
X29740Y-57055D02*
X29740Y-54511D01*
X30314Y-50149D02*
X29740Y-49574D01*
X30314Y-53937D02*
X30314Y-50149D01*
X29740Y-54511D02*
X30314Y-53937D01*
X42169Y-38614D02*
X42169Y-37444D01*
X48515Y-14476D02*
X62173Y-14476D01*
X48425Y-14566D02*
X48515Y-14476D01*
X40944Y-18897D02*
X45275Y-14566D01*
X40944Y-36220D02*
X40944Y-18897D01*
X42169Y-37444D02*
X40944Y-36220D01*
X42169Y-46094D02*
X42169Y-44531D01*
X62295Y-12598D02*
X63173Y-13476D01*
X46456Y-12598D02*
X62295Y-12598D01*
X40551Y-18503D02*
X46456Y-12598D01*
X40551Y-42913D02*
X40551Y-18503D01*
X42169Y-44531D02*
X40551Y-42913D01*
X62598Y-62555D02*
X62598Y-55074D01*
X30708Y-62555D02*
X30708Y-55074D01*
X23228Y-32633D02*
X23228Y-21610D01*
X23228Y-40114D02*
X23228Y-32633D01*
X62598Y-40114D02*
X62598Y-32633D01*
X55118Y-55074D02*
X55118Y-50393D01*
X55511Y-47988D02*
X55118Y-47594D01*
X55511Y-50000D02*
X55511Y-47988D01*
X55118Y-50393D02*
X55511Y-50000D01*
X42169Y-31133D02*
X42169Y-29177D01*
X47940Y-13476D02*
X62173Y-13476D01*
X41338Y-20078D02*
X47940Y-13476D01*
X41338Y-28346D02*
X41338Y-20078D01*
X42169Y-29177D02*
X41338Y-28346D01*
X65173Y-14476D02*
X65173Y-14748D01*
X32720Y-37751D02*
X32720Y-38614D01*
X33464Y-37007D02*
X32720Y-37751D01*
X33464Y-32283D02*
X33464Y-37007D01*
X33464Y-24409D02*
X33464Y-32283D01*
X48818Y-17716D02*
X42125Y-24409D01*
X62204Y-17716D02*
X48818Y-17716D01*
X65173Y-14748D02*
X62204Y-17716D01*
X32720Y-31133D02*
X32720Y-29964D01*
X31496Y-28740D02*
X31496Y-23622D01*
X32720Y-29964D02*
X31496Y-28740D01*
X66173Y-13476D02*
X66173Y-13417D01*
X24409Y-52744D02*
X25240Y-53574D01*
X24409Y-16141D02*
X24409Y-52744D01*
X28346Y-12204D02*
X24409Y-16141D01*
X64960Y-12204D02*
X28346Y-12204D01*
X66173Y-13417D02*
X64960Y-12204D01*
X64610Y-57314D02*
X64610Y-56342D01*
X63385Y-55118D02*
X63385Y-28346D01*
X64610Y-56342D02*
X63385Y-55118D01*
X57129Y-61055D02*
X57129Y-59885D01*
X56299Y-59055D02*
X56299Y-27165D01*
X57129Y-59885D02*
X56299Y-59055D01*
X32720Y-20110D02*
X32720Y-18547D01*
X64173Y-14960D02*
X64173Y-14476D01*
X63779Y-15354D02*
X64173Y-14960D01*
X48031Y-15354D02*
X63779Y-15354D01*
X34251Y-14173D02*
X42519Y-14173D01*
X31889Y-16535D02*
X34251Y-14173D01*
X31889Y-17716D02*
X31889Y-16535D01*
X32720Y-18547D02*
X31889Y-17716D01*
M02*
