G04 (created by PCBNEW (2013-07-07 BZR 4022)-stable) date 10/28/2014 2:01:09 AM*
%MOIN*%
G04 Gerber Fmt 3.4, Leading zero omitted, Abs format*
%FSLAX34Y34*%
G01*
G70*
G90*
G04 APERTURE LIST*
%ADD10C,0.00590551*%
%ADD11C,0.09*%
%ADD12C,0.157*%
%ADD13C,0.065*%
%ADD14R,0.065X0.065*%
%ADD15R,0.06X0.06*%
%ADD16C,0.06*%
G04 APERTURE END LIST*
G54D10*
G54D11*
X22259Y-16110D03*
X19759Y-17110D03*
G54D12*
X21259Y-18110D03*
G54D13*
X17759Y-17110D03*
G54D14*
X17759Y-20110D03*
G54D13*
X20759Y-20110D03*
G54D14*
X21759Y-20110D03*
X19291Y-21610D03*
G54D13*
X23228Y-21610D03*
G54D11*
X61629Y-57055D03*
X59129Y-58055D03*
G54D12*
X60629Y-59055D03*
G54D13*
X57129Y-58055D03*
G54D14*
X57129Y-61055D03*
G54D13*
X60129Y-61055D03*
G54D14*
X61129Y-61055D03*
X58661Y-62555D03*
G54D13*
X62598Y-62555D03*
G54D11*
X50409Y-57055D03*
X47909Y-58055D03*
G54D12*
X49409Y-59055D03*
G54D13*
X45909Y-58055D03*
G54D14*
X45909Y-61055D03*
G54D13*
X48909Y-61055D03*
G54D14*
X49909Y-61055D03*
X47440Y-62555D03*
G54D13*
X51377Y-62555D03*
G54D11*
X69110Y-53314D03*
X66610Y-54314D03*
G54D12*
X68110Y-55314D03*
G54D13*
X64610Y-54314D03*
G54D14*
X64610Y-57314D03*
G54D13*
X67610Y-57314D03*
G54D14*
X68610Y-57314D03*
X66141Y-58814D03*
G54D13*
X70078Y-58814D03*
G54D11*
X61629Y-49574D03*
X59129Y-50574D03*
G54D12*
X60629Y-51574D03*
G54D13*
X57129Y-50574D03*
G54D14*
X57129Y-53574D03*
G54D13*
X60129Y-53574D03*
G54D14*
X61129Y-53574D03*
X58661Y-55074D03*
G54D13*
X62598Y-55074D03*
G54D11*
X54149Y-49574D03*
X51649Y-50574D03*
G54D12*
X53149Y-51574D03*
G54D13*
X49649Y-50574D03*
G54D14*
X49649Y-53574D03*
G54D13*
X52649Y-53574D03*
G54D14*
X53649Y-53574D03*
X51181Y-55074D03*
G54D13*
X55118Y-55074D03*
G54D11*
X46669Y-49574D03*
X44169Y-50574D03*
G54D12*
X45669Y-51574D03*
G54D13*
X42169Y-50574D03*
G54D14*
X42169Y-53574D03*
G54D13*
X45169Y-53574D03*
G54D14*
X46169Y-53574D03*
X43700Y-55074D03*
G54D13*
X47637Y-55074D03*
G54D11*
X69110Y-38354D03*
X66610Y-39354D03*
G54D12*
X68110Y-40354D03*
G54D13*
X64610Y-39354D03*
G54D14*
X64610Y-42354D03*
G54D13*
X67610Y-42354D03*
G54D14*
X68610Y-42354D03*
X66141Y-43854D03*
G54D13*
X70078Y-43854D03*
G54D11*
X69110Y-27133D03*
X66610Y-28133D03*
G54D12*
X68110Y-29133D03*
G54D13*
X64610Y-28133D03*
G54D14*
X64610Y-31133D03*
G54D13*
X67610Y-31133D03*
G54D14*
X68610Y-31133D03*
X66141Y-32633D03*
G54D13*
X70078Y-32633D03*
G54D11*
X61629Y-42094D03*
X59129Y-43094D03*
G54D12*
X60629Y-44094D03*
G54D13*
X57129Y-43094D03*
G54D14*
X57129Y-46094D03*
G54D13*
X60129Y-46094D03*
G54D14*
X61129Y-46094D03*
X58661Y-47594D03*
G54D13*
X62598Y-47594D03*
G54D11*
X54149Y-42094D03*
X51649Y-43094D03*
G54D12*
X53149Y-44094D03*
G54D13*
X49649Y-43094D03*
G54D14*
X49649Y-46094D03*
G54D13*
X52649Y-46094D03*
G54D14*
X53649Y-46094D03*
X51181Y-47594D03*
G54D13*
X55118Y-47594D03*
G54D11*
X46669Y-42094D03*
X44169Y-43094D03*
G54D12*
X45669Y-44094D03*
G54D13*
X42169Y-43094D03*
G54D14*
X42169Y-46094D03*
G54D13*
X45169Y-46094D03*
G54D14*
X46169Y-46094D03*
X43700Y-47594D03*
G54D13*
X47637Y-47594D03*
G54D11*
X61629Y-34614D03*
X59129Y-35614D03*
G54D12*
X60629Y-36614D03*
G54D13*
X57129Y-35614D03*
G54D14*
X57129Y-38614D03*
G54D13*
X60129Y-38614D03*
G54D14*
X61129Y-38614D03*
X58661Y-40114D03*
G54D13*
X62598Y-40114D03*
G54D11*
X54149Y-34614D03*
X51649Y-35614D03*
G54D12*
X53149Y-36614D03*
G54D13*
X49649Y-35614D03*
G54D14*
X49649Y-38614D03*
G54D13*
X52649Y-38614D03*
G54D14*
X53649Y-38614D03*
X51181Y-40114D03*
G54D13*
X55118Y-40114D03*
G54D11*
X46669Y-34614D03*
X44169Y-35614D03*
G54D12*
X45669Y-36614D03*
G54D13*
X42169Y-35614D03*
G54D14*
X42169Y-38614D03*
G54D13*
X45169Y-38614D03*
G54D14*
X46169Y-38614D03*
X43700Y-40114D03*
G54D13*
X47637Y-40114D03*
G54D11*
X61629Y-27133D03*
X59129Y-28133D03*
G54D12*
X60629Y-29133D03*
G54D13*
X57129Y-28133D03*
G54D14*
X57129Y-31133D03*
G54D13*
X60129Y-31133D03*
G54D14*
X61129Y-31133D03*
X58661Y-32633D03*
G54D13*
X62598Y-32633D03*
G54D11*
X29740Y-16110D03*
X27240Y-17110D03*
G54D12*
X28740Y-18110D03*
G54D13*
X25240Y-17110D03*
G54D14*
X25240Y-20110D03*
G54D13*
X28240Y-20110D03*
G54D14*
X29240Y-20110D03*
X26771Y-21610D03*
G54D13*
X30708Y-21610D03*
G54D11*
X37220Y-16110D03*
X34720Y-17110D03*
G54D12*
X36220Y-18110D03*
G54D13*
X32720Y-17110D03*
G54D14*
X32720Y-20110D03*
G54D13*
X35720Y-20110D03*
G54D14*
X36720Y-20110D03*
X34251Y-21610D03*
G54D13*
X38188Y-21610D03*
G54D11*
X22259Y-27133D03*
X19759Y-28133D03*
G54D12*
X21259Y-29133D03*
G54D13*
X17759Y-28133D03*
G54D14*
X17759Y-31133D03*
G54D13*
X20759Y-31133D03*
G54D14*
X21759Y-31133D03*
X19291Y-32633D03*
G54D13*
X23228Y-32633D03*
G54D11*
X29740Y-27133D03*
X27240Y-28133D03*
G54D12*
X28740Y-29133D03*
G54D13*
X25240Y-28133D03*
G54D14*
X25240Y-31133D03*
G54D13*
X28240Y-31133D03*
G54D14*
X29240Y-31133D03*
X26771Y-32633D03*
G54D13*
X30708Y-32633D03*
G54D11*
X37220Y-27133D03*
X34720Y-28133D03*
G54D12*
X36220Y-29133D03*
G54D13*
X32720Y-28133D03*
G54D14*
X32720Y-31133D03*
G54D13*
X35720Y-31133D03*
G54D14*
X36720Y-31133D03*
X34251Y-32633D03*
G54D13*
X38188Y-32633D03*
G54D11*
X22259Y-34614D03*
X19759Y-35614D03*
G54D12*
X21259Y-36614D03*
G54D13*
X17759Y-35614D03*
G54D14*
X17759Y-38614D03*
G54D13*
X20759Y-38614D03*
G54D14*
X21759Y-38614D03*
X19291Y-40114D03*
G54D13*
X23228Y-40114D03*
G54D11*
X29740Y-34614D03*
X27240Y-35614D03*
G54D12*
X28740Y-36614D03*
G54D13*
X25240Y-35614D03*
G54D14*
X25240Y-38614D03*
G54D13*
X28240Y-38614D03*
G54D14*
X29240Y-38614D03*
X26771Y-40114D03*
G54D13*
X30708Y-40114D03*
G54D11*
X37220Y-34614D03*
X34720Y-35614D03*
G54D12*
X36220Y-36614D03*
G54D13*
X32720Y-35614D03*
G54D14*
X32720Y-38614D03*
G54D13*
X35720Y-38614D03*
G54D14*
X36720Y-38614D03*
X34251Y-40114D03*
G54D13*
X38188Y-40114D03*
G54D11*
X29740Y-49574D03*
X27240Y-50574D03*
G54D12*
X28740Y-51574D03*
G54D13*
X25240Y-50574D03*
G54D14*
X25240Y-53574D03*
G54D13*
X28240Y-53574D03*
G54D14*
X29240Y-53574D03*
X26771Y-55074D03*
G54D13*
X30708Y-55074D03*
G54D11*
X22259Y-57055D03*
X19759Y-58055D03*
G54D12*
X21259Y-59055D03*
G54D13*
X17759Y-58055D03*
G54D14*
X17759Y-61055D03*
G54D13*
X20759Y-61055D03*
G54D14*
X21759Y-61055D03*
X19291Y-62555D03*
G54D13*
X23228Y-62555D03*
G54D11*
X29740Y-57055D03*
X27240Y-58055D03*
G54D12*
X28740Y-59055D03*
G54D13*
X25240Y-58055D03*
G54D14*
X25240Y-61055D03*
G54D13*
X28240Y-61055D03*
G54D14*
X29240Y-61055D03*
X26771Y-62555D03*
G54D13*
X30708Y-62555D03*
G54D11*
X37220Y-57055D03*
X34720Y-58055D03*
G54D12*
X36220Y-59055D03*
G54D13*
X32720Y-58055D03*
G54D14*
X32720Y-61055D03*
G54D13*
X35720Y-61055D03*
G54D14*
X36720Y-61055D03*
X34251Y-62555D03*
G54D13*
X38188Y-62555D03*
G54D11*
X46669Y-27133D03*
X44169Y-28133D03*
G54D12*
X45669Y-29133D03*
G54D13*
X42169Y-28133D03*
G54D14*
X42169Y-31133D03*
G54D13*
X45169Y-31133D03*
G54D14*
X46169Y-31133D03*
X43700Y-32633D03*
G54D13*
X47637Y-32633D03*
G54D11*
X54149Y-27133D03*
X51649Y-28133D03*
G54D12*
X53149Y-29133D03*
G54D13*
X49649Y-28133D03*
G54D14*
X49649Y-31133D03*
G54D13*
X52649Y-31133D03*
G54D14*
X53649Y-31133D03*
X51181Y-32633D03*
G54D13*
X55118Y-32633D03*
G54D15*
X62173Y-14476D03*
G54D16*
X62173Y-13476D03*
X63173Y-14476D03*
X63173Y-13476D03*
X64173Y-14476D03*
X64173Y-13476D03*
X65173Y-14476D03*
X65173Y-13476D03*
X66173Y-14476D03*
X66173Y-13476D03*
G54D15*
X70062Y-14476D03*
G54D16*
X70062Y-13476D03*
X71062Y-14476D03*
X71062Y-13476D03*
X72062Y-14476D03*
X72062Y-13476D03*
M02*
