M48
;DRILL file {Pcbnew (2013-07-07 BZR 4022)-stable} date 10/28/2014 2:01:14 AM
;FORMAT={-:-/ absolute / inch / decimal}
FMAT,2
INCH,TZ
T1C0.025
T2C0.039
T3C0.040
T4C0.059
T5C0.157
%
G90
G05
M72
T1
X3.1496Y-2.3622
X3.3465Y-2.4409
X4.2126Y-2.4409
X4.252Y-1.4173
X4.3307Y-2.4803
X4.5276Y-1.4567
X4.8031Y-1.5354
X4.8425Y-1.4567
X5.6299Y-2.7165
X6.3386Y-2.8346
X6.811Y-1.9685
X6.811Y-2.2047
T2
X1.776Y-1.711
X1.776Y-2.011
X1.776Y-2.8134
X1.776Y-3.1134
X1.776Y-3.5614
X1.776Y-3.8614
X1.776Y-5.8055
X1.776Y-6.1055
X1.9291Y-2.161
X1.9291Y-3.2634
X1.9291Y-4.0114
X1.9291Y-6.2555
X2.076Y-2.011
X2.076Y-3.1134
X2.076Y-3.8614
X2.076Y-6.1055
X2.176Y-2.011
X2.176Y-3.1134
X2.176Y-3.8614
X2.176Y-6.1055
X2.3228Y-2.161
X2.3228Y-3.2634
X2.3228Y-4.0114
X2.3228Y-6.2555
X2.524Y-1.711
X2.524Y-2.011
X2.524Y-2.8134
X2.524Y-3.1134
X2.524Y-3.5614
X2.524Y-3.8614
X2.524Y-5.0575
X2.524Y-5.3575
X2.524Y-5.8055
X2.524Y-6.1055
X2.6772Y-2.161
X2.6772Y-3.2634
X2.6772Y-4.0114
X2.6772Y-5.5075
X2.6772Y-6.2555
X2.824Y-2.011
X2.824Y-3.1134
X2.824Y-3.8614
X2.824Y-5.3575
X2.824Y-6.1055
X2.924Y-2.011
X2.924Y-3.1134
X2.924Y-3.8614
X2.924Y-5.3575
X2.924Y-6.1055
X3.0709Y-2.161
X3.0709Y-3.2634
X3.0709Y-4.0114
X3.0709Y-5.5075
X3.0709Y-6.2555
X3.272Y-1.711
X3.272Y-2.011
X3.272Y-2.8134
X3.272Y-3.1134
X3.272Y-3.5614
X3.272Y-3.8614
X3.272Y-5.8055
X3.272Y-6.1055
X3.4252Y-2.161
X3.4252Y-3.2634
X3.4252Y-4.0114
X3.4252Y-6.2555
X3.572Y-2.011
X3.572Y-3.1134
X3.572Y-3.8614
X3.572Y-6.1055
X3.672Y-2.011
X3.672Y-3.1134
X3.672Y-3.8614
X3.672Y-6.1055
X3.8189Y-2.161
X3.8189Y-3.2634
X3.8189Y-4.0114
X3.8189Y-6.2555
X4.2169Y-2.8134
X4.2169Y-3.1134
X4.2169Y-3.5614
X4.2169Y-3.8614
X4.2169Y-4.3094
X4.2169Y-4.6094
X4.2169Y-5.0575
X4.2169Y-5.3575
X4.3701Y-3.2634
X4.3701Y-4.0114
X4.3701Y-4.7594
X4.3701Y-5.5075
X4.5169Y-3.1134
X4.5169Y-3.8614
X4.5169Y-4.6094
X4.5169Y-5.3575
X4.5909Y-5.8055
X4.5909Y-6.1055
X4.6169Y-3.1134
X4.6169Y-3.8614
X4.6169Y-4.6094
X4.6169Y-5.3575
X4.7441Y-6.2555
X4.7638Y-3.2634
X4.7638Y-4.0114
X4.7638Y-4.7594
X4.7638Y-5.5075
X4.8909Y-6.1055
X4.965Y-2.8134
X4.965Y-3.1134
X4.965Y-3.5614
X4.965Y-3.8614
X4.965Y-4.3094
X4.965Y-4.6094
X4.965Y-5.0575
X4.965Y-5.3575
X4.9909Y-6.1055
X5.1181Y-3.2634
X5.1181Y-4.0114
X5.1181Y-4.7594
X5.1181Y-5.5075
X5.1378Y-6.2555
X5.265Y-3.1134
X5.265Y-3.8614
X5.265Y-4.6094
X5.265Y-5.3575
X5.365Y-3.1134
X5.365Y-3.8614
X5.365Y-4.6094
X5.365Y-5.3575
X5.5118Y-3.2634
X5.5118Y-4.0114
X5.5118Y-4.7594
X5.5118Y-5.5075
X5.713Y-2.8134
X5.713Y-3.1134
X5.713Y-3.5614
X5.713Y-3.8614
X5.713Y-4.3094
X5.713Y-4.6094
X5.713Y-5.0575
X5.713Y-5.3575
X5.713Y-5.8055
X5.713Y-6.1055
X5.8661Y-3.2634
X5.8661Y-4.0114
X5.8661Y-4.7594
X5.8661Y-5.5075
X5.8661Y-6.2555
X6.013Y-3.1134
X6.013Y-3.8614
X6.013Y-4.6094
X6.013Y-5.3575
X6.013Y-6.1055
X6.113Y-3.1134
X6.113Y-3.8614
X6.113Y-4.6094
X6.113Y-5.3575
X6.113Y-6.1055
X6.2598Y-3.2634
X6.2598Y-4.0114
X6.2598Y-4.7594
X6.2598Y-5.5075
X6.2598Y-6.2555
X6.461Y-2.8134
X6.461Y-3.1134
X6.461Y-3.9354
X6.461Y-4.2354
X6.461Y-5.4315
X6.461Y-5.7315
X6.6142Y-3.2634
X6.6142Y-4.3854
X6.6142Y-5.8815
X6.761Y-3.1134
X6.761Y-4.2354
X6.761Y-5.7315
X6.861Y-3.1134
X6.861Y-4.2354
X6.861Y-5.7315
X7.0079Y-3.2634
X7.0079Y-4.3854
X7.0079Y-5.8815
T3
X6.2173Y-1.3476
X6.2173Y-1.4476
X6.3173Y-1.3476
X6.3173Y-1.4476
X6.4173Y-1.3476
X6.4173Y-1.4476
X6.5173Y-1.3476
X6.5173Y-1.4476
X6.6173Y-1.3476
X6.6173Y-1.4476
X7.0063Y-1.3476
X7.0063Y-1.4476
X7.1063Y-1.3476
X7.1063Y-1.4476
X7.2063Y-1.3476
X7.2063Y-1.4476
T4
X1.976Y-1.711
X1.976Y-2.8134
X1.976Y-3.5614
X1.976Y-5.8055
X2.226Y-1.611
X2.226Y-2.7134
X2.226Y-3.4614
X2.226Y-5.7055
X2.724Y-1.711
X2.724Y-2.8134
X2.724Y-3.5614
X2.724Y-5.0575
X2.724Y-5.8055
X2.974Y-1.611
X2.974Y-2.7134
X2.974Y-3.4614
X2.974Y-4.9575
X2.974Y-5.7055
X3.472Y-1.711
X3.472Y-2.8134
X3.472Y-3.5614
X3.472Y-5.8055
X3.722Y-1.611
X3.722Y-2.7134
X3.722Y-3.4614
X3.722Y-5.7055
X4.4169Y-2.8134
X4.4169Y-3.5614
X4.4169Y-4.3094
X4.4169Y-5.0575
X4.6669Y-2.7134
X4.6669Y-3.4614
X4.6669Y-4.2094
X4.6669Y-4.9575
X4.7909Y-5.8055
X5.0409Y-5.7055
X5.165Y-2.8134
X5.165Y-3.5614
X5.165Y-4.3094
X5.165Y-5.0575
X5.415Y-2.7134
X5.415Y-3.4614
X5.415Y-4.2094
X5.415Y-4.9575
X5.913Y-2.8134
X5.913Y-3.5614
X5.913Y-4.3094
X5.913Y-5.0575
X5.913Y-5.8055
X6.163Y-2.7134
X6.163Y-3.4614
X6.163Y-4.2094
X6.163Y-4.9575
X6.163Y-5.7055
X6.661Y-2.8134
X6.661Y-3.9354
X6.661Y-5.4315
X6.911Y-2.7134
X6.911Y-3.8354
X6.911Y-5.3315
T5
X2.126Y-1.811
X2.126Y-2.9134
X2.126Y-3.6614
X2.126Y-5.9055
X2.874Y-1.811
X2.874Y-2.9134
X2.874Y-3.6614
X2.874Y-5.1575
X2.874Y-5.9055
X3.622Y-1.811
X3.622Y-2.9134
X3.622Y-3.6614
X3.622Y-5.9055
X4.5669Y-2.9134
X4.5669Y-3.6614
X4.5669Y-4.4094
X4.5669Y-5.1575
X4.9409Y-5.9055
X5.315Y-2.9134
X5.315Y-3.6614
X5.315Y-4.4094
X5.315Y-5.1575
X6.063Y-2.9134
X6.063Y-3.6614
X6.063Y-4.4094
X6.063Y-5.1575
X6.063Y-5.9055
X6.811Y-2.9134
X6.811Y-4.0354
X6.811Y-5.5315
T0
M30
