G04 (created by PCBNEW (2013-07-07 BZR 4022)-stable) date 10/28/2014 2:01:09 AM*
%MOIN*%
G04 Gerber Fmt 3.4, Leading zero omitted, Abs format*
%FSLAX34Y34*%
G01*
G70*
G90*
G04 APERTURE LIST*
%ADD10C,0.00590551*%
%ADD11C,0.012*%
%ADD12C,0.008*%
G04 APERTURE END LIST*
G54D10*
G54D11*
X61673Y-12976D02*
X66673Y-12976D01*
X66673Y-12976D02*
X66673Y-14976D01*
X66673Y-14976D02*
X61673Y-14976D01*
X61673Y-14976D02*
X61673Y-12976D01*
G54D12*
X72562Y-14976D02*
X69562Y-14976D01*
X69562Y-12976D02*
X72562Y-12976D01*
X72562Y-12976D02*
X72562Y-14976D01*
X69562Y-14976D02*
X69562Y-12976D01*
X20459Y-19538D02*
X20545Y-19562D01*
X20688Y-19562D01*
X20745Y-19538D01*
X20774Y-19514D01*
X20802Y-19467D01*
X20802Y-19419D01*
X20774Y-19372D01*
X20745Y-19348D01*
X20688Y-19324D01*
X20574Y-19300D01*
X20516Y-19276D01*
X20488Y-19253D01*
X20459Y-19205D01*
X20459Y-19157D01*
X20488Y-19110D01*
X20516Y-19086D01*
X20574Y-19062D01*
X20716Y-19062D01*
X20802Y-19086D01*
X21002Y-19062D02*
X21145Y-19562D01*
X21259Y-19205D01*
X21374Y-19562D01*
X21516Y-19062D01*
X22059Y-19562D02*
X21716Y-19562D01*
X21888Y-19562D02*
X21888Y-19062D01*
X21831Y-19134D01*
X21774Y-19181D01*
X21716Y-19205D01*
X59544Y-60483D02*
X59629Y-60507D01*
X59772Y-60507D01*
X59829Y-60483D01*
X59858Y-60459D01*
X59887Y-60412D01*
X59887Y-60364D01*
X59858Y-60317D01*
X59829Y-60293D01*
X59772Y-60269D01*
X59658Y-60245D01*
X59601Y-60221D01*
X59572Y-60197D01*
X59544Y-60150D01*
X59544Y-60102D01*
X59572Y-60055D01*
X59601Y-60031D01*
X59658Y-60007D01*
X59801Y-60007D01*
X59887Y-60031D01*
X60087Y-60007D02*
X60229Y-60507D01*
X60344Y-60150D01*
X60458Y-60507D01*
X60601Y-60007D01*
X60801Y-60055D02*
X60829Y-60031D01*
X60887Y-60007D01*
X61029Y-60007D01*
X61087Y-60031D01*
X61115Y-60055D01*
X61144Y-60102D01*
X61144Y-60150D01*
X61115Y-60221D01*
X60772Y-60507D01*
X61144Y-60507D01*
X61344Y-60007D02*
X61744Y-60007D01*
X61487Y-60507D01*
X48323Y-60483D02*
X48409Y-60507D01*
X48552Y-60507D01*
X48609Y-60483D01*
X48638Y-60459D01*
X48666Y-60412D01*
X48666Y-60364D01*
X48638Y-60317D01*
X48609Y-60293D01*
X48552Y-60269D01*
X48438Y-60245D01*
X48380Y-60221D01*
X48352Y-60197D01*
X48323Y-60150D01*
X48323Y-60102D01*
X48352Y-60055D01*
X48380Y-60031D01*
X48438Y-60007D01*
X48580Y-60007D01*
X48666Y-60031D01*
X48866Y-60007D02*
X49009Y-60507D01*
X49123Y-60150D01*
X49238Y-60507D01*
X49380Y-60007D01*
X49923Y-60507D02*
X49580Y-60507D01*
X49752Y-60507D02*
X49752Y-60007D01*
X49695Y-60078D01*
X49638Y-60126D01*
X49580Y-60150D01*
X50266Y-60221D02*
X50209Y-60197D01*
X50180Y-60174D01*
X50152Y-60126D01*
X50152Y-60102D01*
X50180Y-60055D01*
X50209Y-60031D01*
X50266Y-60007D01*
X50380Y-60007D01*
X50438Y-60031D01*
X50466Y-60055D01*
X50495Y-60102D01*
X50495Y-60126D01*
X50466Y-60174D01*
X50438Y-60197D01*
X50380Y-60221D01*
X50266Y-60221D01*
X50209Y-60245D01*
X50180Y-60269D01*
X50152Y-60317D01*
X50152Y-60412D01*
X50180Y-60459D01*
X50209Y-60483D01*
X50266Y-60507D01*
X50380Y-60507D01*
X50438Y-60483D01*
X50466Y-60459D01*
X50495Y-60412D01*
X50495Y-60317D01*
X50466Y-60269D01*
X50438Y-60245D01*
X50380Y-60221D01*
X67024Y-56743D02*
X67110Y-56767D01*
X67253Y-56767D01*
X67310Y-56743D01*
X67338Y-56719D01*
X67367Y-56672D01*
X67367Y-56624D01*
X67338Y-56576D01*
X67310Y-56553D01*
X67253Y-56529D01*
X67138Y-56505D01*
X67081Y-56481D01*
X67053Y-56457D01*
X67024Y-56410D01*
X67024Y-56362D01*
X67053Y-56314D01*
X67081Y-56291D01*
X67138Y-56267D01*
X67281Y-56267D01*
X67367Y-56291D01*
X67567Y-56267D02*
X67710Y-56767D01*
X67824Y-56410D01*
X67938Y-56767D01*
X68081Y-56267D01*
X68253Y-56267D02*
X68624Y-56267D01*
X68424Y-56457D01*
X68510Y-56457D01*
X68567Y-56481D01*
X68595Y-56505D01*
X68624Y-56553D01*
X68624Y-56672D01*
X68595Y-56719D01*
X68567Y-56743D01*
X68510Y-56767D01*
X68338Y-56767D01*
X68281Y-56743D01*
X68253Y-56719D01*
X68995Y-56267D02*
X69053Y-56267D01*
X69110Y-56291D01*
X69138Y-56314D01*
X69167Y-56362D01*
X69195Y-56457D01*
X69195Y-56576D01*
X69167Y-56672D01*
X69138Y-56719D01*
X69110Y-56743D01*
X69053Y-56767D01*
X68995Y-56767D01*
X68938Y-56743D01*
X68910Y-56719D01*
X68881Y-56672D01*
X68853Y-56576D01*
X68853Y-56457D01*
X68881Y-56362D01*
X68910Y-56314D01*
X68938Y-56291D01*
X68995Y-56267D01*
X59544Y-53003D02*
X59629Y-53027D01*
X59772Y-53027D01*
X59829Y-53003D01*
X59858Y-52979D01*
X59887Y-52931D01*
X59887Y-52884D01*
X59858Y-52836D01*
X59829Y-52812D01*
X59772Y-52789D01*
X59658Y-52765D01*
X59601Y-52741D01*
X59572Y-52717D01*
X59544Y-52670D01*
X59544Y-52622D01*
X59572Y-52574D01*
X59601Y-52550D01*
X59658Y-52527D01*
X59801Y-52527D01*
X59887Y-52550D01*
X60087Y-52527D02*
X60229Y-53027D01*
X60344Y-52670D01*
X60458Y-53027D01*
X60601Y-52527D01*
X60801Y-52574D02*
X60829Y-52550D01*
X60887Y-52527D01*
X61029Y-52527D01*
X61087Y-52550D01*
X61115Y-52574D01*
X61144Y-52622D01*
X61144Y-52670D01*
X61115Y-52741D01*
X60772Y-53027D01*
X61144Y-53027D01*
X61658Y-52527D02*
X61544Y-52527D01*
X61487Y-52550D01*
X61458Y-52574D01*
X61401Y-52646D01*
X61372Y-52741D01*
X61372Y-52931D01*
X61401Y-52979D01*
X61429Y-53003D01*
X61487Y-53027D01*
X61601Y-53027D01*
X61658Y-53003D01*
X61687Y-52979D01*
X61715Y-52931D01*
X61715Y-52812D01*
X61687Y-52765D01*
X61658Y-52741D01*
X61601Y-52717D01*
X61487Y-52717D01*
X61429Y-52741D01*
X61401Y-52765D01*
X61372Y-52812D01*
X52063Y-53003D02*
X52149Y-53027D01*
X52292Y-53027D01*
X52349Y-53003D01*
X52378Y-52979D01*
X52406Y-52931D01*
X52406Y-52884D01*
X52378Y-52836D01*
X52349Y-52812D01*
X52292Y-52789D01*
X52178Y-52765D01*
X52121Y-52741D01*
X52092Y-52717D01*
X52063Y-52670D01*
X52063Y-52622D01*
X52092Y-52574D01*
X52121Y-52550D01*
X52178Y-52527D01*
X52321Y-52527D01*
X52406Y-52550D01*
X52606Y-52527D02*
X52749Y-53027D01*
X52863Y-52670D01*
X52978Y-53027D01*
X53121Y-52527D01*
X53321Y-52574D02*
X53349Y-52550D01*
X53406Y-52527D01*
X53549Y-52527D01*
X53606Y-52550D01*
X53635Y-52574D01*
X53663Y-52622D01*
X53663Y-52670D01*
X53635Y-52741D01*
X53292Y-53027D01*
X53663Y-53027D01*
X53892Y-52574D02*
X53921Y-52550D01*
X53978Y-52527D01*
X54121Y-52527D01*
X54178Y-52550D01*
X54206Y-52574D01*
X54235Y-52622D01*
X54235Y-52670D01*
X54206Y-52741D01*
X53863Y-53027D01*
X54235Y-53027D01*
X44583Y-53003D02*
X44669Y-53027D01*
X44812Y-53027D01*
X44869Y-53003D01*
X44897Y-52979D01*
X44926Y-52931D01*
X44926Y-52884D01*
X44897Y-52836D01*
X44869Y-52812D01*
X44812Y-52789D01*
X44697Y-52765D01*
X44640Y-52741D01*
X44612Y-52717D01*
X44583Y-52670D01*
X44583Y-52622D01*
X44612Y-52574D01*
X44640Y-52550D01*
X44697Y-52527D01*
X44840Y-52527D01*
X44926Y-52550D01*
X45126Y-52527D02*
X45269Y-53027D01*
X45383Y-52670D01*
X45497Y-53027D01*
X45640Y-52527D01*
X46183Y-53027D02*
X45840Y-53027D01*
X46012Y-53027D02*
X46012Y-52527D01*
X45955Y-52598D01*
X45897Y-52646D01*
X45840Y-52670D01*
X46383Y-52527D02*
X46783Y-52527D01*
X46526Y-53027D01*
X67024Y-41782D02*
X67110Y-41806D01*
X67253Y-41806D01*
X67310Y-41782D01*
X67338Y-41759D01*
X67367Y-41711D01*
X67367Y-41663D01*
X67338Y-41616D01*
X67310Y-41592D01*
X67253Y-41568D01*
X67138Y-41544D01*
X67081Y-41520D01*
X67053Y-41497D01*
X67024Y-41449D01*
X67024Y-41401D01*
X67053Y-41354D01*
X67081Y-41330D01*
X67138Y-41306D01*
X67281Y-41306D01*
X67367Y-41330D01*
X67567Y-41306D02*
X67710Y-41806D01*
X67824Y-41449D01*
X67938Y-41806D01*
X68081Y-41306D01*
X68281Y-41354D02*
X68310Y-41330D01*
X68367Y-41306D01*
X68510Y-41306D01*
X68567Y-41330D01*
X68595Y-41354D01*
X68624Y-41401D01*
X68624Y-41449D01*
X68595Y-41520D01*
X68253Y-41806D01*
X68624Y-41806D01*
X68910Y-41806D02*
X69024Y-41806D01*
X69081Y-41782D01*
X69110Y-41759D01*
X69167Y-41687D01*
X69195Y-41592D01*
X69195Y-41401D01*
X69167Y-41354D01*
X69138Y-41330D01*
X69081Y-41306D01*
X68967Y-41306D01*
X68910Y-41330D01*
X68881Y-41354D01*
X68853Y-41401D01*
X68853Y-41520D01*
X68881Y-41568D01*
X68910Y-41592D01*
X68967Y-41616D01*
X69081Y-41616D01*
X69138Y-41592D01*
X69167Y-41568D01*
X69195Y-41520D01*
X67024Y-30562D02*
X67110Y-30586D01*
X67253Y-30586D01*
X67310Y-30562D01*
X67338Y-30538D01*
X67367Y-30491D01*
X67367Y-30443D01*
X67338Y-30395D01*
X67310Y-30371D01*
X67253Y-30348D01*
X67138Y-30324D01*
X67081Y-30300D01*
X67053Y-30276D01*
X67024Y-30229D01*
X67024Y-30181D01*
X67053Y-30133D01*
X67081Y-30110D01*
X67138Y-30086D01*
X67281Y-30086D01*
X67367Y-30110D01*
X67567Y-30086D02*
X67710Y-30586D01*
X67824Y-30229D01*
X67938Y-30586D01*
X68081Y-30086D01*
X68281Y-30133D02*
X68310Y-30110D01*
X68367Y-30086D01*
X68510Y-30086D01*
X68567Y-30110D01*
X68595Y-30133D01*
X68624Y-30181D01*
X68624Y-30229D01*
X68595Y-30300D01*
X68253Y-30586D01*
X68624Y-30586D01*
X68967Y-30300D02*
X68910Y-30276D01*
X68881Y-30252D01*
X68853Y-30205D01*
X68853Y-30181D01*
X68881Y-30133D01*
X68910Y-30110D01*
X68967Y-30086D01*
X69081Y-30086D01*
X69138Y-30110D01*
X69167Y-30133D01*
X69195Y-30181D01*
X69195Y-30205D01*
X69167Y-30252D01*
X69138Y-30276D01*
X69081Y-30300D01*
X68967Y-30300D01*
X68910Y-30324D01*
X68881Y-30348D01*
X68853Y-30395D01*
X68853Y-30491D01*
X68881Y-30538D01*
X68910Y-30562D01*
X68967Y-30586D01*
X69081Y-30586D01*
X69138Y-30562D01*
X69167Y-30538D01*
X69195Y-30491D01*
X69195Y-30395D01*
X69167Y-30348D01*
X69138Y-30324D01*
X69081Y-30300D01*
X59544Y-45523D02*
X59629Y-45546D01*
X59772Y-45546D01*
X59829Y-45523D01*
X59858Y-45499D01*
X59887Y-45451D01*
X59887Y-45404D01*
X59858Y-45356D01*
X59829Y-45332D01*
X59772Y-45308D01*
X59658Y-45284D01*
X59601Y-45261D01*
X59572Y-45237D01*
X59544Y-45189D01*
X59544Y-45142D01*
X59572Y-45094D01*
X59601Y-45070D01*
X59658Y-45046D01*
X59801Y-45046D01*
X59887Y-45070D01*
X60087Y-45046D02*
X60229Y-45546D01*
X60344Y-45189D01*
X60458Y-45546D01*
X60601Y-45046D01*
X60801Y-45094D02*
X60829Y-45070D01*
X60887Y-45046D01*
X61029Y-45046D01*
X61087Y-45070D01*
X61115Y-45094D01*
X61144Y-45142D01*
X61144Y-45189D01*
X61115Y-45261D01*
X60772Y-45546D01*
X61144Y-45546D01*
X61687Y-45046D02*
X61401Y-45046D01*
X61372Y-45284D01*
X61401Y-45261D01*
X61458Y-45237D01*
X61601Y-45237D01*
X61658Y-45261D01*
X61687Y-45284D01*
X61715Y-45332D01*
X61715Y-45451D01*
X61687Y-45499D01*
X61658Y-45523D01*
X61601Y-45546D01*
X61458Y-45546D01*
X61401Y-45523D01*
X61372Y-45499D01*
X52063Y-45523D02*
X52149Y-45546D01*
X52292Y-45546D01*
X52349Y-45523D01*
X52378Y-45499D01*
X52406Y-45451D01*
X52406Y-45404D01*
X52378Y-45356D01*
X52349Y-45332D01*
X52292Y-45308D01*
X52178Y-45284D01*
X52121Y-45261D01*
X52092Y-45237D01*
X52063Y-45189D01*
X52063Y-45142D01*
X52092Y-45094D01*
X52121Y-45070D01*
X52178Y-45046D01*
X52321Y-45046D01*
X52406Y-45070D01*
X52606Y-45046D02*
X52749Y-45546D01*
X52863Y-45189D01*
X52978Y-45546D01*
X53121Y-45046D01*
X53321Y-45094D02*
X53349Y-45070D01*
X53406Y-45046D01*
X53549Y-45046D01*
X53606Y-45070D01*
X53635Y-45094D01*
X53663Y-45142D01*
X53663Y-45189D01*
X53635Y-45261D01*
X53292Y-45546D01*
X53663Y-45546D01*
X54235Y-45546D02*
X53892Y-45546D01*
X54063Y-45546D02*
X54063Y-45046D01*
X54006Y-45118D01*
X53949Y-45165D01*
X53892Y-45189D01*
X44583Y-45523D02*
X44669Y-45546D01*
X44812Y-45546D01*
X44869Y-45523D01*
X44897Y-45499D01*
X44926Y-45451D01*
X44926Y-45404D01*
X44897Y-45356D01*
X44869Y-45332D01*
X44812Y-45308D01*
X44697Y-45284D01*
X44640Y-45261D01*
X44612Y-45237D01*
X44583Y-45189D01*
X44583Y-45142D01*
X44612Y-45094D01*
X44640Y-45070D01*
X44697Y-45046D01*
X44840Y-45046D01*
X44926Y-45070D01*
X45126Y-45046D02*
X45269Y-45546D01*
X45383Y-45189D01*
X45497Y-45546D01*
X45640Y-45046D01*
X46183Y-45546D02*
X45840Y-45546D01*
X46012Y-45546D02*
X46012Y-45046D01*
X45955Y-45118D01*
X45897Y-45165D01*
X45840Y-45189D01*
X46697Y-45046D02*
X46583Y-45046D01*
X46526Y-45070D01*
X46497Y-45094D01*
X46440Y-45165D01*
X46412Y-45261D01*
X46412Y-45451D01*
X46440Y-45499D01*
X46469Y-45523D01*
X46526Y-45546D01*
X46640Y-45546D01*
X46697Y-45523D01*
X46726Y-45499D01*
X46755Y-45451D01*
X46755Y-45332D01*
X46726Y-45284D01*
X46697Y-45261D01*
X46640Y-45237D01*
X46526Y-45237D01*
X46469Y-45261D01*
X46440Y-45284D01*
X46412Y-45332D01*
X59544Y-38042D02*
X59629Y-38066D01*
X59772Y-38066D01*
X59829Y-38042D01*
X59858Y-38018D01*
X59887Y-37971D01*
X59887Y-37923D01*
X59858Y-37876D01*
X59829Y-37852D01*
X59772Y-37828D01*
X59658Y-37804D01*
X59601Y-37780D01*
X59572Y-37757D01*
X59544Y-37709D01*
X59544Y-37661D01*
X59572Y-37614D01*
X59601Y-37590D01*
X59658Y-37566D01*
X59801Y-37566D01*
X59887Y-37590D01*
X60087Y-37566D02*
X60229Y-38066D01*
X60344Y-37709D01*
X60458Y-38066D01*
X60601Y-37566D01*
X60801Y-37614D02*
X60829Y-37590D01*
X60887Y-37566D01*
X61029Y-37566D01*
X61087Y-37590D01*
X61115Y-37614D01*
X61144Y-37661D01*
X61144Y-37709D01*
X61115Y-37780D01*
X60772Y-38066D01*
X61144Y-38066D01*
X61658Y-37733D02*
X61658Y-38066D01*
X61515Y-37542D02*
X61372Y-37899D01*
X61744Y-37899D01*
X52063Y-38042D02*
X52149Y-38066D01*
X52292Y-38066D01*
X52349Y-38042D01*
X52378Y-38018D01*
X52406Y-37971D01*
X52406Y-37923D01*
X52378Y-37876D01*
X52349Y-37852D01*
X52292Y-37828D01*
X52178Y-37804D01*
X52121Y-37780D01*
X52092Y-37757D01*
X52063Y-37709D01*
X52063Y-37661D01*
X52092Y-37614D01*
X52121Y-37590D01*
X52178Y-37566D01*
X52321Y-37566D01*
X52406Y-37590D01*
X52606Y-37566D02*
X52749Y-38066D01*
X52863Y-37709D01*
X52978Y-38066D01*
X53121Y-37566D01*
X53321Y-37614D02*
X53349Y-37590D01*
X53406Y-37566D01*
X53549Y-37566D01*
X53606Y-37590D01*
X53635Y-37614D01*
X53663Y-37661D01*
X53663Y-37709D01*
X53635Y-37780D01*
X53292Y-38066D01*
X53663Y-38066D01*
X54035Y-37566D02*
X54092Y-37566D01*
X54149Y-37590D01*
X54178Y-37614D01*
X54206Y-37661D01*
X54235Y-37757D01*
X54235Y-37876D01*
X54206Y-37971D01*
X54178Y-38018D01*
X54149Y-38042D01*
X54092Y-38066D01*
X54035Y-38066D01*
X53978Y-38042D01*
X53949Y-38018D01*
X53921Y-37971D01*
X53892Y-37876D01*
X53892Y-37757D01*
X53921Y-37661D01*
X53949Y-37614D01*
X53978Y-37590D01*
X54035Y-37566D01*
X44583Y-38042D02*
X44669Y-38066D01*
X44812Y-38066D01*
X44869Y-38042D01*
X44897Y-38018D01*
X44926Y-37971D01*
X44926Y-37923D01*
X44897Y-37876D01*
X44869Y-37852D01*
X44812Y-37828D01*
X44697Y-37804D01*
X44640Y-37780D01*
X44612Y-37757D01*
X44583Y-37709D01*
X44583Y-37661D01*
X44612Y-37614D01*
X44640Y-37590D01*
X44697Y-37566D01*
X44840Y-37566D01*
X44926Y-37590D01*
X45126Y-37566D02*
X45269Y-38066D01*
X45383Y-37709D01*
X45497Y-38066D01*
X45640Y-37566D01*
X46183Y-38066D02*
X45840Y-38066D01*
X46012Y-38066D02*
X46012Y-37566D01*
X45955Y-37637D01*
X45897Y-37685D01*
X45840Y-37709D01*
X46726Y-37566D02*
X46440Y-37566D01*
X46412Y-37804D01*
X46440Y-37780D01*
X46497Y-37757D01*
X46640Y-37757D01*
X46697Y-37780D01*
X46726Y-37804D01*
X46755Y-37852D01*
X46755Y-37971D01*
X46726Y-38018D01*
X46697Y-38042D01*
X46640Y-38066D01*
X46497Y-38066D01*
X46440Y-38042D01*
X46412Y-38018D01*
X59544Y-30562D02*
X59629Y-30586D01*
X59772Y-30586D01*
X59829Y-30562D01*
X59858Y-30538D01*
X59887Y-30491D01*
X59887Y-30443D01*
X59858Y-30395D01*
X59829Y-30371D01*
X59772Y-30348D01*
X59658Y-30324D01*
X59601Y-30300D01*
X59572Y-30276D01*
X59544Y-30229D01*
X59544Y-30181D01*
X59572Y-30133D01*
X59601Y-30110D01*
X59658Y-30086D01*
X59801Y-30086D01*
X59887Y-30110D01*
X60087Y-30086D02*
X60229Y-30586D01*
X60344Y-30229D01*
X60458Y-30586D01*
X60601Y-30086D01*
X60801Y-30133D02*
X60829Y-30110D01*
X60887Y-30086D01*
X61029Y-30086D01*
X61087Y-30110D01*
X61115Y-30133D01*
X61144Y-30181D01*
X61144Y-30229D01*
X61115Y-30300D01*
X60772Y-30586D01*
X61144Y-30586D01*
X61344Y-30086D02*
X61715Y-30086D01*
X61515Y-30276D01*
X61601Y-30276D01*
X61658Y-30300D01*
X61687Y-30324D01*
X61715Y-30371D01*
X61715Y-30491D01*
X61687Y-30538D01*
X61658Y-30562D01*
X61601Y-30586D01*
X61429Y-30586D01*
X61372Y-30562D01*
X61344Y-30538D01*
X27940Y-19538D02*
X28025Y-19562D01*
X28168Y-19562D01*
X28225Y-19538D01*
X28254Y-19514D01*
X28283Y-19467D01*
X28283Y-19419D01*
X28254Y-19372D01*
X28225Y-19348D01*
X28168Y-19324D01*
X28054Y-19300D01*
X27997Y-19276D01*
X27968Y-19253D01*
X27940Y-19205D01*
X27940Y-19157D01*
X27968Y-19110D01*
X27997Y-19086D01*
X28054Y-19062D01*
X28197Y-19062D01*
X28283Y-19086D01*
X28483Y-19062D02*
X28625Y-19562D01*
X28740Y-19205D01*
X28854Y-19562D01*
X28997Y-19062D01*
X29511Y-19062D02*
X29225Y-19062D01*
X29197Y-19300D01*
X29225Y-19276D01*
X29283Y-19253D01*
X29425Y-19253D01*
X29483Y-19276D01*
X29511Y-19300D01*
X29540Y-19348D01*
X29540Y-19467D01*
X29511Y-19514D01*
X29483Y-19538D01*
X29425Y-19562D01*
X29283Y-19562D01*
X29225Y-19538D01*
X29197Y-19514D01*
X35134Y-19538D02*
X35220Y-19562D01*
X35363Y-19562D01*
X35420Y-19538D01*
X35449Y-19514D01*
X35477Y-19467D01*
X35477Y-19419D01*
X35449Y-19372D01*
X35420Y-19348D01*
X35363Y-19324D01*
X35249Y-19300D01*
X35191Y-19276D01*
X35163Y-19253D01*
X35134Y-19205D01*
X35134Y-19157D01*
X35163Y-19110D01*
X35191Y-19086D01*
X35249Y-19062D01*
X35391Y-19062D01*
X35477Y-19086D01*
X35677Y-19062D02*
X35820Y-19562D01*
X35934Y-19205D01*
X36049Y-19562D01*
X36191Y-19062D01*
X36734Y-19562D02*
X36391Y-19562D01*
X36563Y-19562D02*
X36563Y-19062D01*
X36506Y-19134D01*
X36449Y-19181D01*
X36391Y-19205D01*
X37106Y-19062D02*
X37163Y-19062D01*
X37220Y-19086D01*
X37249Y-19110D01*
X37277Y-19157D01*
X37306Y-19253D01*
X37306Y-19372D01*
X37277Y-19467D01*
X37249Y-19514D01*
X37220Y-19538D01*
X37163Y-19562D01*
X37106Y-19562D01*
X37049Y-19538D01*
X37020Y-19514D01*
X36991Y-19467D01*
X36963Y-19372D01*
X36963Y-19253D01*
X36991Y-19157D01*
X37020Y-19110D01*
X37049Y-19086D01*
X37106Y-19062D01*
X20459Y-30562D02*
X20545Y-30586D01*
X20688Y-30586D01*
X20745Y-30562D01*
X20774Y-30538D01*
X20802Y-30491D01*
X20802Y-30443D01*
X20774Y-30395D01*
X20745Y-30371D01*
X20688Y-30348D01*
X20574Y-30324D01*
X20516Y-30300D01*
X20488Y-30276D01*
X20459Y-30229D01*
X20459Y-30181D01*
X20488Y-30133D01*
X20516Y-30110D01*
X20574Y-30086D01*
X20716Y-30086D01*
X20802Y-30110D01*
X21002Y-30086D02*
X21145Y-30586D01*
X21259Y-30229D01*
X21374Y-30586D01*
X21516Y-30086D01*
X21716Y-30133D02*
X21745Y-30110D01*
X21802Y-30086D01*
X21945Y-30086D01*
X22002Y-30110D01*
X22031Y-30133D01*
X22059Y-30181D01*
X22059Y-30229D01*
X22031Y-30300D01*
X21688Y-30586D01*
X22059Y-30586D01*
X27940Y-30562D02*
X28025Y-30586D01*
X28168Y-30586D01*
X28225Y-30562D01*
X28254Y-30538D01*
X28283Y-30491D01*
X28283Y-30443D01*
X28254Y-30395D01*
X28225Y-30371D01*
X28168Y-30348D01*
X28054Y-30324D01*
X27997Y-30300D01*
X27968Y-30276D01*
X27940Y-30229D01*
X27940Y-30181D01*
X27968Y-30133D01*
X27997Y-30110D01*
X28054Y-30086D01*
X28197Y-30086D01*
X28283Y-30110D01*
X28483Y-30086D02*
X28625Y-30586D01*
X28740Y-30229D01*
X28854Y-30586D01*
X28997Y-30086D01*
X29483Y-30086D02*
X29368Y-30086D01*
X29311Y-30110D01*
X29283Y-30133D01*
X29225Y-30205D01*
X29197Y-30300D01*
X29197Y-30491D01*
X29225Y-30538D01*
X29254Y-30562D01*
X29311Y-30586D01*
X29425Y-30586D01*
X29483Y-30562D01*
X29511Y-30538D01*
X29540Y-30491D01*
X29540Y-30371D01*
X29511Y-30324D01*
X29483Y-30300D01*
X29425Y-30276D01*
X29311Y-30276D01*
X29254Y-30300D01*
X29225Y-30324D01*
X29197Y-30371D01*
X35134Y-30562D02*
X35220Y-30586D01*
X35363Y-30586D01*
X35420Y-30562D01*
X35449Y-30538D01*
X35477Y-30491D01*
X35477Y-30443D01*
X35449Y-30395D01*
X35420Y-30371D01*
X35363Y-30348D01*
X35249Y-30324D01*
X35191Y-30300D01*
X35163Y-30276D01*
X35134Y-30229D01*
X35134Y-30181D01*
X35163Y-30133D01*
X35191Y-30110D01*
X35249Y-30086D01*
X35391Y-30086D01*
X35477Y-30110D01*
X35677Y-30086D02*
X35820Y-30586D01*
X35934Y-30229D01*
X36049Y-30586D01*
X36191Y-30086D01*
X36734Y-30586D02*
X36391Y-30586D01*
X36563Y-30586D02*
X36563Y-30086D01*
X36506Y-30157D01*
X36449Y-30205D01*
X36391Y-30229D01*
X37306Y-30586D02*
X36963Y-30586D01*
X37134Y-30586D02*
X37134Y-30086D01*
X37077Y-30157D01*
X37020Y-30205D01*
X36963Y-30229D01*
X20459Y-38042D02*
X20545Y-38066D01*
X20688Y-38066D01*
X20745Y-38042D01*
X20774Y-38018D01*
X20802Y-37971D01*
X20802Y-37923D01*
X20774Y-37876D01*
X20745Y-37852D01*
X20688Y-37828D01*
X20574Y-37804D01*
X20516Y-37780D01*
X20488Y-37757D01*
X20459Y-37709D01*
X20459Y-37661D01*
X20488Y-37614D01*
X20516Y-37590D01*
X20574Y-37566D01*
X20716Y-37566D01*
X20802Y-37590D01*
X21002Y-37566D02*
X21145Y-38066D01*
X21259Y-37709D01*
X21374Y-38066D01*
X21516Y-37566D01*
X21688Y-37566D02*
X22059Y-37566D01*
X21859Y-37757D01*
X21945Y-37757D01*
X22002Y-37780D01*
X22031Y-37804D01*
X22059Y-37852D01*
X22059Y-37971D01*
X22031Y-38018D01*
X22002Y-38042D01*
X21945Y-38066D01*
X21774Y-38066D01*
X21716Y-38042D01*
X21688Y-38018D01*
X27940Y-38042D02*
X28025Y-38066D01*
X28168Y-38066D01*
X28225Y-38042D01*
X28254Y-38018D01*
X28283Y-37971D01*
X28283Y-37923D01*
X28254Y-37876D01*
X28225Y-37852D01*
X28168Y-37828D01*
X28054Y-37804D01*
X27997Y-37780D01*
X27968Y-37757D01*
X27940Y-37709D01*
X27940Y-37661D01*
X27968Y-37614D01*
X27997Y-37590D01*
X28054Y-37566D01*
X28197Y-37566D01*
X28283Y-37590D01*
X28483Y-37566D02*
X28625Y-38066D01*
X28740Y-37709D01*
X28854Y-38066D01*
X28997Y-37566D01*
X29168Y-37566D02*
X29568Y-37566D01*
X29311Y-38066D01*
X35134Y-38042D02*
X35220Y-38066D01*
X35363Y-38066D01*
X35420Y-38042D01*
X35449Y-38018D01*
X35477Y-37971D01*
X35477Y-37923D01*
X35449Y-37876D01*
X35420Y-37852D01*
X35363Y-37828D01*
X35249Y-37804D01*
X35191Y-37780D01*
X35163Y-37757D01*
X35134Y-37709D01*
X35134Y-37661D01*
X35163Y-37614D01*
X35191Y-37590D01*
X35249Y-37566D01*
X35391Y-37566D01*
X35477Y-37590D01*
X35677Y-37566D02*
X35820Y-38066D01*
X35934Y-37709D01*
X36049Y-38066D01*
X36191Y-37566D01*
X36734Y-38066D02*
X36391Y-38066D01*
X36563Y-38066D02*
X36563Y-37566D01*
X36506Y-37637D01*
X36449Y-37685D01*
X36391Y-37709D01*
X36963Y-37614D02*
X36991Y-37590D01*
X37049Y-37566D01*
X37191Y-37566D01*
X37249Y-37590D01*
X37277Y-37614D01*
X37306Y-37661D01*
X37306Y-37709D01*
X37277Y-37780D01*
X36934Y-38066D01*
X37306Y-38066D01*
X27940Y-53003D02*
X28025Y-53027D01*
X28168Y-53027D01*
X28225Y-53003D01*
X28254Y-52979D01*
X28283Y-52931D01*
X28283Y-52884D01*
X28254Y-52836D01*
X28225Y-52812D01*
X28168Y-52789D01*
X28054Y-52765D01*
X27997Y-52741D01*
X27968Y-52717D01*
X27940Y-52670D01*
X27940Y-52622D01*
X27968Y-52574D01*
X27997Y-52550D01*
X28054Y-52527D01*
X28197Y-52527D01*
X28283Y-52550D01*
X28483Y-52527D02*
X28625Y-53027D01*
X28740Y-52670D01*
X28854Y-53027D01*
X28997Y-52527D01*
X29311Y-52741D02*
X29254Y-52717D01*
X29225Y-52693D01*
X29197Y-52646D01*
X29197Y-52622D01*
X29225Y-52574D01*
X29254Y-52550D01*
X29311Y-52527D01*
X29425Y-52527D01*
X29483Y-52550D01*
X29511Y-52574D01*
X29540Y-52622D01*
X29540Y-52646D01*
X29511Y-52693D01*
X29483Y-52717D01*
X29425Y-52741D01*
X29311Y-52741D01*
X29254Y-52765D01*
X29225Y-52789D01*
X29197Y-52836D01*
X29197Y-52931D01*
X29225Y-52979D01*
X29254Y-53003D01*
X29311Y-53027D01*
X29425Y-53027D01*
X29483Y-53003D01*
X29511Y-52979D01*
X29540Y-52931D01*
X29540Y-52836D01*
X29511Y-52789D01*
X29483Y-52765D01*
X29425Y-52741D01*
X20459Y-60483D02*
X20545Y-60507D01*
X20688Y-60507D01*
X20745Y-60483D01*
X20774Y-60459D01*
X20802Y-60412D01*
X20802Y-60364D01*
X20774Y-60317D01*
X20745Y-60293D01*
X20688Y-60269D01*
X20574Y-60245D01*
X20516Y-60221D01*
X20488Y-60197D01*
X20459Y-60150D01*
X20459Y-60102D01*
X20488Y-60055D01*
X20516Y-60031D01*
X20574Y-60007D01*
X20716Y-60007D01*
X20802Y-60031D01*
X21002Y-60007D02*
X21145Y-60507D01*
X21259Y-60150D01*
X21374Y-60507D01*
X21516Y-60007D01*
X22002Y-60174D02*
X22002Y-60507D01*
X21859Y-59983D02*
X21716Y-60340D01*
X22088Y-60340D01*
X27940Y-60483D02*
X28025Y-60507D01*
X28168Y-60507D01*
X28225Y-60483D01*
X28254Y-60459D01*
X28283Y-60412D01*
X28283Y-60364D01*
X28254Y-60317D01*
X28225Y-60293D01*
X28168Y-60269D01*
X28054Y-60245D01*
X27997Y-60221D01*
X27968Y-60197D01*
X27940Y-60150D01*
X27940Y-60102D01*
X27968Y-60055D01*
X27997Y-60031D01*
X28054Y-60007D01*
X28197Y-60007D01*
X28283Y-60031D01*
X28483Y-60007D02*
X28625Y-60507D01*
X28740Y-60150D01*
X28854Y-60507D01*
X28997Y-60007D01*
X29254Y-60507D02*
X29368Y-60507D01*
X29425Y-60483D01*
X29454Y-60459D01*
X29511Y-60388D01*
X29540Y-60293D01*
X29540Y-60102D01*
X29511Y-60055D01*
X29483Y-60031D01*
X29425Y-60007D01*
X29311Y-60007D01*
X29254Y-60031D01*
X29225Y-60055D01*
X29197Y-60102D01*
X29197Y-60221D01*
X29225Y-60269D01*
X29254Y-60293D01*
X29311Y-60317D01*
X29425Y-60317D01*
X29483Y-60293D01*
X29511Y-60269D01*
X29540Y-60221D01*
X35134Y-60483D02*
X35220Y-60507D01*
X35363Y-60507D01*
X35420Y-60483D01*
X35449Y-60459D01*
X35477Y-60412D01*
X35477Y-60364D01*
X35449Y-60317D01*
X35420Y-60293D01*
X35363Y-60269D01*
X35249Y-60245D01*
X35191Y-60221D01*
X35163Y-60197D01*
X35134Y-60150D01*
X35134Y-60102D01*
X35163Y-60055D01*
X35191Y-60031D01*
X35249Y-60007D01*
X35391Y-60007D01*
X35477Y-60031D01*
X35677Y-60007D02*
X35820Y-60507D01*
X35934Y-60150D01*
X36049Y-60507D01*
X36191Y-60007D01*
X36734Y-60507D02*
X36391Y-60507D01*
X36563Y-60507D02*
X36563Y-60007D01*
X36506Y-60078D01*
X36449Y-60126D01*
X36391Y-60150D01*
X36934Y-60007D02*
X37306Y-60007D01*
X37106Y-60197D01*
X37191Y-60197D01*
X37249Y-60221D01*
X37277Y-60245D01*
X37306Y-60293D01*
X37306Y-60412D01*
X37277Y-60459D01*
X37249Y-60483D01*
X37191Y-60507D01*
X37020Y-60507D01*
X36963Y-60483D01*
X36934Y-60459D01*
X44583Y-30562D02*
X44669Y-30586D01*
X44812Y-30586D01*
X44869Y-30562D01*
X44897Y-30538D01*
X44926Y-30491D01*
X44926Y-30443D01*
X44897Y-30395D01*
X44869Y-30371D01*
X44812Y-30348D01*
X44697Y-30324D01*
X44640Y-30300D01*
X44612Y-30276D01*
X44583Y-30229D01*
X44583Y-30181D01*
X44612Y-30133D01*
X44640Y-30110D01*
X44697Y-30086D01*
X44840Y-30086D01*
X44926Y-30110D01*
X45126Y-30086D02*
X45269Y-30586D01*
X45383Y-30229D01*
X45497Y-30586D01*
X45640Y-30086D01*
X46183Y-30586D02*
X45840Y-30586D01*
X46012Y-30586D02*
X46012Y-30086D01*
X45955Y-30157D01*
X45897Y-30205D01*
X45840Y-30229D01*
X46697Y-30252D02*
X46697Y-30586D01*
X46555Y-30062D02*
X46412Y-30419D01*
X46783Y-30419D01*
X52063Y-30562D02*
X52149Y-30586D01*
X52292Y-30586D01*
X52349Y-30562D01*
X52378Y-30538D01*
X52406Y-30491D01*
X52406Y-30443D01*
X52378Y-30395D01*
X52349Y-30371D01*
X52292Y-30348D01*
X52178Y-30324D01*
X52121Y-30300D01*
X52092Y-30276D01*
X52063Y-30229D01*
X52063Y-30181D01*
X52092Y-30133D01*
X52121Y-30110D01*
X52178Y-30086D01*
X52321Y-30086D01*
X52406Y-30110D01*
X52606Y-30086D02*
X52749Y-30586D01*
X52863Y-30229D01*
X52978Y-30586D01*
X53121Y-30086D01*
X53663Y-30586D02*
X53321Y-30586D01*
X53492Y-30586D02*
X53492Y-30086D01*
X53435Y-30157D01*
X53378Y-30205D01*
X53321Y-30229D01*
X53949Y-30586D02*
X54063Y-30586D01*
X54121Y-30562D01*
X54149Y-30538D01*
X54206Y-30467D01*
X54235Y-30371D01*
X54235Y-30181D01*
X54206Y-30133D01*
X54178Y-30110D01*
X54121Y-30086D01*
X54006Y-30086D01*
X53949Y-30110D01*
X53921Y-30133D01*
X53892Y-30181D01*
X53892Y-30300D01*
X53921Y-30348D01*
X53949Y-30371D01*
X54006Y-30395D01*
X54121Y-30395D01*
X54178Y-30371D01*
X54206Y-30348D01*
X54235Y-30300D01*
X64127Y-12638D02*
X64127Y-12238D01*
X64280Y-12238D01*
X64318Y-12257D01*
X64337Y-12276D01*
X64356Y-12314D01*
X64356Y-12371D01*
X64337Y-12409D01*
X64318Y-12428D01*
X64280Y-12447D01*
X64127Y-12447D01*
X64737Y-12638D02*
X64508Y-12638D01*
X64623Y-12638D02*
X64623Y-12238D01*
X64585Y-12295D01*
X64547Y-12333D01*
X64508Y-12352D01*
X70767Y-12638D02*
X70767Y-12238D01*
X70920Y-12238D01*
X70958Y-12257D01*
X70977Y-12276D01*
X70996Y-12314D01*
X70996Y-12371D01*
X70977Y-12409D01*
X70958Y-12428D01*
X70920Y-12447D01*
X70767Y-12447D01*
X71148Y-12276D02*
X71167Y-12257D01*
X71205Y-12238D01*
X71301Y-12238D01*
X71339Y-12257D01*
X71358Y-12276D01*
X71377Y-12314D01*
X71377Y-12352D01*
X71358Y-12409D01*
X71129Y-12638D01*
X71377Y-12638D01*
M02*
