G04 (created by PCBNEW (2013-07-07 BZR 4022)-stable) date 12/12/2017 2:38:17 AM*
%MOIN*%
G04 Gerber Fmt 3.4, Leading zero omitted, Abs format*
%FSLAX34Y34*%
G01*
G70*
G90*
G04 APERTURE LIST*
%ADD10C,0.00590551*%
%ADD11C,0.09*%
%ADD12C,0.157*%
%ADD13C,0.065*%
%ADD14R,0.065X0.065*%
%ADD15C,0.15*%
%ADD16R,0.06X0.06*%
%ADD17C,0.06*%
%ADD18C,0.0944882*%
%ADD19C,0.15748*%
%ADD20C,0.120079*%
%ADD21C,0.035*%
%ADD22C,0.01*%
G04 APERTURE END LIST*
G54D10*
G54D11*
X101362Y-24440D03*
X103862Y-23440D03*
G54D12*
X102362Y-22440D03*
G54D13*
X105862Y-23440D03*
G54D14*
X105862Y-20440D03*
G54D13*
X102862Y-20440D03*
G54D14*
X101862Y-20440D03*
X104330Y-18940D03*
G54D13*
X100393Y-18940D03*
G54D11*
X112582Y-31921D03*
X115082Y-30921D03*
G54D12*
X113582Y-29921D03*
G54D13*
X117082Y-30921D03*
G54D14*
X117082Y-27921D03*
G54D13*
X114082Y-27921D03*
G54D14*
X113082Y-27921D03*
X115551Y-26421D03*
G54D13*
X111614Y-26421D03*
G54D11*
X105102Y-31921D03*
X107602Y-30921D03*
G54D12*
X106102Y-29921D03*
G54D13*
X109602Y-30921D03*
G54D14*
X109602Y-27921D03*
G54D13*
X106602Y-27921D03*
G54D14*
X105602Y-27921D03*
X108070Y-26421D03*
G54D13*
X104133Y-26421D03*
G54D11*
X97622Y-31921D03*
X100122Y-30921D03*
G54D12*
X98622Y-29921D03*
G54D13*
X102122Y-30921D03*
G54D14*
X102122Y-27921D03*
G54D13*
X99122Y-27921D03*
G54D14*
X98122Y-27921D03*
X100590Y-26421D03*
G54D13*
X96653Y-26421D03*
G54D11*
X90141Y-31921D03*
X92641Y-30921D03*
G54D12*
X91141Y-29921D03*
G54D13*
X94641Y-30921D03*
G54D14*
X94641Y-27921D03*
G54D13*
X91641Y-27921D03*
G54D14*
X90641Y-27921D03*
X93110Y-26421D03*
G54D13*
X89173Y-26421D03*
G54D11*
X82661Y-31921D03*
X85161Y-30921D03*
G54D12*
X83661Y-29921D03*
G54D13*
X87161Y-30921D03*
G54D14*
X87161Y-27921D03*
G54D13*
X84161Y-27921D03*
G54D14*
X83161Y-27921D03*
X85629Y-26421D03*
G54D13*
X81692Y-26421D03*
G54D11*
X73311Y-31921D03*
X75811Y-30921D03*
G54D12*
X74311Y-29921D03*
G54D13*
X77811Y-30921D03*
G54D14*
X77811Y-27921D03*
G54D13*
X74811Y-27921D03*
G54D14*
X73811Y-27921D03*
X76279Y-26421D03*
G54D13*
X72342Y-26421D03*
G54D11*
X125673Y-24440D03*
X128173Y-23440D03*
G54D12*
X126673Y-22440D03*
G54D13*
X130173Y-23440D03*
G54D14*
X130173Y-20440D03*
G54D13*
X127173Y-20440D03*
G54D14*
X126173Y-20440D03*
X128641Y-18940D03*
G54D13*
X124704Y-18940D03*
G54D11*
X116322Y-24440D03*
X118822Y-23440D03*
G54D12*
X117322Y-22440D03*
G54D13*
X120822Y-23440D03*
G54D14*
X120822Y-20440D03*
G54D13*
X117822Y-20440D03*
G54D14*
X116822Y-20440D03*
X119291Y-18940D03*
G54D13*
X115354Y-18940D03*
G54D11*
X108842Y-24440D03*
X111342Y-23440D03*
G54D12*
X109842Y-22440D03*
G54D13*
X113342Y-23440D03*
G54D14*
X113342Y-20440D03*
G54D13*
X110342Y-20440D03*
G54D14*
X109342Y-20440D03*
X111811Y-18940D03*
G54D13*
X107874Y-18940D03*
G54D11*
X74246Y-39401D03*
X76746Y-38401D03*
G54D12*
X75246Y-37401D03*
G54D13*
X78746Y-38401D03*
G54D14*
X78746Y-35401D03*
G54D13*
X75746Y-35401D03*
G54D14*
X74746Y-35401D03*
X77214Y-33901D03*
G54D13*
X73277Y-33901D03*
G54D11*
X93881Y-24440D03*
X96381Y-23440D03*
G54D12*
X94881Y-22440D03*
G54D13*
X98381Y-23440D03*
G54D14*
X98381Y-20440D03*
G54D13*
X95381Y-20440D03*
G54D14*
X94381Y-20440D03*
X96850Y-18940D03*
G54D13*
X92913Y-18940D03*
G54D11*
X86401Y-24440D03*
X88901Y-23440D03*
G54D12*
X87401Y-22440D03*
G54D13*
X90901Y-23440D03*
G54D14*
X90901Y-20440D03*
G54D13*
X87901Y-20440D03*
G54D14*
X86901Y-20440D03*
X89370Y-18940D03*
G54D13*
X85433Y-18940D03*
G54D11*
X78921Y-24440D03*
X81421Y-23440D03*
G54D12*
X79921Y-22440D03*
G54D13*
X83421Y-23440D03*
G54D14*
X83421Y-20440D03*
G54D13*
X80421Y-20440D03*
G54D14*
X79421Y-20440D03*
X81889Y-18940D03*
G54D13*
X77952Y-18940D03*
G54D11*
X71440Y-24440D03*
X73940Y-23440D03*
G54D12*
X72440Y-22440D03*
G54D13*
X75940Y-23440D03*
G54D14*
X75940Y-20440D03*
G54D13*
X72940Y-20440D03*
G54D14*
X71940Y-20440D03*
X74409Y-18940D03*
G54D13*
X70472Y-18940D03*
G54D11*
X127543Y-13417D03*
X130043Y-12417D03*
G54D12*
X128543Y-11417D03*
G54D13*
X132043Y-12417D03*
G54D14*
X132043Y-9417D03*
G54D13*
X129043Y-9417D03*
G54D14*
X128043Y-9417D03*
X130511Y-7917D03*
G54D13*
X126574Y-7917D03*
G54D11*
X116322Y-13417D03*
X118822Y-12417D03*
G54D12*
X117322Y-11417D03*
G54D13*
X120822Y-12417D03*
G54D14*
X120822Y-9417D03*
G54D13*
X117822Y-9417D03*
G54D14*
X116822Y-9417D03*
X119291Y-7917D03*
G54D13*
X115354Y-7917D03*
G54D11*
X108842Y-13417D03*
X111342Y-12417D03*
G54D12*
X109842Y-11417D03*
G54D13*
X113342Y-12417D03*
G54D14*
X113342Y-9417D03*
G54D13*
X110342Y-9417D03*
G54D14*
X109342Y-9417D03*
X111811Y-7917D03*
G54D13*
X107874Y-7917D03*
G54D11*
X101362Y-13417D03*
X103862Y-12417D03*
G54D12*
X102362Y-11417D03*
G54D13*
X105862Y-12417D03*
G54D14*
X105862Y-9417D03*
G54D13*
X102862Y-9417D03*
G54D14*
X101862Y-9417D03*
X104330Y-7917D03*
G54D13*
X100393Y-7917D03*
G54D11*
X93881Y-13417D03*
X96381Y-12417D03*
G54D12*
X94881Y-11417D03*
G54D13*
X98381Y-12417D03*
G54D14*
X98381Y-9417D03*
G54D13*
X95381Y-9417D03*
G54D14*
X94381Y-9417D03*
X96850Y-7917D03*
G54D13*
X92913Y-7917D03*
G54D11*
X103232Y-46881D03*
X105732Y-45881D03*
G54D12*
X104232Y-44881D03*
G54D13*
X107732Y-45881D03*
G54D14*
X107732Y-42881D03*
G54D13*
X104732Y-42881D03*
G54D14*
X103732Y-42881D03*
X106200Y-41381D03*
G54D13*
X102263Y-41381D03*
G54D11*
X127543Y-54362D03*
X130043Y-53362D03*
G54D12*
X128543Y-52362D03*
G54D13*
X132043Y-53362D03*
G54D14*
X132043Y-50362D03*
G54D13*
X129043Y-50362D03*
G54D14*
X128043Y-50362D03*
X130511Y-48862D03*
G54D13*
X126574Y-48862D03*
G54D11*
X101362Y-54362D03*
X103862Y-53362D03*
G54D12*
X102362Y-52362D03*
G54D13*
X105862Y-53362D03*
G54D14*
X105862Y-50362D03*
G54D13*
X102862Y-50362D03*
G54D14*
X101862Y-50362D03*
X104330Y-48862D03*
G54D13*
X100393Y-48862D03*
G54D11*
X91076Y-54362D03*
X93576Y-53362D03*
G54D12*
X92076Y-52362D03*
G54D13*
X95576Y-53362D03*
G54D14*
X95576Y-50362D03*
G54D13*
X92576Y-50362D03*
G54D14*
X91576Y-50362D03*
X94045Y-48862D03*
G54D13*
X90108Y-48862D03*
G54D11*
X126608Y-46881D03*
X129108Y-45881D03*
G54D12*
X127608Y-44881D03*
G54D13*
X131108Y-45881D03*
G54D14*
X131108Y-42881D03*
G54D13*
X128108Y-42881D03*
G54D14*
X127108Y-42881D03*
X129576Y-41381D03*
G54D13*
X125639Y-41381D03*
G54D11*
X118192Y-46881D03*
X120692Y-45881D03*
G54D12*
X119192Y-44881D03*
G54D13*
X122692Y-45881D03*
G54D14*
X122692Y-42881D03*
G54D13*
X119692Y-42881D03*
G54D14*
X118692Y-42881D03*
X121161Y-41381D03*
G54D13*
X117224Y-41381D03*
G54D11*
X110712Y-46881D03*
X113212Y-45881D03*
G54D12*
X111712Y-44881D03*
G54D13*
X115212Y-45881D03*
G54D14*
X115212Y-42881D03*
G54D13*
X112212Y-42881D03*
G54D14*
X111212Y-42881D03*
X113681Y-41381D03*
G54D13*
X109744Y-41381D03*
G54D11*
X86401Y-13417D03*
X88901Y-12417D03*
G54D12*
X87401Y-11417D03*
G54D13*
X90901Y-12417D03*
G54D14*
X90901Y-9417D03*
G54D13*
X87901Y-9417D03*
G54D14*
X86901Y-9417D03*
X89370Y-7917D03*
G54D13*
X85433Y-7917D03*
G54D11*
X95751Y-46881D03*
X98251Y-45881D03*
G54D12*
X96751Y-44881D03*
G54D13*
X100251Y-45881D03*
G54D14*
X100251Y-42881D03*
G54D13*
X97251Y-42881D03*
G54D14*
X96251Y-42881D03*
X98720Y-41381D03*
G54D13*
X94783Y-41381D03*
G54D11*
X88271Y-46881D03*
X90771Y-45881D03*
G54D12*
X89271Y-44881D03*
G54D13*
X92771Y-45881D03*
G54D14*
X92771Y-42881D03*
G54D13*
X89771Y-42881D03*
G54D14*
X88771Y-42881D03*
X91240Y-41381D03*
G54D13*
X87303Y-41381D03*
G54D11*
X124738Y-39401D03*
X127238Y-38401D03*
G54D12*
X125738Y-37401D03*
G54D13*
X129238Y-38401D03*
G54D14*
X129238Y-35401D03*
G54D13*
X126238Y-35401D03*
G54D14*
X125238Y-35401D03*
X127706Y-33901D03*
G54D13*
X123769Y-33901D03*
G54D11*
X114452Y-39401D03*
X116952Y-38401D03*
G54D12*
X115452Y-37401D03*
G54D13*
X118952Y-38401D03*
G54D14*
X118952Y-35401D03*
G54D13*
X115952Y-35401D03*
G54D14*
X114952Y-35401D03*
X117421Y-33901D03*
G54D13*
X113484Y-33901D03*
G54D11*
X106972Y-39401D03*
X109472Y-38401D03*
G54D12*
X107972Y-37401D03*
G54D13*
X111472Y-38401D03*
G54D14*
X111472Y-35401D03*
G54D13*
X108472Y-35401D03*
G54D14*
X107472Y-35401D03*
X109940Y-33901D03*
G54D13*
X106003Y-33901D03*
G54D11*
X99492Y-39401D03*
X101992Y-38401D03*
G54D12*
X100492Y-37401D03*
G54D13*
X103992Y-38401D03*
G54D14*
X103992Y-35401D03*
G54D13*
X100992Y-35401D03*
G54D14*
X99992Y-35401D03*
X102460Y-33901D03*
G54D13*
X98523Y-33901D03*
G54D11*
X92011Y-39401D03*
X94511Y-38401D03*
G54D12*
X93011Y-37401D03*
G54D13*
X96511Y-38401D03*
G54D14*
X96511Y-35401D03*
G54D13*
X93511Y-35401D03*
G54D14*
X92511Y-35401D03*
X94980Y-33901D03*
G54D13*
X91043Y-33901D03*
G54D11*
X84531Y-39401D03*
X87031Y-38401D03*
G54D12*
X85531Y-37401D03*
G54D13*
X89031Y-38401D03*
G54D14*
X89031Y-35401D03*
G54D13*
X86031Y-35401D03*
G54D14*
X85031Y-35401D03*
X87500Y-33901D03*
G54D13*
X83562Y-33901D03*
G54D11*
X15141Y-24440D03*
X17641Y-23440D03*
G54D12*
X16141Y-22440D03*
G54D13*
X19641Y-23440D03*
G54D14*
X19641Y-20440D03*
G54D13*
X16641Y-20440D03*
G54D14*
X15641Y-20440D03*
X18110Y-18940D03*
G54D13*
X14173Y-18940D03*
G54D11*
X37582Y-39401D03*
X40082Y-38401D03*
G54D12*
X38582Y-37401D03*
G54D13*
X42082Y-38401D03*
G54D14*
X42082Y-35401D03*
G54D13*
X39082Y-35401D03*
G54D14*
X38082Y-35401D03*
X40551Y-33901D03*
G54D13*
X36614Y-33901D03*
G54D11*
X30102Y-39401D03*
X32602Y-38401D03*
G54D12*
X31102Y-37401D03*
G54D13*
X34602Y-38401D03*
G54D14*
X34602Y-35401D03*
G54D13*
X31602Y-35401D03*
G54D14*
X30602Y-35401D03*
X33070Y-33901D03*
G54D13*
X29133Y-33901D03*
G54D11*
X22622Y-39401D03*
X25122Y-38401D03*
G54D12*
X23622Y-37401D03*
G54D13*
X27122Y-38401D03*
G54D14*
X27122Y-35401D03*
G54D13*
X24122Y-35401D03*
G54D14*
X23122Y-35401D03*
X25590Y-33901D03*
G54D13*
X21653Y-33901D03*
G54D11*
X37582Y-31921D03*
X40082Y-30921D03*
G54D12*
X38582Y-29921D03*
G54D13*
X42082Y-30921D03*
G54D14*
X42082Y-27921D03*
G54D13*
X39082Y-27921D03*
G54D14*
X38082Y-27921D03*
X40551Y-26421D03*
G54D13*
X36614Y-26421D03*
G54D11*
X30102Y-31921D03*
X32602Y-30921D03*
G54D12*
X31102Y-29921D03*
G54D13*
X34602Y-30921D03*
G54D14*
X34602Y-27921D03*
G54D13*
X31602Y-27921D03*
G54D14*
X30602Y-27921D03*
X33070Y-26421D03*
G54D13*
X29133Y-26421D03*
G54D11*
X22622Y-31921D03*
X25122Y-30921D03*
G54D12*
X23622Y-29921D03*
G54D13*
X27122Y-30921D03*
G54D14*
X27122Y-27921D03*
G54D13*
X24122Y-27921D03*
G54D14*
X23122Y-27921D03*
X25590Y-26421D03*
G54D13*
X21653Y-26421D03*
G54D11*
X37582Y-24440D03*
X40082Y-23440D03*
G54D12*
X38582Y-22440D03*
G54D13*
X42082Y-23440D03*
G54D14*
X42082Y-20440D03*
G54D13*
X39082Y-20440D03*
G54D14*
X38082Y-20440D03*
X40551Y-18940D03*
G54D13*
X36614Y-18940D03*
G54D11*
X30102Y-24440D03*
X32602Y-23440D03*
G54D12*
X31102Y-22440D03*
G54D13*
X34602Y-23440D03*
G54D14*
X34602Y-20440D03*
G54D13*
X31602Y-20440D03*
G54D14*
X30602Y-20440D03*
X33070Y-18940D03*
G54D13*
X29133Y-18940D03*
G54D11*
X22622Y-24440D03*
X25122Y-23440D03*
G54D12*
X23622Y-22440D03*
G54D13*
X27122Y-23440D03*
G54D14*
X27122Y-20440D03*
G54D13*
X24122Y-20440D03*
G54D14*
X23122Y-20440D03*
X25590Y-18940D03*
G54D13*
X21653Y-18940D03*
G54D11*
X37582Y-13417D03*
X40082Y-12417D03*
G54D12*
X38582Y-11417D03*
G54D13*
X42082Y-12417D03*
G54D14*
X42082Y-9417D03*
G54D13*
X39082Y-9417D03*
G54D14*
X38082Y-9417D03*
X40551Y-7917D03*
G54D13*
X36614Y-7917D03*
G54D11*
X30102Y-13417D03*
X32602Y-12417D03*
G54D12*
X31102Y-11417D03*
G54D13*
X34602Y-12417D03*
G54D14*
X34602Y-9417D03*
G54D13*
X31602Y-9417D03*
G54D14*
X30602Y-9417D03*
X33070Y-7917D03*
G54D13*
X29133Y-7917D03*
G54D11*
X22622Y-13417D03*
X25122Y-12417D03*
G54D12*
X23622Y-11417D03*
G54D13*
X27122Y-12417D03*
G54D14*
X27122Y-9417D03*
G54D13*
X24122Y-9417D03*
G54D14*
X23122Y-9417D03*
X25590Y-7917D03*
G54D13*
X21653Y-7917D03*
G54D11*
X15141Y-13417D03*
X17641Y-12417D03*
G54D12*
X16141Y-11417D03*
G54D13*
X19641Y-12417D03*
G54D14*
X19641Y-9417D03*
G54D13*
X16641Y-9417D03*
G54D14*
X15641Y-9417D03*
X18110Y-7917D03*
G54D13*
X14173Y-7917D03*
G54D11*
X5692Y-54362D03*
X8192Y-53362D03*
G54D12*
X6692Y-52362D03*
G54D13*
X10192Y-53362D03*
G54D14*
X10192Y-50362D03*
G54D13*
X7192Y-50362D03*
G54D14*
X6192Y-50362D03*
X8661Y-48862D03*
G54D13*
X4724Y-48862D03*
G54D11*
X5692Y-46881D03*
X8192Y-45881D03*
G54D12*
X6692Y-44881D03*
G54D13*
X10192Y-45881D03*
G54D14*
X10192Y-42881D03*
G54D13*
X7192Y-42881D03*
G54D14*
X6192Y-42881D03*
X8661Y-41381D03*
G54D13*
X4724Y-41381D03*
G54D11*
X5692Y-39401D03*
X8192Y-38401D03*
G54D12*
X6692Y-37401D03*
G54D13*
X10192Y-38401D03*
G54D14*
X10192Y-35401D03*
G54D13*
X7192Y-35401D03*
G54D14*
X6192Y-35401D03*
X8661Y-33901D03*
G54D13*
X4724Y-33901D03*
G54D11*
X5692Y-31921D03*
X8192Y-30921D03*
G54D12*
X6692Y-29921D03*
G54D13*
X10192Y-30921D03*
G54D14*
X10192Y-27921D03*
G54D13*
X7192Y-27921D03*
G54D14*
X6192Y-27921D03*
X8661Y-26421D03*
G54D13*
X4724Y-26421D03*
G54D11*
X5692Y-24440D03*
X8192Y-23440D03*
G54D12*
X6692Y-22440D03*
G54D13*
X10192Y-23440D03*
G54D14*
X10192Y-20440D03*
G54D13*
X7192Y-20440D03*
G54D14*
X6192Y-20440D03*
X8661Y-18940D03*
G54D13*
X4724Y-18940D03*
G54D11*
X47031Y-24440D03*
X49531Y-23440D03*
G54D12*
X48031Y-22440D03*
G54D13*
X51531Y-23440D03*
G54D14*
X51531Y-20440D03*
G54D13*
X48531Y-20440D03*
G54D14*
X47531Y-20440D03*
X50000Y-18940D03*
G54D13*
X46062Y-18940D03*
G54D11*
X71440Y-13417D03*
X73940Y-12417D03*
G54D12*
X72440Y-11417D03*
G54D13*
X75940Y-12417D03*
G54D14*
X75940Y-9417D03*
G54D13*
X72940Y-9417D03*
G54D14*
X71940Y-9417D03*
X74409Y-7917D03*
G54D13*
X70472Y-7917D03*
G54D11*
X61992Y-54362D03*
X64492Y-53362D03*
G54D12*
X62992Y-52362D03*
G54D13*
X66492Y-53362D03*
G54D14*
X66492Y-50362D03*
G54D13*
X63492Y-50362D03*
G54D14*
X62492Y-50362D03*
X64960Y-48862D03*
G54D13*
X61023Y-48862D03*
G54D11*
X54511Y-54362D03*
X57011Y-53362D03*
G54D12*
X55511Y-52362D03*
G54D13*
X59011Y-53362D03*
G54D14*
X59011Y-50362D03*
G54D13*
X56011Y-50362D03*
G54D14*
X55011Y-50362D03*
X57480Y-48862D03*
G54D13*
X53543Y-48862D03*
G54D11*
X47031Y-54362D03*
X49531Y-53362D03*
G54D12*
X48031Y-52362D03*
G54D13*
X51531Y-53362D03*
G54D14*
X51531Y-50362D03*
G54D13*
X48531Y-50362D03*
G54D14*
X47531Y-50362D03*
X50000Y-48862D03*
G54D13*
X46062Y-48862D03*
G54D11*
X54511Y-46881D03*
X57011Y-45881D03*
G54D12*
X55511Y-44881D03*
G54D13*
X59011Y-45881D03*
G54D14*
X59011Y-42881D03*
G54D13*
X56011Y-42881D03*
G54D14*
X55011Y-42881D03*
X57480Y-41381D03*
G54D13*
X53543Y-41381D03*
G54D11*
X61992Y-31921D03*
X64492Y-30921D03*
G54D12*
X62992Y-29921D03*
G54D13*
X66492Y-30921D03*
G54D14*
X66492Y-27921D03*
G54D13*
X63492Y-27921D03*
G54D14*
X62492Y-27921D03*
X64960Y-26421D03*
G54D13*
X61023Y-26421D03*
G54D11*
X54511Y-31921D03*
X57011Y-30921D03*
G54D12*
X55511Y-29921D03*
G54D13*
X59011Y-30921D03*
G54D14*
X59011Y-27921D03*
G54D13*
X56011Y-27921D03*
G54D14*
X55011Y-27921D03*
X57480Y-26421D03*
G54D13*
X53543Y-26421D03*
G54D11*
X47031Y-31921D03*
X49531Y-30921D03*
G54D12*
X48031Y-29921D03*
G54D13*
X51531Y-30921D03*
G54D14*
X51531Y-27921D03*
G54D13*
X48531Y-27921D03*
G54D14*
X47531Y-27921D03*
X50000Y-26421D03*
G54D13*
X46062Y-26421D03*
G54D11*
X61992Y-24440D03*
X64492Y-23440D03*
G54D12*
X62992Y-22440D03*
G54D13*
X66492Y-23440D03*
G54D14*
X66492Y-20440D03*
G54D13*
X63492Y-20440D03*
G54D14*
X62492Y-20440D03*
X64960Y-18940D03*
G54D13*
X61023Y-18940D03*
G54D11*
X54511Y-24440D03*
X57011Y-23440D03*
G54D12*
X55511Y-22440D03*
G54D13*
X59011Y-23440D03*
G54D14*
X59011Y-20440D03*
G54D13*
X56011Y-20440D03*
G54D14*
X55011Y-20440D03*
X57480Y-18940D03*
G54D13*
X53543Y-18940D03*
G54D11*
X5692Y-13417D03*
X8192Y-12417D03*
G54D12*
X6692Y-11417D03*
G54D13*
X10192Y-12417D03*
G54D14*
X10192Y-9417D03*
G54D13*
X7192Y-9417D03*
G54D14*
X6192Y-9417D03*
X8661Y-7917D03*
G54D13*
X4724Y-7917D03*
G54D11*
X61992Y-13417D03*
X64492Y-12417D03*
G54D12*
X62992Y-11417D03*
G54D13*
X66492Y-12417D03*
G54D14*
X66492Y-9417D03*
G54D13*
X63492Y-9417D03*
G54D14*
X62492Y-9417D03*
X64960Y-7917D03*
G54D13*
X61023Y-7917D03*
G54D11*
X54511Y-13417D03*
X57011Y-12417D03*
G54D12*
X55511Y-11417D03*
G54D13*
X59011Y-12417D03*
G54D14*
X59011Y-9417D03*
G54D13*
X56011Y-9417D03*
G54D14*
X55011Y-9417D03*
X57480Y-7917D03*
G54D13*
X53543Y-7917D03*
G54D11*
X47031Y-13417D03*
X49531Y-12417D03*
G54D12*
X48031Y-11417D03*
G54D13*
X51531Y-12417D03*
G54D14*
X51531Y-9417D03*
G54D13*
X48531Y-9417D03*
G54D14*
X47531Y-9417D03*
X50000Y-7917D03*
G54D13*
X46062Y-7917D03*
G54D11*
X22622Y-54362D03*
X25122Y-53362D03*
G54D12*
X23622Y-52362D03*
G54D13*
X27122Y-53362D03*
G54D14*
X27122Y-50362D03*
G54D13*
X24122Y-50362D03*
G54D14*
X23122Y-50362D03*
X25590Y-48862D03*
G54D13*
X21653Y-48862D03*
G54D11*
X37582Y-46881D03*
X40082Y-45881D03*
G54D12*
X38582Y-44881D03*
G54D13*
X42082Y-45881D03*
G54D14*
X42082Y-42881D03*
G54D13*
X39082Y-42881D03*
G54D14*
X38082Y-42881D03*
X40551Y-41381D03*
G54D13*
X36614Y-41381D03*
G54D11*
X30102Y-46881D03*
X32602Y-45881D03*
G54D12*
X31102Y-44881D03*
G54D13*
X34602Y-45881D03*
G54D14*
X34602Y-42881D03*
G54D13*
X31602Y-42881D03*
G54D14*
X30602Y-42881D03*
X33070Y-41381D03*
G54D13*
X29133Y-41381D03*
G54D11*
X22622Y-46881D03*
X25122Y-45881D03*
G54D12*
X23622Y-44881D03*
G54D13*
X27122Y-45881D03*
G54D14*
X27122Y-42881D03*
G54D13*
X24122Y-42881D03*
G54D14*
X23122Y-42881D03*
X25590Y-41381D03*
G54D13*
X21653Y-41381D03*
G54D15*
X44092Y-2952D03*
X25592Y-2952D03*
G54D16*
X28292Y-3502D03*
G54D17*
X29392Y-3502D03*
X30492Y-3502D03*
X31592Y-3502D03*
X32692Y-3502D03*
X33742Y-3502D03*
X34842Y-3502D03*
X35942Y-3502D03*
X37042Y-3502D03*
X38142Y-3502D03*
X39192Y-3502D03*
X40292Y-3502D03*
X41392Y-3502D03*
X28842Y-2402D03*
X29942Y-2402D03*
X31042Y-2402D03*
X32092Y-2402D03*
X33192Y-2402D03*
X34292Y-2402D03*
X35392Y-2402D03*
X36492Y-2402D03*
X37542Y-2402D03*
X38642Y-2402D03*
X39742Y-2402D03*
X40842Y-2402D03*
G54D18*
X1377Y-1377D03*
X133858Y-1377D03*
X67716Y-1377D03*
X1377Y-57677D03*
X67716Y-57677D03*
X133858Y-57677D03*
X67716Y-37401D03*
G54D11*
X18141Y-34661D03*
X17141Y-32161D03*
G54D12*
X16141Y-33661D03*
G54D13*
X17141Y-40748D03*
G54D14*
X14141Y-40748D03*
G54D13*
X14141Y-33161D03*
G54D14*
X14141Y-34161D03*
X12641Y-31692D03*
G54D13*
X12641Y-35629D03*
G54D19*
X19385Y-28976D03*
G54D20*
X13385Y-28976D03*
G54D19*
X19385Y-38346D03*
G54D20*
X13385Y-38346D03*
G54D11*
X18141Y-49622D03*
X17141Y-47122D03*
G54D12*
X16141Y-48622D03*
G54D13*
X17141Y-55708D03*
G54D14*
X14141Y-55708D03*
G54D13*
X14141Y-48122D03*
G54D14*
X14141Y-49122D03*
X12641Y-46653D03*
G54D13*
X12641Y-50590D03*
G54D19*
X19385Y-43937D03*
G54D20*
X13385Y-43937D03*
G54D19*
X19385Y-53307D03*
G54D20*
X13385Y-53307D03*
G54D11*
X33842Y-54362D03*
X36342Y-53362D03*
G54D12*
X34842Y-52362D03*
G54D13*
X41929Y-53362D03*
G54D14*
X41929Y-50362D03*
G54D13*
X35342Y-50362D03*
G54D14*
X34342Y-50362D03*
X36811Y-48862D03*
G54D13*
X32874Y-48862D03*
G54D19*
X39527Y-55606D03*
G54D20*
X39527Y-49606D03*
G54D19*
X30157Y-55606D03*
G54D20*
X30157Y-49606D03*
G54D11*
X76116Y-46881D03*
X78616Y-45881D03*
G54D12*
X77116Y-44881D03*
G54D13*
X70029Y-45881D03*
G54D14*
X70029Y-42881D03*
G54D13*
X77616Y-42881D03*
G54D14*
X76616Y-42881D03*
X79084Y-41381D03*
G54D13*
X75147Y-41381D03*
G54D19*
X81801Y-48125D03*
G54D20*
X81801Y-42125D03*
G54D19*
X72431Y-48125D03*
G54D20*
X72431Y-42125D03*
G54D11*
X123803Y-31921D03*
X126303Y-30921D03*
G54D12*
X124803Y-29921D03*
G54D13*
X131889Y-30921D03*
G54D14*
X131889Y-27921D03*
G54D13*
X125303Y-27921D03*
G54D14*
X124303Y-27921D03*
X126771Y-26421D03*
G54D13*
X122834Y-26421D03*
G54D19*
X129488Y-33165D03*
G54D20*
X129488Y-27165D03*
G54D19*
X120118Y-33165D03*
G54D20*
X120118Y-27165D03*
G54D11*
X115387Y-54362D03*
X117887Y-53362D03*
G54D12*
X116387Y-52362D03*
G54D13*
X109301Y-53362D03*
G54D14*
X109301Y-50362D03*
G54D13*
X116887Y-50362D03*
G54D14*
X115887Y-50362D03*
X118356Y-48862D03*
G54D13*
X114419Y-48862D03*
G54D19*
X121072Y-55606D03*
G54D20*
X121072Y-49606D03*
G54D19*
X111702Y-55606D03*
G54D20*
X111702Y-49606D03*
G54D11*
X72375Y-54362D03*
X74875Y-53362D03*
G54D12*
X73375Y-52362D03*
G54D13*
X76875Y-53362D03*
G54D14*
X76875Y-50362D03*
G54D13*
X73875Y-50362D03*
G54D14*
X72875Y-50362D03*
X75344Y-55862D03*
G54D13*
X71407Y-55862D03*
G54D11*
X81726Y-54362D03*
X84226Y-53362D03*
G54D12*
X82726Y-52362D03*
G54D13*
X86226Y-53362D03*
G54D14*
X86226Y-50362D03*
G54D13*
X83226Y-50362D03*
G54D14*
X82226Y-50362D03*
X84694Y-55862D03*
G54D13*
X80757Y-55862D03*
G54D21*
X71440Y-14960D03*
X41338Y-5511D03*
X44094Y-5511D03*
X44094Y-15354D03*
X28740Y-5118D03*
X20275Y-5314D03*
X20275Y-15748D03*
X43897Y-49803D03*
X116338Y-2362D03*
X33267Y-393D03*
X101377Y-3149D03*
X31102Y-1181D03*
X37007Y-12401D03*
X14960Y-41732D03*
X15157Y-45275D03*
X124409Y-5118D03*
X34251Y-4921D03*
X36023Y-14173D03*
X5314Y-27165D03*
X37598Y-57283D03*
X108661Y-2755D03*
X32086Y-590D03*
X93897Y-3543D03*
X29921Y-1574D03*
X35433Y-13385D03*
X50590Y-14960D03*
X26181Y-14960D03*
X27165Y-7480D03*
X30708Y-7283D03*
X32086Y-6299D03*
X34842Y-6299D03*
X43700Y-19685D03*
X43700Y-5905D03*
X36023Y-5905D03*
X52165Y-14566D03*
X37204Y-14566D03*
X36417Y-9055D03*
X37007Y-7086D03*
X26377Y-55708D03*
X29133Y-50787D03*
X28937Y-58070D03*
X3543Y-14566D03*
X5118Y-14566D03*
X33858Y-14566D03*
X43307Y-57283D03*
X96653Y-57480D03*
X87204Y-50393D03*
X88385Y-50393D03*
X12204Y-27165D03*
X12007Y-5708D03*
X38188Y-6299D03*
X10236Y-15354D03*
X40944Y-15354D03*
X11023Y-57677D03*
X60039Y-55118D03*
X43110Y-7677D03*
X43110Y-6299D03*
X40748Y-6299D03*
X4133Y-27952D03*
X4133Y-35433D03*
X4133Y-42913D03*
X4133Y-20472D03*
X4133Y-9251D03*
X76771Y-14566D03*
X53346Y-14566D03*
X53149Y-8858D03*
X28346Y-9417D03*
X27755Y-18700D03*
X69685Y-20275D03*
X69881Y-33858D03*
X43503Y-33661D03*
X39742Y-6714D03*
X30511Y-5905D03*
X27952Y-5905D03*
X70866Y-27362D03*
X70669Y-33267D03*
X43110Y-33070D03*
X27952Y-39370D03*
X12007Y-30118D03*
X21653Y-30314D03*
X31496Y-6299D03*
X10039Y-6299D03*
G54D22*
X41392Y-3502D02*
X41392Y-5457D01*
X41338Y-5511D02*
X41392Y-5457D01*
X44094Y-15354D02*
X44094Y-5511D01*
X71440Y-24440D02*
X71291Y-24440D01*
X71440Y-19307D02*
X71440Y-14960D01*
X71440Y-14960D02*
X71440Y-13417D01*
X70472Y-20275D02*
X71440Y-19307D01*
X70472Y-23622D02*
X70472Y-20275D01*
X71291Y-24440D02*
X70472Y-23622D01*
X73311Y-31921D02*
X73062Y-31921D01*
X71440Y-30299D02*
X71440Y-24440D01*
X73062Y-31921D02*
X71440Y-30299D01*
X74246Y-39401D02*
X74244Y-39401D01*
X74212Y-32822D02*
X73311Y-31921D01*
X74212Y-34448D02*
X74212Y-32822D01*
X73228Y-35433D02*
X74212Y-34448D01*
X73228Y-38385D02*
X73228Y-35433D01*
X74244Y-39401D02*
X73228Y-38385D01*
X76116Y-46881D02*
X75425Y-46881D01*
X74246Y-45702D02*
X74246Y-39401D01*
X75425Y-46881D02*
X74246Y-45702D01*
X72375Y-54362D02*
X77527Y-54362D01*
X78346Y-49112D02*
X76116Y-46881D01*
X78346Y-53543D02*
X78346Y-49112D01*
X77527Y-54362D02*
X78346Y-53543D01*
X28842Y-5015D02*
X28842Y-2402D01*
X28740Y-5118D02*
X28842Y-5015D01*
X20275Y-15748D02*
X20275Y-5314D01*
X78921Y-24440D02*
X78771Y-24440D01*
X85007Y-13417D02*
X86401Y-13417D01*
X77952Y-20472D02*
X85007Y-13417D01*
X77952Y-23622D02*
X77952Y-20472D01*
X78771Y-24440D02*
X77952Y-23622D01*
X82661Y-31921D02*
X81921Y-31921D01*
X78921Y-28921D02*
X78921Y-24440D01*
X81921Y-31921D02*
X78921Y-28921D01*
X84531Y-39401D02*
X84283Y-39401D01*
X82661Y-37779D02*
X82661Y-31921D01*
X84283Y-39401D02*
X82661Y-37779D01*
X84531Y-39401D02*
X84531Y-46259D01*
X84531Y-46259D02*
X84645Y-46259D01*
X81726Y-54362D02*
X81726Y-54167D01*
X87649Y-46259D02*
X88271Y-46881D01*
X81692Y-46259D02*
X84645Y-46259D01*
X84645Y-46259D02*
X87649Y-46259D01*
X79921Y-48031D02*
X81692Y-46259D01*
X79921Y-52362D02*
X79921Y-48031D01*
X81726Y-54167D02*
X79921Y-52362D01*
X40292Y-3502D02*
X40292Y-6827D01*
X43897Y-22834D02*
X43897Y-49803D01*
X43307Y-22244D02*
X43897Y-22834D01*
X43307Y-9055D02*
X43307Y-22244D01*
X41338Y-7086D02*
X43307Y-9055D01*
X40551Y-7086D02*
X41338Y-7086D01*
X40292Y-6827D02*
X40551Y-7086D01*
X33192Y-2402D02*
X33192Y-468D01*
X115748Y-12842D02*
X116322Y-13417D01*
X115748Y-9055D02*
X115748Y-12842D01*
X116338Y-8464D02*
X115748Y-9055D01*
X116338Y-2362D02*
X116338Y-8464D01*
X33192Y-468D02*
X33267Y-393D01*
X108842Y-24440D02*
X108842Y-24393D01*
X115125Y-13417D02*
X116322Y-13417D01*
X107677Y-20866D02*
X115125Y-13417D01*
X107677Y-23228D02*
X107677Y-20866D01*
X108842Y-24393D02*
X107677Y-23228D01*
X112582Y-31921D02*
X112236Y-31921D01*
X110433Y-26031D02*
X108842Y-24440D01*
X110433Y-30118D02*
X110433Y-26031D01*
X112236Y-31921D02*
X110433Y-30118D01*
X114452Y-39401D02*
X114452Y-39255D01*
X112582Y-37385D02*
X112582Y-31921D01*
X114452Y-39255D02*
X112582Y-37385D01*
X118192Y-46881D02*
X118192Y-46539D01*
X116141Y-41090D02*
X114452Y-39401D01*
X116141Y-44488D02*
X116141Y-41090D01*
X118192Y-46539D02*
X116141Y-44488D01*
X127543Y-54362D02*
X127543Y-53527D01*
X120897Y-46881D02*
X118192Y-46881D01*
X127543Y-53527D02*
X120897Y-46881D01*
X31042Y-2402D02*
X31042Y-1240D01*
X100787Y-12842D02*
X101362Y-13417D01*
X100787Y-8858D02*
X100787Y-12842D01*
X101377Y-8267D02*
X100787Y-8858D01*
X101377Y-3149D02*
X101377Y-8267D01*
X31042Y-1240D02*
X31102Y-1181D01*
X93881Y-24440D02*
X93535Y-24440D01*
X99771Y-13417D02*
X101362Y-13417D01*
X92913Y-20275D02*
X99771Y-13417D01*
X92913Y-23818D02*
X92913Y-20275D01*
X93535Y-24440D02*
X92913Y-23818D01*
X97622Y-31921D02*
X97622Y-31874D01*
X95669Y-26228D02*
X93881Y-24440D01*
X95669Y-29921D02*
X95669Y-26228D01*
X97622Y-31874D02*
X95669Y-29921D01*
X99492Y-39401D02*
X98850Y-39401D01*
X97622Y-38173D02*
X97622Y-31921D01*
X98850Y-39401D02*
X97622Y-38173D01*
X103232Y-46881D02*
X103232Y-46736D01*
X101181Y-41090D02*
X99492Y-39401D01*
X101181Y-44685D02*
X101181Y-41090D01*
X103232Y-46736D02*
X101181Y-44685D01*
X101362Y-54362D02*
X101362Y-54118D01*
X100393Y-49720D02*
X103232Y-46881D01*
X100393Y-53149D02*
X100393Y-49720D01*
X101362Y-54118D02*
X100393Y-53149D01*
X37542Y-2402D02*
X37542Y-8211D01*
X37007Y-8746D02*
X37007Y-12401D01*
X37542Y-8211D02*
X37007Y-8746D01*
X14960Y-45078D02*
X14960Y-41732D01*
X15157Y-45275D02*
X14960Y-45078D01*
X54511Y-24440D02*
X54511Y-24000D01*
X54511Y-19307D02*
X54511Y-13417D01*
X53937Y-19881D02*
X54511Y-19307D01*
X53937Y-23425D02*
X53937Y-19881D01*
X54511Y-24000D02*
X53937Y-23425D01*
X30102Y-24440D02*
X30102Y-23803D01*
X30102Y-19307D02*
X30102Y-13417D01*
X29724Y-19685D02*
X30102Y-19307D01*
X29724Y-23425D02*
X29724Y-19685D01*
X30102Y-23803D02*
X29724Y-23425D01*
X54511Y-24440D02*
X54511Y-26755D01*
X53937Y-31346D02*
X54511Y-31921D01*
X53937Y-27330D02*
X53937Y-31346D01*
X54511Y-26755D02*
X53937Y-27330D01*
X30102Y-31921D02*
X30102Y-31874D01*
X30102Y-26787D02*
X30102Y-24440D01*
X29527Y-27362D02*
X30102Y-26787D01*
X29527Y-31299D02*
X29527Y-27362D01*
X30102Y-31874D02*
X29527Y-31299D01*
X30102Y-39401D02*
X30102Y-39157D01*
X30102Y-34464D02*
X30102Y-31921D01*
X29527Y-35039D02*
X30102Y-34464D01*
X29527Y-38582D02*
X29527Y-35039D01*
X30102Y-39157D02*
X29527Y-38582D01*
X30102Y-46881D02*
X29952Y-46881D01*
X30102Y-41748D02*
X30102Y-39401D01*
X29330Y-42519D02*
X30102Y-41748D01*
X29330Y-46259D02*
X29330Y-42519D01*
X29952Y-46881D02*
X29330Y-46259D01*
X33842Y-54362D02*
X33692Y-54362D01*
X31692Y-48472D02*
X30102Y-46881D01*
X31692Y-52362D02*
X31692Y-48472D01*
X33692Y-54362D02*
X31692Y-52362D01*
X54511Y-46881D02*
X54511Y-46440D01*
X54511Y-41748D02*
X54511Y-31921D01*
X53937Y-42322D02*
X54511Y-41748D01*
X53937Y-45866D02*
X53937Y-42322D01*
X54511Y-46440D02*
X53937Y-45866D01*
X54511Y-54362D02*
X54511Y-53527D01*
X54511Y-53527D02*
X53937Y-52952D01*
X53937Y-52952D02*
X53937Y-50000D01*
X53937Y-50000D02*
X54511Y-49425D01*
X54511Y-49425D02*
X54511Y-46881D01*
X34292Y-2402D02*
X34292Y-4880D01*
X125590Y-11464D02*
X127543Y-13417D01*
X125590Y-6299D02*
X125590Y-11464D01*
X124409Y-5118D02*
X125590Y-6299D01*
X34292Y-4880D02*
X34251Y-4921D01*
X125673Y-24440D02*
X125673Y-24295D01*
X127543Y-17929D02*
X127543Y-13417D01*
X124803Y-20669D02*
X127543Y-17929D01*
X124803Y-23425D02*
X124803Y-20669D01*
X125673Y-24295D02*
X124803Y-23425D01*
X122842Y-32881D02*
X122842Y-27566D01*
X125673Y-24736D02*
X125673Y-24440D01*
X122842Y-27566D02*
X125673Y-24736D01*
X124738Y-39401D02*
X124738Y-39305D01*
X122834Y-32889D02*
X122842Y-32881D01*
X122842Y-32881D02*
X123803Y-31921D01*
X122834Y-37401D02*
X122834Y-32889D01*
X124738Y-39305D02*
X122834Y-37401D01*
X126608Y-46881D02*
X126212Y-46881D01*
X124738Y-45407D02*
X124738Y-39401D01*
X126212Y-46881D02*
X124738Y-45407D01*
X36492Y-2402D02*
X36492Y-7011D01*
X36023Y-8464D02*
X36023Y-14173D01*
X36023Y-7480D02*
X36023Y-8464D01*
X36492Y-7011D02*
X36023Y-7480D01*
X22622Y-46881D02*
X22622Y-49196D01*
X21850Y-53590D02*
X22622Y-54362D01*
X21850Y-49968D02*
X21850Y-53590D01*
X22622Y-49196D02*
X21850Y-49968D01*
X22622Y-39401D02*
X22622Y-41748D01*
X21850Y-46110D02*
X22622Y-46881D01*
X21850Y-42519D02*
X21850Y-46110D01*
X22622Y-41748D02*
X21850Y-42519D01*
X22622Y-39401D02*
X22472Y-39401D01*
X22622Y-34267D02*
X22622Y-31921D01*
X22047Y-34842D02*
X22622Y-34267D01*
X22047Y-38976D02*
X22047Y-34842D01*
X22472Y-39401D02*
X22047Y-38976D01*
X47031Y-24440D02*
X47031Y-26952D01*
X46456Y-31346D02*
X47031Y-31921D01*
X46456Y-27527D02*
X46456Y-31346D01*
X47031Y-26952D02*
X46456Y-27527D01*
X47031Y-13417D02*
X47031Y-19472D01*
X46456Y-23866D02*
X47031Y-24440D01*
X46456Y-20047D02*
X46456Y-23866D01*
X47031Y-19472D02*
X46456Y-20047D01*
X5692Y-24440D02*
X5692Y-26787D01*
X5692Y-26787D02*
X5314Y-27165D01*
X38642Y-2402D02*
X38642Y-7814D01*
X37401Y-13236D02*
X37582Y-13417D01*
X37401Y-9055D02*
X37401Y-13236D01*
X38642Y-7814D02*
X37401Y-9055D01*
X61992Y-24440D02*
X61992Y-23606D01*
X61992Y-19307D02*
X61992Y-13417D01*
X61417Y-19881D02*
X61992Y-19307D01*
X61417Y-23031D02*
X61417Y-19881D01*
X61992Y-23606D02*
X61417Y-23031D01*
X37582Y-46881D02*
X37582Y-57267D01*
X37582Y-57267D02*
X37598Y-57283D01*
X5692Y-46881D02*
X5692Y-49000D01*
X5692Y-49000D02*
X5314Y-49377D01*
X5314Y-49377D02*
X5314Y-53984D01*
X5314Y-53984D02*
X5692Y-54362D01*
X37582Y-24440D02*
X37582Y-23803D01*
X37582Y-23803D02*
X37007Y-23228D01*
X37007Y-23228D02*
X37007Y-19685D01*
X37007Y-19685D02*
X37582Y-19110D01*
X37582Y-19110D02*
X37582Y-13417D01*
X37582Y-31921D02*
X37582Y-31480D01*
X37582Y-26590D02*
X37582Y-24440D01*
X37007Y-27165D02*
X37582Y-26590D01*
X37007Y-30905D02*
X37007Y-27165D01*
X37582Y-31480D02*
X37007Y-30905D01*
X37582Y-39401D02*
X37582Y-38763D01*
X37582Y-34267D02*
X37582Y-31921D01*
X37007Y-34842D02*
X37582Y-34267D01*
X37007Y-38188D02*
X37007Y-34842D01*
X37582Y-38763D02*
X37007Y-38188D01*
X37582Y-46881D02*
X37582Y-46834D01*
X37582Y-41748D02*
X37582Y-39401D01*
X37007Y-42322D02*
X37582Y-41748D01*
X37007Y-46259D02*
X37007Y-42322D01*
X37582Y-46834D02*
X37007Y-46259D01*
X61992Y-31921D02*
X61992Y-49425D01*
X61417Y-53787D02*
X61992Y-54362D01*
X61417Y-50000D02*
X61417Y-53787D01*
X61992Y-49425D02*
X61417Y-50000D01*
X61992Y-24440D02*
X61992Y-26952D01*
X61417Y-31346D02*
X61992Y-31921D01*
X61417Y-27527D02*
X61417Y-31346D01*
X61992Y-26952D02*
X61417Y-27527D01*
X32092Y-2402D02*
X32092Y-596D01*
X108267Y-12842D02*
X108842Y-13417D01*
X108267Y-9055D02*
X108267Y-12842D01*
X108858Y-8464D02*
X108267Y-9055D01*
X108858Y-2952D02*
X108858Y-8464D01*
X108661Y-2755D02*
X108858Y-2952D01*
X32092Y-596D02*
X32086Y-590D01*
X101362Y-24440D02*
X101015Y-24440D01*
X107251Y-13417D02*
X108842Y-13417D01*
X100393Y-20275D02*
X107251Y-13417D01*
X100393Y-23818D02*
X100393Y-20275D01*
X101015Y-24440D02*
X100393Y-23818D01*
X105102Y-31921D02*
X105102Y-31874D01*
X103149Y-26228D02*
X101362Y-24440D01*
X103149Y-29921D02*
X103149Y-26228D01*
X105102Y-31874D02*
X103149Y-29921D01*
X106972Y-39401D02*
X106724Y-39401D01*
X105102Y-37779D02*
X105102Y-31921D01*
X106724Y-39401D02*
X105102Y-37779D01*
X110712Y-46881D02*
X110661Y-46881D01*
X108661Y-41090D02*
X106972Y-39401D01*
X108661Y-44881D02*
X108661Y-41090D01*
X110661Y-46881D02*
X108661Y-44881D01*
X115387Y-54362D02*
X113220Y-54362D01*
X110712Y-51854D02*
X110712Y-46881D01*
X113220Y-54362D02*
X110712Y-51854D01*
X29942Y-2402D02*
X29942Y-1596D01*
X93881Y-12779D02*
X93881Y-13417D01*
X93307Y-12204D02*
X93881Y-12779D01*
X93307Y-9055D02*
X93307Y-12204D01*
X93897Y-8464D02*
X93307Y-9055D01*
X93897Y-3543D02*
X93897Y-8464D01*
X29942Y-1596D02*
X29921Y-1574D01*
X86401Y-24440D02*
X86401Y-24393D01*
X92488Y-13417D02*
X93881Y-13417D01*
X85433Y-20472D02*
X92488Y-13417D01*
X85433Y-23425D02*
X85433Y-20472D01*
X86401Y-24393D02*
X85433Y-23425D01*
X90141Y-31921D02*
X89795Y-31921D01*
X88188Y-26228D02*
X86401Y-24440D01*
X88188Y-30314D02*
X88188Y-26228D01*
X89795Y-31921D02*
X88188Y-30314D01*
X92011Y-39401D02*
X92011Y-39059D01*
X90141Y-37188D02*
X90141Y-31921D01*
X92011Y-39059D02*
X90141Y-37188D01*
X95751Y-46881D02*
X95751Y-46539D01*
X93700Y-41090D02*
X92011Y-39401D01*
X93700Y-44488D02*
X93700Y-41090D01*
X95751Y-46539D02*
X93700Y-44488D01*
X91076Y-54362D02*
X91076Y-54068D01*
X93669Y-46881D02*
X95751Y-46881D01*
X89960Y-50590D02*
X93669Y-46881D01*
X89960Y-52952D02*
X89960Y-50590D01*
X91076Y-54068D02*
X89960Y-52952D01*
X35392Y-2402D02*
X35392Y-13345D01*
X35392Y-13345D02*
X35433Y-13385D01*
X18141Y-34661D02*
X18141Y-49622D01*
X15141Y-24440D02*
X15141Y-23803D01*
X15141Y-19110D02*
X15141Y-13417D01*
X14566Y-19685D02*
X15141Y-19110D01*
X14566Y-23228D02*
X14566Y-19685D01*
X15141Y-23803D02*
X14566Y-23228D01*
X18141Y-34661D02*
X18141Y-27440D01*
X18141Y-27440D02*
X15141Y-24440D01*
X34842Y-3502D02*
X34842Y-6299D01*
X51531Y-9885D02*
X51531Y-9417D01*
X50590Y-10826D02*
X51531Y-9885D01*
X50590Y-14960D02*
X50590Y-10826D01*
X26181Y-8464D02*
X26181Y-14960D01*
X27165Y-7480D02*
X26181Y-8464D01*
X31692Y-7283D02*
X30708Y-7283D01*
X32086Y-6889D02*
X31692Y-7283D01*
X32086Y-6299D02*
X32086Y-6889D01*
X35942Y-3502D02*
X35942Y-5824D01*
X43700Y-5905D02*
X43700Y-19685D01*
X35942Y-5824D02*
X36023Y-5905D01*
X37042Y-3502D02*
X37042Y-7051D01*
X52362Y-27090D02*
X51531Y-27921D01*
X52362Y-14763D02*
X52362Y-27090D01*
X52165Y-14566D02*
X52362Y-14763D01*
X37204Y-14370D02*
X37204Y-14566D01*
X36417Y-13582D02*
X37204Y-14370D01*
X36417Y-9055D02*
X36417Y-13582D01*
X37042Y-7051D02*
X37007Y-7086D01*
X32692Y-3502D02*
X32692Y-7071D01*
X35236Y-42248D02*
X34602Y-42881D01*
X35236Y-19685D02*
X35236Y-42248D01*
X33464Y-17913D02*
X35236Y-19685D01*
X33464Y-10039D02*
X33464Y-17913D01*
X32283Y-8858D02*
X33464Y-10039D01*
X32283Y-7480D02*
X32283Y-8858D01*
X32692Y-7071D02*
X32283Y-7480D01*
X27122Y-42881D02*
X27122Y-44248D01*
X27952Y-54133D02*
X26377Y-55708D01*
X27952Y-45078D02*
X27952Y-54133D01*
X27122Y-44248D02*
X27952Y-45078D01*
X33742Y-3502D02*
X33742Y-7005D01*
X29133Y-57874D02*
X29133Y-50787D01*
X28937Y-58070D02*
X29133Y-57874D01*
X5118Y-14566D02*
X3543Y-14566D01*
X33858Y-14763D02*
X33858Y-14566D01*
X33858Y-7121D02*
X33858Y-14763D01*
X33742Y-7005D02*
X33858Y-7121D01*
X95576Y-50362D02*
X95576Y-51482D01*
X43110Y-51543D02*
X41929Y-50362D01*
X43110Y-57086D02*
X43110Y-51543D01*
X43307Y-57283D02*
X43110Y-57086D01*
X96653Y-52559D02*
X96653Y-57480D01*
X95576Y-51482D02*
X96653Y-52559D01*
X88385Y-50393D02*
X87204Y-50393D01*
X38142Y-3502D02*
X38142Y-6252D01*
X12204Y-5905D02*
X12204Y-27165D01*
X12007Y-5708D02*
X12204Y-5905D01*
X38142Y-6252D02*
X38188Y-6299D01*
X11017Y-36226D02*
X11017Y-28746D01*
X11017Y-28746D02*
X10192Y-27921D01*
X10192Y-42881D02*
X10192Y-39807D01*
X11023Y-36232D02*
X11017Y-36226D01*
X11017Y-36226D02*
X10192Y-35401D01*
X11023Y-38976D02*
X11023Y-36232D01*
X10192Y-39807D02*
X11023Y-38976D01*
X39192Y-3502D02*
X39192Y-8287D01*
X10192Y-15397D02*
X10192Y-20440D01*
X10236Y-15354D02*
X10192Y-15397D01*
X40944Y-10039D02*
X40944Y-15354D01*
X39192Y-8287D02*
X40944Y-10039D01*
X10192Y-50362D02*
X10192Y-49059D01*
X11417Y-21665D02*
X10192Y-20440D01*
X11417Y-47834D02*
X11417Y-21665D01*
X10192Y-49059D02*
X11417Y-47834D01*
X59011Y-42881D02*
X59011Y-44641D01*
X10401Y-50362D02*
X10192Y-50362D01*
X11023Y-50984D02*
X10401Y-50362D01*
X11023Y-57677D02*
X11023Y-50984D01*
X60039Y-45669D02*
X60039Y-55118D01*
X59011Y-44641D02*
X60039Y-45669D01*
X43110Y-7677D02*
X43110Y-6299D01*
X40842Y-6204D02*
X40842Y-2402D01*
X40748Y-6299D02*
X40842Y-6204D01*
X6192Y-27921D02*
X4165Y-27921D01*
X4165Y-27921D02*
X4133Y-27952D01*
X6192Y-35401D02*
X4165Y-35401D01*
X4165Y-35401D02*
X4133Y-35433D01*
X6192Y-42881D02*
X4165Y-42881D01*
X4165Y-42881D02*
X4133Y-42913D01*
X6192Y-9417D02*
X4299Y-9417D01*
X4165Y-20440D02*
X6192Y-20440D01*
X4133Y-20472D02*
X4165Y-20440D01*
X4299Y-9417D02*
X4133Y-9251D01*
X75940Y-9602D02*
X75940Y-9417D01*
X76771Y-10433D02*
X75940Y-9602D01*
X76771Y-14566D02*
X76771Y-10433D01*
X53346Y-9055D02*
X53346Y-14566D01*
X53149Y-8858D02*
X53346Y-9055D01*
X28292Y-3502D02*
X28292Y-9363D01*
X28292Y-9363D02*
X28346Y-9417D01*
X29392Y-3502D02*
X29392Y-6951D01*
X28937Y-17519D02*
X27755Y-18700D01*
X28937Y-9448D02*
X28937Y-17519D01*
X29921Y-8464D02*
X28937Y-9448D01*
X29921Y-7480D02*
X29921Y-8464D01*
X29392Y-6951D02*
X29921Y-7480D01*
X42082Y-20440D02*
X42082Y-21610D01*
X69685Y-33661D02*
X69685Y-20275D01*
X69881Y-33858D02*
X69685Y-33661D01*
X43503Y-23031D02*
X43503Y-33661D01*
X42082Y-21610D02*
X43503Y-23031D01*
X39742Y-6714D02*
X39742Y-2402D01*
X39742Y-6714D02*
X39742Y-6714D01*
X27122Y-27921D02*
X27122Y-25437D01*
X30492Y-5886D02*
X30492Y-3502D01*
X30511Y-5905D02*
X30492Y-5886D01*
X27952Y-12795D02*
X27952Y-5905D01*
X26968Y-13779D02*
X27952Y-12795D01*
X26968Y-19094D02*
X26968Y-13779D01*
X28149Y-20275D02*
X26968Y-19094D01*
X28149Y-24409D02*
X28149Y-20275D01*
X27122Y-25437D02*
X28149Y-24409D01*
X42082Y-27921D02*
X42082Y-29287D01*
X70866Y-33070D02*
X70866Y-27362D01*
X70669Y-33267D02*
X70866Y-33070D01*
X43110Y-30314D02*
X43110Y-33070D01*
X42082Y-29287D02*
X43110Y-30314D01*
X27122Y-28303D02*
X27122Y-27921D01*
X27952Y-29133D02*
X27122Y-28303D01*
X27952Y-39370D02*
X27952Y-29133D01*
X27122Y-35401D02*
X27122Y-33814D01*
X11811Y-11035D02*
X10192Y-9417D01*
X11811Y-29921D02*
X11811Y-11035D01*
X12007Y-30118D02*
X11811Y-29921D01*
X22244Y-30314D02*
X21653Y-30314D01*
X24212Y-32283D02*
X22244Y-30314D01*
X25590Y-32283D02*
X24212Y-32283D01*
X27122Y-33814D02*
X25590Y-32283D01*
X31592Y-3502D02*
X31592Y-6202D01*
X31592Y-6202D02*
X31496Y-6299D01*
X10039Y-6299D02*
X10192Y-6452D01*
X10192Y-6452D02*
X10192Y-9417D01*
M02*
