G04 (created by PCBNEW (2013-07-07 BZR 4022)-stable) date 12/12/2017 2:39:47 AM*
%MOIN*%
G04 Gerber Fmt 3.4, Leading zero omitted, Abs format*
%FSLAX34Y34*%
G01*
G70*
G90*
G04 APERTURE LIST*
%ADD10C,0.005*%
%ADD11C,0.00393701*%
%ADD12C,0.00787402*%
%ADD13C,0.011811*%
G04 APERTURE END LIST*
G54D10*
G54D11*
X0Y-59055D02*
X0Y0D01*
X135236Y-59055D02*
X0Y-59055D01*
X135236Y0D02*
X135236Y-59055D01*
X0Y0D02*
X135236Y0D01*
G54D12*
X3418Y-14441D02*
X3668Y-14691D01*
X3668Y-14441D02*
X3418Y-14691D01*
X4008Y-9126D02*
X4258Y-9376D01*
X4258Y-9126D02*
X4008Y-9376D01*
X4008Y-20347D02*
X4258Y-20597D01*
X4258Y-20347D02*
X4008Y-20597D01*
X4008Y-27827D02*
X4258Y-28077D01*
X4258Y-27827D02*
X4008Y-28077D01*
X4008Y-35308D02*
X4258Y-35558D01*
X4258Y-35308D02*
X4008Y-35558D01*
X4008Y-42788D02*
X4258Y-43038D01*
X4258Y-42788D02*
X4008Y-43038D01*
X4993Y-14441D02*
X5243Y-14691D01*
X5243Y-14441D02*
X4993Y-14691D01*
X5189Y-27040D02*
X5439Y-27290D01*
X5439Y-27040D02*
X5189Y-27290D01*
X9914Y-6174D02*
X10164Y-6424D01*
X10164Y-6174D02*
X9914Y-6424D01*
X10111Y-15229D02*
X10361Y-15479D01*
X10361Y-15229D02*
X10111Y-15479D01*
X10898Y-57552D02*
X11148Y-57802D01*
X11148Y-57552D02*
X10898Y-57802D01*
X11882Y-5583D02*
X12132Y-5833D01*
X12132Y-5583D02*
X11882Y-5833D01*
X11882Y-29993D02*
X12132Y-30243D01*
X12132Y-29993D02*
X11882Y-30243D01*
X12079Y-27040D02*
X12329Y-27290D01*
X12329Y-27040D02*
X12079Y-27290D01*
X14835Y-41607D02*
X15085Y-41857D01*
X15085Y-41607D02*
X14835Y-41857D01*
X15032Y-45150D02*
X15282Y-45400D01*
X15282Y-45150D02*
X15032Y-45400D01*
X20150Y-5189D02*
X20400Y-5439D01*
X20400Y-5189D02*
X20150Y-5439D01*
X20150Y-15623D02*
X20400Y-15873D01*
X20400Y-15623D02*
X20150Y-15873D01*
X21528Y-30189D02*
X21778Y-30439D01*
X21778Y-30189D02*
X21528Y-30439D01*
X26056Y-14835D02*
X26306Y-15085D01*
X26306Y-14835D02*
X26056Y-15085D01*
X26252Y-55583D02*
X26502Y-55833D01*
X26502Y-55583D02*
X26252Y-55833D01*
X27040Y-7355D02*
X27290Y-7605D01*
X27290Y-7355D02*
X27040Y-7605D01*
X27630Y-18575D02*
X27880Y-18825D01*
X27880Y-18575D02*
X27630Y-18825D01*
X27827Y-5780D02*
X28077Y-6030D01*
X28077Y-5780D02*
X27827Y-6030D01*
X27827Y-39245D02*
X28077Y-39495D01*
X28077Y-39245D02*
X27827Y-39495D01*
X28221Y-9292D02*
X28471Y-9542D01*
X28471Y-9292D02*
X28221Y-9542D01*
X28615Y-4993D02*
X28865Y-5243D01*
X28865Y-4993D02*
X28615Y-5243D01*
X28812Y-57945D02*
X29062Y-58195D01*
X29062Y-57945D02*
X28812Y-58195D01*
X29008Y-50662D02*
X29258Y-50912D01*
X29258Y-50662D02*
X29008Y-50912D01*
X29796Y-1449D02*
X30046Y-1699D01*
X30046Y-1449D02*
X29796Y-1699D01*
X30386Y-5780D02*
X30636Y-6030D01*
X30636Y-5780D02*
X30386Y-6030D01*
X30583Y-7158D02*
X30833Y-7408D01*
X30833Y-7158D02*
X30583Y-7408D01*
X30977Y-1056D02*
X31227Y-1306D01*
X31227Y-1056D02*
X30977Y-1306D01*
X31371Y-6174D02*
X31621Y-6424D01*
X31621Y-6174D02*
X31371Y-6424D01*
X31961Y-465D02*
X32211Y-715D01*
X32211Y-465D02*
X31961Y-715D01*
X31961Y-6174D02*
X32211Y-6424D01*
X32211Y-6174D02*
X31961Y-6424D01*
X33142Y-268D02*
X33392Y-518D01*
X33392Y-268D02*
X33142Y-518D01*
X33733Y-14441D02*
X33983Y-14691D01*
X33983Y-14441D02*
X33733Y-14691D01*
X34126Y-4796D02*
X34376Y-5046D01*
X34376Y-4796D02*
X34126Y-5046D01*
X34717Y-6174D02*
X34967Y-6424D01*
X34967Y-6174D02*
X34717Y-6424D01*
X35308Y-13260D02*
X35558Y-13510D01*
X35558Y-13260D02*
X35308Y-13510D01*
X35898Y-5780D02*
X36148Y-6030D01*
X36148Y-5780D02*
X35898Y-6030D01*
X35898Y-14048D02*
X36148Y-14298D01*
X36148Y-14048D02*
X35898Y-14298D01*
X36292Y-8930D02*
X36542Y-9180D01*
X36542Y-8930D02*
X36292Y-9180D01*
X36882Y-6961D02*
X37132Y-7211D01*
X37132Y-6961D02*
X36882Y-7211D01*
X36882Y-12276D02*
X37132Y-12526D01*
X37132Y-12276D02*
X36882Y-12526D01*
X37079Y-14441D02*
X37329Y-14691D01*
X37329Y-14441D02*
X37079Y-14691D01*
X37473Y-57158D02*
X37723Y-57408D01*
X37723Y-57158D02*
X37473Y-57408D01*
X38063Y-6174D02*
X38313Y-6424D01*
X38313Y-6174D02*
X38063Y-6424D01*
X39617Y-6589D02*
X39867Y-6839D01*
X39867Y-6589D02*
X39617Y-6839D01*
X40623Y-6174D02*
X40873Y-6424D01*
X40873Y-6174D02*
X40623Y-6424D01*
X40819Y-15229D02*
X41069Y-15479D01*
X41069Y-15229D02*
X40819Y-15479D01*
X41213Y-5386D02*
X41463Y-5636D01*
X41463Y-5386D02*
X41213Y-5636D01*
X42985Y-6174D02*
X43235Y-6424D01*
X43235Y-6174D02*
X42985Y-6424D01*
X42985Y-7552D02*
X43235Y-7802D01*
X43235Y-7552D02*
X42985Y-7802D01*
X42985Y-32945D02*
X43235Y-33195D01*
X43235Y-32945D02*
X42985Y-33195D01*
X43182Y-57158D02*
X43432Y-57408D01*
X43432Y-57158D02*
X43182Y-57408D01*
X43378Y-33536D02*
X43628Y-33786D01*
X43628Y-33536D02*
X43378Y-33786D01*
X43575Y-5780D02*
X43825Y-6030D01*
X43825Y-5780D02*
X43575Y-6030D01*
X43575Y-19560D02*
X43825Y-19810D01*
X43825Y-19560D02*
X43575Y-19810D01*
X43772Y-49678D02*
X44022Y-49928D01*
X44022Y-49678D02*
X43772Y-49928D01*
X43969Y-5386D02*
X44219Y-5636D01*
X44219Y-5386D02*
X43969Y-5636D01*
X43969Y-15229D02*
X44219Y-15479D01*
X44219Y-15229D02*
X43969Y-15479D01*
X50465Y-14835D02*
X50715Y-15085D01*
X50715Y-14835D02*
X50465Y-15085D01*
X52040Y-14441D02*
X52290Y-14691D01*
X52290Y-14441D02*
X52040Y-14691D01*
X53024Y-8733D02*
X53274Y-8983D01*
X53274Y-8733D02*
X53024Y-8983D01*
X53221Y-14441D02*
X53471Y-14691D01*
X53471Y-14441D02*
X53221Y-14691D01*
X59914Y-54993D02*
X60164Y-55243D01*
X60164Y-54993D02*
X59914Y-55243D01*
X69560Y-20150D02*
X69810Y-20400D01*
X69810Y-20150D02*
X69560Y-20400D01*
X69756Y-33733D02*
X70006Y-33983D01*
X70006Y-33733D02*
X69756Y-33983D01*
X70544Y-33142D02*
X70794Y-33392D01*
X70794Y-33142D02*
X70544Y-33392D01*
X70741Y-27237D02*
X70991Y-27487D01*
X70991Y-27237D02*
X70741Y-27487D01*
X71315Y-14835D02*
X71565Y-15085D01*
X71565Y-14835D02*
X71315Y-15085D01*
X76646Y-14441D02*
X76896Y-14691D01*
X76896Y-14441D02*
X76646Y-14691D01*
X87079Y-50268D02*
X87329Y-50518D01*
X87329Y-50268D02*
X87079Y-50518D01*
X88260Y-50268D02*
X88510Y-50518D01*
X88510Y-50268D02*
X88260Y-50518D01*
X93772Y-3418D02*
X94022Y-3668D01*
X94022Y-3418D02*
X93772Y-3668D01*
X96528Y-57355D02*
X96778Y-57605D01*
X96778Y-57355D02*
X96528Y-57605D01*
X101252Y-3024D02*
X101502Y-3274D01*
X101502Y-3024D02*
X101252Y-3274D01*
X108536Y-2630D02*
X108786Y-2880D01*
X108786Y-2630D02*
X108536Y-2880D01*
X116213Y-2237D02*
X116463Y-2487D01*
X116463Y-2237D02*
X116213Y-2487D01*
X124284Y-4993D02*
X124534Y-5243D01*
X124534Y-4993D02*
X124284Y-5243D01*
X4919Y-7917D02*
G75*
G03X4919Y-7917I-195J0D01*
G74*
G01*
X4919Y-18940D02*
G75*
G03X4919Y-18940I-195J0D01*
G74*
G01*
X4919Y-26421D02*
G75*
G03X4919Y-26421I-195J0D01*
G74*
G01*
X4919Y-33901D02*
G75*
G03X4919Y-33901I-195J0D01*
G74*
G01*
X4919Y-41381D02*
G75*
G03X4919Y-41381I-195J0D01*
G74*
G01*
X4919Y-48862D02*
G75*
G03X4919Y-48862I-195J0D01*
G74*
G01*
X6387Y-9417D02*
G75*
G03X6387Y-9417I-195J0D01*
G74*
G01*
X6387Y-20440D02*
G75*
G03X6387Y-20440I-195J0D01*
G74*
G01*
X6387Y-27921D02*
G75*
G03X6387Y-27921I-195J0D01*
G74*
G01*
X6387Y-35401D02*
G75*
G03X6387Y-35401I-195J0D01*
G74*
G01*
X6387Y-42881D02*
G75*
G03X6387Y-42881I-195J0D01*
G74*
G01*
X6387Y-50362D02*
G75*
G03X6387Y-50362I-195J0D01*
G74*
G01*
X7387Y-9417D02*
G75*
G03X7387Y-9417I-195J0D01*
G74*
G01*
X7387Y-20440D02*
G75*
G03X7387Y-20440I-195J0D01*
G74*
G01*
X7387Y-27921D02*
G75*
G03X7387Y-27921I-195J0D01*
G74*
G01*
X7387Y-35401D02*
G75*
G03X7387Y-35401I-195J0D01*
G74*
G01*
X7387Y-42881D02*
G75*
G03X7387Y-42881I-195J0D01*
G74*
G01*
X7387Y-50362D02*
G75*
G03X7387Y-50362I-195J0D01*
G74*
G01*
X8856Y-7917D02*
G75*
G03X8856Y-7917I-195J0D01*
G74*
G01*
X8856Y-18940D02*
G75*
G03X8856Y-18940I-195J0D01*
G74*
G01*
X8856Y-26421D02*
G75*
G03X8856Y-26421I-195J0D01*
G74*
G01*
X8856Y-33901D02*
G75*
G03X8856Y-33901I-195J0D01*
G74*
G01*
X8856Y-41381D02*
G75*
G03X8856Y-41381I-195J0D01*
G74*
G01*
X8856Y-48862D02*
G75*
G03X8856Y-48862I-195J0D01*
G74*
G01*
X10387Y-9417D02*
G75*
G03X10387Y-9417I-195J0D01*
G74*
G01*
X10387Y-12417D02*
G75*
G03X10387Y-12417I-195J0D01*
G74*
G01*
X10387Y-20440D02*
G75*
G03X10387Y-20440I-195J0D01*
G74*
G01*
X10387Y-23440D02*
G75*
G03X10387Y-23440I-195J0D01*
G74*
G01*
X10387Y-27921D02*
G75*
G03X10387Y-27921I-195J0D01*
G74*
G01*
X10387Y-30921D02*
G75*
G03X10387Y-30921I-195J0D01*
G74*
G01*
X10387Y-35401D02*
G75*
G03X10387Y-35401I-195J0D01*
G74*
G01*
X10387Y-38401D02*
G75*
G03X10387Y-38401I-195J0D01*
G74*
G01*
X10387Y-42881D02*
G75*
G03X10387Y-42881I-195J0D01*
G74*
G01*
X10387Y-45881D02*
G75*
G03X10387Y-45881I-195J0D01*
G74*
G01*
X10387Y-50362D02*
G75*
G03X10387Y-50362I-195J0D01*
G74*
G01*
X10387Y-53362D02*
G75*
G03X10387Y-53362I-195J0D01*
G74*
G01*
X12836Y-31692D02*
G75*
G03X12836Y-31692I-195J0D01*
G74*
G01*
X12836Y-35629D02*
G75*
G03X12836Y-35629I-195J0D01*
G74*
G01*
X12836Y-46653D02*
G75*
G03X12836Y-46653I-195J0D01*
G74*
G01*
X12836Y-50590D02*
G75*
G03X12836Y-50590I-195J0D01*
G74*
G01*
X14336Y-33161D02*
G75*
G03X14336Y-33161I-195J0D01*
G74*
G01*
X14336Y-34161D02*
G75*
G03X14336Y-34161I-195J0D01*
G74*
G01*
X14336Y-40748D02*
G75*
G03X14336Y-40748I-195J0D01*
G74*
G01*
X14336Y-48122D02*
G75*
G03X14336Y-48122I-195J0D01*
G74*
G01*
X14336Y-49122D02*
G75*
G03X14336Y-49122I-195J0D01*
G74*
G01*
X14336Y-55708D02*
G75*
G03X14336Y-55708I-195J0D01*
G74*
G01*
X14368Y-7917D02*
G75*
G03X14368Y-7917I-195J0D01*
G74*
G01*
X14368Y-18940D02*
G75*
G03X14368Y-18940I-195J0D01*
G74*
G01*
X15836Y-9417D02*
G75*
G03X15836Y-9417I-195J0D01*
G74*
G01*
X15836Y-20440D02*
G75*
G03X15836Y-20440I-195J0D01*
G74*
G01*
X16836Y-9417D02*
G75*
G03X16836Y-9417I-195J0D01*
G74*
G01*
X16836Y-20440D02*
G75*
G03X16836Y-20440I-195J0D01*
G74*
G01*
X17336Y-40748D02*
G75*
G03X17336Y-40748I-195J0D01*
G74*
G01*
X17336Y-55708D02*
G75*
G03X17336Y-55708I-195J0D01*
G74*
G01*
X18305Y-7917D02*
G75*
G03X18305Y-7917I-195J0D01*
G74*
G01*
X18305Y-18940D02*
G75*
G03X18305Y-18940I-195J0D01*
G74*
G01*
X19836Y-9417D02*
G75*
G03X19836Y-9417I-195J0D01*
G74*
G01*
X19836Y-12417D02*
G75*
G03X19836Y-12417I-195J0D01*
G74*
G01*
X19836Y-20440D02*
G75*
G03X19836Y-20440I-195J0D01*
G74*
G01*
X19836Y-23440D02*
G75*
G03X19836Y-23440I-195J0D01*
G74*
G01*
X21848Y-7917D02*
G75*
G03X21848Y-7917I-195J0D01*
G74*
G01*
X21848Y-18940D02*
G75*
G03X21848Y-18940I-195J0D01*
G74*
G01*
X21848Y-26421D02*
G75*
G03X21848Y-26421I-195J0D01*
G74*
G01*
X21848Y-33901D02*
G75*
G03X21848Y-33901I-195J0D01*
G74*
G01*
X21848Y-41381D02*
G75*
G03X21848Y-41381I-195J0D01*
G74*
G01*
X21848Y-48862D02*
G75*
G03X21848Y-48862I-195J0D01*
G74*
G01*
X23317Y-9417D02*
G75*
G03X23317Y-9417I-195J0D01*
G74*
G01*
X23317Y-20440D02*
G75*
G03X23317Y-20440I-195J0D01*
G74*
G01*
X23317Y-27921D02*
G75*
G03X23317Y-27921I-195J0D01*
G74*
G01*
X23317Y-35401D02*
G75*
G03X23317Y-35401I-195J0D01*
G74*
G01*
X23317Y-42881D02*
G75*
G03X23317Y-42881I-195J0D01*
G74*
G01*
X23317Y-50362D02*
G75*
G03X23317Y-50362I-195J0D01*
G74*
G01*
X24317Y-9417D02*
G75*
G03X24317Y-9417I-195J0D01*
G74*
G01*
X24317Y-20440D02*
G75*
G03X24317Y-20440I-195J0D01*
G74*
G01*
X24317Y-27921D02*
G75*
G03X24317Y-27921I-195J0D01*
G74*
G01*
X24317Y-35401D02*
G75*
G03X24317Y-35401I-195J0D01*
G74*
G01*
X24317Y-42881D02*
G75*
G03X24317Y-42881I-195J0D01*
G74*
G01*
X24317Y-50362D02*
G75*
G03X24317Y-50362I-195J0D01*
G74*
G01*
X25785Y-7917D02*
G75*
G03X25785Y-7917I-195J0D01*
G74*
G01*
X25785Y-18940D02*
G75*
G03X25785Y-18940I-195J0D01*
G74*
G01*
X25785Y-26421D02*
G75*
G03X25785Y-26421I-195J0D01*
G74*
G01*
X25785Y-33901D02*
G75*
G03X25785Y-33901I-195J0D01*
G74*
G01*
X25785Y-41381D02*
G75*
G03X25785Y-41381I-195J0D01*
G74*
G01*
X25785Y-48862D02*
G75*
G03X25785Y-48862I-195J0D01*
G74*
G01*
X27317Y-9417D02*
G75*
G03X27317Y-9417I-195J0D01*
G74*
G01*
X27317Y-12417D02*
G75*
G03X27317Y-12417I-195J0D01*
G74*
G01*
X27317Y-20440D02*
G75*
G03X27317Y-20440I-195J0D01*
G74*
G01*
X27317Y-23440D02*
G75*
G03X27317Y-23440I-195J0D01*
G74*
G01*
X27317Y-27921D02*
G75*
G03X27317Y-27921I-195J0D01*
G74*
G01*
X27317Y-30921D02*
G75*
G03X27317Y-30921I-195J0D01*
G74*
G01*
X27317Y-35401D02*
G75*
G03X27317Y-35401I-195J0D01*
G74*
G01*
X27317Y-38401D02*
G75*
G03X27317Y-38401I-195J0D01*
G74*
G01*
X27317Y-42881D02*
G75*
G03X27317Y-42881I-195J0D01*
G74*
G01*
X27317Y-45881D02*
G75*
G03X27317Y-45881I-195J0D01*
G74*
G01*
X27317Y-50362D02*
G75*
G03X27317Y-50362I-195J0D01*
G74*
G01*
X27317Y-53362D02*
G75*
G03X27317Y-53362I-195J0D01*
G74*
G01*
X29328Y-7917D02*
G75*
G03X29328Y-7917I-195J0D01*
G74*
G01*
X29328Y-18940D02*
G75*
G03X29328Y-18940I-195J0D01*
G74*
G01*
X29328Y-26421D02*
G75*
G03X29328Y-26421I-195J0D01*
G74*
G01*
X29328Y-33901D02*
G75*
G03X29328Y-33901I-195J0D01*
G74*
G01*
X29328Y-41381D02*
G75*
G03X29328Y-41381I-195J0D01*
G74*
G01*
X30797Y-9417D02*
G75*
G03X30797Y-9417I-195J0D01*
G74*
G01*
X30797Y-20440D02*
G75*
G03X30797Y-20440I-195J0D01*
G74*
G01*
X30797Y-27921D02*
G75*
G03X30797Y-27921I-195J0D01*
G74*
G01*
X30797Y-35401D02*
G75*
G03X30797Y-35401I-195J0D01*
G74*
G01*
X30797Y-42881D02*
G75*
G03X30797Y-42881I-195J0D01*
G74*
G01*
X31797Y-9417D02*
G75*
G03X31797Y-9417I-195J0D01*
G74*
G01*
X31797Y-20440D02*
G75*
G03X31797Y-20440I-195J0D01*
G74*
G01*
X31797Y-27921D02*
G75*
G03X31797Y-27921I-195J0D01*
G74*
G01*
X31797Y-35401D02*
G75*
G03X31797Y-35401I-195J0D01*
G74*
G01*
X31797Y-42881D02*
G75*
G03X31797Y-42881I-195J0D01*
G74*
G01*
X33069Y-48862D02*
G75*
G03X33069Y-48862I-195J0D01*
G74*
G01*
X33265Y-7917D02*
G75*
G03X33265Y-7917I-195J0D01*
G74*
G01*
X33265Y-18940D02*
G75*
G03X33265Y-18940I-195J0D01*
G74*
G01*
X33265Y-26421D02*
G75*
G03X33265Y-26421I-195J0D01*
G74*
G01*
X33265Y-33901D02*
G75*
G03X33265Y-33901I-195J0D01*
G74*
G01*
X33265Y-41381D02*
G75*
G03X33265Y-41381I-195J0D01*
G74*
G01*
X34537Y-50362D02*
G75*
G03X34537Y-50362I-195J0D01*
G74*
G01*
X34797Y-9417D02*
G75*
G03X34797Y-9417I-195J0D01*
G74*
G01*
X34797Y-12417D02*
G75*
G03X34797Y-12417I-195J0D01*
G74*
G01*
X34797Y-20440D02*
G75*
G03X34797Y-20440I-195J0D01*
G74*
G01*
X34797Y-23440D02*
G75*
G03X34797Y-23440I-195J0D01*
G74*
G01*
X34797Y-27921D02*
G75*
G03X34797Y-27921I-195J0D01*
G74*
G01*
X34797Y-30921D02*
G75*
G03X34797Y-30921I-195J0D01*
G74*
G01*
X34797Y-35401D02*
G75*
G03X34797Y-35401I-195J0D01*
G74*
G01*
X34797Y-38401D02*
G75*
G03X34797Y-38401I-195J0D01*
G74*
G01*
X34797Y-42881D02*
G75*
G03X34797Y-42881I-195J0D01*
G74*
G01*
X34797Y-45881D02*
G75*
G03X34797Y-45881I-195J0D01*
G74*
G01*
X35537Y-50362D02*
G75*
G03X35537Y-50362I-195J0D01*
G74*
G01*
X36809Y-7917D02*
G75*
G03X36809Y-7917I-195J0D01*
G74*
G01*
X36809Y-18940D02*
G75*
G03X36809Y-18940I-195J0D01*
G74*
G01*
X36809Y-26421D02*
G75*
G03X36809Y-26421I-195J0D01*
G74*
G01*
X36809Y-33901D02*
G75*
G03X36809Y-33901I-195J0D01*
G74*
G01*
X36809Y-41381D02*
G75*
G03X36809Y-41381I-195J0D01*
G74*
G01*
X37006Y-48862D02*
G75*
G03X37006Y-48862I-195J0D01*
G74*
G01*
X38277Y-9417D02*
G75*
G03X38277Y-9417I-195J0D01*
G74*
G01*
X38277Y-20440D02*
G75*
G03X38277Y-20440I-195J0D01*
G74*
G01*
X38277Y-27921D02*
G75*
G03X38277Y-27921I-195J0D01*
G74*
G01*
X38277Y-35401D02*
G75*
G03X38277Y-35401I-195J0D01*
G74*
G01*
X38277Y-42881D02*
G75*
G03X38277Y-42881I-195J0D01*
G74*
G01*
X39277Y-9417D02*
G75*
G03X39277Y-9417I-195J0D01*
G74*
G01*
X39277Y-20440D02*
G75*
G03X39277Y-20440I-195J0D01*
G74*
G01*
X39277Y-27921D02*
G75*
G03X39277Y-27921I-195J0D01*
G74*
G01*
X39277Y-35401D02*
G75*
G03X39277Y-35401I-195J0D01*
G74*
G01*
X39277Y-42881D02*
G75*
G03X39277Y-42881I-195J0D01*
G74*
G01*
X40746Y-7917D02*
G75*
G03X40746Y-7917I-195J0D01*
G74*
G01*
X40746Y-18940D02*
G75*
G03X40746Y-18940I-195J0D01*
G74*
G01*
X40746Y-26421D02*
G75*
G03X40746Y-26421I-195J0D01*
G74*
G01*
X40746Y-33901D02*
G75*
G03X40746Y-33901I-195J0D01*
G74*
G01*
X40746Y-41381D02*
G75*
G03X40746Y-41381I-195J0D01*
G74*
G01*
X42124Y-50362D02*
G75*
G03X42124Y-50362I-195J0D01*
G74*
G01*
X42124Y-53362D02*
G75*
G03X42124Y-53362I-195J0D01*
G74*
G01*
X42277Y-9417D02*
G75*
G03X42277Y-9417I-195J0D01*
G74*
G01*
X42277Y-12417D02*
G75*
G03X42277Y-12417I-195J0D01*
G74*
G01*
X42277Y-20440D02*
G75*
G03X42277Y-20440I-195J0D01*
G74*
G01*
X42277Y-23440D02*
G75*
G03X42277Y-23440I-195J0D01*
G74*
G01*
X42277Y-27921D02*
G75*
G03X42277Y-27921I-195J0D01*
G74*
G01*
X42277Y-30921D02*
G75*
G03X42277Y-30921I-195J0D01*
G74*
G01*
X42277Y-35401D02*
G75*
G03X42277Y-35401I-195J0D01*
G74*
G01*
X42277Y-38401D02*
G75*
G03X42277Y-38401I-195J0D01*
G74*
G01*
X42277Y-42881D02*
G75*
G03X42277Y-42881I-195J0D01*
G74*
G01*
X42277Y-45881D02*
G75*
G03X42277Y-45881I-195J0D01*
G74*
G01*
X46257Y-7917D02*
G75*
G03X46257Y-7917I-195J0D01*
G74*
G01*
X46257Y-18940D02*
G75*
G03X46257Y-18940I-195J0D01*
G74*
G01*
X46257Y-26421D02*
G75*
G03X46257Y-26421I-195J0D01*
G74*
G01*
X46257Y-48862D02*
G75*
G03X46257Y-48862I-195J0D01*
G74*
G01*
X47726Y-9417D02*
G75*
G03X47726Y-9417I-195J0D01*
G74*
G01*
X47726Y-20440D02*
G75*
G03X47726Y-20440I-195J0D01*
G74*
G01*
X47726Y-27921D02*
G75*
G03X47726Y-27921I-195J0D01*
G74*
G01*
X47726Y-50362D02*
G75*
G03X47726Y-50362I-195J0D01*
G74*
G01*
X48726Y-9417D02*
G75*
G03X48726Y-9417I-195J0D01*
G74*
G01*
X48726Y-20440D02*
G75*
G03X48726Y-20440I-195J0D01*
G74*
G01*
X48726Y-27921D02*
G75*
G03X48726Y-27921I-195J0D01*
G74*
G01*
X48726Y-50362D02*
G75*
G03X48726Y-50362I-195J0D01*
G74*
G01*
X50195Y-7917D02*
G75*
G03X50195Y-7917I-195J0D01*
G74*
G01*
X50195Y-18940D02*
G75*
G03X50195Y-18940I-195J0D01*
G74*
G01*
X50195Y-26421D02*
G75*
G03X50195Y-26421I-195J0D01*
G74*
G01*
X50195Y-48862D02*
G75*
G03X50195Y-48862I-195J0D01*
G74*
G01*
X51726Y-9417D02*
G75*
G03X51726Y-9417I-195J0D01*
G74*
G01*
X51726Y-12417D02*
G75*
G03X51726Y-12417I-195J0D01*
G74*
G01*
X51726Y-20440D02*
G75*
G03X51726Y-20440I-195J0D01*
G74*
G01*
X51726Y-23440D02*
G75*
G03X51726Y-23440I-195J0D01*
G74*
G01*
X51726Y-27921D02*
G75*
G03X51726Y-27921I-195J0D01*
G74*
G01*
X51726Y-30921D02*
G75*
G03X51726Y-30921I-195J0D01*
G74*
G01*
X51726Y-50362D02*
G75*
G03X51726Y-50362I-195J0D01*
G74*
G01*
X51726Y-53362D02*
G75*
G03X51726Y-53362I-195J0D01*
G74*
G01*
X53738Y-7917D02*
G75*
G03X53738Y-7917I-195J0D01*
G74*
G01*
X53738Y-18940D02*
G75*
G03X53738Y-18940I-195J0D01*
G74*
G01*
X53738Y-26421D02*
G75*
G03X53738Y-26421I-195J0D01*
G74*
G01*
X53738Y-41381D02*
G75*
G03X53738Y-41381I-195J0D01*
G74*
G01*
X53738Y-48862D02*
G75*
G03X53738Y-48862I-195J0D01*
G74*
G01*
X55206Y-9417D02*
G75*
G03X55206Y-9417I-195J0D01*
G74*
G01*
X55206Y-20440D02*
G75*
G03X55206Y-20440I-195J0D01*
G74*
G01*
X55206Y-27921D02*
G75*
G03X55206Y-27921I-195J0D01*
G74*
G01*
X55206Y-42881D02*
G75*
G03X55206Y-42881I-195J0D01*
G74*
G01*
X55206Y-50362D02*
G75*
G03X55206Y-50362I-195J0D01*
G74*
G01*
X56206Y-9417D02*
G75*
G03X56206Y-9417I-195J0D01*
G74*
G01*
X56206Y-20440D02*
G75*
G03X56206Y-20440I-195J0D01*
G74*
G01*
X56206Y-27921D02*
G75*
G03X56206Y-27921I-195J0D01*
G74*
G01*
X56206Y-42881D02*
G75*
G03X56206Y-42881I-195J0D01*
G74*
G01*
X56206Y-50362D02*
G75*
G03X56206Y-50362I-195J0D01*
G74*
G01*
X57675Y-7917D02*
G75*
G03X57675Y-7917I-195J0D01*
G74*
G01*
X57675Y-18940D02*
G75*
G03X57675Y-18940I-195J0D01*
G74*
G01*
X57675Y-26421D02*
G75*
G03X57675Y-26421I-195J0D01*
G74*
G01*
X57675Y-41381D02*
G75*
G03X57675Y-41381I-195J0D01*
G74*
G01*
X57675Y-48862D02*
G75*
G03X57675Y-48862I-195J0D01*
G74*
G01*
X59206Y-9417D02*
G75*
G03X59206Y-9417I-195J0D01*
G74*
G01*
X59206Y-12417D02*
G75*
G03X59206Y-12417I-195J0D01*
G74*
G01*
X59206Y-20440D02*
G75*
G03X59206Y-20440I-195J0D01*
G74*
G01*
X59206Y-23440D02*
G75*
G03X59206Y-23440I-195J0D01*
G74*
G01*
X59206Y-27921D02*
G75*
G03X59206Y-27921I-195J0D01*
G74*
G01*
X59206Y-30921D02*
G75*
G03X59206Y-30921I-195J0D01*
G74*
G01*
X59206Y-42881D02*
G75*
G03X59206Y-42881I-195J0D01*
G74*
G01*
X59206Y-45881D02*
G75*
G03X59206Y-45881I-195J0D01*
G74*
G01*
X59206Y-50362D02*
G75*
G03X59206Y-50362I-195J0D01*
G74*
G01*
X59206Y-53362D02*
G75*
G03X59206Y-53362I-195J0D01*
G74*
G01*
X61218Y-7917D02*
G75*
G03X61218Y-7917I-195J0D01*
G74*
G01*
X61218Y-18940D02*
G75*
G03X61218Y-18940I-195J0D01*
G74*
G01*
X61218Y-26421D02*
G75*
G03X61218Y-26421I-195J0D01*
G74*
G01*
X61218Y-48862D02*
G75*
G03X61218Y-48862I-195J0D01*
G74*
G01*
X62687Y-9417D02*
G75*
G03X62687Y-9417I-195J0D01*
G74*
G01*
X62687Y-20440D02*
G75*
G03X62687Y-20440I-195J0D01*
G74*
G01*
X62687Y-27921D02*
G75*
G03X62687Y-27921I-195J0D01*
G74*
G01*
X62687Y-50362D02*
G75*
G03X62687Y-50362I-195J0D01*
G74*
G01*
X63687Y-9417D02*
G75*
G03X63687Y-9417I-195J0D01*
G74*
G01*
X63687Y-20440D02*
G75*
G03X63687Y-20440I-195J0D01*
G74*
G01*
X63687Y-27921D02*
G75*
G03X63687Y-27921I-195J0D01*
G74*
G01*
X63687Y-50362D02*
G75*
G03X63687Y-50362I-195J0D01*
G74*
G01*
X65155Y-7917D02*
G75*
G03X65155Y-7917I-195J0D01*
G74*
G01*
X65155Y-18940D02*
G75*
G03X65155Y-18940I-195J0D01*
G74*
G01*
X65155Y-26421D02*
G75*
G03X65155Y-26421I-195J0D01*
G74*
G01*
X65155Y-48862D02*
G75*
G03X65155Y-48862I-195J0D01*
G74*
G01*
X66687Y-9417D02*
G75*
G03X66687Y-9417I-195J0D01*
G74*
G01*
X66687Y-12417D02*
G75*
G03X66687Y-12417I-195J0D01*
G74*
G01*
X66687Y-20440D02*
G75*
G03X66687Y-20440I-195J0D01*
G74*
G01*
X66687Y-23440D02*
G75*
G03X66687Y-23440I-195J0D01*
G74*
G01*
X66687Y-27921D02*
G75*
G03X66687Y-27921I-195J0D01*
G74*
G01*
X66687Y-30921D02*
G75*
G03X66687Y-30921I-195J0D01*
G74*
G01*
X66687Y-50362D02*
G75*
G03X66687Y-50362I-195J0D01*
G74*
G01*
X66687Y-53362D02*
G75*
G03X66687Y-53362I-195J0D01*
G74*
G01*
X70224Y-42881D02*
G75*
G03X70224Y-42881I-195J0D01*
G74*
G01*
X70224Y-45881D02*
G75*
G03X70224Y-45881I-195J0D01*
G74*
G01*
X70667Y-7917D02*
G75*
G03X70667Y-7917I-195J0D01*
G74*
G01*
X70667Y-18940D02*
G75*
G03X70667Y-18940I-195J0D01*
G74*
G01*
X71602Y-55862D02*
G75*
G03X71602Y-55862I-195J0D01*
G74*
G01*
X72135Y-9417D02*
G75*
G03X72135Y-9417I-195J0D01*
G74*
G01*
X72135Y-20440D02*
G75*
G03X72135Y-20440I-195J0D01*
G74*
G01*
X72537Y-26421D02*
G75*
G03X72537Y-26421I-195J0D01*
G74*
G01*
X73070Y-50362D02*
G75*
G03X73070Y-50362I-195J0D01*
G74*
G01*
X73135Y-9417D02*
G75*
G03X73135Y-9417I-195J0D01*
G74*
G01*
X73135Y-20440D02*
G75*
G03X73135Y-20440I-195J0D01*
G74*
G01*
X73472Y-33901D02*
G75*
G03X73472Y-33901I-195J0D01*
G74*
G01*
X74006Y-27921D02*
G75*
G03X74006Y-27921I-195J0D01*
G74*
G01*
X74070Y-50362D02*
G75*
G03X74070Y-50362I-195J0D01*
G74*
G01*
X74604Y-7917D02*
G75*
G03X74604Y-7917I-195J0D01*
G74*
G01*
X74604Y-18940D02*
G75*
G03X74604Y-18940I-195J0D01*
G74*
G01*
X74941Y-35401D02*
G75*
G03X74941Y-35401I-195J0D01*
G74*
G01*
X75006Y-27921D02*
G75*
G03X75006Y-27921I-195J0D01*
G74*
G01*
X75342Y-41381D02*
G75*
G03X75342Y-41381I-195J0D01*
G74*
G01*
X75539Y-55862D02*
G75*
G03X75539Y-55862I-195J0D01*
G74*
G01*
X75941Y-35401D02*
G75*
G03X75941Y-35401I-195J0D01*
G74*
G01*
X76135Y-9417D02*
G75*
G03X76135Y-9417I-195J0D01*
G74*
G01*
X76135Y-12417D02*
G75*
G03X76135Y-12417I-195J0D01*
G74*
G01*
X76135Y-20440D02*
G75*
G03X76135Y-20440I-195J0D01*
G74*
G01*
X76135Y-23440D02*
G75*
G03X76135Y-23440I-195J0D01*
G74*
G01*
X76474Y-26421D02*
G75*
G03X76474Y-26421I-195J0D01*
G74*
G01*
X76811Y-42881D02*
G75*
G03X76811Y-42881I-195J0D01*
G74*
G01*
X77070Y-50362D02*
G75*
G03X77070Y-50362I-195J0D01*
G74*
G01*
X77070Y-53362D02*
G75*
G03X77070Y-53362I-195J0D01*
G74*
G01*
X77409Y-33901D02*
G75*
G03X77409Y-33901I-195J0D01*
G74*
G01*
X77811Y-42881D02*
G75*
G03X77811Y-42881I-195J0D01*
G74*
G01*
X78006Y-27921D02*
G75*
G03X78006Y-27921I-195J0D01*
G74*
G01*
X78006Y-30921D02*
G75*
G03X78006Y-30921I-195J0D01*
G74*
G01*
X78147Y-18940D02*
G75*
G03X78147Y-18940I-195J0D01*
G74*
G01*
X78941Y-35401D02*
G75*
G03X78941Y-35401I-195J0D01*
G74*
G01*
X78941Y-38401D02*
G75*
G03X78941Y-38401I-195J0D01*
G74*
G01*
X79279Y-41381D02*
G75*
G03X79279Y-41381I-195J0D01*
G74*
G01*
X79616Y-20440D02*
G75*
G03X79616Y-20440I-195J0D01*
G74*
G01*
X80616Y-20440D02*
G75*
G03X80616Y-20440I-195J0D01*
G74*
G01*
X80952Y-55862D02*
G75*
G03X80952Y-55862I-195J0D01*
G74*
G01*
X81887Y-26421D02*
G75*
G03X81887Y-26421I-195J0D01*
G74*
G01*
X82084Y-18940D02*
G75*
G03X82084Y-18940I-195J0D01*
G74*
G01*
X82421Y-50362D02*
G75*
G03X82421Y-50362I-195J0D01*
G74*
G01*
X83356Y-27921D02*
G75*
G03X83356Y-27921I-195J0D01*
G74*
G01*
X83421Y-50362D02*
G75*
G03X83421Y-50362I-195J0D01*
G74*
G01*
X83616Y-20440D02*
G75*
G03X83616Y-20440I-195J0D01*
G74*
G01*
X83616Y-23440D02*
G75*
G03X83616Y-23440I-195J0D01*
G74*
G01*
X83757Y-33901D02*
G75*
G03X83757Y-33901I-195J0D01*
G74*
G01*
X84356Y-27921D02*
G75*
G03X84356Y-27921I-195J0D01*
G74*
G01*
X84889Y-55862D02*
G75*
G03X84889Y-55862I-195J0D01*
G74*
G01*
X85226Y-35401D02*
G75*
G03X85226Y-35401I-195J0D01*
G74*
G01*
X85628Y-7917D02*
G75*
G03X85628Y-7917I-195J0D01*
G74*
G01*
X85628Y-18940D02*
G75*
G03X85628Y-18940I-195J0D01*
G74*
G01*
X85824Y-26421D02*
G75*
G03X85824Y-26421I-195J0D01*
G74*
G01*
X86226Y-35401D02*
G75*
G03X86226Y-35401I-195J0D01*
G74*
G01*
X86421Y-50362D02*
G75*
G03X86421Y-50362I-195J0D01*
G74*
G01*
X86421Y-53362D02*
G75*
G03X86421Y-53362I-195J0D01*
G74*
G01*
X87096Y-9417D02*
G75*
G03X87096Y-9417I-195J0D01*
G74*
G01*
X87096Y-20440D02*
G75*
G03X87096Y-20440I-195J0D01*
G74*
G01*
X87356Y-27921D02*
G75*
G03X87356Y-27921I-195J0D01*
G74*
G01*
X87356Y-30921D02*
G75*
G03X87356Y-30921I-195J0D01*
G74*
G01*
X87498Y-41381D02*
G75*
G03X87498Y-41381I-195J0D01*
G74*
G01*
X87695Y-33901D02*
G75*
G03X87695Y-33901I-195J0D01*
G74*
G01*
X88096Y-9417D02*
G75*
G03X88096Y-9417I-195J0D01*
G74*
G01*
X88096Y-20440D02*
G75*
G03X88096Y-20440I-195J0D01*
G74*
G01*
X88966Y-42881D02*
G75*
G03X88966Y-42881I-195J0D01*
G74*
G01*
X89226Y-35401D02*
G75*
G03X89226Y-35401I-195J0D01*
G74*
G01*
X89226Y-38401D02*
G75*
G03X89226Y-38401I-195J0D01*
G74*
G01*
X89368Y-26421D02*
G75*
G03X89368Y-26421I-195J0D01*
G74*
G01*
X89565Y-7917D02*
G75*
G03X89565Y-7917I-195J0D01*
G74*
G01*
X89565Y-18940D02*
G75*
G03X89565Y-18940I-195J0D01*
G74*
G01*
X89966Y-42881D02*
G75*
G03X89966Y-42881I-195J0D01*
G74*
G01*
X90303Y-48862D02*
G75*
G03X90303Y-48862I-195J0D01*
G74*
G01*
X90836Y-27921D02*
G75*
G03X90836Y-27921I-195J0D01*
G74*
G01*
X91096Y-9417D02*
G75*
G03X91096Y-9417I-195J0D01*
G74*
G01*
X91096Y-12417D02*
G75*
G03X91096Y-12417I-195J0D01*
G74*
G01*
X91096Y-20440D02*
G75*
G03X91096Y-20440I-195J0D01*
G74*
G01*
X91096Y-23440D02*
G75*
G03X91096Y-23440I-195J0D01*
G74*
G01*
X91238Y-33901D02*
G75*
G03X91238Y-33901I-195J0D01*
G74*
G01*
X91435Y-41381D02*
G75*
G03X91435Y-41381I-195J0D01*
G74*
G01*
X91771Y-50362D02*
G75*
G03X91771Y-50362I-195J0D01*
G74*
G01*
X91836Y-27921D02*
G75*
G03X91836Y-27921I-195J0D01*
G74*
G01*
X92706Y-35401D02*
G75*
G03X92706Y-35401I-195J0D01*
G74*
G01*
X92771Y-50362D02*
G75*
G03X92771Y-50362I-195J0D01*
G74*
G01*
X92966Y-42881D02*
G75*
G03X92966Y-42881I-195J0D01*
G74*
G01*
X92966Y-45881D02*
G75*
G03X92966Y-45881I-195J0D01*
G74*
G01*
X93108Y-7917D02*
G75*
G03X93108Y-7917I-195J0D01*
G74*
G01*
X93108Y-18940D02*
G75*
G03X93108Y-18940I-195J0D01*
G74*
G01*
X93305Y-26421D02*
G75*
G03X93305Y-26421I-195J0D01*
G74*
G01*
X93706Y-35401D02*
G75*
G03X93706Y-35401I-195J0D01*
G74*
G01*
X94240Y-48862D02*
G75*
G03X94240Y-48862I-195J0D01*
G74*
G01*
X94576Y-9417D02*
G75*
G03X94576Y-9417I-195J0D01*
G74*
G01*
X94576Y-20440D02*
G75*
G03X94576Y-20440I-195J0D01*
G74*
G01*
X94836Y-27921D02*
G75*
G03X94836Y-27921I-195J0D01*
G74*
G01*
X94836Y-30921D02*
G75*
G03X94836Y-30921I-195J0D01*
G74*
G01*
X94978Y-41381D02*
G75*
G03X94978Y-41381I-195J0D01*
G74*
G01*
X95175Y-33901D02*
G75*
G03X95175Y-33901I-195J0D01*
G74*
G01*
X95576Y-9417D02*
G75*
G03X95576Y-9417I-195J0D01*
G74*
G01*
X95576Y-20440D02*
G75*
G03X95576Y-20440I-195J0D01*
G74*
G01*
X95771Y-50362D02*
G75*
G03X95771Y-50362I-195J0D01*
G74*
G01*
X95771Y-53362D02*
G75*
G03X95771Y-53362I-195J0D01*
G74*
G01*
X96446Y-42881D02*
G75*
G03X96446Y-42881I-195J0D01*
G74*
G01*
X96706Y-35401D02*
G75*
G03X96706Y-35401I-195J0D01*
G74*
G01*
X96706Y-38401D02*
G75*
G03X96706Y-38401I-195J0D01*
G74*
G01*
X96848Y-26421D02*
G75*
G03X96848Y-26421I-195J0D01*
G74*
G01*
X97045Y-7917D02*
G75*
G03X97045Y-7917I-195J0D01*
G74*
G01*
X97045Y-18940D02*
G75*
G03X97045Y-18940I-195J0D01*
G74*
G01*
X97446Y-42881D02*
G75*
G03X97446Y-42881I-195J0D01*
G74*
G01*
X98317Y-27921D02*
G75*
G03X98317Y-27921I-195J0D01*
G74*
G01*
X98576Y-9417D02*
G75*
G03X98576Y-9417I-195J0D01*
G74*
G01*
X98576Y-12417D02*
G75*
G03X98576Y-12417I-195J0D01*
G74*
G01*
X98576Y-20440D02*
G75*
G03X98576Y-20440I-195J0D01*
G74*
G01*
X98576Y-23440D02*
G75*
G03X98576Y-23440I-195J0D01*
G74*
G01*
X98718Y-33901D02*
G75*
G03X98718Y-33901I-195J0D01*
G74*
G01*
X98915Y-41381D02*
G75*
G03X98915Y-41381I-195J0D01*
G74*
G01*
X99317Y-27921D02*
G75*
G03X99317Y-27921I-195J0D01*
G74*
G01*
X100187Y-35401D02*
G75*
G03X100187Y-35401I-195J0D01*
G74*
G01*
X100446Y-42881D02*
G75*
G03X100446Y-42881I-195J0D01*
G74*
G01*
X100446Y-45881D02*
G75*
G03X100446Y-45881I-195J0D01*
G74*
G01*
X100588Y-7917D02*
G75*
G03X100588Y-7917I-195J0D01*
G74*
G01*
X100588Y-18940D02*
G75*
G03X100588Y-18940I-195J0D01*
G74*
G01*
X100588Y-48862D02*
G75*
G03X100588Y-48862I-195J0D01*
G74*
G01*
X100785Y-26421D02*
G75*
G03X100785Y-26421I-195J0D01*
G74*
G01*
X101187Y-35401D02*
G75*
G03X101187Y-35401I-195J0D01*
G74*
G01*
X102057Y-9417D02*
G75*
G03X102057Y-9417I-195J0D01*
G74*
G01*
X102057Y-20440D02*
G75*
G03X102057Y-20440I-195J0D01*
G74*
G01*
X102057Y-50362D02*
G75*
G03X102057Y-50362I-195J0D01*
G74*
G01*
X102317Y-27921D02*
G75*
G03X102317Y-27921I-195J0D01*
G74*
G01*
X102317Y-30921D02*
G75*
G03X102317Y-30921I-195J0D01*
G74*
G01*
X102458Y-41381D02*
G75*
G03X102458Y-41381I-195J0D01*
G74*
G01*
X102655Y-33901D02*
G75*
G03X102655Y-33901I-195J0D01*
G74*
G01*
X103057Y-9417D02*
G75*
G03X103057Y-9417I-195J0D01*
G74*
G01*
X103057Y-20440D02*
G75*
G03X103057Y-20440I-195J0D01*
G74*
G01*
X103057Y-50362D02*
G75*
G03X103057Y-50362I-195J0D01*
G74*
G01*
X103927Y-42881D02*
G75*
G03X103927Y-42881I-195J0D01*
G74*
G01*
X104187Y-35401D02*
G75*
G03X104187Y-35401I-195J0D01*
G74*
G01*
X104187Y-38401D02*
G75*
G03X104187Y-38401I-195J0D01*
G74*
G01*
X104328Y-26421D02*
G75*
G03X104328Y-26421I-195J0D01*
G74*
G01*
X104525Y-7917D02*
G75*
G03X104525Y-7917I-195J0D01*
G74*
G01*
X104525Y-18940D02*
G75*
G03X104525Y-18940I-195J0D01*
G74*
G01*
X104525Y-48862D02*
G75*
G03X104525Y-48862I-195J0D01*
G74*
G01*
X104927Y-42881D02*
G75*
G03X104927Y-42881I-195J0D01*
G74*
G01*
X105797Y-27921D02*
G75*
G03X105797Y-27921I-195J0D01*
G74*
G01*
X106057Y-9417D02*
G75*
G03X106057Y-9417I-195J0D01*
G74*
G01*
X106057Y-12417D02*
G75*
G03X106057Y-12417I-195J0D01*
G74*
G01*
X106057Y-20440D02*
G75*
G03X106057Y-20440I-195J0D01*
G74*
G01*
X106057Y-23440D02*
G75*
G03X106057Y-23440I-195J0D01*
G74*
G01*
X106057Y-50362D02*
G75*
G03X106057Y-50362I-195J0D01*
G74*
G01*
X106057Y-53362D02*
G75*
G03X106057Y-53362I-195J0D01*
G74*
G01*
X106198Y-33901D02*
G75*
G03X106198Y-33901I-195J0D01*
G74*
G01*
X106395Y-41381D02*
G75*
G03X106395Y-41381I-195J0D01*
G74*
G01*
X106797Y-27921D02*
G75*
G03X106797Y-27921I-195J0D01*
G74*
G01*
X107667Y-35401D02*
G75*
G03X107667Y-35401I-195J0D01*
G74*
G01*
X107927Y-42881D02*
G75*
G03X107927Y-42881I-195J0D01*
G74*
G01*
X107927Y-45881D02*
G75*
G03X107927Y-45881I-195J0D01*
G74*
G01*
X108069Y-7917D02*
G75*
G03X108069Y-7917I-195J0D01*
G74*
G01*
X108069Y-18940D02*
G75*
G03X108069Y-18940I-195J0D01*
G74*
G01*
X108265Y-26421D02*
G75*
G03X108265Y-26421I-195J0D01*
G74*
G01*
X108667Y-35401D02*
G75*
G03X108667Y-35401I-195J0D01*
G74*
G01*
X109496Y-50362D02*
G75*
G03X109496Y-50362I-195J0D01*
G74*
G01*
X109496Y-53362D02*
G75*
G03X109496Y-53362I-195J0D01*
G74*
G01*
X109537Y-9417D02*
G75*
G03X109537Y-9417I-195J0D01*
G74*
G01*
X109537Y-20440D02*
G75*
G03X109537Y-20440I-195J0D01*
G74*
G01*
X109797Y-27921D02*
G75*
G03X109797Y-27921I-195J0D01*
G74*
G01*
X109797Y-30921D02*
G75*
G03X109797Y-30921I-195J0D01*
G74*
G01*
X109939Y-41381D02*
G75*
G03X109939Y-41381I-195J0D01*
G74*
G01*
X110135Y-33901D02*
G75*
G03X110135Y-33901I-195J0D01*
G74*
G01*
X110537Y-9417D02*
G75*
G03X110537Y-9417I-195J0D01*
G74*
G01*
X110537Y-20440D02*
G75*
G03X110537Y-20440I-195J0D01*
G74*
G01*
X111407Y-42881D02*
G75*
G03X111407Y-42881I-195J0D01*
G74*
G01*
X111667Y-35401D02*
G75*
G03X111667Y-35401I-195J0D01*
G74*
G01*
X111667Y-38401D02*
G75*
G03X111667Y-38401I-195J0D01*
G74*
G01*
X111809Y-26421D02*
G75*
G03X111809Y-26421I-195J0D01*
G74*
G01*
X112006Y-7917D02*
G75*
G03X112006Y-7917I-195J0D01*
G74*
G01*
X112006Y-18940D02*
G75*
G03X112006Y-18940I-195J0D01*
G74*
G01*
X112407Y-42881D02*
G75*
G03X112407Y-42881I-195J0D01*
G74*
G01*
X113277Y-27921D02*
G75*
G03X113277Y-27921I-195J0D01*
G74*
G01*
X113537Y-9417D02*
G75*
G03X113537Y-9417I-195J0D01*
G74*
G01*
X113537Y-12417D02*
G75*
G03X113537Y-12417I-195J0D01*
G74*
G01*
X113537Y-20440D02*
G75*
G03X113537Y-20440I-195J0D01*
G74*
G01*
X113537Y-23440D02*
G75*
G03X113537Y-23440I-195J0D01*
G74*
G01*
X113679Y-33901D02*
G75*
G03X113679Y-33901I-195J0D01*
G74*
G01*
X113876Y-41381D02*
G75*
G03X113876Y-41381I-195J0D01*
G74*
G01*
X114277Y-27921D02*
G75*
G03X114277Y-27921I-195J0D01*
G74*
G01*
X114614Y-48862D02*
G75*
G03X114614Y-48862I-195J0D01*
G74*
G01*
X115147Y-35401D02*
G75*
G03X115147Y-35401I-195J0D01*
G74*
G01*
X115407Y-42881D02*
G75*
G03X115407Y-42881I-195J0D01*
G74*
G01*
X115407Y-45881D02*
G75*
G03X115407Y-45881I-195J0D01*
G74*
G01*
X115549Y-7917D02*
G75*
G03X115549Y-7917I-195J0D01*
G74*
G01*
X115549Y-18940D02*
G75*
G03X115549Y-18940I-195J0D01*
G74*
G01*
X115746Y-26421D02*
G75*
G03X115746Y-26421I-195J0D01*
G74*
G01*
X116082Y-50362D02*
G75*
G03X116082Y-50362I-195J0D01*
G74*
G01*
X116147Y-35401D02*
G75*
G03X116147Y-35401I-195J0D01*
G74*
G01*
X117017Y-9417D02*
G75*
G03X117017Y-9417I-195J0D01*
G74*
G01*
X117017Y-20440D02*
G75*
G03X117017Y-20440I-195J0D01*
G74*
G01*
X117082Y-50362D02*
G75*
G03X117082Y-50362I-195J0D01*
G74*
G01*
X117277Y-27921D02*
G75*
G03X117277Y-27921I-195J0D01*
G74*
G01*
X117277Y-30921D02*
G75*
G03X117277Y-30921I-195J0D01*
G74*
G01*
X117419Y-41381D02*
G75*
G03X117419Y-41381I-195J0D01*
G74*
G01*
X117616Y-33901D02*
G75*
G03X117616Y-33901I-195J0D01*
G74*
G01*
X118017Y-9417D02*
G75*
G03X118017Y-9417I-195J0D01*
G74*
G01*
X118017Y-20440D02*
G75*
G03X118017Y-20440I-195J0D01*
G74*
G01*
X118551Y-48862D02*
G75*
G03X118551Y-48862I-195J0D01*
G74*
G01*
X118887Y-42881D02*
G75*
G03X118887Y-42881I-195J0D01*
G74*
G01*
X119147Y-35401D02*
G75*
G03X119147Y-35401I-195J0D01*
G74*
G01*
X119147Y-38401D02*
G75*
G03X119147Y-38401I-195J0D01*
G74*
G01*
X119486Y-7917D02*
G75*
G03X119486Y-7917I-195J0D01*
G74*
G01*
X119486Y-18940D02*
G75*
G03X119486Y-18940I-195J0D01*
G74*
G01*
X119887Y-42881D02*
G75*
G03X119887Y-42881I-195J0D01*
G74*
G01*
X121017Y-9417D02*
G75*
G03X121017Y-9417I-195J0D01*
G74*
G01*
X121017Y-12417D02*
G75*
G03X121017Y-12417I-195J0D01*
G74*
G01*
X121017Y-20440D02*
G75*
G03X121017Y-20440I-195J0D01*
G74*
G01*
X121017Y-23440D02*
G75*
G03X121017Y-23440I-195J0D01*
G74*
G01*
X121356Y-41381D02*
G75*
G03X121356Y-41381I-195J0D01*
G74*
G01*
X122887Y-42881D02*
G75*
G03X122887Y-42881I-195J0D01*
G74*
G01*
X122887Y-45881D02*
G75*
G03X122887Y-45881I-195J0D01*
G74*
G01*
X123029Y-26421D02*
G75*
G03X123029Y-26421I-195J0D01*
G74*
G01*
X123964Y-33901D02*
G75*
G03X123964Y-33901I-195J0D01*
G74*
G01*
X124498Y-27921D02*
G75*
G03X124498Y-27921I-195J0D01*
G74*
G01*
X124899Y-18940D02*
G75*
G03X124899Y-18940I-195J0D01*
G74*
G01*
X125433Y-35401D02*
G75*
G03X125433Y-35401I-195J0D01*
G74*
G01*
X125498Y-27921D02*
G75*
G03X125498Y-27921I-195J0D01*
G74*
G01*
X125834Y-41381D02*
G75*
G03X125834Y-41381I-195J0D01*
G74*
G01*
X126368Y-20440D02*
G75*
G03X126368Y-20440I-195J0D01*
G74*
G01*
X126433Y-35401D02*
G75*
G03X126433Y-35401I-195J0D01*
G74*
G01*
X126769Y-7917D02*
G75*
G03X126769Y-7917I-195J0D01*
G74*
G01*
X126769Y-48862D02*
G75*
G03X126769Y-48862I-195J0D01*
G74*
G01*
X126966Y-26421D02*
G75*
G03X126966Y-26421I-195J0D01*
G74*
G01*
X127303Y-42881D02*
G75*
G03X127303Y-42881I-195J0D01*
G74*
G01*
X127368Y-20440D02*
G75*
G03X127368Y-20440I-195J0D01*
G74*
G01*
X127901Y-33901D02*
G75*
G03X127901Y-33901I-195J0D01*
G74*
G01*
X128238Y-9417D02*
G75*
G03X128238Y-9417I-195J0D01*
G74*
G01*
X128238Y-50362D02*
G75*
G03X128238Y-50362I-195J0D01*
G74*
G01*
X128303Y-42881D02*
G75*
G03X128303Y-42881I-195J0D01*
G74*
G01*
X128836Y-18940D02*
G75*
G03X128836Y-18940I-195J0D01*
G74*
G01*
X129238Y-9417D02*
G75*
G03X129238Y-9417I-195J0D01*
G74*
G01*
X129238Y-50362D02*
G75*
G03X129238Y-50362I-195J0D01*
G74*
G01*
X129433Y-35401D02*
G75*
G03X129433Y-35401I-195J0D01*
G74*
G01*
X129433Y-38401D02*
G75*
G03X129433Y-38401I-195J0D01*
G74*
G01*
X129771Y-41381D02*
G75*
G03X129771Y-41381I-195J0D01*
G74*
G01*
X130368Y-20440D02*
G75*
G03X130368Y-20440I-195J0D01*
G74*
G01*
X130368Y-23440D02*
G75*
G03X130368Y-23440I-195J0D01*
G74*
G01*
X130706Y-7917D02*
G75*
G03X130706Y-7917I-195J0D01*
G74*
G01*
X130706Y-48862D02*
G75*
G03X130706Y-48862I-195J0D01*
G74*
G01*
X131303Y-42881D02*
G75*
G03X131303Y-42881I-195J0D01*
G74*
G01*
X131303Y-45881D02*
G75*
G03X131303Y-45881I-195J0D01*
G74*
G01*
X132084Y-27921D02*
G75*
G03X132084Y-27921I-195J0D01*
G74*
G01*
X132084Y-30921D02*
G75*
G03X132084Y-30921I-195J0D01*
G74*
G01*
X132238Y-9417D02*
G75*
G03X132238Y-9417I-195J0D01*
G74*
G01*
X132238Y-12417D02*
G75*
G03X132238Y-12417I-195J0D01*
G74*
G01*
X132238Y-50362D02*
G75*
G03X132238Y-50362I-195J0D01*
G74*
G01*
X132238Y-53362D02*
G75*
G03X132238Y-53362I-195J0D01*
G74*
G01*
X28292Y-3302D02*
X28292Y-3702D01*
X28092Y-3502D02*
X28492Y-3502D01*
X28842Y-2202D02*
X28842Y-2602D01*
X28642Y-2402D02*
X29042Y-2402D01*
X29392Y-3302D02*
X29392Y-3702D01*
X29192Y-3502D02*
X29592Y-3502D01*
X29942Y-2202D02*
X29942Y-2602D01*
X29742Y-2402D02*
X30142Y-2402D01*
X30492Y-3302D02*
X30492Y-3702D01*
X30292Y-3502D02*
X30692Y-3502D01*
X31042Y-2202D02*
X31042Y-2602D01*
X30842Y-2402D02*
X31242Y-2402D01*
X31592Y-3302D02*
X31592Y-3702D01*
X31392Y-3502D02*
X31792Y-3502D01*
X32092Y-2202D02*
X32092Y-2602D01*
X31892Y-2402D02*
X32292Y-2402D01*
X32692Y-3302D02*
X32692Y-3702D01*
X32492Y-3502D02*
X32892Y-3502D01*
X33192Y-2202D02*
X33192Y-2602D01*
X32992Y-2402D02*
X33392Y-2402D01*
X33742Y-3302D02*
X33742Y-3702D01*
X33542Y-3502D02*
X33942Y-3502D01*
X34292Y-2202D02*
X34292Y-2602D01*
X34092Y-2402D02*
X34492Y-2402D01*
X34842Y-3302D02*
X34842Y-3702D01*
X34642Y-3502D02*
X35042Y-3502D01*
X35392Y-2202D02*
X35392Y-2602D01*
X35192Y-2402D02*
X35592Y-2402D01*
X35942Y-3302D02*
X35942Y-3702D01*
X35742Y-3502D02*
X36142Y-3502D01*
X36492Y-2202D02*
X36492Y-2602D01*
X36292Y-2402D02*
X36692Y-2402D01*
X37042Y-3302D02*
X37042Y-3702D01*
X36842Y-3502D02*
X37242Y-3502D01*
X37542Y-2202D02*
X37542Y-2602D01*
X37342Y-2402D02*
X37742Y-2402D01*
X38142Y-3302D02*
X38142Y-3702D01*
X37942Y-3502D02*
X38342Y-3502D01*
X38642Y-2202D02*
X38642Y-2602D01*
X38442Y-2402D02*
X38842Y-2402D01*
X39192Y-3302D02*
X39192Y-3702D01*
X38992Y-3502D02*
X39392Y-3502D01*
X39742Y-2202D02*
X39742Y-2602D01*
X39542Y-2402D02*
X39942Y-2402D01*
X40292Y-3302D02*
X40292Y-3702D01*
X40092Y-3502D02*
X40492Y-3502D01*
X40842Y-2202D02*
X40842Y-2602D01*
X40642Y-2402D02*
X41042Y-2402D01*
X41392Y-3302D02*
X41392Y-3702D01*
X41192Y-3502D02*
X41592Y-3502D01*
X5901Y-13625D02*
X5901Y-13208D01*
X5484Y-13208D01*
X5484Y-13625D01*
X5901Y-13625D01*
X5901Y-24649D02*
X5901Y-24232D01*
X5484Y-24232D01*
X5484Y-24649D01*
X5901Y-24649D01*
X5901Y-32129D02*
X5901Y-31712D01*
X5484Y-31712D01*
X5484Y-32129D01*
X5901Y-32129D01*
X5901Y-39610D02*
X5901Y-39192D01*
X5484Y-39192D01*
X5484Y-39610D01*
X5901Y-39610D01*
X5901Y-47090D02*
X5901Y-46673D01*
X5484Y-46673D01*
X5484Y-47090D01*
X5901Y-47090D01*
X5901Y-54570D02*
X5901Y-54153D01*
X5484Y-54153D01*
X5484Y-54570D01*
X5901Y-54570D01*
X8401Y-12625D02*
X8401Y-12208D01*
X7984Y-12208D01*
X7984Y-12625D01*
X8401Y-12625D01*
X8401Y-23649D02*
X8401Y-23232D01*
X7984Y-23232D01*
X7984Y-23649D01*
X8401Y-23649D01*
X8401Y-31129D02*
X8401Y-30712D01*
X7984Y-30712D01*
X7984Y-31129D01*
X8401Y-31129D01*
X8401Y-38610D02*
X8401Y-38192D01*
X7984Y-38192D01*
X7984Y-38610D01*
X8401Y-38610D01*
X8401Y-46090D02*
X8401Y-45673D01*
X7984Y-45673D01*
X7984Y-46090D01*
X8401Y-46090D01*
X8401Y-53570D02*
X8401Y-53153D01*
X7984Y-53153D01*
X7984Y-53570D01*
X8401Y-53570D01*
X15350Y-13625D02*
X15350Y-13208D01*
X14933Y-13208D01*
X14933Y-13625D01*
X15350Y-13625D01*
X15350Y-24649D02*
X15350Y-24232D01*
X14933Y-24232D01*
X14933Y-24649D01*
X15350Y-24649D01*
X17350Y-32370D02*
X17350Y-31952D01*
X16933Y-31952D01*
X16933Y-32370D01*
X17350Y-32370D01*
X17350Y-47330D02*
X17350Y-46913D01*
X16933Y-46913D01*
X16933Y-47330D01*
X17350Y-47330D01*
X17850Y-12625D02*
X17850Y-12208D01*
X17433Y-12208D01*
X17433Y-12625D01*
X17850Y-12625D01*
X17850Y-23649D02*
X17850Y-23232D01*
X17433Y-23232D01*
X17433Y-23649D01*
X17850Y-23649D01*
X18350Y-34870D02*
X18350Y-34452D01*
X17933Y-34452D01*
X17933Y-34870D01*
X18350Y-34870D01*
X18350Y-49830D02*
X18350Y-49413D01*
X17933Y-49413D01*
X17933Y-49830D01*
X18350Y-49830D01*
X22830Y-13625D02*
X22830Y-13208D01*
X22413Y-13208D01*
X22413Y-13625D01*
X22830Y-13625D01*
X22830Y-24649D02*
X22830Y-24232D01*
X22413Y-24232D01*
X22413Y-24649D01*
X22830Y-24649D01*
X22830Y-32129D02*
X22830Y-31712D01*
X22413Y-31712D01*
X22413Y-32129D01*
X22830Y-32129D01*
X22830Y-39610D02*
X22830Y-39192D01*
X22413Y-39192D01*
X22413Y-39610D01*
X22830Y-39610D01*
X22830Y-47090D02*
X22830Y-46673D01*
X22413Y-46673D01*
X22413Y-47090D01*
X22830Y-47090D01*
X22830Y-54570D02*
X22830Y-54153D01*
X22413Y-54153D01*
X22413Y-54570D01*
X22830Y-54570D01*
X25330Y-12625D02*
X25330Y-12208D01*
X24913Y-12208D01*
X24913Y-12625D01*
X25330Y-12625D01*
X25330Y-23649D02*
X25330Y-23232D01*
X24913Y-23232D01*
X24913Y-23649D01*
X25330Y-23649D01*
X25330Y-31129D02*
X25330Y-30712D01*
X24913Y-30712D01*
X24913Y-31129D01*
X25330Y-31129D01*
X25330Y-38610D02*
X25330Y-38192D01*
X24913Y-38192D01*
X24913Y-38610D01*
X25330Y-38610D01*
X25330Y-46090D02*
X25330Y-45673D01*
X24913Y-45673D01*
X24913Y-46090D01*
X25330Y-46090D01*
X25330Y-53570D02*
X25330Y-53153D01*
X24913Y-53153D01*
X24913Y-53570D01*
X25330Y-53570D01*
X30310Y-13625D02*
X30310Y-13208D01*
X29893Y-13208D01*
X29893Y-13625D01*
X30310Y-13625D01*
X30310Y-24649D02*
X30310Y-24232D01*
X29893Y-24232D01*
X29893Y-24649D01*
X30310Y-24649D01*
X30310Y-32129D02*
X30310Y-31712D01*
X29893Y-31712D01*
X29893Y-32129D01*
X30310Y-32129D01*
X30310Y-39610D02*
X30310Y-39192D01*
X29893Y-39192D01*
X29893Y-39610D01*
X30310Y-39610D01*
X30310Y-47090D02*
X30310Y-46673D01*
X29893Y-46673D01*
X29893Y-47090D01*
X30310Y-47090D01*
X32810Y-12625D02*
X32810Y-12208D01*
X32393Y-12208D01*
X32393Y-12625D01*
X32810Y-12625D01*
X32810Y-23649D02*
X32810Y-23232D01*
X32393Y-23232D01*
X32393Y-23649D01*
X32810Y-23649D01*
X32810Y-31129D02*
X32810Y-30712D01*
X32393Y-30712D01*
X32393Y-31129D01*
X32810Y-31129D01*
X32810Y-38610D02*
X32810Y-38192D01*
X32393Y-38192D01*
X32393Y-38610D01*
X32810Y-38610D01*
X32810Y-46090D02*
X32810Y-45673D01*
X32393Y-45673D01*
X32393Y-46090D01*
X32810Y-46090D01*
X34051Y-54570D02*
X34051Y-54153D01*
X33633Y-54153D01*
X33633Y-54570D01*
X34051Y-54570D01*
X36551Y-53570D02*
X36551Y-53153D01*
X36133Y-53153D01*
X36133Y-53570D01*
X36551Y-53570D01*
X37791Y-13625D02*
X37791Y-13208D01*
X37374Y-13208D01*
X37374Y-13625D01*
X37791Y-13625D01*
X37791Y-24649D02*
X37791Y-24232D01*
X37374Y-24232D01*
X37374Y-24649D01*
X37791Y-24649D01*
X37791Y-32129D02*
X37791Y-31712D01*
X37374Y-31712D01*
X37374Y-32129D01*
X37791Y-32129D01*
X37791Y-39610D02*
X37791Y-39192D01*
X37374Y-39192D01*
X37374Y-39610D01*
X37791Y-39610D01*
X37791Y-47090D02*
X37791Y-46673D01*
X37374Y-46673D01*
X37374Y-47090D01*
X37791Y-47090D01*
X40291Y-12625D02*
X40291Y-12208D01*
X39874Y-12208D01*
X39874Y-12625D01*
X40291Y-12625D01*
X40291Y-23649D02*
X40291Y-23232D01*
X39874Y-23232D01*
X39874Y-23649D01*
X40291Y-23649D01*
X40291Y-31129D02*
X40291Y-30712D01*
X39874Y-30712D01*
X39874Y-31129D01*
X40291Y-31129D01*
X40291Y-38610D02*
X40291Y-38192D01*
X39874Y-38192D01*
X39874Y-38610D01*
X40291Y-38610D01*
X40291Y-46090D02*
X40291Y-45673D01*
X39874Y-45673D01*
X39874Y-46090D01*
X40291Y-46090D01*
X47240Y-13625D02*
X47240Y-13208D01*
X46822Y-13208D01*
X46822Y-13625D01*
X47240Y-13625D01*
X47240Y-24649D02*
X47240Y-24232D01*
X46822Y-24232D01*
X46822Y-24649D01*
X47240Y-24649D01*
X47240Y-32129D02*
X47240Y-31712D01*
X46822Y-31712D01*
X46822Y-32129D01*
X47240Y-32129D01*
X47240Y-54570D02*
X47240Y-54153D01*
X46822Y-54153D01*
X46822Y-54570D01*
X47240Y-54570D01*
X49740Y-12625D02*
X49740Y-12208D01*
X49322Y-12208D01*
X49322Y-12625D01*
X49740Y-12625D01*
X49740Y-23649D02*
X49740Y-23232D01*
X49322Y-23232D01*
X49322Y-23649D01*
X49740Y-23649D01*
X49740Y-31129D02*
X49740Y-30712D01*
X49322Y-30712D01*
X49322Y-31129D01*
X49740Y-31129D01*
X49740Y-53570D02*
X49740Y-53153D01*
X49322Y-53153D01*
X49322Y-53570D01*
X49740Y-53570D01*
X54720Y-13625D02*
X54720Y-13208D01*
X54303Y-13208D01*
X54303Y-13625D01*
X54720Y-13625D01*
X54720Y-24649D02*
X54720Y-24232D01*
X54303Y-24232D01*
X54303Y-24649D01*
X54720Y-24649D01*
X54720Y-32129D02*
X54720Y-31712D01*
X54303Y-31712D01*
X54303Y-32129D01*
X54720Y-32129D01*
X54720Y-47090D02*
X54720Y-46673D01*
X54303Y-46673D01*
X54303Y-47090D01*
X54720Y-47090D01*
X54720Y-54570D02*
X54720Y-54153D01*
X54303Y-54153D01*
X54303Y-54570D01*
X54720Y-54570D01*
X57220Y-12625D02*
X57220Y-12208D01*
X56803Y-12208D01*
X56803Y-12625D01*
X57220Y-12625D01*
X57220Y-23649D02*
X57220Y-23232D01*
X56803Y-23232D01*
X56803Y-23649D01*
X57220Y-23649D01*
X57220Y-31129D02*
X57220Y-30712D01*
X56803Y-30712D01*
X56803Y-31129D01*
X57220Y-31129D01*
X57220Y-46090D02*
X57220Y-45673D01*
X56803Y-45673D01*
X56803Y-46090D01*
X57220Y-46090D01*
X57220Y-53570D02*
X57220Y-53153D01*
X56803Y-53153D01*
X56803Y-53570D01*
X57220Y-53570D01*
X62200Y-13625D02*
X62200Y-13208D01*
X61783Y-13208D01*
X61783Y-13625D01*
X62200Y-13625D01*
X62200Y-24649D02*
X62200Y-24232D01*
X61783Y-24232D01*
X61783Y-24649D01*
X62200Y-24649D01*
X62200Y-32129D02*
X62200Y-31712D01*
X61783Y-31712D01*
X61783Y-32129D01*
X62200Y-32129D01*
X62200Y-54570D02*
X62200Y-54153D01*
X61783Y-54153D01*
X61783Y-54570D01*
X62200Y-54570D01*
X64700Y-12625D02*
X64700Y-12208D01*
X64283Y-12208D01*
X64283Y-12625D01*
X64700Y-12625D01*
X64700Y-23649D02*
X64700Y-23232D01*
X64283Y-23232D01*
X64283Y-23649D01*
X64700Y-23649D01*
X64700Y-31129D02*
X64700Y-30712D01*
X64283Y-30712D01*
X64283Y-31129D01*
X64700Y-31129D01*
X64700Y-53570D02*
X64700Y-53153D01*
X64283Y-53153D01*
X64283Y-53570D01*
X64700Y-53570D01*
X71649Y-13625D02*
X71649Y-13208D01*
X71232Y-13208D01*
X71232Y-13625D01*
X71649Y-13625D01*
X71649Y-24649D02*
X71649Y-24232D01*
X71232Y-24232D01*
X71232Y-24649D01*
X71649Y-24649D01*
X72584Y-54570D02*
X72584Y-54153D01*
X72167Y-54153D01*
X72167Y-54570D01*
X72584Y-54570D01*
X73519Y-32129D02*
X73519Y-31712D01*
X73102Y-31712D01*
X73102Y-32129D01*
X73519Y-32129D01*
X74149Y-12625D02*
X74149Y-12208D01*
X73732Y-12208D01*
X73732Y-12625D01*
X74149Y-12625D01*
X74149Y-23649D02*
X74149Y-23232D01*
X73732Y-23232D01*
X73732Y-23649D01*
X74149Y-23649D01*
X74454Y-39610D02*
X74454Y-39192D01*
X74037Y-39192D01*
X74037Y-39610D01*
X74454Y-39610D01*
X75084Y-53570D02*
X75084Y-53153D01*
X74667Y-53153D01*
X74667Y-53570D01*
X75084Y-53570D01*
X76019Y-31129D02*
X76019Y-30712D01*
X75602Y-30712D01*
X75602Y-31129D01*
X76019Y-31129D01*
X76324Y-47090D02*
X76324Y-46673D01*
X75907Y-46673D01*
X75907Y-47090D01*
X76324Y-47090D01*
X76954Y-38610D02*
X76954Y-38192D01*
X76537Y-38192D01*
X76537Y-38610D01*
X76954Y-38610D01*
X78824Y-46090D02*
X78824Y-45673D01*
X78407Y-45673D01*
X78407Y-46090D01*
X78824Y-46090D01*
X79129Y-24649D02*
X79129Y-24232D01*
X78712Y-24232D01*
X78712Y-24649D01*
X79129Y-24649D01*
X81629Y-23649D02*
X81629Y-23232D01*
X81212Y-23232D01*
X81212Y-23649D01*
X81629Y-23649D01*
X81934Y-54570D02*
X81934Y-54153D01*
X81517Y-54153D01*
X81517Y-54570D01*
X81934Y-54570D01*
X82870Y-32129D02*
X82870Y-31712D01*
X82452Y-31712D01*
X82452Y-32129D01*
X82870Y-32129D01*
X84434Y-53570D02*
X84434Y-53153D01*
X84017Y-53153D01*
X84017Y-53570D01*
X84434Y-53570D01*
X84740Y-39610D02*
X84740Y-39192D01*
X84322Y-39192D01*
X84322Y-39610D01*
X84740Y-39610D01*
X85370Y-31129D02*
X85370Y-30712D01*
X84952Y-30712D01*
X84952Y-31129D01*
X85370Y-31129D01*
X86610Y-13625D02*
X86610Y-13208D01*
X86192Y-13208D01*
X86192Y-13625D01*
X86610Y-13625D01*
X86610Y-24649D02*
X86610Y-24232D01*
X86192Y-24232D01*
X86192Y-24649D01*
X86610Y-24649D01*
X87240Y-38610D02*
X87240Y-38192D01*
X86822Y-38192D01*
X86822Y-38610D01*
X87240Y-38610D01*
X88480Y-47090D02*
X88480Y-46673D01*
X88063Y-46673D01*
X88063Y-47090D01*
X88480Y-47090D01*
X89110Y-12625D02*
X89110Y-12208D01*
X88692Y-12208D01*
X88692Y-12625D01*
X89110Y-12625D01*
X89110Y-23649D02*
X89110Y-23232D01*
X88692Y-23232D01*
X88692Y-23649D01*
X89110Y-23649D01*
X90350Y-32129D02*
X90350Y-31712D01*
X89933Y-31712D01*
X89933Y-32129D01*
X90350Y-32129D01*
X90980Y-46090D02*
X90980Y-45673D01*
X90563Y-45673D01*
X90563Y-46090D01*
X90980Y-46090D01*
X91285Y-54570D02*
X91285Y-54153D01*
X90868Y-54153D01*
X90868Y-54570D01*
X91285Y-54570D01*
X92220Y-39610D02*
X92220Y-39192D01*
X91803Y-39192D01*
X91803Y-39610D01*
X92220Y-39610D01*
X92850Y-31129D02*
X92850Y-30712D01*
X92433Y-30712D01*
X92433Y-31129D01*
X92850Y-31129D01*
X93785Y-53570D02*
X93785Y-53153D01*
X93368Y-53153D01*
X93368Y-53570D01*
X93785Y-53570D01*
X94090Y-13625D02*
X94090Y-13208D01*
X93673Y-13208D01*
X93673Y-13625D01*
X94090Y-13625D01*
X94090Y-24649D02*
X94090Y-24232D01*
X93673Y-24232D01*
X93673Y-24649D01*
X94090Y-24649D01*
X94720Y-38610D02*
X94720Y-38192D01*
X94303Y-38192D01*
X94303Y-38610D01*
X94720Y-38610D01*
X95960Y-47090D02*
X95960Y-46673D01*
X95543Y-46673D01*
X95543Y-47090D01*
X95960Y-47090D01*
X96590Y-12625D02*
X96590Y-12208D01*
X96173Y-12208D01*
X96173Y-12625D01*
X96590Y-12625D01*
X96590Y-23649D02*
X96590Y-23232D01*
X96173Y-23232D01*
X96173Y-23649D01*
X96590Y-23649D01*
X97830Y-32129D02*
X97830Y-31712D01*
X97413Y-31712D01*
X97413Y-32129D01*
X97830Y-32129D01*
X98460Y-46090D02*
X98460Y-45673D01*
X98043Y-45673D01*
X98043Y-46090D01*
X98460Y-46090D01*
X99700Y-39610D02*
X99700Y-39192D01*
X99283Y-39192D01*
X99283Y-39610D01*
X99700Y-39610D01*
X100330Y-31129D02*
X100330Y-30712D01*
X99913Y-30712D01*
X99913Y-31129D01*
X100330Y-31129D01*
X101570Y-13625D02*
X101570Y-13208D01*
X101153Y-13208D01*
X101153Y-13625D01*
X101570Y-13625D01*
X101570Y-24649D02*
X101570Y-24232D01*
X101153Y-24232D01*
X101153Y-24649D01*
X101570Y-24649D01*
X101570Y-54570D02*
X101570Y-54153D01*
X101153Y-54153D01*
X101153Y-54570D01*
X101570Y-54570D01*
X102200Y-38610D02*
X102200Y-38192D01*
X101783Y-38192D01*
X101783Y-38610D01*
X102200Y-38610D01*
X103440Y-47090D02*
X103440Y-46673D01*
X103023Y-46673D01*
X103023Y-47090D01*
X103440Y-47090D01*
X104070Y-12625D02*
X104070Y-12208D01*
X103653Y-12208D01*
X103653Y-12625D01*
X104070Y-12625D01*
X104070Y-23649D02*
X104070Y-23232D01*
X103653Y-23232D01*
X103653Y-23649D01*
X104070Y-23649D01*
X104070Y-53570D02*
X104070Y-53153D01*
X103653Y-53153D01*
X103653Y-53570D01*
X104070Y-53570D01*
X105310Y-32129D02*
X105310Y-31712D01*
X104893Y-31712D01*
X104893Y-32129D01*
X105310Y-32129D01*
X105940Y-46090D02*
X105940Y-45673D01*
X105523Y-45673D01*
X105523Y-46090D01*
X105940Y-46090D01*
X107181Y-39610D02*
X107181Y-39192D01*
X106763Y-39192D01*
X106763Y-39610D01*
X107181Y-39610D01*
X107810Y-31129D02*
X107810Y-30712D01*
X107393Y-30712D01*
X107393Y-31129D01*
X107810Y-31129D01*
X109051Y-13625D02*
X109051Y-13208D01*
X108633Y-13208D01*
X108633Y-13625D01*
X109051Y-13625D01*
X109051Y-24649D02*
X109051Y-24232D01*
X108633Y-24232D01*
X108633Y-24649D01*
X109051Y-24649D01*
X109681Y-38610D02*
X109681Y-38192D01*
X109263Y-38192D01*
X109263Y-38610D01*
X109681Y-38610D01*
X110921Y-47090D02*
X110921Y-46673D01*
X110504Y-46673D01*
X110504Y-47090D01*
X110921Y-47090D01*
X111551Y-12625D02*
X111551Y-12208D01*
X111133Y-12208D01*
X111133Y-12625D01*
X111551Y-12625D01*
X111551Y-23649D02*
X111551Y-23232D01*
X111133Y-23232D01*
X111133Y-23649D01*
X111551Y-23649D01*
X112791Y-32129D02*
X112791Y-31712D01*
X112374Y-31712D01*
X112374Y-32129D01*
X112791Y-32129D01*
X113421Y-46090D02*
X113421Y-45673D01*
X113004Y-45673D01*
X113004Y-46090D01*
X113421Y-46090D01*
X114661Y-39610D02*
X114661Y-39192D01*
X114244Y-39192D01*
X114244Y-39610D01*
X114661Y-39610D01*
X115291Y-31129D02*
X115291Y-30712D01*
X114874Y-30712D01*
X114874Y-31129D01*
X115291Y-31129D01*
X115596Y-54570D02*
X115596Y-54153D01*
X115179Y-54153D01*
X115179Y-54570D01*
X115596Y-54570D01*
X116531Y-13625D02*
X116531Y-13208D01*
X116114Y-13208D01*
X116114Y-13625D01*
X116531Y-13625D01*
X116531Y-24649D02*
X116531Y-24232D01*
X116114Y-24232D01*
X116114Y-24649D01*
X116531Y-24649D01*
X117161Y-38610D02*
X117161Y-38192D01*
X116744Y-38192D01*
X116744Y-38610D01*
X117161Y-38610D01*
X118096Y-53570D02*
X118096Y-53153D01*
X117679Y-53153D01*
X117679Y-53570D01*
X118096Y-53570D01*
X118401Y-47090D02*
X118401Y-46673D01*
X117984Y-46673D01*
X117984Y-47090D01*
X118401Y-47090D01*
X119031Y-12625D02*
X119031Y-12208D01*
X118614Y-12208D01*
X118614Y-12625D01*
X119031Y-12625D01*
X119031Y-23649D02*
X119031Y-23232D01*
X118614Y-23232D01*
X118614Y-23649D01*
X119031Y-23649D01*
X120901Y-46090D02*
X120901Y-45673D01*
X120484Y-45673D01*
X120484Y-46090D01*
X120901Y-46090D01*
X124011Y-32129D02*
X124011Y-31712D01*
X123594Y-31712D01*
X123594Y-32129D01*
X124011Y-32129D01*
X124946Y-39610D02*
X124946Y-39192D01*
X124529Y-39192D01*
X124529Y-39610D01*
X124946Y-39610D01*
X125881Y-24649D02*
X125881Y-24232D01*
X125464Y-24232D01*
X125464Y-24649D01*
X125881Y-24649D01*
X126511Y-31129D02*
X126511Y-30712D01*
X126094Y-30712D01*
X126094Y-31129D01*
X126511Y-31129D01*
X126816Y-47090D02*
X126816Y-46673D01*
X126399Y-46673D01*
X126399Y-47090D01*
X126816Y-47090D01*
X127446Y-38610D02*
X127446Y-38192D01*
X127029Y-38192D01*
X127029Y-38610D01*
X127446Y-38610D01*
X127751Y-13625D02*
X127751Y-13208D01*
X127334Y-13208D01*
X127334Y-13625D01*
X127751Y-13625D01*
X127751Y-54570D02*
X127751Y-54153D01*
X127334Y-54153D01*
X127334Y-54570D01*
X127751Y-54570D01*
X128381Y-23649D02*
X128381Y-23232D01*
X127964Y-23232D01*
X127964Y-23649D01*
X128381Y-23649D01*
X129316Y-46090D02*
X129316Y-45673D01*
X128899Y-45673D01*
X128899Y-46090D01*
X129316Y-46090D01*
X130251Y-12625D02*
X130251Y-12208D01*
X129834Y-12208D01*
X129834Y-12625D01*
X130251Y-12625D01*
X130251Y-53570D02*
X130251Y-53153D01*
X129834Y-53153D01*
X129834Y-53570D01*
X130251Y-53570D01*
X1377Y-1850D02*
X1850Y-1377D01*
X1377Y-905D01*
X905Y-1377D01*
X1377Y-1850D01*
X1377Y-58149D02*
X1850Y-57677D01*
X1377Y-57204D01*
X905Y-57677D01*
X1377Y-58149D01*
X67716Y-1850D02*
X68188Y-1377D01*
X67716Y-905D01*
X67244Y-1377D01*
X67716Y-1850D01*
X67716Y-37874D02*
X68188Y-37401D01*
X67716Y-36929D01*
X67244Y-37401D01*
X67716Y-37874D01*
X67716Y-58149D02*
X68188Y-57677D01*
X67716Y-57204D01*
X67244Y-57677D01*
X67716Y-58149D01*
X133858Y-1850D02*
X134330Y-1377D01*
X133858Y-905D01*
X133385Y-1377D01*
X133858Y-1850D01*
X133858Y-58149D02*
X134330Y-57677D01*
X133858Y-57204D01*
X133385Y-57677D01*
X133858Y-58149D01*
X24992Y-2352D02*
X26192Y-3552D01*
X26192Y-2352D02*
X24992Y-3552D01*
X26192Y-2952D02*
G75*
G03X26192Y-2952I-600J0D01*
G74*
G01*
X43492Y-2352D02*
X44692Y-3552D01*
X44692Y-2352D02*
X43492Y-3552D01*
X44692Y-2952D02*
G75*
G03X44692Y-2952I-600J0D01*
G74*
G01*
X12785Y-28375D02*
X13986Y-29576D01*
X13986Y-28375D02*
X12785Y-29576D01*
X13385Y-28375D02*
X13385Y-29576D01*
X12785Y-28976D02*
X13986Y-28976D01*
X12785Y-37746D02*
X13986Y-38946D01*
X13986Y-37746D02*
X12785Y-38946D01*
X13385Y-37746D02*
X13385Y-38946D01*
X12785Y-38346D02*
X13986Y-38346D01*
X12785Y-43336D02*
X13986Y-44537D01*
X13986Y-43336D02*
X12785Y-44537D01*
X13385Y-43336D02*
X13385Y-44537D01*
X12785Y-43937D02*
X13986Y-43937D01*
X12785Y-52706D02*
X13986Y-53907D01*
X13986Y-52706D02*
X12785Y-53907D01*
X13385Y-52706D02*
X13385Y-53907D01*
X12785Y-53307D02*
X13986Y-53307D01*
X29557Y-49005D02*
X30757Y-50206D01*
X30757Y-49005D02*
X29557Y-50206D01*
X30157Y-49005D02*
X30157Y-50206D01*
X29557Y-49606D02*
X30757Y-49606D01*
X38927Y-49005D02*
X40127Y-50206D01*
X40127Y-49005D02*
X38927Y-50206D01*
X39527Y-49005D02*
X39527Y-50206D01*
X38927Y-49606D02*
X40127Y-49606D01*
X71830Y-41525D02*
X73031Y-42726D01*
X73031Y-41525D02*
X71830Y-42726D01*
X72431Y-41525D02*
X72431Y-42726D01*
X71830Y-42125D02*
X73031Y-42125D01*
X81200Y-41525D02*
X82401Y-42726D01*
X82401Y-41525D02*
X81200Y-42726D01*
X81801Y-41525D02*
X81801Y-42726D01*
X81200Y-42125D02*
X82401Y-42125D01*
X111102Y-49005D02*
X112303Y-50206D01*
X112303Y-49005D02*
X111102Y-50206D01*
X111702Y-49005D02*
X111702Y-50206D01*
X111102Y-49606D02*
X112303Y-49606D01*
X119517Y-26564D02*
X120718Y-27765D01*
X120718Y-26564D02*
X119517Y-27765D01*
X120118Y-26564D02*
X120118Y-27765D01*
X119517Y-27165D02*
X120718Y-27165D01*
X120472Y-49005D02*
X121673Y-50206D01*
X121673Y-49005D02*
X120472Y-50206D01*
X121072Y-49005D02*
X121072Y-50206D01*
X120472Y-49606D02*
X121673Y-49606D01*
X128887Y-26564D02*
X130088Y-27765D01*
X130088Y-26564D02*
X128887Y-27765D01*
X129488Y-26564D02*
X129488Y-27765D01*
X128887Y-27165D02*
X130088Y-27165D01*
X5907Y-10632D02*
X7477Y-12202D01*
X7477Y-10632D02*
X5907Y-12202D01*
X7247Y-11972D02*
X7247Y-10862D01*
X6137Y-10862D01*
X6137Y-11972D01*
X7247Y-11972D01*
X5907Y-21655D02*
X7477Y-23225D01*
X7477Y-21655D02*
X5907Y-23225D01*
X7247Y-22996D02*
X7247Y-21885D01*
X6137Y-21885D01*
X6137Y-22996D01*
X7247Y-22996D01*
X5907Y-29136D02*
X7477Y-30706D01*
X7477Y-29136D02*
X5907Y-30706D01*
X7247Y-30476D02*
X7247Y-29366D01*
X6137Y-29366D01*
X6137Y-30476D01*
X7247Y-30476D01*
X5907Y-36616D02*
X7477Y-38186D01*
X7477Y-36616D02*
X5907Y-38186D01*
X7247Y-37956D02*
X7247Y-36846D01*
X6137Y-36846D01*
X6137Y-37956D01*
X7247Y-37956D01*
X5907Y-44096D02*
X7477Y-45666D01*
X7477Y-44096D02*
X5907Y-45666D01*
X7247Y-45436D02*
X7247Y-44326D01*
X6137Y-44326D01*
X6137Y-45436D01*
X7247Y-45436D01*
X5907Y-51577D02*
X7477Y-53147D01*
X7477Y-51577D02*
X5907Y-53147D01*
X7247Y-52917D02*
X7247Y-51807D01*
X6137Y-51807D01*
X6137Y-52917D01*
X7247Y-52917D01*
X15356Y-10632D02*
X16926Y-12202D01*
X16926Y-10632D02*
X15356Y-12202D01*
X16696Y-11972D02*
X16696Y-10862D01*
X15586Y-10862D01*
X15586Y-11972D01*
X16696Y-11972D01*
X15356Y-21655D02*
X16926Y-23225D01*
X16926Y-21655D02*
X15356Y-23225D01*
X16696Y-22996D02*
X16696Y-21885D01*
X15586Y-21885D01*
X15586Y-22996D01*
X16696Y-22996D01*
X15356Y-32876D02*
X16926Y-34446D01*
X16926Y-32876D02*
X15356Y-34446D01*
X16696Y-34216D02*
X16696Y-33106D01*
X15586Y-33106D01*
X15586Y-34216D01*
X16696Y-34216D01*
X15356Y-47837D02*
X16926Y-49407D01*
X16926Y-47837D02*
X15356Y-49407D01*
X16696Y-49177D02*
X16696Y-48066D01*
X15586Y-48066D01*
X15586Y-49177D01*
X16696Y-49177D01*
X22837Y-10632D02*
X24407Y-12202D01*
X24407Y-10632D02*
X22837Y-12202D01*
X24177Y-11972D02*
X24177Y-10862D01*
X23066Y-10862D01*
X23066Y-11972D01*
X24177Y-11972D01*
X22837Y-21655D02*
X24407Y-23225D01*
X24407Y-21655D02*
X22837Y-23225D01*
X24177Y-22996D02*
X24177Y-21885D01*
X23066Y-21885D01*
X23066Y-22996D01*
X24177Y-22996D01*
X22837Y-29136D02*
X24407Y-30706D01*
X24407Y-29136D02*
X22837Y-30706D01*
X24177Y-30476D02*
X24177Y-29366D01*
X23066Y-29366D01*
X23066Y-30476D01*
X24177Y-30476D01*
X22837Y-36616D02*
X24407Y-38186D01*
X24407Y-36616D02*
X22837Y-38186D01*
X24177Y-37956D02*
X24177Y-36846D01*
X23066Y-36846D01*
X23066Y-37956D01*
X24177Y-37956D01*
X22837Y-44096D02*
X24407Y-45666D01*
X24407Y-44096D02*
X22837Y-45666D01*
X24177Y-45436D02*
X24177Y-44326D01*
X23066Y-44326D01*
X23066Y-45436D01*
X24177Y-45436D01*
X22837Y-51577D02*
X24407Y-53147D01*
X24407Y-51577D02*
X22837Y-53147D01*
X24177Y-52917D02*
X24177Y-51807D01*
X23066Y-51807D01*
X23066Y-52917D01*
X24177Y-52917D01*
X30317Y-10632D02*
X31887Y-12202D01*
X31887Y-10632D02*
X30317Y-12202D01*
X31657Y-11972D02*
X31657Y-10862D01*
X30547Y-10862D01*
X30547Y-11972D01*
X31657Y-11972D01*
X30317Y-21655D02*
X31887Y-23225D01*
X31887Y-21655D02*
X30317Y-23225D01*
X31657Y-22996D02*
X31657Y-21885D01*
X30547Y-21885D01*
X30547Y-22996D01*
X31657Y-22996D01*
X30317Y-29136D02*
X31887Y-30706D01*
X31887Y-29136D02*
X30317Y-30706D01*
X31657Y-30476D02*
X31657Y-29366D01*
X30547Y-29366D01*
X30547Y-30476D01*
X31657Y-30476D01*
X30317Y-36616D02*
X31887Y-38186D01*
X31887Y-36616D02*
X30317Y-38186D01*
X31657Y-37956D02*
X31657Y-36846D01*
X30547Y-36846D01*
X30547Y-37956D01*
X31657Y-37956D01*
X30317Y-44096D02*
X31887Y-45666D01*
X31887Y-44096D02*
X30317Y-45666D01*
X31657Y-45436D02*
X31657Y-44326D01*
X30547Y-44326D01*
X30547Y-45436D01*
X31657Y-45436D01*
X34057Y-51577D02*
X35627Y-53147D01*
X35627Y-51577D02*
X34057Y-53147D01*
X35397Y-52917D02*
X35397Y-51807D01*
X34287Y-51807D01*
X34287Y-52917D01*
X35397Y-52917D01*
X37797Y-10632D02*
X39367Y-12202D01*
X39367Y-10632D02*
X37797Y-12202D01*
X39137Y-11972D02*
X39137Y-10862D01*
X38027Y-10862D01*
X38027Y-11972D01*
X39137Y-11972D01*
X37797Y-21655D02*
X39367Y-23225D01*
X39367Y-21655D02*
X37797Y-23225D01*
X39137Y-22996D02*
X39137Y-21885D01*
X38027Y-21885D01*
X38027Y-22996D01*
X39137Y-22996D01*
X37797Y-29136D02*
X39367Y-30706D01*
X39367Y-29136D02*
X37797Y-30706D01*
X39137Y-30476D02*
X39137Y-29366D01*
X38027Y-29366D01*
X38027Y-30476D01*
X39137Y-30476D01*
X37797Y-36616D02*
X39367Y-38186D01*
X39367Y-36616D02*
X37797Y-38186D01*
X39137Y-37956D02*
X39137Y-36846D01*
X38027Y-36846D01*
X38027Y-37956D01*
X39137Y-37956D01*
X37797Y-44096D02*
X39367Y-45666D01*
X39367Y-44096D02*
X37797Y-45666D01*
X39137Y-45436D02*
X39137Y-44326D01*
X38027Y-44326D01*
X38027Y-45436D01*
X39137Y-45436D01*
X47246Y-10632D02*
X48816Y-12202D01*
X48816Y-10632D02*
X47246Y-12202D01*
X48586Y-11972D02*
X48586Y-10862D01*
X47476Y-10862D01*
X47476Y-11972D01*
X48586Y-11972D01*
X47246Y-21655D02*
X48816Y-23225D01*
X48816Y-21655D02*
X47246Y-23225D01*
X48586Y-22996D02*
X48586Y-21885D01*
X47476Y-21885D01*
X47476Y-22996D01*
X48586Y-22996D01*
X47246Y-29136D02*
X48816Y-30706D01*
X48816Y-29136D02*
X47246Y-30706D01*
X48586Y-30476D02*
X48586Y-29366D01*
X47476Y-29366D01*
X47476Y-30476D01*
X48586Y-30476D01*
X47246Y-51577D02*
X48816Y-53147D01*
X48816Y-51577D02*
X47246Y-53147D01*
X48586Y-52917D02*
X48586Y-51807D01*
X47476Y-51807D01*
X47476Y-52917D01*
X48586Y-52917D01*
X54726Y-10632D02*
X56296Y-12202D01*
X56296Y-10632D02*
X54726Y-12202D01*
X56066Y-11972D02*
X56066Y-10862D01*
X54956Y-10862D01*
X54956Y-11972D01*
X56066Y-11972D01*
X54726Y-21655D02*
X56296Y-23225D01*
X56296Y-21655D02*
X54726Y-23225D01*
X56066Y-22996D02*
X56066Y-21885D01*
X54956Y-21885D01*
X54956Y-22996D01*
X56066Y-22996D01*
X54726Y-29136D02*
X56296Y-30706D01*
X56296Y-29136D02*
X54726Y-30706D01*
X56066Y-30476D02*
X56066Y-29366D01*
X54956Y-29366D01*
X54956Y-30476D01*
X56066Y-30476D01*
X54726Y-44096D02*
X56296Y-45666D01*
X56296Y-44096D02*
X54726Y-45666D01*
X56066Y-45436D02*
X56066Y-44326D01*
X54956Y-44326D01*
X54956Y-45436D01*
X56066Y-45436D01*
X54726Y-51577D02*
X56296Y-53147D01*
X56296Y-51577D02*
X54726Y-53147D01*
X56066Y-52917D02*
X56066Y-51807D01*
X54956Y-51807D01*
X54956Y-52917D01*
X56066Y-52917D01*
X62207Y-10632D02*
X63777Y-12202D01*
X63777Y-10632D02*
X62207Y-12202D01*
X63547Y-11972D02*
X63547Y-10862D01*
X62437Y-10862D01*
X62437Y-11972D01*
X63547Y-11972D01*
X62207Y-21655D02*
X63777Y-23225D01*
X63777Y-21655D02*
X62207Y-23225D01*
X63547Y-22996D02*
X63547Y-21885D01*
X62437Y-21885D01*
X62437Y-22996D01*
X63547Y-22996D01*
X62207Y-29136D02*
X63777Y-30706D01*
X63777Y-29136D02*
X62207Y-30706D01*
X63547Y-30476D02*
X63547Y-29366D01*
X62437Y-29366D01*
X62437Y-30476D01*
X63547Y-30476D01*
X62207Y-51577D02*
X63777Y-53147D01*
X63777Y-51577D02*
X62207Y-53147D01*
X63547Y-52917D02*
X63547Y-51807D01*
X62437Y-51807D01*
X62437Y-52917D01*
X63547Y-52917D01*
X71655Y-10632D02*
X73225Y-12202D01*
X73225Y-10632D02*
X71655Y-12202D01*
X72996Y-11972D02*
X72996Y-10862D01*
X71885Y-10862D01*
X71885Y-11972D01*
X72996Y-11972D01*
X71655Y-21655D02*
X73225Y-23225D01*
X73225Y-21655D02*
X71655Y-23225D01*
X72996Y-22996D02*
X72996Y-21885D01*
X71885Y-21885D01*
X71885Y-22996D01*
X72996Y-22996D01*
X72590Y-51577D02*
X74160Y-53147D01*
X74160Y-51577D02*
X72590Y-53147D01*
X73931Y-52917D02*
X73931Y-51807D01*
X72820Y-51807D01*
X72820Y-52917D01*
X73931Y-52917D01*
X73526Y-29136D02*
X75096Y-30706D01*
X75096Y-29136D02*
X73526Y-30706D01*
X74866Y-30476D02*
X74866Y-29366D01*
X73755Y-29366D01*
X73755Y-30476D01*
X74866Y-30476D01*
X74461Y-36616D02*
X76031Y-38186D01*
X76031Y-36616D02*
X74461Y-38186D01*
X75801Y-37956D02*
X75801Y-36846D01*
X74690Y-36846D01*
X74690Y-37956D01*
X75801Y-37956D01*
X76331Y-44096D02*
X77901Y-45666D01*
X77901Y-44096D02*
X76331Y-45666D01*
X77671Y-45436D02*
X77671Y-44326D01*
X76561Y-44326D01*
X76561Y-45436D01*
X77671Y-45436D01*
X79136Y-21655D02*
X80706Y-23225D01*
X80706Y-21655D02*
X79136Y-23225D01*
X80476Y-22996D02*
X80476Y-21885D01*
X79366Y-21885D01*
X79366Y-22996D01*
X80476Y-22996D01*
X81941Y-51577D02*
X83511Y-53147D01*
X83511Y-51577D02*
X81941Y-53147D01*
X83281Y-52917D02*
X83281Y-51807D01*
X82171Y-51807D01*
X82171Y-52917D01*
X83281Y-52917D01*
X82876Y-29136D02*
X84446Y-30706D01*
X84446Y-29136D02*
X82876Y-30706D01*
X84216Y-30476D02*
X84216Y-29366D01*
X83106Y-29366D01*
X83106Y-30476D01*
X84216Y-30476D01*
X84746Y-36616D02*
X86316Y-38186D01*
X86316Y-36616D02*
X84746Y-38186D01*
X86086Y-37956D02*
X86086Y-36846D01*
X84976Y-36846D01*
X84976Y-37956D01*
X86086Y-37956D01*
X86616Y-10632D02*
X88186Y-12202D01*
X88186Y-10632D02*
X86616Y-12202D01*
X87956Y-11972D02*
X87956Y-10862D01*
X86846Y-10862D01*
X86846Y-11972D01*
X87956Y-11972D01*
X86616Y-21655D02*
X88186Y-23225D01*
X88186Y-21655D02*
X86616Y-23225D01*
X87956Y-22996D02*
X87956Y-21885D01*
X86846Y-21885D01*
X86846Y-22996D01*
X87956Y-22996D01*
X88486Y-44096D02*
X90056Y-45666D01*
X90056Y-44096D02*
X88486Y-45666D01*
X89826Y-45436D02*
X89826Y-44326D01*
X88716Y-44326D01*
X88716Y-45436D01*
X89826Y-45436D01*
X90356Y-29136D02*
X91926Y-30706D01*
X91926Y-29136D02*
X90356Y-30706D01*
X91696Y-30476D02*
X91696Y-29366D01*
X90586Y-29366D01*
X90586Y-30476D01*
X91696Y-30476D01*
X91291Y-51577D02*
X92861Y-53147D01*
X92861Y-51577D02*
X91291Y-53147D01*
X92631Y-52917D02*
X92631Y-51807D01*
X91521Y-51807D01*
X91521Y-52917D01*
X92631Y-52917D01*
X92226Y-36616D02*
X93796Y-38186D01*
X93796Y-36616D02*
X92226Y-38186D01*
X93566Y-37956D02*
X93566Y-36846D01*
X92456Y-36846D01*
X92456Y-37956D01*
X93566Y-37956D01*
X94096Y-10632D02*
X95666Y-12202D01*
X95666Y-10632D02*
X94096Y-12202D01*
X95436Y-11972D02*
X95436Y-10862D01*
X94326Y-10862D01*
X94326Y-11972D01*
X95436Y-11972D01*
X94096Y-21655D02*
X95666Y-23225D01*
X95666Y-21655D02*
X94096Y-23225D01*
X95436Y-22996D02*
X95436Y-21885D01*
X94326Y-21885D01*
X94326Y-22996D01*
X95436Y-22996D01*
X95966Y-44096D02*
X97536Y-45666D01*
X97536Y-44096D02*
X95966Y-45666D01*
X97307Y-45436D02*
X97307Y-44326D01*
X96196Y-44326D01*
X96196Y-45436D01*
X97307Y-45436D01*
X97837Y-29136D02*
X99407Y-30706D01*
X99407Y-29136D02*
X97837Y-30706D01*
X99177Y-30476D02*
X99177Y-29366D01*
X98066Y-29366D01*
X98066Y-30476D01*
X99177Y-30476D01*
X99707Y-36616D02*
X101277Y-38186D01*
X101277Y-36616D02*
X99707Y-38186D01*
X101047Y-37956D02*
X101047Y-36846D01*
X99937Y-36846D01*
X99937Y-37956D01*
X101047Y-37956D01*
X101577Y-10632D02*
X103147Y-12202D01*
X103147Y-10632D02*
X101577Y-12202D01*
X102917Y-11972D02*
X102917Y-10862D01*
X101807Y-10862D01*
X101807Y-11972D01*
X102917Y-11972D01*
X101577Y-21655D02*
X103147Y-23225D01*
X103147Y-21655D02*
X101577Y-23225D01*
X102917Y-22996D02*
X102917Y-21885D01*
X101807Y-21885D01*
X101807Y-22996D01*
X102917Y-22996D01*
X101577Y-51577D02*
X103147Y-53147D01*
X103147Y-51577D02*
X101577Y-53147D01*
X102917Y-52917D02*
X102917Y-51807D01*
X101807Y-51807D01*
X101807Y-52917D01*
X102917Y-52917D01*
X103447Y-44096D02*
X105017Y-45666D01*
X105017Y-44096D02*
X103447Y-45666D01*
X104787Y-45436D02*
X104787Y-44326D01*
X103677Y-44326D01*
X103677Y-45436D01*
X104787Y-45436D01*
X105317Y-29136D02*
X106887Y-30706D01*
X106887Y-29136D02*
X105317Y-30706D01*
X106657Y-30476D02*
X106657Y-29366D01*
X105547Y-29366D01*
X105547Y-30476D01*
X106657Y-30476D01*
X107187Y-36616D02*
X108757Y-38186D01*
X108757Y-36616D02*
X107187Y-38186D01*
X108527Y-37956D02*
X108527Y-36846D01*
X107417Y-36846D01*
X107417Y-37956D01*
X108527Y-37956D01*
X109057Y-10632D02*
X110627Y-12202D01*
X110627Y-10632D02*
X109057Y-12202D01*
X110397Y-11972D02*
X110397Y-10862D01*
X109287Y-10862D01*
X109287Y-11972D01*
X110397Y-11972D01*
X109057Y-21655D02*
X110627Y-23225D01*
X110627Y-21655D02*
X109057Y-23225D01*
X110397Y-22996D02*
X110397Y-21885D01*
X109287Y-21885D01*
X109287Y-22996D01*
X110397Y-22996D01*
X110927Y-44096D02*
X112497Y-45666D01*
X112497Y-44096D02*
X110927Y-45666D01*
X112267Y-45436D02*
X112267Y-44326D01*
X111157Y-44326D01*
X111157Y-45436D01*
X112267Y-45436D01*
X112797Y-29136D02*
X114367Y-30706D01*
X114367Y-29136D02*
X112797Y-30706D01*
X114137Y-30476D02*
X114137Y-29366D01*
X113027Y-29366D01*
X113027Y-30476D01*
X114137Y-30476D01*
X114667Y-36616D02*
X116237Y-38186D01*
X116237Y-36616D02*
X114667Y-38186D01*
X116007Y-37956D02*
X116007Y-36846D01*
X114897Y-36846D01*
X114897Y-37956D01*
X116007Y-37956D01*
X115602Y-51577D02*
X117172Y-53147D01*
X117172Y-51577D02*
X115602Y-53147D01*
X116942Y-52917D02*
X116942Y-51807D01*
X115832Y-51807D01*
X115832Y-52917D01*
X116942Y-52917D01*
X116537Y-10632D02*
X118107Y-12202D01*
X118107Y-10632D02*
X116537Y-12202D01*
X117877Y-11972D02*
X117877Y-10862D01*
X116767Y-10862D01*
X116767Y-11972D01*
X117877Y-11972D01*
X116537Y-21655D02*
X118107Y-23225D01*
X118107Y-21655D02*
X116537Y-23225D01*
X117877Y-22996D02*
X117877Y-21885D01*
X116767Y-21885D01*
X116767Y-22996D01*
X117877Y-22996D01*
X118407Y-44096D02*
X119977Y-45666D01*
X119977Y-44096D02*
X118407Y-45666D01*
X119747Y-45436D02*
X119747Y-44326D01*
X118637Y-44326D01*
X118637Y-45436D01*
X119747Y-45436D01*
X124018Y-29136D02*
X125588Y-30706D01*
X125588Y-29136D02*
X124018Y-30706D01*
X125358Y-30476D02*
X125358Y-29366D01*
X124248Y-29366D01*
X124248Y-30476D01*
X125358Y-30476D01*
X124953Y-36616D02*
X126523Y-38186D01*
X126523Y-36616D02*
X124953Y-38186D01*
X126293Y-37956D02*
X126293Y-36846D01*
X125183Y-36846D01*
X125183Y-37956D01*
X126293Y-37956D01*
X125888Y-21655D02*
X127458Y-23225D01*
X127458Y-21655D02*
X125888Y-23225D01*
X127228Y-22996D02*
X127228Y-21885D01*
X126118Y-21885D01*
X126118Y-22996D01*
X127228Y-22996D01*
X126823Y-44096D02*
X128393Y-45666D01*
X128393Y-44096D02*
X126823Y-45666D01*
X128163Y-45436D02*
X128163Y-44326D01*
X127053Y-44326D01*
X127053Y-45436D01*
X128163Y-45436D01*
X127758Y-10632D02*
X129328Y-12202D01*
X129328Y-10632D02*
X127758Y-12202D01*
X129098Y-11972D02*
X129098Y-10862D01*
X127988Y-10862D01*
X127988Y-11972D01*
X129098Y-11972D01*
X127758Y-51577D02*
X129328Y-53147D01*
X129328Y-51577D02*
X127758Y-53147D01*
X129098Y-52917D02*
X129098Y-51807D01*
X127988Y-51807D01*
X127988Y-52917D01*
X129098Y-52917D01*
X18598Y-28188D02*
X20173Y-29763D01*
X20173Y-28188D02*
X18598Y-29763D01*
X19385Y-29763D02*
X20173Y-28976D01*
X19385Y-28188D01*
X18598Y-28976D01*
X19385Y-29763D01*
X18598Y-37559D02*
X20173Y-39133D01*
X20173Y-37559D02*
X18598Y-39133D01*
X19385Y-39133D02*
X20173Y-38346D01*
X19385Y-37559D01*
X18598Y-38346D01*
X19385Y-39133D01*
X18598Y-43149D02*
X20173Y-44724D01*
X20173Y-43149D02*
X18598Y-44724D01*
X19385Y-44724D02*
X20173Y-43937D01*
X19385Y-43149D01*
X18598Y-43937D01*
X19385Y-44724D01*
X18598Y-52519D02*
X20173Y-54094D01*
X20173Y-52519D02*
X18598Y-54094D01*
X19385Y-54094D02*
X20173Y-53307D01*
X19385Y-52519D01*
X18598Y-53307D01*
X19385Y-54094D01*
X29370Y-54818D02*
X30944Y-56393D01*
X30944Y-54818D02*
X29370Y-56393D01*
X30157Y-56393D02*
X30944Y-55606D01*
X30157Y-54818D01*
X29370Y-55606D01*
X30157Y-56393D01*
X38740Y-54818D02*
X40314Y-56393D01*
X40314Y-54818D02*
X38740Y-56393D01*
X39527Y-56393D02*
X40314Y-55606D01*
X39527Y-54818D01*
X38740Y-55606D01*
X39527Y-56393D01*
X71643Y-47338D02*
X73218Y-48913D01*
X73218Y-47338D02*
X71643Y-48913D01*
X72431Y-48913D02*
X73218Y-48125D01*
X72431Y-47338D01*
X71643Y-48125D01*
X72431Y-48913D01*
X81013Y-47338D02*
X82588Y-48913D01*
X82588Y-47338D02*
X81013Y-48913D01*
X81801Y-48913D02*
X82588Y-48125D01*
X81801Y-47338D01*
X81013Y-48125D01*
X81801Y-48913D01*
X110915Y-54818D02*
X112490Y-56393D01*
X112490Y-54818D02*
X110915Y-56393D01*
X111702Y-56393D02*
X112490Y-55606D01*
X111702Y-54818D01*
X110915Y-55606D01*
X111702Y-56393D01*
X119330Y-32377D02*
X120905Y-33952D01*
X120905Y-32377D02*
X119330Y-33952D01*
X120118Y-33952D02*
X120905Y-33165D01*
X120118Y-32377D01*
X119330Y-33165D01*
X120118Y-33952D01*
X120285Y-54818D02*
X121860Y-56393D01*
X121860Y-54818D02*
X120285Y-56393D01*
X121072Y-56393D02*
X121860Y-55606D01*
X121072Y-54818D01*
X120285Y-55606D01*
X121072Y-56393D01*
X128700Y-32377D02*
X130275Y-33952D01*
X130275Y-32377D02*
X128700Y-33952D01*
X129488Y-33952D02*
X130275Y-33165D01*
X129488Y-32377D01*
X128700Y-33165D01*
X129488Y-33952D01*
G54D13*
X1048Y-60852D02*
X1048Y-59670D01*
X1330Y-59670D01*
X1498Y-59727D01*
X1611Y-59839D01*
X1667Y-59952D01*
X1723Y-60177D01*
X1723Y-60345D01*
X1667Y-60570D01*
X1611Y-60683D01*
X1498Y-60795D01*
X1330Y-60852D01*
X1048Y-60852D01*
X2230Y-60852D02*
X2230Y-60064D01*
X2230Y-60289D02*
X2286Y-60177D01*
X2342Y-60120D01*
X2455Y-60064D01*
X2567Y-60064D01*
X2961Y-60852D02*
X2961Y-60064D01*
X2961Y-59670D02*
X2904Y-59727D01*
X2961Y-59783D01*
X3017Y-59727D01*
X2961Y-59670D01*
X2961Y-59783D01*
X3692Y-60852D02*
X3579Y-60795D01*
X3523Y-60683D01*
X3523Y-59670D01*
X4311Y-60852D02*
X4198Y-60795D01*
X4142Y-60683D01*
X4142Y-59670D01*
X5660Y-60852D02*
X5660Y-59670D01*
X6054Y-60514D01*
X6448Y-59670D01*
X6448Y-60852D01*
X7516Y-60852D02*
X7516Y-60233D01*
X7460Y-60120D01*
X7348Y-60064D01*
X7123Y-60064D01*
X7010Y-60120D01*
X7516Y-60795D02*
X7404Y-60852D01*
X7123Y-60852D01*
X7010Y-60795D01*
X6954Y-60683D01*
X6954Y-60570D01*
X7010Y-60458D01*
X7123Y-60402D01*
X7404Y-60402D01*
X7516Y-60345D01*
X8079Y-60064D02*
X8079Y-61245D01*
X8079Y-60120D02*
X8191Y-60064D01*
X8416Y-60064D01*
X8529Y-60120D01*
X8585Y-60177D01*
X8641Y-60289D01*
X8641Y-60627D01*
X8585Y-60739D01*
X8529Y-60795D01*
X8416Y-60852D01*
X8191Y-60852D01*
X8079Y-60795D01*
X9147Y-60739D02*
X9204Y-60795D01*
X9147Y-60852D01*
X9091Y-60795D01*
X9147Y-60739D01*
X9147Y-60852D01*
X9147Y-60120D02*
X9204Y-60177D01*
X9147Y-60233D01*
X9091Y-60177D01*
X9147Y-60120D01*
X9147Y-60233D01*
X-269Y-62729D02*
X-19Y-62979D01*
X-19Y-62729D02*
X-269Y-62979D01*
X1273Y-62151D02*
X1386Y-62151D01*
X1498Y-62207D01*
X1555Y-62263D01*
X1611Y-62376D01*
X1667Y-62601D01*
X1667Y-62882D01*
X1611Y-63107D01*
X1555Y-63219D01*
X1498Y-63276D01*
X1386Y-63332D01*
X1273Y-63332D01*
X1161Y-63276D01*
X1105Y-63219D01*
X1048Y-63107D01*
X992Y-62882D01*
X992Y-62601D01*
X1048Y-62376D01*
X1105Y-62263D01*
X1161Y-62207D01*
X1273Y-62151D01*
X2173Y-63219D02*
X2230Y-63276D01*
X2173Y-63332D01*
X2117Y-63276D01*
X2173Y-63219D01*
X2173Y-63332D01*
X3242Y-62151D02*
X3017Y-62151D01*
X2904Y-62207D01*
X2848Y-62263D01*
X2736Y-62432D01*
X2679Y-62657D01*
X2679Y-63107D01*
X2736Y-63219D01*
X2792Y-63276D01*
X2904Y-63332D01*
X3129Y-63332D01*
X3242Y-63276D01*
X3298Y-63219D01*
X3354Y-63107D01*
X3354Y-62826D01*
X3298Y-62713D01*
X3242Y-62657D01*
X3129Y-62601D01*
X2904Y-62601D01*
X2792Y-62657D01*
X2736Y-62713D01*
X2679Y-62826D01*
X4367Y-62544D02*
X4367Y-63332D01*
X4086Y-62095D02*
X3804Y-62938D01*
X4535Y-62938D01*
X4985Y-63332D02*
X4985Y-62544D01*
X4985Y-62657D02*
X5042Y-62601D01*
X5154Y-62544D01*
X5323Y-62544D01*
X5435Y-62601D01*
X5492Y-62713D01*
X5492Y-63332D01*
X5492Y-62713D02*
X5548Y-62601D01*
X5660Y-62544D01*
X5829Y-62544D01*
X5942Y-62601D01*
X5998Y-62713D01*
X5998Y-63332D01*
X6560Y-63332D02*
X6560Y-62544D01*
X6560Y-62657D02*
X6616Y-62601D01*
X6729Y-62544D01*
X6898Y-62544D01*
X7010Y-62601D01*
X7066Y-62713D01*
X7066Y-63332D01*
X7066Y-62713D02*
X7123Y-62601D01*
X7235Y-62544D01*
X7404Y-62544D01*
X7516Y-62601D01*
X7573Y-62713D01*
X7573Y-63332D01*
X9879Y-62095D02*
X8866Y-63613D01*
X11397Y-62151D02*
X11510Y-62151D01*
X11622Y-62207D01*
X11678Y-62263D01*
X11735Y-62376D01*
X11791Y-62601D01*
X11791Y-62882D01*
X11735Y-63107D01*
X11678Y-63219D01*
X11622Y-63276D01*
X11510Y-63332D01*
X11397Y-63332D01*
X11285Y-63276D01*
X11228Y-63219D01*
X11172Y-63107D01*
X11116Y-62882D01*
X11116Y-62601D01*
X11172Y-62376D01*
X11228Y-62263D01*
X11285Y-62207D01*
X11397Y-62151D01*
X12297Y-63219D02*
X12353Y-63276D01*
X12297Y-63332D01*
X12241Y-63276D01*
X12297Y-63219D01*
X12297Y-63332D01*
X13084Y-62151D02*
X13197Y-62151D01*
X13309Y-62207D01*
X13366Y-62263D01*
X13422Y-62376D01*
X13478Y-62601D01*
X13478Y-62882D01*
X13422Y-63107D01*
X13366Y-63219D01*
X13309Y-63276D01*
X13197Y-63332D01*
X13084Y-63332D01*
X12972Y-63276D01*
X12916Y-63219D01*
X12859Y-63107D01*
X12803Y-62882D01*
X12803Y-62601D01*
X12859Y-62376D01*
X12916Y-62263D01*
X12972Y-62207D01*
X13084Y-62151D01*
X13928Y-62263D02*
X13984Y-62207D01*
X14097Y-62151D01*
X14378Y-62151D01*
X14491Y-62207D01*
X14547Y-62263D01*
X14603Y-62376D01*
X14603Y-62488D01*
X14547Y-62657D01*
X13872Y-63332D01*
X14603Y-63332D01*
X15672Y-62151D02*
X15109Y-62151D01*
X15053Y-62713D01*
X15109Y-62657D01*
X15222Y-62601D01*
X15503Y-62601D01*
X15615Y-62657D01*
X15672Y-62713D01*
X15728Y-62826D01*
X15728Y-63107D01*
X15672Y-63219D01*
X15615Y-63276D01*
X15503Y-63332D01*
X15222Y-63332D01*
X15109Y-63276D01*
X15053Y-63219D01*
X16178Y-62151D02*
X16178Y-62376D01*
X16628Y-62151D02*
X16628Y-62376D01*
X18371Y-63782D02*
X18315Y-63726D01*
X18203Y-63557D01*
X18146Y-63444D01*
X18090Y-63276D01*
X18034Y-62994D01*
X18034Y-62769D01*
X18090Y-62488D01*
X18146Y-62320D01*
X18203Y-62207D01*
X18315Y-62038D01*
X18371Y-61982D01*
X18990Y-62657D02*
X18877Y-62601D01*
X18821Y-62544D01*
X18765Y-62432D01*
X18765Y-62376D01*
X18821Y-62263D01*
X18877Y-62207D01*
X18990Y-62151D01*
X19215Y-62151D01*
X19327Y-62207D01*
X19384Y-62263D01*
X19440Y-62376D01*
X19440Y-62432D01*
X19384Y-62544D01*
X19327Y-62601D01*
X19215Y-62657D01*
X18990Y-62657D01*
X18877Y-62713D01*
X18821Y-62769D01*
X18765Y-62882D01*
X18765Y-63107D01*
X18821Y-63219D01*
X18877Y-63276D01*
X18990Y-63332D01*
X19215Y-63332D01*
X19327Y-63276D01*
X19384Y-63219D01*
X19440Y-63107D01*
X19440Y-62882D01*
X19384Y-62769D01*
X19327Y-62713D01*
X19215Y-62657D01*
X19890Y-62263D02*
X19946Y-62207D01*
X20059Y-62151D01*
X20340Y-62151D01*
X20452Y-62207D01*
X20508Y-62263D01*
X20565Y-62376D01*
X20565Y-62488D01*
X20508Y-62657D01*
X19834Y-63332D01*
X20565Y-63332D01*
X21971Y-63332D02*
X21971Y-62151D01*
X22477Y-63332D02*
X22477Y-62713D01*
X22421Y-62601D01*
X22308Y-62544D01*
X22140Y-62544D01*
X22027Y-62601D01*
X21971Y-62657D01*
X23208Y-63332D02*
X23096Y-63276D01*
X23039Y-63219D01*
X22983Y-63107D01*
X22983Y-62769D01*
X23039Y-62657D01*
X23096Y-62601D01*
X23208Y-62544D01*
X23377Y-62544D01*
X23489Y-62601D01*
X23546Y-62657D01*
X23602Y-62769D01*
X23602Y-63107D01*
X23546Y-63219D01*
X23489Y-63276D01*
X23377Y-63332D01*
X23208Y-63332D01*
X24277Y-63332D02*
X24164Y-63276D01*
X24108Y-63163D01*
X24108Y-62151D01*
X25177Y-63276D02*
X25064Y-63332D01*
X24839Y-63332D01*
X24727Y-63276D01*
X24670Y-63163D01*
X24670Y-62713D01*
X24727Y-62601D01*
X24839Y-62544D01*
X25064Y-62544D01*
X25177Y-62601D01*
X25233Y-62713D01*
X25233Y-62826D01*
X24670Y-62938D01*
X25683Y-63276D02*
X25795Y-63332D01*
X26020Y-63332D01*
X26133Y-63276D01*
X26189Y-63163D01*
X26189Y-63107D01*
X26133Y-62994D01*
X26020Y-62938D01*
X25852Y-62938D01*
X25739Y-62882D01*
X25683Y-62769D01*
X25683Y-62713D01*
X25739Y-62601D01*
X25852Y-62544D01*
X26020Y-62544D01*
X26133Y-62601D01*
X26583Y-63782D02*
X26639Y-63726D01*
X26751Y-63557D01*
X26808Y-63444D01*
X26864Y-63276D01*
X26920Y-62994D01*
X26920Y-62769D01*
X26864Y-62488D01*
X26808Y-62320D01*
X26751Y-62207D01*
X26639Y-62038D01*
X26583Y-61982D01*
G54D12*
X-19Y-64413D02*
G75*
G03X-19Y-64413I-195J0D01*
G74*
G01*
G54D13*
X1273Y-63710D02*
X1386Y-63710D01*
X1498Y-63766D01*
X1555Y-63822D01*
X1611Y-63935D01*
X1667Y-64160D01*
X1667Y-64441D01*
X1611Y-64666D01*
X1555Y-64778D01*
X1498Y-64835D01*
X1386Y-64891D01*
X1273Y-64891D01*
X1161Y-64835D01*
X1105Y-64778D01*
X1048Y-64666D01*
X992Y-64441D01*
X992Y-64160D01*
X1048Y-63935D01*
X1105Y-63822D01*
X1161Y-63766D01*
X1273Y-63710D01*
X2173Y-64778D02*
X2230Y-64835D01*
X2173Y-64891D01*
X2117Y-64835D01*
X2173Y-64778D01*
X2173Y-64891D01*
X2792Y-64891D02*
X3017Y-64891D01*
X3129Y-64835D01*
X3186Y-64778D01*
X3298Y-64610D01*
X3354Y-64385D01*
X3354Y-63935D01*
X3298Y-63822D01*
X3242Y-63766D01*
X3129Y-63710D01*
X2904Y-63710D01*
X2792Y-63766D01*
X2736Y-63822D01*
X2679Y-63935D01*
X2679Y-64216D01*
X2736Y-64329D01*
X2792Y-64385D01*
X2904Y-64441D01*
X3129Y-64441D01*
X3242Y-64385D01*
X3298Y-64329D01*
X3354Y-64216D01*
X3917Y-64891D02*
X4142Y-64891D01*
X4254Y-64835D01*
X4311Y-64778D01*
X4423Y-64610D01*
X4479Y-64385D01*
X4479Y-63935D01*
X4423Y-63822D01*
X4367Y-63766D01*
X4254Y-63710D01*
X4029Y-63710D01*
X3917Y-63766D01*
X3861Y-63822D01*
X3804Y-63935D01*
X3804Y-64216D01*
X3861Y-64329D01*
X3917Y-64385D01*
X4029Y-64441D01*
X4254Y-64441D01*
X4367Y-64385D01*
X4423Y-64329D01*
X4479Y-64216D01*
X4985Y-64891D02*
X4985Y-64104D01*
X4985Y-64216D02*
X5042Y-64160D01*
X5154Y-64104D01*
X5323Y-64104D01*
X5435Y-64160D01*
X5492Y-64272D01*
X5492Y-64891D01*
X5492Y-64272D02*
X5548Y-64160D01*
X5660Y-64104D01*
X5829Y-64104D01*
X5942Y-64160D01*
X5998Y-64272D01*
X5998Y-64891D01*
X6560Y-64891D02*
X6560Y-64104D01*
X6560Y-64216D02*
X6616Y-64160D01*
X6729Y-64104D01*
X6898Y-64104D01*
X7010Y-64160D01*
X7066Y-64272D01*
X7066Y-64891D01*
X7066Y-64272D02*
X7123Y-64160D01*
X7235Y-64104D01*
X7404Y-64104D01*
X7516Y-64160D01*
X7573Y-64272D01*
X7573Y-64891D01*
X9879Y-63654D02*
X8866Y-65172D01*
X11397Y-63710D02*
X11510Y-63710D01*
X11622Y-63766D01*
X11678Y-63822D01*
X11735Y-63935D01*
X11791Y-64160D01*
X11791Y-64441D01*
X11735Y-64666D01*
X11678Y-64778D01*
X11622Y-64835D01*
X11510Y-64891D01*
X11397Y-64891D01*
X11285Y-64835D01*
X11228Y-64778D01*
X11172Y-64666D01*
X11116Y-64441D01*
X11116Y-64160D01*
X11172Y-63935D01*
X11228Y-63822D01*
X11285Y-63766D01*
X11397Y-63710D01*
X12297Y-64778D02*
X12353Y-64835D01*
X12297Y-64891D01*
X12241Y-64835D01*
X12297Y-64778D01*
X12297Y-64891D01*
X13084Y-63710D02*
X13197Y-63710D01*
X13309Y-63766D01*
X13366Y-63822D01*
X13422Y-63935D01*
X13478Y-64160D01*
X13478Y-64441D01*
X13422Y-64666D01*
X13366Y-64778D01*
X13309Y-64835D01*
X13197Y-64891D01*
X13084Y-64891D01*
X12972Y-64835D01*
X12916Y-64778D01*
X12859Y-64666D01*
X12803Y-64441D01*
X12803Y-64160D01*
X12859Y-63935D01*
X12916Y-63822D01*
X12972Y-63766D01*
X13084Y-63710D01*
X13872Y-63710D02*
X14603Y-63710D01*
X14209Y-64160D01*
X14378Y-64160D01*
X14491Y-64216D01*
X14547Y-64272D01*
X14603Y-64385D01*
X14603Y-64666D01*
X14547Y-64778D01*
X14491Y-64835D01*
X14378Y-64891D01*
X14041Y-64891D01*
X13928Y-64835D01*
X13872Y-64778D01*
X15165Y-64891D02*
X15390Y-64891D01*
X15503Y-64835D01*
X15559Y-64778D01*
X15672Y-64610D01*
X15728Y-64385D01*
X15728Y-63935D01*
X15672Y-63822D01*
X15615Y-63766D01*
X15503Y-63710D01*
X15278Y-63710D01*
X15165Y-63766D01*
X15109Y-63822D01*
X15053Y-63935D01*
X15053Y-64216D01*
X15109Y-64329D01*
X15165Y-64385D01*
X15278Y-64441D01*
X15503Y-64441D01*
X15615Y-64385D01*
X15672Y-64329D01*
X15728Y-64216D01*
X16178Y-63710D02*
X16178Y-63935D01*
X16628Y-63710D02*
X16628Y-63935D01*
X18371Y-65341D02*
X18315Y-65285D01*
X18203Y-65116D01*
X18146Y-65003D01*
X18090Y-64835D01*
X18034Y-64553D01*
X18034Y-64329D01*
X18090Y-64047D01*
X18146Y-63879D01*
X18203Y-63766D01*
X18315Y-63597D01*
X18371Y-63541D01*
X19327Y-64104D02*
X19327Y-64891D01*
X19046Y-63654D02*
X18765Y-64497D01*
X19496Y-64497D01*
X20002Y-64891D02*
X20227Y-64891D01*
X20340Y-64835D01*
X20396Y-64778D01*
X20508Y-64610D01*
X20565Y-64385D01*
X20565Y-63935D01*
X20508Y-63822D01*
X20452Y-63766D01*
X20340Y-63710D01*
X20115Y-63710D01*
X20002Y-63766D01*
X19946Y-63822D01*
X19890Y-63935D01*
X19890Y-64216D01*
X19946Y-64329D01*
X20002Y-64385D01*
X20115Y-64441D01*
X20340Y-64441D01*
X20452Y-64385D01*
X20508Y-64329D01*
X20565Y-64216D01*
X21015Y-63822D02*
X21071Y-63766D01*
X21183Y-63710D01*
X21465Y-63710D01*
X21577Y-63766D01*
X21633Y-63822D01*
X21690Y-63935D01*
X21690Y-64047D01*
X21633Y-64216D01*
X20958Y-64891D01*
X21690Y-64891D01*
X23096Y-64891D02*
X23096Y-63710D01*
X23602Y-64891D02*
X23602Y-64272D01*
X23546Y-64160D01*
X23433Y-64104D01*
X23264Y-64104D01*
X23152Y-64160D01*
X23096Y-64216D01*
X24333Y-64891D02*
X24221Y-64835D01*
X24164Y-64778D01*
X24108Y-64666D01*
X24108Y-64329D01*
X24164Y-64216D01*
X24221Y-64160D01*
X24333Y-64104D01*
X24502Y-64104D01*
X24614Y-64160D01*
X24670Y-64216D01*
X24727Y-64329D01*
X24727Y-64666D01*
X24670Y-64778D01*
X24614Y-64835D01*
X24502Y-64891D01*
X24333Y-64891D01*
X25402Y-64891D02*
X25289Y-64835D01*
X25233Y-64722D01*
X25233Y-63710D01*
X26302Y-64835D02*
X26189Y-64891D01*
X25964Y-64891D01*
X25852Y-64835D01*
X25795Y-64722D01*
X25795Y-64272D01*
X25852Y-64160D01*
X25964Y-64104D01*
X26189Y-64104D01*
X26302Y-64160D01*
X26358Y-64272D01*
X26358Y-64385D01*
X25795Y-64497D01*
X26808Y-64835D02*
X26920Y-64891D01*
X27145Y-64891D01*
X27258Y-64835D01*
X27314Y-64722D01*
X27314Y-64666D01*
X27258Y-64553D01*
X27145Y-64497D01*
X26976Y-64497D01*
X26864Y-64441D01*
X26808Y-64329D01*
X26808Y-64272D01*
X26864Y-64160D01*
X26976Y-64104D01*
X27145Y-64104D01*
X27258Y-64160D01*
X27708Y-65341D02*
X27764Y-65285D01*
X27876Y-65116D01*
X27933Y-65003D01*
X27989Y-64835D01*
X28045Y-64553D01*
X28045Y-64329D01*
X27989Y-64047D01*
X27933Y-63879D01*
X27876Y-63766D01*
X27764Y-63597D01*
X27708Y-63541D01*
X-219Y-65772D02*
X-219Y-66172D01*
X-419Y-65972D02*
X-19Y-65972D01*
X1667Y-66450D02*
X992Y-66450D01*
X1330Y-66450D02*
X1330Y-65269D01*
X1217Y-65438D01*
X1105Y-65550D01*
X992Y-65606D01*
X2173Y-66338D02*
X2230Y-66394D01*
X2173Y-66450D01*
X2117Y-66394D01*
X2173Y-66338D01*
X2173Y-66450D01*
X2961Y-65269D02*
X3073Y-65269D01*
X3186Y-65325D01*
X3242Y-65381D01*
X3298Y-65494D01*
X3354Y-65719D01*
X3354Y-66000D01*
X3298Y-66225D01*
X3242Y-66338D01*
X3186Y-66394D01*
X3073Y-66450D01*
X2961Y-66450D01*
X2848Y-66394D01*
X2792Y-66338D01*
X2736Y-66225D01*
X2679Y-66000D01*
X2679Y-65719D01*
X2736Y-65494D01*
X2792Y-65381D01*
X2848Y-65325D01*
X2961Y-65269D01*
X3804Y-65381D02*
X3861Y-65325D01*
X3973Y-65269D01*
X4254Y-65269D01*
X4367Y-65325D01*
X4423Y-65381D01*
X4479Y-65494D01*
X4479Y-65606D01*
X4423Y-65775D01*
X3748Y-66450D01*
X4479Y-66450D01*
X4985Y-66450D02*
X4985Y-65663D01*
X4985Y-65775D02*
X5042Y-65719D01*
X5154Y-65663D01*
X5323Y-65663D01*
X5435Y-65719D01*
X5492Y-65831D01*
X5492Y-66450D01*
X5492Y-65831D02*
X5548Y-65719D01*
X5660Y-65663D01*
X5829Y-65663D01*
X5942Y-65719D01*
X5998Y-65831D01*
X5998Y-66450D01*
X6560Y-66450D02*
X6560Y-65663D01*
X6560Y-65775D02*
X6616Y-65719D01*
X6729Y-65663D01*
X6898Y-65663D01*
X7010Y-65719D01*
X7066Y-65831D01*
X7066Y-66450D01*
X7066Y-65831D02*
X7123Y-65719D01*
X7235Y-65663D01*
X7404Y-65663D01*
X7516Y-65719D01*
X7573Y-65831D01*
X7573Y-66450D01*
X9879Y-65213D02*
X8866Y-66731D01*
X11397Y-65269D02*
X11510Y-65269D01*
X11622Y-65325D01*
X11678Y-65381D01*
X11735Y-65494D01*
X11791Y-65719D01*
X11791Y-66000D01*
X11735Y-66225D01*
X11678Y-66338D01*
X11622Y-66394D01*
X11510Y-66450D01*
X11397Y-66450D01*
X11285Y-66394D01*
X11228Y-66338D01*
X11172Y-66225D01*
X11116Y-66000D01*
X11116Y-65719D01*
X11172Y-65494D01*
X11228Y-65381D01*
X11285Y-65325D01*
X11397Y-65269D01*
X12297Y-66338D02*
X12353Y-66394D01*
X12297Y-66450D01*
X12241Y-66394D01*
X12297Y-66338D01*
X12297Y-66450D01*
X13084Y-65269D02*
X13197Y-65269D01*
X13309Y-65325D01*
X13366Y-65381D01*
X13422Y-65494D01*
X13478Y-65719D01*
X13478Y-66000D01*
X13422Y-66225D01*
X13366Y-66338D01*
X13309Y-66394D01*
X13197Y-66450D01*
X13084Y-66450D01*
X12972Y-66394D01*
X12916Y-66338D01*
X12859Y-66225D01*
X12803Y-66000D01*
X12803Y-65719D01*
X12859Y-65494D01*
X12916Y-65381D01*
X12972Y-65325D01*
X13084Y-65269D01*
X14491Y-65663D02*
X14491Y-66450D01*
X14209Y-65213D02*
X13928Y-66056D01*
X14659Y-66056D01*
X15334Y-65269D02*
X15447Y-65269D01*
X15559Y-65325D01*
X15615Y-65381D01*
X15672Y-65494D01*
X15728Y-65719D01*
X15728Y-66000D01*
X15672Y-66225D01*
X15615Y-66338D01*
X15559Y-66394D01*
X15447Y-66450D01*
X15334Y-66450D01*
X15222Y-66394D01*
X15165Y-66338D01*
X15109Y-66225D01*
X15053Y-66000D01*
X15053Y-65719D01*
X15109Y-65494D01*
X15165Y-65381D01*
X15222Y-65325D01*
X15334Y-65269D01*
X16178Y-65269D02*
X16178Y-65494D01*
X16628Y-65269D02*
X16628Y-65494D01*
X18371Y-66900D02*
X18315Y-66844D01*
X18203Y-66675D01*
X18146Y-66562D01*
X18090Y-66394D01*
X18034Y-66113D01*
X18034Y-65888D01*
X18090Y-65606D01*
X18146Y-65438D01*
X18203Y-65325D01*
X18315Y-65156D01*
X18371Y-65100D01*
X18765Y-65381D02*
X18821Y-65325D01*
X18934Y-65269D01*
X19215Y-65269D01*
X19327Y-65325D01*
X19384Y-65381D01*
X19440Y-65494D01*
X19440Y-65606D01*
X19384Y-65775D01*
X18709Y-66450D01*
X19440Y-66450D01*
X20508Y-65269D02*
X19946Y-65269D01*
X19890Y-65831D01*
X19946Y-65775D01*
X20059Y-65719D01*
X20340Y-65719D01*
X20452Y-65775D01*
X20508Y-65831D01*
X20565Y-65944D01*
X20565Y-66225D01*
X20508Y-66338D01*
X20452Y-66394D01*
X20340Y-66450D01*
X20059Y-66450D01*
X19946Y-66394D01*
X19890Y-66338D01*
X21971Y-66450D02*
X21971Y-65269D01*
X22477Y-66450D02*
X22477Y-65831D01*
X22421Y-65719D01*
X22308Y-65663D01*
X22140Y-65663D01*
X22027Y-65719D01*
X21971Y-65775D01*
X23208Y-66450D02*
X23096Y-66394D01*
X23039Y-66338D01*
X22983Y-66225D01*
X22983Y-65888D01*
X23039Y-65775D01*
X23096Y-65719D01*
X23208Y-65663D01*
X23377Y-65663D01*
X23489Y-65719D01*
X23546Y-65775D01*
X23602Y-65888D01*
X23602Y-66225D01*
X23546Y-66338D01*
X23489Y-66394D01*
X23377Y-66450D01*
X23208Y-66450D01*
X24277Y-66450D02*
X24164Y-66394D01*
X24108Y-66281D01*
X24108Y-65269D01*
X25177Y-66394D02*
X25064Y-66450D01*
X24839Y-66450D01*
X24727Y-66394D01*
X24670Y-66281D01*
X24670Y-65831D01*
X24727Y-65719D01*
X24839Y-65663D01*
X25064Y-65663D01*
X25177Y-65719D01*
X25233Y-65831D01*
X25233Y-65944D01*
X24670Y-66056D01*
X25683Y-66394D02*
X25795Y-66450D01*
X26020Y-66450D01*
X26133Y-66394D01*
X26189Y-66281D01*
X26189Y-66225D01*
X26133Y-66113D01*
X26020Y-66056D01*
X25852Y-66056D01*
X25739Y-66000D01*
X25683Y-65888D01*
X25683Y-65831D01*
X25739Y-65719D01*
X25852Y-65663D01*
X26020Y-65663D01*
X26133Y-65719D01*
X26583Y-66900D02*
X26639Y-66844D01*
X26751Y-66675D01*
X26808Y-66562D01*
X26864Y-66394D01*
X26920Y-66113D01*
X26920Y-65888D01*
X26864Y-65606D01*
X26808Y-65438D01*
X26751Y-65325D01*
X26639Y-65156D01*
X26583Y-65100D01*
G54D12*
X-106Y-67740D02*
X-106Y-67322D01*
X-523Y-67322D01*
X-523Y-67740D01*
X-106Y-67740D01*
G54D13*
X1667Y-68009D02*
X992Y-68009D01*
X1330Y-68009D02*
X1330Y-66828D01*
X1217Y-66997D01*
X1105Y-67109D01*
X992Y-67165D01*
X2173Y-67897D02*
X2230Y-67953D01*
X2173Y-68009D01*
X2117Y-67953D01*
X2173Y-67897D01*
X2173Y-68009D01*
X3298Y-66828D02*
X2736Y-66828D01*
X2679Y-67390D01*
X2736Y-67334D01*
X2848Y-67278D01*
X3129Y-67278D01*
X3242Y-67334D01*
X3298Y-67390D01*
X3354Y-67503D01*
X3354Y-67784D01*
X3298Y-67897D01*
X3242Y-67953D01*
X3129Y-68009D01*
X2848Y-68009D01*
X2736Y-67953D01*
X2679Y-67897D01*
X4086Y-66828D02*
X4198Y-66828D01*
X4311Y-66884D01*
X4367Y-66940D01*
X4423Y-67053D01*
X4479Y-67278D01*
X4479Y-67559D01*
X4423Y-67784D01*
X4367Y-67897D01*
X4311Y-67953D01*
X4198Y-68009D01*
X4086Y-68009D01*
X3973Y-67953D01*
X3917Y-67897D01*
X3861Y-67784D01*
X3804Y-67559D01*
X3804Y-67278D01*
X3861Y-67053D01*
X3917Y-66940D01*
X3973Y-66884D01*
X4086Y-66828D01*
X4985Y-68009D02*
X4985Y-67222D01*
X4985Y-67334D02*
X5042Y-67278D01*
X5154Y-67222D01*
X5323Y-67222D01*
X5435Y-67278D01*
X5492Y-67390D01*
X5492Y-68009D01*
X5492Y-67390D02*
X5548Y-67278D01*
X5660Y-67222D01*
X5829Y-67222D01*
X5942Y-67278D01*
X5998Y-67390D01*
X5998Y-68009D01*
X6560Y-68009D02*
X6560Y-67222D01*
X6560Y-67334D02*
X6616Y-67278D01*
X6729Y-67222D01*
X6898Y-67222D01*
X7010Y-67278D01*
X7066Y-67390D01*
X7066Y-68009D01*
X7066Y-67390D02*
X7123Y-67278D01*
X7235Y-67222D01*
X7404Y-67222D01*
X7516Y-67278D01*
X7573Y-67390D01*
X7573Y-68009D01*
X9879Y-66772D02*
X8866Y-68290D01*
X11397Y-66828D02*
X11510Y-66828D01*
X11622Y-66884D01*
X11678Y-66940D01*
X11735Y-67053D01*
X11791Y-67278D01*
X11791Y-67559D01*
X11735Y-67784D01*
X11678Y-67897D01*
X11622Y-67953D01*
X11510Y-68009D01*
X11397Y-68009D01*
X11285Y-67953D01*
X11228Y-67897D01*
X11172Y-67784D01*
X11116Y-67559D01*
X11116Y-67278D01*
X11172Y-67053D01*
X11228Y-66940D01*
X11285Y-66884D01*
X11397Y-66828D01*
X12297Y-67897D02*
X12353Y-67953D01*
X12297Y-68009D01*
X12241Y-67953D01*
X12297Y-67897D01*
X12297Y-68009D01*
X13084Y-66828D02*
X13197Y-66828D01*
X13309Y-66884D01*
X13366Y-66940D01*
X13422Y-67053D01*
X13478Y-67278D01*
X13478Y-67559D01*
X13422Y-67784D01*
X13366Y-67897D01*
X13309Y-67953D01*
X13197Y-68009D01*
X13084Y-68009D01*
X12972Y-67953D01*
X12916Y-67897D01*
X12859Y-67784D01*
X12803Y-67559D01*
X12803Y-67278D01*
X12859Y-67053D01*
X12916Y-66940D01*
X12972Y-66884D01*
X13084Y-66828D01*
X14547Y-66828D02*
X13984Y-66828D01*
X13928Y-67390D01*
X13984Y-67334D01*
X14097Y-67278D01*
X14378Y-67278D01*
X14491Y-67334D01*
X14547Y-67390D01*
X14603Y-67503D01*
X14603Y-67784D01*
X14547Y-67897D01*
X14491Y-67953D01*
X14378Y-68009D01*
X14097Y-68009D01*
X13984Y-67953D01*
X13928Y-67897D01*
X15165Y-68009D02*
X15390Y-68009D01*
X15503Y-67953D01*
X15559Y-67897D01*
X15672Y-67728D01*
X15728Y-67503D01*
X15728Y-67053D01*
X15672Y-66940D01*
X15615Y-66884D01*
X15503Y-66828D01*
X15278Y-66828D01*
X15165Y-66884D01*
X15109Y-66940D01*
X15053Y-67053D01*
X15053Y-67334D01*
X15109Y-67447D01*
X15165Y-67503D01*
X15278Y-67559D01*
X15503Y-67559D01*
X15615Y-67503D01*
X15672Y-67447D01*
X15728Y-67334D01*
X16178Y-66828D02*
X16178Y-67053D01*
X16628Y-66828D02*
X16628Y-67053D01*
X18371Y-68459D02*
X18315Y-68403D01*
X18203Y-68234D01*
X18146Y-68122D01*
X18090Y-67953D01*
X18034Y-67672D01*
X18034Y-67447D01*
X18090Y-67165D01*
X18146Y-66997D01*
X18203Y-66884D01*
X18315Y-66715D01*
X18371Y-66659D01*
X19440Y-68009D02*
X18765Y-68009D01*
X19102Y-68009D02*
X19102Y-66828D01*
X18990Y-66997D01*
X18877Y-67109D01*
X18765Y-67165D01*
X20452Y-66828D02*
X20227Y-66828D01*
X20115Y-66884D01*
X20059Y-66940D01*
X19946Y-67109D01*
X19890Y-67334D01*
X19890Y-67784D01*
X19946Y-67897D01*
X20002Y-67953D01*
X20115Y-68009D01*
X20340Y-68009D01*
X20452Y-67953D01*
X20508Y-67897D01*
X20565Y-67784D01*
X20565Y-67503D01*
X20508Y-67390D01*
X20452Y-67334D01*
X20340Y-67278D01*
X20115Y-67278D01*
X20002Y-67334D01*
X19946Y-67390D01*
X19890Y-67503D01*
X21577Y-67222D02*
X21577Y-68009D01*
X21296Y-66772D02*
X21015Y-67615D01*
X21746Y-67615D01*
X23096Y-68009D02*
X23096Y-66828D01*
X23602Y-68009D02*
X23602Y-67390D01*
X23546Y-67278D01*
X23433Y-67222D01*
X23264Y-67222D01*
X23152Y-67278D01*
X23096Y-67334D01*
X24333Y-68009D02*
X24221Y-67953D01*
X24164Y-67897D01*
X24108Y-67784D01*
X24108Y-67447D01*
X24164Y-67334D01*
X24221Y-67278D01*
X24333Y-67222D01*
X24502Y-67222D01*
X24614Y-67278D01*
X24670Y-67334D01*
X24727Y-67447D01*
X24727Y-67784D01*
X24670Y-67897D01*
X24614Y-67953D01*
X24502Y-68009D01*
X24333Y-68009D01*
X25402Y-68009D02*
X25289Y-67953D01*
X25233Y-67840D01*
X25233Y-66828D01*
X26302Y-67953D02*
X26189Y-68009D01*
X25964Y-68009D01*
X25852Y-67953D01*
X25795Y-67840D01*
X25795Y-67390D01*
X25852Y-67278D01*
X25964Y-67222D01*
X26189Y-67222D01*
X26302Y-67278D01*
X26358Y-67390D01*
X26358Y-67503D01*
X25795Y-67615D01*
X26808Y-67953D02*
X26920Y-68009D01*
X27145Y-68009D01*
X27258Y-67953D01*
X27314Y-67840D01*
X27314Y-67784D01*
X27258Y-67672D01*
X27145Y-67615D01*
X26976Y-67615D01*
X26864Y-67559D01*
X26808Y-67447D01*
X26808Y-67390D01*
X26864Y-67278D01*
X26976Y-67222D01*
X27145Y-67222D01*
X27258Y-67278D01*
X27708Y-68459D02*
X27764Y-68403D01*
X27876Y-68234D01*
X27933Y-68122D01*
X27989Y-67953D01*
X28045Y-67672D01*
X28045Y-67447D01*
X27989Y-67165D01*
X27933Y-66997D01*
X27876Y-66884D01*
X27764Y-66715D01*
X27708Y-66659D01*
G54D12*
X-492Y-69562D02*
X-19Y-69090D01*
X-492Y-68618D01*
X-964Y-69090D01*
X-492Y-69562D01*
G54D13*
X992Y-68499D02*
X1048Y-68443D01*
X1161Y-68387D01*
X1442Y-68387D01*
X1555Y-68443D01*
X1611Y-68499D01*
X1667Y-68612D01*
X1667Y-68724D01*
X1611Y-68893D01*
X936Y-69568D01*
X1667Y-69568D01*
X2173Y-69456D02*
X2230Y-69512D01*
X2173Y-69568D01*
X2117Y-69512D01*
X2173Y-69456D01*
X2173Y-69568D01*
X3242Y-68781D02*
X3242Y-69568D01*
X2961Y-68331D02*
X2679Y-69174D01*
X3411Y-69174D01*
X4086Y-68387D02*
X4198Y-68387D01*
X4311Y-68443D01*
X4367Y-68499D01*
X4423Y-68612D01*
X4479Y-68837D01*
X4479Y-69118D01*
X4423Y-69343D01*
X4367Y-69456D01*
X4311Y-69512D01*
X4198Y-69568D01*
X4086Y-69568D01*
X3973Y-69512D01*
X3917Y-69456D01*
X3861Y-69343D01*
X3804Y-69118D01*
X3804Y-68837D01*
X3861Y-68612D01*
X3917Y-68499D01*
X3973Y-68443D01*
X4086Y-68387D01*
X4985Y-69568D02*
X4985Y-68781D01*
X4985Y-68893D02*
X5042Y-68837D01*
X5154Y-68781D01*
X5323Y-68781D01*
X5435Y-68837D01*
X5492Y-68949D01*
X5492Y-69568D01*
X5492Y-68949D02*
X5548Y-68837D01*
X5660Y-68781D01*
X5829Y-68781D01*
X5942Y-68837D01*
X5998Y-68949D01*
X5998Y-69568D01*
X6560Y-69568D02*
X6560Y-68781D01*
X6560Y-68893D02*
X6616Y-68837D01*
X6729Y-68781D01*
X6898Y-68781D01*
X7010Y-68837D01*
X7066Y-68949D01*
X7066Y-69568D01*
X7066Y-68949D02*
X7123Y-68837D01*
X7235Y-68781D01*
X7404Y-68781D01*
X7516Y-68837D01*
X7573Y-68949D01*
X7573Y-69568D01*
X9879Y-68331D02*
X8866Y-69849D01*
X11397Y-68387D02*
X11510Y-68387D01*
X11622Y-68443D01*
X11678Y-68499D01*
X11735Y-68612D01*
X11791Y-68837D01*
X11791Y-69118D01*
X11735Y-69343D01*
X11678Y-69456D01*
X11622Y-69512D01*
X11510Y-69568D01*
X11397Y-69568D01*
X11285Y-69512D01*
X11228Y-69456D01*
X11172Y-69343D01*
X11116Y-69118D01*
X11116Y-68837D01*
X11172Y-68612D01*
X11228Y-68499D01*
X11285Y-68443D01*
X11397Y-68387D01*
X12297Y-69456D02*
X12353Y-69512D01*
X12297Y-69568D01*
X12241Y-69512D01*
X12297Y-69456D01*
X12297Y-69568D01*
X13084Y-68387D02*
X13197Y-68387D01*
X13309Y-68443D01*
X13366Y-68499D01*
X13422Y-68612D01*
X13478Y-68837D01*
X13478Y-69118D01*
X13422Y-69343D01*
X13366Y-69456D01*
X13309Y-69512D01*
X13197Y-69568D01*
X13084Y-69568D01*
X12972Y-69512D01*
X12916Y-69456D01*
X12859Y-69343D01*
X12803Y-69118D01*
X12803Y-68837D01*
X12859Y-68612D01*
X12916Y-68499D01*
X12972Y-68443D01*
X13084Y-68387D01*
X14041Y-69568D02*
X14266Y-69568D01*
X14378Y-69512D01*
X14434Y-69456D01*
X14547Y-69287D01*
X14603Y-69062D01*
X14603Y-68612D01*
X14547Y-68499D01*
X14491Y-68443D01*
X14378Y-68387D01*
X14153Y-68387D01*
X14041Y-68443D01*
X13984Y-68499D01*
X13928Y-68612D01*
X13928Y-68893D01*
X13984Y-69006D01*
X14041Y-69062D01*
X14153Y-69118D01*
X14378Y-69118D01*
X14491Y-69062D01*
X14547Y-69006D01*
X14603Y-68893D01*
X15615Y-68781D02*
X15615Y-69568D01*
X15334Y-68331D02*
X15053Y-69174D01*
X15784Y-69174D01*
X16178Y-68387D02*
X16178Y-68612D01*
X16628Y-68387D02*
X16628Y-68612D01*
X18371Y-70018D02*
X18315Y-69962D01*
X18203Y-69793D01*
X18146Y-69681D01*
X18090Y-69512D01*
X18034Y-69231D01*
X18034Y-69006D01*
X18090Y-68724D01*
X18146Y-68556D01*
X18203Y-68443D01*
X18315Y-68275D01*
X18371Y-68218D01*
X18709Y-68387D02*
X19496Y-68387D01*
X18990Y-69568D01*
X20846Y-69568D02*
X20846Y-68387D01*
X21352Y-69568D02*
X21352Y-68949D01*
X21296Y-68837D01*
X21183Y-68781D01*
X21015Y-68781D01*
X20902Y-68837D01*
X20846Y-68893D01*
X22083Y-69568D02*
X21971Y-69512D01*
X21915Y-69456D01*
X21858Y-69343D01*
X21858Y-69006D01*
X21915Y-68893D01*
X21971Y-68837D01*
X22083Y-68781D01*
X22252Y-68781D01*
X22365Y-68837D01*
X22421Y-68893D01*
X22477Y-69006D01*
X22477Y-69343D01*
X22421Y-69456D01*
X22365Y-69512D01*
X22252Y-69568D01*
X22083Y-69568D01*
X23152Y-69568D02*
X23039Y-69512D01*
X22983Y-69399D01*
X22983Y-68387D01*
X24052Y-69512D02*
X23939Y-69568D01*
X23714Y-69568D01*
X23602Y-69512D01*
X23546Y-69399D01*
X23546Y-68949D01*
X23602Y-68837D01*
X23714Y-68781D01*
X23939Y-68781D01*
X24052Y-68837D01*
X24108Y-68949D01*
X24108Y-69062D01*
X23546Y-69174D01*
X24558Y-69512D02*
X24670Y-69568D01*
X24895Y-69568D01*
X25008Y-69512D01*
X25064Y-69399D01*
X25064Y-69343D01*
X25008Y-69231D01*
X24895Y-69174D01*
X24727Y-69174D01*
X24614Y-69118D01*
X24558Y-69006D01*
X24558Y-68949D01*
X24614Y-68837D01*
X24727Y-68781D01*
X24895Y-68781D01*
X25008Y-68837D01*
X25458Y-70018D02*
X25514Y-69962D01*
X25627Y-69793D01*
X25683Y-69681D01*
X25739Y-69512D01*
X25795Y-69231D01*
X25795Y-69006D01*
X25739Y-68724D01*
X25683Y-68556D01*
X25627Y-68443D01*
X25514Y-68275D01*
X25458Y-68218D01*
X-1219Y-70049D02*
X-19Y-71249D01*
X-19Y-70049D02*
X-1219Y-71249D01*
G54D12*
X-19Y-70649D02*
G75*
G03X-19Y-70649I-600J0D01*
G74*
G01*
G54D13*
X936Y-69946D02*
X1667Y-69946D01*
X1273Y-70396D01*
X1442Y-70396D01*
X1555Y-70452D01*
X1611Y-70508D01*
X1667Y-70621D01*
X1667Y-70902D01*
X1611Y-71015D01*
X1555Y-71071D01*
X1442Y-71127D01*
X1105Y-71127D01*
X992Y-71071D01*
X936Y-71015D01*
X2173Y-71015D02*
X2230Y-71071D01*
X2173Y-71127D01*
X2117Y-71071D01*
X2173Y-71015D01*
X2173Y-71127D01*
X2961Y-69946D02*
X3073Y-69946D01*
X3186Y-70002D01*
X3242Y-70059D01*
X3298Y-70171D01*
X3354Y-70396D01*
X3354Y-70677D01*
X3298Y-70902D01*
X3242Y-71015D01*
X3186Y-71071D01*
X3073Y-71127D01*
X2961Y-71127D01*
X2848Y-71071D01*
X2792Y-71015D01*
X2736Y-70902D01*
X2679Y-70677D01*
X2679Y-70396D01*
X2736Y-70171D01*
X2792Y-70059D01*
X2848Y-70002D01*
X2961Y-69946D01*
X4423Y-69946D02*
X3861Y-69946D01*
X3804Y-70508D01*
X3861Y-70452D01*
X3973Y-70396D01*
X4254Y-70396D01*
X4367Y-70452D01*
X4423Y-70508D01*
X4479Y-70621D01*
X4479Y-70902D01*
X4423Y-71015D01*
X4367Y-71071D01*
X4254Y-71127D01*
X3973Y-71127D01*
X3861Y-71071D01*
X3804Y-71015D01*
X4985Y-71127D02*
X4985Y-70340D01*
X4985Y-70452D02*
X5042Y-70396D01*
X5154Y-70340D01*
X5323Y-70340D01*
X5435Y-70396D01*
X5492Y-70508D01*
X5492Y-71127D01*
X5492Y-70508D02*
X5548Y-70396D01*
X5660Y-70340D01*
X5829Y-70340D01*
X5942Y-70396D01*
X5998Y-70508D01*
X5998Y-71127D01*
X6560Y-71127D02*
X6560Y-70340D01*
X6560Y-70452D02*
X6616Y-70396D01*
X6729Y-70340D01*
X6898Y-70340D01*
X7010Y-70396D01*
X7066Y-70508D01*
X7066Y-71127D01*
X7066Y-70508D02*
X7123Y-70396D01*
X7235Y-70340D01*
X7404Y-70340D01*
X7516Y-70396D01*
X7573Y-70508D01*
X7573Y-71127D01*
X9879Y-69890D02*
X8866Y-71408D01*
X11397Y-69946D02*
X11510Y-69946D01*
X11622Y-70002D01*
X11678Y-70059D01*
X11735Y-70171D01*
X11791Y-70396D01*
X11791Y-70677D01*
X11735Y-70902D01*
X11678Y-71015D01*
X11622Y-71071D01*
X11510Y-71127D01*
X11397Y-71127D01*
X11285Y-71071D01*
X11228Y-71015D01*
X11172Y-70902D01*
X11116Y-70677D01*
X11116Y-70396D01*
X11172Y-70171D01*
X11228Y-70059D01*
X11285Y-70002D01*
X11397Y-69946D01*
X12297Y-71015D02*
X12353Y-71071D01*
X12297Y-71127D01*
X12241Y-71071D01*
X12297Y-71015D01*
X12297Y-71127D01*
X13478Y-71127D02*
X12803Y-71127D01*
X13141Y-71127D02*
X13141Y-69946D01*
X13028Y-70115D01*
X12916Y-70227D01*
X12803Y-70284D01*
X13928Y-70059D02*
X13984Y-70002D01*
X14097Y-69946D01*
X14378Y-69946D01*
X14491Y-70002D01*
X14547Y-70059D01*
X14603Y-70171D01*
X14603Y-70284D01*
X14547Y-70452D01*
X13872Y-71127D01*
X14603Y-71127D01*
X15334Y-69946D02*
X15447Y-69946D01*
X15559Y-70002D01*
X15615Y-70059D01*
X15672Y-70171D01*
X15728Y-70396D01*
X15728Y-70677D01*
X15672Y-70902D01*
X15615Y-71015D01*
X15559Y-71071D01*
X15447Y-71127D01*
X15334Y-71127D01*
X15222Y-71071D01*
X15165Y-71015D01*
X15109Y-70902D01*
X15053Y-70677D01*
X15053Y-70396D01*
X15109Y-70171D01*
X15165Y-70059D01*
X15222Y-70002D01*
X15334Y-69946D01*
X16178Y-69946D02*
X16178Y-70171D01*
X16628Y-69946D02*
X16628Y-70171D01*
X18371Y-71577D02*
X18315Y-71521D01*
X18203Y-71352D01*
X18146Y-71240D01*
X18090Y-71071D01*
X18034Y-70790D01*
X18034Y-70565D01*
X18090Y-70284D01*
X18146Y-70115D01*
X18203Y-70002D01*
X18315Y-69834D01*
X18371Y-69777D01*
X18765Y-70059D02*
X18821Y-70002D01*
X18934Y-69946D01*
X19215Y-69946D01*
X19327Y-70002D01*
X19384Y-70059D01*
X19440Y-70171D01*
X19440Y-70284D01*
X19384Y-70452D01*
X18709Y-71127D01*
X19440Y-71127D01*
X20846Y-71127D02*
X20846Y-69946D01*
X21352Y-71127D02*
X21352Y-70508D01*
X21296Y-70396D01*
X21183Y-70340D01*
X21015Y-70340D01*
X20902Y-70396D01*
X20846Y-70452D01*
X22083Y-71127D02*
X21971Y-71071D01*
X21915Y-71015D01*
X21858Y-70902D01*
X21858Y-70565D01*
X21915Y-70452D01*
X21971Y-70396D01*
X22083Y-70340D01*
X22252Y-70340D01*
X22365Y-70396D01*
X22421Y-70452D01*
X22477Y-70565D01*
X22477Y-70902D01*
X22421Y-71015D01*
X22365Y-71071D01*
X22252Y-71127D01*
X22083Y-71127D01*
X23152Y-71127D02*
X23039Y-71071D01*
X22983Y-70958D01*
X22983Y-69946D01*
X24052Y-71071D02*
X23939Y-71127D01*
X23714Y-71127D01*
X23602Y-71071D01*
X23546Y-70958D01*
X23546Y-70508D01*
X23602Y-70396D01*
X23714Y-70340D01*
X23939Y-70340D01*
X24052Y-70396D01*
X24108Y-70508D01*
X24108Y-70621D01*
X23546Y-70733D01*
X24558Y-71071D02*
X24670Y-71127D01*
X24895Y-71127D01*
X25008Y-71071D01*
X25064Y-70958D01*
X25064Y-70902D01*
X25008Y-70790D01*
X24895Y-70733D01*
X24727Y-70733D01*
X24614Y-70677D01*
X24558Y-70565D01*
X24558Y-70508D01*
X24614Y-70396D01*
X24727Y-70340D01*
X24895Y-70340D01*
X25008Y-70396D01*
X25458Y-71577D02*
X25514Y-71521D01*
X25627Y-71352D01*
X25683Y-71240D01*
X25739Y-71071D01*
X25795Y-70790D01*
X25795Y-70565D01*
X25739Y-70284D01*
X25683Y-70115D01*
X25627Y-70002D01*
X25514Y-69834D01*
X25458Y-69777D01*
X-1220Y-71761D02*
X-19Y-72961D01*
X-19Y-71761D02*
X-1220Y-72961D01*
X-620Y-71761D02*
X-620Y-72961D01*
X-1220Y-72361D02*
X-19Y-72361D01*
X936Y-71658D02*
X1667Y-71658D01*
X1273Y-72108D01*
X1442Y-72108D01*
X1555Y-72164D01*
X1611Y-72220D01*
X1667Y-72333D01*
X1667Y-72614D01*
X1611Y-72726D01*
X1555Y-72783D01*
X1442Y-72839D01*
X1105Y-72839D01*
X992Y-72783D01*
X936Y-72726D01*
X2173Y-72726D02*
X2230Y-72783D01*
X2173Y-72839D01*
X2117Y-72783D01*
X2173Y-72726D01*
X2173Y-72839D01*
X2961Y-71658D02*
X3073Y-71658D01*
X3186Y-71714D01*
X3242Y-71770D01*
X3298Y-71883D01*
X3354Y-72108D01*
X3354Y-72389D01*
X3298Y-72614D01*
X3242Y-72726D01*
X3186Y-72783D01*
X3073Y-72839D01*
X2961Y-72839D01*
X2848Y-72783D01*
X2792Y-72726D01*
X2736Y-72614D01*
X2679Y-72389D01*
X2679Y-72108D01*
X2736Y-71883D01*
X2792Y-71770D01*
X2848Y-71714D01*
X2961Y-71658D01*
X4423Y-71658D02*
X3861Y-71658D01*
X3804Y-72220D01*
X3861Y-72164D01*
X3973Y-72108D01*
X4254Y-72108D01*
X4367Y-72164D01*
X4423Y-72220D01*
X4479Y-72333D01*
X4479Y-72614D01*
X4423Y-72726D01*
X4367Y-72783D01*
X4254Y-72839D01*
X3973Y-72839D01*
X3861Y-72783D01*
X3804Y-72726D01*
X4985Y-72839D02*
X4985Y-72052D01*
X4985Y-72164D02*
X5042Y-72108D01*
X5154Y-72052D01*
X5323Y-72052D01*
X5435Y-72108D01*
X5492Y-72220D01*
X5492Y-72839D01*
X5492Y-72220D02*
X5548Y-72108D01*
X5660Y-72052D01*
X5829Y-72052D01*
X5942Y-72108D01*
X5998Y-72220D01*
X5998Y-72839D01*
X6560Y-72839D02*
X6560Y-72052D01*
X6560Y-72164D02*
X6616Y-72108D01*
X6729Y-72052D01*
X6898Y-72052D01*
X7010Y-72108D01*
X7066Y-72220D01*
X7066Y-72839D01*
X7066Y-72220D02*
X7123Y-72108D01*
X7235Y-72052D01*
X7404Y-72052D01*
X7516Y-72108D01*
X7573Y-72220D01*
X7573Y-72839D01*
X9879Y-71602D02*
X8866Y-73120D01*
X11397Y-71658D02*
X11510Y-71658D01*
X11622Y-71714D01*
X11678Y-71770D01*
X11735Y-71883D01*
X11791Y-72108D01*
X11791Y-72389D01*
X11735Y-72614D01*
X11678Y-72726D01*
X11622Y-72783D01*
X11510Y-72839D01*
X11397Y-72839D01*
X11285Y-72783D01*
X11228Y-72726D01*
X11172Y-72614D01*
X11116Y-72389D01*
X11116Y-72108D01*
X11172Y-71883D01*
X11228Y-71770D01*
X11285Y-71714D01*
X11397Y-71658D01*
X12297Y-72726D02*
X12353Y-72783D01*
X12297Y-72839D01*
X12241Y-72783D01*
X12297Y-72726D01*
X12297Y-72839D01*
X13478Y-72839D02*
X12803Y-72839D01*
X13141Y-72839D02*
X13141Y-71658D01*
X13028Y-71827D01*
X12916Y-71939D01*
X12803Y-71995D01*
X13928Y-71770D02*
X13984Y-71714D01*
X14097Y-71658D01*
X14378Y-71658D01*
X14491Y-71714D01*
X14547Y-71770D01*
X14603Y-71883D01*
X14603Y-71995D01*
X14547Y-72164D01*
X13872Y-72839D01*
X14603Y-72839D01*
X15334Y-71658D02*
X15447Y-71658D01*
X15559Y-71714D01*
X15615Y-71770D01*
X15672Y-71883D01*
X15728Y-72108D01*
X15728Y-72389D01*
X15672Y-72614D01*
X15615Y-72726D01*
X15559Y-72783D01*
X15447Y-72839D01*
X15334Y-72839D01*
X15222Y-72783D01*
X15165Y-72726D01*
X15109Y-72614D01*
X15053Y-72389D01*
X15053Y-72108D01*
X15109Y-71883D01*
X15165Y-71770D01*
X15222Y-71714D01*
X15334Y-71658D01*
X16178Y-71658D02*
X16178Y-71883D01*
X16628Y-71658D02*
X16628Y-71883D01*
X18371Y-73289D02*
X18315Y-73233D01*
X18203Y-73064D01*
X18146Y-72951D01*
X18090Y-72783D01*
X18034Y-72502D01*
X18034Y-72277D01*
X18090Y-71995D01*
X18146Y-71827D01*
X18203Y-71714D01*
X18315Y-71545D01*
X18371Y-71489D01*
X19440Y-72839D02*
X18765Y-72839D01*
X19102Y-72839D02*
X19102Y-71658D01*
X18990Y-71827D01*
X18877Y-71939D01*
X18765Y-71995D01*
X19890Y-71770D02*
X19946Y-71714D01*
X20059Y-71658D01*
X20340Y-71658D01*
X20452Y-71714D01*
X20508Y-71770D01*
X20565Y-71883D01*
X20565Y-71995D01*
X20508Y-72164D01*
X19834Y-72839D01*
X20565Y-72839D01*
X21971Y-72839D02*
X21971Y-71658D01*
X22477Y-72839D02*
X22477Y-72220D01*
X22421Y-72108D01*
X22308Y-72052D01*
X22140Y-72052D01*
X22027Y-72108D01*
X21971Y-72164D01*
X23208Y-72839D02*
X23096Y-72783D01*
X23039Y-72726D01*
X22983Y-72614D01*
X22983Y-72277D01*
X23039Y-72164D01*
X23096Y-72108D01*
X23208Y-72052D01*
X23377Y-72052D01*
X23489Y-72108D01*
X23546Y-72164D01*
X23602Y-72277D01*
X23602Y-72614D01*
X23546Y-72726D01*
X23489Y-72783D01*
X23377Y-72839D01*
X23208Y-72839D01*
X24277Y-72839D02*
X24164Y-72783D01*
X24108Y-72670D01*
X24108Y-71658D01*
X25177Y-72783D02*
X25064Y-72839D01*
X24839Y-72839D01*
X24727Y-72783D01*
X24670Y-72670D01*
X24670Y-72220D01*
X24727Y-72108D01*
X24839Y-72052D01*
X25064Y-72052D01*
X25177Y-72108D01*
X25233Y-72220D01*
X25233Y-72333D01*
X24670Y-72445D01*
X25683Y-72783D02*
X25795Y-72839D01*
X26020Y-72839D01*
X26133Y-72783D01*
X26189Y-72670D01*
X26189Y-72614D01*
X26133Y-72502D01*
X26020Y-72445D01*
X25852Y-72445D01*
X25739Y-72389D01*
X25683Y-72277D01*
X25683Y-72220D01*
X25739Y-72108D01*
X25852Y-72052D01*
X26020Y-72052D01*
X26133Y-72108D01*
X26583Y-73289D02*
X26639Y-73233D01*
X26751Y-73064D01*
X26808Y-72951D01*
X26864Y-72783D01*
X26920Y-72502D01*
X26920Y-72277D01*
X26864Y-71995D01*
X26808Y-71827D01*
X26751Y-71714D01*
X26639Y-71545D01*
X26583Y-71489D01*
X-1589Y-73289D02*
X-19Y-74859D01*
X-19Y-73289D02*
X-1589Y-74859D01*
G54D12*
X-249Y-74629D02*
X-249Y-73518D01*
X-1359Y-73518D01*
X-1359Y-74629D01*
X-249Y-74629D01*
G54D13*
X936Y-73370D02*
X1667Y-73370D01*
X1273Y-73820D01*
X1442Y-73820D01*
X1555Y-73877D01*
X1611Y-73933D01*
X1667Y-74045D01*
X1667Y-74327D01*
X1611Y-74439D01*
X1555Y-74495D01*
X1442Y-74552D01*
X1105Y-74552D01*
X992Y-74495D01*
X936Y-74439D01*
X2173Y-74439D02*
X2230Y-74495D01*
X2173Y-74552D01*
X2117Y-74495D01*
X2173Y-74439D01*
X2173Y-74552D01*
X2792Y-74552D02*
X3017Y-74552D01*
X3129Y-74495D01*
X3186Y-74439D01*
X3298Y-74270D01*
X3354Y-74045D01*
X3354Y-73595D01*
X3298Y-73483D01*
X3242Y-73427D01*
X3129Y-73370D01*
X2904Y-73370D01*
X2792Y-73427D01*
X2736Y-73483D01*
X2679Y-73595D01*
X2679Y-73877D01*
X2736Y-73989D01*
X2792Y-74045D01*
X2904Y-74102D01*
X3129Y-74102D01*
X3242Y-74045D01*
X3298Y-73989D01*
X3354Y-73877D01*
X3917Y-74552D02*
X4142Y-74552D01*
X4254Y-74495D01*
X4311Y-74439D01*
X4423Y-74270D01*
X4479Y-74045D01*
X4479Y-73595D01*
X4423Y-73483D01*
X4367Y-73427D01*
X4254Y-73370D01*
X4029Y-73370D01*
X3917Y-73427D01*
X3861Y-73483D01*
X3804Y-73595D01*
X3804Y-73877D01*
X3861Y-73989D01*
X3917Y-74045D01*
X4029Y-74102D01*
X4254Y-74102D01*
X4367Y-74045D01*
X4423Y-73989D01*
X4479Y-73877D01*
X4985Y-74552D02*
X4985Y-73764D01*
X4985Y-73877D02*
X5042Y-73820D01*
X5154Y-73764D01*
X5323Y-73764D01*
X5435Y-73820D01*
X5492Y-73933D01*
X5492Y-74552D01*
X5492Y-73933D02*
X5548Y-73820D01*
X5660Y-73764D01*
X5829Y-73764D01*
X5942Y-73820D01*
X5998Y-73933D01*
X5998Y-74552D01*
X6560Y-74552D02*
X6560Y-73764D01*
X6560Y-73877D02*
X6616Y-73820D01*
X6729Y-73764D01*
X6898Y-73764D01*
X7010Y-73820D01*
X7066Y-73933D01*
X7066Y-74552D01*
X7066Y-73933D02*
X7123Y-73820D01*
X7235Y-73764D01*
X7404Y-73764D01*
X7516Y-73820D01*
X7573Y-73933D01*
X7573Y-74552D01*
X9879Y-73314D02*
X8866Y-74833D01*
X11397Y-73370D02*
X11510Y-73370D01*
X11622Y-73427D01*
X11678Y-73483D01*
X11735Y-73595D01*
X11791Y-73820D01*
X11791Y-74102D01*
X11735Y-74327D01*
X11678Y-74439D01*
X11622Y-74495D01*
X11510Y-74552D01*
X11397Y-74552D01*
X11285Y-74495D01*
X11228Y-74439D01*
X11172Y-74327D01*
X11116Y-74102D01*
X11116Y-73820D01*
X11172Y-73595D01*
X11228Y-73483D01*
X11285Y-73427D01*
X11397Y-73370D01*
X12297Y-74439D02*
X12353Y-74495D01*
X12297Y-74552D01*
X12241Y-74495D01*
X12297Y-74439D01*
X12297Y-74552D01*
X13478Y-74552D02*
X12803Y-74552D01*
X13141Y-74552D02*
X13141Y-73370D01*
X13028Y-73539D01*
X12916Y-73652D01*
X12803Y-73708D01*
X14547Y-73370D02*
X13984Y-73370D01*
X13928Y-73933D01*
X13984Y-73877D01*
X14097Y-73820D01*
X14378Y-73820D01*
X14491Y-73877D01*
X14547Y-73933D01*
X14603Y-74045D01*
X14603Y-74327D01*
X14547Y-74439D01*
X14491Y-74495D01*
X14378Y-74552D01*
X14097Y-74552D01*
X13984Y-74495D01*
X13928Y-74439D01*
X14997Y-73370D02*
X15784Y-73370D01*
X15278Y-74552D01*
X16178Y-73370D02*
X16178Y-73595D01*
X16628Y-73370D02*
X16628Y-73595D01*
X18371Y-75002D02*
X18315Y-74945D01*
X18203Y-74777D01*
X18146Y-74664D01*
X18090Y-74495D01*
X18034Y-74214D01*
X18034Y-73989D01*
X18090Y-73708D01*
X18146Y-73539D01*
X18203Y-73427D01*
X18315Y-73258D01*
X18371Y-73202D01*
X18990Y-73877D02*
X18877Y-73820D01*
X18821Y-73764D01*
X18765Y-73652D01*
X18765Y-73595D01*
X18821Y-73483D01*
X18877Y-73427D01*
X18990Y-73370D01*
X19215Y-73370D01*
X19327Y-73427D01*
X19384Y-73483D01*
X19440Y-73595D01*
X19440Y-73652D01*
X19384Y-73764D01*
X19327Y-73820D01*
X19215Y-73877D01*
X18990Y-73877D01*
X18877Y-73933D01*
X18821Y-73989D01*
X18765Y-74102D01*
X18765Y-74327D01*
X18821Y-74439D01*
X18877Y-74495D01*
X18990Y-74552D01*
X19215Y-74552D01*
X19327Y-74495D01*
X19384Y-74439D01*
X19440Y-74327D01*
X19440Y-74102D01*
X19384Y-73989D01*
X19327Y-73933D01*
X19215Y-73877D01*
X19890Y-73483D02*
X19946Y-73427D01*
X20059Y-73370D01*
X20340Y-73370D01*
X20452Y-73427D01*
X20508Y-73483D01*
X20565Y-73595D01*
X20565Y-73708D01*
X20508Y-73877D01*
X19834Y-74552D01*
X20565Y-74552D01*
X21971Y-74552D02*
X21971Y-73370D01*
X22477Y-74552D02*
X22477Y-73933D01*
X22421Y-73820D01*
X22308Y-73764D01*
X22140Y-73764D01*
X22027Y-73820D01*
X21971Y-73877D01*
X23208Y-74552D02*
X23096Y-74495D01*
X23039Y-74439D01*
X22983Y-74327D01*
X22983Y-73989D01*
X23039Y-73877D01*
X23096Y-73820D01*
X23208Y-73764D01*
X23377Y-73764D01*
X23489Y-73820D01*
X23546Y-73877D01*
X23602Y-73989D01*
X23602Y-74327D01*
X23546Y-74439D01*
X23489Y-74495D01*
X23377Y-74552D01*
X23208Y-74552D01*
X24277Y-74552D02*
X24164Y-74495D01*
X24108Y-74383D01*
X24108Y-73370D01*
X25177Y-74495D02*
X25064Y-74552D01*
X24839Y-74552D01*
X24727Y-74495D01*
X24670Y-74383D01*
X24670Y-73933D01*
X24727Y-73820D01*
X24839Y-73764D01*
X25064Y-73764D01*
X25177Y-73820D01*
X25233Y-73933D01*
X25233Y-74045D01*
X24670Y-74158D01*
X25683Y-74495D02*
X25795Y-74552D01*
X26020Y-74552D01*
X26133Y-74495D01*
X26189Y-74383D01*
X26189Y-74327D01*
X26133Y-74214D01*
X26020Y-74158D01*
X25852Y-74158D01*
X25739Y-74102D01*
X25683Y-73989D01*
X25683Y-73933D01*
X25739Y-73820D01*
X25852Y-73764D01*
X26020Y-73764D01*
X26133Y-73820D01*
X26583Y-75002D02*
X26639Y-74945D01*
X26751Y-74777D01*
X26808Y-74664D01*
X26864Y-74495D01*
X26920Y-74214D01*
X26920Y-73989D01*
X26864Y-73708D01*
X26808Y-73539D01*
X26751Y-73427D01*
X26639Y-73258D01*
X26583Y-73202D01*
X-1594Y-75368D02*
X-19Y-76943D01*
X-19Y-75368D02*
X-1594Y-76943D01*
G54D12*
X-807Y-76943D02*
X-19Y-76155D01*
X-807Y-75368D01*
X-1594Y-76155D01*
X-807Y-76943D01*
G54D13*
X1555Y-75846D02*
X1555Y-76633D01*
X1273Y-75396D02*
X992Y-76240D01*
X1723Y-76240D01*
X2173Y-76521D02*
X2230Y-76577D01*
X2173Y-76633D01*
X2117Y-76577D01*
X2173Y-76521D01*
X2173Y-76633D01*
X2961Y-75452D02*
X3073Y-75452D01*
X3186Y-75509D01*
X3242Y-75565D01*
X3298Y-75677D01*
X3354Y-75902D01*
X3354Y-76183D01*
X3298Y-76408D01*
X3242Y-76521D01*
X3186Y-76577D01*
X3073Y-76633D01*
X2961Y-76633D01*
X2848Y-76577D01*
X2792Y-76521D01*
X2736Y-76408D01*
X2679Y-76183D01*
X2679Y-75902D01*
X2736Y-75677D01*
X2792Y-75565D01*
X2848Y-75509D01*
X2961Y-75452D01*
X4086Y-75452D02*
X4198Y-75452D01*
X4311Y-75509D01*
X4367Y-75565D01*
X4423Y-75677D01*
X4479Y-75902D01*
X4479Y-76183D01*
X4423Y-76408D01*
X4367Y-76521D01*
X4311Y-76577D01*
X4198Y-76633D01*
X4086Y-76633D01*
X3973Y-76577D01*
X3917Y-76521D01*
X3861Y-76408D01*
X3804Y-76183D01*
X3804Y-75902D01*
X3861Y-75677D01*
X3917Y-75565D01*
X3973Y-75509D01*
X4086Y-75452D01*
X4985Y-76633D02*
X4985Y-75846D01*
X4985Y-75958D02*
X5042Y-75902D01*
X5154Y-75846D01*
X5323Y-75846D01*
X5435Y-75902D01*
X5492Y-76015D01*
X5492Y-76633D01*
X5492Y-76015D02*
X5548Y-75902D01*
X5660Y-75846D01*
X5829Y-75846D01*
X5942Y-75902D01*
X5998Y-76015D01*
X5998Y-76633D01*
X6560Y-76633D02*
X6560Y-75846D01*
X6560Y-75958D02*
X6616Y-75902D01*
X6729Y-75846D01*
X6898Y-75846D01*
X7010Y-75902D01*
X7066Y-76015D01*
X7066Y-76633D01*
X7066Y-76015D02*
X7123Y-75902D01*
X7235Y-75846D01*
X7404Y-75846D01*
X7516Y-75902D01*
X7573Y-76015D01*
X7573Y-76633D01*
X9879Y-75396D02*
X8866Y-76915D01*
X11397Y-75452D02*
X11510Y-75452D01*
X11622Y-75509D01*
X11678Y-75565D01*
X11735Y-75677D01*
X11791Y-75902D01*
X11791Y-76183D01*
X11735Y-76408D01*
X11678Y-76521D01*
X11622Y-76577D01*
X11510Y-76633D01*
X11397Y-76633D01*
X11285Y-76577D01*
X11228Y-76521D01*
X11172Y-76408D01*
X11116Y-76183D01*
X11116Y-75902D01*
X11172Y-75677D01*
X11228Y-75565D01*
X11285Y-75509D01*
X11397Y-75452D01*
X12297Y-76521D02*
X12353Y-76577D01*
X12297Y-76633D01*
X12241Y-76577D01*
X12297Y-76521D01*
X12297Y-76633D01*
X13478Y-76633D02*
X12803Y-76633D01*
X13141Y-76633D02*
X13141Y-75452D01*
X13028Y-75621D01*
X12916Y-75734D01*
X12803Y-75790D01*
X14547Y-75452D02*
X13984Y-75452D01*
X13928Y-76015D01*
X13984Y-75958D01*
X14097Y-75902D01*
X14378Y-75902D01*
X14491Y-75958D01*
X14547Y-76015D01*
X14603Y-76127D01*
X14603Y-76408D01*
X14547Y-76521D01*
X14491Y-76577D01*
X14378Y-76633D01*
X14097Y-76633D01*
X13984Y-76577D01*
X13928Y-76521D01*
X14997Y-75452D02*
X15784Y-75452D01*
X15278Y-76633D01*
X16178Y-75452D02*
X16178Y-75677D01*
X16628Y-75452D02*
X16628Y-75677D01*
X18371Y-77083D02*
X18315Y-77027D01*
X18203Y-76858D01*
X18146Y-76746D01*
X18090Y-76577D01*
X18034Y-76296D01*
X18034Y-76071D01*
X18090Y-75790D01*
X18146Y-75621D01*
X18203Y-75509D01*
X18315Y-75340D01*
X18371Y-75284D01*
X19440Y-76633D02*
X18765Y-76633D01*
X19102Y-76633D02*
X19102Y-75452D01*
X18990Y-75621D01*
X18877Y-75734D01*
X18765Y-75790D01*
X19890Y-75565D02*
X19946Y-75509D01*
X20059Y-75452D01*
X20340Y-75452D01*
X20452Y-75509D01*
X20508Y-75565D01*
X20565Y-75677D01*
X20565Y-75790D01*
X20508Y-75958D01*
X19834Y-76633D01*
X20565Y-76633D01*
X21971Y-76633D02*
X21971Y-75452D01*
X22477Y-76633D02*
X22477Y-76015D01*
X22421Y-75902D01*
X22308Y-75846D01*
X22140Y-75846D01*
X22027Y-75902D01*
X21971Y-75958D01*
X23208Y-76633D02*
X23096Y-76577D01*
X23039Y-76521D01*
X22983Y-76408D01*
X22983Y-76071D01*
X23039Y-75958D01*
X23096Y-75902D01*
X23208Y-75846D01*
X23377Y-75846D01*
X23489Y-75902D01*
X23546Y-75958D01*
X23602Y-76071D01*
X23602Y-76408D01*
X23546Y-76521D01*
X23489Y-76577D01*
X23377Y-76633D01*
X23208Y-76633D01*
X24277Y-76633D02*
X24164Y-76577D01*
X24108Y-76465D01*
X24108Y-75452D01*
X25177Y-76577D02*
X25064Y-76633D01*
X24839Y-76633D01*
X24727Y-76577D01*
X24670Y-76465D01*
X24670Y-76015D01*
X24727Y-75902D01*
X24839Y-75846D01*
X25064Y-75846D01*
X25177Y-75902D01*
X25233Y-76015D01*
X25233Y-76127D01*
X24670Y-76240D01*
X25683Y-76577D02*
X25795Y-76633D01*
X26020Y-76633D01*
X26133Y-76577D01*
X26189Y-76465D01*
X26189Y-76408D01*
X26133Y-76296D01*
X26020Y-76240D01*
X25852Y-76240D01*
X25739Y-76183D01*
X25683Y-76071D01*
X25683Y-76015D01*
X25739Y-75902D01*
X25852Y-75846D01*
X26020Y-75846D01*
X26133Y-75902D01*
X26583Y-77083D02*
X26639Y-77027D01*
X26751Y-76858D01*
X26808Y-76746D01*
X26864Y-76577D01*
X26920Y-76296D01*
X26920Y-76071D01*
X26864Y-75790D01*
X26808Y-75621D01*
X26751Y-75509D01*
X26639Y-75340D01*
X26583Y-75284D01*
M02*
