M48
;DRILL file {Pcbnew (2013-07-07 BZR 4022)-stable} date 12/12/2017 2:39:45 AM
;FORMAT={-:-/ absolute / metric / decimal}
FMAT,2
METRIC,TZ
T1C0.635
T2C0.991
T3C1.016
T4C1.499
T5C2.400
T6C3.048
T7C3.050
T8C3.988
T9C4.000
%
G90
G05
M71
T1
X9.Y-37.
X10.5Y-23.5
X10.5Y-52.
X10.5Y-71.
X10.5Y-90.
X10.5Y-109.
X13.Y-37.
X13.5Y-69.
X25.5Y-16.
X26.Y-39.
X28.Y-146.5
X30.5Y-14.5
X30.5Y-76.5
X31.Y-69.
X38.Y-106.
X38.5Y-115.
X51.5Y-13.5
X51.5Y-40.
X55.Y-77.
X66.5Y-38.
X67.Y-141.5
X69.Y-19.
X70.5Y-47.5
X71.Y-15.
X71.Y-100.
X72.Y-23.92
X73.Y-13.
X73.5Y-147.5
X74.Y-129.
X76.Y-4.
X77.5Y-15.
X78.Y-18.5
X79.Y-3.
X80.Y-16.
X81.5Y-1.5
X81.5Y-16.
X84.5Y-1.
X86.Y-37.
X87.Y-12.5
X88.5Y-16.
X90.Y-34.
X91.5Y-15.
X91.5Y-36.
X92.5Y-23.
X94.Y-18.
X94.Y-31.5
X94.5Y-37.
X95.5Y-145.5
X97.Y-16.
X100.945Y-17.055
X103.5Y-16.
X104.Y-39.
X105.Y-14.
X109.5Y-16.
X109.5Y-19.5
X109.5Y-84.
X110.Y-145.5
X110.5Y-85.5
X111.Y-15.
X111.Y-50.
X111.5Y-126.5
X112.Y-14.
X112.Y-39.
X128.5Y-38.
X132.5Y-37.
X135.Y-22.5
X135.5Y-37.
X152.5Y-140.
X177.Y-51.5
X177.5Y-86.
X179.5Y-84.5
X180.Y-69.5
X181.46Y-38.
X195.Y-37.
X221.5Y-128.
X224.5Y-128.
X238.5Y-9.
X245.5Y-146.
X257.5Y-8.
X276.Y-7.
X295.5Y-6.
X316.Y-13.
T2
X12.Y-20.11
X12.Y-48.11
X12.Y-67.11
X12.Y-86.11
X12.Y-105.11
X12.Y-124.11
X15.73Y-23.92
X15.73Y-51.92
X15.73Y-70.92
X15.73Y-89.92
X15.73Y-108.92
X15.73Y-127.92
X18.27Y-23.92
X18.27Y-51.92
X18.27Y-70.92
X18.27Y-89.92
X18.27Y-108.92
X18.27Y-127.92
X22.Y-20.11
X22.Y-48.11
X22.Y-67.11
X22.Y-86.11
X22.Y-105.11
X22.Y-124.11
X25.89Y-23.92
X25.89Y-31.54
X25.89Y-51.92
X25.89Y-59.54
X25.89Y-70.92
X25.89Y-78.54
X25.89Y-89.92
X25.89Y-97.54
X25.89Y-108.92
X25.89Y-116.54
X25.89Y-127.92
X25.89Y-135.54
X32.11Y-80.5
X32.11Y-90.5
X32.11Y-118.5
X32.11Y-128.5
X35.92Y-84.23
X35.92Y-86.77
X35.92Y-103.5
X35.92Y-122.23
X35.92Y-124.77
X35.92Y-141.5
X36.Y-20.11
X36.Y-48.11
X39.73Y-23.92
X39.73Y-51.92
X42.27Y-23.92
X42.27Y-51.92
X43.54Y-103.5
X43.54Y-141.5
X46.Y-20.11
X46.Y-48.11
X49.89Y-23.92
X49.89Y-31.54
X49.89Y-51.92
X49.89Y-59.54
X55.Y-20.11
X55.Y-48.11
X55.Y-67.11
X55.Y-86.11
X55.Y-105.11
X55.Y-124.11
X58.73Y-23.92
X58.73Y-51.92
X58.73Y-70.92
X58.73Y-89.92
X58.73Y-108.92
X58.73Y-127.92
X61.27Y-23.92
X61.27Y-51.92
X61.27Y-70.92
X61.27Y-89.92
X61.27Y-108.92
X61.27Y-127.92
X65.Y-20.11
X65.Y-48.11
X65.Y-67.11
X65.Y-86.11
X65.Y-105.11
X65.Y-124.11
X68.89Y-23.92
X68.89Y-31.54
X68.89Y-51.92
X68.89Y-59.54
X68.89Y-70.92
X68.89Y-78.54
X68.89Y-89.92
X68.89Y-97.54
X68.89Y-108.92
X68.89Y-116.54
X68.89Y-127.92
X68.89Y-135.54
X74.Y-20.11
X74.Y-48.11
X74.Y-67.11
X74.Y-86.11
X74.Y-105.11
X77.73Y-23.92
X77.73Y-51.92
X77.73Y-70.92
X77.73Y-89.92
X77.73Y-108.92
X80.27Y-23.92
X80.27Y-51.92
X80.27Y-70.92
X80.27Y-89.92
X80.27Y-108.92
X83.5Y-124.11
X84.Y-20.11
X84.Y-48.11
X84.Y-67.11
X84.Y-86.11
X84.Y-105.11
X87.23Y-127.92
X87.89Y-23.92
X87.89Y-31.54
X87.89Y-51.92
X87.89Y-59.54
X87.89Y-70.92
X87.89Y-78.54
X87.89Y-89.92
X87.89Y-97.54
X87.89Y-108.92
X87.89Y-116.54
X89.77Y-127.92
X93.Y-20.11
X93.Y-48.11
X93.Y-67.11
X93.Y-86.11
X93.Y-105.11
X93.5Y-124.11
X96.73Y-23.92
X96.73Y-51.92
X96.73Y-70.92
X96.73Y-89.92
X96.73Y-108.92
X99.27Y-23.92
X99.27Y-51.92
X99.27Y-70.92
X99.27Y-89.92
X99.27Y-108.92
X103.Y-20.11
X103.Y-48.11
X103.Y-67.11
X103.Y-86.11
X103.Y-105.11
X106.5Y-127.92
X106.5Y-135.54
X106.89Y-23.92
X106.89Y-31.54
X106.89Y-51.92
X106.89Y-59.54
X106.89Y-70.92
X106.89Y-78.54
X106.89Y-89.92
X106.89Y-97.54
X106.89Y-108.92
X106.89Y-116.54
X117.Y-20.11
X117.Y-48.11
X117.Y-67.11
X117.Y-124.11
X120.73Y-23.92
X120.73Y-51.92
X120.73Y-70.92
X120.73Y-127.92
X123.27Y-23.92
X123.27Y-51.92
X123.27Y-70.92
X123.27Y-127.92
X127.Y-20.11
X127.Y-48.11
X127.Y-67.11
X127.Y-124.11
X130.89Y-23.92
X130.89Y-31.54
X130.89Y-51.92
X130.89Y-59.54
X130.89Y-70.92
X130.89Y-78.54
X130.89Y-127.92
X130.89Y-135.54
X136.Y-20.11
X136.Y-48.11
X136.Y-67.11
X136.Y-105.11
X136.Y-124.11
X139.73Y-23.92
X139.73Y-51.92
X139.73Y-70.92
X139.73Y-108.92
X139.73Y-127.92
X142.27Y-23.92
X142.27Y-51.92
X142.27Y-70.92
X142.27Y-108.92
X142.27Y-127.92
X146.Y-20.11
X146.Y-48.11
X146.Y-67.11
X146.Y-105.11
X146.Y-124.11
X149.89Y-23.92
X149.89Y-31.54
X149.89Y-51.92
X149.89Y-59.54
X149.89Y-70.92
X149.89Y-78.54
X149.89Y-108.92
X149.89Y-116.54
X149.89Y-127.92
X149.89Y-135.54
X155.Y-20.11
X155.Y-48.11
X155.Y-67.11
X155.Y-124.11
X158.73Y-23.92
X158.73Y-51.92
X158.73Y-70.92
X158.73Y-127.92
X161.27Y-23.92
X161.27Y-51.92
X161.27Y-70.92
X161.27Y-127.92
X165.Y-20.11
X165.Y-48.11
X165.Y-67.11
X165.Y-124.11
X168.89Y-23.92
X168.89Y-31.54
X168.89Y-51.92
X168.89Y-59.54
X168.89Y-70.92
X168.89Y-78.54
X168.89Y-127.92
X168.89Y-135.54
X177.875Y-108.92
X177.875Y-116.54
X179.Y-20.11
X179.Y-48.11
X181.375Y-141.89
X182.73Y-23.92
X182.73Y-51.92
X183.75Y-67.11
X185.105Y-127.92
X185.27Y-23.92
X185.27Y-51.92
X186.125Y-86.11
X187.48Y-70.92
X187.645Y-127.92
X189.Y-20.11
X189.Y-48.11
X189.855Y-89.92
X190.02Y-70.92
X190.875Y-105.11
X191.375Y-141.89
X192.395Y-89.92
X192.89Y-23.92
X192.89Y-31.54
X192.89Y-51.92
X192.89Y-59.54
X193.75Y-67.11
X194.605Y-108.92
X195.265Y-127.92
X195.265Y-135.54
X196.125Y-86.11
X197.145Y-108.92
X197.64Y-70.92
X197.64Y-78.54
X198.Y-48.11
X200.015Y-89.92
X200.015Y-97.54
X200.875Y-105.11
X201.73Y-51.92
X204.27Y-51.92
X205.125Y-141.89
X207.5Y-67.11
X208.Y-48.11
X208.855Y-127.92
X211.23Y-70.92
X211.395Y-127.92
X211.89Y-51.92
X211.89Y-59.54
X212.25Y-86.11
X213.77Y-70.92
X215.125Y-141.89
X215.98Y-89.92
X217.Y-20.11
X217.Y-48.11
X217.5Y-67.11
X218.52Y-89.92
X219.015Y-127.92
X219.015Y-135.54
X220.73Y-23.92
X220.73Y-51.92
X221.39Y-70.92
X221.39Y-78.54
X221.75Y-105.11
X222.25Y-86.11
X223.27Y-23.92
X223.27Y-51.92
X225.48Y-108.92
X226.14Y-89.92
X226.14Y-97.54
X226.5Y-67.11
X227.Y-20.11
X227.Y-48.11
X228.02Y-108.92
X228.875Y-124.11
X230.23Y-70.92
X230.89Y-23.92
X230.89Y-31.54
X230.89Y-51.92
X230.89Y-59.54
X231.25Y-86.11
X231.75Y-105.11
X232.605Y-127.92
X232.77Y-70.92
X234.98Y-89.92
X235.145Y-127.92
X235.64Y-108.92
X235.64Y-116.54
X236.Y-20.11
X236.Y-48.11
X236.5Y-67.11
X237.52Y-89.92
X238.875Y-124.11
X239.73Y-23.92
X239.73Y-51.92
X240.39Y-70.92
X240.39Y-78.54
X240.75Y-105.11
X241.25Y-86.11
X242.27Y-23.92
X242.27Y-51.92
X242.765Y-127.92
X242.765Y-135.54
X244.48Y-108.92
X245.14Y-89.92
X245.14Y-97.54
X245.5Y-67.11
X246.Y-20.11
X246.Y-48.11
X247.02Y-108.92
X249.23Y-70.92
X249.89Y-23.92
X249.89Y-31.54
X249.89Y-51.92
X249.89Y-59.54
X250.25Y-86.11
X250.75Y-105.11
X251.77Y-70.92
X253.98Y-89.92
X254.64Y-108.92
X254.64Y-116.54
X255.Y-20.11
X255.Y-48.11
X255.Y-124.11
X255.5Y-67.11
X256.52Y-89.92
X258.73Y-23.92
X258.73Y-51.92
X258.73Y-127.92
X259.39Y-70.92
X259.39Y-78.54
X259.75Y-105.11
X260.25Y-86.11
X261.27Y-23.92
X261.27Y-51.92
X261.27Y-127.92
X263.48Y-108.92
X264.14Y-89.92
X264.14Y-97.54
X264.5Y-67.11
X265.Y-20.11
X265.Y-48.11
X265.Y-124.11
X266.02Y-108.92
X268.23Y-70.92
X268.89Y-23.92
X268.89Y-31.54
X268.89Y-51.92
X268.89Y-59.54
X268.89Y-127.92
X268.89Y-135.54
X269.25Y-86.11
X269.75Y-105.11
X270.77Y-70.92
X272.98Y-89.92
X273.64Y-108.92
X273.64Y-116.54
X274.Y-20.11
X274.Y-48.11
X274.5Y-67.11
X275.52Y-89.92
X277.625Y-127.92
X277.625Y-135.54
X277.73Y-23.92
X277.73Y-51.92
X278.39Y-70.92
X278.39Y-78.54
X278.75Y-105.11
X279.25Y-86.11
X280.27Y-23.92
X280.27Y-51.92
X282.48Y-108.92
X283.14Y-89.92
X283.14Y-97.54
X283.5Y-67.11
X284.Y-20.11
X284.Y-48.11
X285.02Y-108.92
X287.23Y-70.92
X287.89Y-23.92
X287.89Y-31.54
X287.89Y-51.92
X287.89Y-59.54
X288.25Y-86.11
X288.75Y-105.11
X289.77Y-70.92
X290.625Y-124.11
X291.98Y-89.92
X292.64Y-108.92
X292.64Y-116.54
X293.Y-20.11
X293.Y-48.11
X293.5Y-67.11
X294.355Y-127.92
X294.52Y-89.92
X296.73Y-23.92
X296.73Y-51.92
X296.895Y-127.92
X297.39Y-70.92
X297.39Y-78.54
X297.75Y-105.11
X298.25Y-86.11
X299.27Y-23.92
X299.27Y-51.92
X300.625Y-124.11
X301.48Y-108.92
X302.14Y-89.92
X302.14Y-97.54
X303.Y-20.11
X303.Y-48.11
X304.02Y-108.92
X306.89Y-23.92
X306.89Y-31.54
X306.89Y-51.92
X306.89Y-59.54
X307.75Y-105.11
X311.64Y-108.92
X311.64Y-116.54
X312.Y-67.11
X314.375Y-86.11
X315.73Y-70.92
X316.75Y-48.11
X318.105Y-89.92
X318.27Y-70.92
X319.125Y-105.11
X320.48Y-51.92
X320.645Y-89.92
X321.5Y-20.11
X321.5Y-124.11
X322.Y-67.11
X322.855Y-108.92
X323.02Y-51.92
X324.375Y-86.11
X325.23Y-23.92
X325.23Y-127.92
X325.395Y-108.92
X326.75Y-48.11
X327.77Y-23.92
X327.77Y-127.92
X328.265Y-89.92
X328.265Y-97.54
X329.125Y-105.11
X330.64Y-51.92
X330.64Y-59.54
X331.5Y-20.11
X331.5Y-124.11
X333.015Y-108.92
X333.015Y-116.54
X335.Y-70.92
X335.Y-78.54
X335.39Y-23.92
X335.39Y-31.54
X335.39Y-127.92
X335.39Y-135.54
T3
X71.863Y-8.897
X73.26Y-6.103
X74.657Y-8.897
X76.054Y-6.103
X77.451Y-8.897
X78.848Y-6.103
X80.245Y-8.897
X81.515Y-6.103
X83.039Y-8.897
X84.309Y-6.103
X85.706Y-8.897
X87.103Y-6.103
X88.5Y-8.897
X89.897Y-6.103
X91.294Y-8.897
X92.691Y-6.103
X94.088Y-8.897
X95.358Y-6.103
X96.882Y-8.897
X98.152Y-6.103
X99.549Y-8.897
X100.946Y-6.103
X102.343Y-8.897
X103.74Y-6.103
X105.137Y-8.897
T4
X14.46Y-34.08
X14.46Y-62.08
X14.46Y-81.08
X14.46Y-100.08
X14.46Y-119.08
X14.46Y-138.08
X20.81Y-31.54
X20.81Y-59.54
X20.81Y-78.54
X20.81Y-97.54
X20.81Y-116.54
X20.81Y-135.54
X38.46Y-34.08
X38.46Y-62.08
X43.54Y-81.69
X43.54Y-119.69
X44.81Y-31.54
X44.81Y-59.54
X46.08Y-88.04
X46.08Y-126.04
X57.46Y-34.08
X57.46Y-62.08
X57.46Y-81.08
X57.46Y-100.08
X57.46Y-119.08
X57.46Y-138.08
X63.81Y-31.54
X63.81Y-59.54
X63.81Y-78.54
X63.81Y-97.54
X63.81Y-116.54
X63.81Y-135.54
X76.46Y-34.08
X76.46Y-62.08
X76.46Y-81.08
X76.46Y-100.08
X76.46Y-119.08
X82.81Y-31.54
X82.81Y-59.54
X82.81Y-78.54
X82.81Y-97.54
X82.81Y-116.54
X85.96Y-138.08
X92.31Y-135.54
X95.46Y-34.08
X95.46Y-62.08
X95.46Y-81.08
X95.46Y-100.08
X95.46Y-119.08
X101.81Y-31.54
X101.81Y-59.54
X101.81Y-78.54
X101.81Y-97.54
X101.81Y-116.54
X119.46Y-34.08
X119.46Y-62.08
X119.46Y-81.08
X119.46Y-138.08
X125.81Y-31.54
X125.81Y-59.54
X125.81Y-78.54
X125.81Y-135.54
X138.46Y-34.08
X138.46Y-62.08
X138.46Y-81.08
X138.46Y-119.08
X138.46Y-138.08
X144.81Y-31.54
X144.81Y-59.54
X144.81Y-78.54
X144.81Y-116.54
X144.81Y-135.54
X157.46Y-34.08
X157.46Y-62.08
X157.46Y-81.08
X157.46Y-138.08
X163.81Y-31.54
X163.81Y-59.54
X163.81Y-78.54
X163.81Y-135.54
X181.46Y-34.08
X181.46Y-62.08
X183.835Y-138.08
X186.21Y-81.08
X187.81Y-31.54
X187.81Y-59.54
X188.585Y-100.08
X190.185Y-135.54
X192.56Y-78.54
X193.335Y-119.08
X194.935Y-97.54
X199.685Y-116.54
X200.46Y-62.08
X206.81Y-59.54
X207.585Y-138.08
X209.96Y-81.08
X213.935Y-135.54
X214.71Y-100.08
X216.31Y-78.54
X219.46Y-34.08
X219.46Y-62.08
X221.06Y-97.54
X224.21Y-119.08
X225.81Y-31.54
X225.81Y-59.54
X228.96Y-81.08
X230.56Y-116.54
X231.335Y-138.08
X233.71Y-100.08
X235.31Y-78.54
X237.685Y-135.54
X238.46Y-34.08
X238.46Y-62.08
X240.06Y-97.54
X243.21Y-119.08
X244.81Y-31.54
X244.81Y-59.54
X247.96Y-81.08
X249.56Y-116.54
X252.71Y-100.08
X254.31Y-78.54
X257.46Y-34.08
X257.46Y-62.08
X257.46Y-138.08
X259.06Y-97.54
X262.21Y-119.08
X263.81Y-31.54
X263.81Y-59.54
X263.81Y-135.54
X266.96Y-81.08
X268.56Y-116.54
X271.71Y-100.08
X273.31Y-78.54
X276.46Y-34.08
X276.46Y-62.08
X278.06Y-97.54
X281.21Y-119.08
X282.81Y-31.54
X282.81Y-59.54
X285.96Y-81.08
X287.56Y-116.54
X290.71Y-100.08
X292.31Y-78.54
X293.085Y-138.08
X295.46Y-34.08
X295.46Y-62.08
X297.06Y-97.54
X299.435Y-135.54
X300.21Y-119.08
X301.81Y-31.54
X301.81Y-59.54
X306.56Y-116.54
X314.46Y-81.08
X316.835Y-100.08
X319.21Y-62.08
X320.81Y-78.54
X321.585Y-119.08
X323.185Y-97.54
X323.96Y-34.08
X323.96Y-138.08
X325.56Y-59.54
X327.935Y-116.54
X330.31Y-31.54
X330.31Y-135.54
T5
X3.5Y-3.5
X3.5Y-146.5
X172.Y-3.5
X172.Y-95.
X172.Y-146.5
X340.Y-3.5
X340.Y-146.5
T6
X65.005Y-7.5
X111.995Y-7.5
T7
X34.Y-73.6
X34.Y-97.4
X34.Y-111.6
X34.Y-135.4
X76.6Y-126.
X100.4Y-126.
X183.975Y-107.
X207.775Y-107.
X283.725Y-126.
X305.1Y-69.
X307.525Y-126.
X328.9Y-69.
T8
X17.Y-29.
X17.Y-57.
X17.Y-76.
X17.Y-95.
X17.Y-114.
X17.Y-133.
X41.Y-29.
X41.Y-57.
X41.Y-85.5
X41.Y-123.5
X60.Y-29.
X60.Y-57.
X60.Y-76.
X60.Y-95.
X60.Y-114.
X60.Y-133.
X79.Y-29.
X79.Y-57.
X79.Y-76.
X79.Y-95.
X79.Y-114.
X88.5Y-133.
X98.Y-29.
X98.Y-57.
X98.Y-76.
X98.Y-95.
X98.Y-114.
X122.Y-29.
X122.Y-57.
X122.Y-76.
X122.Y-133.
X141.Y-29.
X141.Y-57.
X141.Y-76.
X141.Y-114.
X141.Y-133.
X160.Y-29.
X160.Y-57.
X160.Y-76.
X160.Y-133.
X184.Y-29.
X184.Y-57.
X186.375Y-133.
X188.75Y-76.
X191.125Y-95.
X195.875Y-114.
X203.Y-57.
X210.125Y-133.
X212.5Y-76.
X217.25Y-95.
X222.Y-29.
X222.Y-57.
X226.75Y-114.
X231.5Y-76.
X233.875Y-133.
X236.25Y-95.
X241.Y-29.
X241.Y-57.
X245.75Y-114.
X250.5Y-76.
X255.25Y-95.
X260.Y-29.
X260.Y-57.
X260.Y-133.
X264.75Y-114.
X269.5Y-76.
X274.25Y-95.
X279.Y-29.
X279.Y-57.
X283.75Y-114.
X288.5Y-76.
X293.25Y-95.
X295.625Y-133.
X298.Y-29.
X298.Y-57.
X302.75Y-114.
X317.Y-76.
X319.375Y-95.
X321.75Y-57.
X324.125Y-114.
X326.5Y-29.
X326.5Y-133.
T9
X49.24Y-73.6
X49.24Y-97.4
X49.24Y-111.6
X49.24Y-135.4
X76.6Y-141.24
X100.4Y-141.24
X183.975Y-122.24
X207.775Y-122.24
X283.725Y-141.24
X305.1Y-84.24
X307.525Y-141.24
X328.9Y-84.24
T0
M30
