G04 (created by PCBNEW (2013-07-07 BZR 4022)-stable) date 12/12/2017 2:38:17 AM*
%MOIN*%
G04 Gerber Fmt 3.4, Leading zero omitted, Abs format*
%FSLAX34Y34*%
G01*
G70*
G90*
G04 APERTURE LIST*
%ADD10C,0.00590551*%
%ADD11C,0.012*%
%ADD12C,0.008*%
G04 APERTURE END LIST*
G54D10*
G54D11*
X44942Y-4202D02*
X44942Y-4202D01*
X44942Y-4202D02*
X44942Y-1702D01*
X44942Y-1702D02*
X24692Y-1702D01*
X24692Y-1702D02*
X24692Y-4202D01*
X24692Y-4202D02*
X44892Y-4202D01*
X44892Y-4202D02*
X44942Y-4202D01*
G54D12*
X101162Y-21393D02*
X101162Y-20893D01*
X101505Y-21393D02*
X101247Y-21107D01*
X101505Y-20893D02*
X101162Y-21179D01*
X101762Y-21131D02*
X101962Y-21131D01*
X102047Y-21393D02*
X101762Y-21393D01*
X101762Y-20893D01*
X102047Y-20893D01*
X102419Y-21155D02*
X102419Y-21393D01*
X102219Y-20893D02*
X102419Y-21155D01*
X102619Y-20893D01*
X102676Y-21440D02*
X103133Y-21440D01*
X103533Y-21059D02*
X103533Y-21393D01*
X103390Y-20869D02*
X103247Y-21226D01*
X103619Y-21226D01*
X112154Y-28873D02*
X112154Y-28373D01*
X112496Y-28873D02*
X112239Y-28587D01*
X112496Y-28373D02*
X112154Y-28659D01*
X112754Y-28611D02*
X112954Y-28611D01*
X113039Y-28873D02*
X112754Y-28873D01*
X112754Y-28373D01*
X113039Y-28373D01*
X113411Y-28635D02*
X113411Y-28873D01*
X113211Y-28373D02*
X113411Y-28635D01*
X113611Y-28373D01*
X113668Y-28921D02*
X114125Y-28921D01*
X114182Y-28373D02*
X114525Y-28373D01*
X114354Y-28873D02*
X114354Y-28373D01*
X115039Y-28873D02*
X114696Y-28873D01*
X114868Y-28873D02*
X114868Y-28373D01*
X114811Y-28445D01*
X114754Y-28492D01*
X114696Y-28516D01*
X104602Y-28873D02*
X104602Y-28373D01*
X104945Y-28873D02*
X104688Y-28587D01*
X104945Y-28373D02*
X104602Y-28659D01*
X105202Y-28611D02*
X105402Y-28611D01*
X105488Y-28873D02*
X105202Y-28873D01*
X105202Y-28373D01*
X105488Y-28373D01*
X105859Y-28635D02*
X105859Y-28873D01*
X105659Y-28373D02*
X105859Y-28635D01*
X106059Y-28373D01*
X106116Y-28921D02*
X106573Y-28921D01*
X107059Y-28873D02*
X106859Y-28635D01*
X106716Y-28873D02*
X106716Y-28373D01*
X106945Y-28373D01*
X107002Y-28397D01*
X107030Y-28421D01*
X107059Y-28468D01*
X107059Y-28540D01*
X107030Y-28587D01*
X107002Y-28611D01*
X106945Y-28635D01*
X106716Y-28635D01*
X107630Y-28873D02*
X107288Y-28873D01*
X107459Y-28873D02*
X107459Y-28373D01*
X107402Y-28445D01*
X107345Y-28492D01*
X107288Y-28516D01*
X97150Y-28873D02*
X97150Y-28373D01*
X97493Y-28873D02*
X97236Y-28587D01*
X97493Y-28373D02*
X97150Y-28659D01*
X97750Y-28611D02*
X97950Y-28611D01*
X98036Y-28873D02*
X97750Y-28873D01*
X97750Y-28373D01*
X98036Y-28373D01*
X98407Y-28635D02*
X98407Y-28873D01*
X98207Y-28373D02*
X98407Y-28635D01*
X98607Y-28373D01*
X98664Y-28921D02*
X99122Y-28921D01*
X99264Y-28611D02*
X99464Y-28611D01*
X99550Y-28873D02*
X99264Y-28873D01*
X99264Y-28373D01*
X99550Y-28373D01*
X100122Y-28873D02*
X99779Y-28873D01*
X99950Y-28873D02*
X99950Y-28373D01*
X99893Y-28445D01*
X99836Y-28492D01*
X99779Y-28516D01*
X89598Y-28873D02*
X89598Y-28373D01*
X89941Y-28873D02*
X89684Y-28587D01*
X89941Y-28373D02*
X89598Y-28659D01*
X90198Y-28611D02*
X90398Y-28611D01*
X90484Y-28873D02*
X90198Y-28873D01*
X90198Y-28373D01*
X90484Y-28373D01*
X90856Y-28635D02*
X90856Y-28873D01*
X90656Y-28373D02*
X90856Y-28635D01*
X91056Y-28373D01*
X91113Y-28921D02*
X91570Y-28921D01*
X91656Y-28373D02*
X91798Y-28873D01*
X91913Y-28516D01*
X92027Y-28873D01*
X92170Y-28373D01*
X92713Y-28873D02*
X92370Y-28873D01*
X92541Y-28873D02*
X92541Y-28373D01*
X92484Y-28445D01*
X92427Y-28492D01*
X92370Y-28516D01*
X82147Y-28873D02*
X82147Y-28373D01*
X82489Y-28873D02*
X82232Y-28587D01*
X82489Y-28373D02*
X82147Y-28659D01*
X82747Y-28611D02*
X82947Y-28611D01*
X83032Y-28873D02*
X82747Y-28873D01*
X82747Y-28373D01*
X83032Y-28373D01*
X83404Y-28635D02*
X83404Y-28873D01*
X83204Y-28373D02*
X83404Y-28635D01*
X83604Y-28373D01*
X83661Y-28921D02*
X84118Y-28921D01*
X84661Y-28921D02*
X84604Y-28897D01*
X84547Y-28849D01*
X84461Y-28778D01*
X84404Y-28754D01*
X84347Y-28754D01*
X84375Y-28873D02*
X84318Y-28849D01*
X84261Y-28802D01*
X84232Y-28706D01*
X84232Y-28540D01*
X84261Y-28445D01*
X84318Y-28397D01*
X84375Y-28373D01*
X84489Y-28373D01*
X84547Y-28397D01*
X84604Y-28445D01*
X84632Y-28540D01*
X84632Y-28706D01*
X84604Y-28802D01*
X84547Y-28849D01*
X84489Y-28873D01*
X84375Y-28873D01*
X85204Y-28873D02*
X84861Y-28873D01*
X85032Y-28873D02*
X85032Y-28373D01*
X84975Y-28445D01*
X84918Y-28492D01*
X84861Y-28516D01*
X72325Y-28873D02*
X72325Y-28373D01*
X72668Y-28873D02*
X72411Y-28587D01*
X72668Y-28373D02*
X72325Y-28659D01*
X72925Y-28611D02*
X73125Y-28611D01*
X73211Y-28873D02*
X72925Y-28873D01*
X72925Y-28373D01*
X73211Y-28373D01*
X73582Y-28635D02*
X73582Y-28873D01*
X73382Y-28373D02*
X73582Y-28635D01*
X73782Y-28373D01*
X73839Y-28921D02*
X74296Y-28921D01*
X74353Y-28373D02*
X74696Y-28373D01*
X74525Y-28873D02*
X74525Y-28373D01*
X74868Y-28730D02*
X75153Y-28730D01*
X74811Y-28873D02*
X75011Y-28373D01*
X75211Y-28873D01*
X75611Y-28611D02*
X75696Y-28635D01*
X75725Y-28659D01*
X75753Y-28706D01*
X75753Y-28778D01*
X75725Y-28826D01*
X75696Y-28849D01*
X75639Y-28873D01*
X75411Y-28873D01*
X75411Y-28373D01*
X75611Y-28373D01*
X75668Y-28397D01*
X75696Y-28421D01*
X75725Y-28468D01*
X75725Y-28516D01*
X75696Y-28564D01*
X75668Y-28587D01*
X75611Y-28611D01*
X75411Y-28611D01*
X76325Y-28873D02*
X75982Y-28873D01*
X76153Y-28873D02*
X76153Y-28373D01*
X76096Y-28445D01*
X76039Y-28492D01*
X75982Y-28516D01*
X125230Y-21393D02*
X125230Y-20893D01*
X125573Y-21393D02*
X125316Y-21107D01*
X125573Y-20893D02*
X125230Y-21179D01*
X125830Y-21131D02*
X126030Y-21131D01*
X126116Y-21393D02*
X125830Y-21393D01*
X125830Y-20893D01*
X126116Y-20893D01*
X126487Y-21155D02*
X126487Y-21393D01*
X126287Y-20893D02*
X126487Y-21155D01*
X126687Y-20893D01*
X126744Y-21440D02*
X127201Y-21440D01*
X127630Y-21393D02*
X127344Y-21393D01*
X127344Y-20893D01*
X127801Y-20940D02*
X127830Y-20917D01*
X127887Y-20893D01*
X128030Y-20893D01*
X128087Y-20917D01*
X128116Y-20940D01*
X128144Y-20988D01*
X128144Y-21036D01*
X128116Y-21107D01*
X127773Y-21393D01*
X128144Y-21393D01*
X116122Y-21393D02*
X116122Y-20893D01*
X116465Y-21393D02*
X116208Y-21107D01*
X116465Y-20893D02*
X116122Y-21179D01*
X116722Y-21131D02*
X116922Y-21131D01*
X117008Y-21393D02*
X116722Y-21393D01*
X116722Y-20893D01*
X117008Y-20893D01*
X117379Y-21155D02*
X117379Y-21393D01*
X117179Y-20893D02*
X117379Y-21155D01*
X117579Y-20893D01*
X117637Y-21440D02*
X118094Y-21440D01*
X118494Y-20893D02*
X118379Y-20893D01*
X118322Y-20917D01*
X118294Y-20940D01*
X118237Y-21012D01*
X118208Y-21107D01*
X118208Y-21298D01*
X118237Y-21345D01*
X118265Y-21369D01*
X118322Y-21393D01*
X118437Y-21393D01*
X118494Y-21369D01*
X118522Y-21345D01*
X118551Y-21298D01*
X118551Y-21179D01*
X118522Y-21131D01*
X118494Y-21107D01*
X118437Y-21083D01*
X118322Y-21083D01*
X118265Y-21107D01*
X118237Y-21131D01*
X118208Y-21179D01*
X108642Y-21393D02*
X108642Y-20893D01*
X108985Y-21393D02*
X108728Y-21107D01*
X108985Y-20893D02*
X108642Y-21179D01*
X109242Y-21131D02*
X109442Y-21131D01*
X109528Y-21393D02*
X109242Y-21393D01*
X109242Y-20893D01*
X109528Y-20893D01*
X109899Y-21155D02*
X109899Y-21393D01*
X109699Y-20893D02*
X109899Y-21155D01*
X110099Y-20893D01*
X110156Y-21440D02*
X110613Y-21440D01*
X111042Y-20893D02*
X110756Y-20893D01*
X110728Y-21131D01*
X110756Y-21107D01*
X110813Y-21083D01*
X110956Y-21083D01*
X111013Y-21107D01*
X111042Y-21131D01*
X111071Y-21179D01*
X111071Y-21298D01*
X111042Y-21345D01*
X111013Y-21369D01*
X110956Y-21393D01*
X110813Y-21393D01*
X110756Y-21369D01*
X110728Y-21345D01*
X72917Y-36306D02*
X72888Y-36330D01*
X72803Y-36353D01*
X72746Y-36353D01*
X72660Y-36330D01*
X72603Y-36282D01*
X72574Y-36234D01*
X72546Y-36139D01*
X72546Y-36068D01*
X72574Y-35973D01*
X72603Y-35925D01*
X72660Y-35877D01*
X72746Y-35853D01*
X72803Y-35853D01*
X72888Y-35877D01*
X72917Y-35901D01*
X73146Y-36211D02*
X73431Y-36211D01*
X73088Y-36353D02*
X73288Y-35853D01*
X73488Y-36353D01*
X73688Y-36353D02*
X73688Y-35853D01*
X73917Y-35853D01*
X73974Y-35877D01*
X74003Y-35901D01*
X74031Y-35949D01*
X74031Y-36020D01*
X74003Y-36068D01*
X73974Y-36092D01*
X73917Y-36115D01*
X73688Y-36115D01*
X74260Y-36330D02*
X74346Y-36353D01*
X74488Y-36353D01*
X74546Y-36330D01*
X74574Y-36306D01*
X74603Y-36258D01*
X74603Y-36211D01*
X74574Y-36163D01*
X74546Y-36139D01*
X74488Y-36115D01*
X74374Y-36092D01*
X74317Y-36068D01*
X74288Y-36044D01*
X74260Y-35996D01*
X74260Y-35949D01*
X74288Y-35901D01*
X74317Y-35877D01*
X74374Y-35853D01*
X74517Y-35853D01*
X74603Y-35877D01*
X74717Y-36401D02*
X75174Y-36401D01*
X75603Y-36353D02*
X75317Y-36353D01*
X75317Y-35853D01*
X75917Y-35853D02*
X76031Y-35853D01*
X76088Y-35877D01*
X76146Y-35925D01*
X76174Y-36020D01*
X76174Y-36187D01*
X76146Y-36282D01*
X76088Y-36330D01*
X76031Y-36353D01*
X75917Y-36353D01*
X75860Y-36330D01*
X75803Y-36282D01*
X75774Y-36187D01*
X75774Y-36020D01*
X75803Y-35925D01*
X75860Y-35877D01*
X75917Y-35853D01*
X76774Y-36306D02*
X76746Y-36330D01*
X76660Y-36353D01*
X76603Y-36353D01*
X76517Y-36330D01*
X76460Y-36282D01*
X76431Y-36234D01*
X76403Y-36139D01*
X76403Y-36068D01*
X76431Y-35973D01*
X76460Y-35925D01*
X76517Y-35877D01*
X76603Y-35853D01*
X76660Y-35853D01*
X76746Y-35877D01*
X76774Y-35901D01*
X77031Y-36353D02*
X77031Y-35853D01*
X77374Y-36353D02*
X77117Y-36068D01*
X77374Y-35853D02*
X77031Y-36139D01*
X77946Y-36353D02*
X77603Y-36353D01*
X77774Y-36353D02*
X77774Y-35853D01*
X77717Y-35925D01*
X77660Y-35973D01*
X77603Y-35996D01*
X93681Y-21393D02*
X93681Y-20893D01*
X94024Y-21393D02*
X93767Y-21107D01*
X94024Y-20893D02*
X93681Y-21179D01*
X94281Y-21131D02*
X94481Y-21131D01*
X94567Y-21393D02*
X94281Y-21393D01*
X94281Y-20893D01*
X94567Y-20893D01*
X94939Y-21155D02*
X94939Y-21393D01*
X94739Y-20893D02*
X94939Y-21155D01*
X95139Y-20893D01*
X95196Y-21440D02*
X95653Y-21440D01*
X95739Y-20893D02*
X96110Y-20893D01*
X95910Y-21083D01*
X95996Y-21083D01*
X96053Y-21107D01*
X96081Y-21131D01*
X96110Y-21179D01*
X96110Y-21298D01*
X96081Y-21345D01*
X96053Y-21369D01*
X95996Y-21393D01*
X95824Y-21393D01*
X95767Y-21369D01*
X95739Y-21345D01*
X86201Y-21393D02*
X86201Y-20893D01*
X86544Y-21393D02*
X86287Y-21107D01*
X86544Y-20893D02*
X86201Y-21179D01*
X86801Y-21131D02*
X87001Y-21131D01*
X87087Y-21393D02*
X86801Y-21393D01*
X86801Y-20893D01*
X87087Y-20893D01*
X87458Y-21155D02*
X87458Y-21393D01*
X87258Y-20893D02*
X87458Y-21155D01*
X87658Y-20893D01*
X87715Y-21440D02*
X88173Y-21440D01*
X88287Y-20940D02*
X88315Y-20917D01*
X88373Y-20893D01*
X88515Y-20893D01*
X88573Y-20917D01*
X88601Y-20940D01*
X88630Y-20988D01*
X88630Y-21036D01*
X88601Y-21107D01*
X88258Y-21393D01*
X88630Y-21393D01*
X78721Y-21393D02*
X78721Y-20893D01*
X79064Y-21393D02*
X78806Y-21107D01*
X79064Y-20893D02*
X78721Y-21179D01*
X79321Y-21131D02*
X79521Y-21131D01*
X79606Y-21393D02*
X79321Y-21393D01*
X79321Y-20893D01*
X79606Y-20893D01*
X79978Y-21155D02*
X79978Y-21393D01*
X79778Y-20893D02*
X79978Y-21155D01*
X80178Y-20893D01*
X80235Y-21440D02*
X80692Y-21440D01*
X81149Y-21393D02*
X80806Y-21393D01*
X80978Y-21393D02*
X80978Y-20893D01*
X80921Y-20964D01*
X80864Y-21012D01*
X80806Y-21036D01*
X69112Y-21393D02*
X69112Y-20893D01*
X69455Y-21393D02*
X69198Y-21107D01*
X69455Y-20893D02*
X69112Y-21179D01*
X69712Y-21131D02*
X69912Y-21131D01*
X69998Y-21393D02*
X69712Y-21393D01*
X69712Y-20893D01*
X69998Y-20893D01*
X70369Y-21155D02*
X70369Y-21393D01*
X70169Y-20893D02*
X70369Y-21155D01*
X70569Y-20893D01*
X70626Y-21440D02*
X71083Y-21440D01*
X71426Y-21131D02*
X71512Y-21155D01*
X71540Y-21179D01*
X71569Y-21226D01*
X71569Y-21298D01*
X71540Y-21345D01*
X71512Y-21369D01*
X71455Y-21393D01*
X71226Y-21393D01*
X71226Y-20893D01*
X71426Y-20893D01*
X71483Y-20917D01*
X71512Y-20940D01*
X71540Y-20988D01*
X71540Y-21036D01*
X71512Y-21083D01*
X71483Y-21107D01*
X71426Y-21131D01*
X71226Y-21131D01*
X71798Y-21250D02*
X72083Y-21250D01*
X71740Y-21393D02*
X71940Y-20893D01*
X72140Y-21393D01*
X72683Y-21345D02*
X72655Y-21369D01*
X72569Y-21393D01*
X72512Y-21393D01*
X72426Y-21369D01*
X72369Y-21321D01*
X72340Y-21274D01*
X72312Y-21179D01*
X72312Y-21107D01*
X72340Y-21012D01*
X72369Y-20964D01*
X72426Y-20917D01*
X72512Y-20893D01*
X72569Y-20893D01*
X72655Y-20917D01*
X72683Y-20940D01*
X72940Y-21393D02*
X72940Y-20893D01*
X73283Y-21393D02*
X73026Y-21107D01*
X73283Y-20893D02*
X72940Y-21179D01*
X73455Y-20893D02*
X73798Y-20893D01*
X73626Y-21393D02*
X73626Y-20893D01*
X73998Y-21393D02*
X73998Y-20893D01*
X74626Y-21345D02*
X74598Y-21369D01*
X74512Y-21393D01*
X74455Y-21393D01*
X74369Y-21369D01*
X74312Y-21321D01*
X74283Y-21274D01*
X74255Y-21179D01*
X74255Y-21107D01*
X74283Y-21012D01*
X74312Y-20964D01*
X74369Y-20917D01*
X74455Y-20893D01*
X74512Y-20893D01*
X74598Y-20917D01*
X74626Y-20940D01*
X74883Y-21393D02*
X74883Y-20893D01*
X75226Y-21393D02*
X74969Y-21107D01*
X75226Y-20893D02*
X74883Y-21179D01*
X75798Y-21393D02*
X75455Y-21393D01*
X75626Y-21393D02*
X75626Y-20893D01*
X75569Y-20964D01*
X75512Y-21012D01*
X75455Y-21036D01*
X127100Y-10369D02*
X127100Y-9869D01*
X127443Y-10369D02*
X127186Y-10083D01*
X127443Y-9869D02*
X127100Y-10155D01*
X127700Y-10107D02*
X127900Y-10107D01*
X127986Y-10369D02*
X127700Y-10369D01*
X127700Y-9869D01*
X127986Y-9869D01*
X128357Y-10131D02*
X128357Y-10369D01*
X128157Y-9869D02*
X128357Y-10131D01*
X128557Y-9869D01*
X128614Y-10417D02*
X129071Y-10417D01*
X129500Y-10369D02*
X129214Y-10369D01*
X129214Y-9869D01*
X130014Y-10369D02*
X129671Y-10369D01*
X129843Y-10369D02*
X129843Y-9869D01*
X129786Y-9941D01*
X129729Y-9988D01*
X129671Y-10012D01*
X115865Y-10369D02*
X115865Y-9869D01*
X116208Y-10369D02*
X115951Y-10083D01*
X116208Y-9869D02*
X115865Y-10155D01*
X116465Y-10107D02*
X116665Y-10107D01*
X116751Y-10369D02*
X116465Y-10369D01*
X116465Y-9869D01*
X116751Y-9869D01*
X117122Y-10131D02*
X117122Y-10369D01*
X116922Y-9869D02*
X117122Y-10131D01*
X117322Y-9869D01*
X117379Y-10417D02*
X117837Y-10417D01*
X118179Y-10107D02*
X117979Y-10107D01*
X117979Y-10369D02*
X117979Y-9869D01*
X118265Y-9869D01*
X118779Y-9869D02*
X118494Y-9869D01*
X118465Y-10107D01*
X118494Y-10083D01*
X118551Y-10060D01*
X118694Y-10060D01*
X118751Y-10083D01*
X118779Y-10107D01*
X118808Y-10155D01*
X118808Y-10274D01*
X118779Y-10322D01*
X118751Y-10345D01*
X118694Y-10369D01*
X118551Y-10369D01*
X118494Y-10345D01*
X118465Y-10322D01*
X108385Y-10369D02*
X108385Y-9869D01*
X108728Y-10369D02*
X108471Y-10083D01*
X108728Y-9869D02*
X108385Y-10155D01*
X108985Y-10107D02*
X109185Y-10107D01*
X109271Y-10369D02*
X108985Y-10369D01*
X108985Y-9869D01*
X109271Y-9869D01*
X109642Y-10131D02*
X109642Y-10369D01*
X109442Y-9869D02*
X109642Y-10131D01*
X109842Y-9869D01*
X109899Y-10417D02*
X110356Y-10417D01*
X110699Y-10107D02*
X110499Y-10107D01*
X110499Y-10369D02*
X110499Y-9869D01*
X110785Y-9869D01*
X111271Y-10036D02*
X111271Y-10369D01*
X111128Y-9845D02*
X110985Y-10203D01*
X111356Y-10203D01*
X100905Y-10369D02*
X100905Y-9869D01*
X101247Y-10369D02*
X100990Y-10083D01*
X101247Y-9869D02*
X100905Y-10155D01*
X101505Y-10107D02*
X101705Y-10107D01*
X101790Y-10369D02*
X101505Y-10369D01*
X101505Y-9869D01*
X101790Y-9869D01*
X102162Y-10131D02*
X102162Y-10369D01*
X101962Y-9869D02*
X102162Y-10131D01*
X102362Y-9869D01*
X102419Y-10417D02*
X102876Y-10417D01*
X103219Y-10107D02*
X103019Y-10107D01*
X103019Y-10369D02*
X103019Y-9869D01*
X103305Y-9869D01*
X103476Y-9869D02*
X103847Y-9869D01*
X103647Y-10060D01*
X103733Y-10060D01*
X103790Y-10083D01*
X103819Y-10107D01*
X103847Y-10155D01*
X103847Y-10274D01*
X103819Y-10322D01*
X103790Y-10345D01*
X103733Y-10369D01*
X103562Y-10369D01*
X103505Y-10345D01*
X103476Y-10322D01*
X93424Y-10369D02*
X93424Y-9869D01*
X93767Y-10369D02*
X93510Y-10083D01*
X93767Y-9869D02*
X93424Y-10155D01*
X94024Y-10107D02*
X94224Y-10107D01*
X94310Y-10369D02*
X94024Y-10369D01*
X94024Y-9869D01*
X94310Y-9869D01*
X94681Y-10131D02*
X94681Y-10369D01*
X94481Y-9869D02*
X94681Y-10131D01*
X94881Y-9869D01*
X94939Y-10417D02*
X95396Y-10417D01*
X95739Y-10107D02*
X95539Y-10107D01*
X95539Y-10369D02*
X95539Y-9869D01*
X95824Y-9869D01*
X96024Y-9917D02*
X96053Y-9893D01*
X96110Y-9869D01*
X96253Y-9869D01*
X96310Y-9893D01*
X96339Y-9917D01*
X96367Y-9964D01*
X96367Y-10012D01*
X96339Y-10083D01*
X95996Y-10369D01*
X96367Y-10369D01*
X102732Y-43834D02*
X102732Y-43334D01*
X103075Y-43834D02*
X102817Y-43548D01*
X103075Y-43334D02*
X102732Y-43619D01*
X103332Y-43572D02*
X103532Y-43572D01*
X103617Y-43834D02*
X103332Y-43834D01*
X103332Y-43334D01*
X103617Y-43334D01*
X103989Y-43596D02*
X103989Y-43834D01*
X103789Y-43334D02*
X103989Y-43596D01*
X104189Y-43334D01*
X104246Y-43881D02*
X104703Y-43881D01*
X105189Y-43786D02*
X105160Y-43810D01*
X105075Y-43834D01*
X105017Y-43834D01*
X104932Y-43810D01*
X104875Y-43762D01*
X104846Y-43715D01*
X104817Y-43619D01*
X104817Y-43548D01*
X104846Y-43453D01*
X104875Y-43405D01*
X104932Y-43358D01*
X105017Y-43334D01*
X105075Y-43334D01*
X105160Y-43358D01*
X105189Y-43381D01*
X105760Y-43834D02*
X105417Y-43834D01*
X105589Y-43834D02*
X105589Y-43334D01*
X105532Y-43405D01*
X105475Y-43453D01*
X105417Y-43477D01*
X127100Y-51314D02*
X127100Y-50814D01*
X127443Y-51314D02*
X127186Y-51028D01*
X127443Y-50814D02*
X127100Y-51100D01*
X127700Y-51052D02*
X127900Y-51052D01*
X127986Y-51314D02*
X127700Y-51314D01*
X127700Y-50814D01*
X127986Y-50814D01*
X128357Y-51076D02*
X128357Y-51314D01*
X128157Y-50814D02*
X128357Y-51076D01*
X128557Y-50814D01*
X128614Y-51362D02*
X129071Y-51362D01*
X129500Y-51314D02*
X129214Y-51314D01*
X129214Y-50814D01*
X129957Y-50814D02*
X129843Y-50814D01*
X129786Y-50838D01*
X129757Y-50862D01*
X129700Y-50933D01*
X129671Y-51028D01*
X129671Y-51219D01*
X129700Y-51266D01*
X129729Y-51290D01*
X129786Y-51314D01*
X129900Y-51314D01*
X129957Y-51290D01*
X129986Y-51266D01*
X130014Y-51219D01*
X130014Y-51100D01*
X129986Y-51052D01*
X129957Y-51028D01*
X129900Y-51005D01*
X129786Y-51005D01*
X129729Y-51028D01*
X129700Y-51052D01*
X129671Y-51100D01*
X99833Y-51314D02*
X99547Y-51314D01*
X99547Y-50814D01*
X100033Y-51052D02*
X100233Y-51052D01*
X100319Y-51314D02*
X100033Y-51314D01*
X100033Y-50814D01*
X100319Y-50814D01*
X100776Y-51052D02*
X100576Y-51052D01*
X100576Y-51314D02*
X100576Y-50814D01*
X100862Y-50814D01*
X101005Y-50814D02*
X101347Y-50814D01*
X101176Y-51314D02*
X101176Y-50814D01*
X101405Y-51362D02*
X101862Y-51362D01*
X102005Y-51314D02*
X102005Y-50814D01*
X102005Y-51052D02*
X102347Y-51052D01*
X102347Y-51314D02*
X102347Y-50814D01*
X102747Y-51076D02*
X102747Y-51314D01*
X102547Y-50814D02*
X102747Y-51076D01*
X102947Y-50814D01*
X103147Y-51314D02*
X103147Y-50814D01*
X103376Y-50814D01*
X103433Y-50838D01*
X103462Y-50862D01*
X103490Y-50909D01*
X103490Y-50981D01*
X103462Y-51028D01*
X103433Y-51052D01*
X103376Y-51076D01*
X103147Y-51076D01*
X103747Y-51052D02*
X103947Y-51052D01*
X104033Y-51314D02*
X103747Y-51314D01*
X103747Y-50814D01*
X104033Y-50814D01*
X104633Y-51314D02*
X104433Y-51076D01*
X104290Y-51314D02*
X104290Y-50814D01*
X104519Y-50814D01*
X104576Y-50838D01*
X104605Y-50862D01*
X104633Y-50909D01*
X104633Y-50981D01*
X104605Y-51028D01*
X104576Y-51052D01*
X104519Y-51076D01*
X104290Y-51076D01*
X105205Y-51314D02*
X104862Y-51314D01*
X105033Y-51314D02*
X105033Y-50814D01*
X104976Y-50886D01*
X104919Y-50933D01*
X104862Y-50957D01*
X90262Y-51314D02*
X89976Y-51314D01*
X89976Y-50814D01*
X90462Y-51052D02*
X90662Y-51052D01*
X90748Y-51314D02*
X90462Y-51314D01*
X90462Y-50814D01*
X90748Y-50814D01*
X91205Y-51052D02*
X91005Y-51052D01*
X91005Y-51314D02*
X91005Y-50814D01*
X91291Y-50814D01*
X91433Y-50814D02*
X91776Y-50814D01*
X91605Y-51314D02*
X91605Y-50814D01*
X91833Y-51362D02*
X92291Y-51362D01*
X92405Y-51171D02*
X92691Y-51171D01*
X92348Y-51314D02*
X92548Y-50814D01*
X92748Y-51314D01*
X93233Y-51314D02*
X92948Y-51314D01*
X92948Y-50814D01*
X93348Y-50814D02*
X93691Y-50814D01*
X93519Y-51314D02*
X93519Y-50814D01*
X94205Y-51314D02*
X93862Y-51314D01*
X94033Y-51314D02*
X94033Y-50814D01*
X93976Y-50886D01*
X93919Y-50933D01*
X93862Y-50957D01*
X126165Y-43834D02*
X126165Y-43334D01*
X126508Y-43834D02*
X126251Y-43548D01*
X126508Y-43334D02*
X126165Y-43619D01*
X126765Y-43572D02*
X126965Y-43572D01*
X127051Y-43834D02*
X126765Y-43834D01*
X126765Y-43334D01*
X127051Y-43334D01*
X127422Y-43596D02*
X127422Y-43834D01*
X127222Y-43334D02*
X127422Y-43596D01*
X127622Y-43334D01*
X127679Y-43881D02*
X128136Y-43881D01*
X128565Y-43834D02*
X128279Y-43834D01*
X128279Y-43334D01*
X129051Y-43334D02*
X128765Y-43334D01*
X128736Y-43572D01*
X128765Y-43548D01*
X128822Y-43524D01*
X128965Y-43524D01*
X129022Y-43548D01*
X129051Y-43572D01*
X129079Y-43619D01*
X129079Y-43739D01*
X129051Y-43786D01*
X129022Y-43810D01*
X128965Y-43834D01*
X128822Y-43834D01*
X128765Y-43810D01*
X128736Y-43786D01*
X117692Y-43834D02*
X117692Y-43334D01*
X118035Y-43834D02*
X117778Y-43548D01*
X118035Y-43334D02*
X117692Y-43619D01*
X118292Y-43572D02*
X118492Y-43572D01*
X118578Y-43834D02*
X118292Y-43834D01*
X118292Y-43334D01*
X118578Y-43334D01*
X118950Y-43596D02*
X118950Y-43834D01*
X118750Y-43334D02*
X118950Y-43596D01*
X119150Y-43334D01*
X119207Y-43881D02*
X119664Y-43881D01*
X120007Y-43572D02*
X120092Y-43596D01*
X120121Y-43619D01*
X120150Y-43667D01*
X120150Y-43739D01*
X120121Y-43786D01*
X120092Y-43810D01*
X120035Y-43834D01*
X119807Y-43834D01*
X119807Y-43334D01*
X120007Y-43334D01*
X120064Y-43358D01*
X120092Y-43381D01*
X120121Y-43429D01*
X120121Y-43477D01*
X120092Y-43524D01*
X120064Y-43548D01*
X120007Y-43572D01*
X119807Y-43572D01*
X120721Y-43834D02*
X120378Y-43834D01*
X120550Y-43834D02*
X120550Y-43334D01*
X120492Y-43405D01*
X120435Y-43453D01*
X120378Y-43477D01*
X110255Y-43834D02*
X110255Y-43334D01*
X110598Y-43834D02*
X110341Y-43548D01*
X110598Y-43334D02*
X110255Y-43619D01*
X110855Y-43572D02*
X111055Y-43572D01*
X111141Y-43834D02*
X110855Y-43834D01*
X110855Y-43334D01*
X111141Y-43334D01*
X111512Y-43596D02*
X111512Y-43834D01*
X111312Y-43334D02*
X111512Y-43596D01*
X111712Y-43334D01*
X111769Y-43881D02*
X112226Y-43881D01*
X112284Y-43334D02*
X112484Y-43834D01*
X112684Y-43334D01*
X113198Y-43834D02*
X112855Y-43834D01*
X113026Y-43834D02*
X113026Y-43334D01*
X112969Y-43405D01*
X112912Y-43453D01*
X112855Y-43477D01*
X85944Y-10369D02*
X85944Y-9869D01*
X86287Y-10369D02*
X86030Y-10083D01*
X86287Y-9869D02*
X85944Y-10155D01*
X86544Y-10107D02*
X86744Y-10107D01*
X86830Y-10369D02*
X86544Y-10369D01*
X86544Y-9869D01*
X86830Y-9869D01*
X87201Y-10131D02*
X87201Y-10369D01*
X87001Y-9869D02*
X87201Y-10131D01*
X87401Y-9869D01*
X87458Y-10417D02*
X87915Y-10417D01*
X88258Y-10107D02*
X88058Y-10107D01*
X88058Y-10369D02*
X88058Y-9869D01*
X88344Y-9869D01*
X88887Y-10369D02*
X88544Y-10369D01*
X88715Y-10369D02*
X88715Y-9869D01*
X88658Y-9941D01*
X88601Y-9988D01*
X88544Y-10012D01*
X95266Y-43834D02*
X95266Y-43334D01*
X95609Y-43834D02*
X95351Y-43548D01*
X95609Y-43334D02*
X95266Y-43619D01*
X95866Y-43572D02*
X96066Y-43572D01*
X96151Y-43834D02*
X95866Y-43834D01*
X95866Y-43334D01*
X96151Y-43334D01*
X96523Y-43596D02*
X96523Y-43834D01*
X96323Y-43334D02*
X96523Y-43596D01*
X96723Y-43334D01*
X96780Y-43881D02*
X97237Y-43881D01*
X97323Y-43334D02*
X97723Y-43834D01*
X97723Y-43334D02*
X97323Y-43834D01*
X98266Y-43834D02*
X97923Y-43834D01*
X98094Y-43834D02*
X98094Y-43334D01*
X98037Y-43405D01*
X97980Y-43453D01*
X97923Y-43477D01*
X87785Y-43834D02*
X87785Y-43334D01*
X88128Y-43834D02*
X87871Y-43548D01*
X88128Y-43334D02*
X87785Y-43619D01*
X88385Y-43572D02*
X88585Y-43572D01*
X88671Y-43834D02*
X88385Y-43834D01*
X88385Y-43334D01*
X88671Y-43334D01*
X89043Y-43596D02*
X89043Y-43834D01*
X88843Y-43334D02*
X89043Y-43596D01*
X89243Y-43334D01*
X89300Y-43881D02*
X89757Y-43881D01*
X89843Y-43334D02*
X90243Y-43334D01*
X89843Y-43834D01*
X90243Y-43834D01*
X90785Y-43834D02*
X90443Y-43834D01*
X90614Y-43834D02*
X90614Y-43334D01*
X90557Y-43405D01*
X90500Y-43453D01*
X90443Y-43477D01*
X124295Y-36353D02*
X124295Y-35853D01*
X124638Y-36353D02*
X124381Y-36068D01*
X124638Y-35853D02*
X124295Y-36139D01*
X124895Y-36092D02*
X125095Y-36092D01*
X125181Y-36353D02*
X124895Y-36353D01*
X124895Y-35853D01*
X125181Y-35853D01*
X125552Y-36115D02*
X125552Y-36353D01*
X125352Y-35853D02*
X125552Y-36115D01*
X125752Y-35853D01*
X125809Y-36401D02*
X126266Y-36401D01*
X126695Y-36353D02*
X126409Y-36353D01*
X126409Y-35853D01*
X127152Y-36020D02*
X127152Y-36353D01*
X127009Y-35830D02*
X126866Y-36187D01*
X127238Y-36187D01*
X113952Y-36353D02*
X113952Y-35853D01*
X114295Y-36353D02*
X114038Y-36068D01*
X114295Y-35853D02*
X113952Y-36139D01*
X114552Y-36092D02*
X114752Y-36092D01*
X114838Y-36353D02*
X114552Y-36353D01*
X114552Y-35853D01*
X114838Y-35853D01*
X115209Y-36115D02*
X115209Y-36353D01*
X115009Y-35853D02*
X115209Y-36115D01*
X115409Y-35853D01*
X115467Y-36401D02*
X115924Y-36401D01*
X116381Y-35877D02*
X116324Y-35853D01*
X116238Y-35853D01*
X116152Y-35877D01*
X116095Y-35925D01*
X116067Y-35973D01*
X116038Y-36068D01*
X116038Y-36139D01*
X116067Y-36234D01*
X116095Y-36282D01*
X116152Y-36330D01*
X116238Y-36353D01*
X116295Y-36353D01*
X116381Y-36330D01*
X116409Y-36306D01*
X116409Y-36139D01*
X116295Y-36139D01*
X116981Y-36353D02*
X116638Y-36353D01*
X116809Y-36353D02*
X116809Y-35853D01*
X116752Y-35925D01*
X116695Y-35973D01*
X116638Y-35996D01*
X106515Y-36353D02*
X106515Y-35853D01*
X106858Y-36353D02*
X106601Y-36068D01*
X106858Y-35853D02*
X106515Y-36139D01*
X107115Y-36092D02*
X107315Y-36092D01*
X107401Y-36353D02*
X107115Y-36353D01*
X107115Y-35853D01*
X107401Y-35853D01*
X107772Y-36115D02*
X107772Y-36353D01*
X107572Y-35853D02*
X107772Y-36115D01*
X107972Y-35853D01*
X108029Y-36401D02*
X108486Y-36401D01*
X108829Y-36092D02*
X108629Y-36092D01*
X108629Y-36353D02*
X108629Y-35853D01*
X108915Y-35853D01*
X109401Y-35853D02*
X109286Y-35853D01*
X109229Y-35877D01*
X109201Y-35901D01*
X109143Y-35973D01*
X109115Y-36068D01*
X109115Y-36258D01*
X109143Y-36306D01*
X109172Y-36330D01*
X109229Y-36353D01*
X109343Y-36353D01*
X109401Y-36330D01*
X109429Y-36306D01*
X109458Y-36258D01*
X109458Y-36139D01*
X109429Y-36092D01*
X109401Y-36068D01*
X109343Y-36044D01*
X109229Y-36044D01*
X109172Y-36068D01*
X109143Y-36092D01*
X109115Y-36139D01*
X98992Y-36353D02*
X98992Y-35853D01*
X99334Y-36353D02*
X99077Y-36068D01*
X99334Y-35853D02*
X98992Y-36139D01*
X99592Y-36092D02*
X99792Y-36092D01*
X99877Y-36353D02*
X99592Y-36353D01*
X99592Y-35853D01*
X99877Y-35853D01*
X100249Y-36115D02*
X100249Y-36353D01*
X100049Y-35853D02*
X100249Y-36115D01*
X100449Y-35853D01*
X100506Y-36401D02*
X100963Y-36401D01*
X101106Y-36353D02*
X101106Y-35853D01*
X101249Y-35853D01*
X101334Y-35877D01*
X101392Y-35925D01*
X101420Y-35973D01*
X101449Y-36068D01*
X101449Y-36139D01*
X101420Y-36234D01*
X101392Y-36282D01*
X101334Y-36330D01*
X101249Y-36353D01*
X101106Y-36353D01*
X102020Y-36353D02*
X101677Y-36353D01*
X101849Y-36353D02*
X101849Y-35853D01*
X101792Y-35925D01*
X101734Y-35973D01*
X101677Y-35996D01*
X91526Y-36353D02*
X91526Y-35853D01*
X91868Y-36353D02*
X91611Y-36068D01*
X91868Y-35853D02*
X91526Y-36139D01*
X92126Y-36092D02*
X92326Y-36092D01*
X92411Y-36353D02*
X92126Y-36353D01*
X92126Y-35853D01*
X92411Y-35853D01*
X92783Y-36115D02*
X92783Y-36353D01*
X92583Y-35853D02*
X92783Y-36115D01*
X92983Y-35853D01*
X93040Y-36401D02*
X93497Y-36401D01*
X93611Y-36330D02*
X93697Y-36353D01*
X93840Y-36353D01*
X93897Y-36330D01*
X93926Y-36306D01*
X93954Y-36258D01*
X93954Y-36211D01*
X93926Y-36163D01*
X93897Y-36139D01*
X93840Y-36115D01*
X93726Y-36092D01*
X93668Y-36068D01*
X93640Y-36044D01*
X93611Y-35996D01*
X93611Y-35949D01*
X93640Y-35901D01*
X93668Y-35877D01*
X93726Y-35853D01*
X93868Y-35853D01*
X93954Y-35877D01*
X94526Y-36353D02*
X94183Y-36353D01*
X94354Y-36353D02*
X94354Y-35853D01*
X94297Y-35925D01*
X94240Y-35973D01*
X94183Y-35996D01*
X84074Y-36353D02*
X84074Y-35853D01*
X84417Y-36353D02*
X84160Y-36068D01*
X84417Y-35853D02*
X84074Y-36139D01*
X84674Y-36092D02*
X84874Y-36092D01*
X84960Y-36353D02*
X84674Y-36353D01*
X84674Y-35853D01*
X84960Y-35853D01*
X85331Y-36115D02*
X85331Y-36353D01*
X85131Y-35853D02*
X85331Y-36115D01*
X85531Y-35853D01*
X85588Y-36401D02*
X86045Y-36401D01*
X86160Y-36211D02*
X86445Y-36211D01*
X86102Y-36353D02*
X86302Y-35853D01*
X86502Y-36353D01*
X87017Y-36353D02*
X86674Y-36353D01*
X86845Y-36353D02*
X86845Y-35853D01*
X86788Y-35925D01*
X86731Y-35973D01*
X86674Y-35996D01*
X13398Y-21393D02*
X13398Y-20893D01*
X13741Y-21393D01*
X13741Y-20893D01*
X14027Y-20893D02*
X14027Y-21298D01*
X14056Y-21345D01*
X14084Y-21369D01*
X14141Y-21393D01*
X14256Y-21393D01*
X14313Y-21369D01*
X14341Y-21345D01*
X14370Y-21298D01*
X14370Y-20893D01*
X14656Y-21393D02*
X14656Y-20893D01*
X14856Y-21250D01*
X15056Y-20893D01*
X15056Y-21393D01*
X15198Y-21440D02*
X15656Y-21440D01*
X15798Y-21393D02*
X15798Y-20893D01*
X15998Y-21250D01*
X16198Y-20893D01*
X16198Y-21393D01*
X16484Y-21393D02*
X16484Y-20893D01*
X16770Y-21393D02*
X16770Y-20893D01*
X17113Y-21393D01*
X17113Y-20893D01*
X17398Y-20893D02*
X17398Y-21298D01*
X17427Y-21345D01*
X17456Y-21369D01*
X17513Y-21393D01*
X17627Y-21393D01*
X17684Y-21369D01*
X17713Y-21345D01*
X17741Y-21298D01*
X17741Y-20893D01*
X17998Y-21369D02*
X18084Y-21393D01*
X18227Y-21393D01*
X18284Y-21369D01*
X18313Y-21345D01*
X18341Y-21298D01*
X18341Y-21250D01*
X18313Y-21202D01*
X18284Y-21179D01*
X18227Y-21155D01*
X18113Y-21131D01*
X18056Y-21107D01*
X18027Y-21083D01*
X17998Y-21036D01*
X17998Y-20988D01*
X18027Y-20940D01*
X18056Y-20917D01*
X18113Y-20893D01*
X18256Y-20893D01*
X18341Y-20917D01*
X18913Y-21393D02*
X18570Y-21393D01*
X18741Y-21393D02*
X18741Y-20893D01*
X18684Y-20964D01*
X18627Y-21012D01*
X18570Y-21036D01*
X37239Y-36353D02*
X37239Y-35853D01*
X37582Y-36353D01*
X37582Y-35853D01*
X37868Y-35853D02*
X37868Y-36258D01*
X37896Y-36306D01*
X37925Y-36330D01*
X37982Y-36353D01*
X38096Y-36353D01*
X38154Y-36330D01*
X38182Y-36306D01*
X38211Y-36258D01*
X38211Y-35853D01*
X38496Y-36353D02*
X38496Y-35853D01*
X38696Y-36211D01*
X38896Y-35853D01*
X38896Y-36353D01*
X39039Y-36401D02*
X39496Y-36401D01*
X39896Y-35853D02*
X39782Y-35853D01*
X39725Y-35877D01*
X39696Y-35901D01*
X39639Y-35973D01*
X39611Y-36068D01*
X39611Y-36258D01*
X39639Y-36306D01*
X39668Y-36330D01*
X39725Y-36353D01*
X39839Y-36353D01*
X39896Y-36330D01*
X39925Y-36306D01*
X39954Y-36258D01*
X39954Y-36139D01*
X39925Y-36092D01*
X39896Y-36068D01*
X39839Y-36044D01*
X39725Y-36044D01*
X39668Y-36068D01*
X39639Y-36092D01*
X39611Y-36139D01*
X29759Y-36353D02*
X29759Y-35853D01*
X30102Y-36353D01*
X30102Y-35853D01*
X30388Y-35853D02*
X30388Y-36258D01*
X30416Y-36306D01*
X30445Y-36330D01*
X30502Y-36353D01*
X30616Y-36353D01*
X30673Y-36330D01*
X30702Y-36306D01*
X30730Y-36258D01*
X30730Y-35853D01*
X31016Y-36353D02*
X31016Y-35853D01*
X31216Y-36211D01*
X31416Y-35853D01*
X31416Y-36353D01*
X31559Y-36401D02*
X32016Y-36401D01*
X32445Y-35853D02*
X32159Y-35853D01*
X32130Y-36092D01*
X32159Y-36068D01*
X32216Y-36044D01*
X32359Y-36044D01*
X32416Y-36068D01*
X32445Y-36092D01*
X32473Y-36139D01*
X32473Y-36258D01*
X32445Y-36306D01*
X32416Y-36330D01*
X32359Y-36353D01*
X32216Y-36353D01*
X32159Y-36330D01*
X32130Y-36306D01*
X22279Y-36353D02*
X22279Y-35853D01*
X22622Y-36353D01*
X22622Y-35853D01*
X22907Y-35853D02*
X22907Y-36258D01*
X22936Y-36306D01*
X22964Y-36330D01*
X23022Y-36353D01*
X23136Y-36353D01*
X23193Y-36330D01*
X23222Y-36306D01*
X23250Y-36258D01*
X23250Y-35853D01*
X23536Y-36353D02*
X23536Y-35853D01*
X23736Y-36211D01*
X23936Y-35853D01*
X23936Y-36353D01*
X24079Y-36401D02*
X24536Y-36401D01*
X24936Y-36020D02*
X24936Y-36353D01*
X24793Y-35830D02*
X24650Y-36187D01*
X25022Y-36187D01*
X37239Y-28873D02*
X37239Y-28373D01*
X37582Y-28873D01*
X37582Y-28373D01*
X37868Y-28373D02*
X37868Y-28778D01*
X37896Y-28826D01*
X37925Y-28849D01*
X37982Y-28873D01*
X38096Y-28873D01*
X38154Y-28849D01*
X38182Y-28826D01*
X38211Y-28778D01*
X38211Y-28373D01*
X38496Y-28873D02*
X38496Y-28373D01*
X38696Y-28730D01*
X38896Y-28373D01*
X38896Y-28873D01*
X39039Y-28921D02*
X39496Y-28921D01*
X39668Y-28873D02*
X39782Y-28873D01*
X39839Y-28849D01*
X39868Y-28826D01*
X39925Y-28754D01*
X39954Y-28659D01*
X39954Y-28468D01*
X39925Y-28421D01*
X39896Y-28397D01*
X39839Y-28373D01*
X39725Y-28373D01*
X39668Y-28397D01*
X39639Y-28421D01*
X39611Y-28468D01*
X39611Y-28587D01*
X39639Y-28635D01*
X39668Y-28659D01*
X39725Y-28683D01*
X39839Y-28683D01*
X39896Y-28659D01*
X39925Y-28635D01*
X39954Y-28587D01*
X29759Y-28873D02*
X29759Y-28373D01*
X30102Y-28873D01*
X30102Y-28373D01*
X30388Y-28373D02*
X30388Y-28778D01*
X30416Y-28826D01*
X30445Y-28849D01*
X30502Y-28873D01*
X30616Y-28873D01*
X30673Y-28849D01*
X30702Y-28826D01*
X30730Y-28778D01*
X30730Y-28373D01*
X31016Y-28873D02*
X31016Y-28373D01*
X31216Y-28730D01*
X31416Y-28373D01*
X31416Y-28873D01*
X31559Y-28921D02*
X32016Y-28921D01*
X32245Y-28587D02*
X32188Y-28564D01*
X32159Y-28540D01*
X32130Y-28492D01*
X32130Y-28468D01*
X32159Y-28421D01*
X32188Y-28397D01*
X32245Y-28373D01*
X32359Y-28373D01*
X32416Y-28397D01*
X32445Y-28421D01*
X32473Y-28468D01*
X32473Y-28492D01*
X32445Y-28540D01*
X32416Y-28564D01*
X32359Y-28587D01*
X32245Y-28587D01*
X32188Y-28611D01*
X32159Y-28635D01*
X32130Y-28683D01*
X32130Y-28778D01*
X32159Y-28826D01*
X32188Y-28849D01*
X32245Y-28873D01*
X32359Y-28873D01*
X32416Y-28849D01*
X32445Y-28826D01*
X32473Y-28778D01*
X32473Y-28683D01*
X32445Y-28635D01*
X32416Y-28611D01*
X32359Y-28587D01*
X22279Y-28873D02*
X22279Y-28373D01*
X22622Y-28873D01*
X22622Y-28373D01*
X22907Y-28373D02*
X22907Y-28778D01*
X22936Y-28826D01*
X22964Y-28849D01*
X23022Y-28873D01*
X23136Y-28873D01*
X23193Y-28849D01*
X23222Y-28826D01*
X23250Y-28778D01*
X23250Y-28373D01*
X23536Y-28873D02*
X23536Y-28373D01*
X23736Y-28730D01*
X23936Y-28373D01*
X23936Y-28873D01*
X24079Y-28921D02*
X24536Y-28921D01*
X24622Y-28373D02*
X25022Y-28373D01*
X24764Y-28873D01*
X36082Y-21393D02*
X36082Y-20893D01*
X36425Y-21393D01*
X36425Y-20893D01*
X36711Y-20893D02*
X36711Y-21298D01*
X36739Y-21345D01*
X36768Y-21369D01*
X36825Y-21393D01*
X36939Y-21393D01*
X36996Y-21369D01*
X37025Y-21345D01*
X37054Y-21298D01*
X37054Y-20893D01*
X37339Y-21393D02*
X37339Y-20893D01*
X37539Y-21250D01*
X37739Y-20893D01*
X37739Y-21393D01*
X37882Y-21440D02*
X38339Y-21440D01*
X38768Y-21393D02*
X38482Y-21393D01*
X38482Y-20893D01*
X39082Y-20893D02*
X39196Y-20893D01*
X39254Y-20917D01*
X39311Y-20964D01*
X39339Y-21059D01*
X39339Y-21226D01*
X39311Y-21321D01*
X39254Y-21369D01*
X39196Y-21393D01*
X39082Y-21393D01*
X39025Y-21369D01*
X38968Y-21321D01*
X38939Y-21226D01*
X38939Y-21059D01*
X38968Y-20964D01*
X39025Y-20917D01*
X39082Y-20893D01*
X39939Y-21345D02*
X39911Y-21369D01*
X39825Y-21393D01*
X39768Y-21393D01*
X39682Y-21369D01*
X39625Y-21321D01*
X39596Y-21274D01*
X39568Y-21179D01*
X39568Y-21107D01*
X39596Y-21012D01*
X39625Y-20964D01*
X39682Y-20917D01*
X39768Y-20893D01*
X39825Y-20893D01*
X39911Y-20917D01*
X39939Y-20940D01*
X40196Y-21393D02*
X40196Y-20893D01*
X40539Y-21393D02*
X40282Y-21107D01*
X40539Y-20893D02*
X40196Y-21179D01*
X41111Y-21393D02*
X40768Y-21393D01*
X40939Y-21393D02*
X40939Y-20893D01*
X40882Y-20964D01*
X40825Y-21012D01*
X40768Y-21036D01*
X29059Y-21393D02*
X29059Y-20893D01*
X29402Y-21393D01*
X29402Y-20893D01*
X29688Y-20893D02*
X29688Y-21298D01*
X29716Y-21345D01*
X29745Y-21369D01*
X29802Y-21393D01*
X29916Y-21393D01*
X29973Y-21369D01*
X30002Y-21345D01*
X30030Y-21298D01*
X30030Y-20893D01*
X30316Y-21393D02*
X30316Y-20893D01*
X30516Y-21250D01*
X30716Y-20893D01*
X30716Y-21393D01*
X30859Y-21440D02*
X31316Y-21440D01*
X31459Y-21393D02*
X31459Y-20893D01*
X31602Y-20893D01*
X31688Y-20917D01*
X31745Y-20964D01*
X31773Y-21012D01*
X31802Y-21107D01*
X31802Y-21179D01*
X31773Y-21274D01*
X31745Y-21321D01*
X31688Y-21369D01*
X31602Y-21393D01*
X31459Y-21393D01*
X32059Y-21393D02*
X32059Y-20893D01*
X32259Y-20893D02*
X32459Y-21393D01*
X32659Y-20893D01*
X33173Y-21393D02*
X32830Y-21393D01*
X33002Y-21393D02*
X33002Y-20893D01*
X32945Y-20964D01*
X32888Y-21012D01*
X32830Y-21036D01*
X21379Y-21393D02*
X21379Y-20893D01*
X21722Y-21393D01*
X21722Y-20893D01*
X22007Y-20893D02*
X22007Y-21298D01*
X22036Y-21345D01*
X22064Y-21369D01*
X22122Y-21393D01*
X22236Y-21393D01*
X22293Y-21369D01*
X22322Y-21345D01*
X22350Y-21298D01*
X22350Y-20893D01*
X22636Y-21393D02*
X22636Y-20893D01*
X22836Y-21250D01*
X23036Y-20893D01*
X23036Y-21393D01*
X23179Y-21440D02*
X23636Y-21440D01*
X23779Y-21393D02*
X23779Y-20893D01*
X23979Y-21250D01*
X24179Y-20893D01*
X24179Y-21393D01*
X24464Y-20893D02*
X24464Y-21298D01*
X24493Y-21345D01*
X24522Y-21369D01*
X24579Y-21393D01*
X24693Y-21393D01*
X24750Y-21369D01*
X24779Y-21345D01*
X24807Y-21298D01*
X24807Y-20893D01*
X25379Y-21393D02*
X25093Y-21393D01*
X25093Y-20893D01*
X25893Y-21393D02*
X25550Y-21393D01*
X25722Y-21393D02*
X25722Y-20893D01*
X25664Y-20964D01*
X25607Y-21012D01*
X25550Y-21036D01*
X37068Y-10369D02*
X37068Y-9869D01*
X37411Y-10369D02*
X37154Y-10083D01*
X37411Y-9869D02*
X37068Y-10155D01*
X37668Y-10107D02*
X37868Y-10107D01*
X37954Y-10369D02*
X37668Y-10369D01*
X37668Y-9869D01*
X37954Y-9869D01*
X38325Y-10131D02*
X38325Y-10369D01*
X38125Y-9869D02*
X38325Y-10131D01*
X38525Y-9869D01*
X38582Y-10417D02*
X39039Y-10417D01*
X39182Y-10369D02*
X39182Y-9869D01*
X39525Y-10369D01*
X39525Y-9869D01*
X40068Y-10036D02*
X40068Y-10369D01*
X39925Y-9845D02*
X39782Y-10203D01*
X40154Y-10203D01*
X29588Y-10369D02*
X29588Y-9869D01*
X29930Y-10369D02*
X29673Y-10083D01*
X29930Y-9869D02*
X29588Y-10155D01*
X30188Y-10107D02*
X30388Y-10107D01*
X30473Y-10369D02*
X30188Y-10369D01*
X30188Y-9869D01*
X30473Y-9869D01*
X30845Y-10131D02*
X30845Y-10369D01*
X30645Y-9869D02*
X30845Y-10131D01*
X31045Y-9869D01*
X31102Y-10417D02*
X31559Y-10417D01*
X31702Y-10369D02*
X31702Y-9869D01*
X32045Y-10369D01*
X32045Y-9869D01*
X32273Y-9869D02*
X32645Y-9869D01*
X32445Y-10060D01*
X32530Y-10060D01*
X32588Y-10083D01*
X32616Y-10107D01*
X32645Y-10155D01*
X32645Y-10274D01*
X32616Y-10322D01*
X32588Y-10345D01*
X32530Y-10369D01*
X32359Y-10369D01*
X32302Y-10345D01*
X32273Y-10322D01*
X22107Y-10369D02*
X22107Y-9869D01*
X22450Y-10369D02*
X22193Y-10083D01*
X22450Y-9869D02*
X22107Y-10155D01*
X22707Y-10107D02*
X22907Y-10107D01*
X22993Y-10369D02*
X22707Y-10369D01*
X22707Y-9869D01*
X22993Y-9869D01*
X23364Y-10131D02*
X23364Y-10369D01*
X23164Y-9869D02*
X23364Y-10131D01*
X23564Y-9869D01*
X23622Y-10417D02*
X24079Y-10417D01*
X24222Y-10369D02*
X24222Y-9869D01*
X24564Y-10369D01*
X24564Y-9869D01*
X24822Y-9917D02*
X24850Y-9893D01*
X24907Y-9869D01*
X25050Y-9869D01*
X25107Y-9893D01*
X25136Y-9917D01*
X25164Y-9964D01*
X25164Y-10012D01*
X25136Y-10083D01*
X24793Y-10369D01*
X25164Y-10369D01*
X14627Y-10369D02*
X14627Y-9869D01*
X14970Y-10369D02*
X14713Y-10083D01*
X14970Y-9869D02*
X14627Y-10155D01*
X15227Y-10107D02*
X15427Y-10107D01*
X15513Y-10369D02*
X15227Y-10369D01*
X15227Y-9869D01*
X15513Y-9869D01*
X15884Y-10131D02*
X15884Y-10369D01*
X15684Y-9869D02*
X15884Y-10131D01*
X16084Y-9869D01*
X16141Y-10417D02*
X16598Y-10417D01*
X16741Y-10369D02*
X16741Y-9869D01*
X17084Y-10369D01*
X17084Y-9869D01*
X17684Y-10369D02*
X17341Y-10369D01*
X17513Y-10369D02*
X17513Y-9869D01*
X17456Y-9941D01*
X17398Y-9988D01*
X17341Y-10012D01*
X5150Y-51314D02*
X5150Y-50814D01*
X5492Y-51314D02*
X5235Y-51028D01*
X5492Y-50814D02*
X5150Y-51100D01*
X5750Y-51052D02*
X5950Y-51052D01*
X6035Y-51314D02*
X5750Y-51314D01*
X5750Y-50814D01*
X6035Y-50814D01*
X6407Y-51076D02*
X6407Y-51314D01*
X6207Y-50814D02*
X6407Y-51076D01*
X6607Y-50814D01*
X6664Y-51362D02*
X7121Y-51362D01*
X7264Y-51314D02*
X7264Y-50814D01*
X7464Y-51171D01*
X7664Y-50814D01*
X7664Y-51314D01*
X8207Y-50814D02*
X8092Y-50814D01*
X8035Y-50838D01*
X8007Y-50862D01*
X7950Y-50933D01*
X7921Y-51028D01*
X7921Y-51219D01*
X7950Y-51266D01*
X7978Y-51290D01*
X8035Y-51314D01*
X8150Y-51314D01*
X8207Y-51290D01*
X8235Y-51266D01*
X8264Y-51219D01*
X8264Y-51100D01*
X8235Y-51052D01*
X8207Y-51028D01*
X8150Y-51005D01*
X8035Y-51005D01*
X7978Y-51028D01*
X7950Y-51052D01*
X7921Y-51100D01*
X5150Y-43834D02*
X5150Y-43334D01*
X5492Y-43834D02*
X5235Y-43548D01*
X5492Y-43334D02*
X5150Y-43619D01*
X5750Y-43572D02*
X5950Y-43572D01*
X6035Y-43834D02*
X5750Y-43834D01*
X5750Y-43334D01*
X6035Y-43334D01*
X6407Y-43596D02*
X6407Y-43834D01*
X6207Y-43334D02*
X6407Y-43596D01*
X6607Y-43334D01*
X6664Y-43881D02*
X7121Y-43881D01*
X7264Y-43834D02*
X7264Y-43334D01*
X7464Y-43691D01*
X7664Y-43334D01*
X7664Y-43834D01*
X8235Y-43334D02*
X7950Y-43334D01*
X7921Y-43572D01*
X7950Y-43548D01*
X8007Y-43524D01*
X8150Y-43524D01*
X8207Y-43548D01*
X8235Y-43572D01*
X8264Y-43619D01*
X8264Y-43739D01*
X8235Y-43786D01*
X8207Y-43810D01*
X8150Y-43834D01*
X8007Y-43834D01*
X7950Y-43810D01*
X7921Y-43786D01*
X5150Y-36353D02*
X5150Y-35853D01*
X5492Y-36353D02*
X5235Y-36068D01*
X5492Y-35853D02*
X5150Y-36139D01*
X5750Y-36092D02*
X5950Y-36092D01*
X6035Y-36353D02*
X5750Y-36353D01*
X5750Y-35853D01*
X6035Y-35853D01*
X6407Y-36115D02*
X6407Y-36353D01*
X6207Y-35853D02*
X6407Y-36115D01*
X6607Y-35853D01*
X6664Y-36401D02*
X7121Y-36401D01*
X7264Y-36353D02*
X7264Y-35853D01*
X7464Y-36211D01*
X7664Y-35853D01*
X7664Y-36353D01*
X8207Y-36020D02*
X8207Y-36353D01*
X8064Y-35830D02*
X7921Y-36187D01*
X8292Y-36187D01*
X5150Y-28873D02*
X5150Y-28373D01*
X5492Y-28873D02*
X5235Y-28587D01*
X5492Y-28373D02*
X5150Y-28659D01*
X5750Y-28611D02*
X5950Y-28611D01*
X6035Y-28873D02*
X5750Y-28873D01*
X5750Y-28373D01*
X6035Y-28373D01*
X6407Y-28635D02*
X6407Y-28873D01*
X6207Y-28373D02*
X6407Y-28635D01*
X6607Y-28373D01*
X6664Y-28921D02*
X7121Y-28921D01*
X7264Y-28873D02*
X7264Y-28373D01*
X7464Y-28730D01*
X7664Y-28373D01*
X7664Y-28873D01*
X7892Y-28373D02*
X8264Y-28373D01*
X8064Y-28564D01*
X8150Y-28564D01*
X8207Y-28587D01*
X8235Y-28611D01*
X8264Y-28659D01*
X8264Y-28778D01*
X8235Y-28826D01*
X8207Y-28849D01*
X8150Y-28873D01*
X7978Y-28873D01*
X7921Y-28849D01*
X7892Y-28826D01*
X5150Y-21393D02*
X5150Y-20893D01*
X5492Y-21393D02*
X5235Y-21107D01*
X5492Y-20893D02*
X5150Y-21179D01*
X5750Y-21131D02*
X5950Y-21131D01*
X6035Y-21393D02*
X5750Y-21393D01*
X5750Y-20893D01*
X6035Y-20893D01*
X6407Y-21155D02*
X6407Y-21393D01*
X6207Y-20893D02*
X6407Y-21155D01*
X6607Y-20893D01*
X6664Y-21440D02*
X7121Y-21440D01*
X7264Y-21393D02*
X7264Y-20893D01*
X7464Y-21250D01*
X7664Y-20893D01*
X7664Y-21393D01*
X7921Y-20940D02*
X7950Y-20917D01*
X8007Y-20893D01*
X8150Y-20893D01*
X8207Y-20917D01*
X8235Y-20940D01*
X8264Y-20988D01*
X8264Y-21036D01*
X8235Y-21107D01*
X7892Y-21393D01*
X8264Y-21393D01*
X45288Y-21393D02*
X45288Y-20893D01*
X45631Y-21393D02*
X45374Y-21107D01*
X45631Y-20893D02*
X45288Y-21179D01*
X45888Y-21131D02*
X46088Y-21131D01*
X46174Y-21393D02*
X45888Y-21393D01*
X45888Y-20893D01*
X46174Y-20893D01*
X46545Y-21155D02*
X46545Y-21393D01*
X46345Y-20893D02*
X46545Y-21155D01*
X46745Y-20893D01*
X46802Y-21440D02*
X47260Y-21440D01*
X47402Y-21393D02*
X47402Y-20893D01*
X47688Y-21393D02*
X47688Y-20893D01*
X48031Y-21393D01*
X48031Y-20893D01*
X48288Y-21369D02*
X48374Y-21393D01*
X48517Y-21393D01*
X48574Y-21369D01*
X48602Y-21345D01*
X48631Y-21298D01*
X48631Y-21250D01*
X48602Y-21202D01*
X48574Y-21179D01*
X48517Y-21155D01*
X48402Y-21131D01*
X48345Y-21107D01*
X48317Y-21083D01*
X48288Y-21036D01*
X48288Y-20988D01*
X48317Y-20940D01*
X48345Y-20917D01*
X48402Y-20893D01*
X48545Y-20893D01*
X48631Y-20917D01*
X48888Y-21131D02*
X49088Y-21131D01*
X49174Y-21393D02*
X48888Y-21393D01*
X48888Y-20893D01*
X49174Y-20893D01*
X49774Y-21393D02*
X49574Y-21155D01*
X49431Y-21393D02*
X49431Y-20893D01*
X49660Y-20893D01*
X49717Y-20917D01*
X49745Y-20940D01*
X49774Y-20988D01*
X49774Y-21059D01*
X49745Y-21107D01*
X49717Y-21131D01*
X49660Y-21155D01*
X49431Y-21155D01*
X49945Y-20893D02*
X50288Y-20893D01*
X50117Y-21393D02*
X50117Y-20893D01*
X50802Y-21393D02*
X50460Y-21393D01*
X50631Y-21393D02*
X50631Y-20893D01*
X50574Y-20964D01*
X50517Y-21012D01*
X50460Y-21036D01*
X70383Y-10369D02*
X70383Y-9869D01*
X70726Y-10369D02*
X70469Y-10083D01*
X70726Y-9869D02*
X70383Y-10155D01*
X70983Y-10107D02*
X71183Y-10107D01*
X71269Y-10369D02*
X70983Y-10369D01*
X70983Y-9869D01*
X71269Y-9869D01*
X71640Y-10131D02*
X71640Y-10369D01*
X71440Y-9869D02*
X71640Y-10131D01*
X71840Y-9869D01*
X71898Y-10417D02*
X72355Y-10417D01*
X72498Y-10107D02*
X72698Y-10107D01*
X72783Y-10369D02*
X72498Y-10369D01*
X72498Y-9869D01*
X72783Y-9869D01*
X73012Y-10345D02*
X73098Y-10369D01*
X73240Y-10369D01*
X73298Y-10345D01*
X73326Y-10322D01*
X73355Y-10274D01*
X73355Y-10226D01*
X73326Y-10179D01*
X73298Y-10155D01*
X73240Y-10131D01*
X73126Y-10107D01*
X73069Y-10083D01*
X73040Y-10060D01*
X73012Y-10012D01*
X73012Y-9964D01*
X73040Y-9917D01*
X73069Y-9893D01*
X73126Y-9869D01*
X73269Y-9869D01*
X73355Y-9893D01*
X73955Y-10322D02*
X73926Y-10345D01*
X73840Y-10369D01*
X73783Y-10369D01*
X73698Y-10345D01*
X73640Y-10298D01*
X73612Y-10250D01*
X73583Y-10155D01*
X73583Y-10083D01*
X73612Y-9988D01*
X73640Y-9941D01*
X73698Y-9893D01*
X73783Y-9869D01*
X73840Y-9869D01*
X73926Y-9893D01*
X73955Y-9917D01*
X74526Y-10369D02*
X74183Y-10369D01*
X74355Y-10369D02*
X74355Y-9869D01*
X74298Y-9941D01*
X74240Y-9988D01*
X74183Y-10012D01*
X60506Y-51314D02*
X60506Y-50814D01*
X60849Y-51314D02*
X60592Y-51028D01*
X60849Y-50814D02*
X60506Y-51100D01*
X61106Y-51052D02*
X61306Y-51052D01*
X61392Y-51314D02*
X61106Y-51314D01*
X61106Y-50814D01*
X61392Y-50814D01*
X61763Y-51076D02*
X61763Y-51314D01*
X61563Y-50814D02*
X61763Y-51076D01*
X61963Y-50814D01*
X62020Y-51362D02*
X62477Y-51362D01*
X62963Y-51314D02*
X62763Y-51076D01*
X62620Y-51314D02*
X62620Y-50814D01*
X62849Y-50814D01*
X62906Y-50838D01*
X62934Y-50862D01*
X62963Y-50909D01*
X62963Y-50981D01*
X62934Y-51028D01*
X62906Y-51052D01*
X62849Y-51076D01*
X62620Y-51076D01*
X63220Y-51314D02*
X63220Y-50814D01*
X63820Y-50838D02*
X63763Y-50814D01*
X63677Y-50814D01*
X63592Y-50838D01*
X63534Y-50886D01*
X63506Y-50933D01*
X63477Y-51028D01*
X63477Y-51100D01*
X63506Y-51195D01*
X63534Y-51243D01*
X63592Y-51290D01*
X63677Y-51314D01*
X63734Y-51314D01*
X63820Y-51290D01*
X63849Y-51266D01*
X63849Y-51100D01*
X63734Y-51100D01*
X64106Y-51314D02*
X64106Y-50814D01*
X64106Y-51052D02*
X64449Y-51052D01*
X64449Y-51314D02*
X64449Y-50814D01*
X64649Y-50814D02*
X64992Y-50814D01*
X64820Y-51314D02*
X64820Y-50814D01*
X65506Y-51314D02*
X65163Y-51314D01*
X65334Y-51314D02*
X65334Y-50814D01*
X65277Y-50886D01*
X65220Y-50933D01*
X65163Y-50957D01*
X53040Y-51314D02*
X53040Y-50814D01*
X53383Y-51314D02*
X53126Y-51028D01*
X53383Y-50814D02*
X53040Y-51100D01*
X53640Y-51052D02*
X53840Y-51052D01*
X53926Y-51314D02*
X53640Y-51314D01*
X53640Y-50814D01*
X53926Y-50814D01*
X54297Y-51076D02*
X54297Y-51314D01*
X54097Y-50814D02*
X54297Y-51076D01*
X54497Y-50814D01*
X54554Y-51362D02*
X55011Y-51362D01*
X55154Y-51314D02*
X55154Y-50814D01*
X55297Y-50814D01*
X55383Y-50838D01*
X55440Y-50886D01*
X55468Y-50933D01*
X55497Y-51028D01*
X55497Y-51100D01*
X55468Y-51195D01*
X55440Y-51243D01*
X55383Y-51290D01*
X55297Y-51314D01*
X55154Y-51314D01*
X55868Y-50814D02*
X55983Y-50814D01*
X56040Y-50838D01*
X56097Y-50886D01*
X56126Y-50981D01*
X56126Y-51147D01*
X56097Y-51243D01*
X56040Y-51290D01*
X55983Y-51314D01*
X55868Y-51314D01*
X55811Y-51290D01*
X55754Y-51243D01*
X55726Y-51147D01*
X55726Y-50981D01*
X55754Y-50886D01*
X55811Y-50838D01*
X55868Y-50814D01*
X56326Y-50814D02*
X56468Y-51314D01*
X56583Y-50957D01*
X56697Y-51314D01*
X56840Y-50814D01*
X57068Y-51314D02*
X57068Y-50814D01*
X57411Y-51314D01*
X57411Y-50814D01*
X58011Y-51314D02*
X57668Y-51314D01*
X57840Y-51314D02*
X57840Y-50814D01*
X57783Y-50886D01*
X57726Y-50933D01*
X57668Y-50957D01*
X45831Y-51314D02*
X45831Y-50814D01*
X46174Y-51314D02*
X45917Y-51028D01*
X46174Y-50814D02*
X45831Y-51100D01*
X46431Y-51052D02*
X46631Y-51052D01*
X46717Y-51314D02*
X46431Y-51314D01*
X46431Y-50814D01*
X46717Y-50814D01*
X47088Y-51076D02*
X47088Y-51314D01*
X46888Y-50814D02*
X47088Y-51076D01*
X47288Y-50814D01*
X47345Y-51362D02*
X47802Y-51362D01*
X48231Y-51314D02*
X47945Y-51314D01*
X47945Y-50814D01*
X48431Y-51052D02*
X48631Y-51052D01*
X48717Y-51314D02*
X48431Y-51314D01*
X48431Y-50814D01*
X48717Y-50814D01*
X49174Y-51052D02*
X48974Y-51052D01*
X48974Y-51314D02*
X48974Y-50814D01*
X49260Y-50814D01*
X49402Y-50814D02*
X49745Y-50814D01*
X49574Y-51314D02*
X49574Y-50814D01*
X50260Y-51314D02*
X49917Y-51314D01*
X50088Y-51314D02*
X50088Y-50814D01*
X50031Y-50886D01*
X49974Y-50933D01*
X49917Y-50957D01*
X53697Y-43834D02*
X53697Y-43334D01*
X54040Y-43834D02*
X53783Y-43548D01*
X54040Y-43334D02*
X53697Y-43619D01*
X54297Y-43572D02*
X54497Y-43572D01*
X54583Y-43834D02*
X54297Y-43834D01*
X54297Y-43334D01*
X54583Y-43334D01*
X54954Y-43596D02*
X54954Y-43834D01*
X54754Y-43334D02*
X54954Y-43596D01*
X55154Y-43334D01*
X55211Y-43881D02*
X55668Y-43881D01*
X55811Y-43334D02*
X55811Y-43739D01*
X55840Y-43786D01*
X55868Y-43810D01*
X55926Y-43834D01*
X56040Y-43834D01*
X56097Y-43810D01*
X56126Y-43786D01*
X56154Y-43739D01*
X56154Y-43334D01*
X56440Y-43834D02*
X56440Y-43334D01*
X56668Y-43334D01*
X56726Y-43358D01*
X56754Y-43381D01*
X56783Y-43429D01*
X56783Y-43500D01*
X56754Y-43548D01*
X56726Y-43572D01*
X56668Y-43596D01*
X56440Y-43596D01*
X57354Y-43834D02*
X57011Y-43834D01*
X57183Y-43834D02*
X57183Y-43334D01*
X57126Y-43405D01*
X57068Y-43453D01*
X57011Y-43477D01*
X59163Y-28873D02*
X59163Y-28373D01*
X59506Y-28873D02*
X59249Y-28587D01*
X59506Y-28373D02*
X59163Y-28659D01*
X59763Y-28611D02*
X59963Y-28611D01*
X60049Y-28873D02*
X59763Y-28873D01*
X59763Y-28373D01*
X60049Y-28373D01*
X60420Y-28635D02*
X60420Y-28873D01*
X60220Y-28373D02*
X60420Y-28635D01*
X60620Y-28373D01*
X60677Y-28921D02*
X61134Y-28921D01*
X61277Y-28873D02*
X61277Y-28373D01*
X61506Y-28373D01*
X61563Y-28397D01*
X61592Y-28421D01*
X61620Y-28468D01*
X61620Y-28540D01*
X61592Y-28587D01*
X61563Y-28611D01*
X61506Y-28635D01*
X61277Y-28635D01*
X61849Y-28730D02*
X62134Y-28730D01*
X61792Y-28873D02*
X61992Y-28373D01*
X62192Y-28873D01*
X62706Y-28397D02*
X62649Y-28373D01*
X62563Y-28373D01*
X62477Y-28397D01*
X62420Y-28445D01*
X62392Y-28492D01*
X62363Y-28587D01*
X62363Y-28659D01*
X62392Y-28754D01*
X62420Y-28802D01*
X62477Y-28849D01*
X62563Y-28873D01*
X62620Y-28873D01*
X62706Y-28849D01*
X62734Y-28826D01*
X62734Y-28659D01*
X62620Y-28659D01*
X62992Y-28611D02*
X63192Y-28611D01*
X63277Y-28873D02*
X62992Y-28873D01*
X62992Y-28373D01*
X63277Y-28373D01*
X63392Y-28921D02*
X63849Y-28921D01*
X63992Y-28873D02*
X63992Y-28373D01*
X64134Y-28373D01*
X64220Y-28397D01*
X64277Y-28445D01*
X64306Y-28492D01*
X64334Y-28587D01*
X64334Y-28659D01*
X64306Y-28754D01*
X64277Y-28802D01*
X64220Y-28849D01*
X64134Y-28873D01*
X63992Y-28873D01*
X64706Y-28373D02*
X64820Y-28373D01*
X64877Y-28397D01*
X64934Y-28445D01*
X64963Y-28540D01*
X64963Y-28706D01*
X64934Y-28802D01*
X64877Y-28849D01*
X64820Y-28873D01*
X64706Y-28873D01*
X64649Y-28849D01*
X64592Y-28802D01*
X64563Y-28706D01*
X64563Y-28540D01*
X64592Y-28445D01*
X64649Y-28397D01*
X64706Y-28373D01*
X65163Y-28373D02*
X65306Y-28873D01*
X65420Y-28516D01*
X65534Y-28873D01*
X65677Y-28373D01*
X65906Y-28873D02*
X65906Y-28373D01*
X66249Y-28873D01*
X66249Y-28373D01*
X66849Y-28873D02*
X66506Y-28873D01*
X66677Y-28873D02*
X66677Y-28373D01*
X66620Y-28445D01*
X66563Y-28492D01*
X66506Y-28516D01*
X53426Y-28873D02*
X53426Y-28373D01*
X53768Y-28873D02*
X53511Y-28587D01*
X53768Y-28373D02*
X53426Y-28659D01*
X54026Y-28611D02*
X54226Y-28611D01*
X54311Y-28873D02*
X54026Y-28873D01*
X54026Y-28373D01*
X54311Y-28373D01*
X54683Y-28635D02*
X54683Y-28873D01*
X54483Y-28373D02*
X54683Y-28635D01*
X54883Y-28373D01*
X54940Y-28921D02*
X55397Y-28921D01*
X55540Y-28611D02*
X55740Y-28611D01*
X55826Y-28873D02*
X55540Y-28873D01*
X55540Y-28373D01*
X55826Y-28373D01*
X56083Y-28873D02*
X56083Y-28373D01*
X56426Y-28873D01*
X56426Y-28373D01*
X56711Y-28873D02*
X56711Y-28373D01*
X56854Y-28373D01*
X56940Y-28397D01*
X56997Y-28445D01*
X57026Y-28492D01*
X57054Y-28587D01*
X57054Y-28659D01*
X57026Y-28754D01*
X56997Y-28802D01*
X56940Y-28849D01*
X56854Y-28873D01*
X56711Y-28873D01*
X57626Y-28873D02*
X57283Y-28873D01*
X57454Y-28873D02*
X57454Y-28373D01*
X57397Y-28445D01*
X57340Y-28492D01*
X57283Y-28516D01*
X45245Y-28873D02*
X45245Y-28373D01*
X45588Y-28873D02*
X45331Y-28587D01*
X45588Y-28373D02*
X45245Y-28659D01*
X45845Y-28611D02*
X46045Y-28611D01*
X46131Y-28873D02*
X45845Y-28873D01*
X45845Y-28373D01*
X46131Y-28373D01*
X46502Y-28635D02*
X46502Y-28873D01*
X46302Y-28373D02*
X46502Y-28635D01*
X46702Y-28373D01*
X46760Y-28921D02*
X47217Y-28921D01*
X47360Y-28873D02*
X47360Y-28373D01*
X47502Y-28373D01*
X47588Y-28397D01*
X47645Y-28445D01*
X47674Y-28492D01*
X47702Y-28587D01*
X47702Y-28659D01*
X47674Y-28754D01*
X47645Y-28802D01*
X47588Y-28849D01*
X47502Y-28873D01*
X47360Y-28873D01*
X47960Y-28611D02*
X48160Y-28611D01*
X48245Y-28873D02*
X47960Y-28873D01*
X47960Y-28373D01*
X48245Y-28373D01*
X48788Y-28873D02*
X48502Y-28873D01*
X48502Y-28373D01*
X48988Y-28611D02*
X49188Y-28611D01*
X49274Y-28873D02*
X48988Y-28873D01*
X48988Y-28373D01*
X49274Y-28373D01*
X49445Y-28373D02*
X49788Y-28373D01*
X49617Y-28873D02*
X49617Y-28373D01*
X49988Y-28611D02*
X50188Y-28611D01*
X50274Y-28873D02*
X49988Y-28873D01*
X49988Y-28373D01*
X50274Y-28373D01*
X50845Y-28873D02*
X50502Y-28873D01*
X50674Y-28873D02*
X50674Y-28373D01*
X50617Y-28445D01*
X50560Y-28492D01*
X50502Y-28516D01*
X59820Y-21393D02*
X59820Y-20893D01*
X60163Y-21393D02*
X59906Y-21107D01*
X60163Y-20893D02*
X59820Y-21179D01*
X60420Y-21131D02*
X60620Y-21131D01*
X60706Y-21393D02*
X60420Y-21393D01*
X60420Y-20893D01*
X60706Y-20893D01*
X61077Y-21155D02*
X61077Y-21393D01*
X60877Y-20893D02*
X61077Y-21155D01*
X61277Y-20893D01*
X61334Y-21440D02*
X61792Y-21440D01*
X61934Y-21393D02*
X61934Y-20893D01*
X62163Y-20893D01*
X62220Y-20917D01*
X62249Y-20940D01*
X62277Y-20988D01*
X62277Y-21059D01*
X62249Y-21107D01*
X62220Y-21131D01*
X62163Y-21155D01*
X61934Y-21155D01*
X62506Y-21250D02*
X62792Y-21250D01*
X62449Y-21393D02*
X62649Y-20893D01*
X62849Y-21393D01*
X63363Y-20917D02*
X63306Y-20893D01*
X63220Y-20893D01*
X63134Y-20917D01*
X63077Y-20964D01*
X63049Y-21012D01*
X63020Y-21107D01*
X63020Y-21179D01*
X63049Y-21274D01*
X63077Y-21321D01*
X63134Y-21369D01*
X63220Y-21393D01*
X63277Y-21393D01*
X63363Y-21369D01*
X63392Y-21345D01*
X63392Y-21179D01*
X63277Y-21179D01*
X63649Y-21131D02*
X63849Y-21131D01*
X63934Y-21393D02*
X63649Y-21393D01*
X63649Y-20893D01*
X63934Y-20893D01*
X64049Y-21440D02*
X64506Y-21440D01*
X64649Y-20893D02*
X64649Y-21298D01*
X64677Y-21345D01*
X64706Y-21369D01*
X64763Y-21393D01*
X64877Y-21393D01*
X64934Y-21369D01*
X64963Y-21345D01*
X64992Y-21298D01*
X64992Y-20893D01*
X65277Y-21393D02*
X65277Y-20893D01*
X65506Y-20893D01*
X65563Y-20917D01*
X65592Y-20940D01*
X65620Y-20988D01*
X65620Y-21059D01*
X65592Y-21107D01*
X65563Y-21131D01*
X65506Y-21155D01*
X65277Y-21155D01*
X66192Y-21393D02*
X65849Y-21393D01*
X66020Y-21393D02*
X66020Y-20893D01*
X65963Y-20964D01*
X65906Y-21012D01*
X65849Y-21036D01*
X53068Y-21393D02*
X53068Y-20893D01*
X53411Y-21393D02*
X53154Y-21107D01*
X53411Y-20893D02*
X53068Y-21179D01*
X53668Y-21131D02*
X53868Y-21131D01*
X53954Y-21393D02*
X53668Y-21393D01*
X53668Y-20893D01*
X53954Y-20893D01*
X54326Y-21155D02*
X54326Y-21393D01*
X54126Y-20893D02*
X54326Y-21155D01*
X54526Y-20893D01*
X54583Y-21440D02*
X55040Y-21440D01*
X55183Y-21393D02*
X55183Y-20893D01*
X55183Y-21131D02*
X55526Y-21131D01*
X55526Y-21393D02*
X55526Y-20893D01*
X55926Y-20893D02*
X56040Y-20893D01*
X56097Y-20917D01*
X56154Y-20964D01*
X56183Y-21059D01*
X56183Y-21226D01*
X56154Y-21321D01*
X56097Y-21369D01*
X56040Y-21393D01*
X55926Y-21393D01*
X55868Y-21369D01*
X55811Y-21321D01*
X55783Y-21226D01*
X55783Y-21059D01*
X55811Y-20964D01*
X55868Y-20917D01*
X55926Y-20893D01*
X56440Y-21393D02*
X56440Y-20893D01*
X56640Y-21250D01*
X56840Y-20893D01*
X56840Y-21393D01*
X57126Y-21131D02*
X57326Y-21131D01*
X57411Y-21393D02*
X57126Y-21393D01*
X57126Y-20893D01*
X57411Y-20893D01*
X57983Y-21393D02*
X57640Y-21393D01*
X57811Y-21393D02*
X57811Y-20893D01*
X57754Y-20964D01*
X57697Y-21012D01*
X57640Y-21036D01*
X5150Y-10369D02*
X5150Y-9869D01*
X5492Y-10369D02*
X5235Y-10083D01*
X5492Y-9869D02*
X5150Y-10155D01*
X5750Y-10107D02*
X5950Y-10107D01*
X6035Y-10369D02*
X5750Y-10369D01*
X5750Y-9869D01*
X6035Y-9869D01*
X6407Y-10131D02*
X6407Y-10369D01*
X6207Y-9869D02*
X6407Y-10131D01*
X6607Y-9869D01*
X6664Y-10417D02*
X7121Y-10417D01*
X7264Y-10369D02*
X7264Y-9869D01*
X7464Y-10226D01*
X7664Y-9869D01*
X7664Y-10369D01*
X8264Y-10369D02*
X7921Y-10369D01*
X8092Y-10369D02*
X8092Y-9869D01*
X8035Y-9941D01*
X7978Y-9988D01*
X7921Y-10012D01*
X60363Y-10369D02*
X60363Y-9869D01*
X60706Y-10369D02*
X60449Y-10083D01*
X60706Y-9869D02*
X60363Y-10155D01*
X60963Y-10107D02*
X61163Y-10107D01*
X61249Y-10369D02*
X60963Y-10369D01*
X60963Y-9869D01*
X61249Y-9869D01*
X61620Y-10131D02*
X61620Y-10369D01*
X61420Y-9869D02*
X61620Y-10131D01*
X61820Y-9869D01*
X61877Y-10417D02*
X62334Y-10417D01*
X62477Y-10369D02*
X62477Y-9869D01*
X62706Y-9869D01*
X62763Y-9893D01*
X62792Y-9917D01*
X62820Y-9964D01*
X62820Y-10036D01*
X62792Y-10083D01*
X62763Y-10107D01*
X62706Y-10131D01*
X62477Y-10131D01*
X63049Y-10226D02*
X63334Y-10226D01*
X62992Y-10369D02*
X63192Y-9869D01*
X63392Y-10369D01*
X63592Y-9869D02*
X63592Y-10274D01*
X63620Y-10322D01*
X63649Y-10345D01*
X63706Y-10369D01*
X63820Y-10369D01*
X63877Y-10345D01*
X63906Y-10322D01*
X63934Y-10274D01*
X63934Y-9869D01*
X64192Y-10345D02*
X64277Y-10369D01*
X64420Y-10369D01*
X64477Y-10345D01*
X64506Y-10322D01*
X64534Y-10274D01*
X64534Y-10226D01*
X64506Y-10179D01*
X64477Y-10155D01*
X64420Y-10131D01*
X64306Y-10107D01*
X64249Y-10083D01*
X64220Y-10060D01*
X64192Y-10012D01*
X64192Y-9964D01*
X64220Y-9917D01*
X64249Y-9893D01*
X64306Y-9869D01*
X64449Y-9869D01*
X64534Y-9893D01*
X64792Y-10107D02*
X64992Y-10107D01*
X65077Y-10369D02*
X64792Y-10369D01*
X64792Y-9869D01*
X65077Y-9869D01*
X65649Y-10369D02*
X65306Y-10369D01*
X65477Y-10369D02*
X65477Y-9869D01*
X65420Y-9941D01*
X65363Y-9988D01*
X65306Y-10012D01*
X52626Y-10369D02*
X52626Y-9869D01*
X52968Y-10369D02*
X52711Y-10083D01*
X52968Y-9869D02*
X52626Y-10155D01*
X53226Y-10107D02*
X53426Y-10107D01*
X53511Y-10369D02*
X53226Y-10369D01*
X53226Y-9869D01*
X53511Y-9869D01*
X53883Y-10131D02*
X53883Y-10369D01*
X53683Y-9869D02*
X53883Y-10131D01*
X54083Y-9869D01*
X54140Y-10417D02*
X54597Y-10417D01*
X54711Y-10345D02*
X54797Y-10369D01*
X54940Y-10369D01*
X54997Y-10345D01*
X55026Y-10322D01*
X55054Y-10274D01*
X55054Y-10226D01*
X55026Y-10179D01*
X54997Y-10155D01*
X54940Y-10131D01*
X54826Y-10107D01*
X54768Y-10083D01*
X54740Y-10060D01*
X54711Y-10012D01*
X54711Y-9964D01*
X54740Y-9917D01*
X54768Y-9893D01*
X54826Y-9869D01*
X54968Y-9869D01*
X55054Y-9893D01*
X55654Y-10322D02*
X55626Y-10345D01*
X55540Y-10369D01*
X55483Y-10369D01*
X55397Y-10345D01*
X55340Y-10298D01*
X55311Y-10250D01*
X55283Y-10155D01*
X55283Y-10083D01*
X55311Y-9988D01*
X55340Y-9941D01*
X55397Y-9893D01*
X55483Y-9869D01*
X55540Y-9869D01*
X55626Y-9893D01*
X55654Y-9917D01*
X56254Y-10369D02*
X56054Y-10131D01*
X55911Y-10369D02*
X55911Y-9869D01*
X56140Y-9869D01*
X56197Y-9893D01*
X56226Y-9917D01*
X56254Y-9964D01*
X56254Y-10036D01*
X56226Y-10083D01*
X56197Y-10107D01*
X56140Y-10131D01*
X55911Y-10131D01*
X56626Y-9869D02*
X56740Y-9869D01*
X56797Y-9893D01*
X56854Y-9941D01*
X56883Y-10036D01*
X56883Y-10203D01*
X56854Y-10298D01*
X56797Y-10345D01*
X56740Y-10369D01*
X56626Y-10369D01*
X56568Y-10345D01*
X56511Y-10298D01*
X56483Y-10203D01*
X56483Y-10036D01*
X56511Y-9941D01*
X56568Y-9893D01*
X56626Y-9869D01*
X57426Y-10369D02*
X57140Y-10369D01*
X57140Y-9869D01*
X57911Y-10369D02*
X57626Y-10369D01*
X57626Y-9869D01*
X58426Y-10369D02*
X58083Y-10369D01*
X58254Y-10369D02*
X58254Y-9869D01*
X58197Y-9941D01*
X58140Y-9988D01*
X58083Y-10012D01*
X45545Y-10369D02*
X45545Y-9869D01*
X45888Y-10369D02*
X45631Y-10083D01*
X45888Y-9869D02*
X45545Y-10155D01*
X46145Y-10107D02*
X46345Y-10107D01*
X46431Y-10369D02*
X46145Y-10369D01*
X46145Y-9869D01*
X46431Y-9869D01*
X46802Y-10131D02*
X46802Y-10369D01*
X46602Y-9869D02*
X46802Y-10131D01*
X47002Y-9869D01*
X47060Y-10417D02*
X47517Y-10417D01*
X47660Y-10369D02*
X47660Y-9869D01*
X47888Y-9869D01*
X47945Y-9893D01*
X47974Y-9917D01*
X48002Y-9964D01*
X48002Y-10036D01*
X47974Y-10083D01*
X47945Y-10107D01*
X47888Y-10131D01*
X47660Y-10131D01*
X48602Y-10369D02*
X48402Y-10131D01*
X48260Y-10369D02*
X48260Y-9869D01*
X48488Y-9869D01*
X48545Y-9893D01*
X48574Y-9917D01*
X48602Y-9964D01*
X48602Y-10036D01*
X48574Y-10083D01*
X48545Y-10107D01*
X48488Y-10131D01*
X48260Y-10131D01*
X48860Y-10369D02*
X48860Y-9869D01*
X49145Y-10369D02*
X49145Y-9869D01*
X49488Y-10369D01*
X49488Y-9869D01*
X49688Y-9869D02*
X50031Y-9869D01*
X49860Y-10369D02*
X49860Y-9869D01*
X50545Y-10369D02*
X50202Y-10369D01*
X50374Y-10369D02*
X50374Y-9869D01*
X50317Y-9941D01*
X50260Y-9988D01*
X50202Y-10012D01*
X20650Y-51314D02*
X20650Y-50814D01*
X20993Y-51314D01*
X20993Y-50814D01*
X21279Y-50814D02*
X21279Y-51219D01*
X21307Y-51266D01*
X21336Y-51290D01*
X21393Y-51314D01*
X21507Y-51314D01*
X21564Y-51290D01*
X21593Y-51266D01*
X21622Y-51219D01*
X21622Y-50814D01*
X21907Y-51314D02*
X21907Y-50814D01*
X22107Y-51171D01*
X22307Y-50814D01*
X22307Y-51314D01*
X22450Y-51362D02*
X22907Y-51362D01*
X23050Y-51314D02*
X23050Y-50814D01*
X23279Y-50814D01*
X23336Y-50838D01*
X23364Y-50862D01*
X23393Y-50909D01*
X23393Y-50981D01*
X23364Y-51028D01*
X23336Y-51052D01*
X23279Y-51076D01*
X23050Y-51076D01*
X23650Y-51052D02*
X23850Y-51052D01*
X23936Y-51314D02*
X23650Y-51314D01*
X23650Y-50814D01*
X23936Y-50814D01*
X24536Y-51314D02*
X24336Y-51076D01*
X24193Y-51314D02*
X24193Y-50814D01*
X24422Y-50814D01*
X24479Y-50838D01*
X24507Y-50862D01*
X24536Y-50909D01*
X24536Y-50981D01*
X24507Y-51028D01*
X24479Y-51052D01*
X24422Y-51076D01*
X24193Y-51076D01*
X24793Y-51314D02*
X24793Y-50814D01*
X25193Y-50814D02*
X25307Y-50814D01*
X25364Y-50838D01*
X25422Y-50886D01*
X25450Y-50981D01*
X25450Y-51147D01*
X25422Y-51243D01*
X25364Y-51290D01*
X25307Y-51314D01*
X25193Y-51314D01*
X25136Y-51290D01*
X25079Y-51243D01*
X25050Y-51147D01*
X25050Y-50981D01*
X25079Y-50886D01*
X25136Y-50838D01*
X25193Y-50814D01*
X25707Y-51314D02*
X25707Y-50814D01*
X25850Y-50814D01*
X25936Y-50838D01*
X25993Y-50886D01*
X26022Y-50933D01*
X26050Y-51028D01*
X26050Y-51100D01*
X26022Y-51195D01*
X25993Y-51243D01*
X25936Y-51290D01*
X25850Y-51314D01*
X25707Y-51314D01*
X26622Y-51314D02*
X26279Y-51314D01*
X26450Y-51314D02*
X26450Y-50814D01*
X26393Y-50886D01*
X26336Y-50933D01*
X26279Y-50957D01*
X37239Y-43834D02*
X37239Y-43334D01*
X37582Y-43834D01*
X37582Y-43334D01*
X37868Y-43334D02*
X37868Y-43739D01*
X37896Y-43786D01*
X37925Y-43810D01*
X37982Y-43834D01*
X38096Y-43834D01*
X38154Y-43810D01*
X38182Y-43786D01*
X38211Y-43739D01*
X38211Y-43334D01*
X38496Y-43834D02*
X38496Y-43334D01*
X38696Y-43691D01*
X38896Y-43334D01*
X38896Y-43834D01*
X39039Y-43881D02*
X39496Y-43881D01*
X39582Y-43334D02*
X39954Y-43334D01*
X39754Y-43524D01*
X39839Y-43524D01*
X39896Y-43548D01*
X39925Y-43572D01*
X39954Y-43619D01*
X39954Y-43739D01*
X39925Y-43786D01*
X39896Y-43810D01*
X39839Y-43834D01*
X39668Y-43834D01*
X39611Y-43810D01*
X39582Y-43786D01*
X29759Y-43834D02*
X29759Y-43334D01*
X30102Y-43834D01*
X30102Y-43334D01*
X30388Y-43334D02*
X30388Y-43739D01*
X30416Y-43786D01*
X30445Y-43810D01*
X30502Y-43834D01*
X30616Y-43834D01*
X30673Y-43810D01*
X30702Y-43786D01*
X30730Y-43739D01*
X30730Y-43334D01*
X31016Y-43834D02*
X31016Y-43334D01*
X31216Y-43691D01*
X31416Y-43334D01*
X31416Y-43834D01*
X31559Y-43881D02*
X32016Y-43881D01*
X32130Y-43381D02*
X32159Y-43358D01*
X32216Y-43334D01*
X32359Y-43334D01*
X32416Y-43358D01*
X32445Y-43381D01*
X32473Y-43429D01*
X32473Y-43477D01*
X32445Y-43548D01*
X32102Y-43834D01*
X32473Y-43834D01*
X22279Y-43834D02*
X22279Y-43334D01*
X22622Y-43834D01*
X22622Y-43334D01*
X22907Y-43334D02*
X22907Y-43739D01*
X22936Y-43786D01*
X22964Y-43810D01*
X23022Y-43834D01*
X23136Y-43834D01*
X23193Y-43810D01*
X23222Y-43786D01*
X23250Y-43739D01*
X23250Y-43334D01*
X23536Y-43834D02*
X23536Y-43334D01*
X23736Y-43691D01*
X23936Y-43334D01*
X23936Y-43834D01*
X24079Y-43881D02*
X24536Y-43881D01*
X24993Y-43834D02*
X24650Y-43834D01*
X24822Y-43834D02*
X24822Y-43334D01*
X24764Y-43405D01*
X24707Y-43453D01*
X24650Y-43477D01*
G54D11*
X38556Y-5195D02*
X38271Y-5195D01*
X38271Y-4595D01*
X38756Y-4881D02*
X38956Y-4881D01*
X39042Y-5195D02*
X38756Y-5195D01*
X38756Y-4595D01*
X39042Y-4595D01*
X39499Y-4881D02*
X39299Y-4881D01*
X39299Y-5195D02*
X39299Y-4595D01*
X39585Y-4595D01*
X39728Y-4595D02*
X40071Y-4595D01*
X39899Y-5195D02*
X39899Y-4595D01*
X40128Y-5252D02*
X40585Y-5252D01*
X40728Y-5195D02*
X40728Y-4595D01*
X40871Y-4595D01*
X40956Y-4624D01*
X41013Y-4681D01*
X41042Y-4738D01*
X41071Y-4852D01*
X41071Y-4938D01*
X41042Y-5052D01*
X41013Y-5109D01*
X40956Y-5167D01*
X40871Y-5195D01*
X40728Y-5195D01*
X41299Y-5167D02*
X41385Y-5195D01*
X41528Y-5195D01*
X41585Y-5167D01*
X41613Y-5138D01*
X41642Y-5081D01*
X41642Y-5024D01*
X41613Y-4967D01*
X41585Y-4938D01*
X41528Y-4909D01*
X41413Y-4881D01*
X41356Y-4852D01*
X41328Y-4824D01*
X41299Y-4767D01*
X41299Y-4709D01*
X41328Y-4652D01*
X41356Y-4624D01*
X41413Y-4595D01*
X41556Y-4595D01*
X41642Y-4624D01*
X41899Y-4595D02*
X41899Y-5081D01*
X41928Y-5138D01*
X41956Y-5167D01*
X42013Y-5195D01*
X42128Y-5195D01*
X42185Y-5167D01*
X42213Y-5138D01*
X42242Y-5081D01*
X42242Y-4595D01*
X42728Y-4881D02*
X42813Y-4909D01*
X42842Y-4938D01*
X42871Y-4995D01*
X42871Y-5081D01*
X42842Y-5138D01*
X42813Y-5167D01*
X42756Y-5195D01*
X42528Y-5195D01*
X42528Y-4595D01*
X42728Y-4595D01*
X42785Y-4624D01*
X42813Y-4652D01*
X42842Y-4709D01*
X42842Y-4767D01*
X42813Y-4824D01*
X42785Y-4852D01*
X42728Y-4881D01*
X42528Y-4881D01*
X43442Y-5195D02*
X43099Y-5195D01*
X43271Y-5195D02*
X43271Y-4595D01*
X43213Y-4681D01*
X43156Y-4738D01*
X43099Y-4767D01*
X28813Y-5195D02*
X28813Y-4595D01*
X28956Y-4595D01*
X29042Y-4624D01*
X29099Y-4681D01*
X29128Y-4738D01*
X29156Y-4852D01*
X29156Y-4938D01*
X29128Y-5052D01*
X29099Y-5109D01*
X29042Y-5167D01*
X28956Y-5195D01*
X28813Y-5195D01*
X29613Y-4881D02*
X29699Y-4909D01*
X29728Y-4938D01*
X29756Y-4995D01*
X29756Y-5081D01*
X29728Y-5138D01*
X29699Y-5167D01*
X29642Y-5195D01*
X29413Y-5195D01*
X29413Y-4595D01*
X29613Y-4595D01*
X29671Y-4624D01*
X29699Y-4652D01*
X29728Y-4709D01*
X29728Y-4767D01*
X29699Y-4824D01*
X29671Y-4852D01*
X29613Y-4881D01*
X29413Y-4881D01*
X29985Y-4652D02*
X30013Y-4624D01*
X30071Y-4595D01*
X30213Y-4595D01*
X30271Y-4624D01*
X30299Y-4652D01*
X30328Y-4709D01*
X30328Y-4767D01*
X30299Y-4852D01*
X29956Y-5195D01*
X30328Y-5195D01*
X30871Y-4595D02*
X30585Y-4595D01*
X30556Y-4881D01*
X30585Y-4852D01*
X30642Y-4824D01*
X30785Y-4824D01*
X30842Y-4852D01*
X30871Y-4881D01*
X30899Y-4938D01*
X30899Y-5081D01*
X30871Y-5138D01*
X30842Y-5167D01*
X30785Y-5195D01*
X30642Y-5195D01*
X30585Y-5167D01*
X30556Y-5138D01*
G54D10*
X-391Y-2286D02*
X-335Y-2305D01*
X-241Y-2305D01*
X-204Y-2286D01*
X-185Y-2267D01*
X-166Y-2230D01*
X-166Y-2192D01*
X-185Y-2155D01*
X-204Y-2136D01*
X-241Y-2117D01*
X-316Y-2098D01*
X-354Y-2080D01*
X-373Y-2061D01*
X-391Y-2023D01*
X-391Y-1986D01*
X-373Y-1948D01*
X-354Y-1930D01*
X-316Y-1911D01*
X-223Y-1911D01*
X-166Y-1930D01*
X226Y-2267D02*
X208Y-2286D01*
X151Y-2305D01*
X114Y-2305D01*
X58Y-2286D01*
X20Y-2248D01*
X1Y-2211D01*
X-16Y-2136D01*
X-16Y-2080D01*
X1Y-2005D01*
X20Y-1967D01*
X58Y-1930D01*
X114Y-1911D01*
X151Y-1911D01*
X208Y-1930D01*
X226Y-1948D01*
X620Y-2305D02*
X489Y-2117D01*
X395Y-2305D02*
X395Y-1911D01*
X545Y-1911D01*
X583Y-1930D01*
X601Y-1948D01*
X620Y-1986D01*
X620Y-2042D01*
X601Y-2080D01*
X583Y-2098D01*
X545Y-2117D01*
X395Y-2117D01*
X789Y-2098D02*
X920Y-2098D01*
X976Y-2305D02*
X789Y-2305D01*
X789Y-1911D01*
X976Y-1911D01*
X1107Y-1911D02*
X1201Y-2305D01*
X1276Y-2023D01*
X1351Y-2305D01*
X1445Y-1911D01*
X1501Y-2342D02*
X1801Y-2342D01*
X1895Y-2305D02*
X1895Y-1911D01*
X1895Y-2098D02*
X2120Y-2098D01*
X2120Y-2305D02*
X2120Y-1911D01*
X2382Y-1911D02*
X2457Y-1911D01*
X2495Y-1930D01*
X2532Y-1967D01*
X2551Y-2042D01*
X2551Y-2173D01*
X2532Y-2248D01*
X2495Y-2286D01*
X2457Y-2305D01*
X2382Y-2305D01*
X2345Y-2286D01*
X2307Y-2248D01*
X2289Y-2173D01*
X2289Y-2042D01*
X2307Y-1967D01*
X2345Y-1930D01*
X2382Y-1911D01*
X2907Y-2305D02*
X2720Y-2305D01*
X2720Y-1911D01*
X3038Y-2098D02*
X3170Y-2098D01*
X3226Y-2305D02*
X3038Y-2305D01*
X3038Y-1911D01*
X3226Y-1911D01*
X677Y-277D02*
X808Y-671D01*
X940Y-277D01*
X1052Y-558D02*
X1240Y-558D01*
X1015Y-671D02*
X1146Y-277D01*
X1277Y-671D01*
X1596Y-671D02*
X1408Y-671D01*
X1408Y-277D01*
X1783Y-277D02*
X1783Y-371D01*
X1690Y-333D02*
X1783Y-371D01*
X1877Y-333D01*
X1727Y-446D02*
X1783Y-371D01*
X1840Y-446D01*
X2083Y-277D02*
X2083Y-371D01*
X1990Y-333D02*
X2083Y-371D01*
X2177Y-333D01*
X2027Y-446D02*
X2083Y-371D01*
X2140Y-446D01*
X132088Y-2286D02*
X132144Y-2305D01*
X132238Y-2305D01*
X132275Y-2286D01*
X132294Y-2267D01*
X132313Y-2230D01*
X132313Y-2192D01*
X132294Y-2155D01*
X132275Y-2136D01*
X132238Y-2117D01*
X132163Y-2098D01*
X132125Y-2080D01*
X132107Y-2061D01*
X132088Y-2023D01*
X132088Y-1986D01*
X132107Y-1948D01*
X132125Y-1930D01*
X132163Y-1911D01*
X132257Y-1911D01*
X132313Y-1930D01*
X132707Y-2267D02*
X132688Y-2286D01*
X132632Y-2305D01*
X132594Y-2305D01*
X132538Y-2286D01*
X132500Y-2248D01*
X132482Y-2211D01*
X132463Y-2136D01*
X132463Y-2080D01*
X132482Y-2005D01*
X132500Y-1967D01*
X132538Y-1930D01*
X132594Y-1911D01*
X132632Y-1911D01*
X132688Y-1930D01*
X132707Y-1948D01*
X133100Y-2305D02*
X132969Y-2117D01*
X132875Y-2305D02*
X132875Y-1911D01*
X133025Y-1911D01*
X133063Y-1930D01*
X133082Y-1948D01*
X133100Y-1986D01*
X133100Y-2042D01*
X133082Y-2080D01*
X133063Y-2098D01*
X133025Y-2117D01*
X132875Y-2117D01*
X133269Y-2098D02*
X133400Y-2098D01*
X133457Y-2305D02*
X133269Y-2305D01*
X133269Y-1911D01*
X133457Y-1911D01*
X133588Y-1911D02*
X133682Y-2305D01*
X133757Y-2023D01*
X133832Y-2305D01*
X133925Y-1911D01*
X133982Y-2342D02*
X134281Y-2342D01*
X134375Y-2305D02*
X134375Y-1911D01*
X134375Y-2098D02*
X134600Y-2098D01*
X134600Y-2305D02*
X134600Y-1911D01*
X134863Y-1911D02*
X134938Y-1911D01*
X134975Y-1930D01*
X135013Y-1967D01*
X135031Y-2042D01*
X135031Y-2173D01*
X135013Y-2248D01*
X134975Y-2286D01*
X134938Y-2305D01*
X134863Y-2305D01*
X134825Y-2286D01*
X134788Y-2248D01*
X134769Y-2173D01*
X134769Y-2042D01*
X134788Y-1967D01*
X134825Y-1930D01*
X134863Y-1911D01*
X135388Y-2305D02*
X135200Y-2305D01*
X135200Y-1911D01*
X135519Y-2098D02*
X135650Y-2098D01*
X135706Y-2305D02*
X135519Y-2305D01*
X135519Y-1911D01*
X135706Y-1911D01*
X133158Y-277D02*
X133289Y-671D01*
X133420Y-277D01*
X133532Y-558D02*
X133720Y-558D01*
X133495Y-671D02*
X133626Y-277D01*
X133757Y-671D01*
X134076Y-671D02*
X133889Y-671D01*
X133889Y-277D01*
X134264Y-277D02*
X134264Y-371D01*
X134170Y-333D02*
X134264Y-371D01*
X134357Y-333D01*
X134207Y-446D02*
X134264Y-371D01*
X134320Y-446D01*
X134564Y-277D02*
X134564Y-371D01*
X134470Y-333D02*
X134564Y-371D01*
X134657Y-333D01*
X134507Y-446D02*
X134564Y-371D01*
X134620Y-446D01*
X65946Y-2286D02*
X66002Y-2305D01*
X66096Y-2305D01*
X66134Y-2286D01*
X66152Y-2267D01*
X66171Y-2230D01*
X66171Y-2192D01*
X66152Y-2155D01*
X66134Y-2136D01*
X66096Y-2117D01*
X66021Y-2098D01*
X65984Y-2080D01*
X65965Y-2061D01*
X65946Y-2023D01*
X65946Y-1986D01*
X65965Y-1948D01*
X65984Y-1930D01*
X66021Y-1911D01*
X66115Y-1911D01*
X66171Y-1930D01*
X66565Y-2267D02*
X66546Y-2286D01*
X66490Y-2305D01*
X66452Y-2305D01*
X66396Y-2286D01*
X66359Y-2248D01*
X66340Y-2211D01*
X66321Y-2136D01*
X66321Y-2080D01*
X66340Y-2005D01*
X66359Y-1967D01*
X66396Y-1930D01*
X66452Y-1911D01*
X66490Y-1911D01*
X66546Y-1930D01*
X66565Y-1948D01*
X66959Y-2305D02*
X66827Y-2117D01*
X66734Y-2305D02*
X66734Y-1911D01*
X66884Y-1911D01*
X66921Y-1930D01*
X66940Y-1948D01*
X66959Y-1986D01*
X66959Y-2042D01*
X66940Y-2080D01*
X66921Y-2098D01*
X66884Y-2117D01*
X66734Y-2117D01*
X67127Y-2098D02*
X67259Y-2098D01*
X67315Y-2305D02*
X67127Y-2305D01*
X67127Y-1911D01*
X67315Y-1911D01*
X67446Y-1911D02*
X67540Y-2305D01*
X67615Y-2023D01*
X67690Y-2305D01*
X67784Y-1911D01*
X67840Y-2342D02*
X68140Y-2342D01*
X68233Y-2305D02*
X68233Y-1911D01*
X68233Y-2098D02*
X68458Y-2098D01*
X68458Y-2305D02*
X68458Y-1911D01*
X68721Y-1911D02*
X68796Y-1911D01*
X68833Y-1930D01*
X68871Y-1967D01*
X68890Y-2042D01*
X68890Y-2173D01*
X68871Y-2248D01*
X68833Y-2286D01*
X68796Y-2305D01*
X68721Y-2305D01*
X68683Y-2286D01*
X68646Y-2248D01*
X68627Y-2173D01*
X68627Y-2042D01*
X68646Y-1967D01*
X68683Y-1930D01*
X68721Y-1911D01*
X69246Y-2305D02*
X69058Y-2305D01*
X69058Y-1911D01*
X69377Y-2098D02*
X69508Y-2098D01*
X69565Y-2305D02*
X69377Y-2305D01*
X69377Y-1911D01*
X69565Y-1911D01*
X67016Y-277D02*
X67147Y-671D01*
X67278Y-277D01*
X67391Y-558D02*
X67578Y-558D01*
X67353Y-671D02*
X67485Y-277D01*
X67616Y-671D01*
X67934Y-671D02*
X67747Y-671D01*
X67747Y-277D01*
X68122Y-277D02*
X68122Y-371D01*
X68028Y-333D02*
X68122Y-371D01*
X68216Y-333D01*
X68066Y-446D02*
X68122Y-371D01*
X68178Y-446D01*
X68422Y-277D02*
X68422Y-371D01*
X68328Y-333D02*
X68422Y-371D01*
X68516Y-333D01*
X68366Y-446D02*
X68422Y-371D01*
X68478Y-446D01*
X-391Y-58585D02*
X-335Y-58604D01*
X-241Y-58604D01*
X-204Y-58585D01*
X-185Y-58566D01*
X-166Y-58529D01*
X-166Y-58491D01*
X-185Y-58454D01*
X-204Y-58435D01*
X-241Y-58416D01*
X-316Y-58398D01*
X-354Y-58379D01*
X-373Y-58360D01*
X-391Y-58323D01*
X-391Y-58285D01*
X-373Y-58248D01*
X-354Y-58229D01*
X-316Y-58210D01*
X-223Y-58210D01*
X-166Y-58229D01*
X226Y-58566D02*
X208Y-58585D01*
X151Y-58604D01*
X114Y-58604D01*
X58Y-58585D01*
X20Y-58547D01*
X1Y-58510D01*
X-16Y-58435D01*
X-16Y-58379D01*
X1Y-58304D01*
X20Y-58266D01*
X58Y-58229D01*
X114Y-58210D01*
X151Y-58210D01*
X208Y-58229D01*
X226Y-58248D01*
X620Y-58604D02*
X489Y-58416D01*
X395Y-58604D02*
X395Y-58210D01*
X545Y-58210D01*
X583Y-58229D01*
X601Y-58248D01*
X620Y-58285D01*
X620Y-58341D01*
X601Y-58379D01*
X583Y-58398D01*
X545Y-58416D01*
X395Y-58416D01*
X789Y-58398D02*
X920Y-58398D01*
X976Y-58604D02*
X789Y-58604D01*
X789Y-58210D01*
X976Y-58210D01*
X1107Y-58210D02*
X1201Y-58604D01*
X1276Y-58323D01*
X1351Y-58604D01*
X1445Y-58210D01*
X1501Y-58641D02*
X1801Y-58641D01*
X1895Y-58604D02*
X1895Y-58210D01*
X1895Y-58398D02*
X2120Y-58398D01*
X2120Y-58604D02*
X2120Y-58210D01*
X2382Y-58210D02*
X2457Y-58210D01*
X2495Y-58229D01*
X2532Y-58266D01*
X2551Y-58341D01*
X2551Y-58473D01*
X2532Y-58547D01*
X2495Y-58585D01*
X2457Y-58604D01*
X2382Y-58604D01*
X2345Y-58585D01*
X2307Y-58547D01*
X2289Y-58473D01*
X2289Y-58341D01*
X2307Y-58266D01*
X2345Y-58229D01*
X2382Y-58210D01*
X2907Y-58604D02*
X2720Y-58604D01*
X2720Y-58210D01*
X3038Y-58398D02*
X3170Y-58398D01*
X3226Y-58604D02*
X3038Y-58604D01*
X3038Y-58210D01*
X3226Y-58210D01*
X677Y-56576D02*
X808Y-56970D01*
X940Y-56576D01*
X1052Y-56857D02*
X1240Y-56857D01*
X1015Y-56970D02*
X1146Y-56576D01*
X1277Y-56970D01*
X1596Y-56970D02*
X1408Y-56970D01*
X1408Y-56576D01*
X1783Y-56576D02*
X1783Y-56670D01*
X1690Y-56632D02*
X1783Y-56670D01*
X1877Y-56632D01*
X1727Y-56745D02*
X1783Y-56670D01*
X1840Y-56745D01*
X2083Y-56576D02*
X2083Y-56670D01*
X1990Y-56632D02*
X2083Y-56670D01*
X2177Y-56632D01*
X2027Y-56745D02*
X2083Y-56670D01*
X2140Y-56745D01*
X65946Y-58585D02*
X66002Y-58604D01*
X66096Y-58604D01*
X66134Y-58585D01*
X66152Y-58566D01*
X66171Y-58529D01*
X66171Y-58491D01*
X66152Y-58454D01*
X66134Y-58435D01*
X66096Y-58416D01*
X66021Y-58398D01*
X65984Y-58379D01*
X65965Y-58360D01*
X65946Y-58323D01*
X65946Y-58285D01*
X65965Y-58248D01*
X65984Y-58229D01*
X66021Y-58210D01*
X66115Y-58210D01*
X66171Y-58229D01*
X66565Y-58566D02*
X66546Y-58585D01*
X66490Y-58604D01*
X66452Y-58604D01*
X66396Y-58585D01*
X66359Y-58547D01*
X66340Y-58510D01*
X66321Y-58435D01*
X66321Y-58379D01*
X66340Y-58304D01*
X66359Y-58266D01*
X66396Y-58229D01*
X66452Y-58210D01*
X66490Y-58210D01*
X66546Y-58229D01*
X66565Y-58248D01*
X66959Y-58604D02*
X66827Y-58416D01*
X66734Y-58604D02*
X66734Y-58210D01*
X66884Y-58210D01*
X66921Y-58229D01*
X66940Y-58248D01*
X66959Y-58285D01*
X66959Y-58341D01*
X66940Y-58379D01*
X66921Y-58398D01*
X66884Y-58416D01*
X66734Y-58416D01*
X67127Y-58398D02*
X67259Y-58398D01*
X67315Y-58604D02*
X67127Y-58604D01*
X67127Y-58210D01*
X67315Y-58210D01*
X67446Y-58210D02*
X67540Y-58604D01*
X67615Y-58323D01*
X67690Y-58604D01*
X67784Y-58210D01*
X67840Y-58641D02*
X68140Y-58641D01*
X68233Y-58604D02*
X68233Y-58210D01*
X68233Y-58398D02*
X68458Y-58398D01*
X68458Y-58604D02*
X68458Y-58210D01*
X68721Y-58210D02*
X68796Y-58210D01*
X68833Y-58229D01*
X68871Y-58266D01*
X68890Y-58341D01*
X68890Y-58473D01*
X68871Y-58547D01*
X68833Y-58585D01*
X68796Y-58604D01*
X68721Y-58604D01*
X68683Y-58585D01*
X68646Y-58547D01*
X68627Y-58473D01*
X68627Y-58341D01*
X68646Y-58266D01*
X68683Y-58229D01*
X68721Y-58210D01*
X69246Y-58604D02*
X69058Y-58604D01*
X69058Y-58210D01*
X69377Y-58398D02*
X69508Y-58398D01*
X69565Y-58604D02*
X69377Y-58604D01*
X69377Y-58210D01*
X69565Y-58210D01*
X67016Y-56576D02*
X67147Y-56970D01*
X67278Y-56576D01*
X67391Y-56857D02*
X67578Y-56857D01*
X67353Y-56970D02*
X67485Y-56576D01*
X67616Y-56970D01*
X67934Y-56970D02*
X67747Y-56970D01*
X67747Y-56576D01*
X68122Y-56576D02*
X68122Y-56670D01*
X68028Y-56632D02*
X68122Y-56670D01*
X68216Y-56632D01*
X68066Y-56745D02*
X68122Y-56670D01*
X68178Y-56745D01*
X68422Y-56576D02*
X68422Y-56670D01*
X68328Y-56632D02*
X68422Y-56670D01*
X68516Y-56632D01*
X68366Y-56745D02*
X68422Y-56670D01*
X68478Y-56745D01*
X132088Y-58585D02*
X132144Y-58604D01*
X132238Y-58604D01*
X132275Y-58585D01*
X132294Y-58566D01*
X132313Y-58529D01*
X132313Y-58491D01*
X132294Y-58454D01*
X132275Y-58435D01*
X132238Y-58416D01*
X132163Y-58398D01*
X132125Y-58379D01*
X132107Y-58360D01*
X132088Y-58323D01*
X132088Y-58285D01*
X132107Y-58248D01*
X132125Y-58229D01*
X132163Y-58210D01*
X132257Y-58210D01*
X132313Y-58229D01*
X132707Y-58566D02*
X132688Y-58585D01*
X132632Y-58604D01*
X132594Y-58604D01*
X132538Y-58585D01*
X132500Y-58547D01*
X132482Y-58510D01*
X132463Y-58435D01*
X132463Y-58379D01*
X132482Y-58304D01*
X132500Y-58266D01*
X132538Y-58229D01*
X132594Y-58210D01*
X132632Y-58210D01*
X132688Y-58229D01*
X132707Y-58248D01*
X133100Y-58604D02*
X132969Y-58416D01*
X132875Y-58604D02*
X132875Y-58210D01*
X133025Y-58210D01*
X133063Y-58229D01*
X133082Y-58248D01*
X133100Y-58285D01*
X133100Y-58341D01*
X133082Y-58379D01*
X133063Y-58398D01*
X133025Y-58416D01*
X132875Y-58416D01*
X133269Y-58398D02*
X133400Y-58398D01*
X133457Y-58604D02*
X133269Y-58604D01*
X133269Y-58210D01*
X133457Y-58210D01*
X133588Y-58210D02*
X133682Y-58604D01*
X133757Y-58323D01*
X133832Y-58604D01*
X133925Y-58210D01*
X133982Y-58641D02*
X134281Y-58641D01*
X134375Y-58604D02*
X134375Y-58210D01*
X134375Y-58398D02*
X134600Y-58398D01*
X134600Y-58604D02*
X134600Y-58210D01*
X134863Y-58210D02*
X134938Y-58210D01*
X134975Y-58229D01*
X135013Y-58266D01*
X135031Y-58341D01*
X135031Y-58473D01*
X135013Y-58547D01*
X134975Y-58585D01*
X134938Y-58604D01*
X134863Y-58604D01*
X134825Y-58585D01*
X134788Y-58547D01*
X134769Y-58473D01*
X134769Y-58341D01*
X134788Y-58266D01*
X134825Y-58229D01*
X134863Y-58210D01*
X135388Y-58604D02*
X135200Y-58604D01*
X135200Y-58210D01*
X135519Y-58398D02*
X135650Y-58398D01*
X135706Y-58604D02*
X135519Y-58604D01*
X135519Y-58210D01*
X135706Y-58210D01*
X133158Y-56576D02*
X133289Y-56970D01*
X133420Y-56576D01*
X133532Y-56857D02*
X133720Y-56857D01*
X133495Y-56970D02*
X133626Y-56576D01*
X133757Y-56970D01*
X134076Y-56970D02*
X133889Y-56970D01*
X133889Y-56576D01*
X134264Y-56576D02*
X134264Y-56670D01*
X134170Y-56632D02*
X134264Y-56670D01*
X134357Y-56632D01*
X134207Y-56745D02*
X134264Y-56670D01*
X134320Y-56745D01*
X134564Y-56576D02*
X134564Y-56670D01*
X134470Y-56632D02*
X134564Y-56670D01*
X134657Y-56632D01*
X134507Y-56745D02*
X134564Y-56670D01*
X134620Y-56745D01*
X65946Y-38309D02*
X66002Y-38328D01*
X66096Y-38328D01*
X66134Y-38309D01*
X66152Y-38291D01*
X66171Y-38253D01*
X66171Y-38216D01*
X66152Y-38178D01*
X66134Y-38159D01*
X66096Y-38141D01*
X66021Y-38122D01*
X65984Y-38103D01*
X65965Y-38084D01*
X65946Y-38047D01*
X65946Y-38009D01*
X65965Y-37972D01*
X65984Y-37953D01*
X66021Y-37934D01*
X66115Y-37934D01*
X66171Y-37953D01*
X66565Y-38291D02*
X66546Y-38309D01*
X66490Y-38328D01*
X66452Y-38328D01*
X66396Y-38309D01*
X66359Y-38272D01*
X66340Y-38234D01*
X66321Y-38159D01*
X66321Y-38103D01*
X66340Y-38028D01*
X66359Y-37991D01*
X66396Y-37953D01*
X66452Y-37934D01*
X66490Y-37934D01*
X66546Y-37953D01*
X66565Y-37972D01*
X66959Y-38328D02*
X66827Y-38141D01*
X66734Y-38328D02*
X66734Y-37934D01*
X66884Y-37934D01*
X66921Y-37953D01*
X66940Y-37972D01*
X66959Y-38009D01*
X66959Y-38066D01*
X66940Y-38103D01*
X66921Y-38122D01*
X66884Y-38141D01*
X66734Y-38141D01*
X67127Y-38122D02*
X67259Y-38122D01*
X67315Y-38328D02*
X67127Y-38328D01*
X67127Y-37934D01*
X67315Y-37934D01*
X67446Y-37934D02*
X67540Y-38328D01*
X67615Y-38047D01*
X67690Y-38328D01*
X67784Y-37934D01*
X67840Y-38366D02*
X68140Y-38366D01*
X68233Y-38328D02*
X68233Y-37934D01*
X68233Y-38122D02*
X68458Y-38122D01*
X68458Y-38328D02*
X68458Y-37934D01*
X68721Y-37934D02*
X68796Y-37934D01*
X68833Y-37953D01*
X68871Y-37991D01*
X68890Y-38066D01*
X68890Y-38197D01*
X68871Y-38272D01*
X68833Y-38309D01*
X68796Y-38328D01*
X68721Y-38328D01*
X68683Y-38309D01*
X68646Y-38272D01*
X68627Y-38197D01*
X68627Y-38066D01*
X68646Y-37991D01*
X68683Y-37953D01*
X68721Y-37934D01*
X69246Y-38328D02*
X69058Y-38328D01*
X69058Y-37934D01*
X69377Y-38122D02*
X69508Y-38122D01*
X69565Y-38328D02*
X69377Y-38328D01*
X69377Y-37934D01*
X69565Y-37934D01*
X67016Y-36301D02*
X67147Y-36694D01*
X67278Y-36301D01*
X67391Y-36582D02*
X67578Y-36582D01*
X67353Y-36694D02*
X67485Y-36301D01*
X67616Y-36694D01*
X67934Y-36694D02*
X67747Y-36694D01*
X67747Y-36301D01*
X68122Y-36301D02*
X68122Y-36394D01*
X68028Y-36357D02*
X68122Y-36394D01*
X68216Y-36357D01*
X68066Y-36469D02*
X68122Y-36394D01*
X68178Y-36469D01*
X68422Y-36301D02*
X68422Y-36394D01*
X68328Y-36357D02*
X68422Y-36394D01*
X68516Y-36357D01*
X68366Y-36469D02*
X68422Y-36394D01*
X68478Y-36469D01*
G54D12*
X15094Y-36147D02*
X14594Y-36147D01*
X15094Y-35804D01*
X14594Y-35804D01*
X14594Y-35518D02*
X14998Y-35518D01*
X15046Y-35489D01*
X15070Y-35461D01*
X15094Y-35404D01*
X15094Y-35289D01*
X15070Y-35232D01*
X15046Y-35204D01*
X14998Y-35175D01*
X14594Y-35175D01*
X15094Y-34889D02*
X14594Y-34889D01*
X14951Y-34689D01*
X14594Y-34489D01*
X15094Y-34489D01*
X15141Y-34347D02*
X15141Y-33889D01*
X15094Y-33747D02*
X14594Y-33747D01*
X14594Y-33518D01*
X14617Y-33461D01*
X14641Y-33432D01*
X14689Y-33404D01*
X14760Y-33404D01*
X14808Y-33432D01*
X14832Y-33461D01*
X14856Y-33518D01*
X14856Y-33747D01*
X15094Y-32861D02*
X15094Y-33147D01*
X14594Y-33147D01*
X14594Y-32661D02*
X14998Y-32661D01*
X15046Y-32632D01*
X15070Y-32604D01*
X15094Y-32547D01*
X15094Y-32432D01*
X15070Y-32375D01*
X15046Y-32347D01*
X14998Y-32318D01*
X14594Y-32318D01*
X15070Y-32061D02*
X15094Y-31975D01*
X15094Y-31832D01*
X15070Y-31775D01*
X15046Y-31747D01*
X14998Y-31718D01*
X14951Y-31718D01*
X14903Y-31747D01*
X14879Y-31775D01*
X14856Y-31832D01*
X14832Y-31947D01*
X14808Y-32004D01*
X14784Y-32032D01*
X14736Y-32061D01*
X14689Y-32061D01*
X14641Y-32032D01*
X14617Y-32004D01*
X14594Y-31947D01*
X14594Y-31804D01*
X14617Y-31718D01*
X15094Y-31147D02*
X15094Y-31489D01*
X15094Y-31318D02*
X14594Y-31318D01*
X14665Y-31375D01*
X14713Y-31432D01*
X14736Y-31489D01*
X15094Y-51350D02*
X14594Y-51350D01*
X15094Y-51007D01*
X14594Y-51007D01*
X14594Y-50722D02*
X14998Y-50722D01*
X15046Y-50693D01*
X15070Y-50664D01*
X15094Y-50607D01*
X15094Y-50493D01*
X15070Y-50436D01*
X15046Y-50407D01*
X14998Y-50379D01*
X14594Y-50379D01*
X15094Y-50093D02*
X14594Y-50093D01*
X14951Y-49893D01*
X14594Y-49693D01*
X15094Y-49693D01*
X15141Y-49550D02*
X15141Y-49093D01*
X14832Y-48950D02*
X14832Y-48750D01*
X15094Y-48664D02*
X15094Y-48950D01*
X14594Y-48950D01*
X14594Y-48664D01*
X15094Y-48407D02*
X14594Y-48407D01*
X15094Y-48064D01*
X14594Y-48064D01*
X14594Y-47864D02*
X14594Y-47522D01*
X15094Y-47693D02*
X14594Y-47693D01*
X14832Y-47322D02*
X14832Y-47122D01*
X15094Y-47036D02*
X15094Y-47322D01*
X14594Y-47322D01*
X14594Y-47036D01*
X15094Y-46436D02*
X14856Y-46636D01*
X15094Y-46779D02*
X14594Y-46779D01*
X14594Y-46550D01*
X14617Y-46493D01*
X14641Y-46464D01*
X14689Y-46436D01*
X14760Y-46436D01*
X14808Y-46464D01*
X14832Y-46493D01*
X14856Y-46550D01*
X14856Y-46779D01*
X15094Y-45864D02*
X15094Y-46207D01*
X15094Y-46036D02*
X14594Y-46036D01*
X14665Y-46093D01*
X14713Y-46150D01*
X14736Y-46207D01*
X33499Y-51314D02*
X33499Y-50814D01*
X33842Y-51314D01*
X33842Y-50814D01*
X34128Y-50814D02*
X34128Y-51219D01*
X34156Y-51266D01*
X34185Y-51290D01*
X34242Y-51314D01*
X34356Y-51314D01*
X34413Y-51290D01*
X34442Y-51266D01*
X34471Y-51219D01*
X34471Y-50814D01*
X34756Y-51314D02*
X34756Y-50814D01*
X34956Y-51171D01*
X35156Y-50814D01*
X35156Y-51314D01*
X35299Y-51362D02*
X35756Y-51362D01*
X36013Y-50814D02*
X36071Y-50814D01*
X36128Y-50838D01*
X36156Y-50862D01*
X36185Y-50909D01*
X36213Y-51005D01*
X36213Y-51124D01*
X36185Y-51219D01*
X36156Y-51266D01*
X36128Y-51290D01*
X36071Y-51314D01*
X36013Y-51314D01*
X35956Y-51290D01*
X35928Y-51266D01*
X35899Y-51219D01*
X35871Y-51124D01*
X35871Y-51005D01*
X35899Y-50909D01*
X35928Y-50862D01*
X35956Y-50838D01*
X36013Y-50814D01*
X74801Y-43834D02*
X74516Y-43834D01*
X74516Y-43334D01*
X75001Y-43572D02*
X75201Y-43572D01*
X75287Y-43834D02*
X75001Y-43834D01*
X75001Y-43334D01*
X75287Y-43334D01*
X75744Y-43572D02*
X75544Y-43572D01*
X75544Y-43834D02*
X75544Y-43334D01*
X75830Y-43334D01*
X75973Y-43334D02*
X76316Y-43334D01*
X76144Y-43834D02*
X76144Y-43334D01*
X76373Y-43881D02*
X76830Y-43881D01*
X76944Y-43810D02*
X77030Y-43834D01*
X77173Y-43834D01*
X77230Y-43810D01*
X77258Y-43786D01*
X77287Y-43739D01*
X77287Y-43691D01*
X77258Y-43643D01*
X77230Y-43619D01*
X77173Y-43596D01*
X77058Y-43572D01*
X77001Y-43548D01*
X76973Y-43524D01*
X76944Y-43477D01*
X76944Y-43429D01*
X76973Y-43381D01*
X77001Y-43358D01*
X77058Y-43334D01*
X77201Y-43334D01*
X77287Y-43358D01*
X77544Y-43834D02*
X77544Y-43334D01*
X77544Y-43572D02*
X77887Y-43572D01*
X77887Y-43834D02*
X77887Y-43334D01*
X78173Y-43834D02*
X78173Y-43334D01*
X78658Y-43572D02*
X78458Y-43572D01*
X78458Y-43834D02*
X78458Y-43334D01*
X78744Y-43334D01*
X78887Y-43334D02*
X79230Y-43334D01*
X79058Y-43834D02*
X79058Y-43334D01*
X79744Y-43834D02*
X79401Y-43834D01*
X79573Y-43834D02*
X79573Y-43334D01*
X79516Y-43405D01*
X79458Y-43453D01*
X79401Y-43477D01*
X123360Y-28873D02*
X123360Y-28373D01*
X123703Y-28873D02*
X123446Y-28587D01*
X123703Y-28373D02*
X123360Y-28659D01*
X123960Y-28611D02*
X124160Y-28611D01*
X124246Y-28873D02*
X123960Y-28873D01*
X123960Y-28373D01*
X124246Y-28373D01*
X124617Y-28635D02*
X124617Y-28873D01*
X124417Y-28373D02*
X124617Y-28635D01*
X124817Y-28373D01*
X124874Y-28921D02*
X125331Y-28921D01*
X125760Y-28873D02*
X125474Y-28873D01*
X125474Y-28373D01*
X125903Y-28373D02*
X126274Y-28373D01*
X126074Y-28564D01*
X126160Y-28564D01*
X126217Y-28587D01*
X126246Y-28611D01*
X126274Y-28659D01*
X126274Y-28778D01*
X126246Y-28826D01*
X126217Y-28849D01*
X126160Y-28873D01*
X125988Y-28873D01*
X125931Y-28849D01*
X125903Y-28826D01*
X113887Y-51314D02*
X113602Y-51314D01*
X113602Y-50814D01*
X114087Y-51052D02*
X114287Y-51052D01*
X114373Y-51314D02*
X114087Y-51314D01*
X114087Y-50814D01*
X114373Y-50814D01*
X114830Y-51052D02*
X114630Y-51052D01*
X114630Y-51314D02*
X114630Y-50814D01*
X114916Y-50814D01*
X115059Y-50814D02*
X115402Y-50814D01*
X115230Y-51314D02*
X115230Y-50814D01*
X115459Y-51362D02*
X115916Y-51362D01*
X116030Y-51290D02*
X116116Y-51314D01*
X116259Y-51314D01*
X116316Y-51290D01*
X116344Y-51266D01*
X116373Y-51219D01*
X116373Y-51171D01*
X116344Y-51124D01*
X116316Y-51100D01*
X116259Y-51076D01*
X116144Y-51052D01*
X116087Y-51028D01*
X116059Y-51005D01*
X116030Y-50957D01*
X116030Y-50909D01*
X116059Y-50862D01*
X116087Y-50838D01*
X116144Y-50814D01*
X116287Y-50814D01*
X116373Y-50838D01*
X116630Y-51314D02*
X116630Y-50814D01*
X116859Y-50814D01*
X116916Y-50838D01*
X116944Y-50862D01*
X116973Y-50909D01*
X116973Y-50981D01*
X116944Y-51028D01*
X116916Y-51052D01*
X116859Y-51076D01*
X116630Y-51076D01*
X117202Y-51171D02*
X117487Y-51171D01*
X117144Y-51314D02*
X117344Y-50814D01*
X117544Y-51314D01*
X118087Y-51266D02*
X118059Y-51290D01*
X117973Y-51314D01*
X117916Y-51314D01*
X117830Y-51290D01*
X117773Y-51243D01*
X117744Y-51195D01*
X117716Y-51100D01*
X117716Y-51028D01*
X117744Y-50933D01*
X117773Y-50886D01*
X117830Y-50838D01*
X117916Y-50814D01*
X117973Y-50814D01*
X118059Y-50838D01*
X118087Y-50862D01*
X118344Y-51052D02*
X118544Y-51052D01*
X118630Y-51314D02*
X118344Y-51314D01*
X118344Y-50814D01*
X118630Y-50814D01*
X119202Y-51314D02*
X118859Y-51314D01*
X119030Y-51314D02*
X119030Y-50814D01*
X118973Y-50886D01*
X118916Y-50933D01*
X118859Y-50957D01*
X70275Y-51314D02*
X69990Y-51314D01*
X69990Y-50814D01*
X70475Y-51052D02*
X70675Y-51052D01*
X70761Y-51314D02*
X70475Y-51314D01*
X70475Y-50814D01*
X70761Y-50814D01*
X71218Y-51052D02*
X71018Y-51052D01*
X71018Y-51314D02*
X71018Y-50814D01*
X71304Y-50814D01*
X71447Y-50814D02*
X71790Y-50814D01*
X71618Y-51314D02*
X71618Y-50814D01*
X71847Y-51362D02*
X72304Y-51362D01*
X72790Y-51266D02*
X72761Y-51290D01*
X72675Y-51314D01*
X72618Y-51314D01*
X72533Y-51290D01*
X72475Y-51243D01*
X72447Y-51195D01*
X72418Y-51100D01*
X72418Y-51028D01*
X72447Y-50933D01*
X72475Y-50886D01*
X72533Y-50838D01*
X72618Y-50814D01*
X72675Y-50814D01*
X72761Y-50838D01*
X72790Y-50862D01*
X73161Y-50814D02*
X73275Y-50814D01*
X73333Y-50838D01*
X73390Y-50886D01*
X73418Y-50981D01*
X73418Y-51147D01*
X73390Y-51243D01*
X73333Y-51290D01*
X73275Y-51314D01*
X73161Y-51314D01*
X73104Y-51290D01*
X73047Y-51243D01*
X73018Y-51147D01*
X73018Y-50981D01*
X73047Y-50886D01*
X73104Y-50838D01*
X73161Y-50814D01*
X73675Y-51314D02*
X73675Y-50814D01*
X74018Y-51314D01*
X74018Y-50814D01*
X74218Y-50814D02*
X74561Y-50814D01*
X74390Y-51314D02*
X74390Y-50814D01*
X75104Y-51314D02*
X74904Y-51076D01*
X74761Y-51314D02*
X74761Y-50814D01*
X74990Y-50814D01*
X75047Y-50838D01*
X75075Y-50862D01*
X75104Y-50909D01*
X75104Y-50981D01*
X75075Y-51028D01*
X75047Y-51052D01*
X74990Y-51076D01*
X74761Y-51076D01*
X75475Y-50814D02*
X75590Y-50814D01*
X75647Y-50838D01*
X75704Y-50886D01*
X75733Y-50981D01*
X75733Y-51147D01*
X75704Y-51243D01*
X75647Y-51290D01*
X75590Y-51314D01*
X75475Y-51314D01*
X75418Y-51290D01*
X75361Y-51243D01*
X75333Y-51147D01*
X75333Y-50981D01*
X75361Y-50886D01*
X75418Y-50838D01*
X75475Y-50814D01*
X76275Y-51314D02*
X75990Y-51314D01*
X75990Y-50814D01*
X76790Y-51314D02*
X76447Y-51314D01*
X76618Y-51314D02*
X76618Y-50814D01*
X76561Y-50886D01*
X76504Y-50933D01*
X76447Y-50957D01*
X80840Y-51314D02*
X80554Y-51314D01*
X80554Y-50814D01*
X81040Y-51052D02*
X81240Y-51052D01*
X81326Y-51314D02*
X81040Y-51314D01*
X81040Y-50814D01*
X81326Y-50814D01*
X81783Y-51052D02*
X81583Y-51052D01*
X81583Y-51314D02*
X81583Y-50814D01*
X81869Y-50814D01*
X82012Y-50814D02*
X82354Y-50814D01*
X82183Y-51314D02*
X82183Y-50814D01*
X82412Y-51362D02*
X82869Y-51362D01*
X82954Y-50814D02*
X83097Y-51314D01*
X83212Y-50957D01*
X83326Y-51314D01*
X83469Y-50814D01*
X83697Y-51314D02*
X83697Y-50814D01*
X83983Y-51314D02*
X83983Y-50814D01*
X84326Y-51314D01*
X84326Y-50814D01*
X84926Y-51314D02*
X84583Y-51314D01*
X84754Y-51314D02*
X84754Y-50814D01*
X84697Y-50886D01*
X84640Y-50933D01*
X84583Y-50957D01*
M02*
